<svg xmlns="http://www.w3.org/2000/svg" width="1100" height="700" viewBox="0 0 1100 700">
<rect width="100%" height="100%" fill="white"/>
<text x="550.0" y="30" text-anchor="middle" font-family="Arial" font-size="22" fill="#111">addsub_n.h fine sweep zoom: 0..0.4 ns/limb</text>
<line x1="80.0" y1="58" x2="80.0" y2="630" stroke="#e9e9e9"/>
<text x="80.0" y="654" text-anchor="middle" font-family="Arial" font-size="13" fill="#333">1</text>
<line x1="190.0" y1="58" x2="190.0" y2="630" stroke="#e9e9e9"/>
<text x="190.0" y="654" text-anchor="middle" font-family="Arial" font-size="13" fill="#333">2</text>
<line x1="300.0" y1="58" x2="300.0" y2="630" stroke="#e9e9e9"/>
<text x="300.0" y="654" text-anchor="middle" font-family="Arial" font-size="13" fill="#333">4</text>
<line x1="410.0" y1="58" x2="410.0" y2="630" stroke="#e9e9e9"/>
<text x="410.0" y="654" text-anchor="middle" font-family="Arial" font-size="13" fill="#333">8</text>
<line x1="520.0" y1="58" x2="520.0" y2="630" stroke="#e9e9e9"/>
<text x="520.0" y="654" text-anchor="middle" font-family="Arial" font-size="13" fill="#333">16</text>
<line x1="630.0" y1="58" x2="630.0" y2="630" stroke="#e9e9e9"/>
<text x="630.0" y="654" text-anchor="middle" font-family="Arial" font-size="13" fill="#333">32</text>
<line x1="740.0" y1="58" x2="740.0" y2="630" stroke="#e9e9e9"/>
<text x="740.0" y="654" text-anchor="middle" font-family="Arial" font-size="13" fill="#333">64</text>
<line x1="850.0" y1="58" x2="850.0" y2="630" stroke="#e9e9e9"/>
<text x="850.0" y="654" text-anchor="middle" font-family="Arial" font-size="13" fill="#333">128</text>
<line x1="960.0" y1="58" x2="960.0" y2="630" stroke="#e9e9e9"/>
<text x="960.0" y="654" text-anchor="middle" font-family="Arial" font-size="13" fill="#333">256</text>
<line x1="1070.0" y1="58" x2="1070.0" y2="630" stroke="#e9e9e9"/>
<text x="1070.0" y="654" text-anchor="middle" font-family="Arial" font-size="13" fill="#333">512</text>
<line x1="80" y1="630.0" x2="1070" y2="630.0" stroke="#e9e9e9"/>
<text x="70" y="634.0" text-anchor="end" font-family="Arial" font-size="13" fill="#333">0.00</text>
<line x1="80" y1="558.5" x2="1070" y2="558.5" stroke="#e9e9e9"/>
<text x="70" y="562.5" text-anchor="end" font-family="Arial" font-size="13" fill="#333">0.05</text>
<line x1="80" y1="487.0" x2="1070" y2="487.0" stroke="#e9e9e9"/>
<text x="70" y="491.0" text-anchor="end" font-family="Arial" font-size="13" fill="#333">0.10</text>
<line x1="80" y1="415.5" x2="1070" y2="415.5" stroke="#e9e9e9"/>
<text x="70" y="419.5" text-anchor="end" font-family="Arial" font-size="13" fill="#333">0.15</text>
<line x1="80" y1="344.0" x2="1070" y2="344.0" stroke="#e9e9e9"/>
<text x="70" y="348.0" text-anchor="end" font-family="Arial" font-size="13" fill="#333">0.20</text>
<line x1="80" y1="272.5" x2="1070" y2="272.5" stroke="#e9e9e9"/>
<text x="70" y="276.5" text-anchor="end" font-family="Arial" font-size="13" fill="#333">0.25</text>
<line x1="80" y1="201.0" x2="1070" y2="201.0" stroke="#e9e9e9"/>
<text x="70" y="205.0" text-anchor="end" font-family="Arial" font-size="13" fill="#333">0.30</text>
<line x1="80" y1="129.5" x2="1070" y2="129.5" stroke="#e9e9e9"/>
<text x="70" y="133.5" text-anchor="end" font-family="Arial" font-size="13" fill="#333">0.35</text>
<line x1="80" y1="58.0" x2="1070" y2="58.0" stroke="#e9e9e9"/>
<text x="70" y="62.0" text-anchor="end" font-family="Arial" font-size="13" fill="#333">0.40</text>
<line x1="80" y1="58" x2="80" y2="630" stroke="#333"/>
<line x1="80" y1="630" x2="1070" y2="630" stroke="#333"/>
<text x="550.0" y="678" text-anchor="middle" font-family="Arial" font-size="15" fill="#111">limbs, log2 scale</text>
<text transform="translate(24 350.0) rotate(-90)" text-anchor="middle" font-family="Arial" font-size="15" fill="#111">ns / limb</text>
<polyline points="80.00,58.00 190.00,58.00 254.35,58.00 300.00,58.00 335.41,134.18 364.35,214.98 388.81,272.72 410.00,252.85 428.69,330.81 445.41,332.10 460.54,333.30 474.35,291.80 487.05,317.13 498.81,340.38 509.76,359.15 520.00,391.87 529.62,389.75 538.69,386.54 547.27,380.07 555.41,353.55 563.15,365.46 570.54,377.27 577.59,389.34 584.35,417.85 590.82,398.02 597.05,395.83 603.04,389.79 608.81,370.42 614.38,378.91 619.76,386.84 624.96,394.47 630.00,432.98 634.88,426.47 639.62,422.50 644.22,419.68 648.69,393.74 653.04,400.72 657.27,408.22 661.39,410.75 665.41,430.24 669.33,422.16 673.15,419.17 676.89,415.04 680.54,396.04 684.10,401.15 687.59,406.23 691.00,410.95 694.35,422.10 697.62,420.18 700.82,419.48 703.97,420.60 707.05,404.99 710.07,409.91 713.04,416.83 715.95,419.10 718.81,429.87 721.62,422.44 724.38,422.84 727.09,419.85 729.76,408.09 732.38,412.68 734.96,415.16 737.50,418.33 740.00,438.53 742.46,433.96 744.88,434.41 747.27,436.06 749.62,423.24 751.94,426.09 754.22,428.89 756.47,432.96 758.69,438.87 760.88,432.27 763.04,430.18 765.17,428.05 767.27,419.01 769.35,421.77 771.39,424.75 773.42,427.75 775.41,431.74 777.38,432.41 779.33,432.64 781.25,433.05 783.15,420.80 785.03,424.06 786.89,426.17 788.72,429.67 790.54,435.09 792.33,431.37 794.10,432.04 795.86,430.38 797.59,420.59 799.31,422.35 801.00,425.10 802.68,426.46 804.35,438.83 805.99,437.65 807.62,437.56 809.23,436.56 810.82,427.09 812.40,429.11 813.97,431.87 815.52,432.97 817.05,438.77 818.57,437.12 820.07,436.40 821.56,433.71 823.04,423.50 824.50,426.52 825.95,427.35 827.39,429.17 828.81,436.82 830.22,436.54 831.62,437.06 833.00,437.04 834.38,427.49 835.74,428.75 837.09,430.71 838.43,432.37 839.76,438.69 841.07,435.33 842.38,435.65 843.68,435.41 844.96,426.17 846.24,427.60 847.50,428.37 848.76,430.56 850.00,440.00 851.23,439.37 852.46,438.85 853.68,438.28 854.88,430.36 856.08,431.93 857.27,433.26 858.45,437.82 859.62,442.98 860.78,441.01 861.94,439.07 863.08,436.26 864.22,425.37 865.35,433.27 866.47,434.42 867.59,436.78 868.69,442.27 869.79,442.18 870.88,441.98 871.96,440.86 873.04,435.68 874.11,436.20 875.17,437.13 876.22,438.30 877.27,441.57 878.31,440.21 879.35,439.20 880.37,439.69 881.39,434.07 882.41,434.88 883.42,435.86 884.42,437.52 885.41,443.95 886.40,443.44 887.38,442.39 888.36,441.46 889.33,436.15 890.30,437.69 891.25,439.15 892.21,440.35 893.15,443.49 894.10,441.74 895.03,441.16 895.96,439.03 896.89,433.77 897.81,342.82 898.72,344.94 899.63,436.55 900.54,441.81 901.44,441.95 902.33,442.57 903.22,441.31 904.10,436.82 904.98,437.65 905.86,438.93 906.73,439.76 907.59,443.20 908.45,440.74 909.31,440.27 910.16,440.35 911.00,433.75 911.85,435.39 912.68,436.69 913.52,437.15 914.35,442.87 915.17,443.29 915.99,441.92 916.81,441.06 917.62,436.06 918.43,438.56 919.23,439.67 920.03,439.92 920.82,443.64 921.62,441.74 922.40,440.97 923.19,438.86 923.97,435.10 924.74,436.22 925.52,436.21 926.28,437.17 927.05,441.49 927.81,441.24 928.57,441.98 929.32,441.58 930.07,436.61 930.82,436.65 931.56,437.25 932.30,438.38 933.04,441.73 933.77,441.32 934.50,440.81 935.23,439.47 935.95,434.96 936.67,436.23 937.39,436.53 938.10,437.84 938.81,442.92 939.52,441.71 940.22,442.39 940.92,441.61 941.62,437.26 942.31,436.98 943.00,438.45 943.69,438.82 944.38,442.07 945.06,440.33 945.74,440.02 946.42,438.37 947.09,434.63 947.76,436.26 948.43,437.02 949.10,438.93 949.76,441.79 950.42,441.88 951.07,441.68 951.73,439.77 952.38,436.71 953.03,437.80 953.68,437.57 954.32,438.83 954.96,441.93 955.60,440.92 956.24,439.82 956.87,439.37 957.50,435.53 958.13,436.44 958.76,436.42 959.38,437.07 960.00,442.47 960.62,442.21 961.23,441.87 961.85,440.50 962.46,437.11 963.07,437.36 963.68,438.01 964.28,439.12 964.88,441.73 965.48,440.31 966.08,440.81 966.68,438.92 967.27,435.02 967.86,435.91 968.45,436.69 969.04,437.51 969.62,441.26 970.20,441.95 970.78,440.96 971.36,440.75 971.94,437.34 972.51,438.02 973.08,438.80 973.65,439.49 974.22,441.65 974.79,440.72 975.35,439.86 975.91,438.99 976.47,436.01 977.03,436.64 977.59,436.84 978.14,438.08 978.69,442.18 979.24,442.08 979.79,441.89 980.34,440.36 980.88,437.53 981.42,438.33 981.96,437.47 982.50,439.39 983.04,441.74 983.58,440.47 984.11,440.72 984.64,439.22 985.17,436.46 985.70,437.17 986.22,437.66 986.75,438.58 987.27,441.67 987.79,439.71 988.31,440.64 988.83,441.08 989.35,436.26 989.86,437.35 990.37,437.28 990.88,438.44 991.39,439.50 991.90,440.13 992.41,440.22 992.91,439.57 993.42,436.00 993.92,437.51 994.42,437.07 994.92,438.63 995.41,442.30 995.91,441.86 996.40,441.41 996.89,440.94 997.38,437.85 997.87,438.70 998.36,438.87 998.85,438.94 999.33,442.26 999.81,440.99 1000.30,440.66 1000.78,439.88 1001.25,437.11 1001.73,437.67 1002.21,437.91 1002.68,438.81 1003.15,439.74 1003.63,439.33 1004.10,440.56 1004.57,440.44 1005.03,436.93 1005.50,432.94 1005.96,438.27 1006.43,438.03 1006.89,442.53 1007.35,438.17 1007.81,437.39 1008.27,437.60 1008.72,433.41 1009.18,433.85 1009.63,434.84 1010.09,435.21 1010.54,438.48 1010.99,437.81 1011.44,438.14 1011.88,437.76 1012.33,434.70 1012.78,435.13 1013.22,435.87 1013.66,436.19 1014.10,438.51 1014.54,436.96 1014.98,437.13 1015.42,436.55 1015.86,433.68 1016.29,434.38 1016.73,434.78 1017.16,435.10 1017.59,437.82 1018.02,437.88 1018.45,437.69 1018.88,437.67 1019.31,434.64 1019.73,435.18 1020.16,435.64 1020.58,436.15 1021.00,437.93 1021.43,437.25 1021.85,437.09 1022.27,435.75 1022.68,433.78 1023.10,434.23 1023.52,434.62 1023.93,435.27 1024.35,438.38 1024.76,438.14 1025.17,437.70 1025.58,437.51 1025.99,434.82 1026.40,435.23 1026.81,436.00 1027.21,436.87 1027.62,438.07 1028.02,436.99 1028.43,436.87 1028.83,436.03 1029.23,433.42 1029.63,434.08 1030.03,434.77 1030.43,434.93 1030.82,437.28 1031.22,437.55 1031.62,437.05 1032.01,436.96 1032.40,434.35 1032.80,434.96 1033.19,435.12 1033.58,435.86 1033.97,437.17 1034.36,436.38 1034.74,438.40 1035.13,439.07 1035.52,435.49 1035.90,435.27 1036.28,434.97 1036.67,435.27 1037.05,438.23 1037.43,437.89 1037.81,437.80 1038.19,437.39 1038.57,435.03 1038.94,436.13 1039.32,436.01 1039.70,436.42 1040.07,438.27 1040.45,440.76 1040.82,441.24 1041.19,440.17 1041.56,438.75 1041.93,439.95 1042.30,438.61 1042.67,439.25 1043.04,442.28 1043.40,442.33 1043.77,442.14 1044.14,441.21 1044.50,438.70 1044.86,439.82 1045.23,439.45 1045.59,440.62 1045.95,442.41 1046.31,442.54 1046.67,442.05 1047.03,441.34 1047.39,438.80 1047.74,439.20 1048.10,439.52 1048.45,440.10 1048.81,441.95 1049.16,442.41 1049.52,442.31 1049.87,441.03 1050.22,439.61 1050.57,439.32 1050.92,440.32 1051.27,440.79 1051.62,441.30 1051.97,441.70 1052.31,441.52 1052.66,440.62 1053.00,438.97 1053.35,438.47 1053.69,439.46 1054.04,440.05 1054.38,442.25 1054.72,442.36 1055.06,440.39 1055.40,441.53 1055.74,438.68 1056.08,439.08 1056.42,440.18 1056.75,440.68 1057.09,442.14 1057.43,441.33 1057.76,441.42 1058.10,441.32 1058.43,438.93 1058.76,437.92 1059.10,436.19 1059.43,435.62 1059.76,438.27 1060.09,438.77 1060.42,438.60 1060.75,437.36 1061.07,435.20 1061.40,435.55 1061.73,437.01 1062.06,436.32 1062.38,438.93 1062.71,438.29 1063.03,436.83 1063.35,436.19 1063.68,434.34 1064.00,435.02 1064.32,435.37 1064.64,436.44 1064.96,437.77 1065.28,437.65 1065.60,436.85 1065.92,436.44 1066.24,435.16 1066.55,436.56 1066.87,436.69 1067.19,436.29 1067.50,438.50 1067.82,437.12 1068.13,436.21 1068.44,436.88 1068.76,434.37 1069.07,434.78 1069.38,435.31 1069.69,436.54 1070.00,438.02" fill="none" stroke="#0b6cff" stroke-width="2"/>
<polyline points="80.00,58.00 190.00,58.00 254.35,58.00 300.00,58.00 335.41,58.00 364.35,58.00 388.81,161.01 410.00,190.55 428.69,239.17 445.41,224.49 460.54,284.30 474.35,291.22 487.05,312.39 498.81,301.23 509.76,318.00 520.00,321.09 529.62,328.21 538.69,325.47 547.27,332.23 555.41,333.37 563.15,336.80 570.54,332.33 577.59,338.00 584.35,338.12 590.82,338.50 597.05,335.24 603.04,338.33 608.81,338.27 614.38,340.64 619.76,335.36 624.96,340.41 630.00,340.41 634.88,342.73 639.62,341.72 644.22,342.06 648.69,343.68 653.04,342.23 657.27,341.07 661.39,339.58 665.41,338.29 669.33,337.74 673.15,336.16 676.89,339.80 680.54,339.91 684.10,341.40 687.59,338.63 691.00,339.21 694.35,339.32 697.62,340.28 700.82,339.88 703.97,341.28 707.05,338.54 710.07,338.34 713.04,341.16 715.95,343.24 718.81,342.84 721.62,340.28 724.38,340.81 727.09,343.70 729.76,343.16 732.38,342.76 734.96,342.03 737.50,342.21 740.00,344.37 742.46,344.61 744.88,341.94 747.27,346.83 749.62,346.03 751.94,345.35 754.22,350.84 756.47,345.07 758.69,342.00 760.88,340.85 763.04,341.76 765.17,343.92 767.27,342.18 769.35,343.24 771.39,343.47 773.42,341.34 775.41,342.95 777.38,342.17 779.33,342.88 781.25,345.65 783.15,342.06 785.03,343.88 786.89,341.70 788.72,346.00 790.54,344.12 792.33,344.03 794.10,346.10 795.86,343.42 797.59,343.88 799.31,343.93 801.00,344.19 802.68,343.46 804.35,343.55 805.99,344.03 807.62,342.29 809.23,342.08 810.82,346.14 812.40,344.09 813.97,343.58 815.52,344.60 817.05,344.03 818.57,345.91 820.07,343.17 821.56,343.37 823.04,344.16 824.50,345.42 825.95,342.73 827.39,345.17 828.81,343.91 830.22,345.10 831.62,342.70 833.00,344.25 834.38,344.39 835.74,345.22 837.09,344.12 838.43,344.31 839.76,344.29 841.07,345.01 842.38,343.98 843.68,345.18 844.96,345.39 846.24,344.72 847.50,344.47 848.76,343.49 850.00,344.04 851.23,346.38 852.46,343.56 853.68,343.60 854.88,345.58 856.08,345.62 857.27,345.83 858.45,345.54 859.62,349.12 860.78,348.62 861.94,349.03 863.08,348.09 864.22,238.11 865.35,350.35 866.47,349.38 867.59,351.64 868.69,350.84 869.79,350.98 870.88,349.01 871.96,350.66 873.04,350.73 874.11,351.93 875.17,352.83 876.22,350.73 877.27,351.59 878.31,349.75 879.35,349.73 880.37,352.82 881.39,351.00 882.41,350.97 883.42,350.85 884.42,355.64 885.41,351.61 886.40,351.74 887.38,349.55 888.36,350.58 889.33,350.81 890.30,351.83 891.25,351.57 892.21,352.28 893.15,351.95 894.10,351.37 895.03,349.77 895.96,350.80 896.89,237.22 897.81,231.81 898.72,235.31 899.63,349.63 900.54,350.43 901.44,350.80 902.33,349.98 903.22,350.30 904.10,350.66 904.98,350.13 905.86,350.57 906.73,353.49 907.59,350.00 908.45,352.16 909.31,350.60 910.16,350.45 911.00,351.25 911.85,350.96 912.68,350.66 913.52,351.82 914.35,350.47 915.17,352.11 915.99,350.93 916.81,351.66 917.62,352.20 918.43,352.85 919.23,352.56 920.03,353.22 920.82,352.93 921.62,352.07 922.40,352.65 923.19,351.50 923.97,351.89 924.74,351.90 925.52,351.93 926.28,351.86 927.05,350.95 927.81,351.38 928.57,351.48 929.32,350.67 930.07,351.63 930.82,351.50 931.56,349.78 932.30,351.72 933.04,350.31 933.77,351.25 934.50,351.00 935.23,352.94 935.95,350.27 936.67,350.92 937.39,351.22 938.10,352.18 938.81,351.34 939.52,351.94 940.22,351.95 940.92,350.96 941.62,352.45 942.31,351.08 943.00,351.34 943.69,352.72 944.38,351.60 945.06,347.53 945.74,351.48 946.42,351.45 947.09,350.74 947.76,351.76 948.43,351.76 949.10,353.16 949.76,352.91 950.42,351.49 951.07,351.27 951.73,352.05 952.38,351.67 953.03,353.20 953.68,356.50 954.32,353.69 954.96,352.75 955.60,352.95 956.24,351.89 956.87,352.87 957.50,351.54 958.13,352.10 958.76,351.04 959.38,352.23 960.00,353.53 960.62,351.84 961.23,352.61 961.85,352.02 962.46,351.76 963.07,352.06 963.68,350.84 964.28,350.51 964.88,350.56 965.48,351.08 966.08,351.21 966.68,352.14 967.27,351.51 967.86,351.13 968.45,350.88 969.04,350.96 969.62,351.31 970.20,351.40 970.78,352.05 971.36,351.06 971.94,352.51 972.51,353.06 973.08,354.03 973.65,352.35 974.22,351.55 974.79,352.62 975.35,352.34 975.91,351.68 976.47,351.68 977.03,352.90 977.59,351.68 978.14,352.44 978.69,350.57 979.24,351.67 979.79,351.87 980.34,352.06 980.88,339.27 981.42,353.55 981.96,348.45 982.50,350.93 983.04,341.81 983.58,339.55 984.11,337.13 984.64,343.35 985.17,339.71 985.70,342.08 986.22,338.89 986.75,338.90 987.27,338.98 987.79,341.48 988.31,336.46 988.83,345.14 989.35,338.11 989.86,340.10 990.37,338.59 990.88,339.28 991.39,339.67 991.90,340.92 992.41,338.29 992.91,341.24 993.42,337.09 993.92,338.79 994.42,340.99 994.92,339.42 995.41,338.98 995.91,340.42 996.40,340.02 996.89,341.72 997.38,341.22 997.87,342.40 998.36,340.72 998.85,341.09 999.33,341.26 999.81,340.60 1000.30,340.68 1000.78,341.95 1001.25,341.18 1001.73,341.51 1002.21,342.11 1002.68,341.79 1003.15,344.91 1003.63,341.79 1004.10,340.16 1004.57,340.70 1005.03,341.36 1005.50,343.90 1005.96,337.28 1006.43,339.94 1006.89,342.67 1007.35,337.71 1007.81,335.79 1008.27,337.57 1008.72,337.57 1009.18,335.96 1009.63,335.64 1010.09,335.45 1010.54,337.66 1010.99,342.35 1011.44,334.68 1011.88,336.66 1012.33,340.20 1012.78,339.48 1013.22,335.81 1013.66,336.43 1014.10,335.84 1014.54,337.40 1014.98,336.27 1015.42,336.44 1015.86,339.81 1016.29,338.37 1016.73,335.66 1017.16,337.02 1017.59,337.12 1018.02,335.99 1018.45,336.93 1018.88,337.95 1019.31,338.50 1019.73,338.42 1020.16,338.11 1020.58,338.43 1021.00,337.62 1021.43,336.79 1021.85,336.72 1022.27,337.87 1022.68,339.47 1023.10,340.18 1023.52,337.79 1023.93,339.90 1024.35,337.05 1024.76,336.18 1025.17,335.42 1025.58,338.29 1025.99,338.08 1026.40,339.64 1026.81,337.44 1027.21,338.86 1027.62,337.00 1028.02,339.21 1028.43,337.86 1028.83,338.84 1029.23,340.54 1029.63,337.30 1030.03,336.92 1030.43,337.66 1030.82,341.34 1031.22,338.67 1031.62,337.35 1032.01,339.60 1032.40,339.12 1032.80,338.12 1033.19,337.15 1033.58,337.92 1033.97,338.16 1034.36,339.74 1034.74,338.90 1035.13,342.93 1035.52,341.11 1035.90,341.20 1036.28,338.40 1036.67,339.14 1037.05,341.32 1037.43,340.89 1037.81,337.79 1038.19,339.45 1038.57,339.66 1038.94,338.76 1039.32,337.74 1039.70,339.43 1040.07,337.65 1040.45,345.26 1040.82,343.94 1041.19,346.26 1041.56,348.98 1041.93,347.37 1042.30,344.48 1042.67,345.98 1043.04,347.24 1043.40,347.33 1043.77,345.01 1044.14,344.54 1044.50,343.03 1044.86,346.12 1045.23,346.29 1045.59,345.61 1045.95,345.73 1046.31,345.14 1046.67,345.20 1047.03,347.75 1047.39,347.15 1047.74,347.68 1048.10,344.20 1048.45,344.67 1048.81,344.40 1049.16,344.96 1049.52,344.34 1049.87,347.34 1050.22,347.33 1050.57,350.94 1050.92,344.32 1051.27,346.28 1051.62,347.00 1051.97,346.35 1052.31,345.74 1052.66,344.89 1053.00,347.02 1053.35,346.98 1053.69,344.70 1054.04,345.80 1054.38,345.72 1054.72,344.88 1055.06,344.94 1055.40,345.78 1055.74,344.84 1056.08,347.11 1056.42,343.46 1056.75,346.08 1057.09,346.02 1057.43,346.88 1057.76,345.80 1058.10,346.49 1058.43,344.67 1058.76,344.38 1059.10,340.39 1059.43,339.79 1059.76,342.77 1060.09,339.99 1060.42,339.74 1060.75,339.30 1061.07,339.34 1061.40,340.79 1061.73,340.52 1062.06,339.80 1062.38,339.97 1062.71,340.10 1063.03,340.61 1063.35,341.34 1063.68,341.30 1064.00,342.29 1064.32,339.84 1064.64,340.83 1064.96,340.22 1065.28,340.20 1065.60,340.88 1065.92,340.78 1066.24,342.09 1066.55,340.71 1066.87,344.57 1067.19,339.97 1067.50,340.17 1067.82,340.37 1068.13,343.43 1068.44,341.39 1068.76,340.96 1069.07,340.59 1069.38,338.81 1069.69,340.21 1070.00,339.48" fill="none" stroke="#d14a00" stroke-width="2"/>
<polyline points="80.00,58.00 190.00,58.00 254.35,58.00 300.00,58.00 335.41,140.84 364.35,220.27 388.81,277.40 410.00,359.64 428.69,329.49 445.41,332.48 460.54,330.56 474.35,311.02 487.05,335.23 498.81,357.38 509.76,374.90 520.00,392.11 529.62,373.75 538.69,373.04 547.27,380.66 555.41,357.47 563.15,370.64 570.54,381.22 577.59,392.37 584.35,414.08 590.82,400.95 597.05,398.92 603.04,392.93 608.81,387.23 614.38,394.12 619.76,404.99 624.96,412.37 630.00,440.72 634.88,434.00 639.62,429.24 644.22,423.01 648.69,404.40 653.04,408.99 657.27,414.22 661.39,419.08 665.41,438.01 669.33,433.96 673.15,429.32 676.89,420.06 680.54,400.98 684.10,406.61 687.59,411.97 691.00,416.46 694.35,429.75 697.62,428.36 700.82,426.13 703.97,428.32 707.05,416.14 710.07,420.48 713.04,425.20 715.95,429.51 718.81,433.70 721.62,431.35 724.38,431.67 727.09,428.01 729.76,419.21 732.38,421.20 734.96,424.90 737.50,427.70 740.00,444.07 742.46,443.03 744.88,443.01 747.27,443.13 749.62,431.48 751.94,428.34 754.22,434.20 756.47,436.36 758.69,444.23 760.88,441.10 763.04,438.77 765.17,437.27 767.27,427.11 769.35,429.27 771.39,432.93 773.42,435.15 775.41,438.33 777.38,436.36 779.33,437.89 781.25,437.88 783.15,427.68 785.03,430.65 786.89,432.79 788.72,434.98 790.54,439.90 792.33,438.61 794.10,438.96 795.86,436.87 797.59,427.53 799.31,430.39 801.00,431.86 802.68,434.55 804.35,445.36 805.99,445.12 807.62,444.79 809.23,443.68 810.82,433.76 812.40,435.61 813.97,437.37 815.52,439.15 817.05,446.73 818.57,444.65 820.07,443.34 821.56,441.49 823.04,430.90 824.50,432.69 825.95,435.33 827.39,435.93 828.81,441.45 830.22,442.25 831.62,442.14 833.00,443.63 834.38,434.39 835.74,435.14 837.09,437.80 838.43,438.80 839.76,442.41 841.07,441.73 842.38,441.45 843.68,442.14 844.96,433.25 846.24,435.49 847.50,437.49 848.76,438.23 850.00,446.30 851.23,445.29 852.46,445.31 853.68,444.38 854.88,436.63 856.08,437.89 857.27,440.30 858.45,443.81 859.62,448.47 860.78,447.95 861.94,447.73 863.08,445.53 864.22,347.02 865.35,441.09 866.47,442.15 867.59,443.66 868.69,447.44 869.79,446.86 870.88,446.58 871.96,447.14 873.04,441.35 874.11,442.40 875.17,443.52 876.22,444.57 877.27,447.63 878.31,446.49 879.35,447.34 880.37,446.49 881.39,440.73 882.41,441.78 883.42,442.94 884.42,444.46 885.41,451.23 886.40,450.61 887.38,450.33 888.36,449.55 889.33,443.93 890.30,444.57 891.25,445.71 892.21,446.54 893.15,450.05 894.10,449.19 895.03,448.60 895.96,447.79 896.89,345.49 897.81,351.42 898.72,442.60 899.63,444.84 900.54,447.89 901.44,447.77 902.33,447.56 903.22,449.30 904.10,443.86 904.98,444.50 905.86,444.36 906.73,445.96 907.59,448.79 908.45,447.91 909.31,448.24 910.16,448.02 911.00,442.90 911.85,443.81 912.68,445.13 913.52,445.66 914.35,451.22 915.17,449.42 915.99,449.55 916.81,449.42 917.62,443.99 918.43,439.59 919.23,447.56 920.03,443.30 920.82,450.50 921.62,449.59 922.40,449.77 923.19,448.16 923.97,444.61 924.74,444.77 925.52,445.83 926.28,447.21 927.05,448.77 927.81,447.41 928.57,447.95 929.32,449.05 930.07,444.76 930.82,445.61 931.56,445.71 932.30,446.92 933.04,448.92 933.77,449.03 934.50,449.01 935.23,447.71 935.95,443.53 936.67,444.56 937.39,445.78 938.10,446.76 938.81,451.02 939.52,450.43 940.22,450.31 940.92,448.90 941.62,445.18 942.31,445.64 943.00,446.25 943.69,447.05 944.38,451.19 945.06,449.42 945.74,449.01 946.42,449.03 947.09,445.06 947.76,445.26 948.43,446.13 949.10,448.63 949.76,448.95 950.42,449.01 951.07,449.50 951.73,449.77 952.38,445.53 953.03,445.44 953.68,446.85 954.32,447.98 954.96,449.58 955.60,449.49 956.24,449.11 956.87,449.08 957.50,445.72 958.13,446.30 958.76,446.82 959.38,447.78 960.00,451.34 960.62,450.48 961.23,450.30 961.85,450.48 962.46,445.86 963.07,446.52 963.68,447.59 964.28,447.51 964.88,450.16 965.48,449.70 966.08,449.44 966.68,449.71 967.27,445.94 967.86,446.91 968.45,446.90 969.04,448.11 969.62,448.90 970.20,450.02 970.78,449.50 971.36,449.85 971.94,446.43 972.51,447.69 973.08,447.77 973.65,448.49 974.22,450.50 974.79,449.77 975.35,450.20 975.91,449.71 976.47,446.16 977.03,446.72 977.59,447.51 978.14,447.83 978.69,451.24 979.24,451.10 979.79,450.95 980.34,448.86 980.88,446.30 981.42,446.20 981.96,446.99 982.50,448.36 983.04,450.49 983.58,450.76 984.11,450.46 984.64,449.55 985.17,446.82 985.70,447.76 986.22,448.22 986.75,448.10 987.27,449.80 987.79,449.83 988.31,449.91 988.83,449.63 989.35,445.37 989.86,445.80 990.37,447.23 990.88,447.15 991.39,448.62 991.90,449.50 992.41,449.26 992.91,449.04 993.42,446.39 993.92,447.48 994.42,447.61 994.92,448.25 995.41,451.67 995.91,450.92 996.40,450.38 996.89,450.17 997.38,447.47 997.87,448.03 998.36,448.66 998.85,449.27 999.33,451.37 999.81,450.90 1000.30,450.72 1000.78,449.15 1001.25,447.41 1001.73,447.80 1002.21,448.46 1002.68,450.02 1003.15,451.15 1003.63,450.29 1004.10,449.64 1004.57,449.57 1005.03,447.58 1005.50,447.98 1005.96,447.85 1006.43,447.64 1006.89,449.32 1007.35,447.46 1007.81,447.45 1008.27,447.21 1008.72,443.95 1009.18,444.42 1009.63,444.85 1010.09,445.21 1010.54,448.33 1010.99,447.69 1011.44,447.86 1011.88,447.41 1012.33,444.58 1012.78,445.14 1013.22,445.32 1013.66,445.87 1014.10,448.27 1014.54,447.70 1014.98,447.37 1015.42,447.03 1015.86,444.43 1016.29,444.89 1016.73,445.49 1017.16,445.78 1017.59,446.92 1018.02,446.96 1018.45,446.66 1018.88,447.34 1019.31,444.59 1019.73,445.18 1020.16,445.49 1020.58,446.07 1021.00,447.31 1021.43,447.09 1021.85,447.04 1022.27,446.29 1022.68,443.89 1023.10,444.05 1023.52,445.57 1023.93,445.46 1024.35,448.08 1024.76,447.88 1025.17,447.51 1025.58,447.60 1025.99,444.65 1026.40,444.92 1026.81,445.78 1027.21,446.27 1027.62,447.34 1028.02,447.46 1028.43,447.21 1028.83,446.40 1029.23,444.08 1029.63,444.52 1030.03,444.68 1030.43,445.43 1030.82,446.85 1031.22,447.17 1031.62,447.07 1032.01,446.51 1032.40,444.46 1032.80,444.93 1033.19,445.06 1033.58,445.60 1033.97,447.14 1034.36,447.62 1034.74,446.56 1035.13,449.35 1035.52,445.81 1035.90,445.44 1036.28,445.56 1036.67,446.03 1037.05,447.83 1037.43,447.96 1037.81,447.44 1038.19,447.13 1038.57,445.22 1038.94,445.56 1039.32,445.71 1039.70,446.59 1040.07,449.69 1040.45,451.91 1040.82,451.54 1041.19,450.29 1041.56,448.53 1041.93,449.88 1042.30,449.37 1042.67,449.97 1043.04,450.88 1043.40,451.01 1043.77,450.64 1044.14,450.68 1044.50,448.78 1044.86,449.67 1045.23,449.38 1045.59,450.26 1045.95,450.81 1046.31,448.52 1046.67,450.39 1047.03,451.33 1047.39,449.62 1047.74,448.58 1048.10,449.73 1048.45,450.32 1048.81,451.52 1049.16,451.40 1049.52,451.34 1049.87,451.34 1050.22,448.77 1050.57,449.90 1050.92,449.46 1051.27,450.69 1051.62,451.36 1051.97,451.47 1052.31,451.02 1052.66,450.58 1053.00,449.34 1053.35,448.92 1053.69,449.53 1054.04,450.66 1054.38,451.38 1054.72,450.92 1055.06,450.94 1055.40,450.88 1055.74,449.20 1056.08,449.80 1056.42,449.60 1056.75,450.58 1057.09,452.06 1057.43,450.78 1057.76,451.53 1058.10,450.42 1058.43,449.40 1058.76,447.48 1059.10,446.98 1059.43,447.09 1059.76,448.23 1060.09,448.35 1060.42,447.79 1060.75,447.67 1061.07,445.59 1061.40,445.79 1061.73,446.95 1062.06,446.57 1062.38,448.11 1062.71,447.82 1063.03,447.77 1063.35,447.41 1063.68,445.10 1064.00,445.76 1064.32,445.91 1064.64,446.51 1064.96,447.49 1065.28,447.21 1065.60,447.38 1065.92,447.16 1066.24,445.55 1066.55,446.08 1066.87,447.08 1067.19,446.59 1067.50,447.40 1067.82,447.44 1068.13,446.87 1068.44,446.09 1068.76,445.30 1069.07,445.85 1069.38,447.04 1069.69,446.97 1070.00,448.08" fill="none" stroke="#179b52" stroke-width="2"/>
<polyline points="80.00,58.00 190.00,58.00 254.35,58.00 300.00,58.00 335.41,58.00 364.35,83.11 388.81,58.00 410.00,192.35 428.69,208.88 445.41,251.03 460.54,234.76 474.35,291.24 487.05,295.68 498.81,312.78 509.76,304.03 520.00,325.69 529.62,327.23 538.69,329.14 547.27,335.24 555.41,332.75 563.15,335.37 570.54,335.65 577.59,335.61 584.35,335.97 590.82,337.41 597.05,335.12 603.04,337.44 608.81,336.86 614.38,342.05 619.76,341.28 624.96,342.60 630.00,340.83 634.88,343.56 639.62,341.83 644.22,341.25 648.69,341.76 653.04,342.07 657.27,337.70 661.39,340.58 665.41,338.28 669.33,339.93 673.15,337.99 676.89,339.09 680.54,341.03 684.10,342.87 687.59,337.95 691.00,340.99 694.35,339.64 697.62,341.07 700.82,339.06 703.97,346.16 707.05,339.90 710.07,344.34 713.04,342.06 715.95,345.10 718.81,342.91 721.62,343.59 724.38,342.95 727.09,344.01 729.76,343.54 732.38,342.72 734.96,342.49 737.50,342.75 740.00,341.84 742.46,341.26 744.88,344.50 747.27,348.58 749.62,348.28 751.94,344.36 754.22,347.05 756.47,346.73 758.69,344.02 760.88,344.30 763.04,341.35 765.17,343.47 767.27,342.39 769.35,344.35 771.39,343.51 773.42,344.14 775.41,341.22 777.38,344.95 779.33,342.85 781.25,344.85 783.15,342.50 785.03,343.22 786.89,341.99 788.72,344.29 790.54,344.39 792.33,343.30 794.10,343.67 795.86,343.68 797.59,343.21 799.31,342.97 801.00,343.35 802.68,344.20 804.35,343.42 805.99,344.58 807.62,342.86 809.23,344.25 810.82,344.90 812.40,344.23 813.97,342.59 815.52,344.47 817.05,343.49 818.57,344.11 820.07,341.50 821.56,343.69 823.04,344.83 824.50,347.28 825.95,342.27 827.39,344.13 828.81,344.04 830.22,344.66 831.62,344.15 833.00,345.61 834.38,343.96 835.74,344.60 837.09,343.58 838.43,345.36 839.76,344.20 841.07,345.76 842.38,344.75 843.68,345.52 844.96,345.02 846.24,346.40 847.50,343.77 848.76,345.52 850.00,345.30 851.23,345.97 852.46,343.06 853.68,345.88 854.88,344.64 856.08,343.54 857.27,345.71 858.45,348.94 859.62,349.01 860.78,348.50 861.94,347.16 863.08,349.34 864.22,338.10 865.35,349.49 866.47,348.70 867.59,351.55 868.69,349.02 869.79,355.13 870.88,349.30 871.96,351.40 873.04,349.81 874.11,350.29 875.17,349.29 876.22,350.48 877.27,350.16 878.31,354.14 879.35,350.31 880.37,352.02 881.39,351.34 882.41,351.71 883.42,350.59 884.42,351.51 885.41,349.93 886.40,351.04 887.38,349.71 888.36,350.96 889.33,349.75 890.30,350.81 891.25,351.00 892.21,352.11 893.15,350.42 894.10,349.74 895.03,349.47 895.96,350.50 896.89,237.20 897.81,231.95 898.72,346.63 899.63,349.89 900.54,357.42 901.44,349.78 902.33,350.29 903.22,352.23 904.10,351.81 904.98,351.23 905.86,350.10 906.73,352.08 907.59,349.82 908.45,351.43 909.31,350.07 910.16,351.73 911.00,350.35 911.85,351.55 912.68,349.91 913.52,351.94 914.35,349.91 915.17,351.01 915.99,350.70 916.81,351.79 917.62,352.45 918.43,353.50 919.23,351.81 920.03,354.15 920.82,352.82 921.62,351.31 922.40,349.83 923.19,351.41 923.97,352.25 924.74,354.09 925.52,350.31 926.28,351.35 927.05,351.43 927.81,352.28 928.57,350.91 929.32,351.96 930.07,349.93 930.82,350.41 931.56,352.44 932.30,351.61 933.04,350.91 933.77,350.59 934.50,352.08 935.23,351.59 935.95,352.05 936.67,352.05 937.39,353.00 938.10,351.53 938.81,351.22 939.52,351.73 940.22,350.63 940.92,351.53 941.62,350.90 942.31,350.42 943.00,350.86 943.69,351.25 944.38,350.36 945.06,350.44 945.74,350.98 946.42,351.44 947.09,346.69 947.76,352.57 948.43,351.06 949.10,353.14 949.76,350.90 950.42,352.53 951.07,351.13 951.73,352.43 952.38,351.33 953.03,343.56 953.68,351.96 954.32,352.05 954.96,338.75 955.60,352.65 956.24,352.23 956.87,352.86 957.50,352.36 958.13,352.57 958.76,350.39 959.38,351.54 960.00,351.47 960.62,351.25 961.23,351.35 961.85,351.97 962.46,351.89 963.07,350.71 963.68,351.10 964.28,351.55 964.88,350.76 965.48,351.73 966.08,350.67 966.68,351.84 967.27,352.03 967.86,354.03 968.45,351.19 969.04,351.50 969.62,351.21 970.20,350.48 970.78,350.88 971.36,351.89 971.94,352.11 972.51,352.51 973.08,352.91 973.65,351.51 974.22,352.96 974.79,353.79 975.35,350.69 975.91,351.91 976.47,351.19 977.03,351.52 977.59,351.35 978.14,351.12 978.69,351.46 979.24,350.94 979.79,341.00 980.34,339.95 980.88,341.05 981.42,339.34 981.96,349.62 982.50,340.10 983.04,338.74 983.58,342.80 984.11,342.39 984.64,339.92 985.17,339.73 985.70,338.22 986.22,339.46 986.75,339.31 987.27,341.43 987.79,341.68 988.31,336.86 988.83,342.80 989.35,338.84 989.86,339.14 990.37,340.88 990.88,339.67 991.39,342.39 991.90,339.43 992.41,338.58 992.91,339.47 993.42,337.94 993.92,339.70 994.42,341.05 994.92,339.21 995.41,340.68 995.91,337.39 996.40,340.52 996.89,341.40 997.38,341.18 997.87,344.98 998.36,340.42 998.85,342.13 999.33,341.24 999.81,338.92 1000.30,340.54 1000.78,339.63 1001.25,340.37 1001.73,343.15 1002.21,341.79 1002.68,342.61 1003.15,340.50 1003.63,344.14 1004.10,340.46 1004.57,338.65 1005.03,340.49 1005.50,343.96 1005.96,341.59 1006.43,340.33 1006.89,338.43 1007.35,339.07 1007.81,339.73 1008.27,336.62 1008.72,337.26 1009.18,336.73 1009.63,333.87 1010.09,337.11 1010.54,336.92 1010.99,336.31 1011.44,336.13 1011.88,335.68 1012.33,336.06 1012.78,337.31 1013.22,338.40 1013.66,336.09 1014.10,337.68 1014.54,336.28 1014.98,336.19 1015.42,339.01 1015.86,335.89 1016.29,340.37 1016.73,337.62 1017.16,337.01 1017.59,338.53 1018.02,337.86 1018.45,336.82 1018.88,337.37 1019.31,337.24 1019.73,336.04 1020.16,336.55 1020.58,336.89 1021.00,338.41 1021.43,341.35 1021.85,336.44 1022.27,337.64 1022.68,337.38 1023.10,336.72 1023.52,337.39 1023.93,336.50 1024.35,337.91 1024.76,338.62 1025.17,338.19 1025.58,337.78 1025.99,336.45 1026.40,342.38 1026.81,340.26 1027.21,338.93 1027.62,338.16 1028.02,339.57 1028.43,340.18 1028.83,338.08 1029.23,339.50 1029.63,339.87 1030.03,338.33 1030.43,338.09 1030.82,337.21 1031.22,336.83 1031.62,337.89 1032.01,340.06 1032.40,337.74 1032.80,338.61 1033.19,337.63 1033.58,338.56 1033.97,338.98 1034.36,339.03 1034.74,342.50 1035.13,343.22 1035.52,338.89 1035.90,339.82 1036.28,339.05 1036.67,337.01 1037.05,337.07 1037.43,339.28 1037.81,339.04 1038.19,337.46 1038.57,338.05 1038.94,342.70 1039.32,337.55 1039.70,338.20 1040.07,342.03 1040.45,345.80 1040.82,343.76 1041.19,345.84 1041.56,345.76 1041.93,344.07 1042.30,346.62 1042.67,344.00 1043.04,344.16 1043.40,345.42 1043.77,345.79 1044.14,345.87 1044.50,344.87 1044.86,347.64 1045.23,344.73 1045.59,345.69 1045.95,345.03 1046.31,345.70 1046.67,345.39 1047.03,345.13 1047.39,344.43 1047.74,347.33 1048.10,345.37 1048.45,345.28 1048.81,344.35 1049.16,346.21 1049.52,344.02 1049.87,346.06 1050.22,345.67 1050.57,347.10 1050.92,343.90 1051.27,344.52 1051.62,345.70 1051.97,346.33 1052.31,344.34 1052.66,346.37 1053.00,345.60 1053.35,347.03 1053.69,347.67 1054.04,345.24 1054.38,347.36 1054.72,344.32 1055.06,344.47 1055.40,344.68 1055.74,346.41 1056.08,345.91 1056.42,343.96 1056.75,346.59 1057.09,343.40 1057.43,344.52 1057.76,345.06 1058.10,344.11 1058.43,344.88 1058.76,341.90 1059.10,340.68 1059.43,340.39 1059.76,341.41 1060.09,339.32 1060.42,339.84 1060.75,340.01 1061.07,339.48 1061.40,340.83 1061.73,340.55 1062.06,339.56 1062.38,339.77 1062.71,341.07 1063.03,340.86 1063.35,340.34 1063.68,339.33 1064.00,341.50 1064.32,340.30 1064.64,339.27 1064.96,339.57 1065.28,340.69 1065.60,341.72 1065.92,340.42 1066.24,340.68 1066.55,342.89 1066.87,339.32 1067.19,340.12 1067.50,338.97 1067.82,339.84 1068.13,340.87 1068.44,342.25 1068.76,341.50 1069.07,339.36 1069.38,339.68 1069.69,339.58 1070.00,340.01" fill="none" stroke="#8f36c7" stroke-width="2"/>
<line x1="825" y1="72" x2="857" y2="72" stroke="#0b6cff" stroke-width="3"/>
<text x="867" y="77" font-family="Arial" font-size="14" fill="#111">SIMD add</text>
<line x1="825" y1="96" x2="857" y2="96" stroke="#d14a00" stroke-width="3"/>
<text x="867" y="101" font-family="Arial" font-size="14" fill="#111">GMP add</text>
<line x1="825" y1="120" x2="857" y2="120" stroke="#179b52" stroke-width="3"/>
<text x="867" y="125" font-family="Arial" font-size="14" fill="#111">SIMD sub</text>
<line x1="825" y1="144" x2="857" y2="144" stroke="#8f36c7" stroke-width="3"/>
<text x="867" y="149" font-family="Arial" font-size="14" fill="#111">GMP sub</text>
</svg>