<svg xmlns="http://www.w3.org/2000/svg" width="1100" height="700" viewBox="0 0 1100 700">
<rect width="100%" height="100%" fill="white"/>
<text x="550.0" y="30" text-anchor="middle" font-family="Arial" font-size="22" fill="#111">addsub_n.h fine sweep: 1..512 limbs</text>
<line x1="80.0" y1="58" x2="80.0" y2="630" stroke="#e9e9e9"/>
<text x="80.0" y="654" text-anchor="middle" font-family="Arial" font-size="13" fill="#333">1</text>
<line x1="190.0" y1="58" x2="190.0" y2="630" stroke="#e9e9e9"/>
<text x="190.0" y="654" text-anchor="middle" font-family="Arial" font-size="13" fill="#333">2</text>
<line x1="300.0" y1="58" x2="300.0" y2="630" stroke="#e9e9e9"/>
<text x="300.0" y="654" text-anchor="middle" font-family="Arial" font-size="13" fill="#333">4</text>
<line x1="410.0" y1="58" x2="410.0" y2="630" stroke="#e9e9e9"/>
<text x="410.0" y="654" text-anchor="middle" font-family="Arial" font-size="13" fill="#333">8</text>
<line x1="520.0" y1="58" x2="520.0" y2="630" stroke="#e9e9e9"/>
<text x="520.0" y="654" text-anchor="middle" font-family="Arial" font-size="13" fill="#333">16</text>
<line x1="630.0" y1="58" x2="630.0" y2="630" stroke="#e9e9e9"/>
<text x="630.0" y="654" text-anchor="middle" font-family="Arial" font-size="13" fill="#333">32</text>
<line x1="740.0" y1="58" x2="740.0" y2="630" stroke="#e9e9e9"/>
<text x="740.0" y="654" text-anchor="middle" font-family="Arial" font-size="13" fill="#333">64</text>
<line x1="850.0" y1="58" x2="850.0" y2="630" stroke="#e9e9e9"/>
<text x="850.0" y="654" text-anchor="middle" font-family="Arial" font-size="13" fill="#333">128</text>
<line x1="960.0" y1="58" x2="960.0" y2="630" stroke="#e9e9e9"/>
<text x="960.0" y="654" text-anchor="middle" font-family="Arial" font-size="13" fill="#333">256</text>
<line x1="1070.0" y1="58" x2="1070.0" y2="630" stroke="#e9e9e9"/>
<text x="1070.0" y="654" text-anchor="middle" font-family="Arial" font-size="13" fill="#333">512</text>
<line x1="80" y1="630.0" x2="1070" y2="630.0" stroke="#e9e9e9"/>
<text x="70" y="634.0" text-anchor="end" font-family="Arial" font-size="13" fill="#333">0.00</text>
<line x1="80" y1="515.6" x2="1070" y2="515.6" stroke="#e9e9e9"/>
<text x="70" y="519.6" text-anchor="end" font-family="Arial" font-size="13" fill="#333">0.45</text>
<line x1="80" y1="401.2" x2="1070" y2="401.2" stroke="#e9e9e9"/>
<text x="70" y="405.2" text-anchor="end" font-family="Arial" font-size="13" fill="#333">0.90</text>
<line x1="80" y1="286.8" x2="1070" y2="286.8" stroke="#e9e9e9"/>
<text x="70" y="290.8" text-anchor="end" font-family="Arial" font-size="13" fill="#333">1.34</text>
<line x1="80" y1="172.4" x2="1070" y2="172.4" stroke="#e9e9e9"/>
<text x="70" y="176.4" text-anchor="end" font-family="Arial" font-size="13" fill="#333">1.79</text>
<line x1="80" y1="58.0" x2="1070" y2="58.0" stroke="#e9e9e9"/>
<text x="70" y="62.0" text-anchor="end" font-family="Arial" font-size="13" fill="#333">2.24</text>
<line x1="80" y1="58" x2="80" y2="630" stroke="#333"/>
<line x1="80" y1="630" x2="1070" y2="630" stroke="#333"/>
<text x="550.0" y="678" text-anchor="middle" font-family="Arial" font-size="15" fill="#111">limbs, log2 scale</text>
<text transform="translate(24 350.0) rotate(-90)" text-anchor="middle" font-family="Arial" font-size="15" fill="#111">ns / limb</text>
<polyline points="80.00,336.04 190.00,485.34 254.35,517.26 300.00,519.33 335.41,541.47 364.35,555.90 388.81,566.21 410.00,562.66 428.69,576.58 445.41,576.81 460.54,577.02 474.35,569.61 487.05,574.14 498.81,578.29 509.76,581.64 520.00,587.48 529.62,587.10 538.69,586.53 547.27,585.37 555.41,580.64 563.15,582.77 570.54,584.88 577.59,587.03 584.35,592.12 590.82,588.58 597.05,588.19 603.04,587.11 608.81,583.65 614.38,585.17 619.76,586.58 624.96,587.95 630.00,594.82 634.88,593.66 639.62,592.95 644.22,592.45 648.69,587.82 653.04,589.06 657.27,590.40 661.39,590.85 665.41,594.33 669.33,592.89 673.15,592.36 676.89,591.62 680.54,588.23 684.10,589.14 687.59,590.05 691.00,590.89 694.35,592.88 697.62,592.54 700.82,592.41 703.97,592.61 707.05,589.82 710.07,590.70 713.04,591.94 715.95,592.34 718.81,594.27 721.62,592.94 724.38,593.01 727.09,592.48 729.76,590.38 732.38,591.20 734.96,591.64 737.50,592.21 740.00,595.81 742.46,595.00 744.88,595.08 747.27,595.37 749.62,593.08 751.94,593.59 754.22,594.09 756.47,594.82 758.69,595.87 760.88,594.69 763.04,594.32 765.17,593.94 767.27,592.33 769.35,592.82 771.39,593.35 773.42,593.89 775.41,594.60 777.38,594.72 779.33,594.76 781.25,594.83 783.15,592.65 785.03,593.23 786.89,593.61 788.72,594.23 790.54,595.20 792.33,594.53 794.10,594.65 795.86,594.36 797.59,592.61 799.31,592.92 801.00,593.42 802.68,593.66 804.35,595.87 805.99,595.66 807.62,595.64 809.23,595.46 810.82,593.77 812.40,594.13 813.97,594.62 815.52,594.82 817.05,595.86 818.57,595.56 820.07,595.43 821.56,594.95 823.04,593.13 824.50,593.67 825.95,593.82 827.39,594.14 828.81,595.51 830.22,595.46 831.62,595.55 833.00,595.55 834.38,593.84 835.74,594.07 837.09,594.42 838.43,594.71 839.76,595.84 841.07,595.24 842.38,595.30 843.68,595.26 844.96,593.61 846.24,593.86 847.50,594.00 848.76,594.39 850.00,596.08 851.23,595.96 852.46,595.87 853.68,595.77 854.88,594.35 856.08,594.63 857.27,594.87 858.45,595.69 859.62,596.61 860.78,596.26 861.94,595.91 863.08,595.41 864.22,593.46 865.35,594.87 866.47,595.08 867.59,595.50 868.69,596.48 869.79,596.47 870.88,596.43 871.96,596.23 873.04,595.30 874.11,595.40 875.17,595.56 876.22,595.77 877.27,596.36 878.31,596.11 879.35,595.93 880.37,596.02 881.39,595.02 882.41,595.16 883.42,595.34 884.42,595.63 885.41,596.78 886.40,596.69 887.38,596.50 888.36,596.34 889.33,595.39 890.30,595.66 891.25,595.92 892.21,596.14 893.15,596.70 894.10,596.39 895.03,596.28 895.96,595.90 896.89,594.96 897.81,578.72 898.72,579.10 899.63,595.46 900.54,596.40 901.44,596.42 902.33,596.53 903.22,596.31 904.10,595.51 904.98,595.66 905.86,595.88 906.73,596.03 907.59,596.65 908.45,596.21 909.31,596.12 910.16,596.14 911.00,594.96 911.85,595.25 912.68,595.48 913.52,595.57 914.35,596.59 915.17,596.66 915.99,596.42 916.81,596.26 917.62,595.37 918.43,595.82 919.23,596.02 920.03,596.06 920.82,596.73 921.62,596.39 922.40,596.25 923.19,595.87 923.97,595.20 924.74,595.40 925.52,595.40 926.28,595.57 927.05,596.34 927.81,596.30 928.57,596.43 929.32,596.36 930.07,595.47 930.82,595.48 931.56,595.58 932.30,595.79 933.04,596.38 933.77,596.31 934.50,596.22 935.23,595.98 935.95,595.18 936.67,595.40 937.39,595.46 938.10,595.69 938.81,596.60 939.52,596.38 940.22,596.50 940.92,596.36 941.62,595.59 942.31,595.54 943.00,595.80 943.69,595.87 944.38,596.45 945.06,596.13 945.74,596.08 946.42,595.78 947.09,595.12 947.76,595.41 948.43,595.54 949.10,595.88 949.76,596.39 950.42,596.41 951.07,596.38 951.73,596.04 952.38,595.49 953.03,595.68 953.68,595.64 954.32,595.87 954.96,596.42 955.60,596.24 956.24,596.04 956.87,595.96 957.50,595.28 958.13,595.44 958.76,595.44 959.38,595.55 960.00,596.52 960.62,596.47 961.23,596.41 961.85,596.17 962.46,595.56 963.07,595.60 963.68,595.72 964.28,595.92 964.88,596.38 965.48,596.13 966.08,596.22 966.68,595.88 967.27,595.19 967.86,595.34 968.45,595.49 969.04,595.63 969.62,596.30 970.20,596.42 970.78,596.25 971.36,596.21 971.94,595.60 972.51,595.72 973.08,595.86 973.65,595.98 974.22,596.37 974.79,596.20 975.35,596.05 975.91,595.90 976.47,595.36 977.03,595.48 977.59,595.51 978.14,595.73 978.69,596.46 979.24,596.45 979.79,596.41 980.34,596.14 980.88,595.63 981.42,595.78 981.96,595.62 982.50,595.97 983.04,596.39 983.58,596.16 984.11,596.20 984.64,595.94 985.17,595.44 985.70,595.57 986.22,595.66 986.75,595.82 987.27,596.37 987.79,596.02 988.31,596.19 988.83,596.27 989.35,595.41 989.86,595.60 990.37,595.59 990.88,595.80 991.39,595.99 991.90,596.10 992.41,596.12 992.91,596.00 993.42,595.36 993.92,595.63 994.42,595.55 994.92,595.83 995.41,596.49 995.91,596.41 996.40,596.33 996.89,596.24 997.38,595.69 997.87,595.84 998.36,595.87 998.85,595.89 999.33,596.48 999.81,596.25 1000.30,596.19 1000.78,596.05 1001.25,595.56 1001.73,595.66 1002.21,595.70 1002.68,595.86 1003.15,596.03 1003.63,595.96 1004.10,596.18 1004.57,596.15 1005.03,595.53 1005.50,594.81 1005.96,595.77 1006.43,595.72 1006.89,596.53 1007.35,595.75 1007.81,595.61 1008.27,595.65 1008.72,594.90 1009.18,594.98 1009.63,595.15 1010.09,595.22 1010.54,595.80 1010.99,595.69 1011.44,595.74 1011.88,595.68 1012.33,595.13 1012.78,595.21 1013.22,595.34 1013.66,595.40 1014.10,595.81 1014.54,595.53 1014.98,595.56 1015.42,595.46 1015.86,594.95 1016.29,595.07 1016.73,595.14 1017.16,595.20 1017.59,595.69 1018.02,595.70 1018.45,595.66 1018.88,595.66 1019.31,595.12 1019.73,595.21 1020.16,595.30 1020.58,595.39 1021.00,595.71 1021.43,595.58 1021.85,595.56 1022.27,595.32 1022.68,594.96 1023.10,595.04 1023.52,595.12 1023.93,595.23 1024.35,595.79 1024.76,595.74 1025.17,595.66 1025.58,595.63 1025.99,595.15 1026.40,595.22 1026.81,595.36 1027.21,595.52 1027.62,595.73 1028.02,595.54 1028.43,595.52 1028.83,595.37 1029.23,594.90 1029.63,595.02 1030.03,595.14 1030.43,595.17 1030.82,595.59 1031.22,595.64 1031.62,595.55 1032.01,595.53 1032.40,595.07 1032.80,595.18 1033.19,595.20 1033.58,595.34 1033.97,595.57 1034.36,595.43 1034.74,595.79 1035.13,595.91 1035.52,595.27 1035.90,595.23 1036.28,595.18 1036.67,595.23 1037.05,595.76 1037.43,595.70 1037.81,595.68 1038.19,595.61 1038.57,595.19 1038.94,595.38 1039.32,595.36 1039.70,595.44 1040.07,595.77 1040.45,596.21 1040.82,596.30 1041.19,596.11 1041.56,595.85 1041.93,596.07 1042.30,595.83 1042.67,595.94 1043.04,596.48 1043.40,596.49 1043.77,596.46 1044.14,596.29 1044.50,595.84 1044.86,596.04 1045.23,595.98 1045.59,596.19 1045.95,596.51 1046.31,596.53 1046.67,596.44 1047.03,596.32 1047.39,595.86 1047.74,595.93 1048.10,595.99 1048.45,596.09 1048.81,596.42 1049.16,596.51 1049.52,596.49 1049.87,596.26 1050.22,596.01 1050.57,595.95 1050.92,596.13 1051.27,596.22 1051.62,596.31 1051.97,596.38 1052.31,596.35 1052.66,596.19 1053.00,595.89 1053.35,595.80 1053.69,595.98 1054.04,596.08 1054.38,596.48 1054.72,596.50 1055.06,596.15 1055.40,596.35 1055.74,595.84 1056.08,595.91 1056.42,596.11 1056.75,596.20 1057.09,596.46 1057.43,596.31 1057.76,596.33 1058.10,596.31 1058.43,595.88 1058.76,595.70 1059.10,595.40 1059.43,595.29 1059.76,595.77 1060.09,595.86 1060.42,595.83 1060.75,595.60 1061.07,595.22 1061.40,595.28 1061.73,595.54 1062.06,595.42 1062.38,595.88 1062.71,595.77 1063.03,595.51 1063.35,595.40 1063.68,595.06 1064.00,595.19 1064.32,595.25 1064.64,595.44 1064.96,595.68 1065.28,595.66 1065.60,595.51 1065.92,595.44 1066.24,595.21 1066.55,595.46 1066.87,595.48 1067.19,595.41 1067.50,595.81 1067.82,595.56 1068.13,595.40 1068.44,595.52 1068.76,595.07 1069.07,595.14 1069.38,595.24 1069.69,595.46 1070.00,595.72" fill="none" stroke="#0b6cff" stroke-width="2"/>
<polyline points="80.00,144.41 190.00,338.74 254.35,452.09 300.00,496.58 335.41,523.31 364.35,524.35 388.81,546.26 410.00,551.54 428.69,560.22 445.41,557.60 460.54,568.28 474.35,569.51 487.05,573.29 498.81,571.30 509.76,574.29 520.00,574.84 529.62,576.12 538.69,575.63 547.27,576.83 555.41,577.04 563.15,577.65 570.54,576.85 577.59,577.86 584.35,577.89 590.82,577.95 597.05,577.37 603.04,577.92 608.81,577.91 614.38,578.33 619.76,577.39 624.96,578.29 630.00,578.29 634.88,578.71 639.62,578.53 644.22,578.59 648.69,578.88 653.04,578.62 657.27,578.41 661.39,578.15 665.41,577.92 669.33,577.82 673.15,577.53 676.89,578.18 680.54,578.20 684.10,578.47 687.59,577.98 691.00,578.08 694.35,578.10 697.62,578.27 700.82,578.20 703.97,578.45 707.05,577.96 710.07,577.92 713.04,578.43 715.95,578.80 718.81,578.73 721.62,578.27 724.38,578.36 727.09,578.88 729.76,578.78 732.38,578.71 734.96,578.58 737.50,578.61 740.00,579.00 742.46,579.04 744.88,578.57 747.27,579.44 749.62,579.30 751.94,579.18 754.22,580.16 756.47,579.13 758.69,578.58 760.88,578.37 763.04,578.53 765.17,578.92 767.27,578.61 769.35,578.80 771.39,578.84 773.42,578.46 775.41,578.75 777.38,578.61 779.33,578.74 781.25,579.23 783.15,578.59 785.03,578.91 786.89,578.52 788.72,579.29 790.54,578.96 792.33,578.94 794.10,579.31 795.86,578.83 797.59,578.91 799.31,578.92 801.00,578.97 802.68,578.84 804.35,578.85 805.99,578.94 807.62,578.63 809.23,578.59 810.82,579.32 812.40,578.95 813.97,578.86 815.52,579.04 817.05,578.94 818.57,579.28 820.07,578.79 821.56,578.82 823.04,578.96 824.50,579.19 825.95,578.71 827.39,579.14 828.81,578.92 830.22,579.13 831.62,578.70 833.00,578.98 834.38,579.00 835.74,579.15 837.09,578.96 838.43,578.99 839.76,578.99 841.07,579.11 842.38,578.93 843.68,579.15 844.96,579.18 846.24,579.06 847.50,579.02 848.76,578.84 850.00,578.94 851.23,579.36 852.46,578.86 853.68,578.86 854.88,579.22 856.08,579.22 857.27,579.26 858.45,579.21 859.62,579.85 860.78,579.76 861.94,579.83 863.08,579.67 864.22,560.03 865.35,580.07 866.47,579.90 867.59,580.30 868.69,580.16 869.79,580.18 870.88,579.83 871.96,580.12 873.04,580.14 874.11,580.35 875.17,580.51 876.22,580.14 877.27,580.29 878.31,579.96 879.35,579.96 880.37,580.51 881.39,580.18 882.41,580.18 883.42,580.16 884.42,581.01 885.41,580.29 886.40,580.32 887.38,579.92 888.36,580.11 889.33,580.15 890.30,580.33 891.25,580.29 892.21,580.41 893.15,580.35 894.10,580.25 895.03,579.96 895.96,580.15 896.89,559.87 897.81,558.90 898.72,559.53 899.63,579.94 900.54,580.08 901.44,580.15 902.33,580.00 903.22,580.06 904.10,580.12 904.98,580.03 905.86,580.11 906.73,580.63 907.59,580.01 908.45,580.39 909.31,580.11 910.16,580.09 911.00,580.23 911.85,580.18 912.68,580.12 913.52,580.33 914.35,580.09 915.17,580.38 915.99,580.17 916.81,580.30 917.62,580.40 918.43,580.52 919.23,580.46 920.03,580.58 920.82,580.53 921.62,580.37 922.40,580.48 923.19,580.27 923.97,580.34 924.74,580.34 925.52,580.35 926.28,580.34 927.05,580.17 927.81,580.25 928.57,580.27 929.32,580.13 930.07,580.30 930.82,580.27 931.56,579.97 932.30,580.31 933.04,580.06 933.77,580.23 934.50,580.18 935.23,580.53 935.95,580.05 936.67,580.17 937.39,580.22 938.10,580.40 938.81,580.25 939.52,580.35 940.22,580.35 940.92,580.18 941.62,580.44 942.31,580.20 943.00,580.25 943.69,580.49 944.38,580.29 945.06,579.57 945.74,580.27 946.42,580.26 947.09,580.14 947.76,580.32 948.43,580.32 949.10,580.57 949.76,580.53 950.42,580.27 951.07,580.23 951.73,580.37 952.38,580.30 953.03,580.58 953.68,581.17 954.32,580.66 954.96,580.50 955.60,580.53 956.24,580.34 956.87,580.52 957.50,580.28 958.13,580.38 958.76,580.19 959.38,580.40 960.00,580.64 960.62,580.33 961.23,580.47 961.85,580.37 962.46,580.32 963.07,580.37 963.68,580.16 964.28,580.10 964.88,580.11 965.48,580.20 966.08,580.22 966.68,580.39 967.27,580.27 967.86,580.21 968.45,580.16 969.04,580.18 969.62,580.24 970.20,580.26 970.78,580.37 971.36,580.20 971.94,580.45 972.51,580.55 973.08,580.73 973.65,580.43 974.22,580.28 974.79,580.47 975.35,580.42 975.91,580.31 976.47,580.31 977.03,580.52 977.59,580.31 978.14,580.44 978.69,580.11 979.24,580.30 979.79,580.34 980.34,580.37 980.88,578.09 981.42,580.64 981.96,579.73 982.50,580.17 983.04,578.54 983.58,578.14 984.11,577.71 984.64,578.82 985.17,578.17 985.70,578.59 986.22,578.02 986.75,578.02 987.27,578.04 987.79,578.48 988.31,577.59 988.83,579.14 989.35,577.88 989.86,578.24 990.37,577.97 990.88,578.09 991.39,578.16 991.90,578.38 992.41,577.92 992.91,578.44 993.42,577.70 993.92,578.00 994.42,578.40 994.92,578.12 995.41,578.04 995.91,578.30 996.40,578.22 996.89,578.53 997.38,578.44 997.87,578.65 998.36,578.35 998.85,578.41 999.33,578.45 999.81,578.33 1000.30,578.34 1000.78,578.57 1001.25,578.43 1001.73,578.49 1002.21,578.60 1002.68,578.54 1003.15,579.10 1003.63,578.54 1004.10,578.25 1004.57,578.34 1005.03,578.46 1005.50,578.92 1005.96,577.74 1006.43,578.21 1006.89,578.70 1007.35,577.81 1007.81,577.47 1008.27,577.79 1008.72,577.79 1009.18,577.50 1009.63,577.44 1010.09,577.41 1010.54,577.80 1010.99,578.64 1011.44,577.27 1011.88,577.62 1012.33,578.26 1012.78,578.13 1013.22,577.47 1013.66,577.58 1014.10,577.48 1014.54,577.76 1014.98,577.56 1015.42,577.58 1015.86,578.19 1016.29,577.93 1016.73,577.45 1017.16,577.69 1017.59,577.71 1018.02,577.50 1018.45,577.67 1018.88,577.85 1019.31,577.95 1019.73,577.94 1020.16,577.88 1020.58,577.94 1021.00,577.80 1021.43,577.65 1021.85,577.64 1022.27,577.84 1022.68,578.13 1023.10,578.25 1023.52,577.83 1023.93,578.20 1024.35,577.69 1024.76,577.54 1025.17,577.40 1025.58,577.92 1025.99,577.88 1026.40,578.16 1026.81,577.76 1027.21,578.02 1027.62,577.69 1028.02,578.08 1028.43,577.84 1028.83,578.01 1029.23,578.32 1029.63,577.74 1030.03,577.67 1030.43,577.80 1030.82,578.46 1031.22,577.98 1031.62,577.75 1032.01,578.15 1032.40,578.06 1032.80,577.89 1033.19,577.71 1033.58,577.85 1033.97,577.89 1034.36,578.17 1034.74,578.02 1035.13,578.74 1035.52,578.42 1035.90,578.43 1036.28,577.93 1036.67,578.07 1037.05,578.46 1037.43,578.38 1037.81,577.83 1038.19,578.12 1038.57,578.16 1038.94,578.00 1039.32,577.82 1039.70,578.12 1040.07,577.80 1040.45,579.16 1040.82,578.92 1041.19,579.34 1041.56,579.82 1041.93,579.54 1042.30,579.02 1042.67,579.29 1043.04,579.51 1043.40,579.53 1043.77,579.12 1044.14,579.03 1044.50,578.76 1044.86,579.31 1045.23,579.34 1045.59,579.22 1045.95,579.24 1046.31,579.14 1046.67,579.15 1047.03,579.60 1047.39,579.50 1047.74,579.59 1048.10,578.97 1048.45,579.05 1048.81,579.01 1049.16,579.11 1049.52,578.99 1049.87,579.53 1050.22,579.53 1050.57,580.17 1050.92,578.99 1051.27,579.34 1051.62,579.47 1051.97,579.35 1052.31,579.25 1052.66,579.09 1053.00,579.47 1053.35,579.47 1053.69,579.06 1054.04,579.26 1054.38,579.24 1054.72,579.09 1055.06,579.10 1055.40,579.25 1055.74,579.08 1056.08,579.49 1056.42,578.84 1056.75,579.31 1057.09,579.30 1057.43,579.45 1057.76,579.26 1058.10,579.38 1058.43,579.05 1058.76,579.00 1059.10,578.29 1059.43,578.18 1059.76,578.72 1060.09,578.22 1060.42,578.17 1060.75,578.10 1061.07,578.10 1061.40,578.36 1061.73,578.31 1062.06,578.19 1062.38,578.22 1062.71,578.24 1063.03,578.33 1063.35,578.46 1063.68,578.45 1064.00,578.63 1064.32,578.19 1064.64,578.37 1064.96,578.26 1065.28,578.26 1065.60,578.38 1065.92,578.36 1066.24,578.59 1066.55,578.35 1066.87,579.04 1067.19,578.21 1067.50,578.25 1067.82,578.29 1068.13,578.83 1068.44,578.47 1068.76,578.39 1069.07,578.33 1069.38,578.01 1069.69,578.26 1070.00,578.13" fill="none" stroke="#d14a00" stroke-width="2"/>
<polyline points="80.00,337.63 190.00,485.14 254.35,515.79 300.00,520.87 335.41,542.66 364.35,556.84 388.81,567.04 410.00,581.73 428.69,576.34 445.41,576.88 460.54,576.53 474.35,573.05 487.05,577.37 498.81,581.32 509.76,584.45 520.00,587.52 529.62,584.25 538.69,584.12 547.27,585.48 555.41,581.34 563.15,583.69 570.54,585.58 577.59,587.57 584.35,591.45 590.82,589.10 597.05,588.74 603.04,587.67 608.81,586.65 614.38,587.88 619.76,589.82 624.96,591.14 630.00,596.20 634.88,595.00 639.62,594.15 644.22,593.04 648.69,589.72 653.04,590.54 657.27,591.47 661.39,592.34 665.41,595.72 669.33,595.00 673.15,594.17 676.89,592.52 680.54,589.11 684.10,590.11 687.59,591.07 691.00,591.87 694.35,594.25 697.62,594.00 700.82,593.60 703.97,593.99 707.05,591.82 710.07,592.59 713.04,593.43 715.95,594.20 718.81,594.95 721.62,594.53 724.38,594.59 727.09,593.93 729.76,592.36 732.38,592.72 734.96,593.38 737.50,593.88 740.00,596.80 742.46,596.62 744.88,596.61 747.27,596.63 749.62,594.55 751.94,593.99 754.22,595.04 756.47,595.43 758.69,596.83 760.88,596.27 763.04,595.86 765.17,595.59 767.27,593.77 769.35,594.16 771.39,594.81 773.42,595.21 775.41,595.78 777.38,595.42 779.33,595.70 781.25,595.70 783.15,593.88 785.03,594.41 786.89,594.79 788.72,595.18 790.54,596.06 792.33,595.83 794.10,595.89 795.86,595.52 797.59,593.85 799.31,594.36 801.00,594.62 802.68,595.10 804.35,597.03 805.99,596.99 807.62,596.93 809.23,596.73 810.82,594.96 812.40,595.29 813.97,595.61 815.52,595.92 817.05,597.28 818.57,596.91 820.07,596.67 821.56,596.34 823.04,594.45 824.50,594.77 825.95,595.24 827.39,595.35 828.81,596.33 830.22,596.48 831.62,596.46 833.00,596.72 834.38,595.07 835.74,595.21 837.09,595.68 838.43,595.86 839.76,596.51 841.07,596.38 842.38,596.33 843.68,596.46 844.96,594.87 846.24,595.27 847.50,595.63 848.76,595.76 850.00,597.20 851.23,597.02 852.46,597.02 853.68,596.86 854.88,595.47 856.08,595.70 857.27,596.13 858.45,596.76 859.62,597.59 860.78,597.49 861.94,597.46 863.08,597.06 864.22,579.47 865.35,596.27 866.47,596.46 867.59,596.73 868.69,597.40 869.79,597.30 870.88,597.25 871.96,597.35 873.04,596.32 874.11,596.50 875.17,596.70 876.22,596.89 877.27,597.44 878.31,597.23 879.35,597.39 880.37,597.23 881.39,596.21 882.41,596.39 883.42,596.60 884.42,596.87 885.41,598.08 886.40,597.97 887.38,597.92 888.36,597.78 889.33,596.78 890.30,596.89 891.25,597.10 892.21,597.24 893.15,597.87 894.10,597.72 895.03,597.61 895.96,597.47 896.89,579.20 897.81,580.26 898.72,596.54 899.63,596.94 900.54,597.48 901.44,597.46 902.33,597.43 903.22,597.74 904.10,596.76 904.98,596.88 905.86,596.85 906.73,597.14 907.59,597.65 908.45,597.49 909.31,597.55 910.16,597.51 911.00,596.59 911.85,596.76 912.68,596.99 913.52,597.09 914.35,598.08 915.17,597.76 915.99,597.78 916.81,597.76 917.62,596.79 918.43,596.00 919.23,597.43 920.03,596.66 920.82,597.95 921.62,597.79 922.40,597.82 923.19,597.53 923.97,596.90 924.74,596.93 925.52,597.12 926.28,597.36 927.05,597.64 927.81,597.40 928.57,597.49 929.32,597.69 930.07,596.93 930.82,597.08 931.56,597.10 932.30,597.31 933.04,597.67 933.77,597.69 934.50,597.68 935.23,597.45 935.95,596.71 936.67,596.89 937.39,597.11 938.10,597.28 938.81,598.04 939.52,597.94 940.22,597.92 940.92,597.67 941.62,597.00 942.31,597.08 943.00,597.19 943.69,597.33 944.38,598.07 945.06,597.76 945.74,597.68 946.42,597.69 947.09,596.98 947.76,597.02 948.43,597.17 949.10,597.62 949.76,597.67 950.42,597.68 951.07,597.77 951.73,597.82 952.38,597.06 953.03,597.05 953.68,597.30 954.32,597.50 954.96,597.79 955.60,597.77 956.24,597.70 956.87,597.70 957.50,597.10 958.13,597.20 958.76,597.29 959.38,597.46 960.00,598.10 960.62,597.95 961.23,597.91 961.85,597.95 962.46,597.12 963.07,597.24 963.68,597.43 964.28,597.42 964.88,597.89 965.48,597.81 966.08,597.76 966.68,597.81 967.27,597.14 967.86,597.31 968.45,597.31 969.04,597.52 969.62,597.66 970.20,597.87 970.78,597.77 971.36,597.83 971.94,597.22 972.51,597.45 973.08,597.46 973.65,597.59 974.22,597.95 974.79,597.82 975.35,597.90 975.91,597.81 976.47,597.18 977.03,597.28 977.59,597.42 978.14,597.47 978.69,598.08 979.24,598.06 979.79,598.03 980.34,597.66 980.88,597.20 981.42,597.18 981.96,597.32 982.50,597.57 983.04,597.95 983.58,598.00 984.11,597.94 984.64,597.78 985.17,597.29 985.70,597.46 986.22,597.54 986.75,597.52 987.27,597.82 987.79,597.83 988.31,597.85 988.83,597.79 989.35,597.03 989.86,597.11 990.37,597.37 990.88,597.35 991.39,597.61 991.90,597.77 992.41,597.73 992.91,597.69 993.42,597.22 993.92,597.41 994.42,597.43 994.92,597.55 995.41,598.16 995.91,598.03 996.40,597.93 996.89,597.89 997.38,597.41 997.87,597.51 998.36,597.62 998.85,597.73 999.33,598.11 999.81,598.02 1000.30,597.99 1000.78,597.71 1001.25,597.40 1001.73,597.47 1002.21,597.59 1002.68,597.87 1003.15,598.07 1003.63,597.91 1004.10,597.80 1004.57,597.78 1005.03,597.43 1005.50,597.50 1005.96,597.48 1006.43,597.44 1006.89,597.74 1007.35,597.41 1007.81,597.41 1008.27,597.36 1008.72,596.78 1009.18,596.87 1009.63,596.94 1010.09,597.01 1010.54,597.56 1010.99,597.45 1011.44,597.48 1011.88,597.40 1012.33,596.89 1012.78,596.99 1013.22,597.02 1013.66,597.12 1014.10,597.55 1014.54,597.45 1014.98,597.39 1015.42,597.33 1015.86,596.87 1016.29,596.95 1016.73,597.06 1017.16,597.11 1017.59,597.31 1018.02,597.32 1018.45,597.26 1018.88,597.39 1019.31,596.89 1019.73,597.00 1020.16,597.06 1020.58,597.16 1021.00,597.38 1021.43,597.34 1021.85,597.33 1022.27,597.20 1022.68,596.77 1023.10,596.80 1023.52,597.07 1023.93,597.05 1024.35,597.52 1024.76,597.48 1025.17,597.42 1025.58,597.43 1025.99,596.91 1026.40,596.95 1026.81,597.11 1027.21,597.19 1027.62,597.39 1028.02,597.41 1028.43,597.36 1028.83,597.22 1029.23,596.80 1029.63,596.88 1030.03,596.91 1030.43,597.05 1030.82,597.30 1031.22,597.36 1031.62,597.34 1032.01,597.24 1032.40,596.87 1032.80,596.95 1033.19,596.98 1033.58,597.08 1033.97,597.35 1034.36,597.44 1034.74,597.25 1035.13,597.75 1035.52,597.11 1035.90,597.05 1036.28,597.07 1036.67,597.15 1037.05,597.47 1037.43,597.50 1037.81,597.40 1038.19,597.35 1038.57,597.01 1038.94,597.07 1039.32,597.09 1039.70,597.25 1040.07,597.81 1040.45,598.20 1040.82,598.14 1041.19,597.91 1041.56,597.60 1041.93,597.84 1042.30,597.75 1042.67,597.86 1043.04,598.02 1043.40,598.04 1043.77,597.98 1044.14,597.98 1044.50,597.64 1044.86,597.80 1045.23,597.75 1045.59,597.91 1045.95,598.01 1046.31,597.60 1046.67,597.93 1047.03,598.10 1047.39,597.79 1047.74,597.61 1048.10,597.81 1048.45,597.92 1048.81,598.13 1049.16,598.11 1049.52,598.10 1049.87,598.10 1050.22,597.64 1050.57,597.84 1050.92,597.76 1051.27,597.98 1051.62,598.10 1051.97,598.12 1052.31,598.04 1052.66,597.96 1053.00,597.74 1053.35,597.67 1053.69,597.78 1054.04,597.98 1054.38,598.11 1054.72,598.02 1055.06,598.03 1055.40,598.02 1055.74,597.72 1056.08,597.82 1056.42,597.79 1056.75,597.97 1057.09,598.23 1057.43,598.00 1057.76,598.13 1058.10,597.94 1058.43,597.75 1058.76,597.41 1059.10,597.32 1059.43,597.34 1059.76,597.54 1060.09,597.57 1060.42,597.47 1060.75,597.44 1061.07,597.07 1061.40,597.11 1061.73,597.32 1062.06,597.25 1062.38,597.52 1062.71,597.47 1063.03,597.46 1063.35,597.40 1063.68,596.99 1064.00,597.10 1064.32,597.13 1064.64,597.24 1064.96,597.41 1065.28,597.36 1065.60,597.39 1065.92,597.35 1066.24,597.07 1066.55,597.16 1066.87,597.34 1067.19,597.25 1067.50,597.40 1067.82,597.40 1068.13,597.30 1068.44,597.16 1068.76,597.02 1069.07,597.12 1069.38,597.33 1069.69,597.32 1070.00,597.52" fill="none" stroke="#179b52" stroke-width="2"/>
<polyline points="80.00,100.37 190.00,362.80 254.35,420.02 300.00,497.80 335.41,513.04 364.35,532.35 388.81,512.94 410.00,551.86 428.69,554.81 445.41,562.33 460.54,559.43 474.35,569.51 487.05,570.31 498.81,573.36 509.76,571.80 520.00,575.67 529.62,575.94 538.69,576.28 547.27,577.37 555.41,576.93 563.15,577.39 570.54,577.44 577.59,577.44 584.35,577.50 590.82,577.76 597.05,577.35 603.04,577.76 608.81,577.66 614.38,578.59 619.76,578.45 624.96,578.68 630.00,578.37 634.88,578.86 639.62,578.55 644.22,578.44 648.69,578.53 653.04,578.59 657.27,577.81 661.39,578.32 665.41,577.91 669.33,578.21 673.15,577.86 676.89,578.06 680.54,578.40 684.10,578.73 687.59,577.85 691.00,578.40 694.35,578.16 697.62,578.41 700.82,578.05 703.97,579.32 707.05,578.20 710.07,578.99 713.04,578.59 715.95,579.13 718.81,578.74 721.62,578.86 724.38,578.75 727.09,578.94 729.76,578.85 732.38,578.71 734.96,578.66 737.50,578.71 740.00,578.55 742.46,578.45 744.88,579.02 747.27,579.75 749.62,579.70 751.94,579.00 754.22,579.48 756.47,579.42 758.69,578.94 760.88,578.99 763.04,578.46 765.17,578.84 767.27,578.65 769.35,579.00 771.39,578.85 773.42,578.96 775.41,578.44 777.38,579.10 779.33,578.73 781.25,579.09 783.15,578.67 785.03,578.79 786.89,578.58 788.72,578.99 790.54,579.00 792.33,578.81 794.10,578.88 795.86,578.88 797.59,578.79 799.31,578.75 801.00,578.82 802.68,578.97 804.35,578.83 805.99,579.04 807.62,578.73 809.23,578.98 810.82,579.10 812.40,578.98 813.97,578.68 815.52,579.02 817.05,578.84 818.57,578.95 820.07,578.49 821.56,578.88 823.04,579.08 824.50,579.52 825.95,578.63 827.39,578.96 828.81,578.94 830.22,579.05 831.62,578.96 833.00,579.22 834.38,578.93 835.74,579.04 837.09,578.86 838.43,579.18 839.76,578.97 841.07,579.25 842.38,579.07 843.68,579.21 844.96,579.12 846.24,579.36 847.50,578.89 848.76,579.21 850.00,579.17 851.23,579.29 852.46,578.77 853.68,579.27 854.88,579.05 856.08,578.85 857.27,579.24 858.45,579.82 859.62,579.83 860.78,579.74 861.94,579.50 863.08,579.89 864.22,577.88 865.35,579.92 866.47,579.77 867.59,580.28 868.69,579.83 869.79,580.92 870.88,579.88 871.96,580.26 873.04,579.97 874.11,580.06 875.17,579.88 876.22,580.09 877.27,580.03 878.31,580.75 879.35,580.06 880.37,580.37 881.39,580.24 882.41,580.31 883.42,580.11 884.42,580.28 885.41,579.99 886.40,580.19 887.38,579.95 888.36,580.18 889.33,579.96 890.30,580.15 891.25,580.18 892.21,580.38 893.15,580.08 894.10,579.96 895.03,579.91 895.96,580.10 896.89,559.87 897.81,558.93 898.72,579.40 899.63,579.99 900.54,581.33 901.44,579.97 902.33,580.06 903.22,580.40 904.10,580.33 904.98,580.23 905.86,580.02 906.73,580.38 907.59,579.97 908.45,580.26 909.31,580.02 910.16,580.32 911.00,580.07 911.85,580.28 912.68,579.99 913.52,580.35 914.35,579.99 915.17,580.19 915.99,580.13 916.81,580.33 917.62,580.44 918.43,580.63 919.23,580.33 920.03,580.75 920.82,580.51 921.62,580.24 922.40,579.98 923.19,580.26 923.97,580.41 924.74,580.74 925.52,580.06 926.28,580.25 927.05,580.26 927.81,580.41 928.57,580.17 929.32,580.36 930.07,579.99 930.82,580.08 931.56,580.44 932.30,580.29 933.04,580.17 933.77,580.11 934.50,580.38 935.23,580.29 935.95,580.37 936.67,580.37 937.39,580.54 938.10,580.28 938.81,580.22 939.52,580.32 940.22,580.12 940.92,580.28 941.62,580.17 942.31,580.08 943.00,580.16 943.69,580.23 944.38,580.07 945.06,580.08 945.74,580.18 946.42,580.26 947.09,579.42 947.76,580.47 948.43,580.19 949.10,580.57 949.76,580.17 950.42,580.46 951.07,580.21 951.73,580.44 952.38,580.24 953.03,578.86 953.68,580.36 954.32,580.37 954.96,578.00 955.60,580.48 956.24,580.40 956.87,580.52 957.50,580.43 958.13,580.46 958.76,580.08 959.38,580.28 960.00,580.27 960.62,580.23 961.23,580.25 961.85,580.36 962.46,580.34 963.07,580.13 963.68,580.20 964.28,580.28 964.88,580.14 965.48,580.31 966.08,580.13 966.68,580.33 967.27,580.37 967.86,580.73 968.45,580.22 969.04,580.27 969.62,580.22 970.20,580.09 970.78,580.16 971.36,580.34 971.94,580.38 972.51,580.45 973.08,580.53 973.65,580.28 974.22,580.53 974.79,580.68 975.35,580.13 975.91,580.35 976.47,580.22 977.03,580.28 977.59,580.25 978.14,580.21 978.69,580.27 979.24,580.17 979.79,578.40 980.34,578.21 980.88,578.41 981.42,578.10 981.96,579.94 982.50,578.24 983.04,577.99 983.58,578.72 984.11,578.65 984.64,578.21 985.17,578.17 985.70,577.90 986.22,578.12 986.75,578.10 987.27,578.48 987.79,578.52 988.31,577.66 988.83,578.72 989.35,578.01 989.86,578.07 990.37,578.38 990.88,578.16 991.39,578.65 991.90,578.12 992.41,577.97 992.91,578.13 993.42,577.85 993.92,578.17 994.42,578.41 994.92,578.08 995.41,578.34 995.91,577.76 996.40,578.31 996.89,578.47 997.38,578.43 997.87,579.11 998.36,578.30 998.85,578.60 999.33,578.44 999.81,578.03 1000.30,578.32 1000.78,578.16 1001.25,578.29 1001.73,578.78 1002.21,578.54 1002.68,578.69 1003.15,578.31 1003.63,578.96 1004.10,578.30 1004.57,577.98 1005.03,578.31 1005.50,578.93 1005.96,578.50 1006.43,578.28 1006.89,577.94 1007.35,578.05 1007.81,578.17 1008.27,577.62 1008.72,577.73 1009.18,577.64 1009.63,577.13 1010.09,577.70 1010.54,577.67 1010.99,577.56 1011.44,577.53 1011.88,577.45 1012.33,577.52 1012.78,577.74 1013.22,577.94 1013.66,577.52 1014.10,577.81 1014.54,577.56 1014.98,577.54 1015.42,578.04 1015.86,577.49 1016.29,578.29 1016.73,577.79 1017.16,577.69 1017.59,577.96 1018.02,577.84 1018.45,577.65 1018.88,577.75 1019.31,577.73 1019.73,577.51 1020.16,577.60 1020.58,577.67 1021.00,577.94 1021.43,578.46 1021.85,577.59 1022.27,577.80 1022.68,577.75 1023.10,577.64 1023.52,577.76 1023.93,577.59 1024.35,577.85 1024.76,577.97 1025.17,577.90 1025.58,577.82 1025.99,577.59 1026.40,578.65 1026.81,578.27 1027.21,578.03 1027.62,577.89 1028.02,578.14 1028.43,578.25 1028.83,577.88 1029.23,578.13 1029.63,578.20 1030.03,577.92 1030.43,577.88 1030.82,577.72 1031.22,577.65 1031.62,577.84 1032.01,578.23 1032.40,577.82 1032.80,577.97 1033.19,577.80 1033.58,577.96 1033.97,578.04 1034.36,578.05 1034.74,578.67 1035.13,578.80 1035.52,578.02 1035.90,578.19 1036.28,578.05 1036.67,577.69 1037.05,577.70 1037.43,578.09 1037.81,578.05 1038.19,577.77 1038.57,577.87 1038.94,578.70 1039.32,577.78 1039.70,577.90 1040.07,578.58 1040.45,579.26 1040.82,578.89 1041.19,579.26 1041.56,579.25 1041.93,578.95 1042.30,579.40 1042.67,578.93 1043.04,578.96 1043.40,579.19 1043.77,579.25 1044.14,579.27 1044.50,579.09 1044.86,579.59 1045.23,579.06 1045.59,579.24 1045.95,579.12 1046.31,579.24 1046.67,579.18 1047.03,579.14 1047.39,579.01 1047.74,579.53 1048.10,579.18 1048.45,579.16 1048.81,579.00 1049.16,579.33 1049.52,578.94 1049.87,579.30 1050.22,579.23 1050.57,579.49 1050.92,578.92 1051.27,579.03 1051.62,579.24 1051.97,579.35 1052.31,579.00 1052.66,579.36 1053.00,579.22 1053.35,579.48 1053.69,579.59 1054.04,579.16 1054.38,579.53 1054.72,578.99 1055.06,579.02 1055.40,579.06 1055.74,579.36 1056.08,579.28 1056.42,578.93 1056.75,579.40 1057.09,578.83 1057.43,579.03 1057.76,579.12 1058.10,578.95 1058.43,579.09 1058.76,578.56 1059.10,578.34 1059.43,578.29 1059.76,578.47 1060.09,578.10 1060.42,578.19 1060.75,578.22 1061.07,578.13 1061.40,578.37 1061.73,578.32 1062.06,578.14 1062.38,578.18 1062.71,578.41 1063.03,578.37 1063.35,578.28 1063.68,578.10 1064.00,578.49 1064.32,578.27 1064.64,578.09 1064.96,578.14 1065.28,578.34 1065.60,578.53 1065.92,578.30 1066.24,578.34 1066.55,578.74 1066.87,578.10 1067.19,578.24 1067.50,578.04 1067.82,578.19 1068.13,578.38 1068.44,578.62 1068.76,578.49 1069.07,578.11 1069.38,578.16 1069.69,578.15 1070.00,578.22" fill="none" stroke="#8f36c7" stroke-width="2"/>
<line x1="825" y1="72" x2="857" y2="72" stroke="#0b6cff" stroke-width="3"/>
<text x="867" y="77" font-family="Arial" font-size="14" fill="#111">SIMD add</text>
<line x1="825" y1="96" x2="857" y2="96" stroke="#d14a00" stroke-width="3"/>
<text x="867" y="101" font-family="Arial" font-size="14" fill="#111">GMP add</text>
<line x1="825" y1="120" x2="857" y2="120" stroke="#179b52" stroke-width="3"/>
<text x="867" y="125" font-family="Arial" font-size="14" fill="#111">SIMD sub</text>
<line x1="825" y1="144" x2="857" y2="144" stroke="#8f36c7" stroke-width="3"/>
<text x="867" y="149" font-family="Arial" font-size="14" fill="#111">GMP sub</text>
</svg>