<svg xmlns="http://www.w3.org/2000/svg" width="1100" height="700" viewBox="0 0 1100 700">
<rect width="100%" height="100%" fill="white"/>
<text x="550.0" y="30" text-anchor="middle" font-family="Arial" font-size="22" fill="#111">addsub_n current vs one-vector stream: 0..0.4 ns/limb</text>
<line x1="80.0" y1="58" x2="80.0" y2="630" stroke="#e9e9e9"/>
<text x="80.0" y="654" text-anchor="middle" font-family="Arial" font-size="13" fill="#333">1</text>
<line x1="190.0" y1="58" x2="190.0" y2="630" stroke="#e9e9e9"/>
<text x="190.0" y="654" text-anchor="middle" font-family="Arial" font-size="13" fill="#333">2</text>
<line x1="300.0" y1="58" x2="300.0" y2="630" stroke="#e9e9e9"/>
<text x="300.0" y="654" text-anchor="middle" font-family="Arial" font-size="13" fill="#333">4</text>
<line x1="410.0" y1="58" x2="410.0" y2="630" stroke="#e9e9e9"/>
<text x="410.0" y="654" text-anchor="middle" font-family="Arial" font-size="13" fill="#333">8</text>
<line x1="520.0" y1="58" x2="520.0" y2="630" stroke="#e9e9e9"/>
<text x="520.0" y="654" text-anchor="middle" font-family="Arial" font-size="13" fill="#333">16</text>
<line x1="630.0" y1="58" x2="630.0" y2="630" stroke="#e9e9e9"/>
<text x="630.0" y="654" text-anchor="middle" font-family="Arial" font-size="13" fill="#333">32</text>
<line x1="740.0" y1="58" x2="740.0" y2="630" stroke="#e9e9e9"/>
<text x="740.0" y="654" text-anchor="middle" font-family="Arial" font-size="13" fill="#333">64</text>
<line x1="850.0" y1="58" x2="850.0" y2="630" stroke="#e9e9e9"/>
<text x="850.0" y="654" text-anchor="middle" font-family="Arial" font-size="13" fill="#333">128</text>
<line x1="960.0" y1="58" x2="960.0" y2="630" stroke="#e9e9e9"/>
<text x="960.0" y="654" text-anchor="middle" font-family="Arial" font-size="13" fill="#333">256</text>
<line x1="1070.0" y1="58" x2="1070.0" y2="630" stroke="#e9e9e9"/>
<text x="1070.0" y="654" text-anchor="middle" font-family="Arial" font-size="13" fill="#333">512</text>
<line x1="80" y1="630.0" x2="1070" y2="630.0" stroke="#e9e9e9"/>
<text x="70" y="634.0" text-anchor="end" font-family="Arial" font-size="13" fill="#333">0.00</text>
<line x1="80" y1="558.5" x2="1070" y2="558.5" stroke="#e9e9e9"/>
<text x="70" y="562.5" text-anchor="end" font-family="Arial" font-size="13" fill="#333">0.05</text>
<line x1="80" y1="487.0" x2="1070" y2="487.0" stroke="#e9e9e9"/>
<text x="70" y="491.0" text-anchor="end" font-family="Arial" font-size="13" fill="#333">0.10</text>
<line x1="80" y1="415.5" x2="1070" y2="415.5" stroke="#e9e9e9"/>
<text x="70" y="419.5" text-anchor="end" font-family="Arial" font-size="13" fill="#333">0.15</text>
<line x1="80" y1="344.0" x2="1070" y2="344.0" stroke="#e9e9e9"/>
<text x="70" y="348.0" text-anchor="end" font-family="Arial" font-size="13" fill="#333">0.20</text>
<line x1="80" y1="272.5" x2="1070" y2="272.5" stroke="#e9e9e9"/>
<text x="70" y="276.5" text-anchor="end" font-family="Arial" font-size="13" fill="#333">0.25</text>
<line x1="80" y1="201.0" x2="1070" y2="201.0" stroke="#e9e9e9"/>
<text x="70" y="205.0" text-anchor="end" font-family="Arial" font-size="13" fill="#333">0.30</text>
<line x1="80" y1="129.5" x2="1070" y2="129.5" stroke="#e9e9e9"/>
<text x="70" y="133.5" text-anchor="end" font-family="Arial" font-size="13" fill="#333">0.35</text>
<line x1="80" y1="58.0" x2="1070" y2="58.0" stroke="#e9e9e9"/>
<text x="70" y="62.0" text-anchor="end" font-family="Arial" font-size="13" fill="#333">0.40</text>
<line x1="80" y1="58" x2="80" y2="630" stroke="#333"/>
<line x1="80" y1="630" x2="1070" y2="630" stroke="#333"/>
<text x="550.0" y="678" text-anchor="middle" font-family="Arial" font-size="15" fill="#111">limbs, log2 scale</text>
<text transform="translate(24 350.0) rotate(-90)" text-anchor="middle" font-family="Arial" font-size="15" fill="#111">ns / limb</text>
<polyline points="80.00,58.00 190.00,58.00 254.35,58.00 300.00,58.00 335.41,125.00 364.35,209.09 388.81,269.27 410.00,354.36 428.69,322.35 445.41,326.90 460.54,330.74 474.35,284.58 487.05,312.87 498.81,335.67 509.76,356.44 520.00,390.00 529.62,370.66 538.69,370.95 547.27,379.30 555.41,349.82 563.15,364.45 570.54,375.61 577.59,386.55 584.35,408.12 590.82,393.83 597.05,392.41 603.04,387.22 608.81,364.86 614.38,373.72 619.76,383.65 624.96,390.86 630.00,432.27 634.88,424.72 639.62,420.19 644.22,414.53 648.69,397.05 653.04,399.04 657.27,408.18 661.39,416.90 665.41,433.49 669.33,427.64 673.15,425.69 676.89,420.11 680.54,400.45 684.10,406.93 687.59,410.80 691.00,414.55 694.35,426.41 697.62,424.99 700.82,425.50 703.97,424.74 707.05,410.24 710.07,414.67 713.04,417.66 715.95,421.68 718.81,431.19 721.62,428.15 724.38,426.21 727.09,424.17 729.76,411.02 732.38,414.21 734.96,417.45 737.50,421.33 740.00,441.25 742.46,439.05 744.88,437.73 747.27,436.73 749.62,424.40 751.94,427.37 754.22,429.62 756.47,431.13 758.69,438.85 760.88,436.42 763.04,435.15 765.17,431.83 767.27,422.22 769.35,423.40 771.39,427.63 773.42,430.72 775.41,436.49 777.38,436.84 779.33,436.99 781.25,437.31 783.15,426.41 785.03,428.60 786.89,430.89 788.72,432.43 790.54,438.96 792.33,436.02 794.10,436.12 795.86,435.08 797.59,423.92 799.31,426.50 801.00,428.41 802.68,430.16 804.35,443.01 805.99,442.52 807.62,442.07 809.23,439.83 810.82,430.36 812.40,431.76 813.97,434.12 815.52,436.56 817.05,443.18 818.57,442.39 820.07,440.26 821.56,437.92 823.04,424.83 824.50,426.58 825.95,427.55 827.39,429.37 828.81,436.31 830.22,439.72 831.62,440.33 833.00,440.59 834.38,429.03 835.74,430.68 837.09,431.26 838.43,433.92 839.76,437.43 841.07,436.94 842.38,437.42 843.68,437.06 844.96,427.71 846.24,428.40 847.50,430.21 848.76,431.54 850.00,443.12 851.23,443.27 852.46,443.00 853.68,442.11 854.88,435.57 856.08,437.00 857.27,437.56 858.45,439.72 859.62,444.26 860.78,322.57 861.94,441.41 863.08,439.09 864.22,430.18 865.35,430.91 866.47,432.02 867.59,432.60 868.69,438.90 869.79,439.11 870.88,438.59 871.96,438.33 873.04,431.67 874.11,432.97 875.17,434.22 876.22,435.72 877.27,438.14 878.31,437.64 879.35,437.44 880.37,435.04 881.39,427.69 882.41,430.20 883.42,430.44 884.42,433.61 885.41,441.65 886.40,441.07 887.38,441.31 888.36,439.14 889.33,433.86 890.30,434.08 891.25,435.42 892.21,436.56 893.15,440.92 894.10,439.21 895.03,439.13 895.96,436.97 896.89,433.54 897.81,433.95 898.72,435.26 899.63,436.33 900.54,440.73 901.44,438.29 902.33,436.88 903.22,438.38 904.10,432.74 904.98,435.60 905.86,437.54 906.73,439.49 907.59,442.44 908.45,441.74 909.31,441.79 910.16,439.92 911.00,434.78 911.85,435.34 912.68,437.13 913.52,437.64 914.35,444.85 915.17,443.12 915.99,443.12 916.81,440.31 917.62,436.42 918.43,437.61 919.23,436.81 920.03,436.75 920.82,441.14 921.62,439.75 922.40,438.77 923.19,436.14 923.97,431.26 924.74,432.33 925.52,433.62 926.28,434.40 927.05,439.70 927.81,438.38 928.57,438.06 929.32,436.90 930.07,431.85 930.82,432.74 931.56,433.33 932.30,434.73 933.04,437.64 933.77,437.06 934.50,435.80 935.23,434.89 935.95,433.44 936.67,432.14 937.39,435.54 938.10,436.74 938.81,442.69 939.52,442.50 940.22,426.97 940.92,433.79 941.62,356.40 942.31,360.89 943.00,366.68 943.69,402.89 944.38,440.07 945.06,439.91 945.74,438.23 946.42,437.75 947.09,433.73 947.76,434.65 948.43,435.58 949.10,436.23 949.76,439.37 950.42,440.13 951.07,441.70 951.73,441.12 952.38,436.58 953.03,438.09 953.68,438.85 954.32,440.14 954.96,442.55 955.60,441.30 956.24,441.94 956.87,439.78 957.50,435.56 958.13,436.61 958.76,436.81 959.38,437.49 960.00,442.96 960.62,442.11 961.23,441.66 961.85,440.86 962.46,437.42 963.07,437.87 963.68,438.53 964.28,439.40 964.88,442.67 965.48,441.55 966.08,440.93 966.68,440.75 967.27,436.30 967.86,437.18 968.45,437.27 969.04,438.45 969.62,441.13 970.20,441.69 970.78,441.46 971.36,438.67 971.94,433.61 972.51,435.06 973.08,434.88 973.65,435.75 974.22,438.05 974.79,437.68 975.35,439.33 975.91,437.39 976.47,432.85 977.03,432.79 977.59,433.78 978.14,434.37 978.69,438.70 979.24,437.99 979.79,437.87 980.34,436.73 980.88,433.76 981.42,434.33 981.96,435.08 982.50,435.78 983.04,438.87 983.58,438.08 984.11,437.62 984.64,435.70 985.17,432.86 985.70,433.54 986.22,433.88 986.75,434.58 987.27,437.63 987.79,438.12 988.31,437.44 988.83,437.16 989.35,436.64 989.86,436.15 990.37,437.05 990.88,437.50 991.39,438.71 991.90,437.63 992.41,437.26 992.91,436.33 993.42,432.79 993.92,433.49 994.42,433.76 994.92,434.69 995.41,438.30 995.91,438.17 996.40,437.84 996.89,437.20 997.38,434.29 997.87,434.99 998.36,435.50 998.85,436.12 999.33,438.31 999.81,437.54 1000.30,437.49 1000.78,436.46 1001.25,433.17 1001.73,433.79 1002.21,434.18 1002.68,435.04 1003.15,437.78 1003.63,437.67 1004.10,437.71 1004.57,437.06 1005.03,434.14 1005.50,434.83 1005.96,435.28 1006.43,435.99 1006.89,438.01 1007.35,437.51 1007.81,437.26 1008.27,436.33 1008.72,433.21 1009.18,433.68 1009.63,434.39 1010.09,435.02 1010.54,438.12 1010.99,438.04 1011.44,437.85 1011.88,437.31 1012.33,434.53 1012.78,435.10 1013.22,435.66 1013.66,436.26 1014.10,438.49 1014.54,437.60 1014.98,437.50 1015.42,436.30 1015.86,433.70 1016.29,434.12 1016.73,434.66 1017.16,435.35 1017.59,437.67 1018.02,437.59 1018.45,437.71 1018.88,437.44 1019.31,434.54 1019.73,434.78 1020.16,435.53 1020.58,435.89 1021.00,437.67 1021.43,437.53 1021.85,437.42 1022.27,436.48 1022.68,433.68 1023.10,433.91 1023.52,434.54 1023.93,434.99 1024.35,438.38 1024.76,437.88 1025.17,437.73 1025.58,437.36 1025.99,434.69 1026.40,435.01 1026.81,435.76 1027.21,436.15 1027.62,438.09 1028.02,437.57 1028.43,437.40 1028.83,436.65 1029.23,433.79 1029.63,434.44 1030.03,435.46 1030.43,435.32 1030.82,437.72 1031.22,437.56 1031.62,437.54 1032.01,437.37 1032.40,434.76 1032.80,435.11 1033.19,435.73 1033.58,436.27 1033.97,438.42 1034.36,439.23 1034.74,440.19 1035.13,438.45 1035.52,434.54 1035.90,434.05 1036.28,437.49 1036.67,438.95 1037.05,442.00 1037.43,442.03 1037.81,442.19 1038.19,441.58 1038.57,439.39 1038.94,439.88 1039.32,439.47 1039.70,439.83 1040.07,441.79 1040.45,441.27 1040.82,441.08 1041.19,440.30 1041.56,437.86 1041.93,438.24 1042.30,439.52 1042.67,440.01 1043.04,441.37 1043.40,441.86 1043.77,441.14 1044.14,441.98 1044.50,439.53 1044.86,439.86 1045.23,440.38 1045.59,440.70 1045.95,442.06 1046.31,441.02 1046.67,441.65 1047.03,442.07 1047.39,438.56 1047.74,439.23 1048.10,439.33 1048.45,439.96 1048.81,441.75 1049.16,441.46 1049.52,441.77 1049.87,440.70 1050.22,439.55 1050.57,439.00 1050.92,439.61 1051.27,439.92 1051.62,441.77 1051.97,441.29 1052.31,441.07 1052.66,440.16 1053.00,438.65 1053.35,439.34 1053.69,439.14 1054.04,439.26 1054.38,442.20 1054.72,441.09 1055.06,441.93 1055.40,441.97 1055.74,438.68 1056.08,439.83 1056.42,439.46 1056.75,440.74 1057.09,442.06 1057.43,441.05 1057.76,440.93 1058.10,440.29 1058.43,438.19 1058.76,439.11 1059.10,439.32 1059.43,438.95 1059.76,442.25 1060.09,441.42 1060.42,441.71 1060.75,440.70 1061.07,438.83 1061.40,439.92 1061.73,439.59 1062.06,440.04 1062.38,441.64 1062.71,441.36 1063.03,441.76 1063.35,440.35 1063.68,438.89 1064.00,438.55 1064.32,438.81 1064.64,439.31 1064.96,441.27 1065.28,441.18 1065.60,441.04 1065.92,440.03 1066.24,423.98 1066.55,424.25 1066.87,424.50 1067.19,425.57 1067.50,426.23 1067.82,426.93 1068.13,427.23 1068.44,427.05 1068.76,404.37 1069.07,407.39 1069.38,405.84 1069.69,409.57 1070.00,443.35" fill="none" stroke="#0b6cff" stroke-width="2"/>
<polyline points="80.00,58.00 190.00,58.00 254.35,58.00 300.00,58.00 335.41,169.87 364.35,248.13 388.81,302.38 410.00,386.77 428.69,58.00 445.41,58.00 460.54,58.00 474.35,58.00 487.05,58.00 498.81,95.46 509.76,128.07 520.00,404.93 529.62,94.24 538.69,124.30 547.27,150.27 555.41,174.64 563.15,196.51 570.54,211.07 577.59,234.17 584.35,409.23 590.82,204.17 597.05,220.65 603.04,237.59 608.81,251.90 614.38,264.23 619.76,275.63 624.96,288.87 630.00,413.13 634.88,272.54 639.62,282.44 644.22,297.13 648.69,301.64 653.04,308.01 657.27,320.51 661.39,332.48 665.41,416.47 669.33,305.01 673.15,315.32 676.89,316.18 680.54,328.90 684.10,335.22 687.59,342.08 691.00,347.75 694.35,417.49 697.62,333.36 700.82,338.42 703.97,344.07 707.05,349.70 710.07,354.38 713.04,360.07 715.95,364.99 718.81,421.14 721.62,349.14 724.38,353.68 727.09,357.26 729.76,363.64 732.38,367.54 734.96,371.48 737.50,375.83 740.00,424.72 742.46,362.09 744.88,366.31 747.27,370.26 749.62,373.84 751.94,376.94 754.22,381.34 756.47,383.38 758.69,426.10 760.88,370.30 763.04,370.94 765.17,374.19 767.27,380.67 769.35,382.20 771.39,386.33 773.42,389.78 775.41,426.86 777.38,377.18 779.33,378.77 781.25,382.11 783.15,384.96 785.03,385.36 786.89,388.11 788.72,393.55 790.54,426.17 792.33,379.60 794.10,379.40 795.86,382.24 797.59,387.86 799.31,387.58 801.00,393.11 802.68,395.45 804.35,425.91 805.99,383.06 807.62,385.79 809.23,387.92 810.82,390.29 812.40,393.01 813.97,392.42 815.52,397.51 817.05,427.03 818.57,385.86 820.07,386.34 821.56,387.33 823.04,389.58 824.50,392.04 825.95,391.12 827.39,395.09 828.81,423.59 830.22,387.71 831.62,389.06 833.00,392.14 834.38,323.05 835.74,395.65 837.09,397.73 838.43,399.11 839.76,426.78 841.07,389.22 842.38,389.32 843.68,392.90 844.96,397.41 846.24,397.36 847.50,399.72 848.76,399.34 850.00,428.38 851.23,393.04 852.46,394.65 853.68,397.83 854.88,399.34 856.08,400.34 857.27,402.04 858.45,404.13 859.62,429.92 860.78,283.43 861.94,396.12 863.08,398.12 864.22,398.65 865.35,399.10 866.47,400.57 867.59,401.05 868.69,426.42 869.79,394.40 870.88,395.90 871.96,397.60 873.04,399.16 874.11,400.70 875.17,402.29 876.22,403.68 877.27,426.78 878.31,397.22 879.35,398.48 880.37,399.17 881.39,400.22 882.41,403.12 883.42,406.32 884.42,406.92 885.41,427.90 886.40,403.38 887.38,402.94 888.36,404.38 889.33,404.67 890.30,405.88 891.25,407.15 892.21,408.28 893.15,426.90 894.10,401.85 895.03,404.31 895.96,406.61 896.89,410.07 897.81,410.36 898.72,411.44 899.63,412.77 900.54,418.38 901.44,403.61 902.33,404.66 903.22,406.99 904.10,408.07 904.98,411.84 905.86,413.94 906.73,416.29 907.59,431.29 908.45,410.21 909.31,411.46 910.16,413.46 911.00,414.66 911.85,415.91 912.68,417.03 913.52,418.10 914.35,431.29 915.17,410.55 915.99,411.51 916.81,412.75 917.62,413.40 918.43,414.84 919.23,414.49 920.03,414.07 920.82,428.54 921.62,407.48 922.40,408.58 923.19,409.58 923.97,410.71 924.74,411.64 925.52,412.82 926.28,413.89 927.05,428.58 927.81,406.13 928.57,407.28 929.32,408.12 930.07,409.38 930.82,410.26 931.56,411.53 932.30,412.29 933.04,428.13 933.77,406.12 934.50,407.28 935.23,326.00 935.95,412.35 936.67,412.45 937.39,414.46 938.10,416.75 938.81,432.10 939.52,411.48 940.22,412.17 940.92,413.11 941.62,412.96 942.31,372.70 943.00,387.01 943.69,388.95 944.38,428.57 945.06,404.37 945.74,411.19 946.42,410.77 947.09,412.58 947.76,413.44 948.43,414.47 949.10,415.41 949.76,429.50 950.42,410.94 951.07,413.99 951.73,414.76 952.38,416.77 953.03,417.60 953.68,418.28 954.32,418.36 954.96,433.39 955.60,414.05 956.24,416.12 956.87,416.62 957.50,417.08 958.13,418.32 958.76,418.62 959.38,419.40 960.00,432.62 960.62,415.09 961.23,416.06 961.85,416.88 962.46,417.64 963.07,419.42 963.68,419.31 964.28,420.16 964.88,432.67 965.48,415.85 966.08,416.78 966.68,418.42 967.27,419.71 967.86,420.25 968.45,420.13 969.04,420.64 969.62,432.35 970.20,417.71 970.78,416.23 971.36,415.42 971.94,416.10 972.51,416.04 973.08,416.83 973.65,417.54 974.22,428.88 974.79,413.15 975.35,416.06 975.91,415.76 976.47,416.65 977.03,416.28 977.59,417.02 978.14,417.68 978.69,429.21 979.24,413.75 979.79,414.52 980.34,415.28 980.88,416.04 981.42,416.69 981.96,417.31 982.50,418.11 983.04,429.02 983.58,413.90 984.11,414.71 984.64,415.53 985.17,416.20 985.70,416.87 986.22,417.63 986.75,418.52 987.27,429.14 987.79,414.40 988.31,414.99 988.83,417.85 989.35,419.33 989.86,419.34 990.37,419.74 990.88,419.53 991.39,429.97 991.90,414.70 992.41,415.33 992.91,415.96 993.42,416.94 993.92,417.38 994.42,418.19 994.92,418.79 995.41,429.04 995.91,414.93 996.40,415.66 996.89,416.24 997.38,417.04 997.87,417.59 998.36,418.36 998.85,418.97 999.33,429.36 999.81,415.29 1000.30,415.92 1000.78,416.76 1001.25,417.33 1001.73,417.96 1002.21,418.44 1002.68,419.22 1003.15,429.34 1003.63,415.63 1004.10,416.37 1004.57,416.94 1005.03,417.60 1005.50,420.14 1005.96,419.67 1006.43,419.56 1006.89,429.46 1007.35,416.23 1007.81,416.74 1008.27,417.54 1008.72,418.09 1009.18,418.58 1009.63,419.17 1010.09,419.75 1010.54,429.27 1010.99,416.62 1011.44,417.08 1011.88,417.58 1012.33,418.32 1012.78,419.04 1013.22,419.60 1013.66,420.12 1014.10,429.59 1014.54,416.96 1014.98,417.87 1015.42,418.19 1015.86,418.75 1016.29,419.22 1016.73,419.95 1017.16,420.52 1017.59,429.57 1018.02,417.46 1018.45,418.06 1018.88,418.39 1019.31,418.98 1019.73,419.54 1020.16,420.29 1020.58,420.71 1021.00,429.53 1021.43,417.74 1021.85,418.40 1022.27,418.94 1022.68,419.42 1023.10,419.94 1023.52,420.53 1023.93,420.81 1024.35,429.76 1024.76,417.93 1025.17,418.33 1025.58,417.49 1025.99,418.88 1026.40,419.17 1026.81,419.51 1027.21,419.76 1027.62,429.69 1028.02,418.35 1028.43,418.80 1028.83,419.32 1029.23,419.85 1029.63,420.36 1030.03,420.90 1030.43,421.40 1030.82,429.85 1031.22,418.53 1031.62,419.08 1032.01,419.58 1032.40,420.04 1032.80,420.68 1033.19,421.13 1033.58,421.73 1033.97,431.72 1034.36,421.46 1034.74,421.95 1035.13,421.64 1035.52,421.12 1035.90,421.65 1036.28,424.10 1036.67,425.58 1037.05,433.64 1037.43,423.79 1037.81,424.32 1038.19,424.82 1038.57,425.14 1038.94,425.85 1039.32,425.39 1039.70,426.69 1040.07,433.75 1040.45,423.17 1040.82,424.48 1041.19,424.10 1041.56,424.51 1041.93,425.96 1042.30,426.44 1042.67,426.76 1043.04,434.53 1043.40,424.47 1043.77,424.72 1044.14,425.34 1044.50,425.71 1044.86,426.09 1045.23,426.53 1045.59,427.22 1045.95,434.53 1046.31,424.48 1046.67,424.14 1047.03,426.37 1047.39,425.97 1047.74,426.31 1048.10,426.77 1048.45,427.31 1048.81,434.75 1049.16,424.55 1049.52,425.21 1049.87,425.58 1050.22,426.09 1050.57,426.41 1050.92,426.80 1051.27,427.49 1051.62,434.39 1051.97,424.86 1052.31,425.36 1052.66,424.97 1053.00,426.31 1053.35,426.63 1053.69,427.20 1054.04,427.50 1054.38,434.67 1054.72,425.13 1055.06,425.50 1055.40,426.03 1055.74,426.38 1056.08,426.92 1056.42,427.34 1056.75,427.77 1057.09,434.65 1057.43,425.23 1057.76,424.84 1058.10,425.14 1058.43,425.73 1058.76,427.19 1059.10,427.41 1059.43,426.95 1059.76,434.76 1060.09,425.43 1060.42,425.79 1060.75,425.46 1061.07,426.89 1061.40,427.02 1061.73,427.28 1062.06,427.94 1062.38,434.57 1062.71,425.59 1063.03,426.21 1063.35,425.52 1063.68,427.05 1064.00,427.14 1064.32,426.90 1064.64,427.39 1064.96,433.79 1065.28,406.07 1065.60,407.08 1065.92,407.73 1066.24,407.95 1066.55,408.53 1066.87,409.03 1067.19,409.64 1067.50,422.88 1067.82,386.51 1068.13,388.04 1068.44,388.38 1068.76,389.02 1069.07,389.55 1069.38,389.96 1069.69,390.15 1070.00,404.40" fill="none" stroke="#d14a00" stroke-width="2"/>
<polyline points="80.00,58.00 190.00,58.00 254.35,58.00 300.00,58.00 335.41,134.02 364.35,216.68 388.81,275.74 410.00,353.12 428.69,325.31 445.41,329.66 460.54,333.35 474.35,311.30 487.05,334.36 498.81,355.49 509.76,373.83 520.00,388.90 529.62,388.04 538.69,385.61 547.27,382.03 555.41,369.49 563.15,380.25 570.54,390.91 577.59,403.11 584.35,421.93 590.82,398.74 597.05,396.03 603.04,393.05 608.81,387.67 614.38,394.01 619.76,402.99 624.96,410.38 630.00,438.66 634.88,428.37 639.62,429.27 644.22,425.83 648.69,407.77 653.04,411.43 657.27,416.82 661.39,427.07 665.41,442.36 669.33,438.41 673.15,432.90 676.89,426.60 680.54,408.28 684.10,413.77 687.59,419.61 691.00,422.55 694.35,434.21 697.62,434.16 700.82,434.35 703.97,432.30 707.05,422.53 710.07,425.53 713.04,430.28 715.95,433.89 718.81,439.65 721.62,433.61 724.38,433.21 727.09,414.99 729.76,424.31 732.38,426.15 734.96,430.08 737.50,433.15 740.00,447.27 742.46,446.66 744.88,445.54 747.27,444.03 749.62,431.98 751.94,432.18 754.22,436.31 756.47,439.04 758.69,448.45 760.88,444.33 763.04,441.65 765.17,439.88 767.27,430.40 769.35,433.48 771.39,324.90 773.42,439.75 775.41,443.77 777.38,442.82 779.33,441.56 781.25,442.19 783.15,433.34 785.03,437.00 786.89,438.18 788.72,441.26 790.54,446.01 792.33,442.55 794.10,441.88 795.86,441.64 797.59,433.23 799.31,435.88 801.00,438.23 802.68,440.06 804.35,450.29 805.99,449.68 807.62,448.64 809.23,447.50 810.82,439.04 812.40,440.56 813.97,442.35 815.52,444.40 817.05,449.17 818.57,448.42 820.07,445.23 821.56,443.20 823.04,433.35 824.50,435.21 825.95,435.96 827.39,437.95 828.81,442.92 830.22,445.91 831.62,447.06 833.00,445.66 834.38,336.76 835.74,438.36 837.09,438.27 838.43,440.63 839.76,445.74 841.07,443.35 842.38,441.25 843.68,444.12 844.96,437.34 846.24,439.45 847.50,440.33 848.76,440.99 850.00,450.33 851.23,449.94 852.46,449.55 853.68,449.13 854.88,442.80 856.08,368.80 857.27,445.19 858.45,446.53 859.62,382.39 860.78,322.94 861.94,445.46 863.08,446.26 864.22,439.17 865.35,440.25 866.47,441.15 867.59,441.28 868.69,444.15 869.79,444.52 870.88,444.76 871.96,445.03 873.04,439.18 874.11,440.33 875.17,441.59 876.22,443.15 877.27,445.77 878.31,443.65 879.35,363.35 880.37,443.44 881.39,438.14 882.41,438.50 883.42,441.97 884.42,442.48 885.41,447.59 886.40,449.55 887.38,447.34 888.36,446.86 889.33,440.71 890.30,441.93 891.25,443.28 892.21,443.63 893.15,447.16 894.10,445.16 895.03,445.47 895.96,445.94 896.89,441.29 897.81,442.96 898.72,445.74 899.63,444.94 900.54,442.01 901.44,445.14 902.33,444.89 903.22,445.57 904.10,440.92 904.98,444.77 905.86,445.47 906.73,447.62 907.59,450.12 908.45,448.27 909.31,448.38 910.16,449.40 911.00,444.73 911.85,445.71 912.68,446.49 913.52,447.64 914.35,451.40 915.17,451.68 915.99,451.20 916.81,449.62 917.62,444.18 918.43,446.21 919.23,445.45 920.03,445.82 920.82,448.68 921.62,446.35 922.40,446.03 923.19,445.83 923.97,441.55 924.74,442.14 925.52,442.94 926.28,443.88 927.05,445.83 927.81,445.87 928.57,445.47 929.32,445.25 930.07,441.20 930.82,441.82 931.56,443.14 932.30,443.82 933.04,446.71 933.77,445.00 934.50,443.70 935.23,336.12 935.95,443.12 936.67,444.52 937.39,445.75 938.10,447.53 938.81,449.79 939.52,450.96 940.22,450.42 940.92,386.08 941.62,444.60 942.31,382.61 943.00,446.86 943.69,444.61 944.38,448.35 945.06,448.15 945.74,447.63 946.42,446.12 947.09,443.72 947.76,444.54 948.43,445.44 949.10,446.21 949.76,447.13 950.42,449.38 951.07,450.02 951.73,450.59 952.38,446.82 953.03,447.71 953.68,448.55 954.32,449.47 954.96,450.73 955.60,449.48 956.24,450.33 956.87,450.40 957.50,446.03 958.13,447.32 958.76,447.33 959.38,447.93 960.00,451.00 960.62,451.10 961.23,451.76 961.85,450.01 962.46,447.54 963.07,448.30 963.68,448.15 964.28,449.49 964.88,451.33 965.48,450.46 966.08,449.06 966.68,450.29 967.27,447.16 967.86,447.07 968.45,447.02 969.04,448.38 969.62,450.23 970.20,451.09 970.78,447.97 971.36,447.20 971.94,444.62 972.51,444.58 973.08,445.89 973.65,445.96 974.22,447.02 974.79,447.42 975.35,447.95 975.91,446.46 976.47,444.21 977.03,444.02 977.59,444.80 978.14,445.19 978.69,448.01 979.24,447.73 979.79,447.58 980.34,447.26 980.88,444.22 981.42,444.33 981.96,445.33 982.50,445.87 983.04,447.83 983.58,446.99 984.11,446.92 984.64,446.02 985.17,443.16 985.70,444.14 986.22,445.04 986.75,445.38 987.27,446.29 987.79,446.81 988.31,446.74 988.83,448.52 989.35,446.08 989.86,447.46 990.37,446.97 990.88,446.59 991.39,447.67 991.90,446.72 992.41,446.46 992.91,447.39 993.42,443.80 993.92,444.16 994.42,444.69 994.92,445.52 995.41,447.51 995.91,447.31 996.40,447.58 996.89,447.10 997.38,444.02 997.87,445.03 998.36,445.59 998.85,446.21 999.33,447.90 999.81,447.06 1000.30,446.77 1000.78,446.26 1001.25,444.01 1001.73,444.34 1002.21,445.03 1002.68,445.49 1003.15,447.01 1003.63,447.00 1004.10,447.10 1004.57,447.41 1005.03,444.54 1005.50,445.67 1005.96,446.59 1006.43,446.21 1006.89,447.47 1007.35,446.83 1007.81,446.47 1008.27,447.01 1008.72,444.24 1009.18,444.60 1009.63,445.50 1010.09,445.78 1010.54,447.75 1010.99,447.85 1011.44,447.72 1011.88,447.42 1012.33,445.09 1012.78,445.06 1013.22,445.76 1013.66,446.13 1014.10,448.07 1014.54,447.34 1014.98,447.00 1015.42,446.77 1015.86,444.25 1016.29,444.87 1016.73,445.54 1017.16,446.06 1017.59,447.23 1018.02,447.47 1018.45,447.03 1018.88,447.06 1019.31,444.96 1019.73,445.48 1020.16,446.03 1020.58,446.48 1021.00,447.35 1021.43,446.87 1021.85,446.43 1022.27,446.32 1022.68,444.32 1023.10,445.33 1023.52,445.55 1023.93,446.32 1024.35,448.21 1024.76,448.21 1025.17,448.22 1025.58,447.15 1025.99,445.30 1026.40,445.41 1026.81,446.10 1027.21,446.30 1027.62,447.67 1028.02,447.65 1028.43,447.35 1028.83,446.84 1029.23,444.97 1029.63,445.35 1030.03,445.70 1030.43,445.69 1030.82,446.97 1031.22,447.41 1031.62,447.56 1032.01,447.33 1032.40,445.27 1032.80,445.66 1033.19,445.90 1033.58,446.64 1033.97,449.11 1034.36,449.56 1034.74,448.76 1035.13,447.56 1035.52,445.46 1035.90,447.18 1036.28,448.51 1036.67,449.29 1037.05,451.74 1037.43,451.84 1037.81,451.79 1038.19,451.78 1038.57,449.61 1038.94,449.95 1039.32,449.81 1039.70,450.67 1040.07,451.03 1040.45,450.94 1040.82,451.68 1041.19,450.59 1041.56,449.21 1041.93,449.76 1042.30,450.20 1042.67,450.27 1043.04,451.36 1043.40,451.15 1043.77,451.60 1044.14,451.61 1044.50,449.91 1044.86,448.98 1045.23,450.72 1045.59,451.01 1045.95,452.01 1046.31,451.27 1046.67,451.14 1047.03,451.54 1047.39,449.75 1047.74,449.94 1048.10,450.03 1048.45,450.93 1048.81,452.66 1049.16,452.57 1049.52,452.29 1049.87,452.18 1050.22,450.14 1050.57,450.25 1050.92,450.69 1051.27,450.99 1051.62,452.12 1051.97,452.06 1052.31,451.81 1052.66,451.27 1053.00,449.68 1053.35,450.12 1053.69,450.33 1054.04,450.85 1054.38,451.77 1054.72,451.77 1055.06,452.11 1055.40,451.98 1055.74,449.65 1056.08,450.61 1056.42,450.78 1056.75,451.10 1057.09,451.41 1057.43,451.63 1057.76,451.40 1058.10,451.45 1058.43,449.86 1058.76,450.04 1059.10,450.64 1059.43,451.06 1059.76,452.53 1060.09,452.50 1060.42,452.23 1060.75,452.09 1061.07,449.94 1061.40,450.34 1061.73,450.94 1062.06,451.21 1062.38,452.45 1062.71,452.06 1063.03,451.71 1063.35,451.64 1063.68,449.54 1064.00,449.96 1064.32,450.56 1064.64,450.15 1064.96,451.09 1065.28,451.69 1065.60,451.71 1065.92,451.58 1066.24,435.25 1066.55,435.74 1066.87,436.33 1067.19,436.38 1067.50,438.83 1067.82,439.55 1068.13,439.49 1068.44,439.18 1068.76,420.80 1069.07,425.17 1069.38,424.07 1069.69,421.18 1070.00,452.63" fill="none" stroke="#179b52" stroke-width="2"/>
<polyline points="80.00,58.00 190.00,58.00 254.35,58.00 300.00,77.99 335.41,188.39 364.35,261.61 388.81,314.38 410.00,387.72 428.69,226.84 445.41,268.70 460.54,301.71 474.35,330.15 487.05,353.39 498.81,371.76 509.76,389.21 520.00,404.05 529.62,326.24 538.69,343.60 547.27,357.91 555.41,372.07 563.15,383.03 570.54,396.39 577.59,405.78 584.35,415.28 590.82,358.02 597.05,369.01 603.04,379.31 608.81,390.03 614.38,396.59 619.76,405.43 624.96,412.72 630.00,422.83 634.88,376.13 639.62,384.10 644.22,392.23 648.69,399.62 653.04,405.67 657.27,414.16 661.39,420.52 665.41,422.65 669.33,389.11 673.15,394.18 676.89,399.80 680.54,406.64 684.10,411.29 687.59,416.01 691.00,419.72 694.35,421.86 697.62,397.76 700.82,402.69 703.97,406.74 707.05,411.40 710.07,415.62 713.04,420.14 715.95,422.90 718.81,426.55 721.62,404.69 724.38,408.14 727.09,412.10 729.76,415.86 732.38,419.49 734.96,422.00 737.50,425.63 740.00,429.48 742.46,409.57 744.88,412.48 747.27,415.66 749.62,418.81 751.94,421.47 754.22,424.36 756.47,426.44 758.69,429.05 760.88,407.89 763.04,411.34 765.17,415.01 767.27,417.51 769.35,421.25 771.39,329.65 773.42,428.16 775.41,430.39 777.38,414.00 779.33,415.86 781.25,418.46 783.15,421.04 785.03,424.20 786.89,425.62 788.72,428.12 790.54,430.57 792.33,414.64 794.10,416.96 795.86,419.23 797.59,421.56 799.31,423.77 801.00,426.21 802.68,428.12 804.35,429.20 805.99,415.54 807.62,417.68 809.23,419.97 810.82,422.10 812.40,424.18 813.97,426.17 815.52,427.92 817.05,427.57 818.57,416.89 820.07,416.85 821.56,417.69 823.04,419.59 824.50,420.98 825.95,422.36 827.39,424.25 828.81,427.36 830.22,418.58 831.62,420.13 833.00,421.70 834.38,340.38 835.74,424.83 837.09,426.55 838.43,427.50 839.76,427.44 841.07,416.92 842.38,418.61 843.68,421.84 844.96,422.95 846.24,425.85 847.50,426.04 848.76,426.97 850.00,430.42 851.23,421.13 852.46,422.23 853.68,425.20 854.88,426.74 856.08,427.63 857.27,429.28 858.45,431.26 859.62,311.45 860.78,289.15 861.94,422.60 863.08,422.79 864.22,424.38 865.35,425.71 866.47,425.97 867.59,426.93 868.69,428.41 869.79,419.19 870.88,420.45 871.96,421.75 873.04,423.51 874.11,424.64 875.17,425.98 876.22,427.45 877.27,428.61 878.31,419.41 879.35,419.67 880.37,421.41 881.39,422.84 882.41,423.87 883.42,427.11 884.42,426.35 885.41,430.33 886.40,422.52 887.38,422.46 888.36,423.67 889.33,424.86 890.30,425.35 891.25,426.71 892.21,427.94 893.15,428.88 894.10,421.00 895.03,422.35 895.96,426.04 896.89,426.57 897.81,427.57 898.72,429.88 899.63,429.92 900.54,424.74 901.44,420.63 902.33,422.74 903.22,423.89 904.10,425.01 904.98,429.12 905.86,431.21 906.73,432.37 907.59,433.47 908.45,425.93 909.31,426.95 910.16,428.51 911.00,430.08 911.85,430.98 912.68,432.24 913.52,433.36 914.35,433.02 915.17,427.50 915.99,428.34 916.81,428.70 917.62,429.56 918.43,430.42 919.23,429.55 920.03,430.49 920.82,430.35 921.62,423.86 922.40,424.75 923.19,426.03 923.97,427.01 924.74,428.02 925.52,428.80 926.28,430.74 927.05,430.61 927.81,424.19 928.57,424.32 929.32,425.22 930.07,426.25 930.82,427.20 931.56,428.09 932.30,428.91 933.04,429.62 933.77,423.33 934.50,424.61 935.23,428.15 935.95,428.34 936.67,430.03 937.39,430.91 938.10,433.02 938.81,433.64 939.52,428.49 940.22,429.33 940.92,344.78 941.62,342.31 942.31,354.94 943.00,430.77 943.69,428.74 944.38,429.50 945.06,424.92 945.74,426.43 946.42,427.89 947.09,428.95 947.76,429.49 948.43,430.30 949.10,431.12 949.76,432.78 950.42,428.15 951.07,429.12 951.73,430.03 952.38,431.94 953.03,432.67 953.68,433.41 954.32,434.01 954.96,433.76 955.60,429.55 956.24,430.40 956.87,431.01 957.50,430.94 958.13,432.59 958.76,432.71 959.38,434.25 960.00,434.02 960.62,429.15 961.23,430.62 961.85,430.53 962.46,432.03 963.07,432.64 963.68,432.59 964.28,434.38 964.88,434.11 965.48,429.10 966.08,418.19 966.68,431.67 967.27,431.47 967.86,431.99 968.45,433.41 969.04,433.37 969.62,435.06 970.20,429.98 970.78,428.11 971.36,427.58 971.94,428.51 972.51,428.51 973.08,429.89 973.65,429.83 974.22,430.42 974.79,427.62 975.35,427.41 975.91,428.28 976.47,428.78 977.03,428.52 977.59,429.46 978.14,430.04 978.69,430.68 979.24,425.88 979.79,426.58 980.34,427.32 980.88,427.99 981.42,428.74 981.96,429.42 982.50,430.10 983.04,430.76 983.58,426.03 984.11,426.72 984.64,427.40 985.17,428.32 985.70,428.86 986.22,429.80 986.75,430.34 987.27,430.81 987.79,426.48 988.31,426.86 988.83,430.13 989.35,430.17 989.86,431.81 990.37,431.44 990.88,431.18 991.39,430.70 991.90,427.45 992.41,426.93 992.91,428.45 993.42,428.66 993.92,429.05 994.42,429.76 994.92,430.26 995.41,430.60 995.91,426.53 996.40,427.07 996.89,427.92 997.38,428.51 997.87,428.86 998.36,429.72 998.85,430.35 999.33,430.88 999.81,426.67 1000.30,427.40 1000.78,427.98 1001.25,428.41 1001.73,429.26 1002.21,429.82 1002.68,430.44 1003.15,430.78 1003.63,426.78 1004.10,427.49 1004.57,428.12 1005.03,428.79 1005.50,430.13 1005.96,429.86 1006.43,430.41 1006.89,431.11 1007.35,427.11 1007.81,427.83 1008.27,428.31 1008.72,428.83 1009.18,429.46 1009.63,429.97 1010.09,430.65 1010.54,430.91 1010.99,427.27 1011.44,427.93 1011.88,428.50 1012.33,428.93 1012.78,429.58 1013.22,430.05 1013.66,430.56 1014.10,431.09 1014.54,427.24 1014.98,428.06 1015.42,428.51 1015.86,429.08 1016.29,429.59 1016.73,429.99 1017.16,430.73 1017.59,431.08 1018.02,427.39 1018.45,428.10 1018.88,428.37 1019.31,428.96 1019.73,429.68 1020.16,430.05 1020.58,430.70 1021.00,431.12 1021.43,427.58 1021.85,428.16 1022.27,428.74 1022.68,429.21 1023.10,429.74 1023.52,430.29 1023.93,430.84 1024.35,431.13 1024.76,427.85 1025.17,428.19 1025.58,428.82 1025.99,429.27 1026.40,429.78 1026.81,430.22 1027.21,430.83 1027.62,431.12 1028.02,427.64 1028.43,428.32 1028.83,428.85 1029.23,429.22 1029.63,429.92 1030.03,430.27 1030.43,430.74 1030.82,431.34 1031.22,427.95 1031.62,428.31 1032.01,428.93 1032.40,429.39 1032.80,429.95 1033.19,430.46 1033.58,430.77 1033.97,433.12 1034.36,430.87 1034.74,430.30 1035.13,429.79 1035.52,430.29 1035.90,431.82 1036.28,434.22 1036.67,434.53 1037.05,434.94 1037.43,432.65 1037.81,433.33 1038.19,433.55 1038.57,434.24 1038.94,434.52 1039.32,434.93 1039.70,435.49 1040.07,435.97 1040.45,431.85 1040.82,433.17 1041.19,432.82 1041.56,433.50 1041.93,434.83 1042.30,435.08 1042.67,435.58 1043.04,436.07 1043.40,432.76 1043.77,433.49 1044.14,433.93 1044.50,434.32 1044.86,434.78 1045.23,435.03 1045.59,435.70 1045.95,436.04 1046.31,432.93 1046.67,433.59 1047.03,434.01 1047.39,434.44 1047.74,434.95 1048.10,435.22 1048.45,435.84 1048.81,436.09 1049.16,433.18 1049.52,433.53 1049.87,433.95 1050.22,434.54 1050.57,434.92 1050.92,435.37 1051.27,435.67 1051.62,436.07 1051.97,433.21 1052.31,433.63 1052.66,433.87 1053.00,434.50 1053.35,434.83 1053.69,435.39 1054.04,435.64 1054.38,436.06 1054.72,433.34 1055.06,433.82 1055.40,434.27 1055.74,434.41 1056.08,434.91 1056.42,435.24 1056.75,435.91 1057.09,435.27 1057.43,433.38 1057.76,433.64 1058.10,434.14 1058.43,434.59 1058.76,435.02 1059.10,434.69 1059.43,435.05 1059.76,436.09 1060.09,433.38 1060.42,433.73 1060.75,434.27 1061.07,434.65 1061.40,435.08 1061.73,435.48 1062.06,435.98 1062.38,436.13 1062.71,433.51 1063.03,433.94 1063.35,434.09 1063.68,434.63 1064.00,435.17 1064.32,434.60 1064.64,434.98 1064.96,435.26 1065.28,421.37 1065.60,421.72 1065.92,422.88 1066.24,422.90 1066.55,424.51 1066.87,423.06 1067.19,424.51 1067.50,427.71 1067.82,408.25 1068.13,415.91 1068.44,408.96 1068.76,411.31 1069.07,412.01 1069.38,414.26 1069.69,413.44 1070.00,417.84" fill="none" stroke="#8f36c7" stroke-width="2"/>
<line x1="815" y1="72" x2="847" y2="72" stroke="#0b6cff" stroke-width="3"/>
<text x="857" y="77" font-family="Arial" font-size="14" fill="#111">current add</text>
<line x1="815" y1="96" x2="847" y2="96" stroke="#d14a00" stroke-width="3"/>
<text x="857" y="101" font-family="Arial" font-size="14" fill="#111">stream add</text>
<line x1="815" y1="120" x2="847" y2="120" stroke="#179b52" stroke-width="3"/>
<text x="857" y="125" font-family="Arial" font-size="14" fill="#111">current sub</text>
<line x1="815" y1="144" x2="847" y2="144" stroke="#8f36c7" stroke-width="3"/>
<text x="857" y="149" font-family="Arial" font-size="14" fill="#111">stream sub</text>
</svg>