<?xml version="1.0" encoding="utf-8" standalone="no"?>
<!DOCTYPE svg PUBLIC "-//W3C//DTD SVG 1.1//EN"
  "http://www.w3.org/Graphics/SVG/1.1/DTD/svg11.dtd">
<svg xmlns:xlink="http://www.w3.org/1999/xlink" width="864pt" height="648pt" viewBox="0 0 864 648" xmlns="http://www.w3.org/2000/svg" version="1.1">
 <metadata>
  <rdf:RDF xmlns:dc="http://purl.org/dc/elements/1.1/" xmlns:cc="http://creativecommons.org/ns#" xmlns:rdf="http://www.w3.org/1999/02/22-rdf-syntax-ns#">
   <cc:Work>
    <dc:type rdf:resource="http://purl.org/dc/dcmitype/StillImage"/>
    <dc:date>2026-06-05T13:18:54.287860</dc:date>
    <dc:format>image/svg+xml</dc:format>
    <dc:creator>
     <cc:Agent>
      <dc:title>Matplotlib v3.10.7+dfsg1, https://matplotlib.org/</dc:title>
     </cc:Agent>
    </dc:creator>
   </cc:Work>
  </rdf:RDF>
 </metadata>
 <defs>
  <style type="text/css">*{stroke-linejoin: round; stroke-linecap: butt}</style>
 </defs>
 <g id="figure_1">
  <g id="patch_1">
   <path d="M 0 648 
L 864 648 
L 864 0 
L 0 0 
z
" style="fill: #ffffff"/>
  </g>
  <g id="axes_1">
   <g id="patch_2">
    <path d="M 47.81 312.74 
L 853.2 312.74 
L 853.2 36.36 
L 47.81 36.36 
z
" style="fill: #ffffff"/>
   </g>
   <g id="matplotlib.axis_1">
    <g id="xtick_1">
     <g id="line2d_1">
      <path d="M 82.985813 312.74 
L 82.985813 36.36 
" clip-path="url(#p37e59d9cfa)" style="fill: none; stroke: #b0b0b0; stroke-opacity: 0.25; stroke-width: 0.8; stroke-linecap: square"/>
     </g>
     <g id="line2d_2">
      <defs>
       <path id="m4fda98c00a" d="M 0 0 
L 0 3.5 
" style="stroke: #000000; stroke-width: 0.8"/>
      </defs>
      <g>
       <use xlink:href="#m4fda98c00a" x="82.985813" y="312.74" style="stroke: #000000; stroke-width: 0.8"/>
      </g>
     </g>
    </g>
    <g id="xtick_2">
     <g id="line2d_3">
      <path d="M 172.537272 312.74 
L 172.537272 36.36 
" clip-path="url(#p37e59d9cfa)" style="fill: none; stroke: #b0b0b0; stroke-opacity: 0.25; stroke-width: 0.8; stroke-linecap: square"/>
     </g>
     <g id="line2d_4">
      <g>
       <use xlink:href="#m4fda98c00a" x="172.537272" y="312.74" style="stroke: #000000; stroke-width: 0.8"/>
      </g>
     </g>
    </g>
    <g id="xtick_3">
     <g id="line2d_5">
      <path d="M 262.088731 312.74 
L 262.088731 36.36 
" clip-path="url(#p37e59d9cfa)" style="fill: none; stroke: #b0b0b0; stroke-opacity: 0.25; stroke-width: 0.8; stroke-linecap: square"/>
     </g>
     <g id="line2d_6">
      <g>
       <use xlink:href="#m4fda98c00a" x="262.088731" y="312.74" style="stroke: #000000; stroke-width: 0.8"/>
      </g>
     </g>
    </g>
    <g id="xtick_4">
     <g id="line2d_7">
      <path d="M 351.640189 312.74 
L 351.640189 36.36 
" clip-path="url(#p37e59d9cfa)" style="fill: none; stroke: #b0b0b0; stroke-opacity: 0.25; stroke-width: 0.8; stroke-linecap: square"/>
     </g>
     <g id="line2d_8">
      <g>
       <use xlink:href="#m4fda98c00a" x="351.640189" y="312.74" style="stroke: #000000; stroke-width: 0.8"/>
      </g>
     </g>
    </g>
    <g id="xtick_5">
     <g id="line2d_9">
      <path d="M 441.191648 312.74 
L 441.191648 36.36 
" clip-path="url(#p37e59d9cfa)" style="fill: none; stroke: #b0b0b0; stroke-opacity: 0.25; stroke-width: 0.8; stroke-linecap: square"/>
     </g>
     <g id="line2d_10">
      <g>
       <use xlink:href="#m4fda98c00a" x="441.191648" y="312.74" style="stroke: #000000; stroke-width: 0.8"/>
      </g>
     </g>
    </g>
    <g id="xtick_6">
     <g id="line2d_11">
      <path d="M 530.743107 312.74 
L 530.743107 36.36 
" clip-path="url(#p37e59d9cfa)" style="fill: none; stroke: #b0b0b0; stroke-opacity: 0.25; stroke-width: 0.8; stroke-linecap: square"/>
     </g>
     <g id="line2d_12">
      <g>
       <use xlink:href="#m4fda98c00a" x="530.743107" y="312.74" style="stroke: #000000; stroke-width: 0.8"/>
      </g>
     </g>
    </g>
    <g id="xtick_7">
     <g id="line2d_13">
      <path d="M 620.294566 312.74 
L 620.294566 36.36 
" clip-path="url(#p37e59d9cfa)" style="fill: none; stroke: #b0b0b0; stroke-opacity: 0.25; stroke-width: 0.8; stroke-linecap: square"/>
     </g>
     <g id="line2d_14">
      <g>
       <use xlink:href="#m4fda98c00a" x="620.294566" y="312.74" style="stroke: #000000; stroke-width: 0.8"/>
      </g>
     </g>
    </g>
    <g id="xtick_8">
     <g id="line2d_15">
      <path d="M 709.846025 312.74 
L 709.846025 36.36 
" clip-path="url(#p37e59d9cfa)" style="fill: none; stroke: #b0b0b0; stroke-opacity: 0.25; stroke-width: 0.8; stroke-linecap: square"/>
     </g>
     <g id="line2d_16">
      <g>
       <use xlink:href="#m4fda98c00a" x="709.846025" y="312.74" style="stroke: #000000; stroke-width: 0.8"/>
      </g>
     </g>
    </g>
    <g id="xtick_9">
     <g id="line2d_17">
      <path d="M 799.397484 312.74 
L 799.397484 36.36 
" clip-path="url(#p37e59d9cfa)" style="fill: none; stroke: #b0b0b0; stroke-opacity: 0.25; stroke-width: 0.8; stroke-linecap: square"/>
     </g>
     <g id="line2d_18">
      <g>
       <use xlink:href="#m4fda98c00a" x="799.397484" y="312.74" style="stroke: #000000; stroke-width: 0.8"/>
      </g>
     </g>
    </g>
   </g>
   <g id="matplotlib.axis_2">
    <g id="ytick_1">
     <g id="line2d_19">
      <path d="M 47.81 312.74 
L 853.2 312.74 
" clip-path="url(#p37e59d9cfa)" style="fill: none; stroke: #b0b0b0; stroke-opacity: 0.25; stroke-width: 0.8; stroke-linecap: square"/>
     </g>
     <g id="line2d_20">
      <defs>
       <path id="m8a52df90a3" d="M 0 0 
L -3.5 0 
" style="stroke: #000000; stroke-width: 0.8"/>
      </defs>
      <g>
       <use xlink:href="#m8a52df90a3" x="47.81" y="312.74" style="stroke: #000000; stroke-width: 0.8"/>
      </g>
     </g>
     <g id="text_1">
      <!-- 0.0 -->
      <g transform="translate(24.906875 316.539219) scale(0.1 -0.1)">
       <defs>
        <path id="DejaVuSans-30" d="M 2034 4250 
Q 1547 4250 1301 3770 
Q 1056 3291 1056 2328 
Q 1056 1369 1301 889 
Q 1547 409 2034 409 
Q 2525 409 2770 889 
Q 3016 1369 3016 2328 
Q 3016 3291 2770 3770 
Q 2525 4250 2034 4250 
z
M 2034 4750 
Q 2819 4750 3233 4129 
Q 3647 3509 3647 2328 
Q 3647 1150 3233 529 
Q 2819 -91 2034 -91 
Q 1250 -91 836 529 
Q 422 1150 422 2328 
Q 422 3509 836 4129 
Q 1250 4750 2034 4750 
z
" transform="scale(0.015625)"/>
        <path id="DejaVuSans-2e" d="M 684 794 
L 1344 794 
L 1344 0 
L 684 0 
L 684 794 
z
" transform="scale(0.015625)"/>
       </defs>
       <use xlink:href="#DejaVuSans-30"/>
       <use xlink:href="#DejaVuSans-2e" transform="translate(63.623047 0)"/>
       <use xlink:href="#DejaVuSans-30" transform="translate(95.410156 0)"/>
      </g>
     </g>
    </g>
    <g id="ytick_2">
     <g id="line2d_21">
      <path d="M 47.81 257.464 
L 853.2 257.464 
" clip-path="url(#p37e59d9cfa)" style="fill: none; stroke: #b0b0b0; stroke-opacity: 0.25; stroke-width: 0.8; stroke-linecap: square"/>
     </g>
     <g id="line2d_22">
      <g>
       <use xlink:href="#m8a52df90a3" x="47.81" y="257.464" style="stroke: #000000; stroke-width: 0.8"/>
      </g>
     </g>
     <g id="text_2">
      <!-- 0.2 -->
      <g transform="translate(24.906875 261.263219) scale(0.1 -0.1)">
       <defs>
        <path id="DejaVuSans-32" d="M 1228 531 
L 3431 531 
L 3431 0 
L 469 0 
L 469 531 
Q 828 903 1448 1529 
Q 2069 2156 2228 2338 
Q 2531 2678 2651 2914 
Q 2772 3150 2772 3378 
Q 2772 3750 2511 3984 
Q 2250 4219 1831 4219 
Q 1534 4219 1204 4116 
Q 875 4013 500 3803 
L 500 4441 
Q 881 4594 1212 4672 
Q 1544 4750 1819 4750 
Q 2544 4750 2975 4387 
Q 3406 4025 3406 3419 
Q 3406 3131 3298 2873 
Q 3191 2616 2906 2266 
Q 2828 2175 2409 1742 
Q 1991 1309 1228 531 
z
" transform="scale(0.015625)"/>
       </defs>
       <use xlink:href="#DejaVuSans-30"/>
       <use xlink:href="#DejaVuSans-2e" transform="translate(63.623047 0)"/>
       <use xlink:href="#DejaVuSans-32" transform="translate(95.410156 0)"/>
      </g>
     </g>
    </g>
    <g id="ytick_3">
     <g id="line2d_23">
      <path d="M 47.81 202.188 
L 853.2 202.188 
" clip-path="url(#p37e59d9cfa)" style="fill: none; stroke: #b0b0b0; stroke-opacity: 0.25; stroke-width: 0.8; stroke-linecap: square"/>
     </g>
     <g id="line2d_24">
      <g>
       <use xlink:href="#m8a52df90a3" x="47.81" y="202.188" style="stroke: #000000; stroke-width: 0.8"/>
      </g>
     </g>
     <g id="text_3">
      <!-- 0.4 -->
      <g transform="translate(24.906875 205.987219) scale(0.1 -0.1)">
       <defs>
        <path id="DejaVuSans-34" d="M 2419 4116 
L 825 1625 
L 2419 1625 
L 2419 4116 
z
M 2253 4666 
L 3047 4666 
L 3047 1625 
L 3713 1625 
L 3713 1100 
L 3047 1100 
L 3047 0 
L 2419 0 
L 2419 1100 
L 313 1100 
L 313 1709 
L 2253 4666 
z
" transform="scale(0.015625)"/>
       </defs>
       <use xlink:href="#DejaVuSans-30"/>
       <use xlink:href="#DejaVuSans-2e" transform="translate(63.623047 0)"/>
       <use xlink:href="#DejaVuSans-34" transform="translate(95.410156 0)"/>
      </g>
     </g>
    </g>
    <g id="ytick_4">
     <g id="line2d_25">
      <path d="M 47.81 146.912 
L 853.2 146.912 
" clip-path="url(#p37e59d9cfa)" style="fill: none; stroke: #b0b0b0; stroke-opacity: 0.25; stroke-width: 0.8; stroke-linecap: square"/>
     </g>
     <g id="line2d_26">
      <g>
       <use xlink:href="#m8a52df90a3" x="47.81" y="146.912" style="stroke: #000000; stroke-width: 0.8"/>
      </g>
     </g>
     <g id="text_4">
      <!-- 0.6 -->
      <g transform="translate(24.906875 150.711219) scale(0.1 -0.1)">
       <defs>
        <path id="DejaVuSans-36" d="M 2113 2584 
Q 1688 2584 1439 2293 
Q 1191 2003 1191 1497 
Q 1191 994 1439 701 
Q 1688 409 2113 409 
Q 2538 409 2786 701 
Q 3034 994 3034 1497 
Q 3034 2003 2786 2293 
Q 2538 2584 2113 2584 
z
M 3366 4563 
L 3366 3988 
Q 3128 4100 2886 4159 
Q 2644 4219 2406 4219 
Q 1781 4219 1451 3797 
Q 1122 3375 1075 2522 
Q 1259 2794 1537 2939 
Q 1816 3084 2150 3084 
Q 2853 3084 3261 2657 
Q 3669 2231 3669 1497 
Q 3669 778 3244 343 
Q 2819 -91 2113 -91 
Q 1303 -91 875 529 
Q 447 1150 447 2328 
Q 447 3434 972 4092 
Q 1497 4750 2381 4750 
Q 2619 4750 2861 4703 
Q 3103 4656 3366 4563 
z
" transform="scale(0.015625)"/>
       </defs>
       <use xlink:href="#DejaVuSans-30"/>
       <use xlink:href="#DejaVuSans-2e" transform="translate(63.623047 0)"/>
       <use xlink:href="#DejaVuSans-36" transform="translate(95.410156 0)"/>
      </g>
     </g>
    </g>
    <g id="ytick_5">
     <g id="line2d_27">
      <path d="M 47.81 91.636 
L 853.2 91.636 
" clip-path="url(#p37e59d9cfa)" style="fill: none; stroke: #b0b0b0; stroke-opacity: 0.25; stroke-width: 0.8; stroke-linecap: square"/>
     </g>
     <g id="line2d_28">
      <g>
       <use xlink:href="#m8a52df90a3" x="47.81" y="91.636" style="stroke: #000000; stroke-width: 0.8"/>
      </g>
     </g>
     <g id="text_5">
      <!-- 0.8 -->
      <g transform="translate(24.906875 95.435219) scale(0.1 -0.1)">
       <defs>
        <path id="DejaVuSans-38" d="M 2034 2216 
Q 1584 2216 1326 1975 
Q 1069 1734 1069 1313 
Q 1069 891 1326 650 
Q 1584 409 2034 409 
Q 2484 409 2743 651 
Q 3003 894 3003 1313 
Q 3003 1734 2745 1975 
Q 2488 2216 2034 2216 
z
M 1403 2484 
Q 997 2584 770 2862 
Q 544 3141 544 3541 
Q 544 4100 942 4425 
Q 1341 4750 2034 4750 
Q 2731 4750 3128 4425 
Q 3525 4100 3525 3541 
Q 3525 3141 3298 2862 
Q 3072 2584 2669 2484 
Q 3125 2378 3379 2068 
Q 3634 1759 3634 1313 
Q 3634 634 3220 271 
Q 2806 -91 2034 -91 
Q 1263 -91 848 271 
Q 434 634 434 1313 
Q 434 1759 690 2068 
Q 947 2378 1403 2484 
z
M 1172 3481 
Q 1172 3119 1398 2916 
Q 1625 2713 2034 2713 
Q 2441 2713 2670 2916 
Q 2900 3119 2900 3481 
Q 2900 3844 2670 4047 
Q 2441 4250 2034 4250 
Q 1625 4250 1398 4047 
Q 1172 3844 1172 3481 
z
" transform="scale(0.015625)"/>
       </defs>
       <use xlink:href="#DejaVuSans-30"/>
       <use xlink:href="#DejaVuSans-2e" transform="translate(63.623047 0)"/>
       <use xlink:href="#DejaVuSans-38" transform="translate(95.410156 0)"/>
      </g>
     </g>
    </g>
    <g id="ytick_6">
     <g id="line2d_29">
      <path d="M 47.81 36.36 
L 853.2 36.36 
" clip-path="url(#p37e59d9cfa)" style="fill: none; stroke: #b0b0b0; stroke-opacity: 0.25; stroke-width: 0.8; stroke-linecap: square"/>
     </g>
     <g id="line2d_30">
      <g>
       <use xlink:href="#m8a52df90a3" x="47.81" y="36.36" style="stroke: #000000; stroke-width: 0.8"/>
      </g>
     </g>
     <g id="text_6">
      <!-- 1.0 -->
      <g transform="translate(24.906875 40.159219) scale(0.1 -0.1)">
       <defs>
        <path id="DejaVuSans-31" d="M 794 531 
L 1825 531 
L 1825 4091 
L 703 3866 
L 703 4441 
L 1819 4666 
L 2450 4666 
L 2450 531 
L 3481 531 
L 3481 0 
L 794 0 
L 794 531 
z
" transform="scale(0.015625)"/>
       </defs>
       <use xlink:href="#DejaVuSans-31"/>
       <use xlink:href="#DejaVuSans-2e" transform="translate(63.623047 0)"/>
       <use xlink:href="#DejaVuSans-30" transform="translate(95.410156 0)"/>
      </g>
     </g>
    </g>
    <g id="text_7">
     <!-- ns / limb -->
     <g transform="translate(18.827187 196.008594) rotate(-90) scale(0.1 -0.1)">
      <defs>
       <path id="DejaVuSans-6e" d="M 3513 2113 
L 3513 0 
L 2938 0 
L 2938 2094 
Q 2938 2591 2744 2837 
Q 2550 3084 2163 3084 
Q 1697 3084 1428 2787 
Q 1159 2491 1159 1978 
L 1159 0 
L 581 0 
L 581 3500 
L 1159 3500 
L 1159 2956 
Q 1366 3272 1645 3428 
Q 1925 3584 2291 3584 
Q 2894 3584 3203 3211 
Q 3513 2838 3513 2113 
z
" transform="scale(0.015625)"/>
       <path id="DejaVuSans-73" d="M 2834 3397 
L 2834 2853 
Q 2591 2978 2328 3040 
Q 2066 3103 1784 3103 
Q 1356 3103 1142 2972 
Q 928 2841 928 2578 
Q 928 2378 1081 2264 
Q 1234 2150 1697 2047 
L 1894 2003 
Q 2506 1872 2764 1633 
Q 3022 1394 3022 966 
Q 3022 478 2636 193 
Q 2250 -91 1575 -91 
Q 1294 -91 989 -36 
Q 684 19 347 128 
L 347 722 
Q 666 556 975 473 
Q 1284 391 1588 391 
Q 1994 391 2212 530 
Q 2431 669 2431 922 
Q 2431 1156 2273 1281 
Q 2116 1406 1581 1522 
L 1381 1569 
Q 847 1681 609 1914 
Q 372 2147 372 2553 
Q 372 3047 722 3315 
Q 1072 3584 1716 3584 
Q 2034 3584 2315 3537 
Q 2597 3491 2834 3397 
z
" transform="scale(0.015625)"/>
       <path id="DejaVuSans-20" transform="scale(0.015625)"/>
       <path id="DejaVuSans-2f" d="M 1625 4666 
L 2156 4666 
L 531 -594 
L 0 -594 
L 1625 4666 
z
" transform="scale(0.015625)"/>
       <path id="DejaVuSans-6c" d="M 603 4863 
L 1178 4863 
L 1178 0 
L 603 0 
L 603 4863 
z
" transform="scale(0.015625)"/>
       <path id="DejaVuSans-69" d="M 603 3500 
L 1178 3500 
L 1178 0 
L 603 0 
L 603 3500 
z
M 603 4863 
L 1178 4863 
L 1178 4134 
L 603 4134 
L 603 4863 
z
" transform="scale(0.015625)"/>
       <path id="DejaVuSans-6d" d="M 3328 2828 
Q 3544 3216 3844 3400 
Q 4144 3584 4550 3584 
Q 5097 3584 5394 3201 
Q 5691 2819 5691 2113 
L 5691 0 
L 5113 0 
L 5113 2094 
Q 5113 2597 4934 2840 
Q 4756 3084 4391 3084 
Q 3944 3084 3684 2787 
Q 3425 2491 3425 1978 
L 3425 0 
L 2847 0 
L 2847 2094 
Q 2847 2600 2669 2842 
Q 2491 3084 2119 3084 
Q 1678 3084 1418 2786 
Q 1159 2488 1159 1978 
L 1159 0 
L 581 0 
L 581 3500 
L 1159 3500 
L 1159 2956 
Q 1356 3278 1631 3431 
Q 1906 3584 2284 3584 
Q 2666 3584 2933 3390 
Q 3200 3197 3328 2828 
z
" transform="scale(0.015625)"/>
       <path id="DejaVuSans-62" d="M 3116 1747 
Q 3116 2381 2855 2742 
Q 2594 3103 2138 3103 
Q 1681 3103 1420 2742 
Q 1159 2381 1159 1747 
Q 1159 1113 1420 752 
Q 1681 391 2138 391 
Q 2594 391 2855 752 
Q 3116 1113 3116 1747 
z
M 1159 2969 
Q 1341 3281 1617 3432 
Q 1894 3584 2278 3584 
Q 2916 3584 3314 3078 
Q 3713 2572 3713 1747 
Q 3713 922 3314 415 
Q 2916 -91 2278 -91 
Q 1894 -91 1617 61 
Q 1341 213 1159 525 
L 1159 0 
L 581 0 
L 581 4863 
L 1159 4863 
L 1159 2969 
z
" transform="scale(0.015625)"/>
      </defs>
      <use xlink:href="#DejaVuSans-6e"/>
      <use xlink:href="#DejaVuSans-73" transform="translate(63.378906 0)"/>
      <use xlink:href="#DejaVuSans-20" transform="translate(115.478516 0)"/>
      <use xlink:href="#DejaVuSans-2f" transform="translate(147.265625 0)"/>
      <use xlink:href="#DejaVuSans-20" transform="translate(180.957031 0)"/>
      <use xlink:href="#DejaVuSans-6c" transform="translate(212.744141 0)"/>
      <use xlink:href="#DejaVuSans-69" transform="translate(240.527344 0)"/>
      <use xlink:href="#DejaVuSans-6d" transform="translate(268.310547 0)"/>
      <use xlink:href="#DejaVuSans-62" transform="translate(365.722656 0)"/>
     </g>
    </g>
   </g>
   <g id="line2d_31">
    <path d="M 84.418636 215.586426 
L 85.85146 247.277592 
L 87.284283 260.516109 
L 88.717106 266.273894 
L 90.14993 268.079779 
L 91.582753 270.618836 
L 93.015576 272.346668 
L 94.4484 272.263391 
L 95.881223 273.964692 
L 97.314046 275.220516 
L 98.74687 275.230957 
L 101.612516 276.431597 
L 103.04534 276.65987 
L 107.34381 276.146878 
L 108.776633 276.438646 
L 110.209457 272.798873 
L 113.075103 273.586441 
L 118.806397 275.956645 
L 121.672043 276.134428 
L 123.104867 276.065508 
L 124.53769 276.356533 
L 125.970513 276.774083 
L 127.403337 276.609442 
L 128.83616 276.589449 
L 130.268983 276.837346 
L 131.701807 277.299807 
L 133.13463 277.351307 
L 136.000277 277.155212 
L 137.4331 277.498168 
L 141.73157 277.764533 
L 143.164393 277.612405 
L 144.597217 277.750588 
L 147.462863 277.624526 
L 150.32851 278.223396 
L 151.761333 278.047696 
L 154.62698 278.000636 
L 156.059803 278.287392 
L 157.492627 278.200717 
L 160.358273 278.347719 
L 161.791097 278.456409 
L 163.22392 278.290157 
L 164.656743 278.244908 
L 168.955213 278.648449 
L 170.388037 278.255341 
L 173.253684 278.536623 
L 174.686507 278.55865 
L 176.11933 278.691893 
L 177.552154 278.557131 
L 180.4178 278.671999 
L 181.850624 278.580397 
L 183.283447 278.79368 
L 184.71627 278.696877 
L 187.581917 278.738815 
L 193.31321 278.78088 
L 194.746034 279.062887 
L 196.178857 278.297789 
L 197.61168 278.795403 
L 199.044504 278.956931 
L 201.91015 279.027711 
L 204.775797 278.800725 
L 206.20862 279.049738 
L 211.939914 278.855229 
L 213.372737 278.64428 
L 216.238384 278.715141 
L 217.671207 278.641184 
L 219.10403 278.431196 
L 220.536854 278.103086 
L 221.969677 278.048607 
L 223.4025 278.547486 
L 224.835324 278.65356 
L 230.566617 278.558184 
L 231.99944 278.703 
L 234.865087 278.623077 
L 236.297911 278.636417 
L 237.730734 278.490611 
L 244.894851 278.755465 
L 246.327674 278.62795 
L 250.626144 278.731568 
L 252.058967 278.924506 
L 253.491791 278.844749 
L 254.924614 278.606942 
L 256.357437 278.566649 
L 257.790261 278.767543 
L 259.223084 278.672538 
L 260.655907 278.770709 
L 262.088731 278.704909 
L 263.521554 278.76797 
L 266.387201 278.585926 
L 267.820024 278.962353 
L 276.416964 278.854918 
L 279.282611 278.646291 
L 282.148257 278.803502 
L 283.581081 278.796846 
L 285.013904 278.977969 
L 286.446727 278.947472 
L 287.879551 278.749164 
L 289.312374 278.857433 
L 290.745197 278.81298 
L 292.178021 278.941086 
L 297.909314 279.051112 
L 299.342138 278.887467 
L 302.207784 278.936616 
L 306.506254 278.862463 
L 307.939078 279.057614 
L 309.371901 279.108768 
L 310.804724 279.034314 
L 312.237548 279.089275 
L 313.670371 278.906432 
L 315.103194 279.132082 
L 319.401664 279.065188 
L 323.700134 279.195743 
L 325.132958 279.075621 
L 327.998604 279.188112 
L 329.431428 279.155401 
L 330.864251 279.302175 
L 332.297074 279.10651 
L 335.162721 279.212019 
L 336.595544 279.243195 
L 338.028368 279.148488 
L 339.461191 279.280103 
L 340.894014 279.18642 
L 342.326838 279.30832 
L 343.759661 279.21603 
L 345.192484 279.26892 
L 346.625308 279.0512 
L 352.356601 279.247444 
L 353.789424 279.154813 
L 358.087895 279.32197 
L 359.520718 279.204235 
L 362.386365 279.35191 
L 365.252011 279.285053 
L 366.684835 279.213025 
L 370.983305 279.299745 
L 376.714598 279.435667 
L 378.147421 279.265954 
L 385.311538 279.381867 
L 389.610008 279.272321 
L 399.639771 279.33339 
L 405.371065 279.293952 
L 408.236711 279.414246 
L 412.535181 279.343931 
L 413.968005 279.491947 
L 419.699298 279.441092 
L 422.564945 279.478447 
L 428.296238 279.433678 
L 429.729062 279.343856 
L 431.161885 279.461467 
L 432.594708 279.379612 
L 434.027532 279.48699 
L 435.460355 279.413788 
L 436.893178 279.484933 
L 439.758825 279.47901 
L 444.057295 279.48324 
L 446.922942 279.51124 
L 449.788588 279.527512 
L 455.519882 279.518781 
L 464.116822 279.518052 
L 466.982468 279.562352 
L 472.713762 279.414833 
L 474.146585 279.540007 
L 475.579408 279.451753 
L 478.445055 279.528708 
L 481.310702 279.265321 
L 482.743525 279.534555 
L 492.773289 279.641187 
L 494.206112 279.703518 
L 498.504582 279.605707 
L 499.937405 279.62577 
L 501.370229 279.517703 
L 505.668699 279.629679 
L 507.101522 279.671376 
L 508.534345 279.404589 
L 509.967169 279.602496 
L 514.265639 279.606979 
L 541.489282 279.697931 
L 542.922105 279.5519 
L 544.354929 279.751695 
L 545.787752 279.688376 
L 547.220576 279.271474 
L 550.086222 279.599171 
L 551.519046 279.375458 
L 552.951869 279.665426 
L 554.384692 279.713288 
L 555.817516 279.457068 
L 557.250339 279.422778 
L 558.683162 279.718797 
L 560.115986 279.676137 
L 561.548809 279.75294 
L 562.981632 279.313649 
L 564.414456 279.589049 
L 565.847279 279.673329 
L 567.280102 279.633683 
L 568.712926 279.743641 
L 570.145749 279.655993 
L 571.578572 279.689253 
L 573.011396 279.372436 
L 574.444219 279.717235 
L 575.877042 279.650347 
L 577.309866 278.948238 
L 580.175512 279.447879 
L 581.608336 279.153395 
L 583.041159 279.137439 
L 584.473982 279.520182 
L 587.339629 279.571028 
L 588.772452 279.171763 
L 590.205276 279.418253 
L 591.638099 279.181411 
L 593.070922 279.423319 
L 597.369392 279.459909 
L 598.802216 279.403706 
L 600.235039 279.039525 
L 601.667862 279.059197 
L 604.533509 279.412798 
L 607.399156 279.455903 
L 608.831979 278.764856 
L 611.697626 278.30205 
L 613.130449 278.326356 
L 614.563273 278.518283 
L 615.996096 278.591942 
L 617.428919 278.10779 
L 618.861743 278.386032 
L 620.294566 278.145596 
L 621.727389 278.695057 
L 623.160213 278.661782 
L 624.593036 278.412158 
L 626.025859 278.644481 
L 627.458683 278.665273 
L 628.891506 278.525661 
L 633.189976 278.500443 
L 636.055623 278.890635 
L 637.488446 278.598615 
L 638.921269 279.082028 
L 640.354093 278.192431 
L 641.786916 277.93048 
L 643.219739 278.199035 
L 644.652563 278.757701 
L 646.085386 278.565628 
L 647.518209 278.524681 
L 648.951033 278.737534 
L 650.383856 278.804585 
L 653.249503 278.584316 
L 654.682326 279.640262 
L 656.115149 278.672064 
L 657.547973 278.868344 
L 658.980796 278.698525 
L 660.413619 278.976598 
L 661.846443 279.072123 
L 663.279266 278.649605 
L 664.712089 279.008776 
L 666.144913 279.052257 
L 667.577736 278.443081 
L 669.01056 278.935169 
L 670.443383 278.943275 
L 671.876206 278.786673 
L 677.6075 278.972021 
L 679.040323 278.669 
L 680.473146 278.969567 
L 681.90597 278.80574 
L 683.338793 278.982817 
L 684.771616 278.618931 
L 686.20444 278.639226 
L 687.637263 278.800365 
L 694.80138 279.051046 
L 697.667026 278.948595 
L 699.09985 278.499801 
L 700.532673 278.894814 
L 701.965496 278.647188 
L 704.831143 278.847555 
L 706.263966 278.231773 
L 707.69679 278.406021 
L 709.129613 278.944858 
L 710.562436 278.576314 
L 711.99526 278.928702 
L 713.428083 278.865657 
L 714.860906 278.495927 
L 716.29373 278.372199 
L 717.726553 278.647694 
L 719.159376 278.679014 
L 720.5922 278.988807 
L 722.025023 279.050598 
L 723.457846 278.899197 
L 726.323493 278.756163 
L 727.756316 278.512437 
L 730.621963 279.104199 
L 732.054787 278.501774 
L 733.48761 278.824596 
L 734.920433 278.746462 
L 739.218903 278.864839 
L 740.651727 278.630341 
L 742.08455 278.768502 
L 743.517373 278.465952 
L 744.950197 279.033305 
L 746.38302 278.78091 
L 747.815843 279.123556 
L 749.248667 279.059597 
L 752.114313 278.629974 
L 753.547137 279.127606 
L 754.97996 279.092893 
L 756.412783 278.733583 
L 757.845607 278.979207 
L 759.27843 278.559619 
L 760.711253 278.873273 
L 762.144077 278.911462 
L 763.5769 278.729936 
L 767.87537 278.702694 
L 769.308193 278.529467 
L 770.741017 278.664467 
L 772.17384 279.011724 
L 773.606663 278.559927 
L 775.039487 278.658934 
L 776.47231 279.064002 
L 779.337957 278.599609 
L 780.77078 278.822965 
L 782.203603 278.860641 
L 783.636427 278.571125 
L 785.06925 278.838424 
L 786.502073 278.856176 
L 787.934897 278.719976 
L 789.36772 279.082462 
L 790.800543 279.116853 
L 792.233367 278.873993 
L 793.66619 278.938568 
L 795.099014 279.188595 
L 796.531837 278.632139 
L 797.96466 279.055363 
L 799.397484 278.916614 
L 800.830307 279.08164 
L 802.26313 279.05931 
L 803.695954 279.243718 
L 805.128777 278.880537 
L 806.5616 279.033175 
L 807.994424 279.05199 
L 809.427247 278.952564 
L 810.86007 279.175557 
L 812.292894 278.906022 
L 813.725717 278.406683 
L 816.591364 278.60665 
L 816.591364 278.60665 
" clip-path="url(#p37e59d9cfa)" style="fill: none; stroke: #1f77b4; stroke-width: 1.6; stroke-linecap: square"/>
   </g>
   <g id="line2d_32">
    <path d="M 84.418636 201.301349 
L 85.85146 212.515896 
L 87.284283 214.06911 
L 88.717106 209.355928 
L 90.14993 208.18715 
L 91.582753 206.517442 
L 93.015576 206.508236 
L 94.4484 205.44731 
L 95.881223 205.136888 
L 97.314046 204.479861 
L 98.74687 204.393699 
L 100.179693 205.338335 
L 101.612516 204.203522 
L 103.04534 203.425708 
L 104.478163 202.881857 
L 105.910986 203.174217 
L 107.34381 203.277961 
L 108.776633 202.9156 
L 110.209457 203.270556 
L 111.64228 203.042222 
L 113.075103 203.106211 
L 114.507927 202.962698 
L 115.94075 203.005962 
L 117.373573 205.315789 
L 118.806397 206.011525 
L 120.23922 205.576969 
L 121.672043 205.496158 
L 123.104867 205.069481 
L 124.53769 205.542806 
L 125.970513 205.504806 
L 127.403337 205.275433 
L 128.83616 205.223456 
L 130.268983 205.30548 
L 131.701807 205.029393 
L 133.13463 205.163043 
L 134.567453 204.996017 
L 136.000277 205.044577 
L 137.4331 204.855854 
L 138.865923 205.233797 
L 140.298747 204.911606 
L 141.73157 204.963961 
L 143.164393 204.822132 
L 144.597217 205.01715 
L 146.03004 204.839344 
L 153.194157 204.815652 
L 154.62698 204.514766 
L 156.059803 204.447213 
L 157.492627 202.819259 
L 158.92545 204.64655 
L 160.358273 204.55889 
L 161.791097 204.667662 
L 163.22392 204.586924 
L 164.656743 204.638557 
L 167.52239 204.601049 
L 168.955213 202.470681 
L 170.388037 204.468275 
L 171.82086 204.573134 
L 174.686507 204.330718 
L 176.11933 203.315434 
L 177.552154 204.475256 
L 183.283447 204.423685 
L 184.71627 204.312668 
L 186.149094 204.422148 
L 187.581917 204.011689 
L 189.01474 204.408674 
L 190.447564 204.395851 
L 193.31321 204.227911 
L 194.746034 204.308427 
L 196.178857 203.856448 
L 197.61168 204.121601 
L 199.044504 204.258817 
L 200.477327 204.063543 
L 201.91015 204.074787 
L 203.342974 204.228788 
L 204.775797 203.166838 
L 206.20862 204.126312 
L 207.641444 204.228869 
L 210.50709 203.813262 
L 211.939914 204.049134 
L 213.372737 202.7647 
L 214.80556 201.784748 
L 216.238384 203.725464 
L 217.671207 203.462916 
L 219.10403 203.59427 
L 220.536854 203.608325 
L 221.969677 203.497913 
L 223.4025 202.444976 
L 224.835324 203.375498 
L 226.268147 203.665902 
L 227.70097 203.466109 
L 229.133794 203.41211 
L 230.566617 202.26413 
L 231.99944 202.333802 
L 233.432264 202.52099 
L 234.865087 203.368368 
L 236.297911 202.795026 
L 237.730734 202.985843 
L 240.596381 202.012074 
L 242.029204 202.427081 
L 243.462027 203.277431 
L 244.894851 203.087337 
L 246.327674 203.197457 
L 247.760497 202.1154 
L 249.193321 202.927813 
L 250.626144 202.341624 
L 252.058967 202.134934 
L 254.924614 202.994598 
L 256.357437 202.032588 
L 257.790261 202.582831 
L 259.223084 202.40614 
L 260.655907 202.403246 
L 262.088731 203.134339 
L 263.521554 202.97964 
L 266.387201 202.343634 
L 267.820024 202.429007 
L 269.252847 202.652697 
L 270.685671 203.006382 
L 272.118494 202.475705 
L 273.551317 203.043629 
L 274.984141 203.084513 
L 276.416964 202.776061 
L 277.849787 202.101649 
L 279.282611 201.770459 
L 280.715434 202.302726 
L 285.013904 202.29181 
L 286.446727 202.125693 
L 287.879551 202.280253 
L 290.745197 202.251159 
L 297.909314 202.194904 
L 300.774961 202.544936 
L 302.207784 202.358909 
L 303.640608 201.954515 
L 305.073431 196.114019 
L 306.506254 202.462245 
L 307.939078 201.5304 
L 309.371901 202.194583 
L 310.804724 202.426347 
L 313.670371 202.396469 
L 315.103194 202.118442 
L 316.536018 202.454955 
L 320.834488 202.364914 
L 322.267311 202.254073 
L 323.700134 202.592605 
L 325.132958 202.392584 
L 326.565781 202.533871 
L 327.998604 202.513836 
L 329.431428 202.382427 
L 330.864251 202.485416 
L 332.297074 202.007823 
L 333.729898 202.477291 
L 335.162721 202.573254 
L 336.595544 202.552128 
L 338.028368 202.250343 
L 340.894014 202.655246 
L 342.326838 202.643044 
L 343.759661 202.518269 
L 346.625308 202.528458 
L 348.058131 202.510727 
L 350.923778 202.657114 
L 353.789424 202.555984 
L 355.222248 202.623803 
L 356.655071 202.410117 
L 360.953541 202.671979 
L 363.819188 202.564688 
L 365.252011 202.645345 
L 366.684835 202.329759 
L 368.117658 202.497484 
L 372.416128 202.544873 
L 373.848951 202.527709 
L 375.281775 202.669408 
L 376.714598 202.327962 
L 378.147421 202.548158 
L 379.580245 202.578995 
L 381.013068 202.360322 
L 382.445891 202.343832 
L 385.311538 202.590167 
L 386.744361 202.016087 
L 388.177185 202.650584 
L 389.610008 202.235547 
L 391.042831 202.424777 
L 392.475655 202.166331 
L 393.908478 202.555898 
L 396.774125 202.623787 
L 398.206948 202.66335 
L 399.639771 202.368022 
L 401.072595 202.599733 
L 402.505418 202.685128 
L 403.938241 202.542619 
L 405.371065 202.715736 
L 408.236711 202.410141 
L 409.669535 202.838352 
L 411.102358 202.76347 
L 412.535181 202.544961 
L 415.400828 202.386656 
L 416.833651 202.600507 
L 419.699298 202.587685 
L 421.132122 202.731391 
L 422.564945 202.456881 
L 423.997768 202.635282 
L 425.430592 202.587786 
L 428.296238 202.861092 
L 429.729062 202.710019 
L 432.594708 202.73887 
L 435.460355 202.703521 
L 436.893178 202.781494 
L 439.758825 202.529521 
L 444.057295 202.65668 
L 445.490118 202.364693 
L 448.355765 202.728571 
L 451.221412 202.571553 
L 452.654235 202.73843 
L 454.087058 202.612165 
L 458.385528 202.573569 
L 459.818352 202.511722 
L 461.251175 202.667456 
L 465.549645 202.493549 
L 468.415292 202.513598 
L 469.848115 202.497613 
L 472.713762 202.69391 
L 474.146585 202.60322 
L 475.579408 202.684857 
L 477.012232 202.595555 
L 478.445055 202.638195 
L 481.310702 202.107114 
L 482.743525 202.576622 
L 484.176349 202.753304 
L 485.609172 202.46759 
L 489.907642 202.808819 
L 494.206112 202.659652 
L 495.638935 202.730374 
L 499.937405 202.716704 
L 501.370229 202.430659 
L 502.803052 202.666687 
L 505.668699 202.781529 
L 507.101522 202.279511 
L 508.534345 201.919418 
L 509.967169 202.236444 
L 511.399992 202.686952 
L 512.832815 202.439468 
L 515.698462 202.479403 
L 517.131285 202.475031 
L 519.996932 202.795296 
L 521.429755 202.426862 
L 522.862579 202.679993 
L 524.295402 202.637516 
L 525.728225 202.773647 
L 527.161049 202.455171 
L 528.593872 202.709297 
L 530.026695 202.800471 
L 534.325165 202.724778 
L 535.757989 202.807278 
L 537.190812 202.663056 
L 544.354929 202.714488 
L 545.787752 202.813161 
L 547.220576 202.792895 
L 548.653399 202.590239 
L 550.086222 202.711188 
L 551.519046 202.389028 
L 552.951869 202.676092 
L 558.683162 202.720468 
L 560.115986 202.700823 
L 561.548809 202.295212 
L 562.981632 202.705429 
L 565.847279 202.809511 
L 567.280102 202.645469 
L 568.712926 202.790206 
L 570.145749 202.724191 
L 571.578572 202.795357 
L 573.011396 202.563389 
L 574.444219 202.622918 
L 575.877042 202.565725 
L 577.309866 199.54438 
L 578.742689 203.059982 
L 580.175512 202.75846 
L 583.041159 202.731171 
L 585.906806 202.681946 
L 590.205276 202.839861 
L 591.638099 202.707341 
L 594.503746 202.898208 
L 598.802216 202.248966 
L 600.235039 202.61627 
L 601.667862 202.752085 
L 603.100686 202.494749 
L 604.533509 202.695128 
L 605.966333 202.344802 
L 607.399156 200.967171 
L 608.831979 201.076105 
L 611.697626 200.85553 
L 613.130449 201.022332 
L 615.996096 200.768032 
L 617.428919 200.925027 
L 620.294566 200.543928 
L 621.727389 200.768488 
L 626.025859 200.80767 
L 627.458683 200.574941 
L 628.891506 200.962801 
L 633.189976 200.89659 
L 634.622799 200.599321 
L 636.055623 200.881745 
L 637.488446 200.697488 
L 638.921269 200.791483 
L 640.354093 200.369557 
L 641.786916 200.84002 
L 643.219739 200.929579 
L 644.652563 200.603541 
L 646.085386 200.852161 
L 647.518209 200.751041 
L 648.951033 200.989091 
L 650.383856 200.824805 
L 651.816679 200.257302 
L 653.249503 200.595697 
L 654.682326 201.211796 
L 656.115149 200.770014 
L 657.547973 201.01568 
L 658.980796 200.890063 
L 660.413619 201.040353 
L 661.846443 200.533 
L 663.279266 201.044044 
L 666.144913 200.90512 
L 667.577736 201.045083 
L 669.01056 200.728083 
L 670.443383 200.84815 
L 671.876206 200.553931 
L 673.30903 200.91558 
L 674.741853 201.03502 
L 676.174676 200.746658 
L 677.6075 200.796549 
L 679.040323 201.015964 
L 686.20444 201.001526 
L 687.637263 200.717977 
L 689.070086 201.178071 
L 691.935733 200.924461 
L 693.368556 201.184001 
L 696.234203 201.17893 
L 697.667026 200.900507 
L 699.09985 201.025463 
L 700.532673 200.939539 
L 701.965496 201.108663 
L 703.39832 200.922858 
L 707.69679 200.980879 
L 709.129613 200.631901 
L 711.99526 201.07217 
L 716.29373 200.937182 
L 719.159376 200.960383 
L 720.5922 200.977051 
L 722.025023 200.729801 
L 723.457846 200.89938 
L 724.89067 200.820915 
L 727.756316 200.884312 
L 730.621963 200.867371 
L 732.054787 200.953137 
L 733.48761 200.739742 
L 734.920433 200.967026 
L 736.353257 200.78524 
L 737.78608 200.864851 
L 739.218903 200.527548 
L 740.651727 200.781575 
L 742.08455 200.775716 
L 743.517373 201.034201 
L 744.950197 201.127248 
L 746.38302 200.913099 
L 747.815843 201.075439 
L 749.248667 200.858232 
L 753.547137 201.157626 
L 754.97996 200.772129 
L 756.412783 201.014471 
L 760.711253 201.001534 
L 767.87537 200.662455 
L 769.308193 200.936305 
L 770.741017 200.766625 
L 772.17384 200.72235 
L 773.606663 200.84643 
L 775.039487 200.697856 
L 777.905133 200.888314 
L 779.337957 200.749372 
L 780.77078 200.90322 
L 782.203603 200.779162 
L 785.06925 201.013649 
L 786.502073 200.874073 
L 787.934897 201.21434 
L 792.233367 201.151863 
L 793.66619 201.304125 
L 795.099014 201.179309 
L 796.531837 201.280271 
L 797.96466 201.143902 
L 799.397484 201.280725 
L 803.695954 201.097311 
L 805.128777 201.243445 
L 809.427247 201.163806 
L 810.86007 201.095441 
L 812.292894 200.862134 
L 813.725717 200.424192 
L 815.15854 201.035735 
L 816.591364 200.940575 
L 816.591364 200.940575 
" clip-path="url(#p37e59d9cfa)" style="fill: none; stroke: #ff7f0e; stroke-width: 1.6; stroke-linecap: square"/>
   </g>
   <g id="patch_3">
    <path d="M 47.81 312.74 
L 47.81 36.36 
" style="fill: none; stroke: #000000; stroke-width: 0.8; stroke-linejoin: miter; stroke-linecap: square"/>
   </g>
   <g id="patch_4">
    <path d="M 853.2 312.74 
L 853.2 36.36 
" style="fill: none; stroke: #000000; stroke-width: 0.8; stroke-linejoin: miter; stroke-linecap: square"/>
   </g>
   <g id="patch_5">
    <path d="M 47.81 312.74 
L 853.2 312.74 
" style="fill: none; stroke: #000000; stroke-width: 0.8; stroke-linejoin: miter; stroke-linecap: square"/>
   </g>
   <g id="patch_6">
    <path d="M 47.81 36.36 
L 853.2 36.36 
" style="fill: none; stroke: #000000; stroke-width: 0.8; stroke-linejoin: miter; stroke-linecap: square"/>
   </g>
   <g id="legend_1">
    <g id="patch_7">
     <path d="M 728.73125 73.71625 
L 846.2 73.71625 
Q 848.2 73.71625 848.2 71.71625 
L 848.2 43.36 
Q 848.2 41.36 846.2 41.36 
L 728.73125 41.36 
Q 726.73125 41.36 726.73125 43.36 
L 726.73125 71.71625 
Q 726.73125 73.71625 728.73125 73.71625 
z
" style="fill: #ffffff; opacity: 0.8; stroke: #cccccc; stroke-linejoin: miter"/>
    </g>
    <g id="line2d_33">
     <path d="M 730.73125 49.458437 
L 740.73125 49.458437 
L 750.73125 49.458437 
" style="fill: none; stroke: #1f77b4; stroke-width: 1.6; stroke-linecap: square"/>
    </g>
    <g id="text_8">
     <!-- pos SIMD canon -->
     <g transform="translate(758.73125 52.958437) scale(0.1 -0.1)">
      <defs>
       <path id="DejaVuSans-70" d="M 1159 525 
L 1159 -1331 
L 581 -1331 
L 581 3500 
L 1159 3500 
L 1159 2969 
Q 1341 3281 1617 3432 
Q 1894 3584 2278 3584 
Q 2916 3584 3314 3078 
Q 3713 2572 3713 1747 
Q 3713 922 3314 415 
Q 2916 -91 2278 -91 
Q 1894 -91 1617 61 
Q 1341 213 1159 525 
z
M 3116 1747 
Q 3116 2381 2855 2742 
Q 2594 3103 2138 3103 
Q 1681 3103 1420 2742 
Q 1159 2381 1159 1747 
Q 1159 1113 1420 752 
Q 1681 391 2138 391 
Q 2594 391 2855 752 
Q 3116 1113 3116 1747 
z
" transform="scale(0.015625)"/>
       <path id="DejaVuSans-6f" d="M 1959 3097 
Q 1497 3097 1228 2736 
Q 959 2375 959 1747 
Q 959 1119 1226 758 
Q 1494 397 1959 397 
Q 2419 397 2687 759 
Q 2956 1122 2956 1747 
Q 2956 2369 2687 2733 
Q 2419 3097 1959 3097 
z
M 1959 3584 
Q 2709 3584 3137 3096 
Q 3566 2609 3566 1747 
Q 3566 888 3137 398 
Q 2709 -91 1959 -91 
Q 1206 -91 779 398 
Q 353 888 353 1747 
Q 353 2609 779 3096 
Q 1206 3584 1959 3584 
z
" transform="scale(0.015625)"/>
       <path id="DejaVuSans-53" d="M 3425 4513 
L 3425 3897 
Q 3066 4069 2747 4153 
Q 2428 4238 2131 4238 
Q 1616 4238 1336 4038 
Q 1056 3838 1056 3469 
Q 1056 3159 1242 3001 
Q 1428 2844 1947 2747 
L 2328 2669 
Q 3034 2534 3370 2195 
Q 3706 1856 3706 1288 
Q 3706 609 3251 259 
Q 2797 -91 1919 -91 
Q 1588 -91 1214 -16 
Q 841 59 441 206 
L 441 856 
Q 825 641 1194 531 
Q 1563 422 1919 422 
Q 2459 422 2753 634 
Q 3047 847 3047 1241 
Q 3047 1584 2836 1778 
Q 2625 1972 2144 2069 
L 1759 2144 
Q 1053 2284 737 2584 
Q 422 2884 422 3419 
Q 422 4038 858 4394 
Q 1294 4750 2059 4750 
Q 2388 4750 2728 4690 
Q 3069 4631 3425 4513 
z
" transform="scale(0.015625)"/>
       <path id="DejaVuSans-49" d="M 628 4666 
L 1259 4666 
L 1259 0 
L 628 0 
L 628 4666 
z
" transform="scale(0.015625)"/>
       <path id="DejaVuSans-4d" d="M 628 4666 
L 1569 4666 
L 2759 1491 
L 3956 4666 
L 4897 4666 
L 4897 0 
L 4281 0 
L 4281 4097 
L 3078 897 
L 2444 897 
L 1241 4097 
L 1241 0 
L 628 0 
L 628 4666 
z
" transform="scale(0.015625)"/>
       <path id="DejaVuSans-44" d="M 1259 4147 
L 1259 519 
L 2022 519 
Q 2988 519 3436 956 
Q 3884 1394 3884 2338 
Q 3884 3275 3436 3711 
Q 2988 4147 2022 4147 
L 1259 4147 
z
M 628 4666 
L 1925 4666 
Q 3281 4666 3915 4102 
Q 4550 3538 4550 2338 
Q 4550 1131 3912 565 
Q 3275 0 1925 0 
L 628 0 
L 628 4666 
z
" transform="scale(0.015625)"/>
       <path id="DejaVuSans-63" d="M 3122 3366 
L 3122 2828 
Q 2878 2963 2633 3030 
Q 2388 3097 2138 3097 
Q 1578 3097 1268 2742 
Q 959 2388 959 1747 
Q 959 1106 1268 751 
Q 1578 397 2138 397 
Q 2388 397 2633 464 
Q 2878 531 3122 666 
L 3122 134 
Q 2881 22 2623 -34 
Q 2366 -91 2075 -91 
Q 1284 -91 818 406 
Q 353 903 353 1747 
Q 353 2603 823 3093 
Q 1294 3584 2113 3584 
Q 2378 3584 2631 3529 
Q 2884 3475 3122 3366 
z
" transform="scale(0.015625)"/>
       <path id="DejaVuSans-61" d="M 2194 1759 
Q 1497 1759 1228 1600 
Q 959 1441 959 1056 
Q 959 750 1161 570 
Q 1363 391 1709 391 
Q 2188 391 2477 730 
Q 2766 1069 2766 1631 
L 2766 1759 
L 2194 1759 
z
M 3341 1997 
L 3341 0 
L 2766 0 
L 2766 531 
Q 2569 213 2275 61 
Q 1981 -91 1556 -91 
Q 1019 -91 701 211 
Q 384 513 384 1019 
Q 384 1609 779 1909 
Q 1175 2209 1959 2209 
L 2766 2209 
L 2766 2266 
Q 2766 2663 2505 2880 
Q 2244 3097 1772 3097 
Q 1472 3097 1187 3025 
Q 903 2953 641 2809 
L 641 3341 
Q 956 3463 1253 3523 
Q 1550 3584 1831 3584 
Q 2591 3584 2966 3190 
Q 3341 2797 3341 1997 
z
" transform="scale(0.015625)"/>
      </defs>
      <use xlink:href="#DejaVuSans-70"/>
      <use xlink:href="#DejaVuSans-6f" transform="translate(63.476562 0)"/>
      <use xlink:href="#DejaVuSans-73" transform="translate(124.658203 0)"/>
      <use xlink:href="#DejaVuSans-20" transform="translate(176.757812 0)"/>
      <use xlink:href="#DejaVuSans-53" transform="translate(208.544922 0)"/>
      <use xlink:href="#DejaVuSans-49" transform="translate(272.021484 0)"/>
      <use xlink:href="#DejaVuSans-4d" transform="translate(301.513672 0)"/>
      <use xlink:href="#DejaVuSans-44" transform="translate(387.792969 0)"/>
      <use xlink:href="#DejaVuSans-20" transform="translate(464.794922 0)"/>
      <use xlink:href="#DejaVuSans-63" transform="translate(496.582031 0)"/>
      <use xlink:href="#DejaVuSans-61" transform="translate(551.5625 0)"/>
      <use xlink:href="#DejaVuSans-6e" transform="translate(612.841797 0)"/>
      <use xlink:href="#DejaVuSans-6f" transform="translate(676.220703 0)"/>
      <use xlink:href="#DejaVuSans-6e" transform="translate(737.402344 0)"/>
     </g>
    </g>
    <g id="line2d_34">
     <path d="M 730.73125 64.136562 
L 740.73125 64.136562 
L 750.73125 64.136562 
" style="fill: none; stroke: #ff7f0e; stroke-width: 1.6; stroke-linecap: square"/>
    </g>
    <g id="text_9">
     <!-- neg scalar canon -->
     <g transform="translate(758.73125 67.636562) scale(0.1 -0.1)">
      <defs>
       <path id="DejaVuSans-65" d="M 3597 1894 
L 3597 1613 
L 953 1613 
Q 991 1019 1311 708 
Q 1631 397 2203 397 
Q 2534 397 2845 478 
Q 3156 559 3463 722 
L 3463 178 
Q 3153 47 2828 -22 
Q 2503 -91 2169 -91 
Q 1331 -91 842 396 
Q 353 884 353 1716 
Q 353 2575 817 3079 
Q 1281 3584 2069 3584 
Q 2775 3584 3186 3129 
Q 3597 2675 3597 1894 
z
M 3022 2063 
Q 3016 2534 2758 2815 
Q 2500 3097 2075 3097 
Q 1594 3097 1305 2825 
Q 1016 2553 972 2059 
L 3022 2063 
z
" transform="scale(0.015625)"/>
       <path id="DejaVuSans-67" d="M 2906 1791 
Q 2906 2416 2648 2759 
Q 2391 3103 1925 3103 
Q 1463 3103 1205 2759 
Q 947 2416 947 1791 
Q 947 1169 1205 825 
Q 1463 481 1925 481 
Q 2391 481 2648 825 
Q 2906 1169 2906 1791 
z
M 3481 434 
Q 3481 -459 3084 -895 
Q 2688 -1331 1869 -1331 
Q 1566 -1331 1297 -1286 
Q 1028 -1241 775 -1147 
L 775 -588 
Q 1028 -725 1275 -790 
Q 1522 -856 1778 -856 
Q 2344 -856 2625 -561 
Q 2906 -266 2906 331 
L 2906 616 
Q 2728 306 2450 153 
Q 2172 0 1784 0 
Q 1141 0 747 490 
Q 353 981 353 1791 
Q 353 2603 747 3093 
Q 1141 3584 1784 3584 
Q 2172 3584 2450 3431 
Q 2728 3278 2906 2969 
L 2906 3500 
L 3481 3500 
L 3481 434 
z
" transform="scale(0.015625)"/>
       <path id="DejaVuSans-72" d="M 2631 2963 
Q 2534 3019 2420 3045 
Q 2306 3072 2169 3072 
Q 1681 3072 1420 2755 
Q 1159 2438 1159 1844 
L 1159 0 
L 581 0 
L 581 3500 
L 1159 3500 
L 1159 2956 
Q 1341 3275 1631 3429 
Q 1922 3584 2338 3584 
Q 2397 3584 2469 3576 
Q 2541 3569 2628 3553 
L 2631 2963 
z
" transform="scale(0.015625)"/>
      </defs>
      <use xlink:href="#DejaVuSans-6e"/>
      <use xlink:href="#DejaVuSans-65" transform="translate(63.378906 0)"/>
      <use xlink:href="#DejaVuSans-67" transform="translate(124.902344 0)"/>
      <use xlink:href="#DejaVuSans-20" transform="translate(188.378906 0)"/>
      <use xlink:href="#DejaVuSans-73" transform="translate(220.166016 0)"/>
      <use xlink:href="#DejaVuSans-63" transform="translate(272.265625 0)"/>
      <use xlink:href="#DejaVuSans-61" transform="translate(327.246094 0)"/>
      <use xlink:href="#DejaVuSans-6c" transform="translate(388.525391 0)"/>
      <use xlink:href="#DejaVuSans-61" transform="translate(416.308594 0)"/>
      <use xlink:href="#DejaVuSans-72" transform="translate(477.587891 0)"/>
      <use xlink:href="#DejaVuSans-20" transform="translate(518.701172 0)"/>
      <use xlink:href="#DejaVuSans-63" transform="translate(550.488281 0)"/>
      <use xlink:href="#DejaVuSans-61" transform="translate(605.46875 0)"/>
      <use xlink:href="#DejaVuSans-6e" transform="translate(666.748047 0)"/>
      <use xlink:href="#DejaVuSans-6f" transform="translate(730.126953 0)"/>
      <use xlink:href="#DejaVuSans-6e" transform="translate(791.308594 0)"/>
     </g>
    </g>
   </g>
  </g>
  <g id="axes_2">
   <g id="patch_8">
    <path d="M 47.81 606.04 
L 853.2 606.04 
L 853.2 329.66 
L 47.81 329.66 
z
" style="fill: #ffffff"/>
   </g>
   <g id="matplotlib.axis_3">
    <g id="xtick_10">
     <g id="line2d_35">
      <path d="M 82.985813 606.04 
L 82.985813 329.66 
" clip-path="url(#p2198c82a21)" style="fill: none; stroke: #b0b0b0; stroke-opacity: 0.25; stroke-width: 0.8; stroke-linecap: square"/>
     </g>
     <g id="line2d_36">
      <g>
       <use xlink:href="#m4fda98c00a" x="82.985813" y="606.04" style="stroke: #000000; stroke-width: 0.8"/>
      </g>
     </g>
     <g id="text_10">
      <!-- 0 -->
      <g transform="translate(79.804563 620.638437) scale(0.1 -0.1)">
       <use xlink:href="#DejaVuSans-30"/>
      </g>
     </g>
    </g>
    <g id="xtick_11">
     <g id="line2d_37">
      <path d="M 172.537272 606.04 
L 172.537272 329.66 
" clip-path="url(#p2198c82a21)" style="fill: none; stroke: #b0b0b0; stroke-opacity: 0.25; stroke-width: 0.8; stroke-linecap: square"/>
     </g>
     <g id="line2d_38">
      <g>
       <use xlink:href="#m4fda98c00a" x="172.537272" y="606.04" style="stroke: #000000; stroke-width: 0.8"/>
      </g>
     </g>
     <g id="text_11">
      <!-- 500 -->
      <g transform="translate(162.993522 620.638437) scale(0.1 -0.1)">
       <defs>
        <path id="DejaVuSans-35" d="M 691 4666 
L 3169 4666 
L 3169 4134 
L 1269 4134 
L 1269 2991 
Q 1406 3038 1543 3061 
Q 1681 3084 1819 3084 
Q 2600 3084 3056 2656 
Q 3513 2228 3513 1497 
Q 3513 744 3044 326 
Q 2575 -91 1722 -91 
Q 1428 -91 1123 -41 
Q 819 9 494 109 
L 494 744 
Q 775 591 1075 516 
Q 1375 441 1709 441 
Q 2250 441 2565 725 
Q 2881 1009 2881 1497 
Q 2881 1984 2565 2268 
Q 2250 2553 1709 2553 
Q 1456 2553 1204 2497 
Q 953 2441 691 2322 
L 691 4666 
z
" transform="scale(0.015625)"/>
       </defs>
       <use xlink:href="#DejaVuSans-35"/>
       <use xlink:href="#DejaVuSans-30" transform="translate(63.623047 0)"/>
       <use xlink:href="#DejaVuSans-30" transform="translate(127.246094 0)"/>
      </g>
     </g>
    </g>
    <g id="xtick_12">
     <g id="line2d_39">
      <path d="M 262.088731 606.04 
L 262.088731 329.66 
" clip-path="url(#p2198c82a21)" style="fill: none; stroke: #b0b0b0; stroke-opacity: 0.25; stroke-width: 0.8; stroke-linecap: square"/>
     </g>
     <g id="line2d_40">
      <g>
       <use xlink:href="#m4fda98c00a" x="262.088731" y="606.04" style="stroke: #000000; stroke-width: 0.8"/>
      </g>
     </g>
     <g id="text_12">
      <!-- 1000 -->
      <g transform="translate(249.363731 620.638437) scale(0.1 -0.1)">
       <use xlink:href="#DejaVuSans-31"/>
       <use xlink:href="#DejaVuSans-30" transform="translate(63.623047 0)"/>
       <use xlink:href="#DejaVuSans-30" transform="translate(127.246094 0)"/>
       <use xlink:href="#DejaVuSans-30" transform="translate(190.869141 0)"/>
      </g>
     </g>
    </g>
    <g id="xtick_13">
     <g id="line2d_41">
      <path d="M 351.640189 606.04 
L 351.640189 329.66 
" clip-path="url(#p2198c82a21)" style="fill: none; stroke: #b0b0b0; stroke-opacity: 0.25; stroke-width: 0.8; stroke-linecap: square"/>
     </g>
     <g id="line2d_42">
      <g>
       <use xlink:href="#m4fda98c00a" x="351.640189" y="606.04" style="stroke: #000000; stroke-width: 0.8"/>
      </g>
     </g>
     <g id="text_13">
      <!-- 1500 -->
      <g transform="translate(338.915189 620.638437) scale(0.1 -0.1)">
       <use xlink:href="#DejaVuSans-31"/>
       <use xlink:href="#DejaVuSans-35" transform="translate(63.623047 0)"/>
       <use xlink:href="#DejaVuSans-30" transform="translate(127.246094 0)"/>
       <use xlink:href="#DejaVuSans-30" transform="translate(190.869141 0)"/>
      </g>
     </g>
    </g>
    <g id="xtick_14">
     <g id="line2d_43">
      <path d="M 441.191648 606.04 
L 441.191648 329.66 
" clip-path="url(#p2198c82a21)" style="fill: none; stroke: #b0b0b0; stroke-opacity: 0.25; stroke-width: 0.8; stroke-linecap: square"/>
     </g>
     <g id="line2d_44">
      <g>
       <use xlink:href="#m4fda98c00a" x="441.191648" y="606.04" style="stroke: #000000; stroke-width: 0.8"/>
      </g>
     </g>
     <g id="text_14">
      <!-- 2000 -->
      <g transform="translate(428.466648 620.638437) scale(0.1 -0.1)">
       <use xlink:href="#DejaVuSans-32"/>
       <use xlink:href="#DejaVuSans-30" transform="translate(63.623047 0)"/>
       <use xlink:href="#DejaVuSans-30" transform="translate(127.246094 0)"/>
       <use xlink:href="#DejaVuSans-30" transform="translate(190.869141 0)"/>
      </g>
     </g>
    </g>
    <g id="xtick_15">
     <g id="line2d_45">
      <path d="M 530.743107 606.04 
L 530.743107 329.66 
" clip-path="url(#p2198c82a21)" style="fill: none; stroke: #b0b0b0; stroke-opacity: 0.25; stroke-width: 0.8; stroke-linecap: square"/>
     </g>
     <g id="line2d_46">
      <g>
       <use xlink:href="#m4fda98c00a" x="530.743107" y="606.04" style="stroke: #000000; stroke-width: 0.8"/>
      </g>
     </g>
     <g id="text_15">
      <!-- 2500 -->
      <g transform="translate(518.018107 620.638437) scale(0.1 -0.1)">
       <use xlink:href="#DejaVuSans-32"/>
       <use xlink:href="#DejaVuSans-35" transform="translate(63.623047 0)"/>
       <use xlink:href="#DejaVuSans-30" transform="translate(127.246094 0)"/>
       <use xlink:href="#DejaVuSans-30" transform="translate(190.869141 0)"/>
      </g>
     </g>
    </g>
    <g id="xtick_16">
     <g id="line2d_47">
      <path d="M 620.294566 606.04 
L 620.294566 329.66 
" clip-path="url(#p2198c82a21)" style="fill: none; stroke: #b0b0b0; stroke-opacity: 0.25; stroke-width: 0.8; stroke-linecap: square"/>
     </g>
     <g id="line2d_48">
      <g>
       <use xlink:href="#m4fda98c00a" x="620.294566" y="606.04" style="stroke: #000000; stroke-width: 0.8"/>
      </g>
     </g>
     <g id="text_16">
      <!-- 3000 -->
      <g transform="translate(607.569566 620.638437) scale(0.1 -0.1)">
       <defs>
        <path id="DejaVuSans-33" d="M 2597 2516 
Q 3050 2419 3304 2112 
Q 3559 1806 3559 1356 
Q 3559 666 3084 287 
Q 2609 -91 1734 -91 
Q 1441 -91 1130 -33 
Q 819 25 488 141 
L 488 750 
Q 750 597 1062 519 
Q 1375 441 1716 441 
Q 2309 441 2620 675 
Q 2931 909 2931 1356 
Q 2931 1769 2642 2001 
Q 2353 2234 1838 2234 
L 1294 2234 
L 1294 2753 
L 1863 2753 
Q 2328 2753 2575 2939 
Q 2822 3125 2822 3475 
Q 2822 3834 2567 4026 
Q 2313 4219 1838 4219 
Q 1578 4219 1281 4162 
Q 984 4106 628 3988 
L 628 4550 
Q 988 4650 1302 4700 
Q 1616 4750 1894 4750 
Q 2613 4750 3031 4423 
Q 3450 4097 3450 3541 
Q 3450 3153 3228 2886 
Q 3006 2619 2597 2516 
z
" transform="scale(0.015625)"/>
       </defs>
       <use xlink:href="#DejaVuSans-33"/>
       <use xlink:href="#DejaVuSans-30" transform="translate(63.623047 0)"/>
       <use xlink:href="#DejaVuSans-30" transform="translate(127.246094 0)"/>
       <use xlink:href="#DejaVuSans-30" transform="translate(190.869141 0)"/>
      </g>
     </g>
    </g>
    <g id="xtick_17">
     <g id="line2d_49">
      <path d="M 709.846025 606.04 
L 709.846025 329.66 
" clip-path="url(#p2198c82a21)" style="fill: none; stroke: #b0b0b0; stroke-opacity: 0.25; stroke-width: 0.8; stroke-linecap: square"/>
     </g>
     <g id="line2d_50">
      <g>
       <use xlink:href="#m4fda98c00a" x="709.846025" y="606.04" style="stroke: #000000; stroke-width: 0.8"/>
      </g>
     </g>
     <g id="text_17">
      <!-- 3500 -->
      <g transform="translate(697.121025 620.638437) scale(0.1 -0.1)">
       <use xlink:href="#DejaVuSans-33"/>
       <use xlink:href="#DejaVuSans-35" transform="translate(63.623047 0)"/>
       <use xlink:href="#DejaVuSans-30" transform="translate(127.246094 0)"/>
       <use xlink:href="#DejaVuSans-30" transform="translate(190.869141 0)"/>
      </g>
     </g>
    </g>
    <g id="xtick_18">
     <g id="line2d_51">
      <path d="M 799.397484 606.04 
L 799.397484 329.66 
" clip-path="url(#p2198c82a21)" style="fill: none; stroke: #b0b0b0; stroke-opacity: 0.25; stroke-width: 0.8; stroke-linecap: square"/>
     </g>
     <g id="line2d_52">
      <g>
       <use xlink:href="#m4fda98c00a" x="799.397484" y="606.04" style="stroke: #000000; stroke-width: 0.8"/>
      </g>
     </g>
     <g id="text_18">
      <!-- 4000 -->
      <g transform="translate(786.672484 620.638437) scale(0.1 -0.1)">
       <use xlink:href="#DejaVuSans-34"/>
       <use xlink:href="#DejaVuSans-30" transform="translate(63.623047 0)"/>
       <use xlink:href="#DejaVuSans-30" transform="translate(127.246094 0)"/>
       <use xlink:href="#DejaVuSans-30" transform="translate(190.869141 0)"/>
      </g>
     </g>
    </g>
    <g id="text_19">
     <!-- u52 limbs -->
     <g transform="translate(425.957344 634.316562) scale(0.1 -0.1)">
      <defs>
       <path id="DejaVuSans-75" d="M 544 1381 
L 544 3500 
L 1119 3500 
L 1119 1403 
Q 1119 906 1312 657 
Q 1506 409 1894 409 
Q 2359 409 2629 706 
Q 2900 1003 2900 1516 
L 2900 3500 
L 3475 3500 
L 3475 0 
L 2900 0 
L 2900 538 
Q 2691 219 2414 64 
Q 2138 -91 1772 -91 
Q 1169 -91 856 284 
Q 544 659 544 1381 
z
M 1991 3584 
L 1991 3584 
z
" transform="scale(0.015625)"/>
      </defs>
      <use xlink:href="#DejaVuSans-75"/>
      <use xlink:href="#DejaVuSans-35" transform="translate(63.378906 0)"/>
      <use xlink:href="#DejaVuSans-32" transform="translate(127.001953 0)"/>
      <use xlink:href="#DejaVuSans-20" transform="translate(190.625 0)"/>
      <use xlink:href="#DejaVuSans-6c" transform="translate(222.412109 0)"/>
      <use xlink:href="#DejaVuSans-69" transform="translate(250.195312 0)"/>
      <use xlink:href="#DejaVuSans-6d" transform="translate(277.978516 0)"/>
      <use xlink:href="#DejaVuSans-62" transform="translate(375.390625 0)"/>
      <use xlink:href="#DejaVuSans-73" transform="translate(438.867188 0)"/>
     </g>
    </g>
   </g>
   <g id="matplotlib.axis_4">
    <g id="ytick_7">
     <g id="line2d_53">
      <path d="M 47.81 554.956995 
L 853.2 554.956995 
" clip-path="url(#p2198c82a21)" style="fill: none; stroke: #b0b0b0; stroke-opacity: 0.25; stroke-width: 0.8; stroke-linecap: square"/>
     </g>
     <g id="line2d_54">
      <g>
       <use xlink:href="#m8a52df90a3" x="47.81" y="554.956995" style="stroke: #000000; stroke-width: 0.8"/>
      </g>
     </g>
     <g id="text_20">
      <!-- 1.5 -->
      <g transform="translate(24.906875 558.756214) scale(0.1 -0.1)">
       <use xlink:href="#DejaVuSans-31"/>
       <use xlink:href="#DejaVuSans-2e" transform="translate(63.623047 0)"/>
       <use xlink:href="#DejaVuSans-35" transform="translate(95.410156 0)"/>
      </g>
     </g>
    </g>
    <g id="ytick_8">
     <g id="line2d_55">
      <path d="M 47.81 500.390131 
L 853.2 500.390131 
" clip-path="url(#p2198c82a21)" style="fill: none; stroke: #b0b0b0; stroke-opacity: 0.25; stroke-width: 0.8; stroke-linecap: square"/>
     </g>
     <g id="line2d_56">
      <g>
       <use xlink:href="#m8a52df90a3" x="47.81" y="500.390131" style="stroke: #000000; stroke-width: 0.8"/>
      </g>
     </g>
     <g id="text_21">
      <!-- 2.0 -->
      <g transform="translate(24.906875 504.18935) scale(0.1 -0.1)">
       <use xlink:href="#DejaVuSans-32"/>
       <use xlink:href="#DejaVuSans-2e" transform="translate(63.623047 0)"/>
       <use xlink:href="#DejaVuSans-30" transform="translate(95.410156 0)"/>
      </g>
     </g>
    </g>
    <g id="ytick_9">
     <g id="line2d_57">
      <path d="M 47.81 445.823267 
L 853.2 445.823267 
" clip-path="url(#p2198c82a21)" style="fill: none; stroke: #b0b0b0; stroke-opacity: 0.25; stroke-width: 0.8; stroke-linecap: square"/>
     </g>
     <g id="line2d_58">
      <g>
       <use xlink:href="#m8a52df90a3" x="47.81" y="445.823267" style="stroke: #000000; stroke-width: 0.8"/>
      </g>
     </g>
     <g id="text_22">
      <!-- 2.5 -->
      <g transform="translate(24.906875 449.622485) scale(0.1 -0.1)">
       <use xlink:href="#DejaVuSans-32"/>
       <use xlink:href="#DejaVuSans-2e" transform="translate(63.623047 0)"/>
       <use xlink:href="#DejaVuSans-35" transform="translate(95.410156 0)"/>
      </g>
     </g>
    </g>
    <g id="ytick_10">
     <g id="line2d_59">
      <path d="M 47.81 391.256402 
L 853.2 391.256402 
" clip-path="url(#p2198c82a21)" style="fill: none; stroke: #b0b0b0; stroke-opacity: 0.25; stroke-width: 0.8; stroke-linecap: square"/>
     </g>
     <g id="line2d_60">
      <g>
       <use xlink:href="#m8a52df90a3" x="47.81" y="391.256402" style="stroke: #000000; stroke-width: 0.8"/>
      </g>
     </g>
     <g id="text_23">
      <!-- 3.0 -->
      <g transform="translate(24.906875 395.055621) scale(0.1 -0.1)">
       <use xlink:href="#DejaVuSans-33"/>
       <use xlink:href="#DejaVuSans-2e" transform="translate(63.623047 0)"/>
       <use xlink:href="#DejaVuSans-30" transform="translate(95.410156 0)"/>
      </g>
     </g>
    </g>
    <g id="ytick_11">
     <g id="line2d_61">
      <path d="M 47.81 336.689538 
L 853.2 336.689538 
" clip-path="url(#p2198c82a21)" style="fill: none; stroke: #b0b0b0; stroke-opacity: 0.25; stroke-width: 0.8; stroke-linecap: square"/>
     </g>
     <g id="line2d_62">
      <g>
       <use xlink:href="#m8a52df90a3" x="47.81" y="336.689538" style="stroke: #000000; stroke-width: 0.8"/>
      </g>
     </g>
     <g id="text_24">
      <!-- 3.5 -->
      <g transform="translate(24.906875 340.488757) scale(0.1 -0.1)">
       <use xlink:href="#DejaVuSans-33"/>
       <use xlink:href="#DejaVuSans-2e" transform="translate(63.623047 0)"/>
       <use xlink:href="#DejaVuSans-35" transform="translate(95.410156 0)"/>
      </g>
     </g>
    </g>
    <g id="text_25">
     <!-- ratio -->
     <g transform="translate(18.827188 479.378125) rotate(-90) scale(0.1 -0.1)">
      <defs>
       <path id="DejaVuSans-74" d="M 1172 4494 
L 1172 3500 
L 2356 3500 
L 2356 3053 
L 1172 3053 
L 1172 1153 
Q 1172 725 1289 603 
Q 1406 481 1766 481 
L 2356 481 
L 2356 0 
L 1766 0 
Q 1100 0 847 248 
Q 594 497 594 1153 
L 594 3053 
L 172 3053 
L 172 3500 
L 594 3500 
L 594 4494 
L 1172 4494 
z
" transform="scale(0.015625)"/>
      </defs>
      <use xlink:href="#DejaVuSans-72"/>
      <use xlink:href="#DejaVuSans-61" transform="translate(41.113281 0)"/>
      <use xlink:href="#DejaVuSans-74" transform="translate(102.392578 0)"/>
      <use xlink:href="#DejaVuSans-69" transform="translate(141.601562 0)"/>
      <use xlink:href="#DejaVuSans-6f" transform="translate(169.384766 0)"/>
     </g>
    </g>
   </g>
   <g id="line2d_63">
    <path d="M 47.81 500.390131 
L 853.2 500.390131 
" clip-path="url(#p2198c82a21)" style="fill: none; stroke: #000000; stroke-opacity: 0.5; stroke-width: 0.9; stroke-linecap: square"/>
   </g>
   <g id="line2d_64">
    <path d="M 84.418636 593.477273 
L 87.284283 512.462286 
L 88.717106 475.842136 
L 90.14993 463.167563 
L 91.582753 443.44055 
L 93.015576 431.643194 
L 94.4484 429.373212 
L 95.881223 415.806908 
L 97.314046 403.758981 
L 98.74687 403.420666 
L 100.179693 401.327699 
L 101.612516 392.424788 
L 103.04534 388.008146 
L 104.478163 387.849684 
L 105.910986 390.924963 
L 107.34381 392.20281 
L 108.776633 388.489535 
L 110.209457 419.547139 
L 111.64228 416.065118 
L 113.075103 413.072453 
L 115.94075 402.926618 
L 117.373573 406.165052 
L 118.806397 402.001382 
L 120.23922 399.986992 
L 121.672043 398.926976 
L 123.104867 398.258204 
L 124.53769 397.115137 
L 125.970513 393.266864 
L 127.403337 394.056774 
L 128.83616 394.079365 
L 130.268983 392.087565 
L 131.701807 386.975959 
L 133.13463 386.905459 
L 134.567453 387.355636 
L 136.000277 388.370361 
L 137.4331 384.571634 
L 138.865923 385.068847 
L 140.298747 382.511517 
L 141.73157 382.364732 
L 143.164393 383.380439 
L 144.597217 382.664631 
L 146.03004 382.506933 
L 147.462863 383.265958 
L 148.895687 379.977977 
L 150.32851 377.008558 
L 151.761333 379.091047 
L 153.194157 379.457409 
L 154.62698 378.667936 
L 156.059803 375.624196 
L 157.492627 371.341134 
L 158.92545 376.838309 
L 160.358273 375.37679 
L 161.791097 374.63479 
L 163.22392 376.039232 
L 164.656743 376.652018 
L 166.089567 375.374826 
L 167.52239 374.912863 
L 168.955213 365.663888 
L 170.388037 376.009657 
L 171.82086 374.881214 
L 173.253684 373.237987 
L 174.686507 372.529928 
L 176.11933 367.92121 
L 177.552154 373.006842 
L 178.984977 372.136501 
L 180.4178 371.815647 
L 181.850624 372.416101 
L 183.283447 370.432377 
L 184.71627 371.066663 
L 186.149094 370.720381 
L 187.581917 369.671934 
L 189.01474 370.661122 
L 190.447564 370.250888 
L 191.880387 369.22896 
L 193.31321 369.934509 
L 194.746034 367.275248 
L 196.178857 373.648767 
L 197.61168 369.443517 
L 199.044504 368.217072 
L 200.477327 367.345748 
L 201.91015 366.885531 
L 203.342974 368.934735 
L 204.775797 366.318691 
L 206.20862 366.822452 
L 207.641444 367.549501 
L 209.074267 368.469607 
L 210.50709 367.346403 
L 211.939914 368.593583 
L 213.372737 366.648165 
L 214.80556 362.839289 
L 216.238384 368.996723 
L 217.671207 368.914764 
L 219.10403 371.473186 
L 220.536854 374.806348 
L 221.969677 374.998969 
L 223.4025 366.624156 
L 224.835324 368.507913 
L 226.268147 369.775392 
L 227.70097 369.70893 
L 229.133794 368.766451 
L 230.566617 365.936613 
L 231.99944 364.659312 
L 233.432264 366.095621 
L 234.865087 368.797991 
L 236.297911 366.826381 
L 237.730734 368.932225 
L 240.596381 364.839492 
L 242.029204 365.629948 
L 243.462027 368.066031 
L 244.894851 366.532593 
L 246.327674 368.201138 
L 247.760497 364.371745 
L 249.193321 367.736229 
L 250.626144 364.387024 
L 252.058967 361.698623 
L 253.491791 364.004728 
L 254.924614 367.768314 
L 256.357437 365.109816 
L 257.790261 364.786671 
L 259.223084 365.2076 
L 260.655907 364.176832 
L 262.088731 367.206384 
L 263.521554 366.056988 
L 266.387201 365.904201 
L 267.820024 362.248766 
L 270.685671 363.73484 
L 272.118494 363.187426 
L 274.984141 365.210328 
L 276.416964 364.496594 
L 277.849787 363.223222 
L 279.282611 363.444872 
L 280.715434 363.803813 
L 282.148257 363.520502 
L 283.581081 363.597659 
L 285.013904 361.640455 
L 286.446727 361.426226 
L 287.879551 364.006583 
L 289.312374 362.965666 
L 290.745197 363.245921 
L 292.178021 361.808739 
L 295.043667 361.705281 
L 296.476491 361.047859 
L 297.909314 360.55141 
L 299.342138 362.83667 
L 300.774961 362.752855 
L 302.207784 362.293839 
L 303.640608 360.979432 
L 305.073431 342.222727 
L 306.506254 363.406784 
L 307.939078 358.329229 
L 310.804724 361.479265 
L 312.237548 360.899983 
L 313.670371 362.732884 
L 315.103194 359.440319 
L 316.536018 361.072632 
L 319.401664 361.416185 
L 322.267311 359.01066 
L 323.700134 360.301275 
L 325.132958 360.931522 
L 326.565781 360.241906 
L 329.431428 360.04874 
L 330.864251 358.810836 
L 333.729898 359.970163 
L 335.162721 360.064346 
L 336.595544 359.661751 
L 338.028368 359.6934 
L 339.461191 359.110844 
L 340.894014 360.604558 
L 342.326838 359.259266 
L 343.759661 359.842477 
L 345.192484 359.468476 
L 346.625308 361.63107 
L 348.058131 360.945055 
L 349.490954 361.163432 
L 350.923778 359.499688 
L 352.356601 359.753424 
L 353.789424 360.618963 
L 355.222248 360.04612 
L 356.655071 357.68272 
L 358.087895 358.723529 
L 359.520718 360.505683 
L 360.953541 359.175997 
L 362.386365 358.670817 
L 363.819188 359.44141 
L 365.252011 359.516713 
L 366.684835 359.261012 
L 372.416128 358.783443 
L 373.848951 358.196304 
L 375.281775 359.106697 
L 376.714598 356.85254 
L 378.147421 359.404742 
L 379.580245 359.181454 
L 381.013068 358.348873 
L 382.445891 358.75234 
L 383.878715 358.694936 
L 385.311538 358.293869 
L 386.744361 356.978371 
L 388.177185 358.746774 
L 389.610008 358.317006 
L 391.042831 358.700065 
L 392.475655 358.628146 
L 393.908478 358.40846 
L 395.341301 359.284476 
L 396.774125 359.348101 
L 399.639771 358.091099 
L 401.072595 359.128851 
L 402.505418 358.588749 
L 403.938241 358.606865 
L 405.371065 359.650838 
L 406.803888 358.577508 
L 408.236711 357.354119 
L 409.669535 359.278037 
L 411.102358 358.607301 
L 412.535181 358.555463 
L 413.968005 356.667668 
L 415.400828 356.678035 
L 416.833651 358.627382 
L 418.266475 357.382712 
L 419.699298 357.644742 
L 421.132122 357.349753 
L 422.564945 356.810087 
L 423.997768 357.429312 
L 425.430592 357.367979 
L 426.863415 357.911792 
L 428.296238 358.620943 
L 429.729062 359.095675 
L 431.161885 358.03555 
L 432.594708 358.804615 
L 434.027532 357.412069 
L 435.460355 358.319843 
L 436.893178 357.804841 
L 438.326002 358.007393 
L 439.758825 357.042324 
L 442.624472 357.036758 
L 444.057295 357.413597 
L 445.490118 356.894993 
L 446.922942 356.816853 
L 448.355765 357.72812 
L 449.788588 356.939738 
L 451.221412 356.379445 
L 452.654235 357.571295 
L 454.087058 356.94956 
L 455.519882 356.925223 
L 456.952705 357.190746 
L 458.385528 357.896404 
L 459.818352 356.001624 
L 461.251175 356.998779 
L 462.683998 357.330982 
L 465.549645 355.915627 
L 466.982468 355.868263 
L 468.415292 356.732493 
L 469.848115 356.607426 
L 471.280938 357.959811 
L 472.713762 358.277063 
L 474.146585 356.620194 
L 475.579408 357.847731 
L 477.012232 356.707501 
L 478.445055 356.858324 
L 479.877878 356.815326 
L 481.310702 357.973671 
L 482.743525 356.592256 
L 484.176349 357.148511 
L 485.609172 356.075508 
L 487.041995 355.324231 
L 488.474819 355.755855 
L 489.907642 356.496219 
L 491.340465 355.848401 
L 492.773289 355.754873 
L 494.206112 355.014837 
L 495.638935 355.802019 
L 497.071759 356.822092 
L 498.504582 356.29945 
L 499.937405 356.056628 
L 501.370229 356.296395 
L 504.235875 356.317021 
L 505.668699 356.227422 
L 507.101522 354.11372 
L 508.534345 355.85233 
L 509.967169 354.729562 
L 511.399992 355.865316 
L 512.832815 355.217935 
L 514.265639 355.256568 
L 515.698462 355.426708 
L 517.131285 355.343985 
L 518.564109 356.399199 
L 519.996932 355.801691 
L 521.429755 355.707836 
L 522.862579 355.910389 
L 524.295402 355.224701 
L 525.728225 355.393313 
L 527.161049 354.318782 
L 528.593872 355.044194 
L 531.459519 355.967247 
L 532.892342 355.735011 
L 534.325165 356.443507 
L 535.757989 355.61791 
L 537.190812 355.188033 
L 538.623635 355.074097 
L 540.056459 355.472544 
L 541.489282 355.383164 
L 542.922105 356.801466 
L 544.354929 354.665173 
L 545.787752 355.688302 
L 547.220576 360.143468 
L 548.653399 357.941367 
L 550.086222 356.329462 
L 551.519046 357.705093 
L 552.951869 355.487823 
L 554.384692 355.089921 
L 555.817516 357.952281 
L 557.250339 358.775695 
L 558.683162 355.047468 
L 560.115986 355.451809 
L 561.548809 353.264223 
L 562.981632 359.405615 
L 564.414456 356.663957 
L 565.847279 355.841416 
L 567.280102 355.73512 
L 568.712926 355.00436 
L 570.145749 355.750071 
L 571.578572 355.619875 
L 573.011396 358.308057 
L 574.444219 354.74233 
L 575.877042 355.289309 
L 577.309866 353.081533 
L 578.742689 362.098817 
L 580.175512 358.130933 
L 581.608336 361.353761 
L 583.041159 361.373077 
L 584.473982 357.017114 
L 585.906806 357.207552 
L 587.339629 356.759776 
L 588.772452 361.474681 
L 590.205276 358.718072 
L 591.638099 360.827409 
L 593.070922 358.497295 
L 594.503746 358.541057 
L 597.369392 357.287984 
L 598.802216 356.94072 
L 600.235039 362.039121 
L 601.667862 362.270811 
L 603.100686 359.771431 
L 604.533509 358.303037 
L 605.966333 357.14109 
L 607.399156 352.170703 
L 608.831979 359.974856 
L 610.264803 361.768142 
L 611.697626 364.096182 
L 613.130449 364.374692 
L 614.563273 361.825764 
L 615.996096 360.806564 
L 617.428919 366.303958 
L 618.861743 362.793999 
L 620.294566 364.716607 
L 621.727389 359.724176 
L 623.160213 360.132554 
L 624.593036 362.816808 
L 626.025859 360.382034 
L 627.458683 359.417947 
L 628.891506 362.12108 
L 630.324329 362.022205 
L 631.757153 362.777192 
L 633.189976 362.172591 
L 634.622799 359.465529 
L 636.055623 358.015469 
L 637.488446 360.511139 
L 638.921269 355.672041 
L 640.354093 363.685949 
L 641.786916 367.832266 
L 643.219739 365.387562 
L 644.652563 358.532763 
L 646.085386 361.350705 
L 647.518209 361.455801 
L 648.951033 359.983805 
L 650.383856 358.746774 
L 651.816679 357.803859 
L 653.249503 360.335761 
L 654.682326 350.935964 
L 656.115149 359.971255 
L 657.547973 358.684241 
L 658.980796 360.077333 
L 661.846443 354.940954 
L 663.279266 361.084855 
L 664.712089 357.073099 
L 666.144913 356.360893 
L 667.577736 363.241338 
L 669.01056 357.044288 
L 670.443383 357.34517 
L 671.876206 358.065998 
L 673.30903 358.637968 
L 674.741853 358.708468 
L 676.174676 357.291367 
L 677.6075 356.870875 
L 679.040323 360.791395 
L 680.473146 357.570858 
L 681.90597 359.269416 
L 683.338793 357.184961 
L 684.771616 360.976922 
L 686.20444 361.057572 
L 687.637263 358.448075 
L 689.070086 359.433989 
L 690.50291 357.419381 
L 691.935733 356.817508 
L 693.368556 357.182561 
L 694.80138 357.322579 
L 696.234203 358.347127 
L 697.667026 357.457468 
L 699.09985 362.590028 
L 700.532673 358.157234 
L 701.965496 361.317092 
L 703.39832 359.193459 
L 704.831143 358.754523 
L 706.263966 365.040516 
L 707.69679 363.420863 
L 709.129613 356.630016 
L 710.562436 361.255431 
L 711.99526 358.224024 
L 713.428083 358.659904 
L 714.860906 362.166261 
L 716.29373 363.631709 
L 717.726553 360.622674 
L 719.159376 360.508084 
L 720.5922 357.27456 
L 722.025023 355.810859 
L 723.457846 357.981092 
L 724.89067 357.991351 
L 726.323493 359.478625 
L 727.756316 362.008563 
L 729.18914 359.292661 
L 730.621963 355.678916 
L 732.054787 362.33902 
L 733.48761 358.260693 
L 734.920433 359.818795 
L 736.353257 358.42603 
L 737.78608 357.542374 
L 739.218903 357.148947 
L 740.651727 360.446969 
L 742.08455 358.971371 
L 743.517373 362.969486 
L 744.950197 357.283837 
L 746.38302 359.28142 
L 747.815843 356.145463 
L 749.248667 356.130075 
L 750.68149 358.454514 
L 752.114313 361.392067 
L 753.547137 356.368641 
L 754.97996 355.49197 
L 756.412783 360.106908 
L 757.845607 357.568348 
L 759.27843 361.881313 
L 760.711253 358.586348 
L 762.144077 357.994625 
L 763.5769 359.909048 
L 765.009723 359.681832 
L 766.442547 358.631529 
L 767.87537 359.303684 
L 769.308193 361.996886 
L 770.741017 360.040445 
L 772.17384 356.204941 
L 773.606663 361.392067 
L 775.039487 359.878382 
L 776.47231 355.978161 
L 777.905133 358.893668 
L 779.337957 360.666546 
L 780.77078 358.804069 
L 782.203603 358.004228 
L 783.636427 361.472935 
L 785.06925 358.99549 
L 786.502073 358.357494 
L 787.934897 360.89147 
L 789.36772 356.968549 
L 790.800543 356.212143 
L 792.233367 359.063153 
L 793.66619 358.867694 
L 795.099014 355.78052 
L 796.531837 362.023842 
L 797.96466 357.101147 
L 799.397484 359.02572 
L 800.830307 357.012639 
L 802.26313 356.975316 
L 803.695954 354.91629 
L 805.128777 359.288732 
L 806.5616 357.637648 
L 807.994424 357.297806 
L 809.427247 358.265495 
L 810.86007 355.648795 
L 812.292894 357.788144 
L 813.725717 361.644493 
L 815.15854 362.369032 
L 816.591364 361.204029 
L 816.591364 361.204029 
" clip-path="url(#p2198c82a21)" style="fill: none; stroke: #1f77b4; stroke-width: 1.8; stroke-linecap: square"/>
   </g>
   <g id="patch_9">
    <path d="M 47.81 606.04 
L 47.81 329.66 
" style="fill: none; stroke: #000000; stroke-width: 0.8; stroke-linejoin: miter; stroke-linecap: square"/>
   </g>
   <g id="patch_10">
    <path d="M 853.2 606.04 
L 853.2 329.66 
" style="fill: none; stroke: #000000; stroke-width: 0.8; stroke-linejoin: miter; stroke-linecap: square"/>
   </g>
   <g id="patch_11">
    <path d="M 47.81 606.04 
L 853.2 606.04 
" style="fill: none; stroke: #000000; stroke-width: 0.8; stroke-linejoin: miter; stroke-linecap: square"/>
   </g>
   <g id="patch_12">
    <path d="M 47.81 329.66 
L 853.2 329.66 
" style="fill: none; stroke: #000000; stroke-width: 0.8; stroke-linejoin: miter; stroke-linecap: square"/>
   </g>
   <g id="legend_2">
    <g id="patch_13">
     <path d="M 676.673437 601.04 
L 846.2 601.04 
Q 848.2 601.04 848.2 599.04 
L 848.2 570.68375 
Q 848.2 568.68375 846.2 568.68375 
L 676.673437 568.68375 
Q 674.673437 568.68375 674.673437 570.68375 
L 674.673437 599.04 
Q 674.673437 601.04 676.673437 601.04 
z
" style="fill: #ffffff; opacity: 0.8; stroke: #cccccc; stroke-linejoin: miter"/>
    </g>
    <g id="line2d_65">
     <path d="M 678.673437 576.782187 
L 688.673437 576.782187 
L 698.673437 576.782187 
" style="fill: none; stroke: #000000; stroke-opacity: 0.5; stroke-width: 0.9; stroke-linecap: square"/>
    </g>
    <g id="text_26">
     <!-- 2x threshold -->
     <g transform="translate(706.673437 580.282187) scale(0.1 -0.1)">
      <defs>
       <path id="DejaVuSans-78" d="M 3513 3500 
L 2247 1797 
L 3578 0 
L 2900 0 
L 1881 1375 
L 863 0 
L 184 0 
L 1544 1831 
L 300 3500 
L 978 3500 
L 1906 2253 
L 2834 3500 
L 3513 3500 
z
" transform="scale(0.015625)"/>
       <path id="DejaVuSans-68" d="M 3513 2113 
L 3513 0 
L 2938 0 
L 2938 2094 
Q 2938 2591 2744 2837 
Q 2550 3084 2163 3084 
Q 1697 3084 1428 2787 
Q 1159 2491 1159 1978 
L 1159 0 
L 581 0 
L 581 4863 
L 1159 4863 
L 1159 2956 
Q 1366 3272 1645 3428 
Q 1925 3584 2291 3584 
Q 2894 3584 3203 3211 
Q 3513 2838 3513 2113 
z
" transform="scale(0.015625)"/>
       <path id="DejaVuSans-64" d="M 2906 2969 
L 2906 4863 
L 3481 4863 
L 3481 0 
L 2906 0 
L 2906 525 
Q 2725 213 2448 61 
Q 2172 -91 1784 -91 
Q 1150 -91 751 415 
Q 353 922 353 1747 
Q 353 2572 751 3078 
Q 1150 3584 1784 3584 
Q 2172 3584 2448 3432 
Q 2725 3281 2906 2969 
z
M 947 1747 
Q 947 1113 1208 752 
Q 1469 391 1925 391 
Q 2381 391 2643 752 
Q 2906 1113 2906 1747 
Q 2906 2381 2643 2742 
Q 2381 3103 1925 3103 
Q 1469 3103 1208 2742 
Q 947 2381 947 1747 
z
" transform="scale(0.015625)"/>
      </defs>
      <use xlink:href="#DejaVuSans-32"/>
      <use xlink:href="#DejaVuSans-78" transform="translate(63.623047 0)"/>
      <use xlink:href="#DejaVuSans-20" transform="translate(122.802734 0)"/>
      <use xlink:href="#DejaVuSans-74" transform="translate(154.589844 0)"/>
      <use xlink:href="#DejaVuSans-68" transform="translate(193.798828 0)"/>
      <use xlink:href="#DejaVuSans-72" transform="translate(257.177734 0)"/>
      <use xlink:href="#DejaVuSans-65" transform="translate(296.041016 0)"/>
      <use xlink:href="#DejaVuSans-73" transform="translate(357.564453 0)"/>
      <use xlink:href="#DejaVuSans-68" transform="translate(409.664062 0)"/>
      <use xlink:href="#DejaVuSans-6f" transform="translate(473.042969 0)"/>
      <use xlink:href="#DejaVuSans-6c" transform="translate(534.224609 0)"/>
      <use xlink:href="#DejaVuSans-64" transform="translate(562.007812 0)"/>
     </g>
    </g>
    <g id="line2d_66">
     <path d="M 678.673437 591.460312 
L 688.673437 591.460312 
L 698.673437 591.460312 
" style="fill: none; stroke: #1f77b4; stroke-width: 1.8; stroke-linecap: square"/>
    </g>
    <g id="text_27">
     <!-- neg scalar ns / pos SIMD ns -->
     <g transform="translate(706.673437 594.960312) scale(0.1 -0.1)">
      <use xlink:href="#DejaVuSans-6e"/>
      <use xlink:href="#DejaVuSans-65" transform="translate(63.378906 0)"/>
      <use xlink:href="#DejaVuSans-67" transform="translate(124.902344 0)"/>
      <use xlink:href="#DejaVuSans-20" transform="translate(188.378906 0)"/>
      <use xlink:href="#DejaVuSans-73" transform="translate(220.166016 0)"/>
      <use xlink:href="#DejaVuSans-63" transform="translate(272.265625 0)"/>
      <use xlink:href="#DejaVuSans-61" transform="translate(327.246094 0)"/>
      <use xlink:href="#DejaVuSans-6c" transform="translate(388.525391 0)"/>
      <use xlink:href="#DejaVuSans-61" transform="translate(416.308594 0)"/>
      <use xlink:href="#DejaVuSans-72" transform="translate(477.587891 0)"/>
      <use xlink:href="#DejaVuSans-20" transform="translate(518.701172 0)"/>
      <use xlink:href="#DejaVuSans-6e" transform="translate(550.488281 0)"/>
      <use xlink:href="#DejaVuSans-73" transform="translate(613.867188 0)"/>
      <use xlink:href="#DejaVuSans-20" transform="translate(665.966797 0)"/>
      <use xlink:href="#DejaVuSans-2f" transform="translate(697.753906 0)"/>
      <use xlink:href="#DejaVuSans-20" transform="translate(731.445312 0)"/>
      <use xlink:href="#DejaVuSans-70" transform="translate(763.232422 0)"/>
      <use xlink:href="#DejaVuSans-6f" transform="translate(826.708984 0)"/>
      <use xlink:href="#DejaVuSans-73" transform="translate(887.890625 0)"/>
      <use xlink:href="#DejaVuSans-20" transform="translate(939.990234 0)"/>
      <use xlink:href="#DejaVuSans-53" transform="translate(971.777344 0)"/>
      <use xlink:href="#DejaVuSans-49" transform="translate(1035.253906 0)"/>
      <use xlink:href="#DejaVuSans-4d" transform="translate(1064.746094 0)"/>
      <use xlink:href="#DejaVuSans-44" transform="translate(1151.025391 0)"/>
      <use xlink:href="#DejaVuSans-20" transform="translate(1228.027344 0)"/>
      <use xlink:href="#DejaVuSans-6e" transform="translate(1259.814453 0)"/>
      <use xlink:href="#DejaVuSans-73" transform="translate(1323.193359 0)"/>
     </g>
    </g>
   </g>
  </g>
  <g id="text_28">
   <!-- canon positive SIMD vs negative scalar -->
   <g transform="translate(314.47125 22.078125) scale(0.12 -0.12)">
    <defs>
     <path id="DejaVuSans-76" d="M 191 3500 
L 800 3500 
L 1894 563 
L 2988 3500 
L 3597 3500 
L 2284 0 
L 1503 0 
L 191 3500 
z
" transform="scale(0.015625)"/>
    </defs>
    <use xlink:href="#DejaVuSans-63"/>
    <use xlink:href="#DejaVuSans-61" transform="translate(54.980469 0)"/>
    <use xlink:href="#DejaVuSans-6e" transform="translate(116.259766 0)"/>
    <use xlink:href="#DejaVuSans-6f" transform="translate(179.638672 0)"/>
    <use xlink:href="#DejaVuSans-6e" transform="translate(240.820312 0)"/>
    <use xlink:href="#DejaVuSans-20" transform="translate(304.199219 0)"/>
    <use xlink:href="#DejaVuSans-70" transform="translate(335.986328 0)"/>
    <use xlink:href="#DejaVuSans-6f" transform="translate(399.462891 0)"/>
    <use xlink:href="#DejaVuSans-73" transform="translate(460.644531 0)"/>
    <use xlink:href="#DejaVuSans-69" transform="translate(512.744141 0)"/>
    <use xlink:href="#DejaVuSans-74" transform="translate(540.527344 0)"/>
    <use xlink:href="#DejaVuSans-69" transform="translate(579.736328 0)"/>
    <use xlink:href="#DejaVuSans-76" transform="translate(607.519531 0)"/>
    <use xlink:href="#DejaVuSans-65" transform="translate(666.699219 0)"/>
    <use xlink:href="#DejaVuSans-20" transform="translate(728.222656 0)"/>
    <use xlink:href="#DejaVuSans-53" transform="translate(760.009766 0)"/>
    <use xlink:href="#DejaVuSans-49" transform="translate(823.486328 0)"/>
    <use xlink:href="#DejaVuSans-4d" transform="translate(852.978516 0)"/>
    <use xlink:href="#DejaVuSans-44" transform="translate(939.257812 0)"/>
    <use xlink:href="#DejaVuSans-20" transform="translate(1016.259766 0)"/>
    <use xlink:href="#DejaVuSans-76" transform="translate(1048.046875 0)"/>
    <use xlink:href="#DejaVuSans-73" transform="translate(1107.226562 0)"/>
    <use xlink:href="#DejaVuSans-20" transform="translate(1159.326172 0)"/>
    <use xlink:href="#DejaVuSans-6e" transform="translate(1191.113281 0)"/>
    <use xlink:href="#DejaVuSans-65" transform="translate(1254.492188 0)"/>
    <use xlink:href="#DejaVuSans-67" transform="translate(1316.015625 0)"/>
    <use xlink:href="#DejaVuSans-61" transform="translate(1379.492188 0)"/>
    <use xlink:href="#DejaVuSans-74" transform="translate(1440.771484 0)"/>
    <use xlink:href="#DejaVuSans-69" transform="translate(1479.980469 0)"/>
    <use xlink:href="#DejaVuSans-76" transform="translate(1507.763672 0)"/>
    <use xlink:href="#DejaVuSans-65" transform="translate(1566.943359 0)"/>
    <use xlink:href="#DejaVuSans-20" transform="translate(1628.466797 0)"/>
    <use xlink:href="#DejaVuSans-73" transform="translate(1660.253906 0)"/>
    <use xlink:href="#DejaVuSans-63" transform="translate(1712.353516 0)"/>
    <use xlink:href="#DejaVuSans-61" transform="translate(1767.333984 0)"/>
    <use xlink:href="#DejaVuSans-6c" transform="translate(1828.613281 0)"/>
    <use xlink:href="#DejaVuSans-61" transform="translate(1856.396484 0)"/>
    <use xlink:href="#DejaVuSans-72" transform="translate(1917.675781 0)"/>
   </g>
  </g>
 </g>
 <defs>
  <clipPath id="p37e59d9cfa">
   <rect x="47.81" y="36.36" width="805.39" height="276.38"/>
  </clipPath>
  <clipPath id="p2198c82a21">
   <rect x="47.81" y="329.66" width="805.39" height="276.38"/>
  </clipPath>
 </defs>
</svg>
