<?xml version="1.0" encoding="utf-8" standalone="no"?>
<!DOCTYPE svg PUBLIC "-//W3C//DTD SVG 1.1//EN"
  "http://www.w3.org/Graphics/SVG/1.1/DTD/svg11.dtd">
<svg xmlns:xlink="http://www.w3.org/1999/xlink" width="864pt" height="648pt" viewBox="0 0 864 648" xmlns="http://www.w3.org/2000/svg" version="1.1">
 <metadata>
  <rdf:RDF xmlns:dc="http://purl.org/dc/elements/1.1/" xmlns:cc="http://creativecommons.org/ns#" xmlns:rdf="http://www.w3.org/1999/02/22-rdf-syntax-ns#">
   <cc:Work>
    <dc:type rdf:resource="http://purl.org/dc/dcmitype/StillImage"/>
    <dc:date>2026-06-05T13:18:54.306059</dc:date>
    <dc:format>image/svg+xml</dc:format>
    <dc:creator>
     <cc:Agent>
      <dc:title>Matplotlib v3.10.7+dfsg1, https://matplotlib.org/</dc:title>
     </cc:Agent>
    </dc:creator>
   </cc:Work>
  </rdf:RDF>
 </metadata>
 <defs>
  <style type="text/css">*{stroke-linejoin: round; stroke-linecap: butt}</style>
 </defs>
 <g id="figure_1">
  <g id="patch_1">
   <path d="M 0 648 
L 864 648 
L 864 0 
L 0 0 
z
" style="fill: #ffffff"/>
  </g>
  <g id="axes_1">
   <g id="patch_2">
    <path d="M 54.2 312.07 
L 853.2 312.07 
L 853.2 32.4 
L 54.2 32.4 
z
" style="fill: #ffffff"/>
   </g>
   <g id="matplotlib.axis_1">
    <g id="xtick_1">
     <g id="line2d_1">
      <path d="M 89.096727 312.07 
L 89.096727 32.4 
" clip-path="url(#p510e65dfb5)" style="fill: none; stroke: #b0b0b0; stroke-opacity: 0.25; stroke-width: 0.8; stroke-linecap: square"/>
     </g>
     <g id="line2d_2">
      <defs>
       <path id="mcf3a51618d" d="M 0 0 
L 0 3.5 
" style="stroke: #000000; stroke-width: 0.8"/>
      </defs>
      <g>
       <use xlink:href="#mcf3a51618d" x="89.096727" y="312.07" style="stroke: #000000; stroke-width: 0.8"/>
      </g>
     </g>
    </g>
    <g id="xtick_2">
     <g id="line2d_3">
      <path d="M 177.93768 312.07 
L 177.93768 32.4 
" clip-path="url(#p510e65dfb5)" style="fill: none; stroke: #b0b0b0; stroke-opacity: 0.25; stroke-width: 0.8; stroke-linecap: square"/>
     </g>
     <g id="line2d_4">
      <g>
       <use xlink:href="#mcf3a51618d" x="177.93768" y="312.07" style="stroke: #000000; stroke-width: 0.8"/>
      </g>
     </g>
    </g>
    <g id="xtick_3">
     <g id="line2d_5">
      <path d="M 266.778634 312.07 
L 266.778634 32.4 
" clip-path="url(#p510e65dfb5)" style="fill: none; stroke: #b0b0b0; stroke-opacity: 0.25; stroke-width: 0.8; stroke-linecap: square"/>
     </g>
     <g id="line2d_6">
      <g>
       <use xlink:href="#mcf3a51618d" x="266.778634" y="312.07" style="stroke: #000000; stroke-width: 0.8"/>
      </g>
     </g>
    </g>
    <g id="xtick_4">
     <g id="line2d_7">
      <path d="M 355.619587 312.07 
L 355.619587 32.4 
" clip-path="url(#p510e65dfb5)" style="fill: none; stroke: #b0b0b0; stroke-opacity: 0.25; stroke-width: 0.8; stroke-linecap: square"/>
     </g>
     <g id="line2d_8">
      <g>
       <use xlink:href="#mcf3a51618d" x="355.619587" y="312.07" style="stroke: #000000; stroke-width: 0.8"/>
      </g>
     </g>
    </g>
    <g id="xtick_5">
     <g id="line2d_9">
      <path d="M 444.460541 312.07 
L 444.460541 32.4 
" clip-path="url(#p510e65dfb5)" style="fill: none; stroke: #b0b0b0; stroke-opacity: 0.25; stroke-width: 0.8; stroke-linecap: square"/>
     </g>
     <g id="line2d_10">
      <g>
       <use xlink:href="#mcf3a51618d" x="444.460541" y="312.07" style="stroke: #000000; stroke-width: 0.8"/>
      </g>
     </g>
    </g>
    <g id="xtick_6">
     <g id="line2d_11">
      <path d="M 533.301494 312.07 
L 533.301494 32.4 
" clip-path="url(#p510e65dfb5)" style="fill: none; stroke: #b0b0b0; stroke-opacity: 0.25; stroke-width: 0.8; stroke-linecap: square"/>
     </g>
     <g id="line2d_12">
      <g>
       <use xlink:href="#mcf3a51618d" x="533.301494" y="312.07" style="stroke: #000000; stroke-width: 0.8"/>
      </g>
     </g>
    </g>
    <g id="xtick_7">
     <g id="line2d_13">
      <path d="M 622.142448 312.07 
L 622.142448 32.4 
" clip-path="url(#p510e65dfb5)" style="fill: none; stroke: #b0b0b0; stroke-opacity: 0.25; stroke-width: 0.8; stroke-linecap: square"/>
     </g>
     <g id="line2d_14">
      <g>
       <use xlink:href="#mcf3a51618d" x="622.142448" y="312.07" style="stroke: #000000; stroke-width: 0.8"/>
      </g>
     </g>
    </g>
    <g id="xtick_8">
     <g id="line2d_15">
      <path d="M 710.983402 312.07 
L 710.983402 32.4 
" clip-path="url(#p510e65dfb5)" style="fill: none; stroke: #b0b0b0; stroke-opacity: 0.25; stroke-width: 0.8; stroke-linecap: square"/>
     </g>
     <g id="line2d_16">
      <g>
       <use xlink:href="#mcf3a51618d" x="710.983402" y="312.07" style="stroke: #000000; stroke-width: 0.8"/>
      </g>
     </g>
    </g>
    <g id="xtick_9">
     <g id="line2d_17">
      <path d="M 799.824355 312.07 
L 799.824355 32.4 
" clip-path="url(#p510e65dfb5)" style="fill: none; stroke: #b0b0b0; stroke-opacity: 0.25; stroke-width: 0.8; stroke-linecap: square"/>
     </g>
     <g id="line2d_18">
      <g>
       <use xlink:href="#mcf3a51618d" x="799.824355" y="312.07" style="stroke: #000000; stroke-width: 0.8"/>
      </g>
     </g>
    </g>
   </g>
   <g id="matplotlib.axis_2">
    <g id="ytick_1">
     <g id="line2d_19">
      <path d="M 54.2 273.610818 
L 853.2 273.610818 
" clip-path="url(#p510e65dfb5)" style="fill: none; stroke: #b0b0b0; stroke-opacity: 0.25; stroke-width: 0.8; stroke-linecap: square"/>
     </g>
     <g id="line2d_20">
      <defs>
       <path id="m282c47a1d0" d="M 0 0 
L -3.5 0 
" style="stroke: #000000; stroke-width: 0.8"/>
      </defs>
      <g>
       <use xlink:href="#m282c47a1d0" x="54.2" y="273.610818" style="stroke: #000000; stroke-width: 0.8"/>
      </g>
     </g>
     <g id="text_1">
      <!-- 0.15 -->
      <g transform="translate(24.934375 277.410037) scale(0.1 -0.1)">
       <defs>
        <path id="DejaVuSans-30" d="M 2034 4250 
Q 1547 4250 1301 3770 
Q 1056 3291 1056 2328 
Q 1056 1369 1301 889 
Q 1547 409 2034 409 
Q 2525 409 2770 889 
Q 3016 1369 3016 2328 
Q 3016 3291 2770 3770 
Q 2525 4250 2034 4250 
z
M 2034 4750 
Q 2819 4750 3233 4129 
Q 3647 3509 3647 2328 
Q 3647 1150 3233 529 
Q 2819 -91 2034 -91 
Q 1250 -91 836 529 
Q 422 1150 422 2328 
Q 422 3509 836 4129 
Q 1250 4750 2034 4750 
z
" transform="scale(0.015625)"/>
        <path id="DejaVuSans-2e" d="M 684 794 
L 1344 794 
L 1344 0 
L 684 0 
L 684 794 
z
" transform="scale(0.015625)"/>
        <path id="DejaVuSans-31" d="M 794 531 
L 1825 531 
L 1825 4091 
L 703 3866 
L 703 4441 
L 1819 4666 
L 2450 4666 
L 2450 531 
L 3481 531 
L 3481 0 
L 794 0 
L 794 531 
z
" transform="scale(0.015625)"/>
        <path id="DejaVuSans-35" d="M 691 4666 
L 3169 4666 
L 3169 4134 
L 1269 4134 
L 1269 2991 
Q 1406 3038 1543 3061 
Q 1681 3084 1819 3084 
Q 2600 3084 3056 2656 
Q 3513 2228 3513 1497 
Q 3513 744 3044 326 
Q 2575 -91 1722 -91 
Q 1428 -91 1123 -41 
Q 819 9 494 109 
L 494 744 
Q 775 591 1075 516 
Q 1375 441 1709 441 
Q 2250 441 2565 725 
Q 2881 1009 2881 1497 
Q 2881 1984 2565 2268 
Q 2250 2553 1709 2553 
Q 1456 2553 1204 2497 
Q 953 2441 691 2322 
L 691 4666 
z
" transform="scale(0.015625)"/>
       </defs>
       <use xlink:href="#DejaVuSans-30"/>
       <use xlink:href="#DejaVuSans-2e" transform="translate(63.623047 0)"/>
       <use xlink:href="#DejaVuSans-31" transform="translate(95.410156 0)"/>
       <use xlink:href="#DejaVuSans-35" transform="translate(159.033203 0)"/>
      </g>
     </g>
    </g>
    <g id="ytick_2">
     <g id="line2d_21">
      <path d="M 54.2 231.603845 
L 853.2 231.603845 
" clip-path="url(#p510e65dfb5)" style="fill: none; stroke: #b0b0b0; stroke-opacity: 0.25; stroke-width: 0.8; stroke-linecap: square"/>
     </g>
     <g id="line2d_22">
      <g>
       <use xlink:href="#m282c47a1d0" x="54.2" y="231.603845" style="stroke: #000000; stroke-width: 0.8"/>
      </g>
     </g>
     <g id="text_2">
      <!-- 0.20 -->
      <g transform="translate(24.934375 235.403063) scale(0.1 -0.1)">
       <defs>
        <path id="DejaVuSans-32" d="M 1228 531 
L 3431 531 
L 3431 0 
L 469 0 
L 469 531 
Q 828 903 1448 1529 
Q 2069 2156 2228 2338 
Q 2531 2678 2651 2914 
Q 2772 3150 2772 3378 
Q 2772 3750 2511 3984 
Q 2250 4219 1831 4219 
Q 1534 4219 1204 4116 
Q 875 4013 500 3803 
L 500 4441 
Q 881 4594 1212 4672 
Q 1544 4750 1819 4750 
Q 2544 4750 2975 4387 
Q 3406 4025 3406 3419 
Q 3406 3131 3298 2873 
Q 3191 2616 2906 2266 
Q 2828 2175 2409 1742 
Q 1991 1309 1228 531 
z
" transform="scale(0.015625)"/>
       </defs>
       <use xlink:href="#DejaVuSans-30"/>
       <use xlink:href="#DejaVuSans-2e" transform="translate(63.623047 0)"/>
       <use xlink:href="#DejaVuSans-32" transform="translate(95.410156 0)"/>
       <use xlink:href="#DejaVuSans-30" transform="translate(159.033203 0)"/>
      </g>
     </g>
    </g>
    <g id="ytick_3">
     <g id="line2d_23">
      <path d="M 54.2 189.596871 
L 853.2 189.596871 
" clip-path="url(#p510e65dfb5)" style="fill: none; stroke: #b0b0b0; stroke-opacity: 0.25; stroke-width: 0.8; stroke-linecap: square"/>
     </g>
     <g id="line2d_24">
      <g>
       <use xlink:href="#m282c47a1d0" x="54.2" y="189.596871" style="stroke: #000000; stroke-width: 0.8"/>
      </g>
     </g>
     <g id="text_3">
      <!-- 0.25 -->
      <g transform="translate(24.934375 193.39609) scale(0.1 -0.1)">
       <use xlink:href="#DejaVuSans-30"/>
       <use xlink:href="#DejaVuSans-2e" transform="translate(63.623047 0)"/>
       <use xlink:href="#DejaVuSans-32" transform="translate(95.410156 0)"/>
       <use xlink:href="#DejaVuSans-35" transform="translate(159.033203 0)"/>
      </g>
     </g>
    </g>
    <g id="ytick_4">
     <g id="line2d_25">
      <path d="M 54.2 147.589898 
L 853.2 147.589898 
" clip-path="url(#p510e65dfb5)" style="fill: none; stroke: #b0b0b0; stroke-opacity: 0.25; stroke-width: 0.8; stroke-linecap: square"/>
     </g>
     <g id="line2d_26">
      <g>
       <use xlink:href="#m282c47a1d0" x="54.2" y="147.589898" style="stroke: #000000; stroke-width: 0.8"/>
      </g>
     </g>
     <g id="text_4">
      <!-- 0.30 -->
      <g transform="translate(24.934375 151.389116) scale(0.1 -0.1)">
       <defs>
        <path id="DejaVuSans-33" d="M 2597 2516 
Q 3050 2419 3304 2112 
Q 3559 1806 3559 1356 
Q 3559 666 3084 287 
Q 2609 -91 1734 -91 
Q 1441 -91 1130 -33 
Q 819 25 488 141 
L 488 750 
Q 750 597 1062 519 
Q 1375 441 1716 441 
Q 2309 441 2620 675 
Q 2931 909 2931 1356 
Q 2931 1769 2642 2001 
Q 2353 2234 1838 2234 
L 1294 2234 
L 1294 2753 
L 1863 2753 
Q 2328 2753 2575 2939 
Q 2822 3125 2822 3475 
Q 2822 3834 2567 4026 
Q 2313 4219 1838 4219 
Q 1578 4219 1281 4162 
Q 984 4106 628 3988 
L 628 4550 
Q 988 4650 1302 4700 
Q 1616 4750 1894 4750 
Q 2613 4750 3031 4423 
Q 3450 4097 3450 3541 
Q 3450 3153 3228 2886 
Q 3006 2619 2597 2516 
z
" transform="scale(0.015625)"/>
       </defs>
       <use xlink:href="#DejaVuSans-30"/>
       <use xlink:href="#DejaVuSans-2e" transform="translate(63.623047 0)"/>
       <use xlink:href="#DejaVuSans-33" transform="translate(95.410156 0)"/>
       <use xlink:href="#DejaVuSans-30" transform="translate(159.033203 0)"/>
      </g>
     </g>
    </g>
    <g id="ytick_5">
     <g id="line2d_27">
      <path d="M 54.2 105.582924 
L 853.2 105.582924 
" clip-path="url(#p510e65dfb5)" style="fill: none; stroke: #b0b0b0; stroke-opacity: 0.25; stroke-width: 0.8; stroke-linecap: square"/>
     </g>
     <g id="line2d_28">
      <g>
       <use xlink:href="#m282c47a1d0" x="54.2" y="105.582924" style="stroke: #000000; stroke-width: 0.8"/>
      </g>
     </g>
     <g id="text_5">
      <!-- 0.35 -->
      <g transform="translate(24.934375 109.382143) scale(0.1 -0.1)">
       <use xlink:href="#DejaVuSans-30"/>
       <use xlink:href="#DejaVuSans-2e" transform="translate(63.623047 0)"/>
       <use xlink:href="#DejaVuSans-33" transform="translate(95.410156 0)"/>
       <use xlink:href="#DejaVuSans-35" transform="translate(159.033203 0)"/>
      </g>
     </g>
    </g>
    <g id="ytick_6">
     <g id="line2d_29">
      <path d="M 54.2 63.575951 
L 853.2 63.575951 
" clip-path="url(#p510e65dfb5)" style="fill: none; stroke: #b0b0b0; stroke-opacity: 0.25; stroke-width: 0.8; stroke-linecap: square"/>
     </g>
     <g id="line2d_30">
      <g>
       <use xlink:href="#m282c47a1d0" x="54.2" y="63.575951" style="stroke: #000000; stroke-width: 0.8"/>
      </g>
     </g>
     <g id="text_6">
      <!-- 0.40 -->
      <g transform="translate(24.934375 67.375169) scale(0.1 -0.1)">
       <defs>
        <path id="DejaVuSans-34" d="M 2419 4116 
L 825 1625 
L 2419 1625 
L 2419 4116 
z
M 2253 4666 
L 3047 4666 
L 3047 1625 
L 3713 1625 
L 3713 1100 
L 3047 1100 
L 3047 0 
L 2419 0 
L 2419 1100 
L 313 1100 
L 313 1709 
L 2253 4666 
z
" transform="scale(0.015625)"/>
       </defs>
       <use xlink:href="#DejaVuSans-30"/>
       <use xlink:href="#DejaVuSans-2e" transform="translate(63.623047 0)"/>
       <use xlink:href="#DejaVuSans-34" transform="translate(95.410156 0)"/>
       <use xlink:href="#DejaVuSans-30" transform="translate(159.033203 0)"/>
      </g>
     </g>
    </g>
    <g id="text_7">
     <!-- ns / limb -->
     <g transform="translate(18.854688 193.693594) rotate(-90) scale(0.1 -0.1)">
      <defs>
       <path id="DejaVuSans-6e" d="M 3513 2113 
L 3513 0 
L 2938 0 
L 2938 2094 
Q 2938 2591 2744 2837 
Q 2550 3084 2163 3084 
Q 1697 3084 1428 2787 
Q 1159 2491 1159 1978 
L 1159 0 
L 581 0 
L 581 3500 
L 1159 3500 
L 1159 2956 
Q 1366 3272 1645 3428 
Q 1925 3584 2291 3584 
Q 2894 3584 3203 3211 
Q 3513 2838 3513 2113 
z
" transform="scale(0.015625)"/>
       <path id="DejaVuSans-73" d="M 2834 3397 
L 2834 2853 
Q 2591 2978 2328 3040 
Q 2066 3103 1784 3103 
Q 1356 3103 1142 2972 
Q 928 2841 928 2578 
Q 928 2378 1081 2264 
Q 1234 2150 1697 2047 
L 1894 2003 
Q 2506 1872 2764 1633 
Q 3022 1394 3022 966 
Q 3022 478 2636 193 
Q 2250 -91 1575 -91 
Q 1294 -91 989 -36 
Q 684 19 347 128 
L 347 722 
Q 666 556 975 473 
Q 1284 391 1588 391 
Q 1994 391 2212 530 
Q 2431 669 2431 922 
Q 2431 1156 2273 1281 
Q 2116 1406 1581 1522 
L 1381 1569 
Q 847 1681 609 1914 
Q 372 2147 372 2553 
Q 372 3047 722 3315 
Q 1072 3584 1716 3584 
Q 2034 3584 2315 3537 
Q 2597 3491 2834 3397 
z
" transform="scale(0.015625)"/>
       <path id="DejaVuSans-20" transform="scale(0.015625)"/>
       <path id="DejaVuSans-2f" d="M 1625 4666 
L 2156 4666 
L 531 -594 
L 0 -594 
L 1625 4666 
z
" transform="scale(0.015625)"/>
       <path id="DejaVuSans-6c" d="M 603 4863 
L 1178 4863 
L 1178 0 
L 603 0 
L 603 4863 
z
" transform="scale(0.015625)"/>
       <path id="DejaVuSans-69" d="M 603 3500 
L 1178 3500 
L 1178 0 
L 603 0 
L 603 3500 
z
M 603 4863 
L 1178 4863 
L 1178 4134 
L 603 4134 
L 603 4863 
z
" transform="scale(0.015625)"/>
       <path id="DejaVuSans-6d" d="M 3328 2828 
Q 3544 3216 3844 3400 
Q 4144 3584 4550 3584 
Q 5097 3584 5394 3201 
Q 5691 2819 5691 2113 
L 5691 0 
L 5113 0 
L 5113 2094 
Q 5113 2597 4934 2840 
Q 4756 3084 4391 3084 
Q 3944 3084 3684 2787 
Q 3425 2491 3425 1978 
L 3425 0 
L 2847 0 
L 2847 2094 
Q 2847 2600 2669 2842 
Q 2491 3084 2119 3084 
Q 1678 3084 1418 2786 
Q 1159 2488 1159 1978 
L 1159 0 
L 581 0 
L 581 3500 
L 1159 3500 
L 1159 2956 
Q 1356 3278 1631 3431 
Q 1906 3584 2284 3584 
Q 2666 3584 2933 3390 
Q 3200 3197 3328 2828 
z
" transform="scale(0.015625)"/>
       <path id="DejaVuSans-62" d="M 3116 1747 
Q 3116 2381 2855 2742 
Q 2594 3103 2138 3103 
Q 1681 3103 1420 2742 
Q 1159 2381 1159 1747 
Q 1159 1113 1420 752 
Q 1681 391 2138 391 
Q 2594 391 2855 752 
Q 3116 1113 3116 1747 
z
M 1159 2969 
Q 1341 3281 1617 3432 
Q 1894 3584 2278 3584 
Q 2916 3584 3314 3078 
Q 3713 2572 3713 1747 
Q 3713 922 3314 415 
Q 2916 -91 2278 -91 
Q 1894 -91 1617 61 
Q 1341 213 1159 525 
L 1159 0 
L 581 0 
L 581 4863 
L 1159 4863 
L 1159 2969 
z
" transform="scale(0.015625)"/>
      </defs>
      <use xlink:href="#DejaVuSans-6e"/>
      <use xlink:href="#DejaVuSans-73" transform="translate(63.378906 0)"/>
      <use xlink:href="#DejaVuSans-20" transform="translate(115.478516 0)"/>
      <use xlink:href="#DejaVuSans-2f" transform="translate(147.265625 0)"/>
      <use xlink:href="#DejaVuSans-20" transform="translate(180.957031 0)"/>
      <use xlink:href="#DejaVuSans-6c" transform="translate(212.744141 0)"/>
      <use xlink:href="#DejaVuSans-69" transform="translate(240.527344 0)"/>
      <use xlink:href="#DejaVuSans-6d" transform="translate(268.310547 0)"/>
      <use xlink:href="#DejaVuSans-62" transform="translate(365.722656 0)"/>
     </g>
    </g>
   </g>
   <g id="line2d_31">
    <path d="M 90.518182 104.304464 
L 91.939637 200.639217 
L 93.361092 240.881642 
L 94.782548 258.384145 
L 96.204003 263.873673 
L 97.625458 271.591893 
L 99.046913 276.844155 
L 100.468369 276.591008 
L 101.889824 281.762623 
L 103.311279 285.580074 
L 104.732734 285.611811 
L 107.575645 289.261513 
L 108.9971 289.95542 
L 110.418555 289.462544 
L 111.840011 288.724713 
L 113.261466 288.396027 
L 114.682921 289.282942 
L 116.104376 278.218767 
L 118.947287 280.612814 
L 120.368742 282.339317 
L 121.790197 284.332098 
L 123.211653 285.589369 
L 124.633108 287.817757 
L 127.476019 288.358182 
L 128.897474 288.148679 
L 130.318929 289.033337 
L 131.740384 290.302604 
L 133.16184 289.802126 
L 134.583295 289.741352 
L 136.00475 290.49491 
L 137.426205 291.900698 
L 138.847661 292.057248 
L 141.690571 291.461157 
L 143.112026 292.503677 
L 144.533482 292.719858 
L 145.954937 293.21525 
L 147.376392 293.313372 
L 148.797847 292.850934 
L 150.219303 293.270981 
L 151.640758 293.145396 
L 153.062213 292.887779 
L 154.483668 293.89763 
L 155.905124 294.708222 
L 157.326579 294.174131 
L 160.169489 294.031078 
L 161.590945 294.902758 
L 163.0124 294.639284 
L 164.433855 294.72423 
L 167.276766 295.416536 
L 168.698221 294.911161 
L 170.119676 294.773615 
L 171.541131 295.101111 
L 172.962587 295.267943 
L 174.384042 296.000297 
L 175.805497 294.80533 
L 178.648408 295.66037 
L 180.069863 295.727326 
L 181.491318 296.132359 
L 182.912774 295.72271 
L 184.334229 295.978375 
L 185.755684 296.071884 
L 187.177139 295.793433 
L 188.598595 296.441771 
L 190.02005 296.147511 
L 191.441505 296.354895 
L 192.86296 296.274993 
L 195.705871 296.469022 
L 197.127326 296.640335 
L 198.548781 296.402861 
L 199.970237 297.260106 
L 201.391692 294.934361 
L 202.813147 296.447007 
L 204.234602 296.93802 
L 207.077513 297.153177 
L 208.498968 296.698784 
L 209.920423 296.463187 
L 211.341879 297.220135 
L 212.763334 297.104967 
L 214.184789 296.678601 
L 215.606244 296.771782 
L 217.0277 296.628868 
L 218.449155 295.987626 
L 219.87061 296.183445 
L 221.292065 296.203028 
L 222.713521 295.978214 
L 224.134976 295.339893 
L 225.556431 294.342505 
L 226.977886 294.176901 
L 228.399342 295.693392 
L 229.820797 296.015836 
L 232.663708 295.745366 
L 234.085163 295.973987 
L 235.506618 295.725911 
L 236.928073 296.166122 
L 238.349529 295.920737 
L 241.192439 295.963724 
L 242.613894 295.520503 
L 248.299715 296.053645 
L 249.721171 296.325606 
L 251.142626 295.937985 
L 252.564081 296.045589 
L 253.985536 295.820456 
L 255.406992 296.252962 
L 256.828447 296.839455 
L 258.249902 296.59701 
L 259.671357 295.874124 
L 261.092813 295.751641 
L 262.514268 296.362321 
L 263.935723 296.073525 
L 265.357178 296.371942 
L 266.778634 296.171926 
L 268.200089 296.363618 
L 271.042999 295.810239 
L 272.464455 296.954502 
L 275.307365 297.064262 
L 276.72882 296.726965 
L 278.150276 296.981342 
L 279.571731 296.709418 
L 280.993186 296.627921 
L 282.414642 296.367469 
L 283.836097 295.993737 
L 285.257552 296.386514 
L 288.100463 296.451395 
L 289.521918 297.001972 
L 290.943373 296.909267 
L 292.364828 296.306452 
L 293.786284 296.635566 
L 295.207739 296.50044 
L 296.629194 296.889856 
L 298.050649 296.938102 
L 299.472105 296.797769 
L 302.315015 297.224313 
L 303.73647 296.726866 
L 305.157926 296.917159 
L 310.843747 296.650858 
L 312.265202 297.244078 
L 313.686657 297.399574 
L 315.108112 297.173249 
L 316.529568 297.340321 
L 317.951023 296.784514 
L 319.372478 297.470444 
L 320.793933 297.31631 
L 323.636844 297.267102 
L 326.479754 297.717607 
L 327.90121 297.663962 
L 329.322665 297.298815 
L 330.74412 297.62648 
L 332.165576 297.640764 
L 333.587031 297.541331 
L 335.008486 297.987494 
L 336.429941 297.392712 
L 337.851397 297.651426 
L 340.694307 297.808207 
L 342.115762 297.520317 
L 343.537218 297.920398 
L 344.958673 297.63562 
L 346.380128 298.006174 
L 347.801583 297.725629 
L 349.223039 297.886404 
L 350.644494 297.224579 
L 352.065949 297.404503 
L 353.487404 297.43371 
L 354.90886 297.95112 
L 356.330315 297.821122 
L 357.75177 297.539543 
L 359.173225 297.765384 
L 360.594681 298.235929 
L 362.016136 298.047666 
L 363.437591 297.689777 
L 364.859046 298.0564 
L 366.280502 298.138677 
L 367.701957 297.882271 
L 369.123412 297.935444 
L 370.544867 297.716495 
L 371.966323 297.902906 
L 379.073599 298.0736 
L 380.495054 298.393281 
L 381.91651 297.877389 
L 384.75942 298.002617 
L 386.180875 297.873513 
L 389.023786 298.229742 
L 390.445241 298.071992 
L 391.866696 298.157824 
L 393.288152 297.896743 
L 394.709607 297.962876 
L 396.131062 297.745047 
L 397.552517 298.165926 
L 398.973973 297.997182 
L 400.395428 297.963246 
L 401.816883 298.17244 
L 404.659794 298.003064 
L 406.081249 298.234176 
L 408.924159 297.962497 
L 411.76707 298.328166 
L 413.188525 298.181138 
L 414.60998 298.301144 
L 416.031436 298.114424 
L 417.452891 298.564363 
L 418.874346 298.495876 
L 420.295801 298.145339 
L 421.717257 298.449707 
L 423.138712 298.409772 
L 424.560167 298.62438 
L 427.403078 298.513849 
L 431.667444 298.387236 
L 433.088899 298.114194 
L 434.510354 298.471709 
L 435.931809 298.222887 
L 437.353265 298.549295 
L 438.77472 298.326773 
L 440.196175 298.543041 
L 441.61763 298.391817 
L 444.460541 298.599481 
L 448.724907 298.415061 
L 450.146362 298.623009 
L 451.567817 298.515904 
L 454.410728 298.74854 
L 455.832183 298.568853 
L 458.675093 298.645931 
L 460.096549 298.595465 
L 461.518004 298.326202 
L 462.939459 298.798898 
L 465.78237 298.546502 
L 470.046735 298.77838 
L 471.468191 298.59701 
L 472.889646 298.617262 
L 474.311101 298.374662 
L 475.732556 298.329949 
L 477.154012 298.710454 
L 478.575467 298.442179 
L 479.996922 298.679091 
L 481.418378 298.676107 
L 482.839833 298.435032 
L 484.261288 297.875466 
L 485.682743 298.69388 
L 488.525654 298.737993 
L 489.947109 299.048286 
L 492.79002 298.933359 
L 494.211475 299.044527 
L 495.63293 299.018021 
L 497.054385 299.207494 
L 498.475841 299.05428 
L 499.897296 298.732994 
L 501.318751 298.910168 
L 502.740206 298.971157 
L 504.161662 298.642653 
L 505.583117 298.854192 
L 509.847483 299.10979 
L 511.268938 298.298811 
L 512.690393 298.900407 
L 514.111848 298.997036 
L 518.376214 298.928989 
L 519.797669 298.947915 
L 521.219125 298.809851 
L 522.64058 299.113715 
L 524.062035 298.80295 
L 526.904946 299.129294 
L 529.747856 299.213159 
L 532.590767 299.190652 
L 534.012222 299.022882 
L 535.433677 299.075787 
L 536.855133 298.87104 
L 538.276588 299.175544 
L 543.962409 299.190511 
L 545.383864 298.746607 
L 546.805319 299.353943 
L 548.226775 299.161465 
L 549.64823 297.894169 
L 551.069685 298.328892 
L 552.49114 298.890302 
L 553.912596 298.210259 
L 555.334051 299.091703 
L 556.755506 299.237195 
L 558.176961 298.458337 
L 559.598417 298.354103 
L 561.019872 299.253941 
L 562.441327 299.124263 
L 563.862782 299.357727 
L 565.284238 298.022372 
L 566.705693 298.859533 
L 568.127148 299.115725 
L 569.548603 298.99521 
L 570.970059 299.329461 
L 572.391514 299.063027 
L 573.812969 299.164133 
L 575.234424 298.201074 
L 576.65588 299.24919 
L 578.077335 299.045866 
L 579.49879 296.911596 
L 580.920246 297.584762 
L 582.341701 298.430405 
L 583.763156 297.535233 
L 585.184611 297.486728 
L 586.606067 298.65019 
L 588.027522 298.618728 
L 589.448977 298.804751 
L 590.870432 297.591068 
L 592.291888 298.340347 
L 593.713343 297.620396 
L 595.134798 298.355748 
L 597.977709 298.461422 
L 599.399164 298.466972 
L 600.820619 298.296128 
L 602.242074 297.18909 
L 603.66353 297.248888 
L 605.084985 297.724054 
L 606.50644 298.323765 
L 607.927895 298.327914 
L 609.349351 298.454797 
L 610.770806 296.354151 
L 612.192261 295.761052 
L 613.613716 294.947315 
L 615.035172 295.021199 
L 616.456627 295.604621 
L 617.878082 295.828527 
L 619.299537 294.356803 
L 620.720993 295.202602 
L 622.142448 294.471726 
L 623.563903 296.141977 
L 624.985358 296.040828 
L 626.406814 295.28202 
L 627.828269 295.988237 
L 629.249724 296.051441 
L 630.67118 295.627047 
L 632.092635 295.649358 
L 633.51409 295.392075 
L 634.935545 295.550388 
L 636.357001 296.060234 
L 637.778456 296.736495 
L 639.199911 295.848813 
L 640.621366 297.31829 
L 642.042822 294.614096 
L 643.464277 293.817816 
L 644.885732 294.634169 
L 646.307187 296.332403 
L 647.728643 295.74854 
L 649.150098 295.624067 
L 650.571553 296.271098 
L 651.993008 296.47492 
L 653.414464 296.222756 
L 654.835919 295.805345 
L 656.257374 299.015208 
L 657.678829 296.072084 
L 659.100285 296.668736 
L 660.52174 296.152519 
L 661.943195 296.997803 
L 663.36465 297.288181 
L 664.786106 296.003813 
L 666.207561 297.095621 
L 667.629016 297.227792 
L 669.050471 295.376022 
L 670.471927 296.871868 
L 671.893382 296.89651 
L 673.314837 296.420469 
L 677.579203 296.818637 
L 679.000658 296.983891 
L 680.422114 296.062767 
L 681.843569 296.976433 
L 683.265024 296.47843 
L 684.686479 297.016711 
L 686.107935 295.910569 
L 687.52939 295.972263 
L 688.950845 296.462092 
L 690.3723 296.603815 
L 691.793756 297.048646 
L 696.058121 297.224111 
L 697.479577 296.915381 
L 698.901032 296.912681 
L 700.322487 295.548437 
L 701.743942 296.749198 
L 703.165398 295.996464 
L 704.586853 296.437224 
L 706.008308 296.60554 
L 707.429763 294.733687 
L 708.851219 295.263366 
L 710.272674 296.901321 
L 711.694129 295.781023 
L 713.115584 296.85221 
L 714.53704 296.660568 
L 715.958495 295.536662 
L 717.37995 295.160553 
L 718.801405 295.998003 
L 720.222861 296.09321 
L 721.644316 297.034919 
L 723.065771 297.222749 
L 724.487226 296.762522 
L 725.908682 296.687403 
L 727.330137 296.327727 
L 728.751592 295.586849 
L 730.173048 296.359719 
L 731.594503 297.385686 
L 733.015958 295.554436 
L 734.437413 296.535748 
L 735.858869 296.298238 
L 738.701779 296.855753 
L 740.123234 296.658081 
L 741.54469 295.945253 
L 742.966145 296.365235 
L 744.3876 295.445545 
L 745.809055 297.170181 
L 747.230511 296.402952 
L 748.651966 297.444526 
L 750.073421 297.250106 
L 751.494876 296.671324 
L 752.916332 295.944136 
L 754.337787 297.456839 
L 755.759242 297.351319 
L 757.180697 296.259089 
L 758.602153 297.005735 
L 760.023608 295.730271 
L 761.445063 296.683716 
L 762.866518 296.799803 
L 764.287974 296.248001 
L 765.709429 296.258358 
L 767.130884 296.503518 
L 768.552339 296.165193 
L 769.973795 295.638616 
L 771.39525 296.048991 
L 772.816705 297.10458 
L 774.23816 295.731209 
L 775.659616 296.03217 
L 777.081071 297.263496 
L 778.502526 296.491363 
L 779.923981 295.851834 
L 781.345437 296.530792 
L 782.766892 296.64532 
L 784.188347 295.765247 
L 785.609803 296.577783 
L 787.031258 296.631746 
L 788.452713 296.217724 
L 789.874168 297.319609 
L 791.295624 297.424152 
L 792.717079 296.685906 
L 794.138534 296.882203 
L 795.559989 297.642231 
L 796.981445 295.950719 
L 798.4029 297.237233 
L 799.824355 296.815466 
L 801.24581 297.317111 
L 802.667266 297.249233 
L 804.088721 297.809795 
L 805.510176 296.705798 
L 806.931631 297.169787 
L 808.353087 297.22698 
L 809.774542 296.924746 
L 811.195997 297.602601 
L 812.617452 296.783269 
L 814.038908 295.265377 
L 816.881818 295.873236 
L 816.881818 295.873236 
" clip-path="url(#p510e65dfb5)" style="fill: none; stroke: #1f77b4; stroke-width: 1.6; stroke-linecap: square"/>
   </g>
   <g id="line2d_32">
    <path d="M 90.518182 60.88071 
L 91.939637 94.970671 
L 93.361092 99.692129 
L 94.782548 85.365006 
L 96.204003 81.812157 
L 97.625458 76.736581 
L 99.046913 76.708597 
L 100.468369 73.483597 
L 101.889824 72.539976 
L 103.311279 70.542745 
L 104.732734 70.280832 
L 106.15419 73.152334 
L 107.575645 69.70273 
L 108.9971 67.338333 
L 110.418555 65.685135 
L 111.840011 66.573851 
L 113.261466 66.889214 
L 114.682921 65.787709 
L 116.104376 66.866703 
L 117.525832 66.172613 
L 118.947287 66.367126 
L 120.368742 65.930875 
L 121.790197 66.062389 
L 123.211653 73.0838 
L 124.633108 75.198695 
L 126.054563 73.877734 
L 127.476019 73.632083 
L 128.897474 72.335072 
L 130.318929 73.773885 
L 131.740384 73.658372 
L 133.16184 72.961124 
L 134.583295 72.803124 
L 136.00475 73.052463 
L 137.426205 72.213211 
L 138.847661 72.619482 
L 140.269116 72.111758 
L 141.690571 72.259369 
L 143.112026 71.685689 
L 144.533482 72.834559 
L 145.954937 71.855163 
L 147.376392 72.014311 
L 148.797847 71.58318 
L 150.219303 72.175997 
L 151.640758 71.635503 
L 154.483668 71.502297 
L 155.905124 71.162997 
L 157.326579 71.503372 
L 158.748034 71.563483 
L 160.169489 70.648849 
L 161.590945 70.443504 
L 163.0124 65.49485 
L 164.433855 71.049446 
L 165.85531 70.782978 
L 167.276766 71.113623 
L 168.698221 70.868195 
L 170.119676 71.02515 
L 171.541131 70.828098 
L 172.962587 70.911132 
L 174.384042 64.435245 
L 175.805497 70.507527 
L 177.226952 70.826278 
L 178.648408 70.551561 
L 180.069863 70.089382 
L 181.491318 67.003123 
L 182.912774 70.528747 
L 185.755684 70.504355 
L 187.177139 70.190653 
L 188.598595 70.371982 
L 190.02005 70.034513 
L 191.441505 70.367311 
L 192.86296 69.119597 
L 194.284416 70.326352 
L 195.705871 70.287372 
L 197.127326 69.869815 
L 198.548781 69.776869 
L 199.970237 70.021622 
L 201.391692 68.647697 
L 202.813147 69.453707 
L 204.234602 69.870817 
L 205.656058 69.277223 
L 207.077513 69.311403 
L 208.498968 69.779535 
L 209.920423 66.551422 
L 211.341879 69.468027 
L 212.763334 69.77978 
L 214.184789 69.276056 
L 215.606244 68.516419 
L 217.0277 69.233422 
L 218.449155 65.329002 
L 219.87061 62.350146 
L 221.292065 68.249531 
L 222.713521 67.451438 
L 224.134976 67.850727 
L 225.556431 67.893452 
L 226.977886 67.557822 
L 228.399342 64.357107 
L 229.820797 67.185704 
L 231.242252 68.068474 
L 232.663708 67.461143 
L 234.085163 67.296999 
L 235.506618 63.80737 
L 236.928073 64.019158 
L 238.349529 64.588173 
L 239.770984 67.164032 
L 241.192439 65.421188 
L 242.613894 66.001232 
L 244.03535 64.411174 
L 245.456805 63.041172 
L 246.87826 64.302709 
L 248.299715 66.8876 
L 249.721171 66.309753 
L 251.142626 66.644495 
L 252.564081 63.355262 
L 253.985536 65.824834 
L 255.406992 64.042936 
L 256.828447 63.414642 
L 258.249902 64.798817 
L 259.671357 66.027847 
L 261.092813 63.10353 
L 262.514268 64.776158 
L 263.935723 64.239053 
L 265.357178 64.230255 
L 266.778634 66.452631 
L 268.200089 65.982378 
L 271.042999 64.049047 
L 272.464455 64.308563 
L 273.88591 64.988535 
L 275.307365 66.063667 
L 276.72882 64.450517 
L 278.150276 66.176889 
L 279.571731 66.301168 
L 280.993186 65.363538 
L 282.414642 63.313461 
L 283.836097 62.306709 
L 285.257552 63.924696 
L 289.521918 63.891513 
L 290.943373 63.38655 
L 292.364828 63.856382 
L 293.786284 63.943544 
L 296.629194 63.68313 
L 298.050649 63.771072 
L 299.472105 63.284505 
L 300.89356 63.347333 
L 302.315015 63.596936 
L 305.157926 64.660964 
L 306.579381 64.095479 
L 308.000836 62.866203 
L 309.422291 45.112273 
L 310.843747 64.4096 
L 312.265202 61.57698 
L 313.686657 63.595962 
L 315.108112 64.300479 
L 317.951023 64.209654 
L 319.372478 63.364507 
L 320.793933 64.38744 
L 322.215389 64.400401 
L 323.636844 64.548433 
L 326.479754 63.776798 
L 327.90121 64.805869 
L 329.322665 64.197846 
L 330.74412 64.62733 
L 332.165576 64.566426 
L 333.587031 64.166969 
L 335.008486 64.480034 
L 336.429941 63.028249 
L 337.851397 64.455338 
L 339.272852 64.747044 
L 340.694307 64.682828 
L 342.115762 63.765461 
L 343.537218 64.538433 
L 344.958673 64.996283 
L 346.380128 64.959192 
L 347.801583 64.579901 
L 349.223039 64.759905 
L 352.065949 64.556975 
L 353.487404 64.857153 
L 354.90886 65.001964 
L 357.75177 64.694548 
L 359.173225 64.900704 
L 360.594681 64.251143 
L 362.016136 64.597205 
L 363.437591 65.081604 
L 364.859046 65.047149 
L 367.701957 64.721007 
L 369.123412 64.966187 
L 370.544867 64.006871 
L 371.966323 64.51672 
L 373.387778 64.658385 
L 374.809233 64.49348 
L 376.230688 64.660772 
L 377.652144 64.608598 
L 379.073599 65.039334 
L 380.495054 64.001406 
L 381.91651 64.670758 
L 383.337965 64.764497 
L 384.75942 64.099776 
L 386.180875 64.04965 
L 387.602331 64.519969 
L 389.023786 64.798458 
L 390.445241 63.053371 
L 391.866696 64.982111 
L 393.288152 63.720485 
L 394.709607 64.295706 
L 396.131062 63.510082 
L 397.552517 64.694287 
L 398.973973 64.953122 
L 400.395428 64.900657 
L 401.816883 65.02092 
L 403.238338 64.123181 
L 404.659794 64.827537 
L 406.081249 65.08712 
L 407.502704 64.653922 
L 408.924159 65.180161 
L 410.345615 64.820053 
L 411.76707 64.251215 
L 413.188525 65.552889 
L 414.60998 65.325264 
L 416.031436 64.661039 
L 418.874346 64.179826 
L 420.295801 64.829889 
L 421.717257 64.680078 
L 423.138712 64.790913 
L 424.560167 65.227751 
L 425.981622 64.393295 
L 427.403078 64.935596 
L 428.824533 64.79122 
L 430.245988 65.270877 
L 431.667444 65.622015 
L 433.088899 65.162782 
L 434.510354 65.358034 
L 438.77472 65.14303 
L 440.196175 65.380052 
L 441.61763 65.067927 
L 443.039086 64.614106 
L 444.460541 64.816135 
L 445.881996 64.697421 
L 447.303451 65.000644 
L 448.724907 64.113061 
L 450.146362 64.730059 
L 451.567817 65.219178 
L 454.410728 64.741874 
L 455.832183 65.249146 
L 457.253638 64.865327 
L 460.096549 64.984809 
L 462.939459 64.559999 
L 464.360914 65.033401 
L 465.78237 64.95258 
L 467.203825 64.62091 
L 470.046735 64.368568 
L 471.468191 64.565702 
L 472.889646 64.517111 
L 474.311101 64.967106 
L 475.732556 65.113816 
L 477.154012 64.838135 
L 478.575467 65.086295 
L 479.996922 64.814835 
L 481.418378 64.944454 
L 484.261288 63.330072 
L 485.682743 64.757282 
L 487.104199 65.294359 
L 488.525654 64.425847 
L 489.947109 64.764424 
L 491.368564 64.975865 
L 492.79002 65.463116 
L 495.63293 65.06068 
L 497.054385 65.009678 
L 498.475841 65.224659 
L 499.897296 65.099528 
L 501.318751 65.204644 
L 502.740206 65.183104 
L 504.161662 64.313586 
L 505.583117 65.031061 
L 508.426027 65.380159 
L 509.847483 63.854127 
L 511.268938 62.759515 
L 512.690393 63.723209 
L 514.111848 65.092665 
L 515.533304 64.340363 
L 516.954759 64.254961 
L 518.376214 64.461756 
L 519.797669 64.448466 
L 522.64058 65.422008 
L 524.062035 64.302043 
L 525.48349 65.07151 
L 526.904946 64.942389 
L 528.326401 65.3562 
L 529.747856 64.388098 
L 531.169312 65.160587 
L 532.590767 65.437738 
L 534.012222 65.272639 
L 536.855133 65.207649 
L 538.276588 65.458431 
L 539.698043 65.020025 
L 541.119498 65.031375 
L 542.540954 65.251727 
L 543.962409 65.292166 
L 545.383864 65.12559 
L 546.805319 65.176368 
L 548.226775 65.476313 
L 549.64823 65.414708 
L 551.069685 64.798676 
L 552.49114 65.166337 
L 553.912596 64.187036 
L 555.334051 65.059651 
L 558.176961 65.236627 
L 559.598417 65.656293 
L 561.019872 65.194546 
L 562.441327 65.134828 
L 563.862782 63.901853 
L 565.284238 65.14883 
L 566.705693 65.373035 
L 568.127148 65.465218 
L 569.548603 64.966565 
L 570.970059 65.406536 
L 572.391514 65.205864 
L 573.812969 65.422194 
L 575.234424 64.717058 
L 576.65588 64.898014 
L 578.077335 64.724157 
L 579.49879 55.53988 
L 580.920246 66.226599 
L 582.341701 65.310034 
L 583.763156 65.367735 
L 586.606067 65.005489 
L 588.027522 65.077446 
L 589.448977 65.279913 
L 590.870432 65.663629 
L 592.291888 65.557477 
L 593.713343 65.154642 
L 596.556253 65.73484 
L 599.399164 64.649429 
L 600.820619 63.761274 
L 602.242074 64.877804 
L 603.66353 65.290656 
L 605.084985 64.508405 
L 606.50644 65.117518 
L 607.927895 64.052596 
L 609.349351 59.864877 
L 610.770806 60.196015 
L 612.192261 59.953559 
L 613.613716 59.525511 
L 615.035172 60.032556 
L 616.456627 59.496869 
L 617.878082 59.259535 
L 619.299537 59.736767 
L 622.142448 58.578303 
L 623.563903 59.260921 
L 627.828269 59.380026 
L 629.249724 58.672577 
L 630.67118 59.851594 
L 633.51409 59.710721 
L 634.935545 59.650324 
L 636.357001 58.746688 
L 637.778456 59.605198 
L 639.199911 59.045095 
L 640.621366 59.330819 
L 642.042822 58.04825 
L 643.464277 59.478364 
L 644.885732 59.750603 
L 646.307187 58.759514 
L 647.728643 59.515268 
L 649.150098 59.207886 
L 650.571553 59.931508 
L 651.993008 59.432114 
L 653.414464 57.707018 
L 654.835919 58.73567 
L 656.257374 60.608488 
L 657.678829 59.26556 
L 659.100285 60.012334 
L 660.52174 59.630483 
L 661.943195 60.087336 
L 663.36465 58.545084 
L 664.786106 60.098554 
L 667.629016 59.676255 
L 669.050471 60.101713 
L 670.471927 59.138097 
L 671.893382 59.503075 
L 673.314837 58.608712 
L 674.736292 59.70805 
L 676.157748 60.071124 
L 677.579203 59.194562 
L 679.000658 59.34622 
L 680.422114 60.013197 
L 683.265024 59.937712 
L 684.686479 59.75036 
L 686.107935 59.690455 
L 687.52939 59.969309 
L 688.950845 59.107377 
L 690.3723 60.505971 
L 693.215211 59.735048 
L 694.636666 60.523995 
L 697.479577 60.508582 
L 698.901032 59.662231 
L 700.322487 60.042073 
L 701.743942 59.78088 
L 703.165398 60.294983 
L 704.586853 59.730173 
L 706.008308 59.870157 
L 707.429763 59.739139 
L 708.851219 59.906547 
L 710.272674 58.845723 
L 713.115584 60.184052 
L 714.53704 59.96236 
L 715.958495 59.599416 
L 717.37995 59.773717 
L 718.801405 59.640693 
L 720.222861 59.844242 
L 721.644316 59.89491 
L 723.065771 59.14332 
L 724.487226 59.658805 
L 725.908682 59.420288 
L 727.330137 59.639484 
L 731.594503 59.561505 
L 733.015958 59.822217 
L 734.437413 59.173538 
L 735.858869 59.864435 
L 737.280324 59.311844 
L 738.701779 59.553844 
L 740.123234 58.528512 
L 741.54469 59.300703 
L 742.966145 59.282892 
L 744.3876 60.068635 
L 745.809055 60.351479 
L 747.230511 59.70051 
L 748.651966 60.193991 
L 750.073421 59.533725 
L 751.494876 59.804111 
L 752.916332 60.194924 
L 754.337787 60.44382 
L 755.759242 59.271989 
L 757.180697 60.00866 
L 758.602153 60.074538 
L 760.023608 59.960594 
L 761.445063 59.969334 
L 762.866518 59.794785 
L 764.287974 59.784812 
L 767.130884 59.417544 
L 768.552339 58.938601 
L 769.973795 59.77105 
L 771.39525 59.255257 
L 772.816705 59.120669 
L 774.23816 59.49785 
L 775.659616 59.046214 
L 777.081071 59.435736 
L 778.502526 59.625166 
L 779.923981 59.202813 
L 781.345437 59.67048 
L 782.766892 59.293366 
L 785.609803 60.006162 
L 787.031258 59.581879 
L 788.452713 60.616221 
L 789.874168 60.550702 
L 791.295624 60.188809 
L 792.717079 60.426304 
L 794.138534 60.889149 
L 795.559989 60.509734 
L 796.981445 60.816639 
L 798.4029 60.402104 
L 799.824355 60.818019 
L 802.667266 60.323845 
L 804.088721 60.260476 
L 805.510176 60.704694 
L 808.353087 60.552714 
L 809.774542 60.462609 
L 811.195997 60.254793 
L 812.617452 59.545586 
L 814.038908 58.214331 
L 815.460363 60.073297 
L 816.881818 59.784029 
L 816.881818 59.784029 
" clip-path="url(#p510e65dfb5)" style="fill: none; stroke: #ff7f0e; stroke-width: 1.6; stroke-linecap: square"/>
   </g>
   <g id="patch_3">
    <path d="M 54.2 312.07 
L 54.2 32.4 
" style="fill: none; stroke: #000000; stroke-width: 0.8; stroke-linejoin: miter; stroke-linecap: square"/>
   </g>
   <g id="patch_4">
    <path d="M 853.2 312.07 
L 853.2 32.4 
" style="fill: none; stroke: #000000; stroke-width: 0.8; stroke-linejoin: miter; stroke-linecap: square"/>
   </g>
   <g id="patch_5">
    <path d="M 54.2 312.07 
L 853.2 312.07 
" style="fill: none; stroke: #000000; stroke-width: 0.8; stroke-linejoin: miter; stroke-linecap: square"/>
   </g>
   <g id="patch_6">
    <path d="M 54.2 32.4 
L 853.2 32.4 
" style="fill: none; stroke: #000000; stroke-width: 0.8; stroke-linejoin: miter; stroke-linecap: square"/>
   </g>
   <g id="legend_1">
    <g id="patch_7">
     <path d="M 728.73125 188.413125 
L 846.2 188.413125 
Q 848.2 188.413125 848.2 186.413125 
L 848.2 158.056875 
Q 848.2 156.056875 846.2 156.056875 
L 728.73125 156.056875 
Q 726.73125 156.056875 726.73125 158.056875 
L 726.73125 186.413125 
Q 726.73125 188.413125 728.73125 188.413125 
z
" style="fill: #ffffff; opacity: 0.8; stroke: #cccccc; stroke-linejoin: miter"/>
    </g>
    <g id="line2d_33">
     <path d="M 730.73125 164.155312 
L 740.73125 164.155312 
L 750.73125 164.155312 
" style="fill: none; stroke: #1f77b4; stroke-width: 1.6; stroke-linecap: square"/>
    </g>
    <g id="text_8">
     <!-- pos SIMD canon -->
     <g transform="translate(758.73125 167.655312) scale(0.1 -0.1)">
      <defs>
       <path id="DejaVuSans-70" d="M 1159 525 
L 1159 -1331 
L 581 -1331 
L 581 3500 
L 1159 3500 
L 1159 2969 
Q 1341 3281 1617 3432 
Q 1894 3584 2278 3584 
Q 2916 3584 3314 3078 
Q 3713 2572 3713 1747 
Q 3713 922 3314 415 
Q 2916 -91 2278 -91 
Q 1894 -91 1617 61 
Q 1341 213 1159 525 
z
M 3116 1747 
Q 3116 2381 2855 2742 
Q 2594 3103 2138 3103 
Q 1681 3103 1420 2742 
Q 1159 2381 1159 1747 
Q 1159 1113 1420 752 
Q 1681 391 2138 391 
Q 2594 391 2855 752 
Q 3116 1113 3116 1747 
z
" transform="scale(0.015625)"/>
       <path id="DejaVuSans-6f" d="M 1959 3097 
Q 1497 3097 1228 2736 
Q 959 2375 959 1747 
Q 959 1119 1226 758 
Q 1494 397 1959 397 
Q 2419 397 2687 759 
Q 2956 1122 2956 1747 
Q 2956 2369 2687 2733 
Q 2419 3097 1959 3097 
z
M 1959 3584 
Q 2709 3584 3137 3096 
Q 3566 2609 3566 1747 
Q 3566 888 3137 398 
Q 2709 -91 1959 -91 
Q 1206 -91 779 398 
Q 353 888 353 1747 
Q 353 2609 779 3096 
Q 1206 3584 1959 3584 
z
" transform="scale(0.015625)"/>
       <path id="DejaVuSans-53" d="M 3425 4513 
L 3425 3897 
Q 3066 4069 2747 4153 
Q 2428 4238 2131 4238 
Q 1616 4238 1336 4038 
Q 1056 3838 1056 3469 
Q 1056 3159 1242 3001 
Q 1428 2844 1947 2747 
L 2328 2669 
Q 3034 2534 3370 2195 
Q 3706 1856 3706 1288 
Q 3706 609 3251 259 
Q 2797 -91 1919 -91 
Q 1588 -91 1214 -16 
Q 841 59 441 206 
L 441 856 
Q 825 641 1194 531 
Q 1563 422 1919 422 
Q 2459 422 2753 634 
Q 3047 847 3047 1241 
Q 3047 1584 2836 1778 
Q 2625 1972 2144 2069 
L 1759 2144 
Q 1053 2284 737 2584 
Q 422 2884 422 3419 
Q 422 4038 858 4394 
Q 1294 4750 2059 4750 
Q 2388 4750 2728 4690 
Q 3069 4631 3425 4513 
z
" transform="scale(0.015625)"/>
       <path id="DejaVuSans-49" d="M 628 4666 
L 1259 4666 
L 1259 0 
L 628 0 
L 628 4666 
z
" transform="scale(0.015625)"/>
       <path id="DejaVuSans-4d" d="M 628 4666 
L 1569 4666 
L 2759 1491 
L 3956 4666 
L 4897 4666 
L 4897 0 
L 4281 0 
L 4281 4097 
L 3078 897 
L 2444 897 
L 1241 4097 
L 1241 0 
L 628 0 
L 628 4666 
z
" transform="scale(0.015625)"/>
       <path id="DejaVuSans-44" d="M 1259 4147 
L 1259 519 
L 2022 519 
Q 2988 519 3436 956 
Q 3884 1394 3884 2338 
Q 3884 3275 3436 3711 
Q 2988 4147 2022 4147 
L 1259 4147 
z
M 628 4666 
L 1925 4666 
Q 3281 4666 3915 4102 
Q 4550 3538 4550 2338 
Q 4550 1131 3912 565 
Q 3275 0 1925 0 
L 628 0 
L 628 4666 
z
" transform="scale(0.015625)"/>
       <path id="DejaVuSans-63" d="M 3122 3366 
L 3122 2828 
Q 2878 2963 2633 3030 
Q 2388 3097 2138 3097 
Q 1578 3097 1268 2742 
Q 959 2388 959 1747 
Q 959 1106 1268 751 
Q 1578 397 2138 397 
Q 2388 397 2633 464 
Q 2878 531 3122 666 
L 3122 134 
Q 2881 22 2623 -34 
Q 2366 -91 2075 -91 
Q 1284 -91 818 406 
Q 353 903 353 1747 
Q 353 2603 823 3093 
Q 1294 3584 2113 3584 
Q 2378 3584 2631 3529 
Q 2884 3475 3122 3366 
z
" transform="scale(0.015625)"/>
       <path id="DejaVuSans-61" d="M 2194 1759 
Q 1497 1759 1228 1600 
Q 959 1441 959 1056 
Q 959 750 1161 570 
Q 1363 391 1709 391 
Q 2188 391 2477 730 
Q 2766 1069 2766 1631 
L 2766 1759 
L 2194 1759 
z
M 3341 1997 
L 3341 0 
L 2766 0 
L 2766 531 
Q 2569 213 2275 61 
Q 1981 -91 1556 -91 
Q 1019 -91 701 211 
Q 384 513 384 1019 
Q 384 1609 779 1909 
Q 1175 2209 1959 2209 
L 2766 2209 
L 2766 2266 
Q 2766 2663 2505 2880 
Q 2244 3097 1772 3097 
Q 1472 3097 1187 3025 
Q 903 2953 641 2809 
L 641 3341 
Q 956 3463 1253 3523 
Q 1550 3584 1831 3584 
Q 2591 3584 2966 3190 
Q 3341 2797 3341 1997 
z
" transform="scale(0.015625)"/>
      </defs>
      <use xlink:href="#DejaVuSans-70"/>
      <use xlink:href="#DejaVuSans-6f" transform="translate(63.476562 0)"/>
      <use xlink:href="#DejaVuSans-73" transform="translate(124.658203 0)"/>
      <use xlink:href="#DejaVuSans-20" transform="translate(176.757812 0)"/>
      <use xlink:href="#DejaVuSans-53" transform="translate(208.544922 0)"/>
      <use xlink:href="#DejaVuSans-49" transform="translate(272.021484 0)"/>
      <use xlink:href="#DejaVuSans-4d" transform="translate(301.513672 0)"/>
      <use xlink:href="#DejaVuSans-44" transform="translate(387.792969 0)"/>
      <use xlink:href="#DejaVuSans-20" transform="translate(464.794922 0)"/>
      <use xlink:href="#DejaVuSans-63" transform="translate(496.582031 0)"/>
      <use xlink:href="#DejaVuSans-61" transform="translate(551.5625 0)"/>
      <use xlink:href="#DejaVuSans-6e" transform="translate(612.841797 0)"/>
      <use xlink:href="#DejaVuSans-6f" transform="translate(676.220703 0)"/>
      <use xlink:href="#DejaVuSans-6e" transform="translate(737.402344 0)"/>
     </g>
    </g>
    <g id="line2d_34">
     <path d="M 730.73125 178.833438 
L 740.73125 178.833438 
L 750.73125 178.833438 
" style="fill: none; stroke: #ff7f0e; stroke-width: 1.6; stroke-linecap: square"/>
    </g>
    <g id="text_9">
     <!-- neg scalar canon -->
     <g transform="translate(758.73125 182.333438) scale(0.1 -0.1)">
      <defs>
       <path id="DejaVuSans-65" d="M 3597 1894 
L 3597 1613 
L 953 1613 
Q 991 1019 1311 708 
Q 1631 397 2203 397 
Q 2534 397 2845 478 
Q 3156 559 3463 722 
L 3463 178 
Q 3153 47 2828 -22 
Q 2503 -91 2169 -91 
Q 1331 -91 842 396 
Q 353 884 353 1716 
Q 353 2575 817 3079 
Q 1281 3584 2069 3584 
Q 2775 3584 3186 3129 
Q 3597 2675 3597 1894 
z
M 3022 2063 
Q 3016 2534 2758 2815 
Q 2500 3097 2075 3097 
Q 1594 3097 1305 2825 
Q 1016 2553 972 2059 
L 3022 2063 
z
" transform="scale(0.015625)"/>
       <path id="DejaVuSans-67" d="M 2906 1791 
Q 2906 2416 2648 2759 
Q 2391 3103 1925 3103 
Q 1463 3103 1205 2759 
Q 947 2416 947 1791 
Q 947 1169 1205 825 
Q 1463 481 1925 481 
Q 2391 481 2648 825 
Q 2906 1169 2906 1791 
z
M 3481 434 
Q 3481 -459 3084 -895 
Q 2688 -1331 1869 -1331 
Q 1566 -1331 1297 -1286 
Q 1028 -1241 775 -1147 
L 775 -588 
Q 1028 -725 1275 -790 
Q 1522 -856 1778 -856 
Q 2344 -856 2625 -561 
Q 2906 -266 2906 331 
L 2906 616 
Q 2728 306 2450 153 
Q 2172 0 1784 0 
Q 1141 0 747 490 
Q 353 981 353 1791 
Q 353 2603 747 3093 
Q 1141 3584 1784 3584 
Q 2172 3584 2450 3431 
Q 2728 3278 2906 2969 
L 2906 3500 
L 3481 3500 
L 3481 434 
z
" transform="scale(0.015625)"/>
       <path id="DejaVuSans-72" d="M 2631 2963 
Q 2534 3019 2420 3045 
Q 2306 3072 2169 3072 
Q 1681 3072 1420 2755 
Q 1159 2438 1159 1844 
L 1159 0 
L 581 0 
L 581 3500 
L 1159 3500 
L 1159 2956 
Q 1341 3275 1631 3429 
Q 1922 3584 2338 3584 
Q 2397 3584 2469 3576 
Q 2541 3569 2628 3553 
L 2631 2963 
z
" transform="scale(0.015625)"/>
      </defs>
      <use xlink:href="#DejaVuSans-6e"/>
      <use xlink:href="#DejaVuSans-65" transform="translate(63.378906 0)"/>
      <use xlink:href="#DejaVuSans-67" transform="translate(124.902344 0)"/>
      <use xlink:href="#DejaVuSans-20" transform="translate(188.378906 0)"/>
      <use xlink:href="#DejaVuSans-73" transform="translate(220.166016 0)"/>
      <use xlink:href="#DejaVuSans-63" transform="translate(272.265625 0)"/>
      <use xlink:href="#DejaVuSans-61" transform="translate(327.246094 0)"/>
      <use xlink:href="#DejaVuSans-6c" transform="translate(388.525391 0)"/>
      <use xlink:href="#DejaVuSans-61" transform="translate(416.308594 0)"/>
      <use xlink:href="#DejaVuSans-72" transform="translate(477.587891 0)"/>
      <use xlink:href="#DejaVuSans-20" transform="translate(518.701172 0)"/>
      <use xlink:href="#DejaVuSans-63" transform="translate(550.488281 0)"/>
      <use xlink:href="#DejaVuSans-61" transform="translate(605.46875 0)"/>
      <use xlink:href="#DejaVuSans-6e" transform="translate(666.748047 0)"/>
      <use xlink:href="#DejaVuSans-6f" transform="translate(730.126953 0)"/>
      <use xlink:href="#DejaVuSans-6e" transform="translate(791.308594 0)"/>
     </g>
    </g>
   </g>
  </g>
  <g id="axes_2">
   <g id="patch_8">
    <path d="M 54.2 606.04 
L 853.2 606.04 
L 853.2 326.37 
L 54.2 326.37 
z
" style="fill: #ffffff"/>
   </g>
   <g id="matplotlib.axis_3">
    <g id="xtick_10">
     <g id="line2d_35">
      <path d="M 89.096727 606.04 
L 89.096727 326.37 
" clip-path="url(#p8f6780b2c1)" style="fill: none; stroke: #b0b0b0; stroke-opacity: 0.25; stroke-width: 0.8; stroke-linecap: square"/>
     </g>
     <g id="line2d_36">
      <g>
       <use xlink:href="#mcf3a51618d" x="89.096727" y="606.04" style="stroke: #000000; stroke-width: 0.8"/>
      </g>
     </g>
     <g id="text_10">
      <!-- 0 -->
      <g transform="translate(85.915477 620.638438) scale(0.1 -0.1)">
       <use xlink:href="#DejaVuSans-30"/>
      </g>
     </g>
    </g>
    <g id="xtick_11">
     <g id="line2d_37">
      <path d="M 177.93768 606.04 
L 177.93768 326.37 
" clip-path="url(#p8f6780b2c1)" style="fill: none; stroke: #b0b0b0; stroke-opacity: 0.25; stroke-width: 0.8; stroke-linecap: square"/>
     </g>
     <g id="line2d_38">
      <g>
       <use xlink:href="#mcf3a51618d" x="177.93768" y="606.04" style="stroke: #000000; stroke-width: 0.8"/>
      </g>
     </g>
     <g id="text_11">
      <!-- 500 -->
      <g transform="translate(168.39393 620.638438) scale(0.1 -0.1)">
       <use xlink:href="#DejaVuSans-35"/>
       <use xlink:href="#DejaVuSans-30" transform="translate(63.623047 0)"/>
       <use xlink:href="#DejaVuSans-30" transform="translate(127.246094 0)"/>
      </g>
     </g>
    </g>
    <g id="xtick_12">
     <g id="line2d_39">
      <path d="M 266.778634 606.04 
L 266.778634 326.37 
" clip-path="url(#p8f6780b2c1)" style="fill: none; stroke: #b0b0b0; stroke-opacity: 0.25; stroke-width: 0.8; stroke-linecap: square"/>
     </g>
     <g id="line2d_40">
      <g>
       <use xlink:href="#mcf3a51618d" x="266.778634" y="606.04" style="stroke: #000000; stroke-width: 0.8"/>
      </g>
     </g>
     <g id="text_12">
      <!-- 1000 -->
      <g transform="translate(254.053634 620.638438) scale(0.1 -0.1)">
       <use xlink:href="#DejaVuSans-31"/>
       <use xlink:href="#DejaVuSans-30" transform="translate(63.623047 0)"/>
       <use xlink:href="#DejaVuSans-30" transform="translate(127.246094 0)"/>
       <use xlink:href="#DejaVuSans-30" transform="translate(190.869141 0)"/>
      </g>
     </g>
    </g>
    <g id="xtick_13">
     <g id="line2d_41">
      <path d="M 355.619587 606.04 
L 355.619587 326.37 
" clip-path="url(#p8f6780b2c1)" style="fill: none; stroke: #b0b0b0; stroke-opacity: 0.25; stroke-width: 0.8; stroke-linecap: square"/>
     </g>
     <g id="line2d_42">
      <g>
       <use xlink:href="#mcf3a51618d" x="355.619587" y="606.04" style="stroke: #000000; stroke-width: 0.8"/>
      </g>
     </g>
     <g id="text_13">
      <!-- 1500 -->
      <g transform="translate(342.894587 620.638438) scale(0.1 -0.1)">
       <use xlink:href="#DejaVuSans-31"/>
       <use xlink:href="#DejaVuSans-35" transform="translate(63.623047 0)"/>
       <use xlink:href="#DejaVuSans-30" transform="translate(127.246094 0)"/>
       <use xlink:href="#DejaVuSans-30" transform="translate(190.869141 0)"/>
      </g>
     </g>
    </g>
    <g id="xtick_14">
     <g id="line2d_43">
      <path d="M 444.460541 606.04 
L 444.460541 326.37 
" clip-path="url(#p8f6780b2c1)" style="fill: none; stroke: #b0b0b0; stroke-opacity: 0.25; stroke-width: 0.8; stroke-linecap: square"/>
     </g>
     <g id="line2d_44">
      <g>
       <use xlink:href="#mcf3a51618d" x="444.460541" y="606.04" style="stroke: #000000; stroke-width: 0.8"/>
      </g>
     </g>
     <g id="text_14">
      <!-- 2000 -->
      <g transform="translate(431.735541 620.638438) scale(0.1 -0.1)">
       <use xlink:href="#DejaVuSans-32"/>
       <use xlink:href="#DejaVuSans-30" transform="translate(63.623047 0)"/>
       <use xlink:href="#DejaVuSans-30" transform="translate(127.246094 0)"/>
       <use xlink:href="#DejaVuSans-30" transform="translate(190.869141 0)"/>
      </g>
     </g>
    </g>
    <g id="xtick_15">
     <g id="line2d_45">
      <path d="M 533.301494 606.04 
L 533.301494 326.37 
" clip-path="url(#p8f6780b2c1)" style="fill: none; stroke: #b0b0b0; stroke-opacity: 0.25; stroke-width: 0.8; stroke-linecap: square"/>
     </g>
     <g id="line2d_46">
      <g>
       <use xlink:href="#mcf3a51618d" x="533.301494" y="606.04" style="stroke: #000000; stroke-width: 0.8"/>
      </g>
     </g>
     <g id="text_15">
      <!-- 2500 -->
      <g transform="translate(520.576494 620.638438) scale(0.1 -0.1)">
       <use xlink:href="#DejaVuSans-32"/>
       <use xlink:href="#DejaVuSans-35" transform="translate(63.623047 0)"/>
       <use xlink:href="#DejaVuSans-30" transform="translate(127.246094 0)"/>
       <use xlink:href="#DejaVuSans-30" transform="translate(190.869141 0)"/>
      </g>
     </g>
    </g>
    <g id="xtick_16">
     <g id="line2d_47">
      <path d="M 622.142448 606.04 
L 622.142448 326.37 
" clip-path="url(#p8f6780b2c1)" style="fill: none; stroke: #b0b0b0; stroke-opacity: 0.25; stroke-width: 0.8; stroke-linecap: square"/>
     </g>
     <g id="line2d_48">
      <g>
       <use xlink:href="#mcf3a51618d" x="622.142448" y="606.04" style="stroke: #000000; stroke-width: 0.8"/>
      </g>
     </g>
     <g id="text_16">
      <!-- 3000 -->
      <g transform="translate(609.417448 620.638438) scale(0.1 -0.1)">
       <use xlink:href="#DejaVuSans-33"/>
       <use xlink:href="#DejaVuSans-30" transform="translate(63.623047 0)"/>
       <use xlink:href="#DejaVuSans-30" transform="translate(127.246094 0)"/>
       <use xlink:href="#DejaVuSans-30" transform="translate(190.869141 0)"/>
      </g>
     </g>
    </g>
    <g id="xtick_17">
     <g id="line2d_49">
      <path d="M 710.983402 606.04 
L 710.983402 326.37 
" clip-path="url(#p8f6780b2c1)" style="fill: none; stroke: #b0b0b0; stroke-opacity: 0.25; stroke-width: 0.8; stroke-linecap: square"/>
     </g>
     <g id="line2d_50">
      <g>
       <use xlink:href="#mcf3a51618d" x="710.983402" y="606.04" style="stroke: #000000; stroke-width: 0.8"/>
      </g>
     </g>
     <g id="text_17">
      <!-- 3500 -->
      <g transform="translate(698.258402 620.638438) scale(0.1 -0.1)">
       <use xlink:href="#DejaVuSans-33"/>
       <use xlink:href="#DejaVuSans-35" transform="translate(63.623047 0)"/>
       <use xlink:href="#DejaVuSans-30" transform="translate(127.246094 0)"/>
       <use xlink:href="#DejaVuSans-30" transform="translate(190.869141 0)"/>
      </g>
     </g>
    </g>
    <g id="xtick_18">
     <g id="line2d_51">
      <path d="M 799.824355 606.04 
L 799.824355 326.37 
" clip-path="url(#p8f6780b2c1)" style="fill: none; stroke: #b0b0b0; stroke-opacity: 0.25; stroke-width: 0.8; stroke-linecap: square"/>
     </g>
     <g id="line2d_52">
      <g>
       <use xlink:href="#mcf3a51618d" x="799.824355" y="606.04" style="stroke: #000000; stroke-width: 0.8"/>
      </g>
     </g>
     <g id="text_18">
      <!-- 4000 -->
      <g transform="translate(787.099355 620.638438) scale(0.1 -0.1)">
       <use xlink:href="#DejaVuSans-34"/>
       <use xlink:href="#DejaVuSans-30" transform="translate(63.623047 0)"/>
       <use xlink:href="#DejaVuSans-30" transform="translate(127.246094 0)"/>
       <use xlink:href="#DejaVuSans-30" transform="translate(190.869141 0)"/>
      </g>
     </g>
    </g>
    <g id="text_19">
     <!-- u52 limbs -->
     <g transform="translate(429.152344 634.316563) scale(0.1 -0.1)">
      <defs>
       <path id="DejaVuSans-75" d="M 544 1381 
L 544 3500 
L 1119 3500 
L 1119 1403 
Q 1119 906 1312 657 
Q 1506 409 1894 409 
Q 2359 409 2629 706 
Q 2900 1003 2900 1516 
L 2900 3500 
L 3475 3500 
L 3475 0 
L 2900 0 
L 2900 538 
Q 2691 219 2414 64 
Q 2138 -91 1772 -91 
Q 1169 -91 856 284 
Q 544 659 544 1381 
z
M 1991 3584 
L 1991 3584 
z
" transform="scale(0.015625)"/>
      </defs>
      <use xlink:href="#DejaVuSans-75"/>
      <use xlink:href="#DejaVuSans-35" transform="translate(63.378906 0)"/>
      <use xlink:href="#DejaVuSans-32" transform="translate(127.001953 0)"/>
      <use xlink:href="#DejaVuSans-20" transform="translate(190.625 0)"/>
      <use xlink:href="#DejaVuSans-6c" transform="translate(222.412109 0)"/>
      <use xlink:href="#DejaVuSans-69" transform="translate(250.195312 0)"/>
      <use xlink:href="#DejaVuSans-6d" transform="translate(277.978516 0)"/>
      <use xlink:href="#DejaVuSans-62" transform="translate(375.390625 0)"/>
      <use xlink:href="#DejaVuSans-73" transform="translate(438.867188 0)"/>
     </g>
    </g>
   </g>
   <g id="matplotlib.axis_4">
    <g id="ytick_7">
     <g id="line2d_53">
      <path d="M 54.2 554.348908 
L 853.2 554.348908 
" clip-path="url(#p8f6780b2c1)" style="fill: none; stroke: #b0b0b0; stroke-opacity: 0.25; stroke-width: 0.8; stroke-linecap: square"/>
     </g>
     <g id="line2d_54">
      <g>
       <use xlink:href="#m282c47a1d0" x="54.2" y="554.348908" style="stroke: #000000; stroke-width: 0.8"/>
      </g>
     </g>
     <g id="text_20">
      <!-- 1.5 -->
      <g transform="translate(31.296875 558.148127) scale(0.1 -0.1)">
       <use xlink:href="#DejaVuSans-31"/>
       <use xlink:href="#DejaVuSans-2e" transform="translate(63.623047 0)"/>
       <use xlink:href="#DejaVuSans-35" transform="translate(95.410156 0)"/>
      </g>
     </g>
    </g>
    <g id="ytick_8">
     <g id="line2d_55">
      <path d="M 54.2 499.132486 
L 853.2 499.132486 
" clip-path="url(#p8f6780b2c1)" style="fill: none; stroke: #b0b0b0; stroke-opacity: 0.25; stroke-width: 0.8; stroke-linecap: square"/>
     </g>
     <g id="line2d_56">
      <g>
       <use xlink:href="#m282c47a1d0" x="54.2" y="499.132486" style="stroke: #000000; stroke-width: 0.8"/>
      </g>
     </g>
     <g id="text_21">
      <!-- 2.0 -->
      <g transform="translate(31.296875 502.931704) scale(0.1 -0.1)">
       <use xlink:href="#DejaVuSans-32"/>
       <use xlink:href="#DejaVuSans-2e" transform="translate(63.623047 0)"/>
       <use xlink:href="#DejaVuSans-30" transform="translate(95.410156 0)"/>
      </g>
     </g>
    </g>
    <g id="ytick_9">
     <g id="line2d_57">
      <path d="M 54.2 443.916063 
L 853.2 443.916063 
" clip-path="url(#p8f6780b2c1)" style="fill: none; stroke: #b0b0b0; stroke-opacity: 0.25; stroke-width: 0.8; stroke-linecap: square"/>
     </g>
     <g id="line2d_58">
      <g>
       <use xlink:href="#m282c47a1d0" x="54.2" y="443.916063" style="stroke: #000000; stroke-width: 0.8"/>
      </g>
     </g>
     <g id="text_22">
      <!-- 2.5 -->
      <g transform="translate(31.296875 447.715281) scale(0.1 -0.1)">
       <use xlink:href="#DejaVuSans-32"/>
       <use xlink:href="#DejaVuSans-2e" transform="translate(63.623047 0)"/>
       <use xlink:href="#DejaVuSans-35" transform="translate(95.410156 0)"/>
      </g>
     </g>
    </g>
    <g id="ytick_10">
     <g id="line2d_59">
      <path d="M 54.2 388.69964 
L 853.2 388.69964 
" clip-path="url(#p8f6780b2c1)" style="fill: none; stroke: #b0b0b0; stroke-opacity: 0.25; stroke-width: 0.8; stroke-linecap: square"/>
     </g>
     <g id="line2d_60">
      <g>
       <use xlink:href="#m282c47a1d0" x="54.2" y="388.69964" style="stroke: #000000; stroke-width: 0.8"/>
      </g>
     </g>
     <g id="text_23">
      <!-- 3.0 -->
      <g transform="translate(31.296875 392.498859) scale(0.1 -0.1)">
       <use xlink:href="#DejaVuSans-33"/>
       <use xlink:href="#DejaVuSans-2e" transform="translate(63.623047 0)"/>
       <use xlink:href="#DejaVuSans-30" transform="translate(95.410156 0)"/>
      </g>
     </g>
    </g>
    <g id="ytick_11">
     <g id="line2d_61">
      <path d="M 54.2 333.483217 
L 853.2 333.483217 
" clip-path="url(#p8f6780b2c1)" style="fill: none; stroke: #b0b0b0; stroke-opacity: 0.25; stroke-width: 0.8; stroke-linecap: square"/>
     </g>
     <g id="line2d_62">
      <g>
       <use xlink:href="#m282c47a1d0" x="54.2" y="333.483217" style="stroke: #000000; stroke-width: 0.8"/>
      </g>
     </g>
     <g id="text_24">
      <!-- 3.5 -->
      <g transform="translate(31.296875 337.282436) scale(0.1 -0.1)">
       <use xlink:href="#DejaVuSans-33"/>
       <use xlink:href="#DejaVuSans-2e" transform="translate(63.623047 0)"/>
       <use xlink:href="#DejaVuSans-35" transform="translate(95.410156 0)"/>
      </g>
     </g>
    </g>
    <g id="text_25">
     <!-- ratio -->
     <g transform="translate(25.217188 477.733125) rotate(-90) scale(0.1 -0.1)">
      <defs>
       <path id="DejaVuSans-74" d="M 1172 4494 
L 1172 3500 
L 2356 3500 
L 2356 3053 
L 1172 3053 
L 1172 1153 
Q 1172 725 1289 603 
Q 1406 481 1766 481 
L 2356 481 
L 2356 0 
L 1766 0 
Q 1100 0 847 248 
Q 594 497 594 1153 
L 594 3053 
L 172 3053 
L 172 3500 
L 594 3500 
L 594 4494 
L 1172 4494 
z
" transform="scale(0.015625)"/>
      </defs>
      <use xlink:href="#DejaVuSans-72"/>
      <use xlink:href="#DejaVuSans-61" transform="translate(41.113281 0)"/>
      <use xlink:href="#DejaVuSans-74" transform="translate(102.392578 0)"/>
      <use xlink:href="#DejaVuSans-69" transform="translate(141.601562 0)"/>
      <use xlink:href="#DejaVuSans-6f" transform="translate(169.384766 0)"/>
     </g>
    </g>
   </g>
   <g id="line2d_63">
    <path d="M 54.2 499.132486 
L 853.2 499.132486 
" clip-path="url(#p8f6780b2c1)" style="fill: none; stroke: #000000; stroke-opacity: 0.5; stroke-width: 0.9; stroke-linecap: square"/>
   </g>
   <g id="line2d_64">
    <path d="M 90.518182 593.327727 
L 93.361092 511.348346 
L 94.782548 474.292273 
L 96.204003 461.466824 
L 97.625458 441.504982 
L 99.046913 429.567192 
L 100.468369 427.270189 
L 101.889824 413.542392 
L 103.311279 401.351048 
L 104.732734 401.008706 
L 106.15419 398.890825 
L 107.575645 389.881934 
L 108.9971 385.412717 
L 110.418555 385.252368 
L 111.840011 388.364255 
L 113.261466 389.657313 
L 114.682921 385.899836 
L 116.104376 417.327146 
L 117.525832 413.803676 
L 118.947287 410.775387 
L 121.790197 400.508776 
L 123.211653 403.78576 
L 124.633108 399.572527 
L 126.054563 397.534157 
L 127.476019 396.461523 
L 128.897474 395.78479 
L 130.318929 394.628117 
L 131.740384 390.734034 
L 133.16184 391.533347 
L 134.583295 391.556206 
L 136.00475 389.540696 
L 137.426205 384.368243 
L 138.847661 384.296903 
L 140.269116 384.752439 
L 141.690571 385.779243 
L 143.112026 381.935297 
L 144.533482 382.438429 
L 145.954937 379.850656 
L 147.376392 379.702124 
L 148.797847 380.729922 
L 150.219303 380.005593 
L 151.640758 379.846018 
L 153.062213 380.614078 
L 154.483668 377.286957 
L 155.905124 374.28219 
L 157.326579 376.38947 
L 158.748034 376.760193 
L 160.169489 375.961322 
L 161.590945 372.881349 
L 163.0124 368.547302 
L 164.433855 374.109915 
L 165.85531 372.630998 
L 167.276766 371.880165 
L 168.698221 373.301326 
L 170.119676 373.921406 
L 171.541131 372.62901 
L 172.962587 372.161548 
L 174.384042 362.802475 
L 175.805497 373.271398 
L 177.226952 372.129523 
L 178.648408 370.466735 
L 180.069863 369.750247 
L 181.491318 365.086668 
L 182.912774 370.232839 
L 184.334229 369.352137 
L 185.755684 369.027464 
L 187.177139 369.635066 
L 188.598595 367.627728 
L 190.02005 368.269563 
L 191.441505 367.91916 
L 192.86296 366.858232 
L 194.284416 367.859195 
L 195.705871 367.444078 
L 197.127326 366.409985 
L 198.548781 367.123933 
L 199.970237 364.433016 
L 201.391692 370.882405 
L 202.813147 366.627096 
L 204.234602 365.386051 
L 205.656058 364.504356 
L 207.077513 364.03866 
L 208.498968 366.112258 
L 209.920423 363.465072 
L 211.341879 363.97483 
L 212.763334 364.710534 
L 214.184789 365.641593 
L 215.606244 364.505018 
L 217.0277 365.767045 
L 218.449155 363.798469 
L 219.87061 359.944252 
L 221.292065 366.174984 
L 222.713521 366.092049 
L 224.134976 368.680926 
L 225.556431 372.053766 
L 226.977886 372.24868 
L 228.399342 363.774174 
L 229.820797 365.680355 
L 231.242252 366.962922 
L 232.663708 366.895668 
L 234.085163 365.94197 
L 235.506618 363.078447 
L 236.928073 361.785941 
L 238.349529 363.239347 
L 239.770984 365.973885 
L 241.192439 363.978806 
L 242.613894 366.109718 
L 245.456805 361.968265 
L 246.87826 362.76813 
L 248.299715 365.233212 
L 249.721171 363.68152 
L 251.142626 365.369928 
L 252.564081 361.49495 
L 253.985536 364.899484 
L 255.406992 361.510411 
L 256.828447 358.790008 
L 258.249902 361.123564 
L 259.671357 364.931952 
L 261.092813 362.241807 
L 262.514268 361.914816 
L 263.935723 362.340755 
L 265.357178 361.297717 
L 266.778634 364.363333 
L 268.200089 363.200254 
L 271.042999 363.045648 
L 272.464455 359.3467 
L 275.307365 360.850464 
L 276.72882 360.296533 
L 279.571731 362.343516 
L 280.993186 361.621285 
L 282.414642 360.332755 
L 283.836097 360.557044 
L 285.257552 360.920258 
L 286.679007 360.633574 
L 288.100463 360.71165 
L 289.521918 358.731147 
L 290.943373 358.514368 
L 292.364828 361.125442 
L 293.786284 360.072133 
L 295.207739 360.355725 
L 296.629194 358.901435 
L 299.472105 358.796744 
L 300.89356 358.131497 
L 302.315015 357.629138 
L 303.73647 359.941602 
L 305.157926 359.856789 
L 306.579381 359.392309 
L 308.000836 358.062255 
L 309.422291 339.082273 
L 310.843747 360.518503 
L 312.265202 355.380504 
L 315.108112 358.568038 
L 316.529568 357.98186 
L 317.951023 359.83658 
L 319.372478 356.504821 
L 320.793933 358.156565 
L 323.636844 358.504208 
L 326.479754 356.070047 
L 327.90121 357.376026 
L 329.322665 358.013775 
L 330.74412 357.31595 
L 333.587031 357.120484 
L 335.008486 355.867844 
L 337.851397 357.040973 
L 339.272852 357.136276 
L 340.694307 356.728889 
L 342.115762 356.760915 
L 343.537218 356.171424 
L 344.958673 357.682919 
L 346.380128 356.321613 
L 347.801583 356.911766 
L 349.223039 356.533313 
L 350.644494 358.72165 
L 352.065949 358.027469 
L 353.487404 358.248445 
L 354.90886 356.564897 
L 356.330315 356.821653 
L 357.75177 357.697496 
L 359.173225 357.117834 
L 360.594681 354.7263 
L 362.016136 355.779498 
L 363.437591 357.582866 
L 364.859046 356.237353 
L 366.280502 355.726159 
L 367.701957 356.505925 
L 369.123412 356.582124 
L 370.544867 356.32338 
L 376.230688 355.840126 
L 377.652144 355.245997 
L 379.073599 356.167228 
L 380.495054 353.886237 
L 381.91651 356.46882 
L 383.337965 356.242874 
L 384.75942 355.400382 
L 386.180875 355.808652 
L 387.602331 355.750565 
L 389.023786 355.344724 
L 390.445241 354.013566 
L 391.866696 355.80302 
L 393.288152 355.368136 
L 394.709607 355.755755 
L 396.131062 355.68298 
L 397.552517 355.460678 
L 398.973973 356.347123 
L 400.395428 356.411505 
L 403.238338 355.13954 
L 404.659794 356.189646 
L 406.081249 355.643114 
L 407.502704 355.661445 
L 408.924159 356.717846 
L 410.345615 355.631739 
L 411.76707 354.393787 
L 413.188525 356.340607 
L 414.60998 355.661887 
L 416.031436 355.609432 
L 417.452891 353.699164 
L 418.874346 353.709655 
L 420.295801 355.682207 
L 421.717257 354.42272 
L 423.138712 354.687869 
L 424.560167 354.389369 
L 425.981622 353.843279 
L 427.403078 354.469875 
L 428.824533 354.407812 
L 430.245988 354.958099 
L 431.667444 355.675691 
L 433.088899 356.156074 
L 434.510354 355.083329 
L 435.931809 355.86155 
L 437.353265 354.452427 
L 438.77472 355.371007 
L 440.196175 354.849874 
L 441.61763 355.054838 
L 443.039086 354.07828 
L 445.881996 354.072648 
L 447.303451 354.453973 
L 448.724907 353.929196 
L 450.146362 353.850126 
L 451.567817 354.77224 
L 452.989272 353.974473 
L 454.410728 353.407511 
L 455.832183 354.613548 
L 457.253638 353.984412 
L 458.675093 353.959786 
L 460.096549 354.228469 
L 461.518004 354.942528 
L 462.939459 353.025193 
L 464.360914 354.034217 
L 465.78237 354.370375 
L 468.62528 352.938171 
L 470.046735 352.890244 
L 471.468191 353.764761 
L 472.889646 353.638205 
L 474.311101 355.006689 
L 475.732556 355.327717 
L 477.154012 353.651126 
L 478.575467 354.893275 
L 479.996922 353.739472 
L 481.418378 353.89209 
L 482.839833 353.84858 
L 484.261288 355.020714 
L 485.682743 353.622855 
L 487.104199 354.185731 
L 488.525654 353.099956 
L 489.947109 352.339736 
L 491.368564 352.776498 
L 492.79002 353.525674 
L 494.211475 352.870145 
L 495.63293 352.775504 
L 497.054385 352.026659 
L 498.475841 352.823211 
L 499.897296 353.855427 
L 501.318751 353.326564 
L 502.740206 353.080851 
L 504.161662 353.323472 
L 507.004572 353.344343 
L 508.426027 353.253678 
L 509.847483 351.114815 
L 511.268938 352.87412 
L 512.690393 351.737987 
L 514.111848 352.887262 
L 515.533304 352.232174 
L 516.954759 352.271267 
L 518.376214 352.443432 
L 519.797669 352.359724 
L 521.219125 353.427499 
L 522.64058 352.82288 
L 524.062035 352.727907 
L 525.48349 352.932871 
L 526.904946 352.239021 
L 528.326401 352.40964 
L 529.747856 351.322318 
L 531.169312 352.056365 
L 534.012222 352.990406 
L 535.433677 352.755405 
L 536.855133 353.472335 
L 538.276588 352.636911 
L 539.698043 352.201916 
L 541.119498 352.086624 
L 542.540954 352.489814 
L 543.962409 352.39937 
L 545.383864 353.834555 
L 546.805319 351.672832 
L 548.226775 352.70814 
L 549.64823 357.21634 
L 551.069685 354.988026 
L 552.49114 353.356933 
L 553.912596 354.748939 
L 555.334051 352.505275 
L 556.755506 352.102637 
L 558.176961 354.999069 
L 559.598417 355.832285 
L 561.019872 352.059678 
L 562.441327 352.468832 
L 563.862782 350.255205 
L 565.284238 356.469703 
L 566.705693 353.695409 
L 568.127148 352.863077 
L 569.548603 352.755516 
L 570.970059 352.016057 
L 572.391514 352.770645 
L 573.812969 352.638898 
L 575.234424 355.35908 
L 576.65588 351.750908 
L 578.077335 352.304397 
L 579.49879 350.070341 
L 580.920246 359.194965 
L 582.341701 355.179848 
L 583.763156 358.44104 
L 585.184611 358.460587 
L 586.606067 354.05277 
L 588.027522 354.245475 
L 589.448977 353.79237 
L 590.870432 358.5634 
L 592.291888 355.773976 
L 593.713343 357.908423 
L 595.134798 355.550571 
L 596.556253 355.594854 
L 599.399164 354.326864 
L 600.820619 353.975467 
L 602.242074 359.134558 
L 603.66353 359.369007 
L 605.084985 356.839874 
L 606.50644 355.354 
L 607.927895 354.178222 
L 609.349351 349.148668 
L 610.770806 357.045721 
L 612.192261 358.860354 
L 613.613716 361.216107 
L 615.035172 361.497932 
L 616.456627 358.918662 
L 617.878082 357.88733 
L 619.299537 363.450164 
L 620.720993 359.898422 
L 622.142448 361.843918 
L 623.563903 356.792057 
L 624.985358 357.205297 
L 626.406814 359.921503 
L 627.828269 357.457746 
L 629.249724 356.482182 
L 630.67118 359.217493 
L 632.092635 359.117441 
L 633.51409 359.881416 
L 634.935545 359.269618 
L 636.357001 356.530331 
L 637.778456 355.06301 
L 639.199911 357.588388 
L 640.621366 352.691685 
L 642.042822 360.80099 
L 643.464277 364.996665 
L 644.885732 362.522859 
L 646.307187 355.586462 
L 647.728643 358.437948 
L 649.150098 358.544295 
L 650.571553 357.054777 
L 651.993008 355.80302 
L 653.414464 354.848881 
L 654.835919 357.410923 
L 656.257374 347.899231 
L 657.678829 357.042077 
L 659.100285 355.739742 
L 660.52174 357.149418 
L 663.36465 351.951896 
L 664.786106 358.168934 
L 666.207561 354.109422 
L 667.629016 353.388737 
L 669.050471 360.351087 
L 670.471927 354.080268 
L 671.893382 354.384731 
L 673.314837 355.11414 
L 674.736292 355.692919 
L 676.157748 355.764258 
L 677.579203 354.330288 
L 679.000658 353.90479 
L 680.422114 357.87198 
L 681.843569 354.613106 
L 683.265024 356.331883 
L 684.686479 354.222616 
L 686.107935 358.059716 
L 687.52939 358.141325 
L 688.950845 355.500766 
L 690.3723 356.498416 
L 691.793756 354.459826 
L 693.215211 353.850788 
L 694.636666 354.220186 
L 696.058121 354.361872 
L 697.479577 355.398615 
L 698.901032 354.498367 
L 700.322487 359.692023 
L 701.743942 355.206462 
L 703.165398 358.403935 
L 704.586853 356.255022 
L 706.008308 355.810861 
L 707.429763 362.171683 
L 708.851219 360.532749 
L 710.272674 353.661065 
L 711.694129 358.34154 
L 713.115584 355.274047 
L 714.53704 355.715116 
L 715.958495 359.263213 
L 717.37995 360.746105 
L 718.801405 357.701251 
L 720.222861 357.585296 
L 721.644316 354.313281 
L 723.065771 352.832156 
L 724.487226 355.028223 
L 725.908682 355.038604 
L 727.330137 356.543583 
L 728.751592 359.103637 
L 730.173048 356.355405 
L 731.594503 352.698643 
L 733.015958 359.438028 
L 734.437413 355.311152 
L 735.858869 356.887802 
L 737.280324 355.478458 
L 738.701779 354.584283 
L 740.123234 354.186173 
L 741.54469 357.523454 
L 742.966145 356.030291 
L 744.3876 360.075998 
L 745.809055 354.322668 
L 747.230511 356.344031 
L 748.651966 353.170743 
L 750.073421 353.155172 
L 751.494876 355.507281 
L 752.916332 358.479802 
L 754.337787 353.396578 
L 755.759242 352.509471 
L 757.180697 357.179345 
L 758.602153 354.610566 
L 760.023608 358.974873 
L 761.445063 355.640684 
L 762.866518 355.041917 
L 764.287974 356.97913 
L 765.709429 356.749209 
L 767.130884 355.686403 
L 768.552339 356.366559 
L 769.973795 359.091821 
L 771.39525 357.112091 
L 772.816705 353.230929 
L 774.23816 358.479802 
L 775.659616 356.948098 
L 777.081071 353.001449 
L 778.502526 355.951663 
L 779.923981 357.745645 
L 781.345437 355.860998 
L 782.766892 355.051635 
L 784.188347 358.561633 
L 785.609803 356.054697 
L 787.031258 355.409106 
L 788.452713 357.973247 
L 789.874168 354.003628 
L 791.295624 353.238217 
L 792.717079 356.123165 
L 794.138534 355.92538 
L 795.559989 352.801456 
L 796.981445 359.119098 
L 798.4029 354.137803 
L 799.824355 356.085287 
L 801.24581 354.048242 
L 802.667266 354.010474 
L 804.088721 351.926938 
L 805.510176 356.35143 
L 806.931631 354.680691 
L 808.353087 354.336803 
L 809.774542 355.316011 
L 811.195997 352.668163 
L 812.617452 354.832978 
L 814.038908 358.735233 
L 815.460363 359.468397 
L 816.881818 358.289526 
L 816.881818 358.289526 
" clip-path="url(#p8f6780b2c1)" style="fill: none; stroke: #1f77b4; stroke-width: 1.8; stroke-linecap: square"/>
   </g>
   <g id="patch_9">
    <path d="M 54.2 606.04 
L 54.2 326.37 
" style="fill: none; stroke: #000000; stroke-width: 0.8; stroke-linejoin: miter; stroke-linecap: square"/>
   </g>
   <g id="patch_10">
    <path d="M 853.2 606.04 
L 853.2 326.37 
" style="fill: none; stroke: #000000; stroke-width: 0.8; stroke-linejoin: miter; stroke-linecap: square"/>
   </g>
   <g id="patch_11">
    <path d="M 54.2 606.04 
L 853.2 606.04 
" style="fill: none; stroke: #000000; stroke-width: 0.8; stroke-linejoin: miter; stroke-linecap: square"/>
   </g>
   <g id="patch_12">
    <path d="M 54.2 326.37 
L 853.2 326.37 
" style="fill: none; stroke: #000000; stroke-width: 0.8; stroke-linejoin: miter; stroke-linecap: square"/>
   </g>
   <g id="legend_2">
    <g id="patch_13">
     <path d="M 676.673437 601.04 
L 846.2 601.04 
Q 848.2 601.04 848.2 599.04 
L 848.2 570.68375 
Q 848.2 568.68375 846.2 568.68375 
L 676.673437 568.68375 
Q 674.673437 568.68375 674.673437 570.68375 
L 674.673437 599.04 
Q 674.673437 601.04 676.673437 601.04 
z
" style="fill: #ffffff; opacity: 0.8; stroke: #cccccc; stroke-linejoin: miter"/>
    </g>
    <g id="line2d_65">
     <path d="M 678.673437 576.782187 
L 688.673437 576.782187 
L 698.673437 576.782187 
" style="fill: none; stroke: #000000; stroke-opacity: 0.5; stroke-width: 0.9; stroke-linecap: square"/>
    </g>
    <g id="text_26">
     <!-- 2x threshold -->
     <g transform="translate(706.673437 580.282187) scale(0.1 -0.1)">
      <defs>
       <path id="DejaVuSans-78" d="M 3513 3500 
L 2247 1797 
L 3578 0 
L 2900 0 
L 1881 1375 
L 863 0 
L 184 0 
L 1544 1831 
L 300 3500 
L 978 3500 
L 1906 2253 
L 2834 3500 
L 3513 3500 
z
" transform="scale(0.015625)"/>
       <path id="DejaVuSans-68" d="M 3513 2113 
L 3513 0 
L 2938 0 
L 2938 2094 
Q 2938 2591 2744 2837 
Q 2550 3084 2163 3084 
Q 1697 3084 1428 2787 
Q 1159 2491 1159 1978 
L 1159 0 
L 581 0 
L 581 4863 
L 1159 4863 
L 1159 2956 
Q 1366 3272 1645 3428 
Q 1925 3584 2291 3584 
Q 2894 3584 3203 3211 
Q 3513 2838 3513 2113 
z
" transform="scale(0.015625)"/>
       <path id="DejaVuSans-64" d="M 2906 2969 
L 2906 4863 
L 3481 4863 
L 3481 0 
L 2906 0 
L 2906 525 
Q 2725 213 2448 61 
Q 2172 -91 1784 -91 
Q 1150 -91 751 415 
Q 353 922 353 1747 
Q 353 2572 751 3078 
Q 1150 3584 1784 3584 
Q 2172 3584 2448 3432 
Q 2725 3281 2906 2969 
z
M 947 1747 
Q 947 1113 1208 752 
Q 1469 391 1925 391 
Q 2381 391 2643 752 
Q 2906 1113 2906 1747 
Q 2906 2381 2643 2742 
Q 2381 3103 1925 3103 
Q 1469 3103 1208 2742 
Q 947 2381 947 1747 
z
" transform="scale(0.015625)"/>
      </defs>
      <use xlink:href="#DejaVuSans-32"/>
      <use xlink:href="#DejaVuSans-78" transform="translate(63.623047 0)"/>
      <use xlink:href="#DejaVuSans-20" transform="translate(122.802734 0)"/>
      <use xlink:href="#DejaVuSans-74" transform="translate(154.589844 0)"/>
      <use xlink:href="#DejaVuSans-68" transform="translate(193.798828 0)"/>
      <use xlink:href="#DejaVuSans-72" transform="translate(257.177734 0)"/>
      <use xlink:href="#DejaVuSans-65" transform="translate(296.041016 0)"/>
      <use xlink:href="#DejaVuSans-73" transform="translate(357.564453 0)"/>
      <use xlink:href="#DejaVuSans-68" transform="translate(409.664062 0)"/>
      <use xlink:href="#DejaVuSans-6f" transform="translate(473.042969 0)"/>
      <use xlink:href="#DejaVuSans-6c" transform="translate(534.224609 0)"/>
      <use xlink:href="#DejaVuSans-64" transform="translate(562.007812 0)"/>
     </g>
    </g>
    <g id="line2d_66">
     <path d="M 678.673437 591.460312 
L 688.673437 591.460312 
L 698.673437 591.460312 
" style="fill: none; stroke: #1f77b4; stroke-width: 1.8; stroke-linecap: square"/>
    </g>
    <g id="text_27">
     <!-- neg scalar ns / pos SIMD ns -->
     <g transform="translate(706.673437 594.960312) scale(0.1 -0.1)">
      <use xlink:href="#DejaVuSans-6e"/>
      <use xlink:href="#DejaVuSans-65" transform="translate(63.378906 0)"/>
      <use xlink:href="#DejaVuSans-67" transform="translate(124.902344 0)"/>
      <use xlink:href="#DejaVuSans-20" transform="translate(188.378906 0)"/>
      <use xlink:href="#DejaVuSans-73" transform="translate(220.166016 0)"/>
      <use xlink:href="#DejaVuSans-63" transform="translate(272.265625 0)"/>
      <use xlink:href="#DejaVuSans-61" transform="translate(327.246094 0)"/>
      <use xlink:href="#DejaVuSans-6c" transform="translate(388.525391 0)"/>
      <use xlink:href="#DejaVuSans-61" transform="translate(416.308594 0)"/>
      <use xlink:href="#DejaVuSans-72" transform="translate(477.587891 0)"/>
      <use xlink:href="#DejaVuSans-20" transform="translate(518.701172 0)"/>
      <use xlink:href="#DejaVuSans-6e" transform="translate(550.488281 0)"/>
      <use xlink:href="#DejaVuSans-73" transform="translate(613.867188 0)"/>
      <use xlink:href="#DejaVuSans-20" transform="translate(665.966797 0)"/>
      <use xlink:href="#DejaVuSans-2f" transform="translate(697.753906 0)"/>
      <use xlink:href="#DejaVuSans-20" transform="translate(731.445312 0)"/>
      <use xlink:href="#DejaVuSans-70" transform="translate(763.232422 0)"/>
      <use xlink:href="#DejaVuSans-6f" transform="translate(826.708984 0)"/>
      <use xlink:href="#DejaVuSans-73" transform="translate(887.890625 0)"/>
      <use xlink:href="#DejaVuSans-20" transform="translate(939.990234 0)"/>
      <use xlink:href="#DejaVuSans-53" transform="translate(971.777344 0)"/>
      <use xlink:href="#DejaVuSans-49" transform="translate(1035.253906 0)"/>
      <use xlink:href="#DejaVuSans-4d" transform="translate(1064.746094 0)"/>
      <use xlink:href="#DejaVuSans-44" transform="translate(1151.025391 0)"/>
      <use xlink:href="#DejaVuSans-20" transform="translate(1228.027344 0)"/>
      <use xlink:href="#DejaVuSans-6e" transform="translate(1259.814453 0)"/>
      <use xlink:href="#DejaVuSans-73" transform="translate(1323.193359 0)"/>
     </g>
    </g>
   </g>
  </g>
  <g id="text_28">
   <!-- canon positive SIMD vs negative scalar -->
   <g transform="translate(314.47125 22.078125) scale(0.12 -0.12)">
    <defs>
     <path id="DejaVuSans-76" d="M 191 3500 
L 800 3500 
L 1894 563 
L 2988 3500 
L 3597 3500 
L 2284 0 
L 1503 0 
L 191 3500 
z
" transform="scale(0.015625)"/>
    </defs>
    <use xlink:href="#DejaVuSans-63"/>
    <use xlink:href="#DejaVuSans-61" transform="translate(54.980469 0)"/>
    <use xlink:href="#DejaVuSans-6e" transform="translate(116.259766 0)"/>
    <use xlink:href="#DejaVuSans-6f" transform="translate(179.638672 0)"/>
    <use xlink:href="#DejaVuSans-6e" transform="translate(240.820312 0)"/>
    <use xlink:href="#DejaVuSans-20" transform="translate(304.199219 0)"/>
    <use xlink:href="#DejaVuSans-70" transform="translate(335.986328 0)"/>
    <use xlink:href="#DejaVuSans-6f" transform="translate(399.462891 0)"/>
    <use xlink:href="#DejaVuSans-73" transform="translate(460.644531 0)"/>
    <use xlink:href="#DejaVuSans-69" transform="translate(512.744141 0)"/>
    <use xlink:href="#DejaVuSans-74" transform="translate(540.527344 0)"/>
    <use xlink:href="#DejaVuSans-69" transform="translate(579.736328 0)"/>
    <use xlink:href="#DejaVuSans-76" transform="translate(607.519531 0)"/>
    <use xlink:href="#DejaVuSans-65" transform="translate(666.699219 0)"/>
    <use xlink:href="#DejaVuSans-20" transform="translate(728.222656 0)"/>
    <use xlink:href="#DejaVuSans-53" transform="translate(760.009766 0)"/>
    <use xlink:href="#DejaVuSans-49" transform="translate(823.486328 0)"/>
    <use xlink:href="#DejaVuSans-4d" transform="translate(852.978516 0)"/>
    <use xlink:href="#DejaVuSans-44" transform="translate(939.257812 0)"/>
    <use xlink:href="#DejaVuSans-20" transform="translate(1016.259766 0)"/>
    <use xlink:href="#DejaVuSans-76" transform="translate(1048.046875 0)"/>
    <use xlink:href="#DejaVuSans-73" transform="translate(1107.226562 0)"/>
    <use xlink:href="#DejaVuSans-20" transform="translate(1159.326172 0)"/>
    <use xlink:href="#DejaVuSans-6e" transform="translate(1191.113281 0)"/>
    <use xlink:href="#DejaVuSans-65" transform="translate(1254.492188 0)"/>
    <use xlink:href="#DejaVuSans-67" transform="translate(1316.015625 0)"/>
    <use xlink:href="#DejaVuSans-61" transform="translate(1379.492188 0)"/>
    <use xlink:href="#DejaVuSans-74" transform="translate(1440.771484 0)"/>
    <use xlink:href="#DejaVuSans-69" transform="translate(1479.980469 0)"/>
    <use xlink:href="#DejaVuSans-76" transform="translate(1507.763672 0)"/>
    <use xlink:href="#DejaVuSans-65" transform="translate(1566.943359 0)"/>
    <use xlink:href="#DejaVuSans-20" transform="translate(1628.466797 0)"/>
    <use xlink:href="#DejaVuSans-73" transform="translate(1660.253906 0)"/>
    <use xlink:href="#DejaVuSans-63" transform="translate(1712.353516 0)"/>
    <use xlink:href="#DejaVuSans-61" transform="translate(1767.333984 0)"/>
    <use xlink:href="#DejaVuSans-6c" transform="translate(1828.613281 0)"/>
    <use xlink:href="#DejaVuSans-61" transform="translate(1856.396484 0)"/>
    <use xlink:href="#DejaVuSans-72" transform="translate(1917.675781 0)"/>
   </g>
  </g>
 </g>
 <defs>
  <clipPath id="p510e65dfb5">
   <rect x="54.2" y="32.4" width="799" height="279.67"/>
  </clipPath>
  <clipPath id="p8f6780b2c1">
   <rect x="54.2" y="326.37" width="799" height="279.67"/>
  </clipPath>
 </defs>
</svg>
