<?xml version="1.0" encoding="utf-8" standalone="no"?>
<!DOCTYPE svg PUBLIC "-//W3C//DTD SVG 1.1//EN"
  "http://www.w3.org/Graphics/SVG/1.1/DTD/svg11.dtd">
<svg xmlns:xlink="http://www.w3.org/1999/xlink" width="936pt" height="648pt" viewBox="0 0 936 648" xmlns="http://www.w3.org/2000/svg" version="1.1">
 <metadata>
  <rdf:RDF xmlns:dc="http://purl.org/dc/elements/1.1/" xmlns:cc="http://creativecommons.org/ns#" xmlns:rdf="http://www.w3.org/1999/02/22-rdf-syntax-ns#">
   <cc:Work>
    <dc:type rdf:resource="http://purl.org/dc/dcmitype/StillImage"/>
    <dc:date>2026-06-12T13:37:22.906611</dc:date>
    <dc:format>image/svg+xml</dc:format>
    <dc:creator>
     <cc:Agent>
      <dc:title>Matplotlib v3.10.7+dfsg1, https://matplotlib.org/</dc:title>
     </cc:Agent>
    </dc:creator>
   </cc:Work>
  </rdf:RDF>
 </metadata>
 <defs>
  <style type="text/css">*{stroke-linejoin: round; stroke-linecap: butt}</style>
 </defs>
 <g id="figure_1">
  <g id="patch_1">
   <path d="M 0 648 
L 936 648 
L 936 0 
L 0 0 
z
" style="fill: #ffffff"/>
  </g>
  <g id="axes_1">
   <g id="patch_2">
    <path d="M 47.81 412.49425 
L 925.2 412.49425 
L 925.2 25.44 
L 47.81 25.44 
z
" style="fill: #ffffff"/>
   </g>
   <g id="matplotlib.axis_1">
    <g id="xtick_1">
     <g id="line2d_1">
      <path d="M 167.454091 412.49425 
L 167.454091 25.44 
" clip-path="url(#p96bd607833)" style="fill: none; stroke: #b0b0b0; stroke-opacity: 0.3; stroke-width: 0.8; stroke-linecap: square"/>
     </g>
     <g id="line2d_2">
      <defs>
       <path id="m6e474eaf8c" d="M 0 0 
L 0 3.5 
" style="stroke: #000000; stroke-width: 0.8"/>
      </defs>
      <g>
       <use xlink:href="#m6e474eaf8c" x="167.454091" y="412.49425" style="stroke: #000000; stroke-width: 0.8"/>
      </g>
     </g>
    </g>
    <g id="xtick_2">
     <g id="line2d_3">
      <path d="M 326.979545 412.49425 
L 326.979545 25.44 
" clip-path="url(#p96bd607833)" style="fill: none; stroke: #b0b0b0; stroke-opacity: 0.3; stroke-width: 0.8; stroke-linecap: square"/>
     </g>
     <g id="line2d_4">
      <g>
       <use xlink:href="#m6e474eaf8c" x="326.979545" y="412.49425" style="stroke: #000000; stroke-width: 0.8"/>
      </g>
     </g>
    </g>
    <g id="xtick_3">
     <g id="line2d_5">
      <path d="M 486.505 412.49425 
L 486.505 25.44 
" clip-path="url(#p96bd607833)" style="fill: none; stroke: #b0b0b0; stroke-opacity: 0.3; stroke-width: 0.8; stroke-linecap: square"/>
     </g>
     <g id="line2d_6">
      <g>
       <use xlink:href="#m6e474eaf8c" x="486.505" y="412.49425" style="stroke: #000000; stroke-width: 0.8"/>
      </g>
     </g>
    </g>
    <g id="xtick_4">
     <g id="line2d_7">
      <path d="M 646.030455 412.49425 
L 646.030455 25.44 
" clip-path="url(#p96bd607833)" style="fill: none; stroke: #b0b0b0; stroke-opacity: 0.3; stroke-width: 0.8; stroke-linecap: square"/>
     </g>
     <g id="line2d_8">
      <g>
       <use xlink:href="#m6e474eaf8c" x="646.030455" y="412.49425" style="stroke: #000000; stroke-width: 0.8"/>
      </g>
     </g>
    </g>
    <g id="xtick_5">
     <g id="line2d_9">
      <path d="M 805.555909 412.49425 
L 805.555909 25.44 
" clip-path="url(#p96bd607833)" style="fill: none; stroke: #b0b0b0; stroke-opacity: 0.3; stroke-width: 0.8; stroke-linecap: square"/>
     </g>
     <g id="line2d_10">
      <g>
       <use xlink:href="#m6e474eaf8c" x="805.555909" y="412.49425" style="stroke: #000000; stroke-width: 0.8"/>
      </g>
     </g>
    </g>
   </g>
   <g id="matplotlib.axis_2">
    <g id="ytick_1">
     <g id="line2d_11">
      <path d="M 47.81 361.218855 
L 925.2 361.218855 
" clip-path="url(#p96bd607833)" style="fill: none; stroke: #b0b0b0; stroke-opacity: 0.3; stroke-width: 0.8; stroke-linecap: square"/>
     </g>
     <g id="line2d_12">
      <defs>
       <path id="m08c788deca" d="M 0 0 
L -3.5 0 
" style="stroke: #000000; stroke-width: 0.8"/>
      </defs>
      <g>
       <use xlink:href="#m08c788deca" x="47.81" y="361.218855" style="stroke: #000000; stroke-width: 0.8"/>
      </g>
     </g>
     <g id="text_1">
      <!-- 10 -->
      <g transform="translate(28.085 365.018074) scale(0.1 -0.1)">
       <defs>
        <path id="DejaVuSans-31" d="M 794 531 
L 1825 531 
L 1825 4091 
L 703 3866 
L 703 4441 
L 1819 4666 
L 2450 4666 
L 2450 531 
L 3481 531 
L 3481 0 
L 794 0 
L 794 531 
z
" transform="scale(0.015625)"/>
        <path id="DejaVuSans-30" d="M 2034 4250 
Q 1547 4250 1301 3770 
Q 1056 3291 1056 2328 
Q 1056 1369 1301 889 
Q 1547 409 2034 409 
Q 2525 409 2770 889 
Q 3016 1369 3016 2328 
Q 3016 3291 2770 3770 
Q 2525 4250 2034 4250 
z
M 2034 4750 
Q 2819 4750 3233 4129 
Q 3647 3509 3647 2328 
Q 3647 1150 3233 529 
Q 2819 -91 2034 -91 
Q 1250 -91 836 529 
Q 422 1150 422 2328 
Q 422 3509 836 4129 
Q 1250 4750 2034 4750 
z
" transform="scale(0.015625)"/>
       </defs>
       <use xlink:href="#DejaVuSans-31"/>
       <use xlink:href="#DejaVuSans-30" transform="translate(63.623047 0)"/>
      </g>
     </g>
    </g>
    <g id="ytick_2">
     <g id="line2d_13">
      <path d="M 47.81 294.139233 
L 925.2 294.139233 
" clip-path="url(#p96bd607833)" style="fill: none; stroke: #b0b0b0; stroke-opacity: 0.3; stroke-width: 0.8; stroke-linecap: square"/>
     </g>
     <g id="line2d_14">
      <g>
       <use xlink:href="#m08c788deca" x="47.81" y="294.139233" style="stroke: #000000; stroke-width: 0.8"/>
      </g>
     </g>
     <g id="text_2">
      <!-- 15 -->
      <g transform="translate(28.085 297.938452) scale(0.1 -0.1)">
       <defs>
        <path id="DejaVuSans-35" d="M 691 4666 
L 3169 4666 
L 3169 4134 
L 1269 4134 
L 1269 2991 
Q 1406 3038 1543 3061 
Q 1681 3084 1819 3084 
Q 2600 3084 3056 2656 
Q 3513 2228 3513 1497 
Q 3513 744 3044 326 
Q 2575 -91 1722 -91 
Q 1428 -91 1123 -41 
Q 819 9 494 109 
L 494 744 
Q 775 591 1075 516 
Q 1375 441 1709 441 
Q 2250 441 2565 725 
Q 2881 1009 2881 1497 
Q 2881 1984 2565 2268 
Q 2250 2553 1709 2553 
Q 1456 2553 1204 2497 
Q 953 2441 691 2322 
L 691 4666 
z
" transform="scale(0.015625)"/>
       </defs>
       <use xlink:href="#DejaVuSans-31"/>
       <use xlink:href="#DejaVuSans-35" transform="translate(63.623047 0)"/>
      </g>
     </g>
    </g>
    <g id="ytick_3">
     <g id="line2d_15">
      <path d="M 47.81 227.059611 
L 925.2 227.059611 
" clip-path="url(#p96bd607833)" style="fill: none; stroke: #b0b0b0; stroke-opacity: 0.3; stroke-width: 0.8; stroke-linecap: square"/>
     </g>
     <g id="line2d_16">
      <g>
       <use xlink:href="#m08c788deca" x="47.81" y="227.059611" style="stroke: #000000; stroke-width: 0.8"/>
      </g>
     </g>
     <g id="text_3">
      <!-- 20 -->
      <g transform="translate(28.085 230.858829) scale(0.1 -0.1)">
       <defs>
        <path id="DejaVuSans-32" d="M 1228 531 
L 3431 531 
L 3431 0 
L 469 0 
L 469 531 
Q 828 903 1448 1529 
Q 2069 2156 2228 2338 
Q 2531 2678 2651 2914 
Q 2772 3150 2772 3378 
Q 2772 3750 2511 3984 
Q 2250 4219 1831 4219 
Q 1534 4219 1204 4116 
Q 875 4013 500 3803 
L 500 4441 
Q 881 4594 1212 4672 
Q 1544 4750 1819 4750 
Q 2544 4750 2975 4387 
Q 3406 4025 3406 3419 
Q 3406 3131 3298 2873 
Q 3191 2616 2906 2266 
Q 2828 2175 2409 1742 
Q 1991 1309 1228 531 
z
" transform="scale(0.015625)"/>
       </defs>
       <use xlink:href="#DejaVuSans-32"/>
       <use xlink:href="#DejaVuSans-30" transform="translate(63.623047 0)"/>
      </g>
     </g>
    </g>
    <g id="ytick_4">
     <g id="line2d_17">
      <path d="M 47.81 159.979988 
L 925.2 159.979988 
" clip-path="url(#p96bd607833)" style="fill: none; stroke: #b0b0b0; stroke-opacity: 0.3; stroke-width: 0.8; stroke-linecap: square"/>
     </g>
     <g id="line2d_18">
      <g>
       <use xlink:href="#m08c788deca" x="47.81" y="159.979988" style="stroke: #000000; stroke-width: 0.8"/>
      </g>
     </g>
     <g id="text_4">
      <!-- 25 -->
      <g transform="translate(28.085 163.779207) scale(0.1 -0.1)">
       <use xlink:href="#DejaVuSans-32"/>
       <use xlink:href="#DejaVuSans-35" transform="translate(63.623047 0)"/>
      </g>
     </g>
    </g>
    <g id="ytick_5">
     <g id="line2d_19">
      <path d="M 47.81 92.900366 
L 925.2 92.900366 
" clip-path="url(#p96bd607833)" style="fill: none; stroke: #b0b0b0; stroke-opacity: 0.3; stroke-width: 0.8; stroke-linecap: square"/>
     </g>
     <g id="line2d_20">
      <g>
       <use xlink:href="#m08c788deca" x="47.81" y="92.900366" style="stroke: #000000; stroke-width: 0.8"/>
      </g>
     </g>
     <g id="text_5">
      <!-- 30 -->
      <g transform="translate(28.085 96.699585) scale(0.1 -0.1)">
       <defs>
        <path id="DejaVuSans-33" d="M 2597 2516 
Q 3050 2419 3304 2112 
Q 3559 1806 3559 1356 
Q 3559 666 3084 287 
Q 2609 -91 1734 -91 
Q 1441 -91 1130 -33 
Q 819 25 488 141 
L 488 750 
Q 750 597 1062 519 
Q 1375 441 1716 441 
Q 2309 441 2620 675 
Q 2931 909 2931 1356 
Q 2931 1769 2642 2001 
Q 2353 2234 1838 2234 
L 1294 2234 
L 1294 2753 
L 1863 2753 
Q 2328 2753 2575 2939 
Q 2822 3125 2822 3475 
Q 2822 3834 2567 4026 
Q 2313 4219 1838 4219 
Q 1578 4219 1281 4162 
Q 984 4106 628 3988 
L 628 4550 
Q 988 4650 1302 4700 
Q 1616 4750 1894 4750 
Q 2613 4750 3031 4423 
Q 3450 4097 3450 3541 
Q 3450 3153 3228 2886 
Q 3006 2619 2597 2516 
z
" transform="scale(0.015625)"/>
       </defs>
       <use xlink:href="#DejaVuSans-33"/>
       <use xlink:href="#DejaVuSans-30" transform="translate(63.623047 0)"/>
      </g>
     </g>
    </g>
    <g id="ytick_6">
     <g id="line2d_21">
      <path d="M 47.81 25.820744 
L 925.2 25.820744 
" clip-path="url(#p96bd607833)" style="fill: none; stroke: #b0b0b0; stroke-opacity: 0.3; stroke-width: 0.8; stroke-linecap: square"/>
     </g>
     <g id="line2d_22">
      <g>
       <use xlink:href="#m08c788deca" x="47.81" y="25.820744" style="stroke: #000000; stroke-width: 0.8"/>
      </g>
     </g>
     <g id="text_6">
      <!-- 35 -->
      <g transform="translate(28.085 29.619963) scale(0.1 -0.1)">
       <use xlink:href="#DejaVuSans-33"/>
       <use xlink:href="#DejaVuSans-35" transform="translate(63.623047 0)"/>
      </g>
     </g>
    </g>
    <g id="text_7">
     <!-- ns / input limb -->
     <g transform="translate(22.005312 254.875719) rotate(-90) scale(0.1 -0.1)">
      <defs>
       <path id="DejaVuSans-6e" d="M 3513 2113 
L 3513 0 
L 2938 0 
L 2938 2094 
Q 2938 2591 2744 2837 
Q 2550 3084 2163 3084 
Q 1697 3084 1428 2787 
Q 1159 2491 1159 1978 
L 1159 0 
L 581 0 
L 581 3500 
L 1159 3500 
L 1159 2956 
Q 1366 3272 1645 3428 
Q 1925 3584 2291 3584 
Q 2894 3584 3203 3211 
Q 3513 2838 3513 2113 
z
" transform="scale(0.015625)"/>
       <path id="DejaVuSans-73" d="M 2834 3397 
L 2834 2853 
Q 2591 2978 2328 3040 
Q 2066 3103 1784 3103 
Q 1356 3103 1142 2972 
Q 928 2841 928 2578 
Q 928 2378 1081 2264 
Q 1234 2150 1697 2047 
L 1894 2003 
Q 2506 1872 2764 1633 
Q 3022 1394 3022 966 
Q 3022 478 2636 193 
Q 2250 -91 1575 -91 
Q 1294 -91 989 -36 
Q 684 19 347 128 
L 347 722 
Q 666 556 975 473 
Q 1284 391 1588 391 
Q 1994 391 2212 530 
Q 2431 669 2431 922 
Q 2431 1156 2273 1281 
Q 2116 1406 1581 1522 
L 1381 1569 
Q 847 1681 609 1914 
Q 372 2147 372 2553 
Q 372 3047 722 3315 
Q 1072 3584 1716 3584 
Q 2034 3584 2315 3537 
Q 2597 3491 2834 3397 
z
" transform="scale(0.015625)"/>
       <path id="DejaVuSans-20" transform="scale(0.015625)"/>
       <path id="DejaVuSans-2f" d="M 1625 4666 
L 2156 4666 
L 531 -594 
L 0 -594 
L 1625 4666 
z
" transform="scale(0.015625)"/>
       <path id="DejaVuSans-69" d="M 603 3500 
L 1178 3500 
L 1178 0 
L 603 0 
L 603 3500 
z
M 603 4863 
L 1178 4863 
L 1178 4134 
L 603 4134 
L 603 4863 
z
" transform="scale(0.015625)"/>
       <path id="DejaVuSans-70" d="M 1159 525 
L 1159 -1331 
L 581 -1331 
L 581 3500 
L 1159 3500 
L 1159 2969 
Q 1341 3281 1617 3432 
Q 1894 3584 2278 3584 
Q 2916 3584 3314 3078 
Q 3713 2572 3713 1747 
Q 3713 922 3314 415 
Q 2916 -91 2278 -91 
Q 1894 -91 1617 61 
Q 1341 213 1159 525 
z
M 3116 1747 
Q 3116 2381 2855 2742 
Q 2594 3103 2138 3103 
Q 1681 3103 1420 2742 
Q 1159 2381 1159 1747 
Q 1159 1113 1420 752 
Q 1681 391 2138 391 
Q 2594 391 2855 752 
Q 3116 1113 3116 1747 
z
" transform="scale(0.015625)"/>
       <path id="DejaVuSans-75" d="M 544 1381 
L 544 3500 
L 1119 3500 
L 1119 1403 
Q 1119 906 1312 657 
Q 1506 409 1894 409 
Q 2359 409 2629 706 
Q 2900 1003 2900 1516 
L 2900 3500 
L 3475 3500 
L 3475 0 
L 2900 0 
L 2900 538 
Q 2691 219 2414 64 
Q 2138 -91 1772 -91 
Q 1169 -91 856 284 
Q 544 659 544 1381 
z
M 1991 3584 
L 1991 3584 
z
" transform="scale(0.015625)"/>
       <path id="DejaVuSans-74" d="M 1172 4494 
L 1172 3500 
L 2356 3500 
L 2356 3053 
L 1172 3053 
L 1172 1153 
Q 1172 725 1289 603 
Q 1406 481 1766 481 
L 2356 481 
L 2356 0 
L 1766 0 
Q 1100 0 847 248 
Q 594 497 594 1153 
L 594 3053 
L 172 3053 
L 172 3500 
L 594 3500 
L 594 4494 
L 1172 4494 
z
" transform="scale(0.015625)"/>
       <path id="DejaVuSans-6c" d="M 603 4863 
L 1178 4863 
L 1178 0 
L 603 0 
L 603 4863 
z
" transform="scale(0.015625)"/>
       <path id="DejaVuSans-6d" d="M 3328 2828 
Q 3544 3216 3844 3400 
Q 4144 3584 4550 3584 
Q 5097 3584 5394 3201 
Q 5691 2819 5691 2113 
L 5691 0 
L 5113 0 
L 5113 2094 
Q 5113 2597 4934 2840 
Q 4756 3084 4391 3084 
Q 3944 3084 3684 2787 
Q 3425 2491 3425 1978 
L 3425 0 
L 2847 0 
L 2847 2094 
Q 2847 2600 2669 2842 
Q 2491 3084 2119 3084 
Q 1678 3084 1418 2786 
Q 1159 2488 1159 1978 
L 1159 0 
L 581 0 
L 581 3500 
L 1159 3500 
L 1159 2956 
Q 1356 3278 1631 3431 
Q 1906 3584 2284 3584 
Q 2666 3584 2933 3390 
Q 3200 3197 3328 2828 
z
" transform="scale(0.015625)"/>
       <path id="DejaVuSans-62" d="M 3116 1747 
Q 3116 2381 2855 2742 
Q 2594 3103 2138 3103 
Q 1681 3103 1420 2742 
Q 1159 2381 1159 1747 
Q 1159 1113 1420 752 
Q 1681 391 2138 391 
Q 2594 391 2855 752 
Q 3116 1113 3116 1747 
z
M 1159 2969 
Q 1341 3281 1617 3432 
Q 1894 3584 2278 3584 
Q 2916 3584 3314 3078 
Q 3713 2572 3713 1747 
Q 3713 922 3314 415 
Q 2916 -91 2278 -91 
Q 1894 -91 1617 61 
Q 1341 213 1159 525 
L 1159 0 
L 581 0 
L 581 4863 
L 1159 4863 
L 1159 2969 
z
" transform="scale(0.015625)"/>
      </defs>
      <use xlink:href="#DejaVuSans-6e"/>
      <use xlink:href="#DejaVuSans-73" transform="translate(63.378906 0)"/>
      <use xlink:href="#DejaVuSans-20" transform="translate(115.478516 0)"/>
      <use xlink:href="#DejaVuSans-2f" transform="translate(147.265625 0)"/>
      <use xlink:href="#DejaVuSans-20" transform="translate(180.957031 0)"/>
      <use xlink:href="#DejaVuSans-69" transform="translate(212.744141 0)"/>
      <use xlink:href="#DejaVuSans-6e" transform="translate(240.527344 0)"/>
      <use xlink:href="#DejaVuSans-70" transform="translate(303.90625 0)"/>
      <use xlink:href="#DejaVuSans-75" transform="translate(367.382812 0)"/>
      <use xlink:href="#DejaVuSans-74" transform="translate(430.761719 0)"/>
      <use xlink:href="#DejaVuSans-20" transform="translate(469.970703 0)"/>
      <use xlink:href="#DejaVuSans-6c" transform="translate(501.757812 0)"/>
      <use xlink:href="#DejaVuSans-69" transform="translate(529.541016 0)"/>
      <use xlink:href="#DejaVuSans-6d" transform="translate(557.324219 0)"/>
      <use xlink:href="#DejaVuSans-62" transform="translate(654.736328 0)"/>
     </g>
    </g>
   </g>
   <g id="line2d_23">
    <path d="M 87.691364 326.345501 
L 92.962818 268.179419 
L 98.00333 276.626085 
L 102.832288 283.784822 
L 107.466738 290.409606 
L 112.647761 297.326857 
L 117.605532 271.17117 
L 122.358496 278.676038 
L 127.560435 286.223837 
L 132.537353 293.155846 
L 137.307913 271.807085 
L 142.448518 280.192038 
L 147.369266 287.505058 
L 152.600771 294.82747 
L 157.604746 301.629343 
L 167.454091 313.432674 
L 172.295364 258.770831 
L 182.595015 275.711119 
L 187.229466 282.843024 
L 192.410489 290.515592 
L 197.368259 264.193548 
L 202.453326 272.514104 
L 207.323162 279.274389 
L 212.30008 286.945614 
L 217.362335 264.833487 
L 222.211245 272.579842 
L 227.399295 280.481822 
L 232.363498 288.320746 
L 237.367473 295.085056 
L 242.162887 301.807775 
L 247.216818 308.077037 
L 252.273383 254.449562 
L 257.117073 262.626568 
L 262.160531 270.431953 
L 267.181303 278.414428 
L 272.173216 285.815993 
L 277.130986 245.530655 
L 282.050122 254.169169 
L 292.062807 270.780767 
L 297.125062 242.402062 
L 302.11354 251.252547 
L 307.028449 259.649574 
L 317.007717 276.062616 
L 322.042977 283.941789 
L 326.979545 290.914045 
L 331.928515 235.985225 
L 336.982866 245.632616 
L 341.923258 254.222833 
L 351.935943 271.020912 
L 356.893713 241.022905 
L 366.848617 258.058446 
L 371.825535 266.338754 
L 376.814935 238.849525 
L 381.806505 247.911982 
L 386.791176 256.547813 
L 391.761022 264.932765 
L 396.770444 272.909874 
L 406.742273 288.03767 
L 411.745052 228.776849 
L 416.694072 238.469854 
L 421.685985 247.563168 
L 426.659509 256.28486 
L 431.653428 261.468774 
L 436.656441 216.419441 
L 446.611344 235.640436 
L 451.626309 244.765948 
L 456.577662 218.445246 
L 461.569232 228.860028 
L 466.553903 238.543642 
L 471.555746 237.91041 
L 476.533171 246.937986 
L 486.505 264.135859 
L 491.480877 202.845209 
L 496.482563 213.300239 
L 501.448712 224.05981 
L 506.445863 233.751474 
L 511.438779 243.16677 
L 516.419168 206.734485 
L 526.393937 227.679426 
L 531.370014 236.647972 
L 536.358607 195.031774 
L 546.333336 216.710567 
L 551.318473 220.10882 
L 556.295899 230.314314 
L 561.287162 239.89865 
L 566.267727 248.902077 
L 571.257057 187.919993 
L 576.232409 198.963982 
L 581.223775 210.35276 
L 586.20859 219.832452 
L 591.190195 230.118441 
L 596.181895 169.895698 
L 601.163283 181.685613 
L 606.146732 197.500304 
L 611.132742 211.091977 
L 616.121335 188.97046 
L 621.103409 206.666064 
L 626.087711 216.774963 
L 631.073202 198.275745 
L 636.058626 209.400229 
L 641.042555 219.010056 
L 646.030455 229.8139 
L 651.013058 167.08372 
L 656.001577 178.467132 
L 660.986503 190.396572 
L 665.971317 200.65573 
L 670.958578 211.507871 
L 675.939207 172.513145 
L 680.92601 183.982419 
L 685.909459 194.86005 
L 690.895469 205.115183 
L 695.884062 164.043672 
L 705.850438 188.573348 
L 710.835929 180.169613 
L 715.821353 191.930012 
L 720.808949 202.532618 
L 725.793182 213.801994 
L 730.779148 99.770661 
L 735.764304 110.948809 
L 740.74923 123.236455 
L 745.734045 133.68746 
L 750.718478 143.820507 
L 755.704642 75.004865 
L 760.688738 88.473111 
L 765.67467 101.411429 
L 770.660574 113.461612 
L 775.644512 98.349915 
L 780.631044 110.082141 
L 785.615253 120.852445 
L 790.600656 115.967707 
L 795.585995 127.294772 
L 800.569843 139.041755 
L 805.555909 149.306279 
L 810.541876 61.242809 
L 815.527031 74.961934 
L 820.511957 88.175278 
L 825.496772 100.745999 
L 830.481205 112.686172 
L 835.467369 61.788837 
L 845.437397 87.799632 
L 850.422112 99.475511 
L 855.407239 57.871387 
L 860.392681 71.562338 
L 865.377981 74.818383 
L 870.363383 43.033375 
L 875.348723 49.847323 
L 880.333487 91.205935 
L 885.318636 102.594713 
L 885.318636 102.594713 
" clip-path="url(#p96bd607833)" style="fill: none; stroke: #ff7f0e; stroke-width: 1.1; stroke-linecap: square"/>
   </g>
   <g id="line2d_24">
    <path d="M 87.691364 381.637892 
L 92.962818 350.270119 
L 98.00333 357.216885 
L 102.832288 362.81535 
L 107.466738 367.486775 
L 112.647761 373.427346 
L 117.605532 370.192767 
L 122.358496 375.337774 
L 127.560435 380.435825 
L 132.537353 385.504362 
L 137.307913 357.609971 
L 147.369266 369.351588 
L 152.600771 381.118696 
L 157.604746 385.979285 
L 167.454091 394.900875 
L 172.295364 342.57877 
L 177.354345 349.666403 
L 187.229466 361.743418 
L 192.410489 367.812782 
L 197.368259 364.199873 
L 202.453326 369.776873 
L 207.323162 375.67988 
L 212.30008 380.855744 
L 217.362335 351.838441 
L 222.211245 358.416268 
L 227.399295 364.590277 
L 232.363498 373.36295 
L 242.162887 383.643573 
L 247.216818 388.147299 
L 252.273383 336.011675 
L 257.117073 342.694147 
L 262.160531 349.365886 
L 272.173216 361.869527 
L 277.130986 358.723493 
L 282.050122 364.560762 
L 287.085889 370.123004 
L 292.062807 375.450468 
L 297.125062 345.963607 
L 307.028449 358.35053 
L 311.998295 365.399257 
L 317.007717 371.003089 
L 322.042977 375.520231 
L 326.979545 381.523857 
L 331.928515 328.734877 
L 341.923258 341.984444 
L 351.935943 355.118634 
L 356.893713 348.849373 
L 361.895845 355.118634 
L 366.848617 361.010908 
L 371.825535 366.714018 
L 376.814935 338.319214 
L 381.806505 345.299519 
L 386.791176 351.088491 
L 391.761022 355.385611 
L 401.747038 367.382131 
L 406.742273 372.759233 
L 411.745052 320.419687 
L 421.685985 334.886079 
L 426.659509 341.626239 
L 431.653428 348.110155 
L 436.656441 339.442127 
L 441.658572 346.733681 
L 446.611344 353.374564 
L 451.626309 359.17561 
L 456.577662 331.993605 
L 461.569232 338.017355 
L 466.553903 345.711388 
L 471.555746 346.419749 
L 476.533171 352.790971 
L 481.509765 358.955589 
L 486.505 364.544663 
L 491.480877 309.720488 
L 496.482563 318.035677 
L 501.448712 325.417119 
L 506.445863 332.331687 
L 511.438779 339.523964 
L 516.419168 326.529299 
L 521.400556 333.532412 
L 526.393937 340.928611 
L 531.370014 347.632548 
L 536.358607 313.330713 
L 546.333336 329.095766 
L 551.318473 319.31824 
L 556.295899 326.392457 
L 561.287162 333.877201 
L 566.267727 340.555648 
L 571.257057 295.562662 
L 576.232409 304.348751 
L 581.223775 312.65455 
L 586.20859 307.871773 
L 591.190195 330.026831 
L 596.181895 315.769728 
L 601.163283 319.755599 
L 606.146732 330.535294 
L 611.132742 338.555334 
L 616.121335 307.635653 
L 621.103409 315.799243 
L 626.087711 323.612677 
L 631.073202 322.033623 
L 636.058626 329.396282 
L 646.030455 343.300546 
L 651.013058 286.390195 
L 656.001577 294.384744 
L 660.986503 303.516964 
L 665.971317 312.08169 
L 670.958578 319.748891 
L 675.939207 303.539771 
L 680.92601 312.24134 
L 685.909459 319.997086 
L 690.895469 327.208145 
L 695.884062 284.4905 
L 705.850438 302.059995 
L 710.835929 309.381065 
L 715.821353 318.141663 
L 720.808949 325.351381 
L 725.793182 332.994433 
L 730.779148 116.95646 
L 740.74923 164.760082 
L 745.734045 186.46839 
L 750.718478 205.175555 
L 755.704642 202.76203 
L 760.688738 217.616141 
L 765.67467 227.94372 
L 770.660574 241.076568 
L 775.644512 169.277224 
L 780.631044 182.453003 
L 785.615253 194.92713 
L 790.600656 200.775131 
L 795.585995 211.632639 
L 800.569843 225.311516 
L 805.555909 236.723101 
L 810.541876 102.510193 
L 815.527031 150.596891 
L 820.511957 165.832015 
L 825.496772 173.599835 
L 830.481205 192.465308 
L 835.467369 178.11161 
L 840.451465 188.926187 
L 845.437397 206.509098 
L 850.422112 213.439764 
L 855.407239 125.293116 
L 860.392681 134.780858 
L 865.377981 151.566862 
L 870.363383 99.047543 
L 875.348723 127.542966 
L 880.333487 137.218531 
L 885.318636 159.146859 
L 885.318636 159.146859 
" clip-path="url(#p96bd607833)" style="fill: none; stroke: #1f77b4; stroke-width: 1.1; stroke-linecap: square"/>
   </g>
   <g id="patch_3">
    <path d="M 47.81 412.49425 
L 47.81 25.44 
" style="fill: none; stroke: #000000; stroke-width: 0.8; stroke-linejoin: miter; stroke-linecap: square"/>
   </g>
   <g id="patch_4">
    <path d="M 925.2 412.49425 
L 925.2 25.44 
" style="fill: none; stroke: #000000; stroke-width: 0.8; stroke-linejoin: miter; stroke-linecap: square"/>
   </g>
   <g id="patch_5">
    <path d="M 47.81 412.49425 
L 925.2 412.49425 
" style="fill: none; stroke: #000000; stroke-width: 0.8; stroke-linejoin: miter; stroke-linecap: square"/>
   </g>
   <g id="patch_6">
    <path d="M 47.81 25.44 
L 925.2 25.44 
" style="fill: none; stroke: #000000; stroke-width: 0.8; stroke-linejoin: miter; stroke-linecap: square"/>
   </g>
   <g id="text_8">
    <!-- balanced mul, an = bn = n, 1/16-octave grid (solo-per-process) -->
    <g transform="translate(296.191563 19.44) scale(0.12 -0.12)">
     <defs>
      <path id="DejaVuSans-61" d="M 2194 1759 
Q 1497 1759 1228 1600 
Q 959 1441 959 1056 
Q 959 750 1161 570 
Q 1363 391 1709 391 
Q 2188 391 2477 730 
Q 2766 1069 2766 1631 
L 2766 1759 
L 2194 1759 
z
M 3341 1997 
L 3341 0 
L 2766 0 
L 2766 531 
Q 2569 213 2275 61 
Q 1981 -91 1556 -91 
Q 1019 -91 701 211 
Q 384 513 384 1019 
Q 384 1609 779 1909 
Q 1175 2209 1959 2209 
L 2766 2209 
L 2766 2266 
Q 2766 2663 2505 2880 
Q 2244 3097 1772 3097 
Q 1472 3097 1187 3025 
Q 903 2953 641 2809 
L 641 3341 
Q 956 3463 1253 3523 
Q 1550 3584 1831 3584 
Q 2591 3584 2966 3190 
Q 3341 2797 3341 1997 
z
" transform="scale(0.015625)"/>
      <path id="DejaVuSans-63" d="M 3122 3366 
L 3122 2828 
Q 2878 2963 2633 3030 
Q 2388 3097 2138 3097 
Q 1578 3097 1268 2742 
Q 959 2388 959 1747 
Q 959 1106 1268 751 
Q 1578 397 2138 397 
Q 2388 397 2633 464 
Q 2878 531 3122 666 
L 3122 134 
Q 2881 22 2623 -34 
Q 2366 -91 2075 -91 
Q 1284 -91 818 406 
Q 353 903 353 1747 
Q 353 2603 823 3093 
Q 1294 3584 2113 3584 
Q 2378 3584 2631 3529 
Q 2884 3475 3122 3366 
z
" transform="scale(0.015625)"/>
      <path id="DejaVuSans-65" d="M 3597 1894 
L 3597 1613 
L 953 1613 
Q 991 1019 1311 708 
Q 1631 397 2203 397 
Q 2534 397 2845 478 
Q 3156 559 3463 722 
L 3463 178 
Q 3153 47 2828 -22 
Q 2503 -91 2169 -91 
Q 1331 -91 842 396 
Q 353 884 353 1716 
Q 353 2575 817 3079 
Q 1281 3584 2069 3584 
Q 2775 3584 3186 3129 
Q 3597 2675 3597 1894 
z
M 3022 2063 
Q 3016 2534 2758 2815 
Q 2500 3097 2075 3097 
Q 1594 3097 1305 2825 
Q 1016 2553 972 2059 
L 3022 2063 
z
" transform="scale(0.015625)"/>
      <path id="DejaVuSans-64" d="M 2906 2969 
L 2906 4863 
L 3481 4863 
L 3481 0 
L 2906 0 
L 2906 525 
Q 2725 213 2448 61 
Q 2172 -91 1784 -91 
Q 1150 -91 751 415 
Q 353 922 353 1747 
Q 353 2572 751 3078 
Q 1150 3584 1784 3584 
Q 2172 3584 2448 3432 
Q 2725 3281 2906 2969 
z
M 947 1747 
Q 947 1113 1208 752 
Q 1469 391 1925 391 
Q 2381 391 2643 752 
Q 2906 1113 2906 1747 
Q 2906 2381 2643 2742 
Q 2381 3103 1925 3103 
Q 1469 3103 1208 2742 
Q 947 2381 947 1747 
z
" transform="scale(0.015625)"/>
      <path id="DejaVuSans-2c" d="M 750 794 
L 1409 794 
L 1409 256 
L 897 -744 
L 494 -744 
L 750 256 
L 750 794 
z
" transform="scale(0.015625)"/>
      <path id="DejaVuSans-3d" d="M 678 2906 
L 4684 2906 
L 4684 2381 
L 678 2381 
L 678 2906 
z
M 678 1631 
L 4684 1631 
L 4684 1100 
L 678 1100 
L 678 1631 
z
" transform="scale(0.015625)"/>
      <path id="DejaVuSans-36" d="M 2113 2584 
Q 1688 2584 1439 2293 
Q 1191 2003 1191 1497 
Q 1191 994 1439 701 
Q 1688 409 2113 409 
Q 2538 409 2786 701 
Q 3034 994 3034 1497 
Q 3034 2003 2786 2293 
Q 2538 2584 2113 2584 
z
M 3366 4563 
L 3366 3988 
Q 3128 4100 2886 4159 
Q 2644 4219 2406 4219 
Q 1781 4219 1451 3797 
Q 1122 3375 1075 2522 
Q 1259 2794 1537 2939 
Q 1816 3084 2150 3084 
Q 2853 3084 3261 2657 
Q 3669 2231 3669 1497 
Q 3669 778 3244 343 
Q 2819 -91 2113 -91 
Q 1303 -91 875 529 
Q 447 1150 447 2328 
Q 447 3434 972 4092 
Q 1497 4750 2381 4750 
Q 2619 4750 2861 4703 
Q 3103 4656 3366 4563 
z
" transform="scale(0.015625)"/>
      <path id="DejaVuSans-2d" d="M 313 2009 
L 1997 2009 
L 1997 1497 
L 313 1497 
L 313 2009 
z
" transform="scale(0.015625)"/>
      <path id="DejaVuSans-6f" d="M 1959 3097 
Q 1497 3097 1228 2736 
Q 959 2375 959 1747 
Q 959 1119 1226 758 
Q 1494 397 1959 397 
Q 2419 397 2687 759 
Q 2956 1122 2956 1747 
Q 2956 2369 2687 2733 
Q 2419 3097 1959 3097 
z
M 1959 3584 
Q 2709 3584 3137 3096 
Q 3566 2609 3566 1747 
Q 3566 888 3137 398 
Q 2709 -91 1959 -91 
Q 1206 -91 779 398 
Q 353 888 353 1747 
Q 353 2609 779 3096 
Q 1206 3584 1959 3584 
z
" transform="scale(0.015625)"/>
      <path id="DejaVuSans-76" d="M 191 3500 
L 800 3500 
L 1894 563 
L 2988 3500 
L 3597 3500 
L 2284 0 
L 1503 0 
L 191 3500 
z
" transform="scale(0.015625)"/>
      <path id="DejaVuSans-67" d="M 2906 1791 
Q 2906 2416 2648 2759 
Q 2391 3103 1925 3103 
Q 1463 3103 1205 2759 
Q 947 2416 947 1791 
Q 947 1169 1205 825 
Q 1463 481 1925 481 
Q 2391 481 2648 825 
Q 2906 1169 2906 1791 
z
M 3481 434 
Q 3481 -459 3084 -895 
Q 2688 -1331 1869 -1331 
Q 1566 -1331 1297 -1286 
Q 1028 -1241 775 -1147 
L 775 -588 
Q 1028 -725 1275 -790 
Q 1522 -856 1778 -856 
Q 2344 -856 2625 -561 
Q 2906 -266 2906 331 
L 2906 616 
Q 2728 306 2450 153 
Q 2172 0 1784 0 
Q 1141 0 747 490 
Q 353 981 353 1791 
Q 353 2603 747 3093 
Q 1141 3584 1784 3584 
Q 2172 3584 2450 3431 
Q 2728 3278 2906 2969 
L 2906 3500 
L 3481 3500 
L 3481 434 
z
" transform="scale(0.015625)"/>
      <path id="DejaVuSans-72" d="M 2631 2963 
Q 2534 3019 2420 3045 
Q 2306 3072 2169 3072 
Q 1681 3072 1420 2755 
Q 1159 2438 1159 1844 
L 1159 0 
L 581 0 
L 581 3500 
L 1159 3500 
L 1159 2956 
Q 1341 3275 1631 3429 
Q 1922 3584 2338 3584 
Q 2397 3584 2469 3576 
Q 2541 3569 2628 3553 
L 2631 2963 
z
" transform="scale(0.015625)"/>
      <path id="DejaVuSans-28" d="M 1984 4856 
Q 1566 4138 1362 3434 
Q 1159 2731 1159 2009 
Q 1159 1288 1364 580 
Q 1569 -128 1984 -844 
L 1484 -844 
Q 1016 -109 783 600 
Q 550 1309 550 2009 
Q 550 2706 781 3412 
Q 1013 4119 1484 4856 
L 1984 4856 
z
" transform="scale(0.015625)"/>
      <path id="DejaVuSans-29" d="M 513 4856 
L 1013 4856 
Q 1481 4119 1714 3412 
Q 1947 2706 1947 2009 
Q 1947 1309 1714 600 
Q 1481 -109 1013 -844 
L 513 -844 
Q 928 -128 1133 580 
Q 1338 1288 1338 2009 
Q 1338 2731 1133 3434 
Q 928 4138 513 4856 
z
" transform="scale(0.015625)"/>
     </defs>
     <use xlink:href="#DejaVuSans-62"/>
     <use xlink:href="#DejaVuSans-61" transform="translate(63.476562 0)"/>
     <use xlink:href="#DejaVuSans-6c" transform="translate(124.755859 0)"/>
     <use xlink:href="#DejaVuSans-61" transform="translate(152.539062 0)"/>
     <use xlink:href="#DejaVuSans-6e" transform="translate(213.818359 0)"/>
     <use xlink:href="#DejaVuSans-63" transform="translate(277.197266 0)"/>
     <use xlink:href="#DejaVuSans-65" transform="translate(332.177734 0)"/>
     <use xlink:href="#DejaVuSans-64" transform="translate(393.701172 0)"/>
     <use xlink:href="#DejaVuSans-20" transform="translate(457.177734 0)"/>
     <use xlink:href="#DejaVuSans-6d" transform="translate(488.964844 0)"/>
     <use xlink:href="#DejaVuSans-75" transform="translate(586.376953 0)"/>
     <use xlink:href="#DejaVuSans-6c" transform="translate(649.755859 0)"/>
     <use xlink:href="#DejaVuSans-2c" transform="translate(677.539062 0)"/>
     <use xlink:href="#DejaVuSans-20" transform="translate(709.326172 0)"/>
     <use xlink:href="#DejaVuSans-61" transform="translate(741.113281 0)"/>
     <use xlink:href="#DejaVuSans-6e" transform="translate(802.392578 0)"/>
     <use xlink:href="#DejaVuSans-20" transform="translate(865.771484 0)"/>
     <use xlink:href="#DejaVuSans-3d" transform="translate(897.558594 0)"/>
     <use xlink:href="#DejaVuSans-20" transform="translate(981.347656 0)"/>
     <use xlink:href="#DejaVuSans-62" transform="translate(1013.134766 0)"/>
     <use xlink:href="#DejaVuSans-6e" transform="translate(1076.611328 0)"/>
     <use xlink:href="#DejaVuSans-20" transform="translate(1139.990234 0)"/>
     <use xlink:href="#DejaVuSans-3d" transform="translate(1171.777344 0)"/>
     <use xlink:href="#DejaVuSans-20" transform="translate(1255.566406 0)"/>
     <use xlink:href="#DejaVuSans-6e" transform="translate(1287.353516 0)"/>
     <use xlink:href="#DejaVuSans-2c" transform="translate(1350.732422 0)"/>
     <use xlink:href="#DejaVuSans-20" transform="translate(1382.519531 0)"/>
     <use xlink:href="#DejaVuSans-31" transform="translate(1414.306641 0)"/>
     <use xlink:href="#DejaVuSans-2f" transform="translate(1477.929688 0)"/>
     <use xlink:href="#DejaVuSans-31" transform="translate(1511.621094 0)"/>
     <use xlink:href="#DejaVuSans-36" transform="translate(1575.244141 0)"/>
     <use xlink:href="#DejaVuSans-2d" transform="translate(1638.867188 0)"/>
     <use xlink:href="#DejaVuSans-6f" transform="translate(1676.826172 0)"/>
     <use xlink:href="#DejaVuSans-63" transform="translate(1738.007812 0)"/>
     <use xlink:href="#DejaVuSans-74" transform="translate(1792.988281 0)"/>
     <use xlink:href="#DejaVuSans-61" transform="translate(1832.197266 0)"/>
     <use xlink:href="#DejaVuSans-76" transform="translate(1893.476562 0)"/>
     <use xlink:href="#DejaVuSans-65" transform="translate(1952.65625 0)"/>
     <use xlink:href="#DejaVuSans-20" transform="translate(2014.179688 0)"/>
     <use xlink:href="#DejaVuSans-67" transform="translate(2045.966797 0)"/>
     <use xlink:href="#DejaVuSans-72" transform="translate(2109.443359 0)"/>
     <use xlink:href="#DejaVuSans-69" transform="translate(2150.556641 0)"/>
     <use xlink:href="#DejaVuSans-64" transform="translate(2178.339844 0)"/>
     <use xlink:href="#DejaVuSans-20" transform="translate(2241.816406 0)"/>
     <use xlink:href="#DejaVuSans-28" transform="translate(2273.603516 0)"/>
     <use xlink:href="#DejaVuSans-73" transform="translate(2312.617188 0)"/>
     <use xlink:href="#DejaVuSans-6f" transform="translate(2364.716797 0)"/>
     <use xlink:href="#DejaVuSans-6c" transform="translate(2425.898438 0)"/>
     <use xlink:href="#DejaVuSans-6f" transform="translate(2453.681641 0)"/>
     <use xlink:href="#DejaVuSans-2d" transform="translate(2516.738281 0)"/>
     <use xlink:href="#DejaVuSans-70" transform="translate(2552.822266 0)"/>
     <use xlink:href="#DejaVuSans-65" transform="translate(2616.298828 0)"/>
     <use xlink:href="#DejaVuSans-72" transform="translate(2677.822266 0)"/>
     <use xlink:href="#DejaVuSans-2d" transform="translate(2712.560547 0)"/>
     <use xlink:href="#DejaVuSans-70" transform="translate(2748.644531 0)"/>
     <use xlink:href="#DejaVuSans-72" transform="translate(2812.121094 0)"/>
     <use xlink:href="#DejaVuSans-6f" transform="translate(2850.984375 0)"/>
     <use xlink:href="#DejaVuSans-63" transform="translate(2912.166016 0)"/>
     <use xlink:href="#DejaVuSans-65" transform="translate(2967.146484 0)"/>
     <use xlink:href="#DejaVuSans-73" transform="translate(3028.669922 0)"/>
     <use xlink:href="#DejaVuSans-73" transform="translate(3080.769531 0)"/>
     <use xlink:href="#DejaVuSans-29" transform="translate(3132.869141 0)"/>
    </g>
   </g>
   <g id="legend_1">
    <g id="patch_7">
     <path d="M 54.81 63.074375 
L 290.055313 63.074375 
Q 292.055313 63.074375 292.055313 61.074375 
L 292.055313 32.44 
Q 292.055313 30.44 290.055313 30.44 
L 54.81 30.44 
Q 52.81 30.44 52.81 32.44 
L 52.81 61.074375 
Q 52.81 63.074375 54.81 63.074375 
z
" style="fill: #ffffff; opacity: 0.8; stroke: #cccccc; stroke-linejoin: miter"/>
    </g>
    <g id="line2d_25">
     <path d="M 56.81 38.538437 
L 66.81 38.538437 
L 76.81 38.538437 
" style="fill: none; stroke: #ff7f0e; stroke-width: 1.1; stroke-linecap: square"/>
    </g>
    <g id="text_9">
     <!-- int_fft reference (AVX2, mul_auto bands) -->
     <g transform="translate(84.81 42.038437) scale(0.1 -0.1)">
      <defs>
       <path id="DejaVuSans-5f" d="M 3263 -1063 
L 3263 -1509 
L -63 -1509 
L -63 -1063 
L 3263 -1063 
z
" transform="scale(0.015625)"/>
       <path id="DejaVuSans-66" d="M 2375 4863 
L 2375 4384 
L 1825 4384 
Q 1516 4384 1395 4259 
Q 1275 4134 1275 3809 
L 1275 3500 
L 2222 3500 
L 2222 3053 
L 1275 3053 
L 1275 0 
L 697 0 
L 697 3053 
L 147 3053 
L 147 3500 
L 697 3500 
L 697 3744 
Q 697 4328 969 4595 
Q 1241 4863 1831 4863 
L 2375 4863 
z
" transform="scale(0.015625)"/>
       <path id="DejaVuSans-41" d="M 2188 4044 
L 1331 1722 
L 3047 1722 
L 2188 4044 
z
M 1831 4666 
L 2547 4666 
L 4325 0 
L 3669 0 
L 3244 1197 
L 1141 1197 
L 716 0 
L 50 0 
L 1831 4666 
z
" transform="scale(0.015625)"/>
       <path id="DejaVuSans-56" d="M 1831 0 
L 50 4666 
L 709 4666 
L 2188 738 
L 3669 4666 
L 4325 4666 
L 2547 0 
L 1831 0 
z
" transform="scale(0.015625)"/>
       <path id="DejaVuSans-58" d="M 403 4666 
L 1081 4666 
L 2241 2931 
L 3406 4666 
L 4084 4666 
L 2584 2425 
L 4184 0 
L 3506 0 
L 2194 1984 
L 872 0 
L 191 0 
L 1856 2491 
L 403 4666 
z
" transform="scale(0.015625)"/>
      </defs>
      <use xlink:href="#DejaVuSans-69"/>
      <use xlink:href="#DejaVuSans-6e" transform="translate(27.783203 0)"/>
      <use xlink:href="#DejaVuSans-74" transform="translate(91.162109 0)"/>
      <use xlink:href="#DejaVuSans-5f" transform="translate(130.371094 0)"/>
      <use xlink:href="#DejaVuSans-66" transform="translate(180.371094 0)"/>
      <use xlink:href="#DejaVuSans-66" transform="translate(215.576172 0)"/>
      <use xlink:href="#DejaVuSans-74" transform="translate(249.03125 0)"/>
      <use xlink:href="#DejaVuSans-20" transform="translate(288.240234 0)"/>
      <use xlink:href="#DejaVuSans-72" transform="translate(320.027344 0)"/>
      <use xlink:href="#DejaVuSans-65" transform="translate(358.890625 0)"/>
      <use xlink:href="#DejaVuSans-66" transform="translate(420.414062 0)"/>
      <use xlink:href="#DejaVuSans-65" transform="translate(455.619141 0)"/>
      <use xlink:href="#DejaVuSans-72" transform="translate(517.142578 0)"/>
      <use xlink:href="#DejaVuSans-65" transform="translate(556.005859 0)"/>
      <use xlink:href="#DejaVuSans-6e" transform="translate(617.529297 0)"/>
      <use xlink:href="#DejaVuSans-63" transform="translate(680.908203 0)"/>
      <use xlink:href="#DejaVuSans-65" transform="translate(735.888672 0)"/>
      <use xlink:href="#DejaVuSans-20" transform="translate(797.412109 0)"/>
      <use xlink:href="#DejaVuSans-28" transform="translate(829.199219 0)"/>
      <use xlink:href="#DejaVuSans-41" transform="translate(868.212891 0)"/>
      <use xlink:href="#DejaVuSans-56" transform="translate(930.246094 0)"/>
      <use xlink:href="#DejaVuSans-58" transform="translate(998.654297 0)"/>
      <use xlink:href="#DejaVuSans-32" transform="translate(1067.160156 0)"/>
      <use xlink:href="#DejaVuSans-2c" transform="translate(1130.783203 0)"/>
      <use xlink:href="#DejaVuSans-20" transform="translate(1162.570312 0)"/>
      <use xlink:href="#DejaVuSans-6d" transform="translate(1194.357422 0)"/>
      <use xlink:href="#DejaVuSans-75" transform="translate(1291.769531 0)"/>
      <use xlink:href="#DejaVuSans-6c" transform="translate(1355.148438 0)"/>
      <use xlink:href="#DejaVuSans-5f" transform="translate(1382.931641 0)"/>
      <use xlink:href="#DejaVuSans-61" transform="translate(1432.931641 0)"/>
      <use xlink:href="#DejaVuSans-75" transform="translate(1494.210938 0)"/>
      <use xlink:href="#DejaVuSans-74" transform="translate(1557.589844 0)"/>
      <use xlink:href="#DejaVuSans-6f" transform="translate(1596.798828 0)"/>
      <use xlink:href="#DejaVuSans-20" transform="translate(1657.980469 0)"/>
      <use xlink:href="#DejaVuSans-62" transform="translate(1689.767578 0)"/>
      <use xlink:href="#DejaVuSans-61" transform="translate(1753.244141 0)"/>
      <use xlink:href="#DejaVuSans-6e" transform="translate(1814.523438 0)"/>
      <use xlink:href="#DejaVuSans-64" transform="translate(1877.902344 0)"/>
      <use xlink:href="#DejaVuSans-73" transform="translate(1941.378906 0)"/>
      <use xlink:href="#DejaVuSans-29" transform="translate(1993.478516 0)"/>
     </g>
    </g>
    <g id="line2d_26">
     <path d="M 56.81 53.494687 
L 66.81 53.494687 
L 76.81 53.494687 
" style="fill: none; stroke: #1f77b4; stroke-width: 1.1; stroke-linecap: square"/>
    </g>
    <g id="text_10">
     <!-- fft16 (AVX-512, U16/centered bands) -->
     <g transform="translate(84.81 56.994687) scale(0.1 -0.1)">
      <defs>
       <path id="DejaVuSans-55" d="M 556 4666 
L 1191 4666 
L 1191 1831 
Q 1191 1081 1462 751 
Q 1734 422 2344 422 
Q 2950 422 3222 751 
Q 3494 1081 3494 1831 
L 3494 4666 
L 4128 4666 
L 4128 1753 
Q 4128 841 3676 375 
Q 3225 -91 2344 -91 
Q 1459 -91 1007 375 
Q 556 841 556 1753 
L 556 4666 
z
" transform="scale(0.015625)"/>
      </defs>
      <use xlink:href="#DejaVuSans-66"/>
      <use xlink:href="#DejaVuSans-66" transform="translate(35.205078 0)"/>
      <use xlink:href="#DejaVuSans-74" transform="translate(68.660156 0)"/>
      <use xlink:href="#DejaVuSans-31" transform="translate(107.869141 0)"/>
      <use xlink:href="#DejaVuSans-36" transform="translate(171.492188 0)"/>
      <use xlink:href="#DejaVuSans-20" transform="translate(235.115234 0)"/>
      <use xlink:href="#DejaVuSans-28" transform="translate(266.902344 0)"/>
      <use xlink:href="#DejaVuSans-41" transform="translate(305.916016 0)"/>
      <use xlink:href="#DejaVuSans-56" transform="translate(367.949219 0)"/>
      <use xlink:href="#DejaVuSans-58" transform="translate(436.357422 0)"/>
      <use xlink:href="#DejaVuSans-2d" transform="translate(499.863281 0)"/>
      <use xlink:href="#DejaVuSans-35" transform="translate(535.947266 0)"/>
      <use xlink:href="#DejaVuSans-31" transform="translate(599.570312 0)"/>
      <use xlink:href="#DejaVuSans-32" transform="translate(663.193359 0)"/>
      <use xlink:href="#DejaVuSans-2c" transform="translate(726.816406 0)"/>
      <use xlink:href="#DejaVuSans-20" transform="translate(758.603516 0)"/>
      <use xlink:href="#DejaVuSans-55" transform="translate(790.390625 0)"/>
      <use xlink:href="#DejaVuSans-31" transform="translate(863.583984 0)"/>
      <use xlink:href="#DejaVuSans-36" transform="translate(927.207031 0)"/>
      <use xlink:href="#DejaVuSans-2f" transform="translate(990.830078 0)"/>
      <use xlink:href="#DejaVuSans-63" transform="translate(1024.521484 0)"/>
      <use xlink:href="#DejaVuSans-65" transform="translate(1079.501953 0)"/>
      <use xlink:href="#DejaVuSans-6e" transform="translate(1141.025391 0)"/>
      <use xlink:href="#DejaVuSans-74" transform="translate(1204.404297 0)"/>
      <use xlink:href="#DejaVuSans-65" transform="translate(1243.613281 0)"/>
      <use xlink:href="#DejaVuSans-72" transform="translate(1305.136719 0)"/>
      <use xlink:href="#DejaVuSans-65" transform="translate(1344 0)"/>
      <use xlink:href="#DejaVuSans-64" transform="translate(1405.523438 0)"/>
      <use xlink:href="#DejaVuSans-20" transform="translate(1469 0)"/>
      <use xlink:href="#DejaVuSans-62" transform="translate(1500.787109 0)"/>
      <use xlink:href="#DejaVuSans-61" transform="translate(1564.263672 0)"/>
      <use xlink:href="#DejaVuSans-6e" transform="translate(1625.542969 0)"/>
      <use xlink:href="#DejaVuSans-64" transform="translate(1688.921875 0)"/>
      <use xlink:href="#DejaVuSans-73" transform="translate(1752.398438 0)"/>
      <use xlink:href="#DejaVuSans-29" transform="translate(1804.498047 0)"/>
     </g>
    </g>
   </g>
  </g>
  <g id="axes_2">
   <g id="patch_8">
    <path d="M 47.81 602.728 
L 925.2 602.728 
L 925.2 426.79425 
L 47.81 426.79425 
z
" style="fill: #ffffff"/>
   </g>
   <g id="matplotlib.axis_3">
    <g id="xtick_6">
     <g id="line2d_27">
      <path d="M 167.454091 602.728 
L 167.454091 426.79425 
" clip-path="url(#p81fc1095aa)" style="fill: none; stroke: #b0b0b0; stroke-opacity: 0.3; stroke-width: 0.8; stroke-linecap: square"/>
     </g>
     <g id="line2d_28">
      <g>
       <use xlink:href="#m6e474eaf8c" x="167.454091" y="602.728" style="stroke: #000000; stroke-width: 0.8"/>
      </g>
     </g>
     <g id="text_11">
      <!-- $\mathdefault{2^{8}}$ -->
      <g transform="translate(161.854091 617.326437) scale(0.1 -0.1)">
       <defs>
        <path id="DejaVuSans-38" d="M 2034 2216 
Q 1584 2216 1326 1975 
Q 1069 1734 1069 1313 
Q 1069 891 1326 650 
Q 1584 409 2034 409 
Q 2484 409 2743 651 
Q 3003 894 3003 1313 
Q 3003 1734 2745 1975 
Q 2488 2216 2034 2216 
z
M 1403 2484 
Q 997 2584 770 2862 
Q 544 3141 544 3541 
Q 544 4100 942 4425 
Q 1341 4750 2034 4750 
Q 2731 4750 3128 4425 
Q 3525 4100 3525 3541 
Q 3525 3141 3298 2862 
Q 3072 2584 2669 2484 
Q 3125 2378 3379 2068 
Q 3634 1759 3634 1313 
Q 3634 634 3220 271 
Q 2806 -91 2034 -91 
Q 1263 -91 848 271 
Q 434 634 434 1313 
Q 434 1759 690 2068 
Q 947 2378 1403 2484 
z
M 1172 3481 
Q 1172 3119 1398 2916 
Q 1625 2713 2034 2713 
Q 2441 2713 2670 2916 
Q 2900 3119 2900 3481 
Q 2900 3844 2670 4047 
Q 2441 4250 2034 4250 
Q 1625 4250 1398 4047 
Q 1172 3844 1172 3481 
z
" transform="scale(0.015625)"/>
       </defs>
       <use xlink:href="#DejaVuSans-32" transform="translate(0 0.765625)"/>
       <use xlink:href="#DejaVuSans-38" transform="translate(64.580078 39.046875) scale(0.7)"/>
      </g>
     </g>
    </g>
    <g id="xtick_7">
     <g id="line2d_29">
      <path d="M 326.979545 602.728 
L 326.979545 426.79425 
" clip-path="url(#p81fc1095aa)" style="fill: none; stroke: #b0b0b0; stroke-opacity: 0.3; stroke-width: 0.8; stroke-linecap: square"/>
     </g>
     <g id="line2d_30">
      <g>
       <use xlink:href="#m6e474eaf8c" x="326.979545" y="602.728" style="stroke: #000000; stroke-width: 0.8"/>
      </g>
     </g>
     <g id="text_12">
      <!-- $\mathdefault{2^{10}}$ -->
      <g transform="translate(319.129545 617.326437) scale(0.1 -0.1)">
       <use xlink:href="#DejaVuSans-32" transform="translate(0 0.765625)"/>
       <use xlink:href="#DejaVuSans-31" transform="translate(64.580078 39.046875) scale(0.7)"/>
       <use xlink:href="#DejaVuSans-30" transform="translate(109.116211 39.046875) scale(0.7)"/>
      </g>
     </g>
    </g>
    <g id="xtick_8">
     <g id="line2d_31">
      <path d="M 486.505 602.728 
L 486.505 426.79425 
" clip-path="url(#p81fc1095aa)" style="fill: none; stroke: #b0b0b0; stroke-opacity: 0.3; stroke-width: 0.8; stroke-linecap: square"/>
     </g>
     <g id="line2d_32">
      <g>
       <use xlink:href="#m6e474eaf8c" x="486.505" y="602.728" style="stroke: #000000; stroke-width: 0.8"/>
      </g>
     </g>
     <g id="text_13">
      <!-- $\mathdefault{2^{12}}$ -->
      <g transform="translate(478.655 617.326437) scale(0.1 -0.1)">
       <use xlink:href="#DejaVuSans-32" transform="translate(0 0.765625)"/>
       <use xlink:href="#DejaVuSans-31" transform="translate(64.580078 39.046875) scale(0.7)"/>
       <use xlink:href="#DejaVuSans-32" transform="translate(109.116211 39.046875) scale(0.7)"/>
      </g>
     </g>
    </g>
    <g id="xtick_9">
     <g id="line2d_33">
      <path d="M 646.030455 602.728 
L 646.030455 426.79425 
" clip-path="url(#p81fc1095aa)" style="fill: none; stroke: #b0b0b0; stroke-opacity: 0.3; stroke-width: 0.8; stroke-linecap: square"/>
     </g>
     <g id="line2d_34">
      <g>
       <use xlink:href="#m6e474eaf8c" x="646.030455" y="602.728" style="stroke: #000000; stroke-width: 0.8"/>
      </g>
     </g>
     <g id="text_14">
      <!-- $\mathdefault{2^{14}}$ -->
      <g transform="translate(638.180455 617.326437) scale(0.1 -0.1)">
       <defs>
        <path id="DejaVuSans-34" d="M 2419 4116 
L 825 1625 
L 2419 1625 
L 2419 4116 
z
M 2253 4666 
L 3047 4666 
L 3047 1625 
L 3713 1625 
L 3713 1100 
L 3047 1100 
L 3047 0 
L 2419 0 
L 2419 1100 
L 313 1100 
L 313 1709 
L 2253 4666 
z
" transform="scale(0.015625)"/>
       </defs>
       <use xlink:href="#DejaVuSans-32" transform="translate(0 0.684375)"/>
       <use xlink:href="#DejaVuSans-31" transform="translate(64.580078 38.965625) scale(0.7)"/>
       <use xlink:href="#DejaVuSans-34" transform="translate(109.116211 38.965625) scale(0.7)"/>
      </g>
     </g>
    </g>
    <g id="xtick_10">
     <g id="line2d_35">
      <path d="M 805.555909 602.728 
L 805.555909 426.79425 
" clip-path="url(#p81fc1095aa)" style="fill: none; stroke: #b0b0b0; stroke-opacity: 0.3; stroke-width: 0.8; stroke-linecap: square"/>
     </g>
     <g id="line2d_36">
      <g>
       <use xlink:href="#m6e474eaf8c" x="805.555909" y="602.728" style="stroke: #000000; stroke-width: 0.8"/>
      </g>
     </g>
     <g id="text_15">
      <!-- $\mathdefault{2^{16}}$ -->
      <g transform="translate(797.705909 617.326437) scale(0.1 -0.1)">
       <use xlink:href="#DejaVuSans-32" transform="translate(0 0.765625)"/>
       <use xlink:href="#DejaVuSans-31" transform="translate(64.580078 39.046875) scale(0.7)"/>
       <use xlink:href="#DejaVuSans-36" transform="translate(109.116211 39.046875) scale(0.7)"/>
      </g>
     </g>
    </g>
    <g id="text_16">
     <!-- n (u64 limbs) -->
     <g transform="translate(453.297969 631.004563) scale(0.1 -0.1)">
      <use xlink:href="#DejaVuSans-6e"/>
      <use xlink:href="#DejaVuSans-20" transform="translate(63.378906 0)"/>
      <use xlink:href="#DejaVuSans-28" transform="translate(95.166016 0)"/>
      <use xlink:href="#DejaVuSans-75" transform="translate(134.179688 0)"/>
      <use xlink:href="#DejaVuSans-36" transform="translate(197.558594 0)"/>
      <use xlink:href="#DejaVuSans-34" transform="translate(261.181641 0)"/>
      <use xlink:href="#DejaVuSans-20" transform="translate(324.804688 0)"/>
      <use xlink:href="#DejaVuSans-6c" transform="translate(356.591797 0)"/>
      <use xlink:href="#DejaVuSans-69" transform="translate(384.375 0)"/>
      <use xlink:href="#DejaVuSans-6d" transform="translate(412.158203 0)"/>
      <use xlink:href="#DejaVuSans-62" transform="translate(509.570312 0)"/>
      <use xlink:href="#DejaVuSans-73" transform="translate(573.046875 0)"/>
      <use xlink:href="#DejaVuSans-29" transform="translate(625.146484 0)"/>
     </g>
    </g>
   </g>
   <g id="matplotlib.axis_4">
    <g id="ytick_7">
     <g id="line2d_37">
      <path d="M 47.81 594.731011 
L 925.2 594.731011 
" clip-path="url(#p81fc1095aa)" style="fill: none; stroke: #b0b0b0; stroke-opacity: 0.3; stroke-width: 0.8; stroke-linecap: square"/>
     </g>
     <g id="line2d_38">
      <g>
       <use xlink:href="#m08c788deca" x="47.81" y="594.731011" style="stroke: #000000; stroke-width: 0.8"/>
      </g>
     </g>
     <g id="text_17">
      <!-- 1.0 -->
      <g transform="translate(24.906875 598.53023) scale(0.1 -0.1)">
       <defs>
        <path id="DejaVuSans-2e" d="M 684 794 
L 1344 794 
L 1344 0 
L 684 0 
L 684 794 
z
" transform="scale(0.015625)"/>
       </defs>
       <use xlink:href="#DejaVuSans-31"/>
       <use xlink:href="#DejaVuSans-2e" transform="translate(63.623047 0)"/>
       <use xlink:href="#DejaVuSans-30" transform="translate(95.410156 0)"/>
      </g>
     </g>
    </g>
    <g id="ytick_8">
     <g id="line2d_39">
      <path d="M 47.81 558.080103 
L 925.2 558.080103 
" clip-path="url(#p81fc1095aa)" style="fill: none; stroke: #b0b0b0; stroke-opacity: 0.3; stroke-width: 0.8; stroke-linecap: square"/>
     </g>
     <g id="line2d_40">
      <g>
       <use xlink:href="#m08c788deca" x="47.81" y="558.080103" style="stroke: #000000; stroke-width: 0.8"/>
      </g>
     </g>
     <g id="text_18">
      <!-- 1.2 -->
      <g transform="translate(24.906875 561.879322) scale(0.1 -0.1)">
       <use xlink:href="#DejaVuSans-31"/>
       <use xlink:href="#DejaVuSans-2e" transform="translate(63.623047 0)"/>
       <use xlink:href="#DejaVuSans-32" transform="translate(95.410156 0)"/>
      </g>
     </g>
    </g>
    <g id="ytick_9">
     <g id="line2d_41">
      <path d="M 47.81 521.429194 
L 925.2 521.429194 
" clip-path="url(#p81fc1095aa)" style="fill: none; stroke: #b0b0b0; stroke-opacity: 0.3; stroke-width: 0.8; stroke-linecap: square"/>
     </g>
     <g id="line2d_42">
      <g>
       <use xlink:href="#m08c788deca" x="47.81" y="521.429194" style="stroke: #000000; stroke-width: 0.8"/>
      </g>
     </g>
     <g id="text_19">
      <!-- 1.4 -->
      <g transform="translate(24.906875 525.228413) scale(0.1 -0.1)">
       <use xlink:href="#DejaVuSans-31"/>
       <use xlink:href="#DejaVuSans-2e" transform="translate(63.623047 0)"/>
       <use xlink:href="#DejaVuSans-34" transform="translate(95.410156 0)"/>
      </g>
     </g>
    </g>
    <g id="ytick_10">
     <g id="line2d_43">
      <path d="M 47.81 484.778286 
L 925.2 484.778286 
" clip-path="url(#p81fc1095aa)" style="fill: none; stroke: #b0b0b0; stroke-opacity: 0.3; stroke-width: 0.8; stroke-linecap: square"/>
     </g>
     <g id="line2d_44">
      <g>
       <use xlink:href="#m08c788deca" x="47.81" y="484.778286" style="stroke: #000000; stroke-width: 0.8"/>
      </g>
     </g>
     <g id="text_20">
      <!-- 1.6 -->
      <g transform="translate(24.906875 488.577505) scale(0.1 -0.1)">
       <use xlink:href="#DejaVuSans-31"/>
       <use xlink:href="#DejaVuSans-2e" transform="translate(63.623047 0)"/>
       <use xlink:href="#DejaVuSans-36" transform="translate(95.410156 0)"/>
      </g>
     </g>
    </g>
    <g id="ytick_11">
     <g id="line2d_45">
      <path d="M 47.81 448.127377 
L 925.2 448.127377 
" clip-path="url(#p81fc1095aa)" style="fill: none; stroke: #b0b0b0; stroke-opacity: 0.3; stroke-width: 0.8; stroke-linecap: square"/>
     </g>
     <g id="line2d_46">
      <g>
       <use xlink:href="#m08c788deca" x="47.81" y="448.127377" style="stroke: #000000; stroke-width: 0.8"/>
      </g>
     </g>
     <g id="text_21">
      <!-- 1.8 -->
      <g transform="translate(24.906875 451.926596) scale(0.1 -0.1)">
       <use xlink:href="#DejaVuSans-31"/>
       <use xlink:href="#DejaVuSans-2e" transform="translate(63.623047 0)"/>
       <use xlink:href="#DejaVuSans-38" transform="translate(95.410156 0)"/>
      </g>
     </g>
    </g>
    <g id="text_22">
     <!-- speedup (ref / fft16) -->
     <g transform="translate(18.827187 565.098625) rotate(-90) scale(0.1 -0.1)">
      <use xlink:href="#DejaVuSans-73"/>
      <use xlink:href="#DejaVuSans-70" transform="translate(52.099609 0)"/>
      <use xlink:href="#DejaVuSans-65" transform="translate(115.576172 0)"/>
      <use xlink:href="#DejaVuSans-65" transform="translate(177.099609 0)"/>
      <use xlink:href="#DejaVuSans-64" transform="translate(238.623047 0)"/>
      <use xlink:href="#DejaVuSans-75" transform="translate(302.099609 0)"/>
      <use xlink:href="#DejaVuSans-70" transform="translate(365.478516 0)"/>
      <use xlink:href="#DejaVuSans-20" transform="translate(428.955078 0)"/>
      <use xlink:href="#DejaVuSans-28" transform="translate(460.742188 0)"/>
      <use xlink:href="#DejaVuSans-72" transform="translate(499.755859 0)"/>
      <use xlink:href="#DejaVuSans-65" transform="translate(538.619141 0)"/>
      <use xlink:href="#DejaVuSans-66" transform="translate(600.142578 0)"/>
      <use xlink:href="#DejaVuSans-20" transform="translate(635.347656 0)"/>
      <use xlink:href="#DejaVuSans-2f" transform="translate(667.134766 0)"/>
      <use xlink:href="#DejaVuSans-20" transform="translate(700.826172 0)"/>
      <use xlink:href="#DejaVuSans-66" transform="translate(732.613281 0)"/>
      <use xlink:href="#DejaVuSans-66" transform="translate(767.818359 0)"/>
      <use xlink:href="#DejaVuSans-74" transform="translate(801.273438 0)"/>
      <use xlink:href="#DejaVuSans-31" transform="translate(840.482422 0)"/>
      <use xlink:href="#DejaVuSans-36" transform="translate(904.105469 0)"/>
      <use xlink:href="#DejaVuSans-29" transform="translate(967.728516 0)"/>
     </g>
    </g>
   </g>
   <g id="line2d_47">
    <path d="M 87.691364 505.6457 
L 92.962818 491.059982 
L 98.00333 487.836829 
L 102.832288 485.47933 
L 107.466738 484.2877 
L 112.647761 480.375338 
L 117.605532 449.77667 
L 122.358496 447.166415 
L 127.560435 444.527139 
L 132.537353 440.70617 
L 137.307913 480.59889 
L 142.448518 478.600801 
L 147.369266 475.718366 
L 152.600771 456.333132 
L 157.604746 453.43597 
L 162.40016 449.999323 
L 167.454091 446.145916 
L 172.295364 494.218886 
L 177.354345 490.939469 
L 182.595015 488.891453 
L 187.229466 486.534132 
L 192.410489 483.689378 
L 197.368259 455.023272 
L 202.453326 452.822809 
L 207.323162 447.136968 
L 212.30008 444.45941 
L 217.362335 483.653327 
L 222.211245 479.882116 
L 227.399295 476.881687 
L 232.363498 467.006133 
L 237.367473 463.586715 
L 242.162887 460.513039 
L 247.216818 457.893096 
L 252.273383 500.943203 
L 257.117073 498.632193 
L 262.160531 495.663944 
L 267.181303 493.37327 
L 272.173216 490.339545 
L 277.130986 442.938823 
L 282.050122 440.089729 
L 287.085889 437.313037 
L 292.062807 434.791239 
L 297.125062 467.714392 
L 302.11354 465.441344 
L 307.028449 462.732767 
L 311.998295 457.135003 
L 317.007717 454.845412 
L 322.042977 454.713792 
L 326.979545 448.889633 
L 331.928515 492.735894 
L 336.982866 491.742014 
L 341.923258 489.884993 
L 346.94403 487.43527 
L 351.935943 484.854009 
L 356.893713 459.879024 
L 361.895845 456.854085 
L 371.825535 451.767857 
L 376.814935 478.670897 
L 381.806505 475.81525 
L 386.791176 474.659935 
L 391.761022 476.325409 
L 396.770444 473.502665 
L 401.747038 470.362016 
L 406.742273 468.114189 
L 411.745052 498.742678 
L 416.694072 497.307551 
L 421.685985 495.023126 
L 426.659509 493.013899 
L 431.653428 486.917822 
L 436.656441 450.155866 
L 441.658572 446.087375 
L 446.611344 442.795965 
L 451.626309 440.797773 
L 456.577662 467.373438 
L 461.569232 467.611784 
L 466.553903 463.512946 
L 471.555746 461.238467 
L 476.533171 458.687592 
L 481.509765 455.816402 
L 486.505 454.091357 
L 491.480877 489.239078 
L 496.482563 486.503974 
L 501.448712 485.446002 
L 506.445863 483.932672 
L 511.438779 481.43345 
L 516.419168 464.715614 
L 521.400556 462.898085 
L 526.393937 460.360689 
L 531.370014 457.072533 
L 536.358607 475.647633 
L 541.349404 473.400956 
L 546.333336 470.87481 
L 551.318473 491.467401 
L 556.295899 490.540171 
L 561.287162 488.093856 
L 566.267727 486.245885 
L 571.257057 496.009869 
L 576.232409 493.635353 
L 581.223775 492.131933 
L 586.20859 508.688019 
L 591.190195 484.005123 
L 596.181895 445.895641 
L 601.163283 450.660906 
L 606.146732 446.836985 
L 611.132742 445.784275 
L 616.121335 478.902459 
L 621.103409 483.364054 
L 626.087711 480.747089 
L 631.073202 463.897922 
L 636.058626 462.247694 
L 641.042555 459.703869 
L 646.030455 457.978788 
L 651.013058 490.115132 
L 656.001577 489.043791 
L 660.986503 486.685025 
L 665.971317 483.330502 
L 670.958578 481.790466 
L 675.939207 469.567158 
L 680.92601 466.389602 
L 685.909459 463.976093 
L 690.895469 461.686497 
L 695.884062 490.066591 
L 705.850438 487.15214 
L 710.835929 467.424759 
L 715.821353 464.233813 
L 720.808949 462.357132 
L 725.793182 460.218985 
L 730.779148 586.408613 
L 735.764304 579.372003 
L 740.74923 571.715347 
L 745.734045 563.419774 
L 750.718478 555.987067 
L 755.704642 514.721458 
L 760.688738 509.52839 
L 765.67467 508.027061 
L 770.660574 502.769235 
L 775.644512 554.872941 
L 780.631044 552.349337 
L 785.615253 549.55052 
L 790.600656 541.977484 
L 795.585995 540.262132 
L 800.569843 536.19239 
L 805.555909 532.797046 
L 810.541876 575.481703 
L 815.527031 554.530301 
L 820.511957 551.547522 
L 825.496772 553.240339 
L 830.481205 546.466661 
L 835.467369 527.542458 
L 840.451465 526.554487 
L 845.437397 519.42335 
L 850.422112 520.656419 
L 855.407239 561.345874 
L 860.392681 562.603531 
L 865.377981 553.823368 
L 870.363383 568.831291 
L 875.348723 556.023236 
L 880.333487 571.188384 
L 885.318636 563.908659 
L 885.318636 563.908659 
" clip-path="url(#p81fc1095aa)" style="fill: none; stroke: #2ca02c; stroke-width: 1.1; stroke-linecap: square"/>
   </g>
   <g id="line2d_48">
    <path d="M 47.81 594.731011 
L 925.2 594.731011 
" clip-path="url(#p81fc1095aa)" style="fill: none; stroke: #000000; stroke-width: 0.8; stroke-linecap: square"/>
   </g>
   <g id="patch_9">
    <path d="M 47.81 602.728 
L 47.81 426.79425 
" style="fill: none; stroke: #000000; stroke-width: 0.8; stroke-linejoin: miter; stroke-linecap: square"/>
   </g>
   <g id="patch_10">
    <path d="M 925.2 602.728 
L 925.2 426.79425 
" style="fill: none; stroke: #000000; stroke-width: 0.8; stroke-linejoin: miter; stroke-linecap: square"/>
   </g>
   <g id="patch_11">
    <path d="M 47.81 602.728 
L 925.2 602.728 
" style="fill: none; stroke: #000000; stroke-width: 0.8; stroke-linejoin: miter; stroke-linecap: square"/>
   </g>
   <g id="patch_12">
    <path d="M 47.81 426.79425 
L 925.2 426.79425 
" style="fill: none; stroke: #000000; stroke-width: 0.8; stroke-linejoin: miter; stroke-linecap: square"/>
   </g>
  </g>
 </g>
 <defs>
  <clipPath id="p96bd607833">
   <rect x="47.81" y="25.44" width="877.39" height="387.05425"/>
  </clipPath>
  <clipPath id="p81fc1095aa">
   <rect x="47.81" y="426.79425" width="877.39" height="175.93375"/>
  </clipPath>
 </defs>
</svg>
