<?xml version="1.0" encoding="utf-8" standalone="no"?>
<!DOCTYPE svg PUBLIC "-//W3C//DTD SVG 1.1//EN"
  "http://www.w3.org/Graphics/SVG/1.1/DTD/svg11.dtd">
<svg xmlns:xlink="http://www.w3.org/1999/xlink" width="936pt" height="648pt" viewBox="0 0 936 648" xmlns="http://www.w3.org/2000/svg" version="1.1">
 <metadata>
  <rdf:RDF xmlns:dc="http://purl.org/dc/elements/1.1/" xmlns:cc="http://creativecommons.org/ns#" xmlns:rdf="http://www.w3.org/1999/02/22-rdf-syntax-ns#">
   <cc:Work>
    <dc:type rdf:resource="http://purl.org/dc/dcmitype/StillImage"/>
    <dc:date>2026-06-11T19:37:30.708335</dc:date>
    <dc:format>image/svg+xml</dc:format>
    <dc:creator>
     <cc:Agent>
      <dc:title>Matplotlib v3.10.7+dfsg1, https://matplotlib.org/</dc:title>
     </cc:Agent>
    </dc:creator>
   </cc:Work>
  </rdf:RDF>
 </metadata>
 <defs>
  <style type="text/css">*{stroke-linejoin: round; stroke-linecap: butt}</style>
 </defs>
 <g id="figure_1">
  <g id="patch_1">
   <path d="M 0 648 
L 936 648 
L 936 0 
L 0 0 
z
" style="fill: #ffffff"/>
  </g>
  <g id="axes_1">
   <g id="patch_2">
    <path d="M 47.81 412.49425 
L 925.2 412.49425 
L 925.2 25.44 
L 47.81 25.44 
z
" style="fill: #ffffff"/>
   </g>
   <g id="matplotlib.axis_1">
    <g id="xtick_1">
     <g id="line2d_1">
      <path d="M 87.691364 412.49425 
L 87.691364 25.44 
" clip-path="url(#pd38d3b93d0)" style="fill: none; stroke: #b0b0b0; stroke-opacity: 0.3; stroke-width: 0.8; stroke-linecap: square"/>
     </g>
     <g id="line2d_2">
      <defs>
       <path id="m0f8dd0f528" d="M 0 0 
L 0 3.5 
" style="stroke: #000000; stroke-width: 0.8"/>
      </defs>
      <g>
       <use xlink:href="#m0f8dd0f528" x="87.691364" y="412.49425" style="stroke: #000000; stroke-width: 0.8"/>
      </g>
     </g>
    </g>
    <g id="xtick_2">
     <g id="line2d_3">
      <path d="M 201.638117 412.49425 
L 201.638117 25.44 
" clip-path="url(#pd38d3b93d0)" style="fill: none; stroke: #b0b0b0; stroke-opacity: 0.3; stroke-width: 0.8; stroke-linecap: square"/>
     </g>
     <g id="line2d_4">
      <g>
       <use xlink:href="#m0f8dd0f528" x="201.638117" y="412.49425" style="stroke: #000000; stroke-width: 0.8"/>
      </g>
     </g>
    </g>
    <g id="xtick_3">
     <g id="line2d_5">
      <path d="M 315.58487 412.49425 
L 315.58487 25.44 
" clip-path="url(#pd38d3b93d0)" style="fill: none; stroke: #b0b0b0; stroke-opacity: 0.3; stroke-width: 0.8; stroke-linecap: square"/>
     </g>
     <g id="line2d_6">
      <g>
       <use xlink:href="#m0f8dd0f528" x="315.58487" y="412.49425" style="stroke: #000000; stroke-width: 0.8"/>
      </g>
     </g>
    </g>
    <g id="xtick_4">
     <g id="line2d_7">
      <path d="M 429.531623 412.49425 
L 429.531623 25.44 
" clip-path="url(#pd38d3b93d0)" style="fill: none; stroke: #b0b0b0; stroke-opacity: 0.3; stroke-width: 0.8; stroke-linecap: square"/>
     </g>
     <g id="line2d_8">
      <g>
       <use xlink:href="#m0f8dd0f528" x="429.531623" y="412.49425" style="stroke: #000000; stroke-width: 0.8"/>
      </g>
     </g>
    </g>
    <g id="xtick_5">
     <g id="line2d_9">
      <path d="M 543.478377 412.49425 
L 543.478377 25.44 
" clip-path="url(#pd38d3b93d0)" style="fill: none; stroke: #b0b0b0; stroke-opacity: 0.3; stroke-width: 0.8; stroke-linecap: square"/>
     </g>
     <g id="line2d_10">
      <g>
       <use xlink:href="#m0f8dd0f528" x="543.478377" y="412.49425" style="stroke: #000000; stroke-width: 0.8"/>
      </g>
     </g>
    </g>
    <g id="xtick_6">
     <g id="line2d_11">
      <path d="M 657.42513 412.49425 
L 657.42513 25.44 
" clip-path="url(#pd38d3b93d0)" style="fill: none; stroke: #b0b0b0; stroke-opacity: 0.3; stroke-width: 0.8; stroke-linecap: square"/>
     </g>
     <g id="line2d_12">
      <g>
       <use xlink:href="#m0f8dd0f528" x="657.42513" y="412.49425" style="stroke: #000000; stroke-width: 0.8"/>
      </g>
     </g>
    </g>
    <g id="xtick_7">
     <g id="line2d_13">
      <path d="M 771.371883 412.49425 
L 771.371883 25.44 
" clip-path="url(#pd38d3b93d0)" style="fill: none; stroke: #b0b0b0; stroke-opacity: 0.3; stroke-width: 0.8; stroke-linecap: square"/>
     </g>
     <g id="line2d_14">
      <g>
       <use xlink:href="#m0f8dd0f528" x="771.371883" y="412.49425" style="stroke: #000000; stroke-width: 0.8"/>
      </g>
     </g>
    </g>
    <g id="xtick_8">
     <g id="line2d_15">
      <path d="M 885.318636 412.49425 
L 885.318636 25.44 
" clip-path="url(#pd38d3b93d0)" style="fill: none; stroke: #b0b0b0; stroke-opacity: 0.3; stroke-width: 0.8; stroke-linecap: square"/>
     </g>
     <g id="line2d_16">
      <g>
       <use xlink:href="#m0f8dd0f528" x="885.318636" y="412.49425" style="stroke: #000000; stroke-width: 0.8"/>
      </g>
     </g>
    </g>
   </g>
   <g id="matplotlib.axis_2">
    <g id="ytick_1">
     <g id="line2d_17">
      <path d="M 47.81 386.147801 
L 925.2 386.147801 
" clip-path="url(#pd38d3b93d0)" style="fill: none; stroke: #b0b0b0; stroke-opacity: 0.3; stroke-width: 0.8; stroke-linecap: square"/>
     </g>
     <g id="line2d_18">
      <defs>
       <path id="m281edfe4b4" d="M 0 0 
L -3.5 0 
" style="stroke: #000000; stroke-width: 0.8"/>
      </defs>
      <g>
       <use xlink:href="#m281edfe4b4" x="47.81" y="386.147801" style="stroke: #000000; stroke-width: 0.8"/>
      </g>
     </g>
     <g id="text_1">
      <!-- 8 -->
      <g transform="translate(34.4475 389.94702) scale(0.1 -0.1)">
       <defs>
        <path id="DejaVuSans-38" d="M 2034 2216 
Q 1584 2216 1326 1975 
Q 1069 1734 1069 1313 
Q 1069 891 1326 650 
Q 1584 409 2034 409 
Q 2484 409 2743 651 
Q 3003 894 3003 1313 
Q 3003 1734 2745 1975 
Q 2488 2216 2034 2216 
z
M 1403 2484 
Q 997 2584 770 2862 
Q 544 3141 544 3541 
Q 544 4100 942 4425 
Q 1341 4750 2034 4750 
Q 2731 4750 3128 4425 
Q 3525 4100 3525 3541 
Q 3525 3141 3298 2862 
Q 3072 2584 2669 2484 
Q 3125 2378 3379 2068 
Q 3634 1759 3634 1313 
Q 3634 634 3220 271 
Q 2806 -91 2034 -91 
Q 1263 -91 848 271 
Q 434 634 434 1313 
Q 434 1759 690 2068 
Q 947 2378 1403 2484 
z
M 1172 3481 
Q 1172 3119 1398 2916 
Q 1625 2713 2034 2713 
Q 2441 2713 2670 2916 
Q 2900 3119 2900 3481 
Q 2900 3844 2670 4047 
Q 2441 4250 2034 4250 
Q 1625 4250 1398 4047 
Q 1172 3844 1172 3481 
z
" transform="scale(0.015625)"/>
       </defs>
       <use xlink:href="#DejaVuSans-38"/>
      </g>
     </g>
    </g>
    <g id="ytick_2">
     <g id="line2d_19">
      <path d="M 47.81 339.564121 
L 925.2 339.564121 
" clip-path="url(#pd38d3b93d0)" style="fill: none; stroke: #b0b0b0; stroke-opacity: 0.3; stroke-width: 0.8; stroke-linecap: square"/>
     </g>
     <g id="line2d_20">
      <g>
       <use xlink:href="#m281edfe4b4" x="47.81" y="339.564121" style="stroke: #000000; stroke-width: 0.8"/>
      </g>
     </g>
     <g id="text_2">
      <!-- 10 -->
      <g transform="translate(28.085 343.36334) scale(0.1 -0.1)">
       <defs>
        <path id="DejaVuSans-31" d="M 794 531 
L 1825 531 
L 1825 4091 
L 703 3866 
L 703 4441 
L 1819 4666 
L 2450 4666 
L 2450 531 
L 3481 531 
L 3481 0 
L 794 0 
L 794 531 
z
" transform="scale(0.015625)"/>
        <path id="DejaVuSans-30" d="M 2034 4250 
Q 1547 4250 1301 3770 
Q 1056 3291 1056 2328 
Q 1056 1369 1301 889 
Q 1547 409 2034 409 
Q 2525 409 2770 889 
Q 3016 1369 3016 2328 
Q 3016 3291 2770 3770 
Q 2525 4250 2034 4250 
z
M 2034 4750 
Q 2819 4750 3233 4129 
Q 3647 3509 3647 2328 
Q 3647 1150 3233 529 
Q 2819 -91 2034 -91 
Q 1250 -91 836 529 
Q 422 1150 422 2328 
Q 422 3509 836 4129 
Q 1250 4750 2034 4750 
z
" transform="scale(0.015625)"/>
       </defs>
       <use xlink:href="#DejaVuSans-31"/>
       <use xlink:href="#DejaVuSans-30" transform="translate(63.623047 0)"/>
      </g>
     </g>
    </g>
    <g id="ytick_3">
     <g id="line2d_21">
      <path d="M 47.81 292.980441 
L 925.2 292.980441 
" clip-path="url(#pd38d3b93d0)" style="fill: none; stroke: #b0b0b0; stroke-opacity: 0.3; stroke-width: 0.8; stroke-linecap: square"/>
     </g>
     <g id="line2d_22">
      <g>
       <use xlink:href="#m281edfe4b4" x="47.81" y="292.980441" style="stroke: #000000; stroke-width: 0.8"/>
      </g>
     </g>
     <g id="text_3">
      <!-- 12 -->
      <g transform="translate(28.085 296.77966) scale(0.1 -0.1)">
       <defs>
        <path id="DejaVuSans-32" d="M 1228 531 
L 3431 531 
L 3431 0 
L 469 0 
L 469 531 
Q 828 903 1448 1529 
Q 2069 2156 2228 2338 
Q 2531 2678 2651 2914 
Q 2772 3150 2772 3378 
Q 2772 3750 2511 3984 
Q 2250 4219 1831 4219 
Q 1534 4219 1204 4116 
Q 875 4013 500 3803 
L 500 4441 
Q 881 4594 1212 4672 
Q 1544 4750 1819 4750 
Q 2544 4750 2975 4387 
Q 3406 4025 3406 3419 
Q 3406 3131 3298 2873 
Q 3191 2616 2906 2266 
Q 2828 2175 2409 1742 
Q 1991 1309 1228 531 
z
" transform="scale(0.015625)"/>
       </defs>
       <use xlink:href="#DejaVuSans-31"/>
       <use xlink:href="#DejaVuSans-32" transform="translate(63.623047 0)"/>
      </g>
     </g>
    </g>
    <g id="ytick_4">
     <g id="line2d_23">
      <path d="M 47.81 246.396761 
L 925.2 246.396761 
" clip-path="url(#pd38d3b93d0)" style="fill: none; stroke: #b0b0b0; stroke-opacity: 0.3; stroke-width: 0.8; stroke-linecap: square"/>
     </g>
     <g id="line2d_24">
      <g>
       <use xlink:href="#m281edfe4b4" x="47.81" y="246.396761" style="stroke: #000000; stroke-width: 0.8"/>
      </g>
     </g>
     <g id="text_4">
      <!-- 14 -->
      <g transform="translate(28.085 250.195979) scale(0.1 -0.1)">
       <defs>
        <path id="DejaVuSans-34" d="M 2419 4116 
L 825 1625 
L 2419 1625 
L 2419 4116 
z
M 2253 4666 
L 3047 4666 
L 3047 1625 
L 3713 1625 
L 3713 1100 
L 3047 1100 
L 3047 0 
L 2419 0 
L 2419 1100 
L 313 1100 
L 313 1709 
L 2253 4666 
z
" transform="scale(0.015625)"/>
       </defs>
       <use xlink:href="#DejaVuSans-31"/>
       <use xlink:href="#DejaVuSans-34" transform="translate(63.623047 0)"/>
      </g>
     </g>
    </g>
    <g id="ytick_5">
     <g id="line2d_25">
      <path d="M 47.81 199.81308 
L 925.2 199.81308 
" clip-path="url(#pd38d3b93d0)" style="fill: none; stroke: #b0b0b0; stroke-opacity: 0.3; stroke-width: 0.8; stroke-linecap: square"/>
     </g>
     <g id="line2d_26">
      <g>
       <use xlink:href="#m281edfe4b4" x="47.81" y="199.81308" style="stroke: #000000; stroke-width: 0.8"/>
      </g>
     </g>
     <g id="text_5">
      <!-- 16 -->
      <g transform="translate(28.085 203.612299) scale(0.1 -0.1)">
       <defs>
        <path id="DejaVuSans-36" d="M 2113 2584 
Q 1688 2584 1439 2293 
Q 1191 2003 1191 1497 
Q 1191 994 1439 701 
Q 1688 409 2113 409 
Q 2538 409 2786 701 
Q 3034 994 3034 1497 
Q 3034 2003 2786 2293 
Q 2538 2584 2113 2584 
z
M 3366 4563 
L 3366 3988 
Q 3128 4100 2886 4159 
Q 2644 4219 2406 4219 
Q 1781 4219 1451 3797 
Q 1122 3375 1075 2522 
Q 1259 2794 1537 2939 
Q 1816 3084 2150 3084 
Q 2853 3084 3261 2657 
Q 3669 2231 3669 1497 
Q 3669 778 3244 343 
Q 2819 -91 2113 -91 
Q 1303 -91 875 529 
Q 447 1150 447 2328 
Q 447 3434 972 4092 
Q 1497 4750 2381 4750 
Q 2619 4750 2861 4703 
Q 3103 4656 3366 4563 
z
" transform="scale(0.015625)"/>
       </defs>
       <use xlink:href="#DejaVuSans-31"/>
       <use xlink:href="#DejaVuSans-36" transform="translate(63.623047 0)"/>
      </g>
     </g>
    </g>
    <g id="ytick_6">
     <g id="line2d_27">
      <path d="M 47.81 153.2294 
L 925.2 153.2294 
" clip-path="url(#pd38d3b93d0)" style="fill: none; stroke: #b0b0b0; stroke-opacity: 0.3; stroke-width: 0.8; stroke-linecap: square"/>
     </g>
     <g id="line2d_28">
      <g>
       <use xlink:href="#m281edfe4b4" x="47.81" y="153.2294" style="stroke: #000000; stroke-width: 0.8"/>
      </g>
     </g>
     <g id="text_6">
      <!-- 18 -->
      <g transform="translate(28.085 157.028619) scale(0.1 -0.1)">
       <use xlink:href="#DejaVuSans-31"/>
       <use xlink:href="#DejaVuSans-38" transform="translate(63.623047 0)"/>
      </g>
     </g>
    </g>
    <g id="ytick_7">
     <g id="line2d_29">
      <path d="M 47.81 106.64572 
L 925.2 106.64572 
" clip-path="url(#pd38d3b93d0)" style="fill: none; stroke: #b0b0b0; stroke-opacity: 0.3; stroke-width: 0.8; stroke-linecap: square"/>
     </g>
     <g id="line2d_30">
      <g>
       <use xlink:href="#m281edfe4b4" x="47.81" y="106.64572" style="stroke: #000000; stroke-width: 0.8"/>
      </g>
     </g>
     <g id="text_7">
      <!-- 20 -->
      <g transform="translate(28.085 110.444938) scale(0.1 -0.1)">
       <use xlink:href="#DejaVuSans-32"/>
       <use xlink:href="#DejaVuSans-30" transform="translate(63.623047 0)"/>
      </g>
     </g>
    </g>
    <g id="ytick_8">
     <g id="line2d_31">
      <path d="M 47.81 60.062039 
L 925.2 60.062039 
" clip-path="url(#pd38d3b93d0)" style="fill: none; stroke: #b0b0b0; stroke-opacity: 0.3; stroke-width: 0.8; stroke-linecap: square"/>
     </g>
     <g id="line2d_32">
      <g>
       <use xlink:href="#m281edfe4b4" x="47.81" y="60.062039" style="stroke: #000000; stroke-width: 0.8"/>
      </g>
     </g>
     <g id="text_8">
      <!-- 22 -->
      <g transform="translate(28.085 63.861258) scale(0.1 -0.1)">
       <use xlink:href="#DejaVuSans-32"/>
       <use xlink:href="#DejaVuSans-32" transform="translate(63.623047 0)"/>
      </g>
     </g>
    </g>
    <g id="text_9">
     <!-- ns / input limb -->
     <g transform="translate(22.005312 254.875719) rotate(-90) scale(0.1 -0.1)">
      <defs>
       <path id="DejaVuSans-6e" d="M 3513 2113 
L 3513 0 
L 2938 0 
L 2938 2094 
Q 2938 2591 2744 2837 
Q 2550 3084 2163 3084 
Q 1697 3084 1428 2787 
Q 1159 2491 1159 1978 
L 1159 0 
L 581 0 
L 581 3500 
L 1159 3500 
L 1159 2956 
Q 1366 3272 1645 3428 
Q 1925 3584 2291 3584 
Q 2894 3584 3203 3211 
Q 3513 2838 3513 2113 
z
" transform="scale(0.015625)"/>
       <path id="DejaVuSans-73" d="M 2834 3397 
L 2834 2853 
Q 2591 2978 2328 3040 
Q 2066 3103 1784 3103 
Q 1356 3103 1142 2972 
Q 928 2841 928 2578 
Q 928 2378 1081 2264 
Q 1234 2150 1697 2047 
L 1894 2003 
Q 2506 1872 2764 1633 
Q 3022 1394 3022 966 
Q 3022 478 2636 193 
Q 2250 -91 1575 -91 
Q 1294 -91 989 -36 
Q 684 19 347 128 
L 347 722 
Q 666 556 975 473 
Q 1284 391 1588 391 
Q 1994 391 2212 530 
Q 2431 669 2431 922 
Q 2431 1156 2273 1281 
Q 2116 1406 1581 1522 
L 1381 1569 
Q 847 1681 609 1914 
Q 372 2147 372 2553 
Q 372 3047 722 3315 
Q 1072 3584 1716 3584 
Q 2034 3584 2315 3537 
Q 2597 3491 2834 3397 
z
" transform="scale(0.015625)"/>
       <path id="DejaVuSans-20" transform="scale(0.015625)"/>
       <path id="DejaVuSans-2f" d="M 1625 4666 
L 2156 4666 
L 531 -594 
L 0 -594 
L 1625 4666 
z
" transform="scale(0.015625)"/>
       <path id="DejaVuSans-69" d="M 603 3500 
L 1178 3500 
L 1178 0 
L 603 0 
L 603 3500 
z
M 603 4863 
L 1178 4863 
L 1178 4134 
L 603 4134 
L 603 4863 
z
" transform="scale(0.015625)"/>
       <path id="DejaVuSans-70" d="M 1159 525 
L 1159 -1331 
L 581 -1331 
L 581 3500 
L 1159 3500 
L 1159 2969 
Q 1341 3281 1617 3432 
Q 1894 3584 2278 3584 
Q 2916 3584 3314 3078 
Q 3713 2572 3713 1747 
Q 3713 922 3314 415 
Q 2916 -91 2278 -91 
Q 1894 -91 1617 61 
Q 1341 213 1159 525 
z
M 3116 1747 
Q 3116 2381 2855 2742 
Q 2594 3103 2138 3103 
Q 1681 3103 1420 2742 
Q 1159 2381 1159 1747 
Q 1159 1113 1420 752 
Q 1681 391 2138 391 
Q 2594 391 2855 752 
Q 3116 1113 3116 1747 
z
" transform="scale(0.015625)"/>
       <path id="DejaVuSans-75" d="M 544 1381 
L 544 3500 
L 1119 3500 
L 1119 1403 
Q 1119 906 1312 657 
Q 1506 409 1894 409 
Q 2359 409 2629 706 
Q 2900 1003 2900 1516 
L 2900 3500 
L 3475 3500 
L 3475 0 
L 2900 0 
L 2900 538 
Q 2691 219 2414 64 
Q 2138 -91 1772 -91 
Q 1169 -91 856 284 
Q 544 659 544 1381 
z
M 1991 3584 
L 1991 3584 
z
" transform="scale(0.015625)"/>
       <path id="DejaVuSans-74" d="M 1172 4494 
L 1172 3500 
L 2356 3500 
L 2356 3053 
L 1172 3053 
L 1172 1153 
Q 1172 725 1289 603 
Q 1406 481 1766 481 
L 2356 481 
L 2356 0 
L 1766 0 
Q 1100 0 847 248 
Q 594 497 594 1153 
L 594 3053 
L 172 3053 
L 172 3500 
L 594 3500 
L 594 4494 
L 1172 4494 
z
" transform="scale(0.015625)"/>
       <path id="DejaVuSans-6c" d="M 603 4863 
L 1178 4863 
L 1178 0 
L 603 0 
L 603 4863 
z
" transform="scale(0.015625)"/>
       <path id="DejaVuSans-6d" d="M 3328 2828 
Q 3544 3216 3844 3400 
Q 4144 3584 4550 3584 
Q 5097 3584 5394 3201 
Q 5691 2819 5691 2113 
L 5691 0 
L 5113 0 
L 5113 2094 
Q 5113 2597 4934 2840 
Q 4756 3084 4391 3084 
Q 3944 3084 3684 2787 
Q 3425 2491 3425 1978 
L 3425 0 
L 2847 0 
L 2847 2094 
Q 2847 2600 2669 2842 
Q 2491 3084 2119 3084 
Q 1678 3084 1418 2786 
Q 1159 2488 1159 1978 
L 1159 0 
L 581 0 
L 581 3500 
L 1159 3500 
L 1159 2956 
Q 1356 3278 1631 3431 
Q 1906 3584 2284 3584 
Q 2666 3584 2933 3390 
Q 3200 3197 3328 2828 
z
" transform="scale(0.015625)"/>
       <path id="DejaVuSans-62" d="M 3116 1747 
Q 3116 2381 2855 2742 
Q 2594 3103 2138 3103 
Q 1681 3103 1420 2742 
Q 1159 2381 1159 1747 
Q 1159 1113 1420 752 
Q 1681 391 2138 391 
Q 2594 391 2855 752 
Q 3116 1113 3116 1747 
z
M 1159 2969 
Q 1341 3281 1617 3432 
Q 1894 3584 2278 3584 
Q 2916 3584 3314 3078 
Q 3713 2572 3713 1747 
Q 3713 922 3314 415 
Q 2916 -91 2278 -91 
Q 1894 -91 1617 61 
Q 1341 213 1159 525 
L 1159 0 
L 581 0 
L 581 4863 
L 1159 4863 
L 1159 2969 
z
" transform="scale(0.015625)"/>
      </defs>
      <use xlink:href="#DejaVuSans-6e"/>
      <use xlink:href="#DejaVuSans-73" transform="translate(63.378906 0)"/>
      <use xlink:href="#DejaVuSans-20" transform="translate(115.478516 0)"/>
      <use xlink:href="#DejaVuSans-2f" transform="translate(147.265625 0)"/>
      <use xlink:href="#DejaVuSans-20" transform="translate(180.957031 0)"/>
      <use xlink:href="#DejaVuSans-69" transform="translate(212.744141 0)"/>
      <use xlink:href="#DejaVuSans-6e" transform="translate(240.527344 0)"/>
      <use xlink:href="#DejaVuSans-70" transform="translate(303.90625 0)"/>
      <use xlink:href="#DejaVuSans-75" transform="translate(367.382812 0)"/>
      <use xlink:href="#DejaVuSans-74" transform="translate(430.761719 0)"/>
      <use xlink:href="#DejaVuSans-20" transform="translate(469.970703 0)"/>
      <use xlink:href="#DejaVuSans-6c" transform="translate(501.757812 0)"/>
      <use xlink:href="#DejaVuSans-69" transform="translate(529.541016 0)"/>
      <use xlink:href="#DejaVuSans-6d" transform="translate(557.324219 0)"/>
      <use xlink:href="#DejaVuSans-62" transform="translate(654.736328 0)"/>
     </g>
    </g>
   </g>
   <g id="line2d_33">
    <path d="M 87.691364 286.048789 
L 95.222012 188.705202 
L 102.422744 203.18108 
L 109.321256 215.537402 
L 115.941899 226.850248 
L 123.343361 238.989955 
L 130.425889 185.800709 
L 137.215839 198.38762 
L 144.64718 211.738502 
L 151.757062 224.206624 
L 158.572149 185.446673 
L 165.91587 199.938856 
L 172.94551 212.290519 
L 180.419088 225.128981 
L 187.567624 236.555958 
L 194.418216 247.65452 
L 201.638117 258.168457 
L 208.554221 162.811663 
L 215.781337 176.840338 
L 223.268009 192.117456 
L 229.888652 204.327039 
L 237.290114 217.889877 
L 244.372642 173.227774 
L 251.637024 186.837196 
L 258.593933 199.535907 
L 265.703816 211.913191 
L 272.935608 175.03755 
L 279.862623 188.775077 
L 287.274122 202.15391 
L 294.365841 215.558364 
L 301.514377 227.264843 
L 308.364969 238.559056 
L 315.58487 249.392091 
L 322.808534 156.737151 
L 329.728091 170.814739 
L 336.933031 185.260339 
L 344.105562 199.289014 
L 351.236867 211.85962 
L 358.319396 142.557079 
L 365.346732 157.31246 
L 372.540686 172.058524 
L 379.650569 185.810026 
L 386.882361 137.395607 
L 394.008758 152.82878 
L 401.030057 167.006523 
L 408.129837 181.291409 
L 415.286154 194.70518 
L 422.479382 208.23308 
L 429.531623 220.125894 
L 436.601579 124.245034 
L 443.822081 140.38395 
L 450.879784 155.814794 
L 458.052315 170.635392 
L 465.18362 185.034408 
L 472.266149 132.623109 
L 479.412051 147.869948 
L 486.487439 162.739458 
L 493.597322 176.912543 
L 500.725037 128.283839 
L 507.855851 144.385488 
L 514.97681 159.294595 
L 522.07659 173.160228 
L 529.232907 186.979276 
L 536.342327 200.593357 
L 543.478377 213.436478 
L 550.625204 112.827374 
L 557.695232 129.297034 
L 564.826537 145.533776 
L 571.931571 160.060897 
L 579.065742 174.897799 
L 586.212902 99.816552 
L 593.358804 116.195374 
L 600.434193 132.182893 
L 607.598428 147.683613 
L 614.67179 103.417471 
L 621.802604 121.03076 
L 628.923563 137.968586 
L 636.069052 134.84748 
L 643.17966 150.129256 
L 650.28908 164.754202 
L 657.42513 178.144681 
L 664.533526 74.358571 
L 671.678791 94.415174 
L 678.77329 112.121631 
L 685.912077 128.416603 
L 693.044814 144.227104 
L 700.159655 86.395794 
L 707.275924 103.901941 
L 714.409326 119.668187 
L 721.518007 135.984121 
L 728.644569 70.070543 
L 735.774278 88.664419 
L 742.894181 106.566527 
L 750.015805 122.246594 
L 757.126414 138.245759 
L 764.256789 154.077223 
L 771.371883 168.480897 
L 778.499496 61.676164 
L 785.607142 80.81274 
L 792.737666 98.493576 
L 799.85883 115.536215 
L 806.975409 132.080409 
L 814.106409 43.033375 
L 821.222677 62.598521 
L 828.34189 80.558859 
L 835.464761 97.904292 
L 842.591322 52.017038 
L 849.708571 71.130322 
L 856.829002 90.40199 
L 863.951133 59.796512 
L 871.073167 76.783251 
L 878.193065 72.683888 
L 885.318636 94.089089 
" clip-path="url(#pd38d3b93d0)" style="fill: none; stroke: #ff7f0e; stroke-width: 1.1; stroke-linecap: square"/>
   </g>
   <g id="line2d_34">
    <path d="M 87.691364 394.833329 
L 95.222012 333.785416 
L 102.422744 356.63704 
L 109.321256 365.194462 
L 115.941899 373.318656 
L 123.343361 381.536017 
L 130.425889 359.392465 
L 137.215839 367.700664 
L 144.64718 376.339608 
L 151.757062 384.510385 
L 158.572149 351.265942 
L 165.91587 360.172741 
L 172.94551 368.916498 
L 180.419088 370.744908 
L 187.567624 379.022828 
L 194.418216 386.732427 
L 201.638117 394.900875 
L 208.554221 333.825012 
L 215.781337 343.404946 
L 223.268009 353.879286 
L 229.888652 362.378479 
L 237.290114 371.178136 
L 244.372642 344.50665 
L 251.637024 353.888603 
L 258.593933 362.758136 
L 265.703816 371.522855 
L 272.935608 342.654948 
L 279.862623 352.027585 
L 287.274122 361.570252 
L 294.365841 357.845887 
L 301.514377 366.424271 
L 308.364969 374.425018 
L 315.58487 382.81241 
L 322.808534 322.281576 
L 329.728091 332.485731 
L 336.933031 342.342838 
L 344.105562 352.18364 
L 351.236867 360.715441 
L 358.319396 336.564132 
L 365.346732 346.302451 
L 372.540686 355.912664 
L 379.650569 364.826451 
L 386.882361 329.513692 
L 394.008758 339.894865 
L 401.030057 349.097471 
L 408.129837 343.854478 
L 415.286154 353.476337 
L 422.479382 362.788415 
L 429.531623 371.576426 
L 436.601579 312.578195 
L 443.822081 323.52536 
L 450.879784 333.403429 
L 458.052315 343.658827 
L 465.18362 353.192177 
L 472.266149 320.4718 
L 479.412051 330.962445 
L 486.487439 340.572658 
L 493.597322 350.490323 
L 500.725037 322.598345 
L 507.855851 332.849084 
L 514.97681 342.785383 
L 522.07659 334.975629 
L 529.232907 344.928232 
L 536.342327 354.554749 
L 543.478377 363.682822 
L 550.625204 301.952458 
L 557.695232 312.708629 
L 564.826537 323.737316 
L 571.931571 334.158085 
L 579.065742 344.331961 
L 586.212902 312.030837 
L 593.358804 322.451606 
L 600.434193 333.275324 
L 607.598428 342.997338 
L 614.67179 309.068115 
L 621.802604 320.068851 
L 628.923563 330.133255 
L 636.069052 310.316557 
L 643.17966 321.536237 
L 650.28908 332.005919 
L 657.42513 341.506661 
L 664.533526 279.466515 
L 671.678791 290.245979 
L 678.77329 301.966433 
L 685.912077 313.155833 
L 693.044814 323.86775 
L 700.159655 285.708728 
L 707.275924 298.03477 
L 714.409326 308.874793 
L 721.518007 319.784691 
L 728.644569 283.910598 
L 735.774278 295.598444 
L 742.894181 307.253681 
L 750.015805 286.200186 
L 757.126414 298.533216 
L 764.256789 309.266095 
L 771.371883 320.66978 
L 778.499496 245.793502 
L 785.607142 259.945624 
L 792.737666 271.593873 
L 799.85883 284.059666 
L 806.975409 296.590676 
L 814.106409 257.220479 
L 821.222677 270.000711 
L 828.34189 282.235915 
L 835.464761 293.728109 
L 842.591322 257.683986 
L 849.708571 269.800402 
L 856.829002 281.62334 
L 863.951133 227.560649 
L 871.073167 237.501607 
L 878.193065 251.656058 
L 885.318636 265.910664 
" clip-path="url(#pd38d3b93d0)" style="fill: none; stroke: #1f77b4; stroke-width: 1.1; stroke-linecap: square"/>
   </g>
   <g id="patch_3">
    <path d="M 47.81 412.49425 
L 47.81 25.44 
" style="fill: none; stroke: #000000; stroke-width: 0.8; stroke-linejoin: miter; stroke-linecap: square"/>
   </g>
   <g id="patch_4">
    <path d="M 925.2 412.49425 
L 925.2 25.44 
" style="fill: none; stroke: #000000; stroke-width: 0.8; stroke-linejoin: miter; stroke-linecap: square"/>
   </g>
   <g id="patch_5">
    <path d="M 47.81 412.49425 
L 925.2 412.49425 
" style="fill: none; stroke: #000000; stroke-width: 0.8; stroke-linejoin: miter; stroke-linecap: square"/>
   </g>
   <g id="patch_6">
    <path d="M 47.81 25.44 
L 925.2 25.44 
" style="fill: none; stroke: #000000; stroke-width: 0.8; stroke-linejoin: miter; stroke-linecap: square"/>
   </g>
   <g id="text_10">
    <!-- balanced mul, an = bn = n, 1/16-octave grid (solo-per-process) -->
    <g transform="translate(296.191562 19.44) scale(0.12 -0.12)">
     <defs>
      <path id="DejaVuSans-61" d="M 2194 1759 
Q 1497 1759 1228 1600 
Q 959 1441 959 1056 
Q 959 750 1161 570 
Q 1363 391 1709 391 
Q 2188 391 2477 730 
Q 2766 1069 2766 1631 
L 2766 1759 
L 2194 1759 
z
M 3341 1997 
L 3341 0 
L 2766 0 
L 2766 531 
Q 2569 213 2275 61 
Q 1981 -91 1556 -91 
Q 1019 -91 701 211 
Q 384 513 384 1019 
Q 384 1609 779 1909 
Q 1175 2209 1959 2209 
L 2766 2209 
L 2766 2266 
Q 2766 2663 2505 2880 
Q 2244 3097 1772 3097 
Q 1472 3097 1187 3025 
Q 903 2953 641 2809 
L 641 3341 
Q 956 3463 1253 3523 
Q 1550 3584 1831 3584 
Q 2591 3584 2966 3190 
Q 3341 2797 3341 1997 
z
" transform="scale(0.015625)"/>
      <path id="DejaVuSans-63" d="M 3122 3366 
L 3122 2828 
Q 2878 2963 2633 3030 
Q 2388 3097 2138 3097 
Q 1578 3097 1268 2742 
Q 959 2388 959 1747 
Q 959 1106 1268 751 
Q 1578 397 2138 397 
Q 2388 397 2633 464 
Q 2878 531 3122 666 
L 3122 134 
Q 2881 22 2623 -34 
Q 2366 -91 2075 -91 
Q 1284 -91 818 406 
Q 353 903 353 1747 
Q 353 2603 823 3093 
Q 1294 3584 2113 3584 
Q 2378 3584 2631 3529 
Q 2884 3475 3122 3366 
z
" transform="scale(0.015625)"/>
      <path id="DejaVuSans-65" d="M 3597 1894 
L 3597 1613 
L 953 1613 
Q 991 1019 1311 708 
Q 1631 397 2203 397 
Q 2534 397 2845 478 
Q 3156 559 3463 722 
L 3463 178 
Q 3153 47 2828 -22 
Q 2503 -91 2169 -91 
Q 1331 -91 842 396 
Q 353 884 353 1716 
Q 353 2575 817 3079 
Q 1281 3584 2069 3584 
Q 2775 3584 3186 3129 
Q 3597 2675 3597 1894 
z
M 3022 2063 
Q 3016 2534 2758 2815 
Q 2500 3097 2075 3097 
Q 1594 3097 1305 2825 
Q 1016 2553 972 2059 
L 3022 2063 
z
" transform="scale(0.015625)"/>
      <path id="DejaVuSans-64" d="M 2906 2969 
L 2906 4863 
L 3481 4863 
L 3481 0 
L 2906 0 
L 2906 525 
Q 2725 213 2448 61 
Q 2172 -91 1784 -91 
Q 1150 -91 751 415 
Q 353 922 353 1747 
Q 353 2572 751 3078 
Q 1150 3584 1784 3584 
Q 2172 3584 2448 3432 
Q 2725 3281 2906 2969 
z
M 947 1747 
Q 947 1113 1208 752 
Q 1469 391 1925 391 
Q 2381 391 2643 752 
Q 2906 1113 2906 1747 
Q 2906 2381 2643 2742 
Q 2381 3103 1925 3103 
Q 1469 3103 1208 2742 
Q 947 2381 947 1747 
z
" transform="scale(0.015625)"/>
      <path id="DejaVuSans-2c" d="M 750 794 
L 1409 794 
L 1409 256 
L 897 -744 
L 494 -744 
L 750 256 
L 750 794 
z
" transform="scale(0.015625)"/>
      <path id="DejaVuSans-3d" d="M 678 2906 
L 4684 2906 
L 4684 2381 
L 678 2381 
L 678 2906 
z
M 678 1631 
L 4684 1631 
L 4684 1100 
L 678 1100 
L 678 1631 
z
" transform="scale(0.015625)"/>
      <path id="DejaVuSans-2d" d="M 313 2009 
L 1997 2009 
L 1997 1497 
L 313 1497 
L 313 2009 
z
" transform="scale(0.015625)"/>
      <path id="DejaVuSans-6f" d="M 1959 3097 
Q 1497 3097 1228 2736 
Q 959 2375 959 1747 
Q 959 1119 1226 758 
Q 1494 397 1959 397 
Q 2419 397 2687 759 
Q 2956 1122 2956 1747 
Q 2956 2369 2687 2733 
Q 2419 3097 1959 3097 
z
M 1959 3584 
Q 2709 3584 3137 3096 
Q 3566 2609 3566 1747 
Q 3566 888 3137 398 
Q 2709 -91 1959 -91 
Q 1206 -91 779 398 
Q 353 888 353 1747 
Q 353 2609 779 3096 
Q 1206 3584 1959 3584 
z
" transform="scale(0.015625)"/>
      <path id="DejaVuSans-76" d="M 191 3500 
L 800 3500 
L 1894 563 
L 2988 3500 
L 3597 3500 
L 2284 0 
L 1503 0 
L 191 3500 
z
" transform="scale(0.015625)"/>
      <path id="DejaVuSans-67" d="M 2906 1791 
Q 2906 2416 2648 2759 
Q 2391 3103 1925 3103 
Q 1463 3103 1205 2759 
Q 947 2416 947 1791 
Q 947 1169 1205 825 
Q 1463 481 1925 481 
Q 2391 481 2648 825 
Q 2906 1169 2906 1791 
z
M 3481 434 
Q 3481 -459 3084 -895 
Q 2688 -1331 1869 -1331 
Q 1566 -1331 1297 -1286 
Q 1028 -1241 775 -1147 
L 775 -588 
Q 1028 -725 1275 -790 
Q 1522 -856 1778 -856 
Q 2344 -856 2625 -561 
Q 2906 -266 2906 331 
L 2906 616 
Q 2728 306 2450 153 
Q 2172 0 1784 0 
Q 1141 0 747 490 
Q 353 981 353 1791 
Q 353 2603 747 3093 
Q 1141 3584 1784 3584 
Q 2172 3584 2450 3431 
Q 2728 3278 2906 2969 
L 2906 3500 
L 3481 3500 
L 3481 434 
z
" transform="scale(0.015625)"/>
      <path id="DejaVuSans-72" d="M 2631 2963 
Q 2534 3019 2420 3045 
Q 2306 3072 2169 3072 
Q 1681 3072 1420 2755 
Q 1159 2438 1159 1844 
L 1159 0 
L 581 0 
L 581 3500 
L 1159 3500 
L 1159 2956 
Q 1341 3275 1631 3429 
Q 1922 3584 2338 3584 
Q 2397 3584 2469 3576 
Q 2541 3569 2628 3553 
L 2631 2963 
z
" transform="scale(0.015625)"/>
      <path id="DejaVuSans-28" d="M 1984 4856 
Q 1566 4138 1362 3434 
Q 1159 2731 1159 2009 
Q 1159 1288 1364 580 
Q 1569 -128 1984 -844 
L 1484 -844 
Q 1016 -109 783 600 
Q 550 1309 550 2009 
Q 550 2706 781 3412 
Q 1013 4119 1484 4856 
L 1984 4856 
z
" transform="scale(0.015625)"/>
      <path id="DejaVuSans-29" d="M 513 4856 
L 1013 4856 
Q 1481 4119 1714 3412 
Q 1947 2706 1947 2009 
Q 1947 1309 1714 600 
Q 1481 -109 1013 -844 
L 513 -844 
Q 928 -128 1133 580 
Q 1338 1288 1338 2009 
Q 1338 2731 1133 3434 
Q 928 4138 513 4856 
z
" transform="scale(0.015625)"/>
     </defs>
     <use xlink:href="#DejaVuSans-62"/>
     <use xlink:href="#DejaVuSans-61" transform="translate(63.476562 0)"/>
     <use xlink:href="#DejaVuSans-6c" transform="translate(124.755859 0)"/>
     <use xlink:href="#DejaVuSans-61" transform="translate(152.539062 0)"/>
     <use xlink:href="#DejaVuSans-6e" transform="translate(213.818359 0)"/>
     <use xlink:href="#DejaVuSans-63" transform="translate(277.197266 0)"/>
     <use xlink:href="#DejaVuSans-65" transform="translate(332.177734 0)"/>
     <use xlink:href="#DejaVuSans-64" transform="translate(393.701172 0)"/>
     <use xlink:href="#DejaVuSans-20" transform="translate(457.177734 0)"/>
     <use xlink:href="#DejaVuSans-6d" transform="translate(488.964844 0)"/>
     <use xlink:href="#DejaVuSans-75" transform="translate(586.376953 0)"/>
     <use xlink:href="#DejaVuSans-6c" transform="translate(649.755859 0)"/>
     <use xlink:href="#DejaVuSans-2c" transform="translate(677.539062 0)"/>
     <use xlink:href="#DejaVuSans-20" transform="translate(709.326172 0)"/>
     <use xlink:href="#DejaVuSans-61" transform="translate(741.113281 0)"/>
     <use xlink:href="#DejaVuSans-6e" transform="translate(802.392578 0)"/>
     <use xlink:href="#DejaVuSans-20" transform="translate(865.771484 0)"/>
     <use xlink:href="#DejaVuSans-3d" transform="translate(897.558594 0)"/>
     <use xlink:href="#DejaVuSans-20" transform="translate(981.347656 0)"/>
     <use xlink:href="#DejaVuSans-62" transform="translate(1013.134766 0)"/>
     <use xlink:href="#DejaVuSans-6e" transform="translate(1076.611328 0)"/>
     <use xlink:href="#DejaVuSans-20" transform="translate(1139.990234 0)"/>
     <use xlink:href="#DejaVuSans-3d" transform="translate(1171.777344 0)"/>
     <use xlink:href="#DejaVuSans-20" transform="translate(1255.566406 0)"/>
     <use xlink:href="#DejaVuSans-6e" transform="translate(1287.353516 0)"/>
     <use xlink:href="#DejaVuSans-2c" transform="translate(1350.732422 0)"/>
     <use xlink:href="#DejaVuSans-20" transform="translate(1382.519531 0)"/>
     <use xlink:href="#DejaVuSans-31" transform="translate(1414.306641 0)"/>
     <use xlink:href="#DejaVuSans-2f" transform="translate(1477.929688 0)"/>
     <use xlink:href="#DejaVuSans-31" transform="translate(1511.621094 0)"/>
     <use xlink:href="#DejaVuSans-36" transform="translate(1575.244141 0)"/>
     <use xlink:href="#DejaVuSans-2d" transform="translate(1638.867188 0)"/>
     <use xlink:href="#DejaVuSans-6f" transform="translate(1676.826172 0)"/>
     <use xlink:href="#DejaVuSans-63" transform="translate(1738.007812 0)"/>
     <use xlink:href="#DejaVuSans-74" transform="translate(1792.988281 0)"/>
     <use xlink:href="#DejaVuSans-61" transform="translate(1832.197266 0)"/>
     <use xlink:href="#DejaVuSans-76" transform="translate(1893.476562 0)"/>
     <use xlink:href="#DejaVuSans-65" transform="translate(1952.65625 0)"/>
     <use xlink:href="#DejaVuSans-20" transform="translate(2014.179688 0)"/>
     <use xlink:href="#DejaVuSans-67" transform="translate(2045.966797 0)"/>
     <use xlink:href="#DejaVuSans-72" transform="translate(2109.443359 0)"/>
     <use xlink:href="#DejaVuSans-69" transform="translate(2150.556641 0)"/>
     <use xlink:href="#DejaVuSans-64" transform="translate(2178.339844 0)"/>
     <use xlink:href="#DejaVuSans-20" transform="translate(2241.816406 0)"/>
     <use xlink:href="#DejaVuSans-28" transform="translate(2273.603516 0)"/>
     <use xlink:href="#DejaVuSans-73" transform="translate(2312.617188 0)"/>
     <use xlink:href="#DejaVuSans-6f" transform="translate(2364.716797 0)"/>
     <use xlink:href="#DejaVuSans-6c" transform="translate(2425.898438 0)"/>
     <use xlink:href="#DejaVuSans-6f" transform="translate(2453.681641 0)"/>
     <use xlink:href="#DejaVuSans-2d" transform="translate(2516.738281 0)"/>
     <use xlink:href="#DejaVuSans-70" transform="translate(2552.822266 0)"/>
     <use xlink:href="#DejaVuSans-65" transform="translate(2616.298828 0)"/>
     <use xlink:href="#DejaVuSans-72" transform="translate(2677.822266 0)"/>
     <use xlink:href="#DejaVuSans-2d" transform="translate(2712.560547 0)"/>
     <use xlink:href="#DejaVuSans-70" transform="translate(2748.644531 0)"/>
     <use xlink:href="#DejaVuSans-72" transform="translate(2812.121094 0)"/>
     <use xlink:href="#DejaVuSans-6f" transform="translate(2850.984375 0)"/>
     <use xlink:href="#DejaVuSans-63" transform="translate(2912.166016 0)"/>
     <use xlink:href="#DejaVuSans-65" transform="translate(2967.146484 0)"/>
     <use xlink:href="#DejaVuSans-73" transform="translate(3028.669922 0)"/>
     <use xlink:href="#DejaVuSans-73" transform="translate(3080.769531 0)"/>
     <use xlink:href="#DejaVuSans-29" transform="translate(3132.869141 0)"/>
    </g>
   </g>
   <g id="legend_1">
    <g id="patch_7">
     <path d="M 54.81 63.074375 
L 230.188125 63.074375 
Q 232.188125 63.074375 232.188125 61.074375 
L 232.188125 32.44 
Q 232.188125 30.44 230.188125 30.44 
L 54.81 30.44 
Q 52.81 30.44 52.81 32.44 
L 52.81 61.074375 
Q 52.81 63.074375 54.81 63.074375 
z
" style="fill: #ffffff; opacity: 0.8; stroke: #cccccc; stroke-linejoin: miter"/>
    </g>
    <g id="line2d_35">
     <path d="M 56.81 38.538437 
L 66.81 38.538437 
L 76.81 38.538437 
" style="fill: none; stroke: #ff7f0e; stroke-width: 1.1; stroke-linecap: square"/>
    </g>
    <g id="text_11">
     <!-- int_fft reference (AVX2, U16) -->
     <g transform="translate(84.81 42.038437) scale(0.1 -0.1)">
      <defs>
       <path id="DejaVuSans-5f" d="M 3263 -1063 
L 3263 -1509 
L -63 -1509 
L -63 -1063 
L 3263 -1063 
z
" transform="scale(0.015625)"/>
       <path id="DejaVuSans-66" d="M 2375 4863 
L 2375 4384 
L 1825 4384 
Q 1516 4384 1395 4259 
Q 1275 4134 1275 3809 
L 1275 3500 
L 2222 3500 
L 2222 3053 
L 1275 3053 
L 1275 0 
L 697 0 
L 697 3053 
L 147 3053 
L 147 3500 
L 697 3500 
L 697 3744 
Q 697 4328 969 4595 
Q 1241 4863 1831 4863 
L 2375 4863 
z
" transform="scale(0.015625)"/>
       <path id="DejaVuSans-41" d="M 2188 4044 
L 1331 1722 
L 3047 1722 
L 2188 4044 
z
M 1831 4666 
L 2547 4666 
L 4325 0 
L 3669 0 
L 3244 1197 
L 1141 1197 
L 716 0 
L 50 0 
L 1831 4666 
z
" transform="scale(0.015625)"/>
       <path id="DejaVuSans-56" d="M 1831 0 
L 50 4666 
L 709 4666 
L 2188 738 
L 3669 4666 
L 4325 4666 
L 2547 0 
L 1831 0 
z
" transform="scale(0.015625)"/>
       <path id="DejaVuSans-58" d="M 403 4666 
L 1081 4666 
L 2241 2931 
L 3406 4666 
L 4084 4666 
L 2584 2425 
L 4184 0 
L 3506 0 
L 2194 1984 
L 872 0 
L 191 0 
L 1856 2491 
L 403 4666 
z
" transform="scale(0.015625)"/>
       <path id="DejaVuSans-55" d="M 556 4666 
L 1191 4666 
L 1191 1831 
Q 1191 1081 1462 751 
Q 1734 422 2344 422 
Q 2950 422 3222 751 
Q 3494 1081 3494 1831 
L 3494 4666 
L 4128 4666 
L 4128 1753 
Q 4128 841 3676 375 
Q 3225 -91 2344 -91 
Q 1459 -91 1007 375 
Q 556 841 556 1753 
L 556 4666 
z
" transform="scale(0.015625)"/>
      </defs>
      <use xlink:href="#DejaVuSans-69"/>
      <use xlink:href="#DejaVuSans-6e" transform="translate(27.783203 0)"/>
      <use xlink:href="#DejaVuSans-74" transform="translate(91.162109 0)"/>
      <use xlink:href="#DejaVuSans-5f" transform="translate(130.371094 0)"/>
      <use xlink:href="#DejaVuSans-66" transform="translate(180.371094 0)"/>
      <use xlink:href="#DejaVuSans-66" transform="translate(215.576172 0)"/>
      <use xlink:href="#DejaVuSans-74" transform="translate(249.03125 0)"/>
      <use xlink:href="#DejaVuSans-20" transform="translate(288.240234 0)"/>
      <use xlink:href="#DejaVuSans-72" transform="translate(320.027344 0)"/>
      <use xlink:href="#DejaVuSans-65" transform="translate(358.890625 0)"/>
      <use xlink:href="#DejaVuSans-66" transform="translate(420.414062 0)"/>
      <use xlink:href="#DejaVuSans-65" transform="translate(455.619141 0)"/>
      <use xlink:href="#DejaVuSans-72" transform="translate(517.142578 0)"/>
      <use xlink:href="#DejaVuSans-65" transform="translate(556.005859 0)"/>
      <use xlink:href="#DejaVuSans-6e" transform="translate(617.529297 0)"/>
      <use xlink:href="#DejaVuSans-63" transform="translate(680.908203 0)"/>
      <use xlink:href="#DejaVuSans-65" transform="translate(735.888672 0)"/>
      <use xlink:href="#DejaVuSans-20" transform="translate(797.412109 0)"/>
      <use xlink:href="#DejaVuSans-28" transform="translate(829.199219 0)"/>
      <use xlink:href="#DejaVuSans-41" transform="translate(868.212891 0)"/>
      <use xlink:href="#DejaVuSans-56" transform="translate(930.246094 0)"/>
      <use xlink:href="#DejaVuSans-58" transform="translate(998.654297 0)"/>
      <use xlink:href="#DejaVuSans-32" transform="translate(1067.160156 0)"/>
      <use xlink:href="#DejaVuSans-2c" transform="translate(1130.783203 0)"/>
      <use xlink:href="#DejaVuSans-20" transform="translate(1162.570312 0)"/>
      <use xlink:href="#DejaVuSans-55" transform="translate(1194.357422 0)"/>
      <use xlink:href="#DejaVuSans-31" transform="translate(1267.550781 0)"/>
      <use xlink:href="#DejaVuSans-36" transform="translate(1331.173828 0)"/>
      <use xlink:href="#DejaVuSans-29" transform="translate(1394.796875 0)"/>
     </g>
    </g>
    <g id="line2d_36">
     <path d="M 56.81 53.494687 
L 66.81 53.494687 
L 76.81 53.494687 
" style="fill: none; stroke: #1f77b4; stroke-width: 1.1; stroke-linecap: square"/>
    </g>
    <g id="text_12">
     <!-- fft16 (AVX-512, U16) -->
     <g transform="translate(84.81 56.994687) scale(0.1 -0.1)">
      <defs>
       <path id="DejaVuSans-35" d="M 691 4666 
L 3169 4666 
L 3169 4134 
L 1269 4134 
L 1269 2991 
Q 1406 3038 1543 3061 
Q 1681 3084 1819 3084 
Q 2600 3084 3056 2656 
Q 3513 2228 3513 1497 
Q 3513 744 3044 326 
Q 2575 -91 1722 -91 
Q 1428 -91 1123 -41 
Q 819 9 494 109 
L 494 744 
Q 775 591 1075 516 
Q 1375 441 1709 441 
Q 2250 441 2565 725 
Q 2881 1009 2881 1497 
Q 2881 1984 2565 2268 
Q 2250 2553 1709 2553 
Q 1456 2553 1204 2497 
Q 953 2441 691 2322 
L 691 4666 
z
" transform="scale(0.015625)"/>
      </defs>
      <use xlink:href="#DejaVuSans-66"/>
      <use xlink:href="#DejaVuSans-66" transform="translate(35.205078 0)"/>
      <use xlink:href="#DejaVuSans-74" transform="translate(68.660156 0)"/>
      <use xlink:href="#DejaVuSans-31" transform="translate(107.869141 0)"/>
      <use xlink:href="#DejaVuSans-36" transform="translate(171.492188 0)"/>
      <use xlink:href="#DejaVuSans-20" transform="translate(235.115234 0)"/>
      <use xlink:href="#DejaVuSans-28" transform="translate(266.902344 0)"/>
      <use xlink:href="#DejaVuSans-41" transform="translate(305.916016 0)"/>
      <use xlink:href="#DejaVuSans-56" transform="translate(367.949219 0)"/>
      <use xlink:href="#DejaVuSans-58" transform="translate(436.357422 0)"/>
      <use xlink:href="#DejaVuSans-2d" transform="translate(499.863281 0)"/>
      <use xlink:href="#DejaVuSans-35" transform="translate(535.947266 0)"/>
      <use xlink:href="#DejaVuSans-31" transform="translate(599.570312 0)"/>
      <use xlink:href="#DejaVuSans-32" transform="translate(663.193359 0)"/>
      <use xlink:href="#DejaVuSans-2c" transform="translate(726.816406 0)"/>
      <use xlink:href="#DejaVuSans-20" transform="translate(758.603516 0)"/>
      <use xlink:href="#DejaVuSans-55" transform="translate(790.390625 0)"/>
      <use xlink:href="#DejaVuSans-31" transform="translate(863.583984 0)"/>
      <use xlink:href="#DejaVuSans-36" transform="translate(927.207031 0)"/>
      <use xlink:href="#DejaVuSans-29" transform="translate(990.830078 0)"/>
     </g>
    </g>
   </g>
  </g>
  <g id="axes_2">
   <g id="patch_8">
    <path d="M 47.81 602.728 
L 925.2 602.728 
L 925.2 426.79425 
L 47.81 426.79425 
z
" style="fill: #ffffff"/>
   </g>
   <g id="matplotlib.axis_3">
    <g id="xtick_9">
     <g id="line2d_37">
      <path d="M 87.691364 602.728 
L 87.691364 426.79425 
" clip-path="url(#pe443e51131)" style="fill: none; stroke: #b0b0b0; stroke-opacity: 0.3; stroke-width: 0.8; stroke-linecap: square"/>
     </g>
     <g id="line2d_38">
      <g>
       <use xlink:href="#m0f8dd0f528" x="87.691364" y="602.728" style="stroke: #000000; stroke-width: 0.8"/>
      </g>
     </g>
     <g id="text_13">
      <!-- $\mathdefault{2^{7}}$ -->
      <g transform="translate(82.091364 617.326437) scale(0.1 -0.1)">
       <defs>
        <path id="DejaVuSans-37" d="M 525 4666 
L 3525 4666 
L 3525 4397 
L 1831 0 
L 1172 0 
L 2766 4134 
L 525 4134 
L 525 4666 
z
" transform="scale(0.015625)"/>
       </defs>
       <use xlink:href="#DejaVuSans-32" transform="translate(0 0.684375)"/>
       <use xlink:href="#DejaVuSans-37" transform="translate(64.580078 38.965625) scale(0.7)"/>
      </g>
     </g>
    </g>
    <g id="xtick_10">
     <g id="line2d_39">
      <path d="M 201.638117 602.728 
L 201.638117 426.79425 
" clip-path="url(#pe443e51131)" style="fill: none; stroke: #b0b0b0; stroke-opacity: 0.3; stroke-width: 0.8; stroke-linecap: square"/>
     </g>
     <g id="line2d_40">
      <g>
       <use xlink:href="#m0f8dd0f528" x="201.638117" y="602.728" style="stroke: #000000; stroke-width: 0.8"/>
      </g>
     </g>
     <g id="text_14">
      <!-- $\mathdefault{2^{8}}$ -->
      <g transform="translate(196.038117 617.326437) scale(0.1 -0.1)">
       <use xlink:href="#DejaVuSans-32" transform="translate(0 0.765625)"/>
       <use xlink:href="#DejaVuSans-38" transform="translate(64.580078 39.046875) scale(0.7)"/>
      </g>
     </g>
    </g>
    <g id="xtick_11">
     <g id="line2d_41">
      <path d="M 315.58487 602.728 
L 315.58487 426.79425 
" clip-path="url(#pe443e51131)" style="fill: none; stroke: #b0b0b0; stroke-opacity: 0.3; stroke-width: 0.8; stroke-linecap: square"/>
     </g>
     <g id="line2d_42">
      <g>
       <use xlink:href="#m0f8dd0f528" x="315.58487" y="602.728" style="stroke: #000000; stroke-width: 0.8"/>
      </g>
     </g>
     <g id="text_15">
      <!-- $\mathdefault{2^{9}}$ -->
      <g transform="translate(309.98487 617.326437) scale(0.1 -0.1)">
       <defs>
        <path id="DejaVuSans-39" d="M 703 97 
L 703 672 
Q 941 559 1184 500 
Q 1428 441 1663 441 
Q 2288 441 2617 861 
Q 2947 1281 2994 2138 
Q 2813 1869 2534 1725 
Q 2256 1581 1919 1581 
Q 1219 1581 811 2004 
Q 403 2428 403 3163 
Q 403 3881 828 4315 
Q 1253 4750 1959 4750 
Q 2769 4750 3195 4129 
Q 3622 3509 3622 2328 
Q 3622 1225 3098 567 
Q 2575 -91 1691 -91 
Q 1453 -91 1209 -44 
Q 966 3 703 97 
z
M 1959 2075 
Q 2384 2075 2632 2365 
Q 2881 2656 2881 3163 
Q 2881 3666 2632 3958 
Q 2384 4250 1959 4250 
Q 1534 4250 1286 3958 
Q 1038 3666 1038 3163 
Q 1038 2656 1286 2365 
Q 1534 2075 1959 2075 
z
" transform="scale(0.015625)"/>
       </defs>
       <use xlink:href="#DejaVuSans-32" transform="translate(0 0.765625)"/>
       <use xlink:href="#DejaVuSans-39" transform="translate(64.580078 39.046875) scale(0.7)"/>
      </g>
     </g>
    </g>
    <g id="xtick_12">
     <g id="line2d_43">
      <path d="M 429.531623 602.728 
L 429.531623 426.79425 
" clip-path="url(#pe443e51131)" style="fill: none; stroke: #b0b0b0; stroke-opacity: 0.3; stroke-width: 0.8; stroke-linecap: square"/>
     </g>
     <g id="line2d_44">
      <g>
       <use xlink:href="#m0f8dd0f528" x="429.531623" y="602.728" style="stroke: #000000; stroke-width: 0.8"/>
      </g>
     </g>
     <g id="text_16">
      <!-- $\mathdefault{2^{10}}$ -->
      <g transform="translate(421.681623 617.326437) scale(0.1 -0.1)">
       <use xlink:href="#DejaVuSans-32" transform="translate(0 0.765625)"/>
       <use xlink:href="#DejaVuSans-31" transform="translate(64.580078 39.046875) scale(0.7)"/>
       <use xlink:href="#DejaVuSans-30" transform="translate(109.116211 39.046875) scale(0.7)"/>
      </g>
     </g>
    </g>
    <g id="xtick_13">
     <g id="line2d_45">
      <path d="M 543.478377 602.728 
L 543.478377 426.79425 
" clip-path="url(#pe443e51131)" style="fill: none; stroke: #b0b0b0; stroke-opacity: 0.3; stroke-width: 0.8; stroke-linecap: square"/>
     </g>
     <g id="line2d_46">
      <g>
       <use xlink:href="#m0f8dd0f528" x="543.478377" y="602.728" style="stroke: #000000; stroke-width: 0.8"/>
      </g>
     </g>
     <g id="text_17">
      <!-- $\mathdefault{2^{11}}$ -->
      <g transform="translate(535.628377 617.326437) scale(0.1 -0.1)">
       <use xlink:href="#DejaVuSans-32" transform="translate(0 0.684375)"/>
       <use xlink:href="#DejaVuSans-31" transform="translate(64.580078 38.965625) scale(0.7)"/>
       <use xlink:href="#DejaVuSans-31" transform="translate(109.116211 38.965625) scale(0.7)"/>
      </g>
     </g>
    </g>
    <g id="xtick_14">
     <g id="line2d_47">
      <path d="M 657.42513 602.728 
L 657.42513 426.79425 
" clip-path="url(#pe443e51131)" style="fill: none; stroke: #b0b0b0; stroke-opacity: 0.3; stroke-width: 0.8; stroke-linecap: square"/>
     </g>
     <g id="line2d_48">
      <g>
       <use xlink:href="#m0f8dd0f528" x="657.42513" y="602.728" style="stroke: #000000; stroke-width: 0.8"/>
      </g>
     </g>
     <g id="text_18">
      <!-- $\mathdefault{2^{12}}$ -->
      <g transform="translate(649.57513 617.326437) scale(0.1 -0.1)">
       <use xlink:href="#DejaVuSans-32" transform="translate(0 0.765625)"/>
       <use xlink:href="#DejaVuSans-31" transform="translate(64.580078 39.046875) scale(0.7)"/>
       <use xlink:href="#DejaVuSans-32" transform="translate(109.116211 39.046875) scale(0.7)"/>
      </g>
     </g>
    </g>
    <g id="xtick_15">
     <g id="line2d_49">
      <path d="M 771.371883 602.728 
L 771.371883 426.79425 
" clip-path="url(#pe443e51131)" style="fill: none; stroke: #b0b0b0; stroke-opacity: 0.3; stroke-width: 0.8; stroke-linecap: square"/>
     </g>
     <g id="line2d_50">
      <g>
       <use xlink:href="#m0f8dd0f528" x="771.371883" y="602.728" style="stroke: #000000; stroke-width: 0.8"/>
      </g>
     </g>
     <g id="text_19">
      <!-- $\mathdefault{2^{13}}$ -->
      <g transform="translate(763.521883 617.326437) scale(0.1 -0.1)">
       <defs>
        <path id="DejaVuSans-33" d="M 2597 2516 
Q 3050 2419 3304 2112 
Q 3559 1806 3559 1356 
Q 3559 666 3084 287 
Q 2609 -91 1734 -91 
Q 1441 -91 1130 -33 
Q 819 25 488 141 
L 488 750 
Q 750 597 1062 519 
Q 1375 441 1716 441 
Q 2309 441 2620 675 
Q 2931 909 2931 1356 
Q 2931 1769 2642 2001 
Q 2353 2234 1838 2234 
L 1294 2234 
L 1294 2753 
L 1863 2753 
Q 2328 2753 2575 2939 
Q 2822 3125 2822 3475 
Q 2822 3834 2567 4026 
Q 2313 4219 1838 4219 
Q 1578 4219 1281 4162 
Q 984 4106 628 3988 
L 628 4550 
Q 988 4650 1302 4700 
Q 1616 4750 1894 4750 
Q 2613 4750 3031 4423 
Q 3450 4097 3450 3541 
Q 3450 3153 3228 2886 
Q 3006 2619 2597 2516 
z
" transform="scale(0.015625)"/>
       </defs>
       <use xlink:href="#DejaVuSans-32" transform="translate(0 0.765625)"/>
       <use xlink:href="#DejaVuSans-31" transform="translate(64.580078 39.046875) scale(0.7)"/>
       <use xlink:href="#DejaVuSans-33" transform="translate(109.116211 39.046875) scale(0.7)"/>
      </g>
     </g>
    </g>
    <g id="xtick_16">
     <g id="line2d_51">
      <path d="M 885.318636 602.728 
L 885.318636 426.79425 
" clip-path="url(#pe443e51131)" style="fill: none; stroke: #b0b0b0; stroke-opacity: 0.3; stroke-width: 0.8; stroke-linecap: square"/>
     </g>
     <g id="line2d_52">
      <g>
       <use xlink:href="#m0f8dd0f528" x="885.318636" y="602.728" style="stroke: #000000; stroke-width: 0.8"/>
      </g>
     </g>
     <g id="text_20">
      <!-- $\mathdefault{2^{14}}$ -->
      <g transform="translate(877.468636 617.326437) scale(0.1 -0.1)">
       <use xlink:href="#DejaVuSans-32" transform="translate(0 0.684375)"/>
       <use xlink:href="#DejaVuSans-31" transform="translate(64.580078 38.965625) scale(0.7)"/>
       <use xlink:href="#DejaVuSans-34" transform="translate(109.116211 38.965625) scale(0.7)"/>
      </g>
     </g>
    </g>
    <g id="text_21">
     <!-- n (u64 limbs) -->
     <g transform="translate(453.297969 631.004563) scale(0.1 -0.1)">
      <use xlink:href="#DejaVuSans-6e"/>
      <use xlink:href="#DejaVuSans-20" transform="translate(63.378906 0)"/>
      <use xlink:href="#DejaVuSans-28" transform="translate(95.166016 0)"/>
      <use xlink:href="#DejaVuSans-75" transform="translate(134.179688 0)"/>
      <use xlink:href="#DejaVuSans-36" transform="translate(197.558594 0)"/>
      <use xlink:href="#DejaVuSans-34" transform="translate(261.181641 0)"/>
      <use xlink:href="#DejaVuSans-20" transform="translate(324.804688 0)"/>
      <use xlink:href="#DejaVuSans-6c" transform="translate(356.591797 0)"/>
      <use xlink:href="#DejaVuSans-69" transform="translate(384.375 0)"/>
      <use xlink:href="#DejaVuSans-6d" transform="translate(412.158203 0)"/>
      <use xlink:href="#DejaVuSans-62" transform="translate(509.570312 0)"/>
      <use xlink:href="#DejaVuSans-73" transform="translate(573.046875 0)"/>
      <use xlink:href="#DejaVuSans-29" transform="translate(625.146484 0)"/>
     </g>
    </g>
   </g>
   <g id="matplotlib.axis_4">
    <g id="ytick_9">
     <g id="line2d_53">
      <path d="M 47.81 594.731011 
L 925.2 594.731011 
" clip-path="url(#pe443e51131)" style="fill: none; stroke: #b0b0b0; stroke-opacity: 0.3; stroke-width: 0.8; stroke-linecap: square"/>
     </g>
     <g id="line2d_54">
      <g>
       <use xlink:href="#m281edfe4b4" x="47.81" y="594.731011" style="stroke: #000000; stroke-width: 0.8"/>
      </g>
     </g>
     <g id="text_22">
      <!-- 1.0 -->
      <g transform="translate(24.906875 598.53023) scale(0.1 -0.1)">
       <defs>
        <path id="DejaVuSans-2e" d="M 684 794 
L 1344 794 
L 1344 0 
L 684 0 
L 684 794 
z
" transform="scale(0.015625)"/>
       </defs>
       <use xlink:href="#DejaVuSans-31"/>
       <use xlink:href="#DejaVuSans-2e" transform="translate(63.623047 0)"/>
       <use xlink:href="#DejaVuSans-30" transform="translate(95.410156 0)"/>
      </g>
     </g>
    </g>
    <g id="ytick_10">
     <g id="line2d_55">
      <path d="M 47.81 557.625517 
L 925.2 557.625517 
" clip-path="url(#pe443e51131)" style="fill: none; stroke: #b0b0b0; stroke-opacity: 0.3; stroke-width: 0.8; stroke-linecap: square"/>
     </g>
     <g id="line2d_56">
      <g>
       <use xlink:href="#m281edfe4b4" x="47.81" y="557.625517" style="stroke: #000000; stroke-width: 0.8"/>
      </g>
     </g>
     <g id="text_23">
      <!-- 1.2 -->
      <g transform="translate(24.906875 561.424736) scale(0.1 -0.1)">
       <use xlink:href="#DejaVuSans-31"/>
       <use xlink:href="#DejaVuSans-2e" transform="translate(63.623047 0)"/>
       <use xlink:href="#DejaVuSans-32" transform="translate(95.410156 0)"/>
      </g>
     </g>
    </g>
    <g id="ytick_11">
     <g id="line2d_57">
      <path d="M 47.81 520.520022 
L 925.2 520.520022 
" clip-path="url(#pe443e51131)" style="fill: none; stroke: #b0b0b0; stroke-opacity: 0.3; stroke-width: 0.8; stroke-linecap: square"/>
     </g>
     <g id="line2d_58">
      <g>
       <use xlink:href="#m281edfe4b4" x="47.81" y="520.520022" style="stroke: #000000; stroke-width: 0.8"/>
      </g>
     </g>
     <g id="text_24">
      <!-- 1.4 -->
      <g transform="translate(24.906875 524.319241) scale(0.1 -0.1)">
       <use xlink:href="#DejaVuSans-31"/>
       <use xlink:href="#DejaVuSans-2e" transform="translate(63.623047 0)"/>
       <use xlink:href="#DejaVuSans-34" transform="translate(95.410156 0)"/>
      </g>
     </g>
    </g>
    <g id="ytick_12">
     <g id="line2d_59">
      <path d="M 47.81 483.414528 
L 925.2 483.414528 
" clip-path="url(#pe443e51131)" style="fill: none; stroke: #b0b0b0; stroke-opacity: 0.3; stroke-width: 0.8; stroke-linecap: square"/>
     </g>
     <g id="line2d_60">
      <g>
       <use xlink:href="#m281edfe4b4" x="47.81" y="483.414528" style="stroke: #000000; stroke-width: 0.8"/>
      </g>
     </g>
     <g id="text_25">
      <!-- 1.6 -->
      <g transform="translate(24.906875 487.213746) scale(0.1 -0.1)">
       <use xlink:href="#DejaVuSans-31"/>
       <use xlink:href="#DejaVuSans-2e" transform="translate(63.623047 0)"/>
       <use xlink:href="#DejaVuSans-36" transform="translate(95.410156 0)"/>
      </g>
     </g>
    </g>
    <g id="ytick_13">
     <g id="line2d_61">
      <path d="M 47.81 446.309033 
L 925.2 446.309033 
" clip-path="url(#pe443e51131)" style="fill: none; stroke: #b0b0b0; stroke-opacity: 0.3; stroke-width: 0.8; stroke-linecap: square"/>
     </g>
     <g id="line2d_62">
      <g>
       <use xlink:href="#m281edfe4b4" x="47.81" y="446.309033" style="stroke: #000000; stroke-width: 0.8"/>
      </g>
     </g>
     <g id="text_26">
      <!-- 1.8 -->
      <g transform="translate(24.906875 450.108252) scale(0.1 -0.1)">
       <use xlink:href="#DejaVuSans-31"/>
       <use xlink:href="#DejaVuSans-2e" transform="translate(63.623047 0)"/>
       <use xlink:href="#DejaVuSans-38" transform="translate(95.410156 0)"/>
      </g>
     </g>
    </g>
    <g id="text_27">
     <!-- speedup (ref / fft16) -->
     <g transform="translate(18.827187 565.098625) rotate(-90) scale(0.1 -0.1)">
      <use xlink:href="#DejaVuSans-73"/>
      <use xlink:href="#DejaVuSans-70" transform="translate(52.099609 0)"/>
      <use xlink:href="#DejaVuSans-65" transform="translate(115.576172 0)"/>
      <use xlink:href="#DejaVuSans-65" transform="translate(177.099609 0)"/>
      <use xlink:href="#DejaVuSans-64" transform="translate(238.623047 0)"/>
      <use xlink:href="#DejaVuSans-75" transform="translate(302.099609 0)"/>
      <use xlink:href="#DejaVuSans-70" transform="translate(365.478516 0)"/>
      <use xlink:href="#DejaVuSans-20" transform="translate(428.955078 0)"/>
      <use xlink:href="#DejaVuSans-28" transform="translate(460.742188 0)"/>
      <use xlink:href="#DejaVuSans-72" transform="translate(499.755859 0)"/>
      <use xlink:href="#DejaVuSans-65" transform="translate(538.619141 0)"/>
      <use xlink:href="#DejaVuSans-66" transform="translate(600.142578 0)"/>
      <use xlink:href="#DejaVuSans-20" transform="translate(635.347656 0)"/>
      <use xlink:href="#DejaVuSans-2f" transform="translate(667.134766 0)"/>
      <use xlink:href="#DejaVuSans-20" transform="translate(700.826172 0)"/>
      <use xlink:href="#DejaVuSans-66" transform="translate(732.613281 0)"/>
      <use xlink:href="#DejaVuSans-66" transform="translate(767.818359 0)"/>
      <use xlink:href="#DejaVuSans-74" transform="translate(801.273438 0)"/>
      <use xlink:href="#DejaVuSans-31" transform="translate(840.482422 0)"/>
      <use xlink:href="#DejaVuSans-36" transform="translate(904.105469 0)"/>
      <use xlink:href="#DejaVuSans-29" transform="translate(967.728516 0)"/>
     </g>
    </g>
   </g>
   <g id="line2d_63">
    <path d="M 87.691364 481.122161 
L 95.222012 481.967326 
L 102.422744 462.829727 
L 109.321256 460.784579 
L 115.941899 458.291034 
L 123.343361 456.230385 
L 130.425889 443.59285 
L 137.215839 441.337437 
L 144.64718 439.038276 
L 151.757062 436.512075 
L 158.572149 455.663543 
L 165.91587 454.7102 
L 172.94551 451.984096 
L 180.419088 460.815704 
L 187.567624 458.10556 
L 194.418216 455.819791 
L 201.638117 451.880552 
L 208.554221 461.788728 
L 215.781337 459.832122 
L 223.268009 457.444556 
L 229.888652 455.167376 
L 237.290114 453.456479 
L 244.372642 455.343731 
L 251.637024 452.949276 
L 258.593933 450.340519 
L 265.703816 447.378172 
L 272.935608 459.422477 
L 279.862623 457.343183 
L 287.274122 454.501565 
L 294.365841 471.740618 
L 301.514377 469.436844 
L 308.364969 467.460557 
L 315.58487 464.224765 
L 322.808534 471.977524 
L 329.728091 469.75263 
L 336.933031 468.098705 
L 344.105562 465.96888 
L 351.236867 464.319598 
L 358.319396 442.162836 
L 365.346732 439.70924 
L 372.540686 437.229898 
L 379.650569 434.791239 
L 386.882361 448.03243 
L 394.008758 445.51459 
L 401.030057 443.499435 
L 408.129837 462.814057 
L 415.286154 460.230648 
L 422.479382 457.987729 
L 429.531623 454.873461 
L 436.601579 460.293175 
L 443.822081 458.250652 
L 450.879784 456.920673 
L 458.052315 454.445713 
L 465.18362 452.463527 
L 472.266149 456.438908 
L 479.412051 454.08561 
L 486.487439 452.464773 
L 493.597322 449.665342 
L 500.725037 450.461456 
L 507.855851 448.819929 
L 514.97681 446.524629 
L 522.07659 468.329618 
L 529.232907 465.953521 
L 536.342327 463.65975 
L 543.478377 461.230703 
L 550.625204 465.030459 
L 557.695232 463.740598 
L 564.826537 461.817285 
L 571.931571 459.202269 
L 579.065742 456.95054 
L 586.212902 443.564472 
L 593.358804 441.685148 
L 600.434193 438.765092 
L 607.598428 436.829481 
L 614.67179 449.887589 
L 621.802604 448.435315 
L 628.923563 447.621735 
L 636.069052 470.556485 
L 643.17966 468.007861 
L 650.28908 465.69647 
L 657.42513 463.513252 
L 664.533526 464.863845 
L 671.678791 466.002131 
L 678.77329 464.530156 
L 685.912077 462.564891 
L 693.044814 460.675119 
L 700.159655 465.786088 
L 707.275924 463.496659 
L 714.409326 461.56715 
L 721.518007 459.787016 
L 728.644569 457.249844 
L 735.774278 456.0739 
L 742.894181 454.350425 
L 750.015805 488.479624 
L 757.126414 486.179079 
L 764.256789 485.346504 
L 771.371883 482.603171 
L 778.499496 490.170337 
L 785.607142 488.394539 
L 792.737666 487.997637 
L 799.85883 486.328611 
L 806.975409 484.103697 
L 814.106409 468.684782 
L 821.222677 467.520704 
L 828.34189 465.817758 
L 835.464761 464.398733 
L 842.591322 473.520571 
L 849.708571 472.957192 
L 856.829002 472.758539 
L 863.951133 504.493602 
L 871.073167 505.717969 
L 878.193065 491.235015 
L 885.318636 490.750095 
" clip-path="url(#pe443e51131)" style="fill: none; stroke: #2ca02c; stroke-width: 1.1; stroke-linecap: square"/>
   </g>
   <g id="line2d_64">
    <path d="M 47.81 594.731011 
L 925.2 594.731011 
" clip-path="url(#pe443e51131)" style="fill: none; stroke: #000000; stroke-width: 0.8; stroke-linecap: square"/>
   </g>
   <g id="patch_9">
    <path d="M 47.81 602.728 
L 47.81 426.79425 
" style="fill: none; stroke: #000000; stroke-width: 0.8; stroke-linejoin: miter; stroke-linecap: square"/>
   </g>
   <g id="patch_10">
    <path d="M 925.2 602.728 
L 925.2 426.79425 
" style="fill: none; stroke: #000000; stroke-width: 0.8; stroke-linejoin: miter; stroke-linecap: square"/>
   </g>
   <g id="patch_11">
    <path d="M 47.81 602.728 
L 925.2 602.728 
" style="fill: none; stroke: #000000; stroke-width: 0.8; stroke-linejoin: miter; stroke-linecap: square"/>
   </g>
   <g id="patch_12">
    <path d="M 47.81 426.79425 
L 925.2 426.79425 
" style="fill: none; stroke: #000000; stroke-width: 0.8; stroke-linejoin: miter; stroke-linecap: square"/>
   </g>
  </g>
 </g>
 <defs>
  <clipPath id="pd38d3b93d0">
   <rect x="47.81" y="25.44" width="877.39" height="387.05425"/>
  </clipPath>
  <clipPath id="pe443e51131">
   <rect x="47.81" y="426.79425" width="877.39" height="175.93375"/>
  </clipPath>
 </defs>
</svg>
