<?xml version="1.0" encoding="utf-8" standalone="no"?>
<!DOCTYPE svg PUBLIC "-//W3C//DTD SVG 1.1//EN"
  "http://www.w3.org/Graphics/SVG/1.1/DTD/svg11.dtd">
<svg xmlns:xlink="http://www.w3.org/1999/xlink" width="936pt" height="504pt" viewBox="0 0 936 504" xmlns="http://www.w3.org/2000/svg" version="1.1">
 <metadata>
  <rdf:RDF xmlns:dc="http://purl.org/dc/elements/1.1/" xmlns:cc="http://creativecommons.org/ns#" xmlns:rdf="http://www.w3.org/1999/02/22-rdf-syntax-ns#">
   <cc:Work>
    <dc:type rdf:resource="http://purl.org/dc/dcmitype/StillImage"/>
    <dc:date>2026-06-11T19:47:12.704294</dc:date>
    <dc:format>image/svg+xml</dc:format>
    <dc:creator>
     <cc:Agent>
      <dc:title>Matplotlib v3.10.7+dfsg1, https://matplotlib.org/</dc:title>
     </cc:Agent>
    </dc:creator>
   </cc:Work>
  </rdf:RDF>
 </metadata>
 <defs>
  <style type="text/css">*{stroke-linejoin: round; stroke-linecap: butt}</style>
 </defs>
 <g id="figure_1">
  <g id="patch_1">
   <path d="M 0 504 
L 936 504 
L 936 0 
L 0 0 
z
" style="fill: #ffffff"/>
  </g>
  <g id="axes_1">
   <g id="patch_2">
    <path d="M 44.66 462.04 
L 925.2 462.04 
L 925.2 25.44 
L 44.66 25.44 
z
" style="fill: #ffffff"/>
   </g>
   <g id="matplotlib.axis_1">
    <g id="xtick_1">
     <g id="line2d_1">
      <path d="M 130.546004 462.04 
L 130.546004 25.44 
" clip-path="url(#pc4397d4d3b)" style="fill: none; stroke: #b0b0b0; stroke-opacity: 0.3; stroke-width: 0.8; stroke-linecap: square"/>
     </g>
     <g id="line2d_2">
      <defs>
       <path id="mab9168062f" d="M 0 0 
L 0 3.5 
" style="stroke: #000000; stroke-width: 0.8"/>
      </defs>
      <g>
       <use xlink:href="#mab9168062f" x="130.546004" y="462.04" style="stroke: #000000; stroke-width: 0.8"/>
      </g>
     </g>
     <g id="text_1">
      <!-- 150 -->
      <g transform="translate(121.002254 476.638438) scale(0.1 -0.1)">
       <defs>
        <path id="DejaVuSans-31" d="M 794 531 
L 1825 531 
L 1825 4091 
L 703 3866 
L 703 4441 
L 1819 4666 
L 2450 4666 
L 2450 531 
L 3481 531 
L 3481 0 
L 794 0 
L 794 531 
z
" transform="scale(0.015625)"/>
        <path id="DejaVuSans-35" d="M 691 4666 
L 3169 4666 
L 3169 4134 
L 1269 4134 
L 1269 2991 
Q 1406 3038 1543 3061 
Q 1681 3084 1819 3084 
Q 2600 3084 3056 2656 
Q 3513 2228 3513 1497 
Q 3513 744 3044 326 
Q 2575 -91 1722 -91 
Q 1428 -91 1123 -41 
Q 819 9 494 109 
L 494 744 
Q 775 591 1075 516 
Q 1375 441 1709 441 
Q 2250 441 2565 725 
Q 2881 1009 2881 1497 
Q 2881 1984 2565 2268 
Q 2250 2553 1709 2553 
Q 1456 2553 1204 2497 
Q 953 2441 691 2322 
L 691 4666 
z
" transform="scale(0.015625)"/>
        <path id="DejaVuSans-30" d="M 2034 4250 
Q 1547 4250 1301 3770 
Q 1056 3291 1056 2328 
Q 1056 1369 1301 889 
Q 1547 409 2034 409 
Q 2525 409 2770 889 
Q 3016 1369 3016 2328 
Q 3016 3291 2770 3770 
Q 2525 4250 2034 4250 
z
M 2034 4750 
Q 2819 4750 3233 4129 
Q 3647 3509 3647 2328 
Q 3647 1150 3233 529 
Q 2819 -91 2034 -91 
Q 1250 -91 836 529 
Q 422 1150 422 2328 
Q 422 3509 836 4129 
Q 1250 4750 2034 4750 
z
" transform="scale(0.015625)"/>
       </defs>
       <use xlink:href="#DejaVuSans-31"/>
       <use xlink:href="#DejaVuSans-35" transform="translate(63.623047 0)"/>
       <use xlink:href="#DejaVuSans-30" transform="translate(127.246094 0)"/>
      </g>
     </g>
    </g>
    <g id="xtick_2">
     <g id="line2d_3">
      <path d="M 234.776591 462.04 
L 234.776591 25.44 
" clip-path="url(#pc4397d4d3b)" style="fill: none; stroke: #b0b0b0; stroke-opacity: 0.3; stroke-width: 0.8; stroke-linecap: square"/>
     </g>
     <g id="line2d_4">
      <g>
       <use xlink:href="#mab9168062f" x="234.776591" y="462.04" style="stroke: #000000; stroke-width: 0.8"/>
      </g>
     </g>
     <g id="text_2">
      <!-- 200 -->
      <g transform="translate(225.232841 476.638438) scale(0.1 -0.1)">
       <defs>
        <path id="DejaVuSans-32" d="M 1228 531 
L 3431 531 
L 3431 0 
L 469 0 
L 469 531 
Q 828 903 1448 1529 
Q 2069 2156 2228 2338 
Q 2531 2678 2651 2914 
Q 2772 3150 2772 3378 
Q 2772 3750 2511 3984 
Q 2250 4219 1831 4219 
Q 1534 4219 1204 4116 
Q 875 4013 500 3803 
L 500 4441 
Q 881 4594 1212 4672 
Q 1544 4750 1819 4750 
Q 2544 4750 2975 4387 
Q 3406 4025 3406 3419 
Q 3406 3131 3298 2873 
Q 3191 2616 2906 2266 
Q 2828 2175 2409 1742 
Q 1991 1309 1228 531 
z
" transform="scale(0.015625)"/>
       </defs>
       <use xlink:href="#DejaVuSans-32"/>
       <use xlink:href="#DejaVuSans-30" transform="translate(63.623047 0)"/>
       <use xlink:href="#DejaVuSans-30" transform="translate(127.246094 0)"/>
      </g>
     </g>
    </g>
    <g id="xtick_3">
     <g id="line2d_5">
      <path d="M 339.007178 462.04 
L 339.007178 25.44 
" clip-path="url(#pc4397d4d3b)" style="fill: none; stroke: #b0b0b0; stroke-opacity: 0.3; stroke-width: 0.8; stroke-linecap: square"/>
     </g>
     <g id="line2d_6">
      <g>
       <use xlink:href="#mab9168062f" x="339.007178" y="462.04" style="stroke: #000000; stroke-width: 0.8"/>
      </g>
     </g>
     <g id="text_3">
      <!-- 250 -->
      <g transform="translate(329.463428 476.638438) scale(0.1 -0.1)">
       <use xlink:href="#DejaVuSans-32"/>
       <use xlink:href="#DejaVuSans-35" transform="translate(63.623047 0)"/>
       <use xlink:href="#DejaVuSans-30" transform="translate(127.246094 0)"/>
      </g>
     </g>
    </g>
    <g id="xtick_4">
     <g id="line2d_7">
      <path d="M 443.237765 462.04 
L 443.237765 25.44 
" clip-path="url(#pc4397d4d3b)" style="fill: none; stroke: #b0b0b0; stroke-opacity: 0.3; stroke-width: 0.8; stroke-linecap: square"/>
     </g>
     <g id="line2d_8">
      <g>
       <use xlink:href="#mab9168062f" x="443.237765" y="462.04" style="stroke: #000000; stroke-width: 0.8"/>
      </g>
     </g>
     <g id="text_4">
      <!-- 300 -->
      <g transform="translate(433.694015 476.638438) scale(0.1 -0.1)">
       <defs>
        <path id="DejaVuSans-33" d="M 2597 2516 
Q 3050 2419 3304 2112 
Q 3559 1806 3559 1356 
Q 3559 666 3084 287 
Q 2609 -91 1734 -91 
Q 1441 -91 1130 -33 
Q 819 25 488 141 
L 488 750 
Q 750 597 1062 519 
Q 1375 441 1716 441 
Q 2309 441 2620 675 
Q 2931 909 2931 1356 
Q 2931 1769 2642 2001 
Q 2353 2234 1838 2234 
L 1294 2234 
L 1294 2753 
L 1863 2753 
Q 2328 2753 2575 2939 
Q 2822 3125 2822 3475 
Q 2822 3834 2567 4026 
Q 2313 4219 1838 4219 
Q 1578 4219 1281 4162 
Q 984 4106 628 3988 
L 628 4550 
Q 988 4650 1302 4700 
Q 1616 4750 1894 4750 
Q 2613 4750 3031 4423 
Q 3450 4097 3450 3541 
Q 3450 3153 3228 2886 
Q 3006 2619 2597 2516 
z
" transform="scale(0.015625)"/>
       </defs>
       <use xlink:href="#DejaVuSans-33"/>
       <use xlink:href="#DejaVuSans-30" transform="translate(63.623047 0)"/>
       <use xlink:href="#DejaVuSans-30" transform="translate(127.246094 0)"/>
      </g>
     </g>
    </g>
    <g id="xtick_5">
     <g id="line2d_9">
      <path d="M 547.468352 462.04 
L 547.468352 25.44 
" clip-path="url(#pc4397d4d3b)" style="fill: none; stroke: #b0b0b0; stroke-opacity: 0.3; stroke-width: 0.8; stroke-linecap: square"/>
     </g>
     <g id="line2d_10">
      <g>
       <use xlink:href="#mab9168062f" x="547.468352" y="462.04" style="stroke: #000000; stroke-width: 0.8"/>
      </g>
     </g>
     <g id="text_5">
      <!-- 350 -->
      <g transform="translate(537.924602 476.638438) scale(0.1 -0.1)">
       <use xlink:href="#DejaVuSans-33"/>
       <use xlink:href="#DejaVuSans-35" transform="translate(63.623047 0)"/>
       <use xlink:href="#DejaVuSans-30" transform="translate(127.246094 0)"/>
      </g>
     </g>
    </g>
    <g id="xtick_6">
     <g id="line2d_11">
      <path d="M 651.698939 462.04 
L 651.698939 25.44 
" clip-path="url(#pc4397d4d3b)" style="fill: none; stroke: #b0b0b0; stroke-opacity: 0.3; stroke-width: 0.8; stroke-linecap: square"/>
     </g>
     <g id="line2d_12">
      <g>
       <use xlink:href="#mab9168062f" x="651.698939" y="462.04" style="stroke: #000000; stroke-width: 0.8"/>
      </g>
     </g>
     <g id="text_6">
      <!-- 400 -->
      <g transform="translate(642.155189 476.638438) scale(0.1 -0.1)">
       <defs>
        <path id="DejaVuSans-34" d="M 2419 4116 
L 825 1625 
L 2419 1625 
L 2419 4116 
z
M 2253 4666 
L 3047 4666 
L 3047 1625 
L 3713 1625 
L 3713 1100 
L 3047 1100 
L 3047 0 
L 2419 0 
L 2419 1100 
L 313 1100 
L 313 1709 
L 2253 4666 
z
" transform="scale(0.015625)"/>
       </defs>
       <use xlink:href="#DejaVuSans-34"/>
       <use xlink:href="#DejaVuSans-30" transform="translate(63.623047 0)"/>
       <use xlink:href="#DejaVuSans-30" transform="translate(127.246094 0)"/>
      </g>
     </g>
    </g>
    <g id="xtick_7">
     <g id="line2d_13">
      <path d="M 755.929527 462.04 
L 755.929527 25.44 
" clip-path="url(#pc4397d4d3b)" style="fill: none; stroke: #b0b0b0; stroke-opacity: 0.3; stroke-width: 0.8; stroke-linecap: square"/>
     </g>
     <g id="line2d_14">
      <g>
       <use xlink:href="#mab9168062f" x="755.929527" y="462.04" style="stroke: #000000; stroke-width: 0.8"/>
      </g>
     </g>
     <g id="text_7">
      <!-- 450 -->
      <g transform="translate(746.385777 476.638438) scale(0.1 -0.1)">
       <use xlink:href="#DejaVuSans-34"/>
       <use xlink:href="#DejaVuSans-35" transform="translate(63.623047 0)"/>
       <use xlink:href="#DejaVuSans-30" transform="translate(127.246094 0)"/>
      </g>
     </g>
    </g>
    <g id="xtick_8">
     <g id="line2d_15">
      <path d="M 860.160114 462.04 
L 860.160114 25.44 
" clip-path="url(#pc4397d4d3b)" style="fill: none; stroke: #b0b0b0; stroke-opacity: 0.3; stroke-width: 0.8; stroke-linecap: square"/>
     </g>
     <g id="line2d_16">
      <g>
       <use xlink:href="#mab9168062f" x="860.160114" y="462.04" style="stroke: #000000; stroke-width: 0.8"/>
      </g>
     </g>
     <g id="text_8">
      <!-- 500 -->
      <g transform="translate(850.616364 476.638438) scale(0.1 -0.1)">
       <use xlink:href="#DejaVuSans-35"/>
       <use xlink:href="#DejaVuSans-30" transform="translate(63.623047 0)"/>
       <use xlink:href="#DejaVuSans-30" transform="translate(127.246094 0)"/>
      </g>
     </g>
    </g>
    <g id="text_9">
     <!-- n (u64 limbs) -->
     <g transform="translate(451.722969 490.316563) scale(0.1 -0.1)">
      <defs>
       <path id="DejaVuSans-6e" d="M 3513 2113 
L 3513 0 
L 2938 0 
L 2938 2094 
Q 2938 2591 2744 2837 
Q 2550 3084 2163 3084 
Q 1697 3084 1428 2787 
Q 1159 2491 1159 1978 
L 1159 0 
L 581 0 
L 581 3500 
L 1159 3500 
L 1159 2956 
Q 1366 3272 1645 3428 
Q 1925 3584 2291 3584 
Q 2894 3584 3203 3211 
Q 3513 2838 3513 2113 
z
" transform="scale(0.015625)"/>
       <path id="DejaVuSans-20" transform="scale(0.015625)"/>
       <path id="DejaVuSans-28" d="M 1984 4856 
Q 1566 4138 1362 3434 
Q 1159 2731 1159 2009 
Q 1159 1288 1364 580 
Q 1569 -128 1984 -844 
L 1484 -844 
Q 1016 -109 783 600 
Q 550 1309 550 2009 
Q 550 2706 781 3412 
Q 1013 4119 1484 4856 
L 1984 4856 
z
" transform="scale(0.015625)"/>
       <path id="DejaVuSans-75" d="M 544 1381 
L 544 3500 
L 1119 3500 
L 1119 1403 
Q 1119 906 1312 657 
Q 1506 409 1894 409 
Q 2359 409 2629 706 
Q 2900 1003 2900 1516 
L 2900 3500 
L 3475 3500 
L 3475 0 
L 2900 0 
L 2900 538 
Q 2691 219 2414 64 
Q 2138 -91 1772 -91 
Q 1169 -91 856 284 
Q 544 659 544 1381 
z
M 1991 3584 
L 1991 3584 
z
" transform="scale(0.015625)"/>
       <path id="DejaVuSans-36" d="M 2113 2584 
Q 1688 2584 1439 2293 
Q 1191 2003 1191 1497 
Q 1191 994 1439 701 
Q 1688 409 2113 409 
Q 2538 409 2786 701 
Q 3034 994 3034 1497 
Q 3034 2003 2786 2293 
Q 2538 2584 2113 2584 
z
M 3366 4563 
L 3366 3988 
Q 3128 4100 2886 4159 
Q 2644 4219 2406 4219 
Q 1781 4219 1451 3797 
Q 1122 3375 1075 2522 
Q 1259 2794 1537 2939 
Q 1816 3084 2150 3084 
Q 2853 3084 3261 2657 
Q 3669 2231 3669 1497 
Q 3669 778 3244 343 
Q 2819 -91 2113 -91 
Q 1303 -91 875 529 
Q 447 1150 447 2328 
Q 447 3434 972 4092 
Q 1497 4750 2381 4750 
Q 2619 4750 2861 4703 
Q 3103 4656 3366 4563 
z
" transform="scale(0.015625)"/>
       <path id="DejaVuSans-6c" d="M 603 4863 
L 1178 4863 
L 1178 0 
L 603 0 
L 603 4863 
z
" transform="scale(0.015625)"/>
       <path id="DejaVuSans-69" d="M 603 3500 
L 1178 3500 
L 1178 0 
L 603 0 
L 603 3500 
z
M 603 4863 
L 1178 4863 
L 1178 4134 
L 603 4134 
L 603 4863 
z
" transform="scale(0.015625)"/>
       <path id="DejaVuSans-6d" d="M 3328 2828 
Q 3544 3216 3844 3400 
Q 4144 3584 4550 3584 
Q 5097 3584 5394 3201 
Q 5691 2819 5691 2113 
L 5691 0 
L 5113 0 
L 5113 2094 
Q 5113 2597 4934 2840 
Q 4756 3084 4391 3084 
Q 3944 3084 3684 2787 
Q 3425 2491 3425 1978 
L 3425 0 
L 2847 0 
L 2847 2094 
Q 2847 2600 2669 2842 
Q 2491 3084 2119 3084 
Q 1678 3084 1418 2786 
Q 1159 2488 1159 1978 
L 1159 0 
L 581 0 
L 581 3500 
L 1159 3500 
L 1159 2956 
Q 1356 3278 1631 3431 
Q 1906 3584 2284 3584 
Q 2666 3584 2933 3390 
Q 3200 3197 3328 2828 
z
" transform="scale(0.015625)"/>
       <path id="DejaVuSans-62" d="M 3116 1747 
Q 3116 2381 2855 2742 
Q 2594 3103 2138 3103 
Q 1681 3103 1420 2742 
Q 1159 2381 1159 1747 
Q 1159 1113 1420 752 
Q 1681 391 2138 391 
Q 2594 391 2855 752 
Q 3116 1113 3116 1747 
z
M 1159 2969 
Q 1341 3281 1617 3432 
Q 1894 3584 2278 3584 
Q 2916 3584 3314 3078 
Q 3713 2572 3713 1747 
Q 3713 922 3314 415 
Q 2916 -91 2278 -91 
Q 1894 -91 1617 61 
Q 1341 213 1159 525 
L 1159 0 
L 581 0 
L 581 4863 
L 1159 4863 
L 1159 2969 
z
" transform="scale(0.015625)"/>
       <path id="DejaVuSans-73" d="M 2834 3397 
L 2834 2853 
Q 2591 2978 2328 3040 
Q 2066 3103 1784 3103 
Q 1356 3103 1142 2972 
Q 928 2841 928 2578 
Q 928 2378 1081 2264 
Q 1234 2150 1697 2047 
L 1894 2003 
Q 2506 1872 2764 1633 
Q 3022 1394 3022 966 
Q 3022 478 2636 193 
Q 2250 -91 1575 -91 
Q 1294 -91 989 -36 
Q 684 19 347 128 
L 347 722 
Q 666 556 975 473 
Q 1284 391 1588 391 
Q 1994 391 2212 530 
Q 2431 669 2431 922 
Q 2431 1156 2273 1281 
Q 2116 1406 1581 1522 
L 1381 1569 
Q 847 1681 609 1914 
Q 372 2147 372 2553 
Q 372 3047 722 3315 
Q 1072 3584 1716 3584 
Q 2034 3584 2315 3537 
Q 2597 3491 2834 3397 
z
" transform="scale(0.015625)"/>
       <path id="DejaVuSans-29" d="M 513 4856 
L 1013 4856 
Q 1481 4119 1714 3412 
Q 1947 2706 1947 2009 
Q 1947 1309 1714 600 
Q 1481 -109 1013 -844 
L 513 -844 
Q 928 -128 1133 580 
Q 1338 1288 1338 2009 
Q 1338 2731 1133 3434 
Q 928 4138 513 4856 
z
" transform="scale(0.015625)"/>
      </defs>
      <use xlink:href="#DejaVuSans-6e"/>
      <use xlink:href="#DejaVuSans-20" transform="translate(63.378906 0)"/>
      <use xlink:href="#DejaVuSans-28" transform="translate(95.166016 0)"/>
      <use xlink:href="#DejaVuSans-75" transform="translate(134.179688 0)"/>
      <use xlink:href="#DejaVuSans-36" transform="translate(197.558594 0)"/>
      <use xlink:href="#DejaVuSans-34" transform="translate(261.181641 0)"/>
      <use xlink:href="#DejaVuSans-20" transform="translate(324.804688 0)"/>
      <use xlink:href="#DejaVuSans-6c" transform="translate(356.591797 0)"/>
      <use xlink:href="#DejaVuSans-69" transform="translate(384.375 0)"/>
      <use xlink:href="#DejaVuSans-6d" transform="translate(412.158203 0)"/>
      <use xlink:href="#DejaVuSans-62" transform="translate(509.570312 0)"/>
      <use xlink:href="#DejaVuSans-73" transform="translate(573.046875 0)"/>
      <use xlink:href="#DejaVuSans-29" transform="translate(625.146484 0)"/>
     </g>
    </g>
   </g>
   <g id="matplotlib.axis_2">
    <g id="ytick_1">
     <g id="line2d_17">
      <path d="M 44.66 411.362001 
L 925.2 411.362001 
" clip-path="url(#pc4397d4d3b)" style="fill: none; stroke: #b0b0b0; stroke-opacity: 0.3; stroke-width: 0.8; stroke-linecap: square"/>
     </g>
     <g id="line2d_18">
      <defs>
       <path id="m85410f82db" d="M 0 0 
L -3.5 0 
" style="stroke: #000000; stroke-width: 0.8"/>
      </defs>
      <g>
       <use xlink:href="#m85410f82db" x="44.66" y="411.362001" style="stroke: #000000; stroke-width: 0.8"/>
      </g>
     </g>
     <g id="text_10">
      <!-- 6 -->
      <g transform="translate(31.2975 415.16122) scale(0.1 -0.1)">
       <use xlink:href="#DejaVuSans-36"/>
      </g>
     </g>
    </g>
    <g id="ytick_2">
     <g id="line2d_19">
      <path d="M 44.66 318.282621 
L 925.2 318.282621 
" clip-path="url(#pc4397d4d3b)" style="fill: none; stroke: #b0b0b0; stroke-opacity: 0.3; stroke-width: 0.8; stroke-linecap: square"/>
     </g>
     <g id="line2d_20">
      <g>
       <use xlink:href="#m85410f82db" x="44.66" y="318.282621" style="stroke: #000000; stroke-width: 0.8"/>
      </g>
     </g>
     <g id="text_11">
      <!-- 8 -->
      <g transform="translate(31.2975 322.08184) scale(0.1 -0.1)">
       <defs>
        <path id="DejaVuSans-38" d="M 2034 2216 
Q 1584 2216 1326 1975 
Q 1069 1734 1069 1313 
Q 1069 891 1326 650 
Q 1584 409 2034 409 
Q 2484 409 2743 651 
Q 3003 894 3003 1313 
Q 3003 1734 2745 1975 
Q 2488 2216 2034 2216 
z
M 1403 2484 
Q 997 2584 770 2862 
Q 544 3141 544 3541 
Q 544 4100 942 4425 
Q 1341 4750 2034 4750 
Q 2731 4750 3128 4425 
Q 3525 4100 3525 3541 
Q 3525 3141 3298 2862 
Q 3072 2584 2669 2484 
Q 3125 2378 3379 2068 
Q 3634 1759 3634 1313 
Q 3634 634 3220 271 
Q 2806 -91 2034 -91 
Q 1263 -91 848 271 
Q 434 634 434 1313 
Q 434 1759 690 2068 
Q 947 2378 1403 2484 
z
M 1172 3481 
Q 1172 3119 1398 2916 
Q 1625 2713 2034 2713 
Q 2441 2713 2670 2916 
Q 2900 3119 2900 3481 
Q 2900 3844 2670 4047 
Q 2441 4250 2034 4250 
Q 1625 4250 1398 4047 
Q 1172 3844 1172 3481 
z
" transform="scale(0.015625)"/>
       </defs>
       <use xlink:href="#DejaVuSans-38"/>
      </g>
     </g>
    </g>
    <g id="ytick_3">
     <g id="line2d_21">
      <path d="M 44.66 225.203242 
L 925.2 225.203242 
" clip-path="url(#pc4397d4d3b)" style="fill: none; stroke: #b0b0b0; stroke-opacity: 0.3; stroke-width: 0.8; stroke-linecap: square"/>
     </g>
     <g id="line2d_22">
      <g>
       <use xlink:href="#m85410f82db" x="44.66" y="225.203242" style="stroke: #000000; stroke-width: 0.8"/>
      </g>
     </g>
     <g id="text_12">
      <!-- 10 -->
      <g transform="translate(24.935 229.00246) scale(0.1 -0.1)">
       <use xlink:href="#DejaVuSans-31"/>
       <use xlink:href="#DejaVuSans-30" transform="translate(63.623047 0)"/>
      </g>
     </g>
    </g>
    <g id="ytick_4">
     <g id="line2d_23">
      <path d="M 44.66 132.123862 
L 925.2 132.123862 
" clip-path="url(#pc4397d4d3b)" style="fill: none; stroke: #b0b0b0; stroke-opacity: 0.3; stroke-width: 0.8; stroke-linecap: square"/>
     </g>
     <g id="line2d_24">
      <g>
       <use xlink:href="#m85410f82db" x="44.66" y="132.123862" style="stroke: #000000; stroke-width: 0.8"/>
      </g>
     </g>
     <g id="text_13">
      <!-- 12 -->
      <g transform="translate(24.935 135.923081) scale(0.1 -0.1)">
       <use xlink:href="#DejaVuSans-31"/>
       <use xlink:href="#DejaVuSans-32" transform="translate(63.623047 0)"/>
      </g>
     </g>
    </g>
    <g id="ytick_5">
     <g id="line2d_25">
      <path d="M 44.66 39.044482 
L 925.2 39.044482 
" clip-path="url(#pc4397d4d3b)" style="fill: none; stroke: #b0b0b0; stroke-opacity: 0.3; stroke-width: 0.8; stroke-linecap: square"/>
     </g>
     <g id="line2d_26">
      <g>
       <use xlink:href="#m85410f82db" x="44.66" y="39.044482" style="stroke: #000000; stroke-width: 0.8"/>
      </g>
     </g>
     <g id="text_14">
      <!-- 14 -->
      <g transform="translate(24.935 42.843701) scale(0.1 -0.1)">
       <use xlink:href="#DejaVuSans-31"/>
       <use xlink:href="#DejaVuSans-34" transform="translate(63.623047 0)"/>
      </g>
     </g>
    </g>
    <g id="text_15">
     <!-- ns / input limb -->
     <g transform="translate(18.855312 279.648594) rotate(-90) scale(0.1 -0.1)">
      <defs>
       <path id="DejaVuSans-2f" d="M 1625 4666 
L 2156 4666 
L 531 -594 
L 0 -594 
L 1625 4666 
z
" transform="scale(0.015625)"/>
       <path id="DejaVuSans-70" d="M 1159 525 
L 1159 -1331 
L 581 -1331 
L 581 3500 
L 1159 3500 
L 1159 2969 
Q 1341 3281 1617 3432 
Q 1894 3584 2278 3584 
Q 2916 3584 3314 3078 
Q 3713 2572 3713 1747 
Q 3713 922 3314 415 
Q 2916 -91 2278 -91 
Q 1894 -91 1617 61 
Q 1341 213 1159 525 
z
M 3116 1747 
Q 3116 2381 2855 2742 
Q 2594 3103 2138 3103 
Q 1681 3103 1420 2742 
Q 1159 2381 1159 1747 
Q 1159 1113 1420 752 
Q 1681 391 2138 391 
Q 2594 391 2855 752 
Q 3116 1113 3116 1747 
z
" transform="scale(0.015625)"/>
       <path id="DejaVuSans-74" d="M 1172 4494 
L 1172 3500 
L 2356 3500 
L 2356 3053 
L 1172 3053 
L 1172 1153 
Q 1172 725 1289 603 
Q 1406 481 1766 481 
L 2356 481 
L 2356 0 
L 1766 0 
Q 1100 0 847 248 
Q 594 497 594 1153 
L 594 3053 
L 172 3053 
L 172 3500 
L 594 3500 
L 594 4494 
L 1172 4494 
z
" transform="scale(0.015625)"/>
      </defs>
      <use xlink:href="#DejaVuSans-6e"/>
      <use xlink:href="#DejaVuSans-73" transform="translate(63.378906 0)"/>
      <use xlink:href="#DejaVuSans-20" transform="translate(115.478516 0)"/>
      <use xlink:href="#DejaVuSans-2f" transform="translate(147.265625 0)"/>
      <use xlink:href="#DejaVuSans-20" transform="translate(180.957031 0)"/>
      <use xlink:href="#DejaVuSans-69" transform="translate(212.744141 0)"/>
      <use xlink:href="#DejaVuSans-6e" transform="translate(240.527344 0)"/>
      <use xlink:href="#DejaVuSans-70" transform="translate(303.90625 0)"/>
      <use xlink:href="#DejaVuSans-75" transform="translate(367.382812 0)"/>
      <use xlink:href="#DejaVuSans-74" transform="translate(430.761719 0)"/>
      <use xlink:href="#DejaVuSans-20" transform="translate(469.970703 0)"/>
      <use xlink:href="#DejaVuSans-6c" transform="translate(501.757812 0)"/>
      <use xlink:href="#DejaVuSans-69" transform="translate(529.541016 0)"/>
      <use xlink:href="#DejaVuSans-6d" transform="translate(557.324219 0)"/>
      <use xlink:href="#DejaVuSans-62" transform="translate(654.736328 0)"/>
     </g>
    </g>
   </g>
   <g id="line2d_27">
    <path d="M 84.684545 428.884194 
L 88.853769 433.235655 
L 93.022992 417.4587 
L 97.192216 390.791458 
L 101.361439 392.955554 
L 105.530663 389.474385 
L 109.699886 394.267973 
L 113.86911 396.045789 
L 118.038333 390.21902 
L 122.207557 390.768188 
L 126.37678 388.110772 
L 130.546004 383.759311 
L 134.715227 380.724923 
L 138.884451 381.516098 
L 143.053674 398.903326 
L 147.222898 380.887812 
L 151.392121 373.278573 
L 155.561345 373.394922 
L 159.730568 372.878331 
L 163.899792 369.439048 
L 168.069015 373.138954 
L 172.238239 365.762413 
L 176.407462 362.034584 
L 180.576686 358.111288 
L 184.745909 363.356311 
L 188.915133 357.138608 
L 193.084356 356.352088 
L 197.25358 369.76948 
L 201.422803 353.359585 
L 205.592027 347.867902 
L 209.76125 347.951674 
L 213.930473 350.218156 
L 218.099697 346.252975 
L 222.26892 346.299515 
L 226.438144 340.454129 
L 230.607367 340.212123 
L 238.945814 337.084656 
L 243.115038 336.079399 
L 247.284261 333.170668 
L 251.453485 346.574099 
L 255.622708 330.47602 
L 259.791932 325.342692 
L 263.961155 324.1792 
L 268.130379 320.52118 
L 272.299602 317.700875 
L 276.468826 318.366393 
L 280.638049 316.68631 
L 284.807273 316.704926 
L 288.976496 311.929954 
L 293.14572 310.989852 
L 297.314943 309.635547 
L 301.484167 307.424912 
L 305.65339 319.632272 
L 309.822614 299.755171 
L 313.991837 295.9203 
L 318.161061 297.130332 
L 322.330284 293.611932 
L 326.499508 291.340795 
L 330.668731 290.652007 
L 334.837955 286.5984 
L 339.007178 289.339588 
L 343.176402 282.260901 
L 347.345625 282.260901 
L 351.514848 279.705872 
L 355.684072 276.634253 
L 359.853295 292.91849 
L 364.022519 273.329935 
L 368.191742 243.646921 
L 372.360966 224.412067 
L 376.530189 218.501526 
L 380.699413 217.37992 
L 384.868636 219.488168 
L 389.03786 215.16463 
L 393.207083 218.031475 
L 397.376307 216.048885 
L 401.54553 211.632268 
L 405.714754 212.153512 
L 409.883977 211.487995 
L 414.053201 227.455763 
L 418.222424 217.221685 
L 422.391648 215.518332 
L 426.560871 214.224529 
L 430.730095 204.897975 
L 434.899318 208.076636 
L 439.068542 210.994674 
L 443.237765 203.906679 
L 447.406989 204.283651 
L 451.576212 202.529105 
L 455.745436 198.978126 
L 459.914659 201.589003 
L 464.083883 207.648471 
L 468.253106 231.281325 
L 472.42233 217.789469 
L 476.591553 202.491873 
L 480.760777 192.290373 
L 484.93 192.457916 
L 489.099223 189.549185 
L 493.268447 191.15015 
L 497.43767 183.987692 
L 501.606894 189.497991 
L 505.776117 186.184366 
L 509.945341 181.148771 
L 514.114564 181.293044 
L 518.283788 184.029578 
L 522.453011 197.758786 
L 526.622235 182.270378 
L 530.791458 176.969507 
L 534.960682 175.712935 
L 539.129905 172.492389 
L 543.299129 172.25969 
L 547.468352 175.582624 
L 551.637576 172.227113 
L 555.806799 171.887373 
L 559.976023 168.271239 
L 564.145246 168.285201 
L 568.31447 167.405601 
L 572.483693 169.271842 
L 576.652917 190.484633 
L 580.82214 180.1854 
L 584.991364 171.668636 
L 589.160587 161.993035 
L 593.329811 158.502558 
L 597.499034 155.714831 
L 601.668258 155.123777 
L 605.837481 146.881597 
L 610.006705 147.43542 
L 614.175928 143.57728 
L 618.345152 150.246417 
L 622.514375 147.523845 
L 626.683598 145.271324 
L 630.852822 158.679409 
L 635.022045 148.817649 
L 639.191269 147.07241 
L 643.360492 147.979934 
L 647.529716 148.06836 
L 651.698939 145.94615 
L 655.868163 145.708797 
L 660.037386 141.74827 
L 664.20661 141.222371 
L 668.375833 138.518415 
L 672.545057 131.86324 
L 676.71428 133.631748 
L 680.883504 139.55625 
L 685.052727 159.493853 
L 689.221951 140.277615 
L 693.391174 132.384484 
L 697.560398 128.782312 
L 701.729621 124.184191 
L 705.898845 120.703022 
L 710.068068 122.271409 
L 714.237292 119.418527 
L 718.406515 122.164368 
L 722.575739 121.093955 
L 726.744962 117.366126 
L 730.914186 115.774469 
L 735.083409 116.249174 
L 739.252633 125.301143 
L 743.421856 114.690094 
L 747.59108 110.785414 
L 751.760303 109.189103 
L 755.929527 106.987775 
L 760.09875 104.302435 
L 764.267973 105.298385 
L 768.437197 100.388447 
L 772.60642 102.613045 
L 776.775644 99.625196 
L 780.944867 100.732841 
L 785.114091 97.735685 
L 789.283314 102.319844 
L 793.452538 118.939168 
L 797.621761 101.756714 
L 801.790985 93.346992 
L 805.960208 85.249086 
L 810.129432 82.712673 
L 814.298655 80.888317 
L 818.467879 79.980793 
L 822.637102 78.589257 
L 826.806326 81.376984 
L 830.975549 80.213492 
L 835.144773 77.905123 
L 839.313996 70.770589 
L 843.48322 73.451275 
L 847.652443 82.940718 
L 851.821667 73.488507 
L 860.160114 71.259255 
L 864.329337 52.666649 
L 868.498561 56.673717 
L 872.667784 51.419386 
L 876.837008 45.285455 
L 881.006231 52.471183 
L 885.175455 46.602528 
L 885.175455 46.602528 
" clip-path="url(#pc4397d4d3b)" style="fill: none; stroke: #d62728; stroke-linecap: square"/>
   </g>
   <g id="line2d_28">
    <path d="M 84.684545 432.22109 
L 88.853769 442.194545 
L 93.022992 424.825933 
L 97.192216 421.228415 
L 101.361439 418.822313 
L 105.530663 415.597113 
L 109.699886 410.096121 
L 113.86911 410.212471 
L 118.038333 405.726044 
L 122.207557 390.768188 
L 126.37678 388.194543 
L 130.546004 384.620295 
L 134.715227 382.484123 
L 138.884451 381.897723 
L 143.053674 403.98546 
L 147.222898 382.605127 
L 151.392121 376.494465 
L 155.561345 376.075608 
L 159.730568 374.898154 
L 163.899792 372.040617 
L 168.069015 375.330973 
L 172.238239 368.903842 
L 176.407462 364.654768 
L 180.576686 359.595904 
L 184.745909 363.868247 
L 188.915133 340.272625 
L 193.084356 346.797489 
L 197.25358 378.114047 
L 201.422803 360.182304 
L 205.592027 355.314252 
L 209.76125 354.895395 
L 213.930473 356.217122 
L 218.099697 353.582976 
L 222.26892 353.238582 
L 226.438144 349.538677 
L 230.607367 349.222207 
L 234.776591 346.150588 
L 243.115038 343.251165 
L 247.284261 341.059145 
L 251.453485 352.307788 
L 255.622708 335.167221 
L 259.791932 330.480674 
L 263.961155 319.287879 
L 268.130379 327.027429 
L 272.299602 324.784216 
L 276.468826 325.263575 
L 280.638049 323.187905 
L 284.807273 323.076209 
L 288.976496 317.505408 
L 293.14572 316.97951 
L 297.314943 315.750862 
L 301.484167 313.884621 
L 305.65339 327.916337 
L 309.822614 310.445337 
L 313.991837 305.935642 
L 318.161061 307.359756 
L 322.330284 303.487654 
L 326.499508 301.854111 
L 330.668731 301.188593 
L 334.837955 297.390954 
L 339.007178 299.904098 
L 343.176402 292.806795 
L 347.345625 290.693893 
L 351.514848 288.11094 
L 355.684072 285.956153 
L 359.853295 302.53359 
L 364.022519 283.98287 
L 368.191742 280.189885 
L 372.360966 280.841441 
L 376.530189 278.998469 
L 380.699413 275.359065 
L 384.868636 274.36777 
L 389.03786 272.603916 
L 393.207083 273.022773 
L 397.376307 267.186696 
L 401.54553 266.85161 
L 405.714754 265.63227 
L 409.883977 263.863762 
L 414.053201 276.438786 
L 418.222424 262.332606 
L 422.391648 237.889961 
L 426.560871 225.812911 
L 430.730095 219.194968 
L 434.899318 220.232803 
L 439.068542 224.728537 
L 443.237765 216.337431 
L 447.406989 214.685272 
L 451.576212 212.609601 
L 455.745436 210.375696 
L 459.914659 211.124985 
L 464.083883 225.449902 
L 468.253106 246.476534 
L 472.42233 227.82808 
L 476.591553 213.763786 
L 480.760777 206.112661 
L 484.93 208.01148 
L 489.099223 204.358114 
L 493.268447 205.005016 
L 497.43767 199.936844 
L 501.606894 205.633302 
L 505.776117 200.709403 
L 509.945341 197.130501 
L 514.114564 198.968818 
L 518.283788 197.730863 
L 522.453011 208.220909 
L 526.622235 197.312005 
L 530.791458 194.165922 
L 534.960682 192.690614 
L 539.129905 188.609083 
L 543.299129 188.166956 
L 547.468352 191.066379 
L 551.637576 186.370524 
L 555.806799 187.473515 
L 559.976023 183.578143 
L 564.145246 181.255812 
L 568.31447 182.447228 
L 572.483693 185.481616 
L 576.652917 204.167302 
L 580.82214 192.923313 
L 584.991364 185.020873 
L 589.160587 176.387761 
L 593.329811 171.878065 
L 597.499034 168.839023 
L 601.668258 168.978642 
L 605.837481 163.096025 
L 610.006705 163.752235 
L 614.175928 157.967352 
L 618.345152 167.503334 
L 622.514375 164.81334 
L 626.683598 166.209531 
L 630.852822 174.349322 
L 635.022045 162.93779 
L 639.191269 160.675962 
L 643.360492 161.588139 
L 651.698939 158.828336 
L 655.868163 159.354234 
L 660.037386 154.639764 
L 664.20661 154.067326 
L 668.375833 149.990449 
L 672.545057 148.570988 
L 676.71428 148.203325 
L 680.883504 155.007427 
L 685.052727 169.546426 
L 689.221951 153.229611 
L 693.391174 146.025267 
L 697.560398 140.417235 
L 701.729621 137.499196 
L 705.898845 133.84583 
L 710.068068 134.376383 
L 714.237292 130.294852 
L 718.406515 132.08663 
L 722.575739 131.486268 
L 726.744962 129.06155 
L 730.914186 127.125499 
L 735.083409 127.66536 
L 739.252633 136.605634 
L 743.421856 125.277873 
L 747.59108 121.694317 
L 751.760303 120.842641 
L 755.929527 119.055517 
L 760.09875 117.892025 
L 764.267973 118.981053 
L 768.437197 111.665014 
L 772.60642 113.652259 
L 776.775644 110.776106 
L 780.944867 110.855224 
L 785.114091 109.794119 
L 789.283314 116.132824 
L 793.452538 132.077322 
L 797.621761 115.969935 
L 801.790985 109.096023 
L 805.960208 101.928911 
L 810.129432 97.35406 
L 814.298655 95.059653 
L 818.467879 95.678631 
L 822.637102 96.116104 
L 826.806326 98.615285 
L 830.975549 96.637348 
L 835.144773 93.37957 
L 839.313996 86.952439 
L 843.48322 90.186947 
L 847.652443 100.323292 
L 851.821667 90.633728 
L 855.99089 88.30209 
L 860.160114 86.333461 
L 864.329337 72.338976 
L 868.498561 74.80558 
L 872.667784 71.198754 
L 876.837008 63.826867 
L 881.006231 72.227281 
L 885.175455 66.70302 
L 885.175455 66.70302 
" clip-path="url(#pc4397d4d3b)" style="fill: none; stroke: #9467bd; stroke-linecap: square"/>
   </g>
   <g id="line2d_29">
    <path d="M 84.684545 348.212296 
L 88.853769 221.596416 
L 93.022992 224.612187 
L 97.192216 229.857211 
L 101.361439 236.335535 
L 105.530663 242.488082 
L 109.699886 249.152566 
L 113.86911 255.202726 
L 118.038333 261.574009 
L 122.207557 267.689324 
L 126.37678 272.887808 
L 130.546004 275.377681 
L 134.715227 282.670451 
L 147.222898 298.559101 
L 151.392121 303.338727 
L 155.561345 239.933053 
L 159.730568 244.926762 
L 163.899792 250.111284 
L 168.069015 247.854109 
L 172.238239 253.96477 
L 176.407462 272.85523 
L 180.576686 280.013034 
L 184.745909 284.913664 
L 188.915133 289.279087 
L 193.084356 293.151189 
L 197.25358 296.692859 
L 201.422803 301.635374 
L 205.592027 306.033375 
L 209.76125 310.259179 
L 213.930473 313.284259 
L 218.099697 318.687517 
L 222.26892 236.205224 
L 226.438144 240.202984 
L 230.607367 244.475327 
L 234.776591 239.090685 
L 238.945814 248.026305 
L 243.115038 248.915214 
L 247.284261 263.575216 
L 251.453485 264.971407 
L 255.622708 268.406036 
L 259.791932 271.459039 
L 263.961155 275.29391 
L 268.130379 280.734399 
L 272.299602 285.802572 
L 276.468826 281.525574 
L 280.638049 283.005536 
L 284.807273 287.948051 
L 288.976496 280.147999 
L 293.14572 283.894444 
L 297.314943 287.929436 
L 301.484167 290.754395 
L 305.65339 294.612535 
L 309.822614 298.098358 
L 313.991837 301.225825 
L 318.161061 305.21893 
L 322.330284 307.92754 
L 330.668731 314.191782 
L 334.837955 316.984164 
L 339.007178 319.34838 
L 343.176402 322.052336 
L 351.514848 328.018724 
L 355.684072 186.454296 
L 359.853295 190.382246 
L 364.022519 193.505059 
L 368.191742 197.484202 
L 372.360966 202.017168 
L 376.530189 206.131277 
L 380.699413 209.77068 
L 397.376307 223.146187 
L 405.714754 229.484893 
L 409.883977 233.259262 
L 414.053201 235.888754 
L 418.222424 239.141879 
L 422.391648 242.744051 
L 426.560871 245.634165 
L 430.730095 248.705785 
L 434.899318 251.395779 
L 439.068542 253.876344 
L 447.406989 259.642612 
L 455.745436 264.613051 
L 464.083883 270.183852 
L 468.253106 271.845319 
L 472.42233 275.163599 
L 476.591553 278.207294 
L 480.760777 280.88798 
L 484.93 283.927022 
L 489.099223 188.944169 
L 493.268447 191.475928 
L 497.43767 194.501008 
L 501.606894 194.919865 
L 505.776117 198.270723 
L 509.945341 201.021219 
L 514.114564 204.13007 
L 518.283788 207.37854 
L 522.453011 210.878325 
L 526.622235 213.196002 
L 530.791458 217.905818 
L 539.129905 223.113609 
L 543.299129 226.036302 
L 547.468352 228.568061 
L 551.637576 230.629769 
L 555.806799 233.426805 
L 559.976023 236.507732 
L 568.31447 241.059314 
L 572.483693 243.586419 
L 580.82214 248.082153 
L 584.991364 250.823341 
L 593.329811 255.561081 
L 597.499034 257.59952 
L 601.668258 259.889272 
L 605.837481 262.355876 
L 614.175928 266.348981 
L 618.345152 269.19721 
L 622.514375 206.675791 
L 626.683598 209.040007 
L 630.852822 211.813773 
L 635.022045 214.233837 
L 639.191269 216.979678 
L 643.360492 218.631837 
L 647.529716 221.023977 
L 651.698939 222.987952 
L 655.868163 225.580213 
L 668.375833 231.960804 
L 672.545057 234.413446 
L 676.71428 237.238405 
L 680.883504 239.807396 
L 685.052727 242.041301 
L 689.221951 244.042508 
L 693.391174 246.243835 
L 697.560398 248.23108 
L 701.729621 249.343379 
L 705.898845 251.800674 
L 714.237292 255.579697 
L 726.744962 261.103958 
L 730.914186 263.244784 
L 735.083409 265.232029 
L 739.252633 266.916766 
L 743.421856 266.483946 
L 747.59108 269.066899 
L 751.760303 272.743535 
L 755.929527 253.606414 
L 760.09875 256.049748 
L 764.267973 256.710612 
L 768.437197 258.372078 
L 772.60642 261.536777 
L 776.775644 262.551343 
L 780.944867 264.375698 
L 785.114091 266.423445 
L 789.283314 267.917369 
L 793.452538 270.025617 
L 797.621761 270.905217 
L 801.790985 273.004157 
L 805.960208 274.516697 
L 810.129432 276.987954 
L 814.298655 278.407415 
L 822.637102 280.98106 
L 826.806326 283.042768 
L 830.975549 284.843854 
L 835.144773 287.128953 
L 839.313996 288.487912 
L 843.48322 289.981836 
L 847.652443 291.694496 
L 855.99089 294.389144 
L 860.160114 296.422929 
L 864.329337 298.08905 
L 868.498561 299.299082 
L 872.667784 301.672606 
L 876.837008 302.100771 
L 881.006231 303.194454 
L 885.175455 305.270124 
L 885.175455 305.270124 
" clip-path="url(#pc4397d4d3b)" style="fill: none; stroke: #1f77b4; stroke-linecap: square"/>
   </g>
   <g id="patch_3">
    <path d="M 44.66 462.04 
L 44.66 25.44 
" style="fill: none; stroke: #000000; stroke-width: 0.8; stroke-linejoin: miter; stroke-linecap: square"/>
   </g>
   <g id="patch_4">
    <path d="M 925.2 462.04 
L 925.2 25.44 
" style="fill: none; stroke: #000000; stroke-width: 0.8; stroke-linejoin: miter; stroke-linecap: square"/>
   </g>
   <g id="patch_5">
    <path d="M 44.66 462.04 
L 925.2 462.04 
" style="fill: none; stroke: #000000; stroke-width: 0.8; stroke-linejoin: miter; stroke-linecap: square"/>
   </g>
   <g id="patch_6">
    <path d="M 44.66 25.44 
L 925.2 25.44 
" style="fill: none; stroke: #000000; stroke-width: 0.8; stroke-linejoin: miter; stroke-linecap: square"/>
   </g>
   <g id="text_16">
    <!-- crossover sweep with T22 variants (step 2, solo-per-process) -->
    <g transform="translate(302.474688 19.44) scale(0.12 -0.12)">
     <defs>
      <path id="DejaVuSans-63" d="M 3122 3366 
L 3122 2828 
Q 2878 2963 2633 3030 
Q 2388 3097 2138 3097 
Q 1578 3097 1268 2742 
Q 959 2388 959 1747 
Q 959 1106 1268 751 
Q 1578 397 2138 397 
Q 2388 397 2633 464 
Q 2878 531 3122 666 
L 3122 134 
Q 2881 22 2623 -34 
Q 2366 -91 2075 -91 
Q 1284 -91 818 406 
Q 353 903 353 1747 
Q 353 2603 823 3093 
Q 1294 3584 2113 3584 
Q 2378 3584 2631 3529 
Q 2884 3475 3122 3366 
z
" transform="scale(0.015625)"/>
      <path id="DejaVuSans-72" d="M 2631 2963 
Q 2534 3019 2420 3045 
Q 2306 3072 2169 3072 
Q 1681 3072 1420 2755 
Q 1159 2438 1159 1844 
L 1159 0 
L 581 0 
L 581 3500 
L 1159 3500 
L 1159 2956 
Q 1341 3275 1631 3429 
Q 1922 3584 2338 3584 
Q 2397 3584 2469 3576 
Q 2541 3569 2628 3553 
L 2631 2963 
z
" transform="scale(0.015625)"/>
      <path id="DejaVuSans-6f" d="M 1959 3097 
Q 1497 3097 1228 2736 
Q 959 2375 959 1747 
Q 959 1119 1226 758 
Q 1494 397 1959 397 
Q 2419 397 2687 759 
Q 2956 1122 2956 1747 
Q 2956 2369 2687 2733 
Q 2419 3097 1959 3097 
z
M 1959 3584 
Q 2709 3584 3137 3096 
Q 3566 2609 3566 1747 
Q 3566 888 3137 398 
Q 2709 -91 1959 -91 
Q 1206 -91 779 398 
Q 353 888 353 1747 
Q 353 2609 779 3096 
Q 1206 3584 1959 3584 
z
" transform="scale(0.015625)"/>
      <path id="DejaVuSans-76" d="M 191 3500 
L 800 3500 
L 1894 563 
L 2988 3500 
L 3597 3500 
L 2284 0 
L 1503 0 
L 191 3500 
z
" transform="scale(0.015625)"/>
      <path id="DejaVuSans-65" d="M 3597 1894 
L 3597 1613 
L 953 1613 
Q 991 1019 1311 708 
Q 1631 397 2203 397 
Q 2534 397 2845 478 
Q 3156 559 3463 722 
L 3463 178 
Q 3153 47 2828 -22 
Q 2503 -91 2169 -91 
Q 1331 -91 842 396 
Q 353 884 353 1716 
Q 353 2575 817 3079 
Q 1281 3584 2069 3584 
Q 2775 3584 3186 3129 
Q 3597 2675 3597 1894 
z
M 3022 2063 
Q 3016 2534 2758 2815 
Q 2500 3097 2075 3097 
Q 1594 3097 1305 2825 
Q 1016 2553 972 2059 
L 3022 2063 
z
" transform="scale(0.015625)"/>
      <path id="DejaVuSans-77" d="M 269 3500 
L 844 3500 
L 1563 769 
L 2278 3500 
L 2956 3500 
L 3675 769 
L 4391 3500 
L 4966 3500 
L 4050 0 
L 3372 0 
L 2619 2869 
L 1863 0 
L 1184 0 
L 269 3500 
z
" transform="scale(0.015625)"/>
      <path id="DejaVuSans-68" d="M 3513 2113 
L 3513 0 
L 2938 0 
L 2938 2094 
Q 2938 2591 2744 2837 
Q 2550 3084 2163 3084 
Q 1697 3084 1428 2787 
Q 1159 2491 1159 1978 
L 1159 0 
L 581 0 
L 581 4863 
L 1159 4863 
L 1159 2956 
Q 1366 3272 1645 3428 
Q 1925 3584 2291 3584 
Q 2894 3584 3203 3211 
Q 3513 2838 3513 2113 
z
" transform="scale(0.015625)"/>
      <path id="DejaVuSans-54" d="M -19 4666 
L 3928 4666 
L 3928 4134 
L 2272 4134 
L 2272 0 
L 1638 0 
L 1638 4134 
L -19 4134 
L -19 4666 
z
" transform="scale(0.015625)"/>
      <path id="DejaVuSans-61" d="M 2194 1759 
Q 1497 1759 1228 1600 
Q 959 1441 959 1056 
Q 959 750 1161 570 
Q 1363 391 1709 391 
Q 2188 391 2477 730 
Q 2766 1069 2766 1631 
L 2766 1759 
L 2194 1759 
z
M 3341 1997 
L 3341 0 
L 2766 0 
L 2766 531 
Q 2569 213 2275 61 
Q 1981 -91 1556 -91 
Q 1019 -91 701 211 
Q 384 513 384 1019 
Q 384 1609 779 1909 
Q 1175 2209 1959 2209 
L 2766 2209 
L 2766 2266 
Q 2766 2663 2505 2880 
Q 2244 3097 1772 3097 
Q 1472 3097 1187 3025 
Q 903 2953 641 2809 
L 641 3341 
Q 956 3463 1253 3523 
Q 1550 3584 1831 3584 
Q 2591 3584 2966 3190 
Q 3341 2797 3341 1997 
z
" transform="scale(0.015625)"/>
      <path id="DejaVuSans-2c" d="M 750 794 
L 1409 794 
L 1409 256 
L 897 -744 
L 494 -744 
L 750 256 
L 750 794 
z
" transform="scale(0.015625)"/>
      <path id="DejaVuSans-2d" d="M 313 2009 
L 1997 2009 
L 1997 1497 
L 313 1497 
L 313 2009 
z
" transform="scale(0.015625)"/>
     </defs>
     <use xlink:href="#DejaVuSans-63"/>
     <use xlink:href="#DejaVuSans-72" transform="translate(54.980469 0)"/>
     <use xlink:href="#DejaVuSans-6f" transform="translate(93.84375 0)"/>
     <use xlink:href="#DejaVuSans-73" transform="translate(155.025391 0)"/>
     <use xlink:href="#DejaVuSans-73" transform="translate(207.125 0)"/>
     <use xlink:href="#DejaVuSans-6f" transform="translate(259.224609 0)"/>
     <use xlink:href="#DejaVuSans-76" transform="translate(320.40625 0)"/>
     <use xlink:href="#DejaVuSans-65" transform="translate(379.585938 0)"/>
     <use xlink:href="#DejaVuSans-72" transform="translate(441.109375 0)"/>
     <use xlink:href="#DejaVuSans-20" transform="translate(482.222656 0)"/>
     <use xlink:href="#DejaVuSans-73" transform="translate(514.009766 0)"/>
     <use xlink:href="#DejaVuSans-77" transform="translate(566.109375 0)"/>
     <use xlink:href="#DejaVuSans-65" transform="translate(647.896484 0)"/>
     <use xlink:href="#DejaVuSans-65" transform="translate(709.419922 0)"/>
     <use xlink:href="#DejaVuSans-70" transform="translate(770.943359 0)"/>
     <use xlink:href="#DejaVuSans-20" transform="translate(834.419922 0)"/>
     <use xlink:href="#DejaVuSans-77" transform="translate(866.207031 0)"/>
     <use xlink:href="#DejaVuSans-69" transform="translate(947.994141 0)"/>
     <use xlink:href="#DejaVuSans-74" transform="translate(975.777344 0)"/>
     <use xlink:href="#DejaVuSans-68" transform="translate(1014.986328 0)"/>
     <use xlink:href="#DejaVuSans-20" transform="translate(1078.365234 0)"/>
     <use xlink:href="#DejaVuSans-54" transform="translate(1110.152344 0)"/>
     <use xlink:href="#DejaVuSans-32" transform="translate(1171.236328 0)"/>
     <use xlink:href="#DejaVuSans-32" transform="translate(1234.859375 0)"/>
     <use xlink:href="#DejaVuSans-20" transform="translate(1298.482422 0)"/>
     <use xlink:href="#DejaVuSans-76" transform="translate(1330.269531 0)"/>
     <use xlink:href="#DejaVuSans-61" transform="translate(1389.449219 0)"/>
     <use xlink:href="#DejaVuSans-72" transform="translate(1450.728516 0)"/>
     <use xlink:href="#DejaVuSans-69" transform="translate(1491.841797 0)"/>
     <use xlink:href="#DejaVuSans-61" transform="translate(1519.625 0)"/>
     <use xlink:href="#DejaVuSans-6e" transform="translate(1580.904297 0)"/>
     <use xlink:href="#DejaVuSans-74" transform="translate(1644.283203 0)"/>
     <use xlink:href="#DejaVuSans-73" transform="translate(1683.492188 0)"/>
     <use xlink:href="#DejaVuSans-20" transform="translate(1735.591797 0)"/>
     <use xlink:href="#DejaVuSans-28" transform="translate(1767.378906 0)"/>
     <use xlink:href="#DejaVuSans-73" transform="translate(1806.392578 0)"/>
     <use xlink:href="#DejaVuSans-74" transform="translate(1858.492188 0)"/>
     <use xlink:href="#DejaVuSans-65" transform="translate(1897.701172 0)"/>
     <use xlink:href="#DejaVuSans-70" transform="translate(1959.224609 0)"/>
     <use xlink:href="#DejaVuSans-20" transform="translate(2022.701172 0)"/>
     <use xlink:href="#DejaVuSans-32" transform="translate(2054.488281 0)"/>
     <use xlink:href="#DejaVuSans-2c" transform="translate(2118.111328 0)"/>
     <use xlink:href="#DejaVuSans-20" transform="translate(2149.898438 0)"/>
     <use xlink:href="#DejaVuSans-73" transform="translate(2181.685547 0)"/>
     <use xlink:href="#DejaVuSans-6f" transform="translate(2233.785156 0)"/>
     <use xlink:href="#DejaVuSans-6c" transform="translate(2294.966797 0)"/>
     <use xlink:href="#DejaVuSans-6f" transform="translate(2322.75 0)"/>
     <use xlink:href="#DejaVuSans-2d" transform="translate(2385.806641 0)"/>
     <use xlink:href="#DejaVuSans-70" transform="translate(2421.890625 0)"/>
     <use xlink:href="#DejaVuSans-65" transform="translate(2485.367188 0)"/>
     <use xlink:href="#DejaVuSans-72" transform="translate(2546.890625 0)"/>
     <use xlink:href="#DejaVuSans-2d" transform="translate(2581.628906 0)"/>
     <use xlink:href="#DejaVuSans-70" transform="translate(2617.712891 0)"/>
     <use xlink:href="#DejaVuSans-72" transform="translate(2681.189453 0)"/>
     <use xlink:href="#DejaVuSans-6f" transform="translate(2720.052734 0)"/>
     <use xlink:href="#DejaVuSans-63" transform="translate(2781.234375 0)"/>
     <use xlink:href="#DejaVuSans-65" transform="translate(2836.214844 0)"/>
     <use xlink:href="#DejaVuSans-73" transform="translate(2897.738281 0)"/>
     <use xlink:href="#DejaVuSans-73" transform="translate(2949.837891 0)"/>
     <use xlink:href="#DejaVuSans-29" transform="translate(3001.9375 0)"/>
    </g>
   </g>
   <g id="legend_1">
    <g id="patch_7">
     <path d="M 51.66 77.474375 
L 201.125625 77.474375 
Q 203.125625 77.474375 203.125625 75.474375 
L 203.125625 32.44 
Q 203.125625 30.44 201.125625 30.44 
L 51.66 30.44 
Q 49.66 30.44 49.66 32.44 
L 49.66 75.474375 
Q 49.66 77.474375 51.66 77.474375 
z
" style="fill: #ffffff; opacity: 0.8; stroke: #cccccc; stroke-linejoin: miter"/>
    </g>
    <g id="line2d_30">
     <path d="M 53.66 38.538437 
L 63.66 38.538437 
L 73.66 38.538437 
" style="fill: none; stroke: #d62728; stroke-linecap: square"/>
    </g>
    <g id="text_17">
     <!-- u52 dispatch, T22=128 -->
     <g transform="translate(81.66 42.038437) scale(0.1 -0.1)">
      <defs>
       <path id="DejaVuSans-64" d="M 2906 2969 
L 2906 4863 
L 3481 4863 
L 3481 0 
L 2906 0 
L 2906 525 
Q 2725 213 2448 61 
Q 2172 -91 1784 -91 
Q 1150 -91 751 415 
Q 353 922 353 1747 
Q 353 2572 751 3078 
Q 1150 3584 1784 3584 
Q 2172 3584 2448 3432 
Q 2725 3281 2906 2969 
z
M 947 1747 
Q 947 1113 1208 752 
Q 1469 391 1925 391 
Q 2381 391 2643 752 
Q 2906 1113 2906 1747 
Q 2906 2381 2643 2742 
Q 2381 3103 1925 3103 
Q 1469 3103 1208 2742 
Q 947 2381 947 1747 
z
" transform="scale(0.015625)"/>
       <path id="DejaVuSans-3d" d="M 678 2906 
L 4684 2906 
L 4684 2381 
L 678 2381 
L 678 2906 
z
M 678 1631 
L 4684 1631 
L 4684 1100 
L 678 1100 
L 678 1631 
z
" transform="scale(0.015625)"/>
      </defs>
      <use xlink:href="#DejaVuSans-75"/>
      <use xlink:href="#DejaVuSans-35" transform="translate(63.378906 0)"/>
      <use xlink:href="#DejaVuSans-32" transform="translate(127.001953 0)"/>
      <use xlink:href="#DejaVuSans-20" transform="translate(190.625 0)"/>
      <use xlink:href="#DejaVuSans-64" transform="translate(222.412109 0)"/>
      <use xlink:href="#DejaVuSans-69" transform="translate(285.888672 0)"/>
      <use xlink:href="#DejaVuSans-73" transform="translate(313.671875 0)"/>
      <use xlink:href="#DejaVuSans-70" transform="translate(365.771484 0)"/>
      <use xlink:href="#DejaVuSans-61" transform="translate(429.248047 0)"/>
      <use xlink:href="#DejaVuSans-74" transform="translate(490.527344 0)"/>
      <use xlink:href="#DejaVuSans-63" transform="translate(529.736328 0)"/>
      <use xlink:href="#DejaVuSans-68" transform="translate(584.716797 0)"/>
      <use xlink:href="#DejaVuSans-2c" transform="translate(648.095703 0)"/>
      <use xlink:href="#DejaVuSans-20" transform="translate(679.882812 0)"/>
      <use xlink:href="#DejaVuSans-54" transform="translate(711.669922 0)"/>
      <use xlink:href="#DejaVuSans-32" transform="translate(772.753906 0)"/>
      <use xlink:href="#DejaVuSans-32" transform="translate(836.376953 0)"/>
      <use xlink:href="#DejaVuSans-3d" transform="translate(900 0)"/>
      <use xlink:href="#DejaVuSans-31" transform="translate(983.789062 0)"/>
      <use xlink:href="#DejaVuSans-32" transform="translate(1047.412109 0)"/>
      <use xlink:href="#DejaVuSans-38" transform="translate(1111.035156 0)"/>
     </g>
    </g>
    <g id="line2d_31">
     <path d="M 53.66 53.216563 
L 63.66 53.216563 
L 73.66 53.216563 
" style="fill: none; stroke: #9467bd; stroke-linecap: square"/>
    </g>
    <g id="text_18">
     <!-- u52 dispatch, T22=90 -->
     <g transform="translate(81.66 56.716563) scale(0.1 -0.1)">
      <defs>
       <path id="DejaVuSans-39" d="M 703 97 
L 703 672 
Q 941 559 1184 500 
Q 1428 441 1663 441 
Q 2288 441 2617 861 
Q 2947 1281 2994 2138 
Q 2813 1869 2534 1725 
Q 2256 1581 1919 1581 
Q 1219 1581 811 2004 
Q 403 2428 403 3163 
Q 403 3881 828 4315 
Q 1253 4750 1959 4750 
Q 2769 4750 3195 4129 
Q 3622 3509 3622 2328 
Q 3622 1225 3098 567 
Q 2575 -91 1691 -91 
Q 1453 -91 1209 -44 
Q 966 3 703 97 
z
M 1959 2075 
Q 2384 2075 2632 2365 
Q 2881 2656 2881 3163 
Q 2881 3666 2632 3958 
Q 2384 4250 1959 4250 
Q 1534 4250 1286 3958 
Q 1038 3666 1038 3163 
Q 1038 2656 1286 2365 
Q 1534 2075 1959 2075 
z
" transform="scale(0.015625)"/>
      </defs>
      <use xlink:href="#DejaVuSans-75"/>
      <use xlink:href="#DejaVuSans-35" transform="translate(63.378906 0)"/>
      <use xlink:href="#DejaVuSans-32" transform="translate(127.001953 0)"/>
      <use xlink:href="#DejaVuSans-20" transform="translate(190.625 0)"/>
      <use xlink:href="#DejaVuSans-64" transform="translate(222.412109 0)"/>
      <use xlink:href="#DejaVuSans-69" transform="translate(285.888672 0)"/>
      <use xlink:href="#DejaVuSans-73" transform="translate(313.671875 0)"/>
      <use xlink:href="#DejaVuSans-70" transform="translate(365.771484 0)"/>
      <use xlink:href="#DejaVuSans-61" transform="translate(429.248047 0)"/>
      <use xlink:href="#DejaVuSans-74" transform="translate(490.527344 0)"/>
      <use xlink:href="#DejaVuSans-63" transform="translate(529.736328 0)"/>
      <use xlink:href="#DejaVuSans-68" transform="translate(584.716797 0)"/>
      <use xlink:href="#DejaVuSans-2c" transform="translate(648.095703 0)"/>
      <use xlink:href="#DejaVuSans-20" transform="translate(679.882812 0)"/>
      <use xlink:href="#DejaVuSans-54" transform="translate(711.669922 0)"/>
      <use xlink:href="#DejaVuSans-32" transform="translate(772.753906 0)"/>
      <use xlink:href="#DejaVuSans-32" transform="translate(836.376953 0)"/>
      <use xlink:href="#DejaVuSans-3d" transform="translate(900 0)"/>
      <use xlink:href="#DejaVuSans-39" transform="translate(983.789062 0)"/>
      <use xlink:href="#DejaVuSans-30" transform="translate(1047.412109 0)"/>
     </g>
    </g>
    <g id="line2d_32">
     <path d="M 53.66 67.894687 
L 63.66 67.894687 
L 73.66 67.894687 
" style="fill: none; stroke: #1f77b4; stroke-linecap: square"/>
    </g>
    <g id="text_19">
     <!-- fft16 -->
     <g transform="translate(81.66 71.394687) scale(0.1 -0.1)">
      <defs>
       <path id="DejaVuSans-66" d="M 2375 4863 
L 2375 4384 
L 1825 4384 
Q 1516 4384 1395 4259 
Q 1275 4134 1275 3809 
L 1275 3500 
L 2222 3500 
L 2222 3053 
L 1275 3053 
L 1275 0 
L 697 0 
L 697 3053 
L 147 3053 
L 147 3500 
L 697 3500 
L 697 3744 
Q 697 4328 969 4595 
Q 1241 4863 1831 4863 
L 2375 4863 
z
" transform="scale(0.015625)"/>
      </defs>
      <use xlink:href="#DejaVuSans-66"/>
      <use xlink:href="#DejaVuSans-66" transform="translate(35.205078 0)"/>
      <use xlink:href="#DejaVuSans-74" transform="translate(68.660156 0)"/>
      <use xlink:href="#DejaVuSans-31" transform="translate(107.869141 0)"/>
      <use xlink:href="#DejaVuSans-36" transform="translate(171.492188 0)"/>
     </g>
    </g>
   </g>
  </g>
 </g>
 <defs>
  <clipPath id="pc4397d4d3b">
   <rect x="44.66" y="25.44" width="880.54" height="436.6"/>
  </clipPath>
 </defs>
</svg>
