<?xml version="1.0" encoding="utf-8" standalone="no"?>
<!DOCTYPE svg PUBLIC "-//W3C//DTD SVG 1.1//EN"
  "http://www.w3.org/Graphics/SVG/1.1/DTD/svg11.dtd">
<svg xmlns:xlink="http://www.w3.org/1999/xlink" width="936pt" height="504pt" viewBox="0 0 936 504" xmlns="http://www.w3.org/2000/svg" version="1.1">
 <metadata>
  <rdf:RDF xmlns:dc="http://purl.org/dc/elements/1.1/" xmlns:cc="http://creativecommons.org/ns#" xmlns:rdf="http://www.w3.org/1999/02/22-rdf-syntax-ns#">
   <cc:Work>
    <dc:type rdf:resource="http://purl.org/dc/dcmitype/StillImage"/>
    <dc:date>2026-06-11T19:42:07.766721</dc:date>
    <dc:format>image/svg+xml</dc:format>
    <dc:creator>
     <cc:Agent>
      <dc:title>Matplotlib v3.10.7+dfsg1, https://matplotlib.org/</dc:title>
     </cc:Agent>
    </dc:creator>
   </cc:Work>
  </rdf:RDF>
 </metadata>
 <defs>
  <style type="text/css">*{stroke-linejoin: round; stroke-linecap: butt}</style>
 </defs>
 <g id="figure_1">
  <g id="patch_1">
   <path d="M 0 504 
L 936 504 
L 936 0 
L 0 0 
z
" style="fill: #ffffff"/>
  </g>
  <g id="axes_1">
   <g id="patch_2">
    <path d="M 44.66 462.04 
L 925.2 462.04 
L 925.2 25.44 
L 44.66 25.44 
z
" style="fill: #ffffff"/>
   </g>
   <g id="matplotlib.axis_1">
    <g id="xtick_1">
     <g id="line2d_1">
      <path d="M 130.546004 462.04 
L 130.546004 25.44 
" clip-path="url(#pf740086dd0)" style="fill: none; stroke: #b0b0b0; stroke-opacity: 0.3; stroke-width: 0.8; stroke-linecap: square"/>
     </g>
     <g id="line2d_2">
      <defs>
       <path id="m7b9bad98ed" d="M 0 0 
L 0 3.5 
" style="stroke: #000000; stroke-width: 0.8"/>
      </defs>
      <g>
       <use xlink:href="#m7b9bad98ed" x="130.546004" y="462.04" style="stroke: #000000; stroke-width: 0.8"/>
      </g>
     </g>
     <g id="text_1">
      <!-- 150 -->
      <g transform="translate(121.002254 476.638438) scale(0.1 -0.1)">
       <defs>
        <path id="DejaVuSans-31" d="M 794 531 
L 1825 531 
L 1825 4091 
L 703 3866 
L 703 4441 
L 1819 4666 
L 2450 4666 
L 2450 531 
L 3481 531 
L 3481 0 
L 794 0 
L 794 531 
z
" transform="scale(0.015625)"/>
        <path id="DejaVuSans-35" d="M 691 4666 
L 3169 4666 
L 3169 4134 
L 1269 4134 
L 1269 2991 
Q 1406 3038 1543 3061 
Q 1681 3084 1819 3084 
Q 2600 3084 3056 2656 
Q 3513 2228 3513 1497 
Q 3513 744 3044 326 
Q 2575 -91 1722 -91 
Q 1428 -91 1123 -41 
Q 819 9 494 109 
L 494 744 
Q 775 591 1075 516 
Q 1375 441 1709 441 
Q 2250 441 2565 725 
Q 2881 1009 2881 1497 
Q 2881 1984 2565 2268 
Q 2250 2553 1709 2553 
Q 1456 2553 1204 2497 
Q 953 2441 691 2322 
L 691 4666 
z
" transform="scale(0.015625)"/>
        <path id="DejaVuSans-30" d="M 2034 4250 
Q 1547 4250 1301 3770 
Q 1056 3291 1056 2328 
Q 1056 1369 1301 889 
Q 1547 409 2034 409 
Q 2525 409 2770 889 
Q 3016 1369 3016 2328 
Q 3016 3291 2770 3770 
Q 2525 4250 2034 4250 
z
M 2034 4750 
Q 2819 4750 3233 4129 
Q 3647 3509 3647 2328 
Q 3647 1150 3233 529 
Q 2819 -91 2034 -91 
Q 1250 -91 836 529 
Q 422 1150 422 2328 
Q 422 3509 836 4129 
Q 1250 4750 2034 4750 
z
" transform="scale(0.015625)"/>
       </defs>
       <use xlink:href="#DejaVuSans-31"/>
       <use xlink:href="#DejaVuSans-35" transform="translate(63.623047 0)"/>
       <use xlink:href="#DejaVuSans-30" transform="translate(127.246094 0)"/>
      </g>
     </g>
    </g>
    <g id="xtick_2">
     <g id="line2d_3">
      <path d="M 234.776591 462.04 
L 234.776591 25.44 
" clip-path="url(#pf740086dd0)" style="fill: none; stroke: #b0b0b0; stroke-opacity: 0.3; stroke-width: 0.8; stroke-linecap: square"/>
     </g>
     <g id="line2d_4">
      <g>
       <use xlink:href="#m7b9bad98ed" x="234.776591" y="462.04" style="stroke: #000000; stroke-width: 0.8"/>
      </g>
     </g>
     <g id="text_2">
      <!-- 200 -->
      <g transform="translate(225.232841 476.638438) scale(0.1 -0.1)">
       <defs>
        <path id="DejaVuSans-32" d="M 1228 531 
L 3431 531 
L 3431 0 
L 469 0 
L 469 531 
Q 828 903 1448 1529 
Q 2069 2156 2228 2338 
Q 2531 2678 2651 2914 
Q 2772 3150 2772 3378 
Q 2772 3750 2511 3984 
Q 2250 4219 1831 4219 
Q 1534 4219 1204 4116 
Q 875 4013 500 3803 
L 500 4441 
Q 881 4594 1212 4672 
Q 1544 4750 1819 4750 
Q 2544 4750 2975 4387 
Q 3406 4025 3406 3419 
Q 3406 3131 3298 2873 
Q 3191 2616 2906 2266 
Q 2828 2175 2409 1742 
Q 1991 1309 1228 531 
z
" transform="scale(0.015625)"/>
       </defs>
       <use xlink:href="#DejaVuSans-32"/>
       <use xlink:href="#DejaVuSans-30" transform="translate(63.623047 0)"/>
       <use xlink:href="#DejaVuSans-30" transform="translate(127.246094 0)"/>
      </g>
     </g>
    </g>
    <g id="xtick_3">
     <g id="line2d_5">
      <path d="M 339.007178 462.04 
L 339.007178 25.44 
" clip-path="url(#pf740086dd0)" style="fill: none; stroke: #b0b0b0; stroke-opacity: 0.3; stroke-width: 0.8; stroke-linecap: square"/>
     </g>
     <g id="line2d_6">
      <g>
       <use xlink:href="#m7b9bad98ed" x="339.007178" y="462.04" style="stroke: #000000; stroke-width: 0.8"/>
      </g>
     </g>
     <g id="text_3">
      <!-- 250 -->
      <g transform="translate(329.463428 476.638438) scale(0.1 -0.1)">
       <use xlink:href="#DejaVuSans-32"/>
       <use xlink:href="#DejaVuSans-35" transform="translate(63.623047 0)"/>
       <use xlink:href="#DejaVuSans-30" transform="translate(127.246094 0)"/>
      </g>
     </g>
    </g>
    <g id="xtick_4">
     <g id="line2d_7">
      <path d="M 443.237765 462.04 
L 443.237765 25.44 
" clip-path="url(#pf740086dd0)" style="fill: none; stroke: #b0b0b0; stroke-opacity: 0.3; stroke-width: 0.8; stroke-linecap: square"/>
     </g>
     <g id="line2d_8">
      <g>
       <use xlink:href="#m7b9bad98ed" x="443.237765" y="462.04" style="stroke: #000000; stroke-width: 0.8"/>
      </g>
     </g>
     <g id="text_4">
      <!-- 300 -->
      <g transform="translate(433.694015 476.638438) scale(0.1 -0.1)">
       <defs>
        <path id="DejaVuSans-33" d="M 2597 2516 
Q 3050 2419 3304 2112 
Q 3559 1806 3559 1356 
Q 3559 666 3084 287 
Q 2609 -91 1734 -91 
Q 1441 -91 1130 -33 
Q 819 25 488 141 
L 488 750 
Q 750 597 1062 519 
Q 1375 441 1716 441 
Q 2309 441 2620 675 
Q 2931 909 2931 1356 
Q 2931 1769 2642 2001 
Q 2353 2234 1838 2234 
L 1294 2234 
L 1294 2753 
L 1863 2753 
Q 2328 2753 2575 2939 
Q 2822 3125 2822 3475 
Q 2822 3834 2567 4026 
Q 2313 4219 1838 4219 
Q 1578 4219 1281 4162 
Q 984 4106 628 3988 
L 628 4550 
Q 988 4650 1302 4700 
Q 1616 4750 1894 4750 
Q 2613 4750 3031 4423 
Q 3450 4097 3450 3541 
Q 3450 3153 3228 2886 
Q 3006 2619 2597 2516 
z
" transform="scale(0.015625)"/>
       </defs>
       <use xlink:href="#DejaVuSans-33"/>
       <use xlink:href="#DejaVuSans-30" transform="translate(63.623047 0)"/>
       <use xlink:href="#DejaVuSans-30" transform="translate(127.246094 0)"/>
      </g>
     </g>
    </g>
    <g id="xtick_5">
     <g id="line2d_9">
      <path d="M 547.468352 462.04 
L 547.468352 25.44 
" clip-path="url(#pf740086dd0)" style="fill: none; stroke: #b0b0b0; stroke-opacity: 0.3; stroke-width: 0.8; stroke-linecap: square"/>
     </g>
     <g id="line2d_10">
      <g>
       <use xlink:href="#m7b9bad98ed" x="547.468352" y="462.04" style="stroke: #000000; stroke-width: 0.8"/>
      </g>
     </g>
     <g id="text_5">
      <!-- 350 -->
      <g transform="translate(537.924602 476.638438) scale(0.1 -0.1)">
       <use xlink:href="#DejaVuSans-33"/>
       <use xlink:href="#DejaVuSans-35" transform="translate(63.623047 0)"/>
       <use xlink:href="#DejaVuSans-30" transform="translate(127.246094 0)"/>
      </g>
     </g>
    </g>
    <g id="xtick_6">
     <g id="line2d_11">
      <path d="M 651.698939 462.04 
L 651.698939 25.44 
" clip-path="url(#pf740086dd0)" style="fill: none; stroke: #b0b0b0; stroke-opacity: 0.3; stroke-width: 0.8; stroke-linecap: square"/>
     </g>
     <g id="line2d_12">
      <g>
       <use xlink:href="#m7b9bad98ed" x="651.698939" y="462.04" style="stroke: #000000; stroke-width: 0.8"/>
      </g>
     </g>
     <g id="text_6">
      <!-- 400 -->
      <g transform="translate(642.155189 476.638438) scale(0.1 -0.1)">
       <defs>
        <path id="DejaVuSans-34" d="M 2419 4116 
L 825 1625 
L 2419 1625 
L 2419 4116 
z
M 2253 4666 
L 3047 4666 
L 3047 1625 
L 3713 1625 
L 3713 1100 
L 3047 1100 
L 3047 0 
L 2419 0 
L 2419 1100 
L 313 1100 
L 313 1709 
L 2253 4666 
z
" transform="scale(0.015625)"/>
       </defs>
       <use xlink:href="#DejaVuSans-34"/>
       <use xlink:href="#DejaVuSans-30" transform="translate(63.623047 0)"/>
       <use xlink:href="#DejaVuSans-30" transform="translate(127.246094 0)"/>
      </g>
     </g>
    </g>
    <g id="xtick_7">
     <g id="line2d_13">
      <path d="M 755.929527 462.04 
L 755.929527 25.44 
" clip-path="url(#pf740086dd0)" style="fill: none; stroke: #b0b0b0; stroke-opacity: 0.3; stroke-width: 0.8; stroke-linecap: square"/>
     </g>
     <g id="line2d_14">
      <g>
       <use xlink:href="#m7b9bad98ed" x="755.929527" y="462.04" style="stroke: #000000; stroke-width: 0.8"/>
      </g>
     </g>
     <g id="text_7">
      <!-- 450 -->
      <g transform="translate(746.385777 476.638438) scale(0.1 -0.1)">
       <use xlink:href="#DejaVuSans-34"/>
       <use xlink:href="#DejaVuSans-35" transform="translate(63.623047 0)"/>
       <use xlink:href="#DejaVuSans-30" transform="translate(127.246094 0)"/>
      </g>
     </g>
    </g>
    <g id="xtick_8">
     <g id="line2d_15">
      <path d="M 860.160114 462.04 
L 860.160114 25.44 
" clip-path="url(#pf740086dd0)" style="fill: none; stroke: #b0b0b0; stroke-opacity: 0.3; stroke-width: 0.8; stroke-linecap: square"/>
     </g>
     <g id="line2d_16">
      <g>
       <use xlink:href="#m7b9bad98ed" x="860.160114" y="462.04" style="stroke: #000000; stroke-width: 0.8"/>
      </g>
     </g>
     <g id="text_8">
      <!-- 500 -->
      <g transform="translate(850.616364 476.638438) scale(0.1 -0.1)">
       <use xlink:href="#DejaVuSans-35"/>
       <use xlink:href="#DejaVuSans-30" transform="translate(63.623047 0)"/>
       <use xlink:href="#DejaVuSans-30" transform="translate(127.246094 0)"/>
      </g>
     </g>
    </g>
    <g id="text_9">
     <!-- n (u64 limbs, an = bn = n) -->
     <g transform="translate(418.064375 490.316563) scale(0.1 -0.1)">
      <defs>
       <path id="DejaVuSans-6e" d="M 3513 2113 
L 3513 0 
L 2938 0 
L 2938 2094 
Q 2938 2591 2744 2837 
Q 2550 3084 2163 3084 
Q 1697 3084 1428 2787 
Q 1159 2491 1159 1978 
L 1159 0 
L 581 0 
L 581 3500 
L 1159 3500 
L 1159 2956 
Q 1366 3272 1645 3428 
Q 1925 3584 2291 3584 
Q 2894 3584 3203 3211 
Q 3513 2838 3513 2113 
z
" transform="scale(0.015625)"/>
       <path id="DejaVuSans-20" transform="scale(0.015625)"/>
       <path id="DejaVuSans-28" d="M 1984 4856 
Q 1566 4138 1362 3434 
Q 1159 2731 1159 2009 
Q 1159 1288 1364 580 
Q 1569 -128 1984 -844 
L 1484 -844 
Q 1016 -109 783 600 
Q 550 1309 550 2009 
Q 550 2706 781 3412 
Q 1013 4119 1484 4856 
L 1984 4856 
z
" transform="scale(0.015625)"/>
       <path id="DejaVuSans-75" d="M 544 1381 
L 544 3500 
L 1119 3500 
L 1119 1403 
Q 1119 906 1312 657 
Q 1506 409 1894 409 
Q 2359 409 2629 706 
Q 2900 1003 2900 1516 
L 2900 3500 
L 3475 3500 
L 3475 0 
L 2900 0 
L 2900 538 
Q 2691 219 2414 64 
Q 2138 -91 1772 -91 
Q 1169 -91 856 284 
Q 544 659 544 1381 
z
M 1991 3584 
L 1991 3584 
z
" transform="scale(0.015625)"/>
       <path id="DejaVuSans-36" d="M 2113 2584 
Q 1688 2584 1439 2293 
Q 1191 2003 1191 1497 
Q 1191 994 1439 701 
Q 1688 409 2113 409 
Q 2538 409 2786 701 
Q 3034 994 3034 1497 
Q 3034 2003 2786 2293 
Q 2538 2584 2113 2584 
z
M 3366 4563 
L 3366 3988 
Q 3128 4100 2886 4159 
Q 2644 4219 2406 4219 
Q 1781 4219 1451 3797 
Q 1122 3375 1075 2522 
Q 1259 2794 1537 2939 
Q 1816 3084 2150 3084 
Q 2853 3084 3261 2657 
Q 3669 2231 3669 1497 
Q 3669 778 3244 343 
Q 2819 -91 2113 -91 
Q 1303 -91 875 529 
Q 447 1150 447 2328 
Q 447 3434 972 4092 
Q 1497 4750 2381 4750 
Q 2619 4750 2861 4703 
Q 3103 4656 3366 4563 
z
" transform="scale(0.015625)"/>
       <path id="DejaVuSans-6c" d="M 603 4863 
L 1178 4863 
L 1178 0 
L 603 0 
L 603 4863 
z
" transform="scale(0.015625)"/>
       <path id="DejaVuSans-69" d="M 603 3500 
L 1178 3500 
L 1178 0 
L 603 0 
L 603 3500 
z
M 603 4863 
L 1178 4863 
L 1178 4134 
L 603 4134 
L 603 4863 
z
" transform="scale(0.015625)"/>
       <path id="DejaVuSans-6d" d="M 3328 2828 
Q 3544 3216 3844 3400 
Q 4144 3584 4550 3584 
Q 5097 3584 5394 3201 
Q 5691 2819 5691 2113 
L 5691 0 
L 5113 0 
L 5113 2094 
Q 5113 2597 4934 2840 
Q 4756 3084 4391 3084 
Q 3944 3084 3684 2787 
Q 3425 2491 3425 1978 
L 3425 0 
L 2847 0 
L 2847 2094 
Q 2847 2600 2669 2842 
Q 2491 3084 2119 3084 
Q 1678 3084 1418 2786 
Q 1159 2488 1159 1978 
L 1159 0 
L 581 0 
L 581 3500 
L 1159 3500 
L 1159 2956 
Q 1356 3278 1631 3431 
Q 1906 3584 2284 3584 
Q 2666 3584 2933 3390 
Q 3200 3197 3328 2828 
z
" transform="scale(0.015625)"/>
       <path id="DejaVuSans-62" d="M 3116 1747 
Q 3116 2381 2855 2742 
Q 2594 3103 2138 3103 
Q 1681 3103 1420 2742 
Q 1159 2381 1159 1747 
Q 1159 1113 1420 752 
Q 1681 391 2138 391 
Q 2594 391 2855 752 
Q 3116 1113 3116 1747 
z
M 1159 2969 
Q 1341 3281 1617 3432 
Q 1894 3584 2278 3584 
Q 2916 3584 3314 3078 
Q 3713 2572 3713 1747 
Q 3713 922 3314 415 
Q 2916 -91 2278 -91 
Q 1894 -91 1617 61 
Q 1341 213 1159 525 
L 1159 0 
L 581 0 
L 581 4863 
L 1159 4863 
L 1159 2969 
z
" transform="scale(0.015625)"/>
       <path id="DejaVuSans-73" d="M 2834 3397 
L 2834 2853 
Q 2591 2978 2328 3040 
Q 2066 3103 1784 3103 
Q 1356 3103 1142 2972 
Q 928 2841 928 2578 
Q 928 2378 1081 2264 
Q 1234 2150 1697 2047 
L 1894 2003 
Q 2506 1872 2764 1633 
Q 3022 1394 3022 966 
Q 3022 478 2636 193 
Q 2250 -91 1575 -91 
Q 1294 -91 989 -36 
Q 684 19 347 128 
L 347 722 
Q 666 556 975 473 
Q 1284 391 1588 391 
Q 1994 391 2212 530 
Q 2431 669 2431 922 
Q 2431 1156 2273 1281 
Q 2116 1406 1581 1522 
L 1381 1569 
Q 847 1681 609 1914 
Q 372 2147 372 2553 
Q 372 3047 722 3315 
Q 1072 3584 1716 3584 
Q 2034 3584 2315 3537 
Q 2597 3491 2834 3397 
z
" transform="scale(0.015625)"/>
       <path id="DejaVuSans-2c" d="M 750 794 
L 1409 794 
L 1409 256 
L 897 -744 
L 494 -744 
L 750 256 
L 750 794 
z
" transform="scale(0.015625)"/>
       <path id="DejaVuSans-61" d="M 2194 1759 
Q 1497 1759 1228 1600 
Q 959 1441 959 1056 
Q 959 750 1161 570 
Q 1363 391 1709 391 
Q 2188 391 2477 730 
Q 2766 1069 2766 1631 
L 2766 1759 
L 2194 1759 
z
M 3341 1997 
L 3341 0 
L 2766 0 
L 2766 531 
Q 2569 213 2275 61 
Q 1981 -91 1556 -91 
Q 1019 -91 701 211 
Q 384 513 384 1019 
Q 384 1609 779 1909 
Q 1175 2209 1959 2209 
L 2766 2209 
L 2766 2266 
Q 2766 2663 2505 2880 
Q 2244 3097 1772 3097 
Q 1472 3097 1187 3025 
Q 903 2953 641 2809 
L 641 3341 
Q 956 3463 1253 3523 
Q 1550 3584 1831 3584 
Q 2591 3584 2966 3190 
Q 3341 2797 3341 1997 
z
" transform="scale(0.015625)"/>
       <path id="DejaVuSans-3d" d="M 678 2906 
L 4684 2906 
L 4684 2381 
L 678 2381 
L 678 2906 
z
M 678 1631 
L 4684 1631 
L 4684 1100 
L 678 1100 
L 678 1631 
z
" transform="scale(0.015625)"/>
       <path id="DejaVuSans-29" d="M 513 4856 
L 1013 4856 
Q 1481 4119 1714 3412 
Q 1947 2706 1947 2009 
Q 1947 1309 1714 600 
Q 1481 -109 1013 -844 
L 513 -844 
Q 928 -128 1133 580 
Q 1338 1288 1338 2009 
Q 1338 2731 1133 3434 
Q 928 4138 513 4856 
z
" transform="scale(0.015625)"/>
      </defs>
      <use xlink:href="#DejaVuSans-6e"/>
      <use xlink:href="#DejaVuSans-20" transform="translate(63.378906 0)"/>
      <use xlink:href="#DejaVuSans-28" transform="translate(95.166016 0)"/>
      <use xlink:href="#DejaVuSans-75" transform="translate(134.179688 0)"/>
      <use xlink:href="#DejaVuSans-36" transform="translate(197.558594 0)"/>
      <use xlink:href="#DejaVuSans-34" transform="translate(261.181641 0)"/>
      <use xlink:href="#DejaVuSans-20" transform="translate(324.804688 0)"/>
      <use xlink:href="#DejaVuSans-6c" transform="translate(356.591797 0)"/>
      <use xlink:href="#DejaVuSans-69" transform="translate(384.375 0)"/>
      <use xlink:href="#DejaVuSans-6d" transform="translate(412.158203 0)"/>
      <use xlink:href="#DejaVuSans-62" transform="translate(509.570312 0)"/>
      <use xlink:href="#DejaVuSans-73" transform="translate(573.046875 0)"/>
      <use xlink:href="#DejaVuSans-2c" transform="translate(625.146484 0)"/>
      <use xlink:href="#DejaVuSans-20" transform="translate(656.933594 0)"/>
      <use xlink:href="#DejaVuSans-61" transform="translate(688.720703 0)"/>
      <use xlink:href="#DejaVuSans-6e" transform="translate(750 0)"/>
      <use xlink:href="#DejaVuSans-20" transform="translate(813.378906 0)"/>
      <use xlink:href="#DejaVuSans-3d" transform="translate(845.166016 0)"/>
      <use xlink:href="#DejaVuSans-20" transform="translate(928.955078 0)"/>
      <use xlink:href="#DejaVuSans-62" transform="translate(960.742188 0)"/>
      <use xlink:href="#DejaVuSans-6e" transform="translate(1024.21875 0)"/>
      <use xlink:href="#DejaVuSans-20" transform="translate(1087.597656 0)"/>
      <use xlink:href="#DejaVuSans-3d" transform="translate(1119.384766 0)"/>
      <use xlink:href="#DejaVuSans-20" transform="translate(1203.173828 0)"/>
      <use xlink:href="#DejaVuSans-6e" transform="translate(1234.960938 0)"/>
      <use xlink:href="#DejaVuSans-29" transform="translate(1298.339844 0)"/>
     </g>
    </g>
   </g>
   <g id="matplotlib.axis_2">
    <g id="ytick_1">
     <g id="line2d_17">
      <path d="M 44.66 419.815765 
L 925.2 419.815765 
" clip-path="url(#pf740086dd0)" style="fill: none; stroke: #b0b0b0; stroke-opacity: 0.3; stroke-width: 0.8; stroke-linecap: square"/>
     </g>
     <g id="line2d_18">
      <defs>
       <path id="mb99b61430d" d="M 0 0 
L -3.5 0 
" style="stroke: #000000; stroke-width: 0.8"/>
      </defs>
      <g>
       <use xlink:href="#mb99b61430d" x="44.66" y="419.815765" style="stroke: #000000; stroke-width: 0.8"/>
      </g>
     </g>
     <g id="text_10">
      <!-- 6 -->
      <g transform="translate(31.2975 423.614984) scale(0.1 -0.1)">
       <use xlink:href="#DejaVuSans-36"/>
      </g>
     </g>
    </g>
    <g id="ytick_2">
     <g id="line2d_19">
      <path d="M 44.66 324.586914 
L 925.2 324.586914 
" clip-path="url(#pf740086dd0)" style="fill: none; stroke: #b0b0b0; stroke-opacity: 0.3; stroke-width: 0.8; stroke-linecap: square"/>
     </g>
     <g id="line2d_20">
      <g>
       <use xlink:href="#mb99b61430d" x="44.66" y="324.586914" style="stroke: #000000; stroke-width: 0.8"/>
      </g>
     </g>
     <g id="text_11">
      <!-- 8 -->
      <g transform="translate(31.2975 328.386133) scale(0.1 -0.1)">
       <defs>
        <path id="DejaVuSans-38" d="M 2034 2216 
Q 1584 2216 1326 1975 
Q 1069 1734 1069 1313 
Q 1069 891 1326 650 
Q 1584 409 2034 409 
Q 2484 409 2743 651 
Q 3003 894 3003 1313 
Q 3003 1734 2745 1975 
Q 2488 2216 2034 2216 
z
M 1403 2484 
Q 997 2584 770 2862 
Q 544 3141 544 3541 
Q 544 4100 942 4425 
Q 1341 4750 2034 4750 
Q 2731 4750 3128 4425 
Q 3525 4100 3525 3541 
Q 3525 3141 3298 2862 
Q 3072 2584 2669 2484 
Q 3125 2378 3379 2068 
Q 3634 1759 3634 1313 
Q 3634 634 3220 271 
Q 2806 -91 2034 -91 
Q 1263 -91 848 271 
Q 434 634 434 1313 
Q 434 1759 690 2068 
Q 947 2378 1403 2484 
z
M 1172 3481 
Q 1172 3119 1398 2916 
Q 1625 2713 2034 2713 
Q 2441 2713 2670 2916 
Q 2900 3119 2900 3481 
Q 2900 3844 2670 4047 
Q 2441 4250 2034 4250 
Q 1625 4250 1398 4047 
Q 1172 3844 1172 3481 
z
" transform="scale(0.015625)"/>
       </defs>
       <use xlink:href="#DejaVuSans-38"/>
      </g>
     </g>
    </g>
    <g id="ytick_3">
     <g id="line2d_21">
      <path d="M 44.66 229.358063 
L 925.2 229.358063 
" clip-path="url(#pf740086dd0)" style="fill: none; stroke: #b0b0b0; stroke-opacity: 0.3; stroke-width: 0.8; stroke-linecap: square"/>
     </g>
     <g id="line2d_22">
      <g>
       <use xlink:href="#mb99b61430d" x="44.66" y="229.358063" style="stroke: #000000; stroke-width: 0.8"/>
      </g>
     </g>
     <g id="text_12">
      <!-- 10 -->
      <g transform="translate(24.935 233.157281) scale(0.1 -0.1)">
       <use xlink:href="#DejaVuSans-31"/>
       <use xlink:href="#DejaVuSans-30" transform="translate(63.623047 0)"/>
      </g>
     </g>
    </g>
    <g id="ytick_4">
     <g id="line2d_23">
      <path d="M 44.66 134.129211 
L 925.2 134.129211 
" clip-path="url(#pf740086dd0)" style="fill: none; stroke: #b0b0b0; stroke-opacity: 0.3; stroke-width: 0.8; stroke-linecap: square"/>
     </g>
     <g id="line2d_24">
      <g>
       <use xlink:href="#mb99b61430d" x="44.66" y="134.129211" style="stroke: #000000; stroke-width: 0.8"/>
      </g>
     </g>
     <g id="text_13">
      <!-- 12 -->
      <g transform="translate(24.935 137.92843) scale(0.1 -0.1)">
       <use xlink:href="#DejaVuSans-31"/>
       <use xlink:href="#DejaVuSans-32" transform="translate(63.623047 0)"/>
      </g>
     </g>
    </g>
    <g id="ytick_5">
     <g id="line2d_25">
      <path d="M 44.66 38.90036 
L 925.2 38.90036 
" clip-path="url(#pf740086dd0)" style="fill: none; stroke: #b0b0b0; stroke-opacity: 0.3; stroke-width: 0.8; stroke-linecap: square"/>
     </g>
     <g id="line2d_26">
      <g>
       <use xlink:href="#mb99b61430d" x="44.66" y="38.90036" style="stroke: #000000; stroke-width: 0.8"/>
      </g>
     </g>
     <g id="text_14">
      <!-- 14 -->
      <g transform="translate(24.935 42.699579) scale(0.1 -0.1)">
       <use xlink:href="#DejaVuSans-31"/>
       <use xlink:href="#DejaVuSans-34" transform="translate(63.623047 0)"/>
      </g>
     </g>
    </g>
    <g id="text_15">
     <!-- ns / input limb -->
     <g transform="translate(18.855312 279.648594) rotate(-90) scale(0.1 -0.1)">
      <defs>
       <path id="DejaVuSans-2f" d="M 1625 4666 
L 2156 4666 
L 531 -594 
L 0 -594 
L 1625 4666 
z
" transform="scale(0.015625)"/>
       <path id="DejaVuSans-70" d="M 1159 525 
L 1159 -1331 
L 581 -1331 
L 581 3500 
L 1159 3500 
L 1159 2969 
Q 1341 3281 1617 3432 
Q 1894 3584 2278 3584 
Q 2916 3584 3314 3078 
Q 3713 2572 3713 1747 
Q 3713 922 3314 415 
Q 2916 -91 2278 -91 
Q 1894 -91 1617 61 
Q 1341 213 1159 525 
z
M 3116 1747 
Q 3116 2381 2855 2742 
Q 2594 3103 2138 3103 
Q 1681 3103 1420 2742 
Q 1159 2381 1159 1747 
Q 1159 1113 1420 752 
Q 1681 391 2138 391 
Q 2594 391 2855 752 
Q 3116 1113 3116 1747 
z
" transform="scale(0.015625)"/>
       <path id="DejaVuSans-74" d="M 1172 4494 
L 1172 3500 
L 2356 3500 
L 2356 3053 
L 1172 3053 
L 1172 1153 
Q 1172 725 1289 603 
Q 1406 481 1766 481 
L 2356 481 
L 2356 0 
L 1766 0 
Q 1100 0 847 248 
Q 594 497 594 1153 
L 594 3053 
L 172 3053 
L 172 3500 
L 594 3500 
L 594 4494 
L 1172 4494 
z
" transform="scale(0.015625)"/>
      </defs>
      <use xlink:href="#DejaVuSans-6e"/>
      <use xlink:href="#DejaVuSans-73" transform="translate(63.378906 0)"/>
      <use xlink:href="#DejaVuSans-20" transform="translate(115.478516 0)"/>
      <use xlink:href="#DejaVuSans-2f" transform="translate(147.265625 0)"/>
      <use xlink:href="#DejaVuSans-20" transform="translate(180.957031 0)"/>
      <use xlink:href="#DejaVuSans-69" transform="translate(212.744141 0)"/>
      <use xlink:href="#DejaVuSans-6e" transform="translate(240.527344 0)"/>
      <use xlink:href="#DejaVuSans-70" transform="translate(303.90625 0)"/>
      <use xlink:href="#DejaVuSans-75" transform="translate(367.382812 0)"/>
      <use xlink:href="#DejaVuSans-74" transform="translate(430.761719 0)"/>
      <use xlink:href="#DejaVuSans-20" transform="translate(469.970703 0)"/>
      <use xlink:href="#DejaVuSans-6c" transform="translate(501.757812 0)"/>
      <use xlink:href="#DejaVuSans-69" transform="translate(529.541016 0)"/>
      <use xlink:href="#DejaVuSans-6d" transform="translate(557.324219 0)"/>
      <use xlink:href="#DejaVuSans-62" transform="translate(654.736328 0)"/>
     </g>
    </g>
   </g>
   <g id="line2d_27">
    <path d="M 84.684545 437.742597 
L 88.853769 442.194545 
L 93.022992 426.053255 
L 97.192216 398.770189 
L 101.361439 400.98426 
L 105.530663 397.422701 
L 109.699886 402.326987 
L 113.86911 404.145858 
L 118.038333 398.184532 
L 122.207557 398.746382 
L 126.37678 396.027598 
L 130.546004 391.57565 
L 134.715227 388.471189 
L 138.884451 389.280634 
L 143.053674 407.069384 
L 147.222898 388.637839 
L 151.392121 380.852881 
L 155.561345 380.971917 
L 159.730568 380.443397 
L 163.899792 376.924691 
L 168.069015 380.710038 
L 172.238239 373.163151 
L 176.407462 369.349236 
L 180.576686 365.33534 
L 184.745909 370.701485 
L 188.915133 364.340198 
L 193.084356 363.535514 
L 197.25358 377.262753 
L 201.422803 360.473907 
L 205.592027 354.855404 
L 209.76125 354.94111 
L 213.930473 357.259933 
L 218.099697 353.203184 
L 222.26892 353.250798 
L 226.438144 347.270426 
L 230.607367 347.022831 
L 238.945814 343.823142 
L 243.115038 342.79467 
L 247.284261 339.818769 
L 251.453485 353.531723 
L 255.622708 337.061894 
L 259.791932 331.810022 
L 263.961155 330.619662 
L 268.130379 326.877168 
L 272.299602 323.991734 
L 276.468826 324.67262 
L 280.638049 322.953739 
L 284.807273 322.972785 
L 288.976496 318.087545 
L 293.14572 317.125734 
L 297.314943 315.740154 
L 301.484167 313.478469 
L 305.65339 325.967732 
L 309.822614 305.631611 
L 313.991837 301.708183 
L 318.161061 302.946158 
L 322.330284 299.346507 
L 326.499508 297.022923 
L 330.668731 296.31823 
L 334.837955 292.171013 
L 339.007178 294.975503 
L 343.176402 287.733349 
L 347.345625 287.733349 
L 351.514848 285.119317 
L 355.684072 281.976765 
L 359.853295 298.637052 
L 364.022519 278.59614 
L 368.191742 248.22766 
L 372.360966 228.548617 
L 376.530189 222.501585 
L 380.699413 221.354078 
L 384.868636 223.511011 
L 389.03786 219.087631 
L 393.207083 222.02068 
L 397.376307 219.992305 
L 401.54553 215.473696 
L 405.714754 216.006978 
L 409.883977 215.326091 
L 414.053201 231.662601 
L 418.222424 221.192189 
L 422.391648 219.449501 
L 426.560871 218.12582 
L 430.730095 208.583889 
L 434.899318 211.835954 
L 439.068542 214.821379 
L 443.237765 207.569702 
L 447.406989 207.955378 
L 451.576212 206.160315 
L 455.745436 202.527334 
L 459.914659 205.198503 
L 464.083883 211.397901 
L 468.253106 235.576507 
L 472.42233 221.773085 
L 476.591553 206.122223 
L 480.760777 195.685141 
L 484.93 195.856553 
L 489.099223 192.880651 
L 493.268447 194.518587 
L 497.43767 187.190727 
L 501.606894 192.828275 
L 505.776117 189.438128 
L 509.945341 184.286247 
L 514.114564 184.433852 
L 518.283788 187.23358 
L 522.453011 201.279836 
L 526.622235 185.433755 
L 530.791458 180.010472 
L 534.960682 178.724882 
L 539.129905 175.429964 
L 543.299129 175.191892 
L 547.468352 178.591562 
L 551.637576 175.158562 
L 555.806799 174.810977 
L 559.976023 171.111336 
L 564.145246 171.12562 
L 568.31447 170.225707 
L 572.483693 172.135046 
L 576.652917 193.837701 
L 580.82214 183.300629 
L 584.991364 174.587189 
L 589.160587 164.68815 
L 593.329811 161.117068 
L 597.499034 158.264964 
L 601.668258 157.660261 
L 605.837481 149.227746 
L 610.006705 149.794357 
L 614.175928 145.847122 
L 618.345152 152.670269 
L 622.514375 149.884825 
L 626.683598 147.580287 
L 630.852822 161.298003 
L 635.022045 151.208506 
L 639.191269 149.422965 
L 643.360492 150.351446 
L 647.529716 150.441914 
L 651.698939 148.270696 
L 655.868163 148.027862 
L 660.037386 143.975875 
L 664.20661 143.437832 
L 668.375833 140.671433 
L 672.545057 133.862571 
L 676.71428 135.671919 
L 680.883504 141.733235 
L 685.052727 162.131255 
L 689.221951 142.471259 
L 693.391174 134.395852 
L 697.560398 130.710496 
L 701.729621 126.00619 
L 705.898845 122.444631 
L 710.068068 124.049237 
L 714.237292 121.130473 
L 718.406515 123.939724 
L 722.575739 122.844593 
L 726.744962 119.030677 
L 730.914186 117.402264 
L 735.083409 117.887931 
L 739.252633 127.148937 
L 743.421856 116.292848 
L 747.59108 112.297997 
L 751.760303 110.664822 
L 755.929527 108.41266 
L 760.09875 105.665308 
L 764.267973 106.684256 
L 768.437197 101.660935 
L 772.60642 103.936904 
L 776.775644 100.880058 
L 780.944867 102.013281 
L 785.114091 98.946912 
L 789.283314 103.636933 
L 793.452538 120.640045 
L 797.621761 103.060799 
L 801.790985 94.456872 
L 805.960208 86.171962 
L 810.129432 83.576976 
L 814.298655 81.71049 
L 818.467879 80.782009 
L 822.637102 79.358338 
L 826.806326 82.210442 
L 830.975549 81.020081 
L 835.144773 78.658405 
L 839.313996 71.359114 
L 843.48322 74.101705 
L 847.652443 83.810286 
L 851.821667 74.139796 
L 860.160114 71.859066 
L 864.329337 52.837102 
L 868.498561 56.936705 
L 872.667784 51.561036 
L 876.837008 45.285455 
L 881.006231 52.637122 
L 885.175455 46.632943 
L 885.175455 46.632943 
" clip-path="url(#pf740086dd0)" style="fill: none; stroke: #d62728; stroke-linecap: square"/>
   </g>
   <g id="line2d_28">
    <path d="M 84.684545 355.207751 
L 88.853769 225.667945 
L 93.022992 228.75336 
L 97.192216 234.119505 
L 101.361439 240.747433 
L 105.530663 247.04206 
L 109.699886 253.860446 
L 113.86911 260.050322 
L 118.038333 266.568736 
L 122.207557 272.825272 
L 126.37678 278.143803 
L 130.546004 280.691175 
L 134.715227 288.152356 
L 147.222898 304.40792 
L 151.392121 309.297922 
L 155.561345 244.428028 
L 159.730568 249.537056 
L 163.899792 254.841303 
L 168.069015 252.532004 
L 172.238239 258.783778 
L 176.407462 278.110473 
L 180.576686 285.433572 
L 184.745909 290.447371 
L 188.915133 294.913604 
L 193.084356 298.875124 
L 197.25358 302.498582 
L 201.422803 307.555234 
L 205.592027 312.054797 
L 209.76125 316.378187 
L 213.930473 319.473125 
L 218.099697 325.00116 
L 222.26892 240.614113 
L 226.438144 244.704192 
L 230.607367 249.075196 
L 234.776591 243.566207 
L 238.945814 252.708177 
L 243.115038 253.617613 
L 247.284261 268.616157 
L 251.453485 270.044589 
L 255.622708 273.558534 
L 259.791932 276.68204 
L 263.961155 280.605469 
L 268.130379 286.171595 
L 272.299602 291.356806 
L 276.468826 286.981041 
L 280.638049 288.495179 
L 284.807273 293.551831 
L 288.976496 285.571654 
L 293.14572 289.404615 
L 297.314943 293.532786 
L 301.484167 296.422981 
L 305.65339 300.370217 
L 309.822614 303.936538 
L 313.991837 307.136227 
L 318.161061 311.221545 
L 322.330284 313.992704 
L 330.668731 320.401606 
L 334.837955 323.258472 
L 339.007178 325.677284 
L 343.176402 328.443683 
L 351.514848 334.547852 
L 355.684072 189.714292 
L 359.853295 193.732949 
L 364.022519 196.927877 
L 368.191742 200.998911 
L 372.360966 205.636556 
L 376.530189 209.845671 
L 380.699413 213.569119 
L 397.376307 227.253505 
L 405.714754 233.73859 
L 409.883977 237.60012 
L 414.053201 240.290335 
L 418.222424 243.618583 
L 422.391648 247.30394 
L 426.560871 250.260796 
L 430.730095 253.403348 
L 434.899318 256.155461 
L 439.068542 258.69331 
L 447.406989 264.592738 
L 455.745436 269.677958 
L 464.083883 275.377405 
L 468.253106 277.07724 
L 472.42233 280.472149 
L 476.591553 283.586132 
L 480.760777 286.328723 
L 484.93 289.437945 
L 489.099223 192.261664 
L 493.268447 194.851888 
L 497.43767 197.946826 
L 501.606894 198.375356 
L 505.776117 201.803595 
L 509.945341 204.617607 
L 514.114564 207.798251 
L 518.283788 211.121738 
L 522.453011 214.702343 
L 526.622235 217.073541 
L 530.791458 221.892121 
L 539.129905 227.220175 
L 543.299129 230.210361 
L 547.468352 232.800586 
L 551.637576 234.909905 
L 555.806799 237.771532 
L 559.976023 240.923607 
L 568.31447 245.580298 
L 572.483693 248.165761 
L 580.82214 252.765314 
L 584.991364 255.569804 
L 593.329811 260.416953 
L 597.499034 262.502464 
L 601.668258 264.845094 
L 605.837481 267.368659 
L 614.175928 271.453976 
L 618.345152 274.367979 
L 622.514375 210.40276 
L 626.683598 212.821573 
L 630.852822 215.659392 
L 635.022045 218.135343 
L 639.191269 220.944594 
L 643.360492 222.634906 
L 647.529716 225.082287 
L 651.698939 227.091616 
L 655.868163 229.74374 
L 668.375833 236.271677 
L 672.545057 238.780958 
L 676.71428 241.671153 
L 680.883504 244.29947 
L 685.052727 246.584962 
L 689.221951 248.632382 
L 693.391174 250.884545 
L 697.560398 252.917681 
L 701.729621 254.055665 
L 705.898845 256.569707 
L 710.068068 258.564751 
L 726.744962 266.087831 
L 730.914186 268.278094 
L 735.083409 270.31123 
L 739.252633 272.034872 
L 743.421856 271.592058 
L 747.59108 274.234659 
L 751.760303 277.996199 
L 755.929527 258.417147 
L 760.09875 260.916904 
L 764.267973 261.593029 
L 768.437197 263.292864 
L 772.60642 266.530645 
L 776.775644 267.568639 
L 780.944867 269.435125 
L 785.114091 271.53016 
L 789.283314 273.058583 
L 793.452538 275.215516 
L 797.621761 276.115429 
L 801.790985 278.262839 
L 805.960208 279.810308 
L 810.129432 282.338634 
L 814.298655 283.790874 
L 822.637102 286.423952 
L 826.806326 288.533271 
L 830.975549 290.375949 
L 835.144773 292.713818 
L 839.313996 294.104159 
L 843.48322 295.632582 
L 847.652443 297.384793 
L 855.99089 300.141668 
L 860.160114 302.222418 
L 864.329337 303.927015 
L 868.498561 305.16499 
L 872.667784 307.593326 
L 876.837008 308.031378 
L 881.006231 309.150317 
L 885.175455 311.273921 
L 885.175455 311.273921 
" clip-path="url(#pf740086dd0)" style="fill: none; stroke: #1f77b4; stroke-linecap: square"/>
   </g>
   <g id="patch_3">
    <path d="M 44.66 462.04 
L 44.66 25.44 
" style="fill: none; stroke: #000000; stroke-width: 0.8; stroke-linejoin: miter; stroke-linecap: square"/>
   </g>
   <g id="patch_4">
    <path d="M 925.2 462.04 
L 925.2 25.44 
" style="fill: none; stroke: #000000; stroke-width: 0.8; stroke-linejoin: miter; stroke-linecap: square"/>
   </g>
   <g id="patch_5">
    <path d="M 44.66 462.04 
L 925.2 462.04 
" style="fill: none; stroke: #000000; stroke-width: 0.8; stroke-linejoin: miter; stroke-linecap: square"/>
   </g>
   <g id="patch_6">
    <path d="M 44.66 25.44 
L 925.2 25.44 
" style="fill: none; stroke: #000000; stroke-width: 0.8; stroke-linejoin: miter; stroke-linecap: square"/>
   </g>
   <g id="text_16">
    <!-- crossover sweep, balanced mul, step 2 (solo-per-process) -->
    <g transform="translate(312.075625 19.44) scale(0.12 -0.12)">
     <defs>
      <path id="DejaVuSans-63" d="M 3122 3366 
L 3122 2828 
Q 2878 2963 2633 3030 
Q 2388 3097 2138 3097 
Q 1578 3097 1268 2742 
Q 959 2388 959 1747 
Q 959 1106 1268 751 
Q 1578 397 2138 397 
Q 2388 397 2633 464 
Q 2878 531 3122 666 
L 3122 134 
Q 2881 22 2623 -34 
Q 2366 -91 2075 -91 
Q 1284 -91 818 406 
Q 353 903 353 1747 
Q 353 2603 823 3093 
Q 1294 3584 2113 3584 
Q 2378 3584 2631 3529 
Q 2884 3475 3122 3366 
z
" transform="scale(0.015625)"/>
      <path id="DejaVuSans-72" d="M 2631 2963 
Q 2534 3019 2420 3045 
Q 2306 3072 2169 3072 
Q 1681 3072 1420 2755 
Q 1159 2438 1159 1844 
L 1159 0 
L 581 0 
L 581 3500 
L 1159 3500 
L 1159 2956 
Q 1341 3275 1631 3429 
Q 1922 3584 2338 3584 
Q 2397 3584 2469 3576 
Q 2541 3569 2628 3553 
L 2631 2963 
z
" transform="scale(0.015625)"/>
      <path id="DejaVuSans-6f" d="M 1959 3097 
Q 1497 3097 1228 2736 
Q 959 2375 959 1747 
Q 959 1119 1226 758 
Q 1494 397 1959 397 
Q 2419 397 2687 759 
Q 2956 1122 2956 1747 
Q 2956 2369 2687 2733 
Q 2419 3097 1959 3097 
z
M 1959 3584 
Q 2709 3584 3137 3096 
Q 3566 2609 3566 1747 
Q 3566 888 3137 398 
Q 2709 -91 1959 -91 
Q 1206 -91 779 398 
Q 353 888 353 1747 
Q 353 2609 779 3096 
Q 1206 3584 1959 3584 
z
" transform="scale(0.015625)"/>
      <path id="DejaVuSans-76" d="M 191 3500 
L 800 3500 
L 1894 563 
L 2988 3500 
L 3597 3500 
L 2284 0 
L 1503 0 
L 191 3500 
z
" transform="scale(0.015625)"/>
      <path id="DejaVuSans-65" d="M 3597 1894 
L 3597 1613 
L 953 1613 
Q 991 1019 1311 708 
Q 1631 397 2203 397 
Q 2534 397 2845 478 
Q 3156 559 3463 722 
L 3463 178 
Q 3153 47 2828 -22 
Q 2503 -91 2169 -91 
Q 1331 -91 842 396 
Q 353 884 353 1716 
Q 353 2575 817 3079 
Q 1281 3584 2069 3584 
Q 2775 3584 3186 3129 
Q 3597 2675 3597 1894 
z
M 3022 2063 
Q 3016 2534 2758 2815 
Q 2500 3097 2075 3097 
Q 1594 3097 1305 2825 
Q 1016 2553 972 2059 
L 3022 2063 
z
" transform="scale(0.015625)"/>
      <path id="DejaVuSans-77" d="M 269 3500 
L 844 3500 
L 1563 769 
L 2278 3500 
L 2956 3500 
L 3675 769 
L 4391 3500 
L 4966 3500 
L 4050 0 
L 3372 0 
L 2619 2869 
L 1863 0 
L 1184 0 
L 269 3500 
z
" transform="scale(0.015625)"/>
      <path id="DejaVuSans-64" d="M 2906 2969 
L 2906 4863 
L 3481 4863 
L 3481 0 
L 2906 0 
L 2906 525 
Q 2725 213 2448 61 
Q 2172 -91 1784 -91 
Q 1150 -91 751 415 
Q 353 922 353 1747 
Q 353 2572 751 3078 
Q 1150 3584 1784 3584 
Q 2172 3584 2448 3432 
Q 2725 3281 2906 2969 
z
M 947 1747 
Q 947 1113 1208 752 
Q 1469 391 1925 391 
Q 2381 391 2643 752 
Q 2906 1113 2906 1747 
Q 2906 2381 2643 2742 
Q 2381 3103 1925 3103 
Q 1469 3103 1208 2742 
Q 947 2381 947 1747 
z
" transform="scale(0.015625)"/>
      <path id="DejaVuSans-2d" d="M 313 2009 
L 1997 2009 
L 1997 1497 
L 313 1497 
L 313 2009 
z
" transform="scale(0.015625)"/>
     </defs>
     <use xlink:href="#DejaVuSans-63"/>
     <use xlink:href="#DejaVuSans-72" transform="translate(54.980469 0)"/>
     <use xlink:href="#DejaVuSans-6f" transform="translate(93.84375 0)"/>
     <use xlink:href="#DejaVuSans-73" transform="translate(155.025391 0)"/>
     <use xlink:href="#DejaVuSans-73" transform="translate(207.125 0)"/>
     <use xlink:href="#DejaVuSans-6f" transform="translate(259.224609 0)"/>
     <use xlink:href="#DejaVuSans-76" transform="translate(320.40625 0)"/>
     <use xlink:href="#DejaVuSans-65" transform="translate(379.585938 0)"/>
     <use xlink:href="#DejaVuSans-72" transform="translate(441.109375 0)"/>
     <use xlink:href="#DejaVuSans-20" transform="translate(482.222656 0)"/>
     <use xlink:href="#DejaVuSans-73" transform="translate(514.009766 0)"/>
     <use xlink:href="#DejaVuSans-77" transform="translate(566.109375 0)"/>
     <use xlink:href="#DejaVuSans-65" transform="translate(647.896484 0)"/>
     <use xlink:href="#DejaVuSans-65" transform="translate(709.419922 0)"/>
     <use xlink:href="#DejaVuSans-70" transform="translate(770.943359 0)"/>
     <use xlink:href="#DejaVuSans-2c" transform="translate(834.419922 0)"/>
     <use xlink:href="#DejaVuSans-20" transform="translate(866.207031 0)"/>
     <use xlink:href="#DejaVuSans-62" transform="translate(897.994141 0)"/>
     <use xlink:href="#DejaVuSans-61" transform="translate(961.470703 0)"/>
     <use xlink:href="#DejaVuSans-6c" transform="translate(1022.75 0)"/>
     <use xlink:href="#DejaVuSans-61" transform="translate(1050.533203 0)"/>
     <use xlink:href="#DejaVuSans-6e" transform="translate(1111.8125 0)"/>
     <use xlink:href="#DejaVuSans-63" transform="translate(1175.191406 0)"/>
     <use xlink:href="#DejaVuSans-65" transform="translate(1230.171875 0)"/>
     <use xlink:href="#DejaVuSans-64" transform="translate(1291.695312 0)"/>
     <use xlink:href="#DejaVuSans-20" transform="translate(1355.171875 0)"/>
     <use xlink:href="#DejaVuSans-6d" transform="translate(1386.958984 0)"/>
     <use xlink:href="#DejaVuSans-75" transform="translate(1484.371094 0)"/>
     <use xlink:href="#DejaVuSans-6c" transform="translate(1547.75 0)"/>
     <use xlink:href="#DejaVuSans-2c" transform="translate(1575.533203 0)"/>
     <use xlink:href="#DejaVuSans-20" transform="translate(1607.320312 0)"/>
     <use xlink:href="#DejaVuSans-73" transform="translate(1639.107422 0)"/>
     <use xlink:href="#DejaVuSans-74" transform="translate(1691.207031 0)"/>
     <use xlink:href="#DejaVuSans-65" transform="translate(1730.416016 0)"/>
     <use xlink:href="#DejaVuSans-70" transform="translate(1791.939453 0)"/>
     <use xlink:href="#DejaVuSans-20" transform="translate(1855.416016 0)"/>
     <use xlink:href="#DejaVuSans-32" transform="translate(1887.203125 0)"/>
     <use xlink:href="#DejaVuSans-20" transform="translate(1950.826172 0)"/>
     <use xlink:href="#DejaVuSans-28" transform="translate(1982.613281 0)"/>
     <use xlink:href="#DejaVuSans-73" transform="translate(2021.626953 0)"/>
     <use xlink:href="#DejaVuSans-6f" transform="translate(2073.726562 0)"/>
     <use xlink:href="#DejaVuSans-6c" transform="translate(2134.908203 0)"/>
     <use xlink:href="#DejaVuSans-6f" transform="translate(2162.691406 0)"/>
     <use xlink:href="#DejaVuSans-2d" transform="translate(2225.748047 0)"/>
     <use xlink:href="#DejaVuSans-70" transform="translate(2261.832031 0)"/>
     <use xlink:href="#DejaVuSans-65" transform="translate(2325.308594 0)"/>
     <use xlink:href="#DejaVuSans-72" transform="translate(2386.832031 0)"/>
     <use xlink:href="#DejaVuSans-2d" transform="translate(2421.570312 0)"/>
     <use xlink:href="#DejaVuSans-70" transform="translate(2457.654297 0)"/>
     <use xlink:href="#DejaVuSans-72" transform="translate(2521.130859 0)"/>
     <use xlink:href="#DejaVuSans-6f" transform="translate(2559.994141 0)"/>
     <use xlink:href="#DejaVuSans-63" transform="translate(2621.175781 0)"/>
     <use xlink:href="#DejaVuSans-65" transform="translate(2676.15625 0)"/>
     <use xlink:href="#DejaVuSans-73" transform="translate(2737.679688 0)"/>
     <use xlink:href="#DejaVuSans-73" transform="translate(2789.779297 0)"/>
     <use xlink:href="#DejaVuSans-29" transform="translate(2841.878906 0)"/>
    </g>
   </g>
   <g id="legend_1">
    <g id="patch_7">
     <path d="M 51.66 63.074375 
L 263.886562 63.074375 
Q 265.886562 63.074375 265.886562 61.074375 
L 265.886562 32.44 
Q 265.886562 30.44 263.886562 30.44 
L 51.66 30.44 
Q 49.66 30.44 49.66 32.44 
L 49.66 61.074375 
Q 49.66 63.074375 51.66 63.074375 
z
" style="fill: #ffffff; opacity: 0.8; stroke: #cccccc; stroke-linejoin: miter"/>
    </g>
    <g id="line2d_29">
     <path d="M 53.66 38.538437 
L 63.66 38.538437 
L 73.66 38.538437 
" style="fill: none; stroke: #d62728; stroke-linecap: square"/>
    </g>
    <g id="text_17">
     <!-- u52 toom dispatch (simd_mpn_mul) -->
     <g transform="translate(81.66 42.038437) scale(0.1 -0.1)">
      <defs>
       <path id="DejaVuSans-68" d="M 3513 2113 
L 3513 0 
L 2938 0 
L 2938 2094 
Q 2938 2591 2744 2837 
Q 2550 3084 2163 3084 
Q 1697 3084 1428 2787 
Q 1159 2491 1159 1978 
L 1159 0 
L 581 0 
L 581 4863 
L 1159 4863 
L 1159 2956 
Q 1366 3272 1645 3428 
Q 1925 3584 2291 3584 
Q 2894 3584 3203 3211 
Q 3513 2838 3513 2113 
z
" transform="scale(0.015625)"/>
       <path id="DejaVuSans-5f" d="M 3263 -1063 
L 3263 -1509 
L -63 -1509 
L -63 -1063 
L 3263 -1063 
z
" transform="scale(0.015625)"/>
      </defs>
      <use xlink:href="#DejaVuSans-75"/>
      <use xlink:href="#DejaVuSans-35" transform="translate(63.378906 0)"/>
      <use xlink:href="#DejaVuSans-32" transform="translate(127.001953 0)"/>
      <use xlink:href="#DejaVuSans-20" transform="translate(190.625 0)"/>
      <use xlink:href="#DejaVuSans-74" transform="translate(222.412109 0)"/>
      <use xlink:href="#DejaVuSans-6f" transform="translate(261.621094 0)"/>
      <use xlink:href="#DejaVuSans-6f" transform="translate(322.802734 0)"/>
      <use xlink:href="#DejaVuSans-6d" transform="translate(383.984375 0)"/>
      <use xlink:href="#DejaVuSans-20" transform="translate(481.396484 0)"/>
      <use xlink:href="#DejaVuSans-64" transform="translate(513.183594 0)"/>
      <use xlink:href="#DejaVuSans-69" transform="translate(576.660156 0)"/>
      <use xlink:href="#DejaVuSans-73" transform="translate(604.443359 0)"/>
      <use xlink:href="#DejaVuSans-70" transform="translate(656.542969 0)"/>
      <use xlink:href="#DejaVuSans-61" transform="translate(720.019531 0)"/>
      <use xlink:href="#DejaVuSans-74" transform="translate(781.298828 0)"/>
      <use xlink:href="#DejaVuSans-63" transform="translate(820.507812 0)"/>
      <use xlink:href="#DejaVuSans-68" transform="translate(875.488281 0)"/>
      <use xlink:href="#DejaVuSans-20" transform="translate(938.867188 0)"/>
      <use xlink:href="#DejaVuSans-28" transform="translate(970.654297 0)"/>
      <use xlink:href="#DejaVuSans-73" transform="translate(1009.667969 0)"/>
      <use xlink:href="#DejaVuSans-69" transform="translate(1061.767578 0)"/>
      <use xlink:href="#DejaVuSans-6d" transform="translate(1089.550781 0)"/>
      <use xlink:href="#DejaVuSans-64" transform="translate(1186.962891 0)"/>
      <use xlink:href="#DejaVuSans-5f" transform="translate(1250.439453 0)"/>
      <use xlink:href="#DejaVuSans-6d" transform="translate(1300.439453 0)"/>
      <use xlink:href="#DejaVuSans-70" transform="translate(1397.851562 0)"/>
      <use xlink:href="#DejaVuSans-6e" transform="translate(1461.328125 0)"/>
      <use xlink:href="#DejaVuSans-5f" transform="translate(1524.707031 0)"/>
      <use xlink:href="#DejaVuSans-6d" transform="translate(1574.707031 0)"/>
      <use xlink:href="#DejaVuSans-75" transform="translate(1672.119141 0)"/>
      <use xlink:href="#DejaVuSans-6c" transform="translate(1735.498047 0)"/>
      <use xlink:href="#DejaVuSans-29" transform="translate(1763.28125 0)"/>
     </g>
    </g>
    <g id="line2d_30">
     <path d="M 53.66 53.494687 
L 63.66 53.494687 
L 73.66 53.494687 
" style="fill: none; stroke: #1f77b4; stroke-linecap: square"/>
    </g>
    <g id="text_18">
     <!-- fft16 (AVX-512 PQ FFT) -->
     <g transform="translate(81.66 56.994687) scale(0.1 -0.1)">
      <defs>
       <path id="DejaVuSans-66" d="M 2375 4863 
L 2375 4384 
L 1825 4384 
Q 1516 4384 1395 4259 
Q 1275 4134 1275 3809 
L 1275 3500 
L 2222 3500 
L 2222 3053 
L 1275 3053 
L 1275 0 
L 697 0 
L 697 3053 
L 147 3053 
L 147 3500 
L 697 3500 
L 697 3744 
Q 697 4328 969 4595 
Q 1241 4863 1831 4863 
L 2375 4863 
z
" transform="scale(0.015625)"/>
       <path id="DejaVuSans-41" d="M 2188 4044 
L 1331 1722 
L 3047 1722 
L 2188 4044 
z
M 1831 4666 
L 2547 4666 
L 4325 0 
L 3669 0 
L 3244 1197 
L 1141 1197 
L 716 0 
L 50 0 
L 1831 4666 
z
" transform="scale(0.015625)"/>
       <path id="DejaVuSans-56" d="M 1831 0 
L 50 4666 
L 709 4666 
L 2188 738 
L 3669 4666 
L 4325 4666 
L 2547 0 
L 1831 0 
z
" transform="scale(0.015625)"/>
       <path id="DejaVuSans-58" d="M 403 4666 
L 1081 4666 
L 2241 2931 
L 3406 4666 
L 4084 4666 
L 2584 2425 
L 4184 0 
L 3506 0 
L 2194 1984 
L 872 0 
L 191 0 
L 1856 2491 
L 403 4666 
z
" transform="scale(0.015625)"/>
       <path id="DejaVuSans-50" d="M 1259 4147 
L 1259 2394 
L 2053 2394 
Q 2494 2394 2734 2622 
Q 2975 2850 2975 3272 
Q 2975 3691 2734 3919 
Q 2494 4147 2053 4147 
L 1259 4147 
z
M 628 4666 
L 2053 4666 
Q 2838 4666 3239 4311 
Q 3641 3956 3641 3272 
Q 3641 2581 3239 2228 
Q 2838 1875 2053 1875 
L 1259 1875 
L 1259 0 
L 628 0 
L 628 4666 
z
" transform="scale(0.015625)"/>
       <path id="DejaVuSans-51" d="M 2522 4238 
Q 1834 4238 1429 3725 
Q 1025 3213 1025 2328 
Q 1025 1447 1429 934 
Q 1834 422 2522 422 
Q 3209 422 3611 934 
Q 4013 1447 4013 2328 
Q 4013 3213 3611 3725 
Q 3209 4238 2522 4238 
z
M 3406 84 
L 4238 -825 
L 3475 -825 
L 2784 -78 
Q 2681 -84 2626 -87 
Q 2572 -91 2522 -91 
Q 1538 -91 948 567 
Q 359 1225 359 2328 
Q 359 3434 948 4092 
Q 1538 4750 2522 4750 
Q 3503 4750 4090 4092 
Q 4678 3434 4678 2328 
Q 4678 1516 4351 937 
Q 4025 359 3406 84 
z
" transform="scale(0.015625)"/>
       <path id="DejaVuSans-46" d="M 628 4666 
L 3309 4666 
L 3309 4134 
L 1259 4134 
L 1259 2759 
L 3109 2759 
L 3109 2228 
L 1259 2228 
L 1259 0 
L 628 0 
L 628 4666 
z
" transform="scale(0.015625)"/>
       <path id="DejaVuSans-54" d="M -19 4666 
L 3928 4666 
L 3928 4134 
L 2272 4134 
L 2272 0 
L 1638 0 
L 1638 4134 
L -19 4134 
L -19 4666 
z
" transform="scale(0.015625)"/>
      </defs>
      <use xlink:href="#DejaVuSans-66"/>
      <use xlink:href="#DejaVuSans-66" transform="translate(35.205078 0)"/>
      <use xlink:href="#DejaVuSans-74" transform="translate(68.660156 0)"/>
      <use xlink:href="#DejaVuSans-31" transform="translate(107.869141 0)"/>
      <use xlink:href="#DejaVuSans-36" transform="translate(171.492188 0)"/>
      <use xlink:href="#DejaVuSans-20" transform="translate(235.115234 0)"/>
      <use xlink:href="#DejaVuSans-28" transform="translate(266.902344 0)"/>
      <use xlink:href="#DejaVuSans-41" transform="translate(305.916016 0)"/>
      <use xlink:href="#DejaVuSans-56" transform="translate(367.949219 0)"/>
      <use xlink:href="#DejaVuSans-58" transform="translate(436.357422 0)"/>
      <use xlink:href="#DejaVuSans-2d" transform="translate(499.863281 0)"/>
      <use xlink:href="#DejaVuSans-35" transform="translate(535.947266 0)"/>
      <use xlink:href="#DejaVuSans-31" transform="translate(599.570312 0)"/>
      <use xlink:href="#DejaVuSans-32" transform="translate(663.193359 0)"/>
      <use xlink:href="#DejaVuSans-20" transform="translate(726.816406 0)"/>
      <use xlink:href="#DejaVuSans-50" transform="translate(758.603516 0)"/>
      <use xlink:href="#DejaVuSans-51" transform="translate(818.90625 0)"/>
      <use xlink:href="#DejaVuSans-20" transform="translate(897.617188 0)"/>
      <use xlink:href="#DejaVuSans-46" transform="translate(929.404297 0)"/>
      <use xlink:href="#DejaVuSans-46" transform="translate(986.923828 0)"/>
      <use xlink:href="#DejaVuSans-54" transform="translate(1042.693359 0)"/>
      <use xlink:href="#DejaVuSans-29" transform="translate(1103.777344 0)"/>
     </g>
    </g>
   </g>
  </g>
 </g>
 <defs>
  <clipPath id="pf740086dd0">
   <rect x="44.66" y="25.44" width="880.54" height="436.6"/>
  </clipPath>
 </defs>
</svg>
