<?xml version="1.0" encoding="utf-8" standalone="no"?>
<!DOCTYPE svg PUBLIC "-//W3C//DTD SVG 1.1//EN"
  "http://www.w3.org/Graphics/SVG/1.1/DTD/svg11.dtd">
<svg xmlns:xlink="http://www.w3.org/1999/xlink" width="936pt" height="468pt" viewBox="0 0 936 468" xmlns="http://www.w3.org/2000/svg" version="1.1">
 <metadata>
  <rdf:RDF xmlns:dc="http://purl.org/dc/elements/1.1/" xmlns:cc="http://creativecommons.org/ns#" xmlns:rdf="http://www.w3.org/1999/02/22-rdf-syntax-ns#">
   <cc:Work>
    <dc:type rdf:resource="http://purl.org/dc/dcmitype/StillImage"/>
    <dc:date>2026-06-12T17:28:16.267150</dc:date>
    <dc:format>image/svg+xml</dc:format>
    <dc:creator>
     <cc:Agent>
      <dc:title>Matplotlib v3.10.7+dfsg1, https://matplotlib.org/</dc:title>
     </cc:Agent>
    </dc:creator>
   </cc:Work>
  </rdf:RDF>
 </metadata>
 <defs>
  <style type="text/css">*{stroke-linejoin: round; stroke-linecap: butt}</style>
 </defs>
 <g id="figure_1">
  <g id="patch_1">
   <path d="M 0 468 
L 936 468 
L 936 0 
L 0 0 
z
" style="fill: #ffffff"/>
  </g>
  <g id="axes_1">
   <g id="patch_2">
    <path d="M 44.66 422.728 
L 925.2 422.728 
L 925.2 25.44 
L 44.66 25.44 
z
" style="fill: #ffffff"/>
   </g>
   <g id="matplotlib.axis_1">
    <g id="xtick_1">
     <g id="line2d_1">
      <path d="M 84.684545 422.728 
L 84.684545 25.44 
" clip-path="url(#pd8c6d9355b)" style="fill: none; stroke: #b0b0b0; stroke-opacity: 0.3; stroke-width: 0.8; stroke-linecap: square"/>
     </g>
     <g id="line2d_2">
      <defs>
       <path id="m0f6dc9087e" d="M 0 0 
L 0 3.5 
" style="stroke: #000000; stroke-width: 0.8"/>
      </defs>
      <g>
       <use xlink:href="#m0f6dc9087e" x="84.684545" y="422.728" style="stroke: #000000; stroke-width: 0.8"/>
      </g>
     </g>
     <g id="text_1">
      <!-- $\mathdefault{2^{16}}$ -->
      <g transform="translate(76.834545 437.326437) scale(0.1 -0.1)">
       <defs>
        <path id="DejaVuSans-32" d="M 1228 531 
L 3431 531 
L 3431 0 
L 469 0 
L 469 531 
Q 828 903 1448 1529 
Q 2069 2156 2228 2338 
Q 2531 2678 2651 2914 
Q 2772 3150 2772 3378 
Q 2772 3750 2511 3984 
Q 2250 4219 1831 4219 
Q 1534 4219 1204 4116 
Q 875 4013 500 3803 
L 500 4441 
Q 881 4594 1212 4672 
Q 1544 4750 1819 4750 
Q 2544 4750 2975 4387 
Q 3406 4025 3406 3419 
Q 3406 3131 3298 2873 
Q 3191 2616 2906 2266 
Q 2828 2175 2409 1742 
Q 1991 1309 1228 531 
z
" transform="scale(0.015625)"/>
        <path id="DejaVuSans-31" d="M 794 531 
L 1825 531 
L 1825 4091 
L 703 3866 
L 703 4441 
L 1819 4666 
L 2450 4666 
L 2450 531 
L 3481 531 
L 3481 0 
L 794 0 
L 794 531 
z
" transform="scale(0.015625)"/>
        <path id="DejaVuSans-36" d="M 2113 2584 
Q 1688 2584 1439 2293 
Q 1191 2003 1191 1497 
Q 1191 994 1439 701 
Q 1688 409 2113 409 
Q 2538 409 2786 701 
Q 3034 994 3034 1497 
Q 3034 2003 2786 2293 
Q 2538 2584 2113 2584 
z
M 3366 4563 
L 3366 3988 
Q 3128 4100 2886 4159 
Q 2644 4219 2406 4219 
Q 1781 4219 1451 3797 
Q 1122 3375 1075 2522 
Q 1259 2794 1537 2939 
Q 1816 3084 2150 3084 
Q 2853 3084 3261 2657 
Q 3669 2231 3669 1497 
Q 3669 778 3244 343 
Q 2819 -91 2113 -91 
Q 1303 -91 875 529 
Q 447 1150 447 2328 
Q 447 3434 972 4092 
Q 1497 4750 2381 4750 
Q 2619 4750 2861 4703 
Q 3103 4656 3366 4563 
z
" transform="scale(0.015625)"/>
       </defs>
       <use xlink:href="#DejaVuSans-32" transform="translate(0 0.765625)"/>
       <use xlink:href="#DejaVuSans-31" transform="translate(64.580078 39.046875) scale(0.7)"/>
       <use xlink:href="#DejaVuSans-36" transform="translate(109.116211 39.046875) scale(0.7)"/>
      </g>
     </g>
    </g>
    <g id="xtick_2">
     <g id="line2d_3">
      <path d="M 218.099697 422.728 
L 218.099697 25.44 
" clip-path="url(#pd8c6d9355b)" style="fill: none; stroke: #b0b0b0; stroke-opacity: 0.3; stroke-width: 0.8; stroke-linecap: square"/>
     </g>
     <g id="line2d_4">
      <g>
       <use xlink:href="#m0f6dc9087e" x="218.099697" y="422.728" style="stroke: #000000; stroke-width: 0.8"/>
      </g>
     </g>
     <g id="text_2">
      <!-- $\mathdefault{2^{17}}$ -->
      <g transform="translate(210.249697 437.326437) scale(0.1 -0.1)">
       <defs>
        <path id="DejaVuSans-37" d="M 525 4666 
L 3525 4666 
L 3525 4397 
L 1831 0 
L 1172 0 
L 2766 4134 
L 525 4134 
L 525 4666 
z
" transform="scale(0.015625)"/>
       </defs>
       <use xlink:href="#DejaVuSans-32" transform="translate(0 0.684375)"/>
       <use xlink:href="#DejaVuSans-31" transform="translate(64.580078 38.965625) scale(0.7)"/>
       <use xlink:href="#DejaVuSans-37" transform="translate(109.116211 38.965625) scale(0.7)"/>
      </g>
     </g>
    </g>
    <g id="xtick_3">
     <g id="line2d_5">
      <path d="M 351.514848 422.728 
L 351.514848 25.44 
" clip-path="url(#pd8c6d9355b)" style="fill: none; stroke: #b0b0b0; stroke-opacity: 0.3; stroke-width: 0.8; stroke-linecap: square"/>
     </g>
     <g id="line2d_6">
      <g>
       <use xlink:href="#m0f6dc9087e" x="351.514848" y="422.728" style="stroke: #000000; stroke-width: 0.8"/>
      </g>
     </g>
     <g id="text_3">
      <!-- $\mathdefault{2^{18}}$ -->
      <g transform="translate(343.664848 437.326437) scale(0.1 -0.1)">
       <defs>
        <path id="DejaVuSans-38" d="M 2034 2216 
Q 1584 2216 1326 1975 
Q 1069 1734 1069 1313 
Q 1069 891 1326 650 
Q 1584 409 2034 409 
Q 2484 409 2743 651 
Q 3003 894 3003 1313 
Q 3003 1734 2745 1975 
Q 2488 2216 2034 2216 
z
M 1403 2484 
Q 997 2584 770 2862 
Q 544 3141 544 3541 
Q 544 4100 942 4425 
Q 1341 4750 2034 4750 
Q 2731 4750 3128 4425 
Q 3525 4100 3525 3541 
Q 3525 3141 3298 2862 
Q 3072 2584 2669 2484 
Q 3125 2378 3379 2068 
Q 3634 1759 3634 1313 
Q 3634 634 3220 271 
Q 2806 -91 2034 -91 
Q 1263 -91 848 271 
Q 434 634 434 1313 
Q 434 1759 690 2068 
Q 947 2378 1403 2484 
z
M 1172 3481 
Q 1172 3119 1398 2916 
Q 1625 2713 2034 2713 
Q 2441 2713 2670 2916 
Q 2900 3119 2900 3481 
Q 2900 3844 2670 4047 
Q 2441 4250 2034 4250 
Q 1625 4250 1398 4047 
Q 1172 3844 1172 3481 
z
" transform="scale(0.015625)"/>
       </defs>
       <use xlink:href="#DejaVuSans-32" transform="translate(0 0.765625)"/>
       <use xlink:href="#DejaVuSans-31" transform="translate(64.580078 39.046875) scale(0.7)"/>
       <use xlink:href="#DejaVuSans-38" transform="translate(109.116211 39.046875) scale(0.7)"/>
      </g>
     </g>
    </g>
    <g id="xtick_4">
     <g id="line2d_7">
      <path d="M 484.93 422.728 
L 484.93 25.44 
" clip-path="url(#pd8c6d9355b)" style="fill: none; stroke: #b0b0b0; stroke-opacity: 0.3; stroke-width: 0.8; stroke-linecap: square"/>
     </g>
     <g id="line2d_8">
      <g>
       <use xlink:href="#m0f6dc9087e" x="484.93" y="422.728" style="stroke: #000000; stroke-width: 0.8"/>
      </g>
     </g>
     <g id="text_4">
      <!-- $\mathdefault{2^{19}}$ -->
      <g transform="translate(477.08 437.326437) scale(0.1 -0.1)">
       <defs>
        <path id="DejaVuSans-39" d="M 703 97 
L 703 672 
Q 941 559 1184 500 
Q 1428 441 1663 441 
Q 2288 441 2617 861 
Q 2947 1281 2994 2138 
Q 2813 1869 2534 1725 
Q 2256 1581 1919 1581 
Q 1219 1581 811 2004 
Q 403 2428 403 3163 
Q 403 3881 828 4315 
Q 1253 4750 1959 4750 
Q 2769 4750 3195 4129 
Q 3622 3509 3622 2328 
Q 3622 1225 3098 567 
Q 2575 -91 1691 -91 
Q 1453 -91 1209 -44 
Q 966 3 703 97 
z
M 1959 2075 
Q 2384 2075 2632 2365 
Q 2881 2656 2881 3163 
Q 2881 3666 2632 3958 
Q 2384 4250 1959 4250 
Q 1534 4250 1286 3958 
Q 1038 3666 1038 3163 
Q 1038 2656 1286 2365 
Q 1534 2075 1959 2075 
z
" transform="scale(0.015625)"/>
       </defs>
       <use xlink:href="#DejaVuSans-32" transform="translate(0 0.765625)"/>
       <use xlink:href="#DejaVuSans-31" transform="translate(64.580078 39.046875) scale(0.7)"/>
       <use xlink:href="#DejaVuSans-39" transform="translate(109.116211 39.046875) scale(0.7)"/>
      </g>
     </g>
    </g>
    <g id="xtick_5">
     <g id="line2d_9">
      <path d="M 618.345152 422.728 
L 618.345152 25.44 
" clip-path="url(#pd8c6d9355b)" style="fill: none; stroke: #b0b0b0; stroke-opacity: 0.3; stroke-width: 0.8; stroke-linecap: square"/>
     </g>
     <g id="line2d_10">
      <g>
       <use xlink:href="#m0f6dc9087e" x="618.345152" y="422.728" style="stroke: #000000; stroke-width: 0.8"/>
      </g>
     </g>
     <g id="text_5">
      <!-- $\mathdefault{2^{20}}$ -->
      <g transform="translate(610.495152 437.326437) scale(0.1 -0.1)">
       <defs>
        <path id="DejaVuSans-30" d="M 2034 4250 
Q 1547 4250 1301 3770 
Q 1056 3291 1056 2328 
Q 1056 1369 1301 889 
Q 1547 409 2034 409 
Q 2525 409 2770 889 
Q 3016 1369 3016 2328 
Q 3016 3291 2770 3770 
Q 2525 4250 2034 4250 
z
M 2034 4750 
Q 2819 4750 3233 4129 
Q 3647 3509 3647 2328 
Q 3647 1150 3233 529 
Q 2819 -91 2034 -91 
Q 1250 -91 836 529 
Q 422 1150 422 2328 
Q 422 3509 836 4129 
Q 1250 4750 2034 4750 
z
" transform="scale(0.015625)"/>
       </defs>
       <use xlink:href="#DejaVuSans-32" transform="translate(0 0.765625)"/>
       <use xlink:href="#DejaVuSans-32" transform="translate(64.580078 39.046875) scale(0.7)"/>
       <use xlink:href="#DejaVuSans-30" transform="translate(109.116211 39.046875) scale(0.7)"/>
      </g>
     </g>
    </g>
    <g id="xtick_6">
     <g id="line2d_11">
      <path d="M 751.760303 422.728 
L 751.760303 25.44 
" clip-path="url(#pd8c6d9355b)" style="fill: none; stroke: #b0b0b0; stroke-opacity: 0.3; stroke-width: 0.8; stroke-linecap: square"/>
     </g>
     <g id="line2d_12">
      <g>
       <use xlink:href="#m0f6dc9087e" x="751.760303" y="422.728" style="stroke: #000000; stroke-width: 0.8"/>
      </g>
     </g>
     <g id="text_6">
      <!-- $\mathdefault{2^{21}}$ -->
      <g transform="translate(743.910303 437.326437) scale(0.1 -0.1)">
       <use xlink:href="#DejaVuSans-32" transform="translate(0 0.765625)"/>
       <use xlink:href="#DejaVuSans-32" transform="translate(64.580078 39.046875) scale(0.7)"/>
       <use xlink:href="#DejaVuSans-31" transform="translate(109.116211 39.046875) scale(0.7)"/>
      </g>
     </g>
    </g>
    <g id="xtick_7">
     <g id="line2d_13">
      <path d="M 885.175455 422.728 
L 885.175455 25.44 
" clip-path="url(#pd8c6d9355b)" style="fill: none; stroke: #b0b0b0; stroke-opacity: 0.3; stroke-width: 0.8; stroke-linecap: square"/>
     </g>
     <g id="line2d_14">
      <g>
       <use xlink:href="#m0f6dc9087e" x="885.175455" y="422.728" style="stroke: #000000; stroke-width: 0.8"/>
      </g>
     </g>
     <g id="text_7">
      <!-- $\mathdefault{2^{22}}$ -->
      <g transform="translate(877.325455 437.326437) scale(0.1 -0.1)">
       <use xlink:href="#DejaVuSans-32" transform="translate(0 0.765625)"/>
       <use xlink:href="#DejaVuSans-32" transform="translate(64.580078 39.046875) scale(0.7)"/>
       <use xlink:href="#DejaVuSans-32" transform="translate(109.116211 39.046875) scale(0.7)"/>
      </g>
     </g>
    </g>
    <g id="text_8">
     <!-- n (u64 limbs) -->
     <g transform="translate(451.722969 451.004563) scale(0.1 -0.1)">
      <defs>
       <path id="DejaVuSans-6e" d="M 3513 2113 
L 3513 0 
L 2938 0 
L 2938 2094 
Q 2938 2591 2744 2837 
Q 2550 3084 2163 3084 
Q 1697 3084 1428 2787 
Q 1159 2491 1159 1978 
L 1159 0 
L 581 0 
L 581 3500 
L 1159 3500 
L 1159 2956 
Q 1366 3272 1645 3428 
Q 1925 3584 2291 3584 
Q 2894 3584 3203 3211 
Q 3513 2838 3513 2113 
z
" transform="scale(0.015625)"/>
       <path id="DejaVuSans-20" transform="scale(0.015625)"/>
       <path id="DejaVuSans-28" d="M 1984 4856 
Q 1566 4138 1362 3434 
Q 1159 2731 1159 2009 
Q 1159 1288 1364 580 
Q 1569 -128 1984 -844 
L 1484 -844 
Q 1016 -109 783 600 
Q 550 1309 550 2009 
Q 550 2706 781 3412 
Q 1013 4119 1484 4856 
L 1984 4856 
z
" transform="scale(0.015625)"/>
       <path id="DejaVuSans-75" d="M 544 1381 
L 544 3500 
L 1119 3500 
L 1119 1403 
Q 1119 906 1312 657 
Q 1506 409 1894 409 
Q 2359 409 2629 706 
Q 2900 1003 2900 1516 
L 2900 3500 
L 3475 3500 
L 3475 0 
L 2900 0 
L 2900 538 
Q 2691 219 2414 64 
Q 2138 -91 1772 -91 
Q 1169 -91 856 284 
Q 544 659 544 1381 
z
M 1991 3584 
L 1991 3584 
z
" transform="scale(0.015625)"/>
       <path id="DejaVuSans-34" d="M 2419 4116 
L 825 1625 
L 2419 1625 
L 2419 4116 
z
M 2253 4666 
L 3047 4666 
L 3047 1625 
L 3713 1625 
L 3713 1100 
L 3047 1100 
L 3047 0 
L 2419 0 
L 2419 1100 
L 313 1100 
L 313 1709 
L 2253 4666 
z
" transform="scale(0.015625)"/>
       <path id="DejaVuSans-6c" d="M 603 4863 
L 1178 4863 
L 1178 0 
L 603 0 
L 603 4863 
z
" transform="scale(0.015625)"/>
       <path id="DejaVuSans-69" d="M 603 3500 
L 1178 3500 
L 1178 0 
L 603 0 
L 603 3500 
z
M 603 4863 
L 1178 4863 
L 1178 4134 
L 603 4134 
L 603 4863 
z
" transform="scale(0.015625)"/>
       <path id="DejaVuSans-6d" d="M 3328 2828 
Q 3544 3216 3844 3400 
Q 4144 3584 4550 3584 
Q 5097 3584 5394 3201 
Q 5691 2819 5691 2113 
L 5691 0 
L 5113 0 
L 5113 2094 
Q 5113 2597 4934 2840 
Q 4756 3084 4391 3084 
Q 3944 3084 3684 2787 
Q 3425 2491 3425 1978 
L 3425 0 
L 2847 0 
L 2847 2094 
Q 2847 2600 2669 2842 
Q 2491 3084 2119 3084 
Q 1678 3084 1418 2786 
Q 1159 2488 1159 1978 
L 1159 0 
L 581 0 
L 581 3500 
L 1159 3500 
L 1159 2956 
Q 1356 3278 1631 3431 
Q 1906 3584 2284 3584 
Q 2666 3584 2933 3390 
Q 3200 3197 3328 2828 
z
" transform="scale(0.015625)"/>
       <path id="DejaVuSans-62" d="M 3116 1747 
Q 3116 2381 2855 2742 
Q 2594 3103 2138 3103 
Q 1681 3103 1420 2742 
Q 1159 2381 1159 1747 
Q 1159 1113 1420 752 
Q 1681 391 2138 391 
Q 2594 391 2855 752 
Q 3116 1113 3116 1747 
z
M 1159 2969 
Q 1341 3281 1617 3432 
Q 1894 3584 2278 3584 
Q 2916 3584 3314 3078 
Q 3713 2572 3713 1747 
Q 3713 922 3314 415 
Q 2916 -91 2278 -91 
Q 1894 -91 1617 61 
Q 1341 213 1159 525 
L 1159 0 
L 581 0 
L 581 4863 
L 1159 4863 
L 1159 2969 
z
" transform="scale(0.015625)"/>
       <path id="DejaVuSans-73" d="M 2834 3397 
L 2834 2853 
Q 2591 2978 2328 3040 
Q 2066 3103 1784 3103 
Q 1356 3103 1142 2972 
Q 928 2841 928 2578 
Q 928 2378 1081 2264 
Q 1234 2150 1697 2047 
L 1894 2003 
Q 2506 1872 2764 1633 
Q 3022 1394 3022 966 
Q 3022 478 2636 193 
Q 2250 -91 1575 -91 
Q 1294 -91 989 -36 
Q 684 19 347 128 
L 347 722 
Q 666 556 975 473 
Q 1284 391 1588 391 
Q 1994 391 2212 530 
Q 2431 669 2431 922 
Q 2431 1156 2273 1281 
Q 2116 1406 1581 1522 
L 1381 1569 
Q 847 1681 609 1914 
Q 372 2147 372 2553 
Q 372 3047 722 3315 
Q 1072 3584 1716 3584 
Q 2034 3584 2315 3537 
Q 2597 3491 2834 3397 
z
" transform="scale(0.015625)"/>
       <path id="DejaVuSans-29" d="M 513 4856 
L 1013 4856 
Q 1481 4119 1714 3412 
Q 1947 2706 1947 2009 
Q 1947 1309 1714 600 
Q 1481 -109 1013 -844 
L 513 -844 
Q 928 -128 1133 580 
Q 1338 1288 1338 2009 
Q 1338 2731 1133 3434 
Q 928 4138 513 4856 
z
" transform="scale(0.015625)"/>
      </defs>
      <use xlink:href="#DejaVuSans-6e"/>
      <use xlink:href="#DejaVuSans-20" transform="translate(63.378906 0)"/>
      <use xlink:href="#DejaVuSans-28" transform="translate(95.166016 0)"/>
      <use xlink:href="#DejaVuSans-75" transform="translate(134.179688 0)"/>
      <use xlink:href="#DejaVuSans-36" transform="translate(197.558594 0)"/>
      <use xlink:href="#DejaVuSans-34" transform="translate(261.181641 0)"/>
      <use xlink:href="#DejaVuSans-20" transform="translate(324.804688 0)"/>
      <use xlink:href="#DejaVuSans-6c" transform="translate(356.591797 0)"/>
      <use xlink:href="#DejaVuSans-69" transform="translate(384.375 0)"/>
      <use xlink:href="#DejaVuSans-6d" transform="translate(412.158203 0)"/>
      <use xlink:href="#DejaVuSans-62" transform="translate(509.570312 0)"/>
      <use xlink:href="#DejaVuSans-73" transform="translate(573.046875 0)"/>
      <use xlink:href="#DejaVuSans-29" transform="translate(625.146484 0)"/>
     </g>
    </g>
   </g>
   <g id="matplotlib.axis_2">
    <g id="ytick_1">
     <g id="line2d_15">
      <path d="M 44.66 422.728 
L 925.2 422.728 
" clip-path="url(#pd8c6d9355b)" style="fill: none; stroke: #b0b0b0; stroke-opacity: 0.3; stroke-width: 0.8; stroke-linecap: square"/>
     </g>
     <g id="line2d_16">
      <defs>
       <path id="m5cefab9dda" d="M 0 0 
L -3.5 0 
" style="stroke: #000000; stroke-width: 0.8"/>
      </defs>
      <g>
       <use xlink:href="#m5cefab9dda" x="44.66" y="422.728" style="stroke: #000000; stroke-width: 0.8"/>
      </g>
     </g>
     <g id="text_9">
      <!-- 0 -->
      <g transform="translate(31.2975 426.527219) scale(0.1 -0.1)">
       <use xlink:href="#DejaVuSans-30"/>
      </g>
     </g>
    </g>
    <g id="ytick_2">
     <g id="line2d_17">
      <path d="M 44.66 336.287635 
L 925.2 336.287635 
" clip-path="url(#pd8c6d9355b)" style="fill: none; stroke: #b0b0b0; stroke-opacity: 0.3; stroke-width: 0.8; stroke-linecap: square"/>
     </g>
     <g id="line2d_18">
      <g>
       <use xlink:href="#m5cefab9dda" x="44.66" y="336.287635" style="stroke: #000000; stroke-width: 0.8"/>
      </g>
     </g>
     <g id="text_10">
      <!-- 20 -->
      <g transform="translate(24.935 340.086854) scale(0.1 -0.1)">
       <use xlink:href="#DejaVuSans-32"/>
       <use xlink:href="#DejaVuSans-30" transform="translate(63.623047 0)"/>
      </g>
     </g>
    </g>
    <g id="ytick_3">
     <g id="line2d_19">
      <path d="M 44.66 249.84727 
L 925.2 249.84727 
" clip-path="url(#pd8c6d9355b)" style="fill: none; stroke: #b0b0b0; stroke-opacity: 0.3; stroke-width: 0.8; stroke-linecap: square"/>
     </g>
     <g id="line2d_20">
      <g>
       <use xlink:href="#m5cefab9dda" x="44.66" y="249.84727" style="stroke: #000000; stroke-width: 0.8"/>
      </g>
     </g>
     <g id="text_11">
      <!-- 40 -->
      <g transform="translate(24.935 253.646489) scale(0.1 -0.1)">
       <use xlink:href="#DejaVuSans-34"/>
       <use xlink:href="#DejaVuSans-30" transform="translate(63.623047 0)"/>
      </g>
     </g>
    </g>
    <g id="ytick_4">
     <g id="line2d_21">
      <path d="M 44.66 163.406905 
L 925.2 163.406905 
" clip-path="url(#pd8c6d9355b)" style="fill: none; stroke: #b0b0b0; stroke-opacity: 0.3; stroke-width: 0.8; stroke-linecap: square"/>
     </g>
     <g id="line2d_22">
      <g>
       <use xlink:href="#m5cefab9dda" x="44.66" y="163.406905" style="stroke: #000000; stroke-width: 0.8"/>
      </g>
     </g>
     <g id="text_12">
      <!-- 60 -->
      <g transform="translate(24.935 167.206124) scale(0.1 -0.1)">
       <use xlink:href="#DejaVuSans-36"/>
       <use xlink:href="#DejaVuSans-30" transform="translate(63.623047 0)"/>
      </g>
     </g>
    </g>
    <g id="ytick_5">
     <g id="line2d_23">
      <path d="M 44.66 76.96654 
L 925.2 76.96654 
" clip-path="url(#pd8c6d9355b)" style="fill: none; stroke: #b0b0b0; stroke-opacity: 0.3; stroke-width: 0.8; stroke-linecap: square"/>
     </g>
     <g id="line2d_24">
      <g>
       <use xlink:href="#m5cefab9dda" x="44.66" y="76.96654" style="stroke: #000000; stroke-width: 0.8"/>
      </g>
     </g>
     <g id="text_13">
      <!-- 80 -->
      <g transform="translate(24.935 80.765759) scale(0.1 -0.1)">
       <use xlink:href="#DejaVuSans-38"/>
       <use xlink:href="#DejaVuSans-30" transform="translate(63.623047 0)"/>
      </g>
     </g>
    </g>
    <g id="text_14">
     <!-- ns / input limb -->
     <g transform="translate(18.855312 259.992594) rotate(-90) scale(0.1 -0.1)">
      <defs>
       <path id="DejaVuSans-2f" d="M 1625 4666 
L 2156 4666 
L 531 -594 
L 0 -594 
L 1625 4666 
z
" transform="scale(0.015625)"/>
       <path id="DejaVuSans-70" d="M 1159 525 
L 1159 -1331 
L 581 -1331 
L 581 3500 
L 1159 3500 
L 1159 2969 
Q 1341 3281 1617 3432 
Q 1894 3584 2278 3584 
Q 2916 3584 3314 3078 
Q 3713 2572 3713 1747 
Q 3713 922 3314 415 
Q 2916 -91 2278 -91 
Q 1894 -91 1617 61 
Q 1341 213 1159 525 
z
M 3116 1747 
Q 3116 2381 2855 2742 
Q 2594 3103 2138 3103 
Q 1681 3103 1420 2742 
Q 1159 2381 1159 1747 
Q 1159 1113 1420 752 
Q 1681 391 2138 391 
Q 2594 391 2855 752 
Q 3116 1113 3116 1747 
z
" transform="scale(0.015625)"/>
       <path id="DejaVuSans-74" d="M 1172 4494 
L 1172 3500 
L 2356 3500 
L 2356 3053 
L 1172 3053 
L 1172 1153 
Q 1172 725 1289 603 
Q 1406 481 1766 481 
L 2356 481 
L 2356 0 
L 1766 0 
Q 1100 0 847 248 
Q 594 497 594 1153 
L 594 3053 
L 172 3053 
L 172 3500 
L 594 3500 
L 594 4494 
L 1172 4494 
z
" transform="scale(0.015625)"/>
      </defs>
      <use xlink:href="#DejaVuSans-6e"/>
      <use xlink:href="#DejaVuSans-73" transform="translate(63.378906 0)"/>
      <use xlink:href="#DejaVuSans-20" transform="translate(115.478516 0)"/>
      <use xlink:href="#DejaVuSans-2f" transform="translate(147.265625 0)"/>
      <use xlink:href="#DejaVuSans-20" transform="translate(180.957031 0)"/>
      <use xlink:href="#DejaVuSans-69" transform="translate(212.744141 0)"/>
      <use xlink:href="#DejaVuSans-6e" transform="translate(240.527344 0)"/>
      <use xlink:href="#DejaVuSans-70" transform="translate(303.90625 0)"/>
      <use xlink:href="#DejaVuSans-75" transform="translate(367.382812 0)"/>
      <use xlink:href="#DejaVuSans-74" transform="translate(430.761719 0)"/>
      <use xlink:href="#DejaVuSans-20" transform="translate(469.970703 0)"/>
      <use xlink:href="#DejaVuSans-6c" transform="translate(501.757812 0)"/>
      <use xlink:href="#DejaVuSans-69" transform="translate(529.541016 0)"/>
      <use xlink:href="#DejaVuSans-6d" transform="translate(557.324219 0)"/>
      <use xlink:href="#DejaVuSans-62" transform="translate(654.736328 0)"/>
     </g>
    </g>
   </g>
   <g id="line2d_25">
    <path d="M 84.684545 229.661284 
L 93.024324 227.48558 
L 101.362746 231.89447 
L 109.700784 213.41352 
L 118.038636 214.115848 
L 126.37585 215.089599 
L 134.715959 103.099623 
L 143.052608 108.269621 
L 151.392329 109.598642 
L 159.730015 212.977861 
L 168.068389 214.550211 
L 176.40729 215.671775 
L 184.745953 217.829326 
L 193.084788 221.62838 
L 201.423517 219.719777 
L 209.761285 219.150135 
L 218.099697 216.683127 
L 226.438069 220.347334 
L 234.776551 222.854969 
L 243.114646 202.714796 
L 251.453787 203.171202 
L 259.792184 202.901508 
L 268.129978 86.792216 
L 276.468844 90.56188 
L 284.80748 92.534449 
L 293.146161 193.677456 
L 301.484493 192.695926 
L 309.822441 194.709122 
L 318.161104 195.96294 
L 326.499104 194.599343 
L 334.837868 196.421073 
L 343.176436 196.984232 
L 351.514848 199.010827 
L 359.853221 201.167514 
L 368.191703 203.526039 
L 376.530442 181.065375 
L 384.868939 183.369875 
L 393.207335 183.727306 
L 401.545696 74.346532 
L 409.883996 77.559521 
L 418.222632 79.310802 
L 426.560815 174.230535 
L 434.899168 175.804614 
L 443.237593 178.623434 
L 451.576256 179.376762 
L 459.914673 181.460839 
L 468.25302 184.250702 
L 476.591588 184.282685 
L 484.93 185.820459 
L 493.268372 184.366532 
L 501.606854 188.95738 
L 509.945271 160.41045 
L 518.283782 170.17605 
L 526.622191 172.864777 
L 534.960564 66.124325 
L 543.299147 68.222232 
L 551.637524 69.970057 
L 559.975966 161.035413 
L 568.314558 159.263818 
L 576.652972 162.161731 
L 584.991407 163.274219 
L 593.329825 163.827437 
L 601.668171 165.066128 
L 610.006739 164.695731 
L 618.345152 164.319283 
L 626.683524 164.792976 
L 635.022006 155.013978 
L 643.360423 155.696424 
L 651.698933 156.069414 
L 660.037342 158.575321 
L 668.375857 52.372527 
L 676.714299 54.573731 
L 685.052675 54.279402 
L 693.391118 154.497064 
L 701.72959 156.698268 
L 710.068124 159.608283 
L 718.406559 161.546708 
L 726.744976 158.835506 
L 735.083423 159.206767 
L 743.421891 160.394026 
L 751.760303 160.48911 
L 760.098763 156.438083 
L 768.437157 140.362336 
L 776.775655 142.817674 
L 785.114085 144.078839 
L 793.452568 148.341214 
L 801.791009 35.271165 
L 810.12945 38.526077 
L 818.467892 41.125771 
L 826.806332 137.057721 
L 835.144801 140.25126 
L 843.483219 143.386452 
L 851.821656 145.047403 
L 860.160128 139.201009 
L 868.498574 141.877635 
L 876.836995 139.103764 
L 885.175455 138.552707 
" clip-path="url(#pd8c6d9355b)" style="fill: none; stroke: #9467bd; stroke-width: 1.1; stroke-linecap: square"/>
   </g>
   <g id="line2d_26">
    <path d="M 84.684545 422.728 
L 84.684545 25.44 
" clip-path="url(#pd8c6d9355b)" style="fill: none; stroke-dasharray: 0.5,0.825; stroke-dashoffset: 0; stroke: #808080; stroke-width: 0.5"/>
   </g>
   <g id="line2d_27">
    <path d="M 218.099697 422.728 
L 218.099697 25.44 
" clip-path="url(#pd8c6d9355b)" style="fill: none; stroke-dasharray: 0.5,0.825; stroke-dashoffset: 0; stroke: #808080; stroke-width: 0.5"/>
   </g>
   <g id="line2d_28">
    <path d="M 351.514848 422.728 
L 351.514848 25.44 
" clip-path="url(#pd8c6d9355b)" style="fill: none; stroke-dasharray: 0.5,0.825; stroke-dashoffset: 0; stroke: #808080; stroke-width: 0.5"/>
   </g>
   <g id="line2d_29">
    <path d="M 484.93 422.728 
L 484.93 25.44 
" clip-path="url(#pd8c6d9355b)" style="fill: none; stroke-dasharray: 0.5,0.825; stroke-dashoffset: 0; stroke: #808080; stroke-width: 0.5"/>
   </g>
   <g id="line2d_30">
    <path d="M 618.345152 422.728 
L 618.345152 25.44 
" clip-path="url(#pd8c6d9355b)" style="fill: none; stroke-dasharray: 0.5,0.825; stroke-dashoffset: 0; stroke: #808080; stroke-width: 0.5"/>
   </g>
   <g id="line2d_31">
    <path d="M 751.760303 422.728 
L 751.760303 25.44 
" clip-path="url(#pd8c6d9355b)" style="fill: none; stroke-dasharray: 0.5,0.825; stroke-dashoffset: 0; stroke: #808080; stroke-width: 0.5"/>
   </g>
   <g id="line2d_32">
    <path d="M 885.175455 422.728 
L 885.175455 25.44 
" clip-path="url(#pd8c6d9355b)" style="fill: none; stroke-dasharray: 0.5,0.825; stroke-dashoffset: 0; stroke: #808080; stroke-width: 0.5"/>
   </g>
   <g id="patch_3">
    <path d="M 44.66 422.728 
L 44.66 25.44 
" style="fill: none; stroke: #000000; stroke-width: 0.8; stroke-linejoin: miter; stroke-linecap: square"/>
   </g>
   <g id="patch_4">
    <path d="M 925.2 422.728 
L 925.2 25.44 
" style="fill: none; stroke: #000000; stroke-width: 0.8; stroke-linejoin: miter; stroke-linecap: square"/>
   </g>
   <g id="patch_5">
    <path d="M 44.66 422.728 
L 925.2 422.728 
" style="fill: none; stroke: #000000; stroke-width: 0.8; stroke-linejoin: miter; stroke-linecap: square"/>
   </g>
   <g id="patch_6">
    <path d="M 44.66 25.44 
L 925.2 25.44 
" style="fill: none; stroke: #000000; stroke-width: 0.8; stroke-linejoin: miter; stroke-linecap: square"/>
   </g>
   <g id="PathCollection_1">
    <defs>
     <path id="m997e4bcefd" d="M 0 1.870829 
C 0.49615 1.870829 0.972045 1.673706 1.322876 1.322876 
C 1.673706 0.972045 1.870829 0.49615 1.870829 0 
C 1.870829 -0.49615 1.673706 -0.972045 1.322876 -1.322876 
C 0.972045 -1.673706 0.49615 -1.870829 0 -1.870829 
C -0.49615 -1.870829 -0.972045 -1.673706 -1.322876 -1.322876 
C -1.673706 -0.972045 -1.870829 -0.49615 -1.870829 0 
C -1.870829 0.49615 -1.673706 0.972045 -1.322876 1.322876 
C -0.972045 1.673706 -0.49615 1.870829 0 1.870829 
z
" style="stroke: #1f77b4"/>
    </defs>
    <g clip-path="url(#pd8c6d9355b)">
     <use xlink:href="#m997e4bcefd" x="159.730015" y="212.977861" style="fill: #1f77b4; stroke: #1f77b4"/>
     <use xlink:href="#m997e4bcefd" x="168.068389" y="214.550211" style="fill: #1f77b4; stroke: #1f77b4"/>
     <use xlink:href="#m997e4bcefd" x="176.40729" y="215.671775" style="fill: #1f77b4; stroke: #1f77b4"/>
     <use xlink:href="#m997e4bcefd" x="184.745953" y="217.829326" style="fill: #1f77b4; stroke: #1f77b4"/>
     <use xlink:href="#m997e4bcefd" x="193.084788" y="221.62838" style="fill: #1f77b4; stroke: #1f77b4"/>
     <use xlink:href="#m997e4bcefd" x="293.146161" y="193.677456" style="fill: #1f77b4; stroke: #1f77b4"/>
     <use xlink:href="#m997e4bcefd" x="301.484493" y="192.695926" style="fill: #1f77b4; stroke: #1f77b4"/>
     <use xlink:href="#m997e4bcefd" x="309.822441" y="194.709122" style="fill: #1f77b4; stroke: #1f77b4"/>
     <use xlink:href="#m997e4bcefd" x="318.161104" y="195.96294" style="fill: #1f77b4; stroke: #1f77b4"/>
     <use xlink:href="#m997e4bcefd" x="426.560815" y="174.230535" style="fill: #1f77b4; stroke: #1f77b4"/>
     <use xlink:href="#m997e4bcefd" x="434.899168" y="175.804614" style="fill: #1f77b4; stroke: #1f77b4"/>
     <use xlink:href="#m997e4bcefd" x="443.237593" y="178.623434" style="fill: #1f77b4; stroke: #1f77b4"/>
     <use xlink:href="#m997e4bcefd" x="451.576256" y="179.376762" style="fill: #1f77b4; stroke: #1f77b4"/>
     <use xlink:href="#m997e4bcefd" x="559.975966" y="161.035413" style="fill: #1f77b4; stroke: #1f77b4"/>
     <use xlink:href="#m997e4bcefd" x="568.314558" y="159.263818" style="fill: #1f77b4; stroke: #1f77b4"/>
     <use xlink:href="#m997e4bcefd" x="576.652972" y="162.161731" style="fill: #1f77b4; stroke: #1f77b4"/>
     <use xlink:href="#m997e4bcefd" x="584.991407" y="163.274219" style="fill: #1f77b4; stroke: #1f77b4"/>
     <use xlink:href="#m997e4bcefd" x="693.391118" y="154.497064" style="fill: #1f77b4; stroke: #1f77b4"/>
     <use xlink:href="#m997e4bcefd" x="701.72959" y="156.698268" style="fill: #1f77b4; stroke: #1f77b4"/>
     <use xlink:href="#m997e4bcefd" x="710.068124" y="159.608283" style="fill: #1f77b4; stroke: #1f77b4"/>
     <use xlink:href="#m997e4bcefd" x="718.406559" y="161.546708" style="fill: #1f77b4; stroke: #1f77b4"/>
     <use xlink:href="#m997e4bcefd" x="826.806332" y="137.057721" style="fill: #1f77b4; stroke: #1f77b4"/>
     <use xlink:href="#m997e4bcefd" x="835.144801" y="140.25126" style="fill: #1f77b4; stroke: #1f77b4"/>
     <use xlink:href="#m997e4bcefd" x="843.483219" y="143.386452" style="fill: #1f77b4; stroke: #1f77b4"/>
     <use xlink:href="#m997e4bcefd" x="851.821656" y="145.047403" style="fill: #1f77b4; stroke: #1f77b4"/>
    </g>
   </g>
   <g id="PathCollection_2">
    <defs>
     <path id="m83a5c2dc0a" d="M 0 1.870829 
C 0.49615 1.870829 0.972045 1.673706 1.322876 1.322876 
C 1.673706 0.972045 1.870829 0.49615 1.870829 0 
C 1.870829 -0.49615 1.673706 -0.972045 1.322876 -1.322876 
C 0.972045 -1.673706 0.49615 -1.870829 0 -1.870829 
C -0.49615 -1.870829 -0.972045 -1.673706 -1.322876 -1.322876 
C -1.673706 -0.972045 -1.870829 -0.49615 -1.870829 0 
C -1.870829 0.49615 -1.673706 0.972045 -1.322876 1.322876 
C -0.972045 1.673706 -0.49615 1.870829 0 1.870829 
z
" style="stroke: #bcbd22"/>
    </defs>
    <g clip-path="url(#pd8c6d9355b)">
     <use xlink:href="#m83a5c2dc0a" x="84.684545" y="229.661284" style="fill: #bcbd22; stroke: #bcbd22"/>
     <use xlink:href="#m83a5c2dc0a" x="93.024324" y="227.48558" style="fill: #bcbd22; stroke: #bcbd22"/>
     <use xlink:href="#m83a5c2dc0a" x="101.362746" y="231.89447" style="fill: #bcbd22; stroke: #bcbd22"/>
     <use xlink:href="#m83a5c2dc0a" x="201.423517" y="219.719777" style="fill: #bcbd22; stroke: #bcbd22"/>
     <use xlink:href="#m83a5c2dc0a" x="209.761285" y="219.150135" style="fill: #bcbd22; stroke: #bcbd22"/>
     <use xlink:href="#m83a5c2dc0a" x="218.099697" y="216.683127" style="fill: #bcbd22; stroke: #bcbd22"/>
     <use xlink:href="#m83a5c2dc0a" x="226.438069" y="220.347334" style="fill: #bcbd22; stroke: #bcbd22"/>
     <use xlink:href="#m83a5c2dc0a" x="234.776551" y="222.854969" style="fill: #bcbd22; stroke: #bcbd22"/>
     <use xlink:href="#m83a5c2dc0a" x="326.499104" y="194.599343" style="fill: #bcbd22; stroke: #bcbd22"/>
     <use xlink:href="#m83a5c2dc0a" x="334.837868" y="196.421073" style="fill: #bcbd22; stroke: #bcbd22"/>
     <use xlink:href="#m83a5c2dc0a" x="343.176436" y="196.984232" style="fill: #bcbd22; stroke: #bcbd22"/>
     <use xlink:href="#m83a5c2dc0a" x="351.514848" y="199.010827" style="fill: #bcbd22; stroke: #bcbd22"/>
     <use xlink:href="#m83a5c2dc0a" x="359.853221" y="201.167514" style="fill: #bcbd22; stroke: #bcbd22"/>
     <use xlink:href="#m83a5c2dc0a" x="368.191703" y="203.526039" style="fill: #bcbd22; stroke: #bcbd22"/>
     <use xlink:href="#m83a5c2dc0a" x="459.914673" y="181.460839" style="fill: #bcbd22; stroke: #bcbd22"/>
     <use xlink:href="#m83a5c2dc0a" x="468.25302" y="184.250702" style="fill: #bcbd22; stroke: #bcbd22"/>
     <use xlink:href="#m83a5c2dc0a" x="476.591588" y="184.282685" style="fill: #bcbd22; stroke: #bcbd22"/>
     <use xlink:href="#m83a5c2dc0a" x="484.93" y="185.820459" style="fill: #bcbd22; stroke: #bcbd22"/>
     <use xlink:href="#m83a5c2dc0a" x="493.268372" y="184.366532" style="fill: #bcbd22; stroke: #bcbd22"/>
     <use xlink:href="#m83a5c2dc0a" x="501.606854" y="188.95738" style="fill: #bcbd22; stroke: #bcbd22"/>
     <use xlink:href="#m83a5c2dc0a" x="593.329825" y="163.827437" style="fill: #bcbd22; stroke: #bcbd22"/>
     <use xlink:href="#m83a5c2dc0a" x="601.668171" y="165.066128" style="fill: #bcbd22; stroke: #bcbd22"/>
     <use xlink:href="#m83a5c2dc0a" x="610.006739" y="164.695731" style="fill: #bcbd22; stroke: #bcbd22"/>
     <use xlink:href="#m83a5c2dc0a" x="618.345152" y="164.319283" style="fill: #bcbd22; stroke: #bcbd22"/>
     <use xlink:href="#m83a5c2dc0a" x="626.683524" y="164.792976" style="fill: #bcbd22; stroke: #bcbd22"/>
     <use xlink:href="#m83a5c2dc0a" x="726.744976" y="158.835506" style="fill: #bcbd22; stroke: #bcbd22"/>
     <use xlink:href="#m83a5c2dc0a" x="735.083423" y="159.206767" style="fill: #bcbd22; stroke: #bcbd22"/>
     <use xlink:href="#m83a5c2dc0a" x="743.421891" y="160.394026" style="fill: #bcbd22; stroke: #bcbd22"/>
     <use xlink:href="#m83a5c2dc0a" x="751.760303" y="160.48911" style="fill: #bcbd22; stroke: #bcbd22"/>
     <use xlink:href="#m83a5c2dc0a" x="760.098763" y="156.438083" style="fill: #bcbd22; stroke: #bcbd22"/>
     <use xlink:href="#m83a5c2dc0a" x="860.160128" y="139.201009" style="fill: #bcbd22; stroke: #bcbd22"/>
     <use xlink:href="#m83a5c2dc0a" x="868.498574" y="141.877635" style="fill: #bcbd22; stroke: #bcbd22"/>
     <use xlink:href="#m83a5c2dc0a" x="876.836995" y="139.103764" style="fill: #bcbd22; stroke: #bcbd22"/>
     <use xlink:href="#m83a5c2dc0a" x="885.175455" y="138.552707" style="fill: #bcbd22; stroke: #bcbd22"/>
    </g>
   </g>
   <g id="PathCollection_3">
    <defs>
     <path id="m779e51976e" d="M 0 1.870829 
C 0.49615 1.870829 0.972045 1.673706 1.322876 1.322876 
C 1.673706 0.972045 1.870829 0.49615 1.870829 0 
C 1.870829 -0.49615 1.673706 -0.972045 1.322876 -1.322876 
C 0.972045 -1.673706 0.49615 -1.870829 0 -1.870829 
C -0.49615 -1.870829 -0.972045 -1.673706 -1.322876 -1.322876 
C -1.673706 -0.972045 -1.870829 -0.49615 -1.870829 0 
C -1.870829 0.49615 -1.673706 0.972045 -1.322876 1.322876 
C -0.972045 1.673706 -0.49615 1.870829 0 1.870829 
z
" style="stroke: #ff7f0e"/>
    </defs>
    <g clip-path="url(#pd8c6d9355b)">
     <use xlink:href="#m779e51976e" x="109.700784" y="213.41352" style="fill: #ff7f0e; stroke: #ff7f0e"/>
     <use xlink:href="#m779e51976e" x="118.038636" y="214.115848" style="fill: #ff7f0e; stroke: #ff7f0e"/>
     <use xlink:href="#m779e51976e" x="126.37585" y="215.089599" style="fill: #ff7f0e; stroke: #ff7f0e"/>
     <use xlink:href="#m779e51976e" x="243.114646" y="202.714796" style="fill: #ff7f0e; stroke: #ff7f0e"/>
     <use xlink:href="#m779e51976e" x="251.453787" y="203.171202" style="fill: #ff7f0e; stroke: #ff7f0e"/>
     <use xlink:href="#m779e51976e" x="259.792184" y="202.901508" style="fill: #ff7f0e; stroke: #ff7f0e"/>
     <use xlink:href="#m779e51976e" x="376.530442" y="181.065375" style="fill: #ff7f0e; stroke: #ff7f0e"/>
     <use xlink:href="#m779e51976e" x="384.868939" y="183.369875" style="fill: #ff7f0e; stroke: #ff7f0e"/>
     <use xlink:href="#m779e51976e" x="393.207335" y="183.727306" style="fill: #ff7f0e; stroke: #ff7f0e"/>
     <use xlink:href="#m779e51976e" x="509.945271" y="160.41045" style="fill: #ff7f0e; stroke: #ff7f0e"/>
     <use xlink:href="#m779e51976e" x="518.283782" y="170.17605" style="fill: #ff7f0e; stroke: #ff7f0e"/>
     <use xlink:href="#m779e51976e" x="526.622191" y="172.864777" style="fill: #ff7f0e; stroke: #ff7f0e"/>
     <use xlink:href="#m779e51976e" x="635.022006" y="155.013978" style="fill: #ff7f0e; stroke: #ff7f0e"/>
     <use xlink:href="#m779e51976e" x="643.360423" y="155.696424" style="fill: #ff7f0e; stroke: #ff7f0e"/>
     <use xlink:href="#m779e51976e" x="651.698933" y="156.069414" style="fill: #ff7f0e; stroke: #ff7f0e"/>
     <use xlink:href="#m779e51976e" x="660.037342" y="158.575321" style="fill: #ff7f0e; stroke: #ff7f0e"/>
     <use xlink:href="#m779e51976e" x="768.437157" y="140.362336" style="fill: #ff7f0e; stroke: #ff7f0e"/>
     <use xlink:href="#m779e51976e" x="776.775655" y="142.817674" style="fill: #ff7f0e; stroke: #ff7f0e"/>
     <use xlink:href="#m779e51976e" x="785.114085" y="144.078839" style="fill: #ff7f0e; stroke: #ff7f0e"/>
     <use xlink:href="#m779e51976e" x="793.452568" y="148.341214" style="fill: #ff7f0e; stroke: #ff7f0e"/>
    </g>
   </g>
   <g id="PathCollection_4">
    <defs>
     <path id="m22d7b349c2" d="M 0 1.870829 
C 0.49615 1.870829 0.972045 1.673706 1.322876 1.322876 
C 1.673706 0.972045 1.870829 0.49615 1.870829 0 
C 1.870829 -0.49615 1.673706 -0.972045 1.322876 -1.322876 
C 0.972045 -1.673706 0.49615 -1.870829 0 -1.870829 
C -0.49615 -1.870829 -0.972045 -1.673706 -1.322876 -1.322876 
C -1.673706 -0.972045 -1.870829 -0.49615 -1.870829 0 
C -1.870829 0.49615 -1.673706 0.972045 -1.322876 1.322876 
C -0.972045 1.673706 -0.49615 1.870829 0 1.870829 
z
" style="stroke: #d62728"/>
    </defs>
    <g clip-path="url(#pd8c6d9355b)">
     <use xlink:href="#m22d7b349c2" x="134.715959" y="103.099623" style="fill: #d62728; stroke: #d62728"/>
     <use xlink:href="#m22d7b349c2" x="143.052608" y="108.269621" style="fill: #d62728; stroke: #d62728"/>
     <use xlink:href="#m22d7b349c2" x="151.392329" y="109.598642" style="fill: #d62728; stroke: #d62728"/>
     <use xlink:href="#m22d7b349c2" x="268.129978" y="86.792216" style="fill: #d62728; stroke: #d62728"/>
     <use xlink:href="#m22d7b349c2" x="276.468844" y="90.56188" style="fill: #d62728; stroke: #d62728"/>
     <use xlink:href="#m22d7b349c2" x="284.80748" y="92.534449" style="fill: #d62728; stroke: #d62728"/>
     <use xlink:href="#m22d7b349c2" x="401.545696" y="74.346532" style="fill: #d62728; stroke: #d62728"/>
     <use xlink:href="#m22d7b349c2" x="409.883996" y="77.559521" style="fill: #d62728; stroke: #d62728"/>
     <use xlink:href="#m22d7b349c2" x="418.222632" y="79.310802" style="fill: #d62728; stroke: #d62728"/>
     <use xlink:href="#m22d7b349c2" x="534.960564" y="66.124325" style="fill: #d62728; stroke: #d62728"/>
     <use xlink:href="#m22d7b349c2" x="543.299147" y="68.222232" style="fill: #d62728; stroke: #d62728"/>
     <use xlink:href="#m22d7b349c2" x="551.637524" y="69.970057" style="fill: #d62728; stroke: #d62728"/>
     <use xlink:href="#m22d7b349c2" x="668.375857" y="52.372527" style="fill: #d62728; stroke: #d62728"/>
     <use xlink:href="#m22d7b349c2" x="676.714299" y="54.573731" style="fill: #d62728; stroke: #d62728"/>
     <use xlink:href="#m22d7b349c2" x="685.052675" y="54.279402" style="fill: #d62728; stroke: #d62728"/>
     <use xlink:href="#m22d7b349c2" x="801.791009" y="35.271165" style="fill: #d62728; stroke: #d62728"/>
     <use xlink:href="#m22d7b349c2" x="810.12945" y="38.526077" style="fill: #d62728; stroke: #d62728"/>
     <use xlink:href="#m22d7b349c2" x="818.467892" y="41.125771" style="fill: #d62728; stroke: #d62728"/>
    </g>
   </g>
   <g id="text_15">
    <!-- balanced mul, an = bn = n, 1/16-octave grid, n in [2^16, 2^22] (solo process, median of 7) -->
    <g transform="translate(208.660938 19.44) scale(0.12 -0.12)">
     <defs>
      <path id="DejaVuSans-61" d="M 2194 1759 
Q 1497 1759 1228 1600 
Q 959 1441 959 1056 
Q 959 750 1161 570 
Q 1363 391 1709 391 
Q 2188 391 2477 730 
Q 2766 1069 2766 1631 
L 2766 1759 
L 2194 1759 
z
M 3341 1997 
L 3341 0 
L 2766 0 
L 2766 531 
Q 2569 213 2275 61 
Q 1981 -91 1556 -91 
Q 1019 -91 701 211 
Q 384 513 384 1019 
Q 384 1609 779 1909 
Q 1175 2209 1959 2209 
L 2766 2209 
L 2766 2266 
Q 2766 2663 2505 2880 
Q 2244 3097 1772 3097 
Q 1472 3097 1187 3025 
Q 903 2953 641 2809 
L 641 3341 
Q 956 3463 1253 3523 
Q 1550 3584 1831 3584 
Q 2591 3584 2966 3190 
Q 3341 2797 3341 1997 
z
" transform="scale(0.015625)"/>
      <path id="DejaVuSans-63" d="M 3122 3366 
L 3122 2828 
Q 2878 2963 2633 3030 
Q 2388 3097 2138 3097 
Q 1578 3097 1268 2742 
Q 959 2388 959 1747 
Q 959 1106 1268 751 
Q 1578 397 2138 397 
Q 2388 397 2633 464 
Q 2878 531 3122 666 
L 3122 134 
Q 2881 22 2623 -34 
Q 2366 -91 2075 -91 
Q 1284 -91 818 406 
Q 353 903 353 1747 
Q 353 2603 823 3093 
Q 1294 3584 2113 3584 
Q 2378 3584 2631 3529 
Q 2884 3475 3122 3366 
z
" transform="scale(0.015625)"/>
      <path id="DejaVuSans-65" d="M 3597 1894 
L 3597 1613 
L 953 1613 
Q 991 1019 1311 708 
Q 1631 397 2203 397 
Q 2534 397 2845 478 
Q 3156 559 3463 722 
L 3463 178 
Q 3153 47 2828 -22 
Q 2503 -91 2169 -91 
Q 1331 -91 842 396 
Q 353 884 353 1716 
Q 353 2575 817 3079 
Q 1281 3584 2069 3584 
Q 2775 3584 3186 3129 
Q 3597 2675 3597 1894 
z
M 3022 2063 
Q 3016 2534 2758 2815 
Q 2500 3097 2075 3097 
Q 1594 3097 1305 2825 
Q 1016 2553 972 2059 
L 3022 2063 
z
" transform="scale(0.015625)"/>
      <path id="DejaVuSans-64" d="M 2906 2969 
L 2906 4863 
L 3481 4863 
L 3481 0 
L 2906 0 
L 2906 525 
Q 2725 213 2448 61 
Q 2172 -91 1784 -91 
Q 1150 -91 751 415 
Q 353 922 353 1747 
Q 353 2572 751 3078 
Q 1150 3584 1784 3584 
Q 2172 3584 2448 3432 
Q 2725 3281 2906 2969 
z
M 947 1747 
Q 947 1113 1208 752 
Q 1469 391 1925 391 
Q 2381 391 2643 752 
Q 2906 1113 2906 1747 
Q 2906 2381 2643 2742 
Q 2381 3103 1925 3103 
Q 1469 3103 1208 2742 
Q 947 2381 947 1747 
z
" transform="scale(0.015625)"/>
      <path id="DejaVuSans-2c" d="M 750 794 
L 1409 794 
L 1409 256 
L 897 -744 
L 494 -744 
L 750 256 
L 750 794 
z
" transform="scale(0.015625)"/>
      <path id="DejaVuSans-3d" d="M 678 2906 
L 4684 2906 
L 4684 2381 
L 678 2381 
L 678 2906 
z
M 678 1631 
L 4684 1631 
L 4684 1100 
L 678 1100 
L 678 1631 
z
" transform="scale(0.015625)"/>
      <path id="DejaVuSans-2d" d="M 313 2009 
L 1997 2009 
L 1997 1497 
L 313 1497 
L 313 2009 
z
" transform="scale(0.015625)"/>
      <path id="DejaVuSans-6f" d="M 1959 3097 
Q 1497 3097 1228 2736 
Q 959 2375 959 1747 
Q 959 1119 1226 758 
Q 1494 397 1959 397 
Q 2419 397 2687 759 
Q 2956 1122 2956 1747 
Q 2956 2369 2687 2733 
Q 2419 3097 1959 3097 
z
M 1959 3584 
Q 2709 3584 3137 3096 
Q 3566 2609 3566 1747 
Q 3566 888 3137 398 
Q 2709 -91 1959 -91 
Q 1206 -91 779 398 
Q 353 888 353 1747 
Q 353 2609 779 3096 
Q 1206 3584 1959 3584 
z
" transform="scale(0.015625)"/>
      <path id="DejaVuSans-76" d="M 191 3500 
L 800 3500 
L 1894 563 
L 2988 3500 
L 3597 3500 
L 2284 0 
L 1503 0 
L 191 3500 
z
" transform="scale(0.015625)"/>
      <path id="DejaVuSans-67" d="M 2906 1791 
Q 2906 2416 2648 2759 
Q 2391 3103 1925 3103 
Q 1463 3103 1205 2759 
Q 947 2416 947 1791 
Q 947 1169 1205 825 
Q 1463 481 1925 481 
Q 2391 481 2648 825 
Q 2906 1169 2906 1791 
z
M 3481 434 
Q 3481 -459 3084 -895 
Q 2688 -1331 1869 -1331 
Q 1566 -1331 1297 -1286 
Q 1028 -1241 775 -1147 
L 775 -588 
Q 1028 -725 1275 -790 
Q 1522 -856 1778 -856 
Q 2344 -856 2625 -561 
Q 2906 -266 2906 331 
L 2906 616 
Q 2728 306 2450 153 
Q 2172 0 1784 0 
Q 1141 0 747 490 
Q 353 981 353 1791 
Q 353 2603 747 3093 
Q 1141 3584 1784 3584 
Q 2172 3584 2450 3431 
Q 2728 3278 2906 2969 
L 2906 3500 
L 3481 3500 
L 3481 434 
z
" transform="scale(0.015625)"/>
      <path id="DejaVuSans-72" d="M 2631 2963 
Q 2534 3019 2420 3045 
Q 2306 3072 2169 3072 
Q 1681 3072 1420 2755 
Q 1159 2438 1159 1844 
L 1159 0 
L 581 0 
L 581 3500 
L 1159 3500 
L 1159 2956 
Q 1341 3275 1631 3429 
Q 1922 3584 2338 3584 
Q 2397 3584 2469 3576 
Q 2541 3569 2628 3553 
L 2631 2963 
z
" transform="scale(0.015625)"/>
      <path id="DejaVuSans-5b" d="M 550 4863 
L 1875 4863 
L 1875 4416 
L 1125 4416 
L 1125 -397 
L 1875 -397 
L 1875 -844 
L 550 -844 
L 550 4863 
z
" transform="scale(0.015625)"/>
      <path id="DejaVuSans-5e" d="M 2988 4666 
L 4684 2925 
L 4056 2925 
L 2681 4159 
L 1306 2925 
L 678 2925 
L 2375 4666 
L 2988 4666 
z
" transform="scale(0.015625)"/>
      <path id="DejaVuSans-5d" d="M 1947 4863 
L 1947 -844 
L 622 -844 
L 622 -397 
L 1369 -397 
L 1369 4416 
L 622 4416 
L 622 4863 
L 1947 4863 
z
" transform="scale(0.015625)"/>
      <path id="DejaVuSans-66" d="M 2375 4863 
L 2375 4384 
L 1825 4384 
Q 1516 4384 1395 4259 
Q 1275 4134 1275 3809 
L 1275 3500 
L 2222 3500 
L 2222 3053 
L 1275 3053 
L 1275 0 
L 697 0 
L 697 3053 
L 147 3053 
L 147 3500 
L 697 3500 
L 697 3744 
Q 697 4328 969 4595 
Q 1241 4863 1831 4863 
L 2375 4863 
z
" transform="scale(0.015625)"/>
     </defs>
     <use xlink:href="#DejaVuSans-62"/>
     <use xlink:href="#DejaVuSans-61" transform="translate(63.476562 0)"/>
     <use xlink:href="#DejaVuSans-6c" transform="translate(124.755859 0)"/>
     <use xlink:href="#DejaVuSans-61" transform="translate(152.539062 0)"/>
     <use xlink:href="#DejaVuSans-6e" transform="translate(213.818359 0)"/>
     <use xlink:href="#DejaVuSans-63" transform="translate(277.197266 0)"/>
     <use xlink:href="#DejaVuSans-65" transform="translate(332.177734 0)"/>
     <use xlink:href="#DejaVuSans-64" transform="translate(393.701172 0)"/>
     <use xlink:href="#DejaVuSans-20" transform="translate(457.177734 0)"/>
     <use xlink:href="#DejaVuSans-6d" transform="translate(488.964844 0)"/>
     <use xlink:href="#DejaVuSans-75" transform="translate(586.376953 0)"/>
     <use xlink:href="#DejaVuSans-6c" transform="translate(649.755859 0)"/>
     <use xlink:href="#DejaVuSans-2c" transform="translate(677.539062 0)"/>
     <use xlink:href="#DejaVuSans-20" transform="translate(709.326172 0)"/>
     <use xlink:href="#DejaVuSans-61" transform="translate(741.113281 0)"/>
     <use xlink:href="#DejaVuSans-6e" transform="translate(802.392578 0)"/>
     <use xlink:href="#DejaVuSans-20" transform="translate(865.771484 0)"/>
     <use xlink:href="#DejaVuSans-3d" transform="translate(897.558594 0)"/>
     <use xlink:href="#DejaVuSans-20" transform="translate(981.347656 0)"/>
     <use xlink:href="#DejaVuSans-62" transform="translate(1013.134766 0)"/>
     <use xlink:href="#DejaVuSans-6e" transform="translate(1076.611328 0)"/>
     <use xlink:href="#DejaVuSans-20" transform="translate(1139.990234 0)"/>
     <use xlink:href="#DejaVuSans-3d" transform="translate(1171.777344 0)"/>
     <use xlink:href="#DejaVuSans-20" transform="translate(1255.566406 0)"/>
     <use xlink:href="#DejaVuSans-6e" transform="translate(1287.353516 0)"/>
     <use xlink:href="#DejaVuSans-2c" transform="translate(1350.732422 0)"/>
     <use xlink:href="#DejaVuSans-20" transform="translate(1382.519531 0)"/>
     <use xlink:href="#DejaVuSans-31" transform="translate(1414.306641 0)"/>
     <use xlink:href="#DejaVuSans-2f" transform="translate(1477.929688 0)"/>
     <use xlink:href="#DejaVuSans-31" transform="translate(1511.621094 0)"/>
     <use xlink:href="#DejaVuSans-36" transform="translate(1575.244141 0)"/>
     <use xlink:href="#DejaVuSans-2d" transform="translate(1638.867188 0)"/>
     <use xlink:href="#DejaVuSans-6f" transform="translate(1676.826172 0)"/>
     <use xlink:href="#DejaVuSans-63" transform="translate(1738.007812 0)"/>
     <use xlink:href="#DejaVuSans-74" transform="translate(1792.988281 0)"/>
     <use xlink:href="#DejaVuSans-61" transform="translate(1832.197266 0)"/>
     <use xlink:href="#DejaVuSans-76" transform="translate(1893.476562 0)"/>
     <use xlink:href="#DejaVuSans-65" transform="translate(1952.65625 0)"/>
     <use xlink:href="#DejaVuSans-20" transform="translate(2014.179688 0)"/>
     <use xlink:href="#DejaVuSans-67" transform="translate(2045.966797 0)"/>
     <use xlink:href="#DejaVuSans-72" transform="translate(2109.443359 0)"/>
     <use xlink:href="#DejaVuSans-69" transform="translate(2150.556641 0)"/>
     <use xlink:href="#DejaVuSans-64" transform="translate(2178.339844 0)"/>
     <use xlink:href="#DejaVuSans-2c" transform="translate(2241.816406 0)"/>
     <use xlink:href="#DejaVuSans-20" transform="translate(2273.603516 0)"/>
     <use xlink:href="#DejaVuSans-6e" transform="translate(2305.390625 0)"/>
     <use xlink:href="#DejaVuSans-20" transform="translate(2368.769531 0)"/>
     <use xlink:href="#DejaVuSans-69" transform="translate(2400.556641 0)"/>
     <use xlink:href="#DejaVuSans-6e" transform="translate(2428.339844 0)"/>
     <use xlink:href="#DejaVuSans-20" transform="translate(2491.71875 0)"/>
     <use xlink:href="#DejaVuSans-5b" transform="translate(2523.505859 0)"/>
     <use xlink:href="#DejaVuSans-32" transform="translate(2562.519531 0)"/>
     <use xlink:href="#DejaVuSans-5e" transform="translate(2626.142578 0)"/>
     <use xlink:href="#DejaVuSans-31" transform="translate(2709.931641 0)"/>
     <use xlink:href="#DejaVuSans-36" transform="translate(2773.554688 0)"/>
     <use xlink:href="#DejaVuSans-2c" transform="translate(2837.177734 0)"/>
     <use xlink:href="#DejaVuSans-20" transform="translate(2868.964844 0)"/>
     <use xlink:href="#DejaVuSans-32" transform="translate(2900.751953 0)"/>
     <use xlink:href="#DejaVuSans-5e" transform="translate(2964.375 0)"/>
     <use xlink:href="#DejaVuSans-32" transform="translate(3048.164062 0)"/>
     <use xlink:href="#DejaVuSans-32" transform="translate(3111.787109 0)"/>
     <use xlink:href="#DejaVuSans-5d" transform="translate(3175.410156 0)"/>
     <use xlink:href="#DejaVuSans-20" transform="translate(3214.423828 0)"/>
     <use xlink:href="#DejaVuSans-28" transform="translate(3246.210938 0)"/>
     <use xlink:href="#DejaVuSans-73" transform="translate(3285.224609 0)"/>
     <use xlink:href="#DejaVuSans-6f" transform="translate(3337.324219 0)"/>
     <use xlink:href="#DejaVuSans-6c" transform="translate(3398.505859 0)"/>
     <use xlink:href="#DejaVuSans-6f" transform="translate(3426.289062 0)"/>
     <use xlink:href="#DejaVuSans-20" transform="translate(3487.470703 0)"/>
     <use xlink:href="#DejaVuSans-70" transform="translate(3519.257812 0)"/>
     <use xlink:href="#DejaVuSans-72" transform="translate(3582.734375 0)"/>
     <use xlink:href="#DejaVuSans-6f" transform="translate(3621.597656 0)"/>
     <use xlink:href="#DejaVuSans-63" transform="translate(3682.779297 0)"/>
     <use xlink:href="#DejaVuSans-65" transform="translate(3737.759766 0)"/>
     <use xlink:href="#DejaVuSans-73" transform="translate(3799.283203 0)"/>
     <use xlink:href="#DejaVuSans-73" transform="translate(3851.382812 0)"/>
     <use xlink:href="#DejaVuSans-2c" transform="translate(3903.482422 0)"/>
     <use xlink:href="#DejaVuSans-20" transform="translate(3935.269531 0)"/>
     <use xlink:href="#DejaVuSans-6d" transform="translate(3967.056641 0)"/>
     <use xlink:href="#DejaVuSans-65" transform="translate(4064.46875 0)"/>
     <use xlink:href="#DejaVuSans-64" transform="translate(4125.992188 0)"/>
     <use xlink:href="#DejaVuSans-69" transform="translate(4189.46875 0)"/>
     <use xlink:href="#DejaVuSans-61" transform="translate(4217.251953 0)"/>
     <use xlink:href="#DejaVuSans-6e" transform="translate(4278.53125 0)"/>
     <use xlink:href="#DejaVuSans-20" transform="translate(4341.910156 0)"/>
     <use xlink:href="#DejaVuSans-6f" transform="translate(4373.697266 0)"/>
     <use xlink:href="#DejaVuSans-66" transform="translate(4434.878906 0)"/>
     <use xlink:href="#DejaVuSans-20" transform="translate(4470.083984 0)"/>
     <use xlink:href="#DejaVuSans-37" transform="translate(4501.871094 0)"/>
     <use xlink:href="#DejaVuSans-29" transform="translate(4565.494141 0)"/>
    </g>
   </g>
   <g id="legend_1">
    <g id="patch_7">
     <path d="M 51.66 417.728 
L 351.005313 417.728 
Q 353.005313 417.728 353.005313 415.728 
L 353.005313 343.05925 
Q 353.005313 341.05925 351.005313 341.05925 
L 51.66 341.05925 
Q 49.66 341.05925 49.66 343.05925 
L 49.66 415.728 
Q 49.66 417.728 51.66 417.728 
z
" style="fill: #ffffff; opacity: 0.8; stroke: #cccccc; stroke-linejoin: miter"/>
    </g>
    <g id="line2d_33">
     <path d="M 53.66 349.157688 
L 63.66 349.157688 
L 73.66 349.157688 
" style="fill: none; stroke: #9467bd; stroke-width: 1.1; stroke-linecap: square"/>
    </g>
    <g id="text_16">
     <!-- FLINT fft_small (mpn_mul_default_mpn_ctx, 1 thread) -->
     <g transform="translate(81.66 352.657688) scale(0.1 -0.1)">
      <defs>
       <path id="DejaVuSans-46" d="M 628 4666 
L 3309 4666 
L 3309 4134 
L 1259 4134 
L 1259 2759 
L 3109 2759 
L 3109 2228 
L 1259 2228 
L 1259 0 
L 628 0 
L 628 4666 
z
" transform="scale(0.015625)"/>
       <path id="DejaVuSans-4c" d="M 628 4666 
L 1259 4666 
L 1259 531 
L 3531 531 
L 3531 0 
L 628 0 
L 628 4666 
z
" transform="scale(0.015625)"/>
       <path id="DejaVuSans-49" d="M 628 4666 
L 1259 4666 
L 1259 0 
L 628 0 
L 628 4666 
z
" transform="scale(0.015625)"/>
       <path id="DejaVuSans-4e" d="M 628 4666 
L 1478 4666 
L 3547 763 
L 3547 4666 
L 4159 4666 
L 4159 0 
L 3309 0 
L 1241 3903 
L 1241 0 
L 628 0 
L 628 4666 
z
" transform="scale(0.015625)"/>
       <path id="DejaVuSans-54" d="M -19 4666 
L 3928 4666 
L 3928 4134 
L 2272 4134 
L 2272 0 
L 1638 0 
L 1638 4134 
L -19 4134 
L -19 4666 
z
" transform="scale(0.015625)"/>
       <path id="DejaVuSans-5f" d="M 3263 -1063 
L 3263 -1509 
L -63 -1509 
L -63 -1063 
L 3263 -1063 
z
" transform="scale(0.015625)"/>
       <path id="DejaVuSans-78" d="M 3513 3500 
L 2247 1797 
L 3578 0 
L 2900 0 
L 1881 1375 
L 863 0 
L 184 0 
L 1544 1831 
L 300 3500 
L 978 3500 
L 1906 2253 
L 2834 3500 
L 3513 3500 
z
" transform="scale(0.015625)"/>
       <path id="DejaVuSans-68" d="M 3513 2113 
L 3513 0 
L 2938 0 
L 2938 2094 
Q 2938 2591 2744 2837 
Q 2550 3084 2163 3084 
Q 1697 3084 1428 2787 
Q 1159 2491 1159 1978 
L 1159 0 
L 581 0 
L 581 4863 
L 1159 4863 
L 1159 2956 
Q 1366 3272 1645 3428 
Q 1925 3584 2291 3584 
Q 2894 3584 3203 3211 
Q 3513 2838 3513 2113 
z
" transform="scale(0.015625)"/>
      </defs>
      <use xlink:href="#DejaVuSans-46"/>
      <use xlink:href="#DejaVuSans-4c" transform="translate(57.519531 0)"/>
      <use xlink:href="#DejaVuSans-49" transform="translate(113.232422 0)"/>
      <use xlink:href="#DejaVuSans-4e" transform="translate(142.724609 0)"/>
      <use xlink:href="#DejaVuSans-54" transform="translate(217.529297 0)"/>
      <use xlink:href="#DejaVuSans-20" transform="translate(278.613281 0)"/>
      <use xlink:href="#DejaVuSans-66" transform="translate(310.400391 0)"/>
      <use xlink:href="#DejaVuSans-66" transform="translate(345.605469 0)"/>
      <use xlink:href="#DejaVuSans-74" transform="translate(379.060547 0)"/>
      <use xlink:href="#DejaVuSans-5f" transform="translate(418.269531 0)"/>
      <use xlink:href="#DejaVuSans-73" transform="translate(468.269531 0)"/>
      <use xlink:href="#DejaVuSans-6d" transform="translate(520.369141 0)"/>
      <use xlink:href="#DejaVuSans-61" transform="translate(617.78125 0)"/>
      <use xlink:href="#DejaVuSans-6c" transform="translate(679.060547 0)"/>
      <use xlink:href="#DejaVuSans-6c" transform="translate(706.84375 0)"/>
      <use xlink:href="#DejaVuSans-20" transform="translate(734.626953 0)"/>
      <use xlink:href="#DejaVuSans-28" transform="translate(766.414062 0)"/>
      <use xlink:href="#DejaVuSans-6d" transform="translate(805.427734 0)"/>
      <use xlink:href="#DejaVuSans-70" transform="translate(902.839844 0)"/>
      <use xlink:href="#DejaVuSans-6e" transform="translate(966.316406 0)"/>
      <use xlink:href="#DejaVuSans-5f" transform="translate(1029.695312 0)"/>
      <use xlink:href="#DejaVuSans-6d" transform="translate(1079.695312 0)"/>
      <use xlink:href="#DejaVuSans-75" transform="translate(1177.107422 0)"/>
      <use xlink:href="#DejaVuSans-6c" transform="translate(1240.486328 0)"/>
      <use xlink:href="#DejaVuSans-5f" transform="translate(1268.269531 0)"/>
      <use xlink:href="#DejaVuSans-64" transform="translate(1318.269531 0)"/>
      <use xlink:href="#DejaVuSans-65" transform="translate(1381.746094 0)"/>
      <use xlink:href="#DejaVuSans-66" transform="translate(1443.269531 0)"/>
      <use xlink:href="#DejaVuSans-61" transform="translate(1478.474609 0)"/>
      <use xlink:href="#DejaVuSans-75" transform="translate(1539.753906 0)"/>
      <use xlink:href="#DejaVuSans-6c" transform="translate(1603.132812 0)"/>
      <use xlink:href="#DejaVuSans-74" transform="translate(1630.916016 0)"/>
      <use xlink:href="#DejaVuSans-5f" transform="translate(1670.125 0)"/>
      <use xlink:href="#DejaVuSans-6d" transform="translate(1720.125 0)"/>
      <use xlink:href="#DejaVuSans-70" transform="translate(1817.537109 0)"/>
      <use xlink:href="#DejaVuSans-6e" transform="translate(1881.013672 0)"/>
      <use xlink:href="#DejaVuSans-5f" transform="translate(1944.392578 0)"/>
      <use xlink:href="#DejaVuSans-63" transform="translate(1994.392578 0)"/>
      <use xlink:href="#DejaVuSans-74" transform="translate(2049.373047 0)"/>
      <use xlink:href="#DejaVuSans-78" transform="translate(2088.582031 0)"/>
      <use xlink:href="#DejaVuSans-2c" transform="translate(2147.761719 0)"/>
      <use xlink:href="#DejaVuSans-20" transform="translate(2179.548828 0)"/>
      <use xlink:href="#DejaVuSans-31" transform="translate(2211.335938 0)"/>
      <use xlink:href="#DejaVuSans-20" transform="translate(2274.958984 0)"/>
      <use xlink:href="#DejaVuSans-74" transform="translate(2306.746094 0)"/>
      <use xlink:href="#DejaVuSans-68" transform="translate(2345.955078 0)"/>
      <use xlink:href="#DejaVuSans-72" transform="translate(2409.333984 0)"/>
      <use xlink:href="#DejaVuSans-65" transform="translate(2448.197266 0)"/>
      <use xlink:href="#DejaVuSans-61" transform="translate(2509.720703 0)"/>
      <use xlink:href="#DejaVuSans-64" transform="translate(2571 0)"/>
      <use xlink:href="#DejaVuSans-29" transform="translate(2634.476562 0)"/>
     </g>
    </g>
    <g id="PathCollection_5">
     <g>
      <use xlink:href="#m997e4bcefd" x="63.66" y="364.988938" style="fill: #1f77b4; stroke: #1f77b4"/>
     </g>
    </g>
    <g id="text_17">
     <!-- np = 5 primes -->
     <g transform="translate(81.66 367.613938) scale(0.1 -0.1)">
      <defs>
       <path id="DejaVuSans-35" d="M 691 4666 
L 3169 4666 
L 3169 4134 
L 1269 4134 
L 1269 2991 
Q 1406 3038 1543 3061 
Q 1681 3084 1819 3084 
Q 2600 3084 3056 2656 
Q 3513 2228 3513 1497 
Q 3513 744 3044 326 
Q 2575 -91 1722 -91 
Q 1428 -91 1123 -41 
Q 819 9 494 109 
L 494 744 
Q 775 591 1075 516 
Q 1375 441 1709 441 
Q 2250 441 2565 725 
Q 2881 1009 2881 1497 
Q 2881 1984 2565 2268 
Q 2250 2553 1709 2553 
Q 1456 2553 1204 2497 
Q 953 2441 691 2322 
L 691 4666 
z
" transform="scale(0.015625)"/>
      </defs>
      <use xlink:href="#DejaVuSans-6e"/>
      <use xlink:href="#DejaVuSans-70" transform="translate(63.378906 0)"/>
      <use xlink:href="#DejaVuSans-20" transform="translate(126.855469 0)"/>
      <use xlink:href="#DejaVuSans-3d" transform="translate(158.642578 0)"/>
      <use xlink:href="#DejaVuSans-20" transform="translate(242.431641 0)"/>
      <use xlink:href="#DejaVuSans-35" transform="translate(274.21875 0)"/>
      <use xlink:href="#DejaVuSans-20" transform="translate(337.841797 0)"/>
      <use xlink:href="#DejaVuSans-70" transform="translate(369.628906 0)"/>
      <use xlink:href="#DejaVuSans-72" transform="translate(433.105469 0)"/>
      <use xlink:href="#DejaVuSans-69" transform="translate(474.21875 0)"/>
      <use xlink:href="#DejaVuSans-6d" transform="translate(502.001953 0)"/>
      <use xlink:href="#DejaVuSans-65" transform="translate(599.414062 0)"/>
      <use xlink:href="#DejaVuSans-73" transform="translate(660.9375 0)"/>
     </g>
    </g>
    <g id="PathCollection_6">
     <g>
      <use xlink:href="#m83a5c2dc0a" x="63.66" y="379.667062" style="fill: #bcbd22; stroke: #bcbd22"/>
     </g>
    </g>
    <g id="text_18">
     <!-- np = 6 primes -->
     <g transform="translate(81.66 382.292062) scale(0.1 -0.1)">
      <use xlink:href="#DejaVuSans-6e"/>
      <use xlink:href="#DejaVuSans-70" transform="translate(63.378906 0)"/>
      <use xlink:href="#DejaVuSans-20" transform="translate(126.855469 0)"/>
      <use xlink:href="#DejaVuSans-3d" transform="translate(158.642578 0)"/>
      <use xlink:href="#DejaVuSans-20" transform="translate(242.431641 0)"/>
      <use xlink:href="#DejaVuSans-36" transform="translate(274.21875 0)"/>
      <use xlink:href="#DejaVuSans-20" transform="translate(337.841797 0)"/>
      <use xlink:href="#DejaVuSans-70" transform="translate(369.628906 0)"/>
      <use xlink:href="#DejaVuSans-72" transform="translate(433.105469 0)"/>
      <use xlink:href="#DejaVuSans-69" transform="translate(474.21875 0)"/>
      <use xlink:href="#DejaVuSans-6d" transform="translate(502.001953 0)"/>
      <use xlink:href="#DejaVuSans-65" transform="translate(599.414062 0)"/>
      <use xlink:href="#DejaVuSans-73" transform="translate(660.9375 0)"/>
     </g>
    </g>
    <g id="PathCollection_7">
     <g>
      <use xlink:href="#m779e51976e" x="63.66" y="394.345188" style="fill: #ff7f0e; stroke: #ff7f0e"/>
     </g>
    </g>
    <g id="text_19">
     <!-- np = 7 primes -->
     <g transform="translate(81.66 396.970188) scale(0.1 -0.1)">
      <use xlink:href="#DejaVuSans-6e"/>
      <use xlink:href="#DejaVuSans-70" transform="translate(63.378906 0)"/>
      <use xlink:href="#DejaVuSans-20" transform="translate(126.855469 0)"/>
      <use xlink:href="#DejaVuSans-3d" transform="translate(158.642578 0)"/>
      <use xlink:href="#DejaVuSans-20" transform="translate(242.431641 0)"/>
      <use xlink:href="#DejaVuSans-37" transform="translate(274.21875 0)"/>
      <use xlink:href="#DejaVuSans-20" transform="translate(337.841797 0)"/>
      <use xlink:href="#DejaVuSans-70" transform="translate(369.628906 0)"/>
      <use xlink:href="#DejaVuSans-72" transform="translate(433.105469 0)"/>
      <use xlink:href="#DejaVuSans-69" transform="translate(474.21875 0)"/>
      <use xlink:href="#DejaVuSans-6d" transform="translate(502.001953 0)"/>
      <use xlink:href="#DejaVuSans-65" transform="translate(599.414062 0)"/>
      <use xlink:href="#DejaVuSans-73" transform="translate(660.9375 0)"/>
     </g>
    </g>
    <g id="PathCollection_8">
     <g>
      <use xlink:href="#m22d7b349c2" x="63.66" y="409.023312" style="fill: #d62728; stroke: #d62728"/>
     </g>
    </g>
    <g id="text_20">
     <!-- np = 8 primes -->
     <g transform="translate(81.66 411.648312) scale(0.1 -0.1)">
      <use xlink:href="#DejaVuSans-6e"/>
      <use xlink:href="#DejaVuSans-70" transform="translate(63.378906 0)"/>
      <use xlink:href="#DejaVuSans-20" transform="translate(126.855469 0)"/>
      <use xlink:href="#DejaVuSans-3d" transform="translate(158.642578 0)"/>
      <use xlink:href="#DejaVuSans-20" transform="translate(242.431641 0)"/>
      <use xlink:href="#DejaVuSans-38" transform="translate(274.21875 0)"/>
      <use xlink:href="#DejaVuSans-20" transform="translate(337.841797 0)"/>
      <use xlink:href="#DejaVuSans-70" transform="translate(369.628906 0)"/>
      <use xlink:href="#DejaVuSans-72" transform="translate(433.105469 0)"/>
      <use xlink:href="#DejaVuSans-69" transform="translate(474.21875 0)"/>
      <use xlink:href="#DejaVuSans-6d" transform="translate(502.001953 0)"/>
      <use xlink:href="#DejaVuSans-65" transform="translate(599.414062 0)"/>
      <use xlink:href="#DejaVuSans-73" transform="translate(660.9375 0)"/>
     </g>
    </g>
   </g>
  </g>
 </g>
 <defs>
  <clipPath id="pd8c6d9355b">
   <rect x="44.66" y="25.44" width="880.54" height="397.288"/>
  </clipPath>
 </defs>
</svg>
