<?xml version="1.0" encoding="utf-8" standalone="no"?>
<!DOCTYPE svg PUBLIC "-//W3C//DTD SVG 1.1//EN"
  "http://www.w3.org/Graphics/SVG/1.1/DTD/svg11.dtd">
<svg xmlns:xlink="http://www.w3.org/1999/xlink" width="864pt" height="504pt" viewBox="0 0 864 504" xmlns="http://www.w3.org/2000/svg" version="1.1">
 <metadata>
  <rdf:RDF xmlns:dc="http://purl.org/dc/elements/1.1/" xmlns:cc="http://creativecommons.org/ns#" xmlns:rdf="http://www.w3.org/1999/02/22-rdf-syntax-ns#">
   <cc:Work>
    <dc:type rdf:resource="http://purl.org/dc/dcmitype/StillImage"/>
    <dc:date>2026-06-11T13:16:46.073427</dc:date>
    <dc:format>image/svg+xml</dc:format>
    <dc:creator>
     <cc:Agent>
      <dc:title>Matplotlib v3.10.7+dfsg1, https://matplotlib.org/</dc:title>
     </cc:Agent>
    </dc:creator>
   </cc:Work>
  </rdf:RDF>
 </metadata>
 <defs>
  <style type="text/css">*{stroke-linejoin: round; stroke-linecap: butt}</style>
 </defs>
 <g id="figure_1">
  <g id="patch_1">
   <path d="M 0 504 
L 864 504 
L 864 0 
L 0 0 
z
" style="fill: #ffffff"/>
  </g>
  <g id="axes_1">
   <g id="patch_2">
    <path d="M 43.788005 458.728 
L 853.2 458.728 
L 853.2 25.44 
L 43.788005 25.44 
z
" style="fill: #ffffff"/>
   </g>
   <g id="matplotlib.axis_1">
    <g id="xtick_1">
     <g id="line2d_1">
      <path d="M 133.138679 458.728 
L 133.138679 25.44 
" clip-path="url(#pfb28d0db9e)" style="fill: none; stroke: #b0b0b0; stroke-opacity: 0.3; stroke-width: 0.8; stroke-linecap: square"/>
     </g>
     <g id="line2d_2">
      <defs>
       <path id="m7c69c84bdd" d="M 0 0 
L 0 3.5 
" style="stroke: #000000; stroke-width: 0.8"/>
      </defs>
      <g>
       <use xlink:href="#m7c69c84bdd" x="133.138679" y="458.728" style="stroke: #000000; stroke-width: 0.8"/>
      </g>
     </g>
     <g id="text_1">
      <!-- $\mathdefault{2^{4}}$ -->
      <g transform="translate(127.538679 473.326437) scale(0.1 -0.1)">
       <defs>
        <path id="DejaVuSans-32" d="M 1228 531 
L 3431 531 
L 3431 0 
L 469 0 
L 469 531 
Q 828 903 1448 1529 
Q 2069 2156 2228 2338 
Q 2531 2678 2651 2914 
Q 2772 3150 2772 3378 
Q 2772 3750 2511 3984 
Q 2250 4219 1831 4219 
Q 1534 4219 1204 4116 
Q 875 4013 500 3803 
L 500 4441 
Q 881 4594 1212 4672 
Q 1544 4750 1819 4750 
Q 2544 4750 2975 4387 
Q 3406 4025 3406 3419 
Q 3406 3131 3298 2873 
Q 3191 2616 2906 2266 
Q 2828 2175 2409 1742 
Q 1991 1309 1228 531 
z
" transform="scale(0.015625)"/>
        <path id="DejaVuSans-34" d="M 2419 4116 
L 825 1625 
L 2419 1625 
L 2419 4116 
z
M 2253 4666 
L 3047 4666 
L 3047 1625 
L 3713 1625 
L 3713 1100 
L 3047 1100 
L 3047 0 
L 2419 0 
L 2419 1100 
L 313 1100 
L 313 1709 
L 2253 4666 
z
" transform="scale(0.015625)"/>
       </defs>
       <use xlink:href="#DejaVuSans-32" transform="translate(0 0.684375)"/>
       <use xlink:href="#DejaVuSans-34" transform="translate(64.580078 38.965625) scale(0.7)"/>
      </g>
     </g>
    </g>
    <g id="xtick_2">
     <g id="line2d_3">
      <path d="M 238.25712 458.728 
L 238.25712 25.44 
" clip-path="url(#pfb28d0db9e)" style="fill: none; stroke: #b0b0b0; stroke-opacity: 0.3; stroke-width: 0.8; stroke-linecap: square"/>
     </g>
     <g id="line2d_4">
      <g>
       <use xlink:href="#m7c69c84bdd" x="238.25712" y="458.728" style="stroke: #000000; stroke-width: 0.8"/>
      </g>
     </g>
     <g id="text_2">
      <!-- $\mathdefault{2^{6}}$ -->
      <g transform="translate(232.65712 473.326437) scale(0.1 -0.1)">
       <defs>
        <path id="DejaVuSans-36" d="M 2113 2584 
Q 1688 2584 1439 2293 
Q 1191 2003 1191 1497 
Q 1191 994 1439 701 
Q 1688 409 2113 409 
Q 2538 409 2786 701 
Q 3034 994 3034 1497 
Q 3034 2003 2786 2293 
Q 2538 2584 2113 2584 
z
M 3366 4563 
L 3366 3988 
Q 3128 4100 2886 4159 
Q 2644 4219 2406 4219 
Q 1781 4219 1451 3797 
Q 1122 3375 1075 2522 
Q 1259 2794 1537 2939 
Q 1816 3084 2150 3084 
Q 2853 3084 3261 2657 
Q 3669 2231 3669 1497 
Q 3669 778 3244 343 
Q 2819 -91 2113 -91 
Q 1303 -91 875 529 
Q 447 1150 447 2328 
Q 447 3434 972 4092 
Q 1497 4750 2381 4750 
Q 2619 4750 2861 4703 
Q 3103 4656 3366 4563 
z
" transform="scale(0.015625)"/>
       </defs>
       <use xlink:href="#DejaVuSans-32" transform="translate(0 0.765625)"/>
       <use xlink:href="#DejaVuSans-36" transform="translate(64.580078 39.046875) scale(0.7)"/>
      </g>
     </g>
    </g>
    <g id="xtick_3">
     <g id="line2d_5">
      <path d="M 343.375561 458.728 
L 343.375561 25.44 
" clip-path="url(#pfb28d0db9e)" style="fill: none; stroke: #b0b0b0; stroke-opacity: 0.3; stroke-width: 0.8; stroke-linecap: square"/>
     </g>
     <g id="line2d_6">
      <g>
       <use xlink:href="#m7c69c84bdd" x="343.375561" y="458.728" style="stroke: #000000; stroke-width: 0.8"/>
      </g>
     </g>
     <g id="text_3">
      <!-- $\mathdefault{2^{8}}$ -->
      <g transform="translate(337.775561 473.326437) scale(0.1 -0.1)">
       <defs>
        <path id="DejaVuSans-38" d="M 2034 2216 
Q 1584 2216 1326 1975 
Q 1069 1734 1069 1313 
Q 1069 891 1326 650 
Q 1584 409 2034 409 
Q 2484 409 2743 651 
Q 3003 894 3003 1313 
Q 3003 1734 2745 1975 
Q 2488 2216 2034 2216 
z
M 1403 2484 
Q 997 2584 770 2862 
Q 544 3141 544 3541 
Q 544 4100 942 4425 
Q 1341 4750 2034 4750 
Q 2731 4750 3128 4425 
Q 3525 4100 3525 3541 
Q 3525 3141 3298 2862 
Q 3072 2584 2669 2484 
Q 3125 2378 3379 2068 
Q 3634 1759 3634 1313 
Q 3634 634 3220 271 
Q 2806 -91 2034 -91 
Q 1263 -91 848 271 
Q 434 634 434 1313 
Q 434 1759 690 2068 
Q 947 2378 1403 2484 
z
M 1172 3481 
Q 1172 3119 1398 2916 
Q 1625 2713 2034 2713 
Q 2441 2713 2670 2916 
Q 2900 3119 2900 3481 
Q 2900 3844 2670 4047 
Q 2441 4250 2034 4250 
Q 1625 4250 1398 4047 
Q 1172 3844 1172 3481 
z
" transform="scale(0.015625)"/>
       </defs>
       <use xlink:href="#DejaVuSans-32" transform="translate(0 0.765625)"/>
       <use xlink:href="#DejaVuSans-38" transform="translate(64.580078 39.046875) scale(0.7)"/>
      </g>
     </g>
    </g>
    <g id="xtick_4">
     <g id="line2d_7">
      <path d="M 448.494002 458.728 
L 448.494002 25.44 
" clip-path="url(#pfb28d0db9e)" style="fill: none; stroke: #b0b0b0; stroke-opacity: 0.3; stroke-width: 0.8; stroke-linecap: square"/>
     </g>
     <g id="line2d_8">
      <g>
       <use xlink:href="#m7c69c84bdd" x="448.494002" y="458.728" style="stroke: #000000; stroke-width: 0.8"/>
      </g>
     </g>
     <g id="text_4">
      <!-- $\mathdefault{2^{10}}$ -->
      <g transform="translate(440.644002 473.326437) scale(0.1 -0.1)">
       <defs>
        <path id="DejaVuSans-31" d="M 794 531 
L 1825 531 
L 1825 4091 
L 703 3866 
L 703 4441 
L 1819 4666 
L 2450 4666 
L 2450 531 
L 3481 531 
L 3481 0 
L 794 0 
L 794 531 
z
" transform="scale(0.015625)"/>
        <path id="DejaVuSans-30" d="M 2034 4250 
Q 1547 4250 1301 3770 
Q 1056 3291 1056 2328 
Q 1056 1369 1301 889 
Q 1547 409 2034 409 
Q 2525 409 2770 889 
Q 3016 1369 3016 2328 
Q 3016 3291 2770 3770 
Q 2525 4250 2034 4250 
z
M 2034 4750 
Q 2819 4750 3233 4129 
Q 3647 3509 3647 2328 
Q 3647 1150 3233 529 
Q 2819 -91 2034 -91 
Q 1250 -91 836 529 
Q 422 1150 422 2328 
Q 422 3509 836 4129 
Q 1250 4750 2034 4750 
z
" transform="scale(0.015625)"/>
       </defs>
       <use xlink:href="#DejaVuSans-32" transform="translate(0 0.765625)"/>
       <use xlink:href="#DejaVuSans-31" transform="translate(64.580078 39.046875) scale(0.7)"/>
       <use xlink:href="#DejaVuSans-30" transform="translate(109.116211 39.046875) scale(0.7)"/>
      </g>
     </g>
    </g>
    <g id="xtick_5">
     <g id="line2d_9">
      <path d="M 553.612443 458.728 
L 553.612443 25.44 
" clip-path="url(#pfb28d0db9e)" style="fill: none; stroke: #b0b0b0; stroke-opacity: 0.3; stroke-width: 0.8; stroke-linecap: square"/>
     </g>
     <g id="line2d_10">
      <g>
       <use xlink:href="#m7c69c84bdd" x="553.612443" y="458.728" style="stroke: #000000; stroke-width: 0.8"/>
      </g>
     </g>
     <g id="text_5">
      <!-- $\mathdefault{2^{12}}$ -->
      <g transform="translate(545.762443 473.326437) scale(0.1 -0.1)">
       <use xlink:href="#DejaVuSans-32" transform="translate(0 0.765625)"/>
       <use xlink:href="#DejaVuSans-31" transform="translate(64.580078 39.046875) scale(0.7)"/>
       <use xlink:href="#DejaVuSans-32" transform="translate(109.116211 39.046875) scale(0.7)"/>
      </g>
     </g>
    </g>
    <g id="xtick_6">
     <g id="line2d_11">
      <path d="M 658.730884 458.728 
L 658.730884 25.44 
" clip-path="url(#pfb28d0db9e)" style="fill: none; stroke: #b0b0b0; stroke-opacity: 0.3; stroke-width: 0.8; stroke-linecap: square"/>
     </g>
     <g id="line2d_12">
      <g>
       <use xlink:href="#m7c69c84bdd" x="658.730884" y="458.728" style="stroke: #000000; stroke-width: 0.8"/>
      </g>
     </g>
     <g id="text_6">
      <!-- $\mathdefault{2^{14}}$ -->
      <g transform="translate(650.880884 473.326437) scale(0.1 -0.1)">
       <use xlink:href="#DejaVuSans-32" transform="translate(0 0.684375)"/>
       <use xlink:href="#DejaVuSans-31" transform="translate(64.580078 38.965625) scale(0.7)"/>
       <use xlink:href="#DejaVuSans-34" transform="translate(109.116211 38.965625) scale(0.7)"/>
      </g>
     </g>
    </g>
    <g id="xtick_7">
     <g id="line2d_13">
      <path d="M 763.849325 458.728 
L 763.849325 25.44 
" clip-path="url(#pfb28d0db9e)" style="fill: none; stroke: #b0b0b0; stroke-opacity: 0.3; stroke-width: 0.8; stroke-linecap: square"/>
     </g>
     <g id="line2d_14">
      <g>
       <use xlink:href="#m7c69c84bdd" x="763.849325" y="458.728" style="stroke: #000000; stroke-width: 0.8"/>
      </g>
     </g>
     <g id="text_7">
      <!-- $\mathdefault{2^{16}}$ -->
      <g transform="translate(755.999325 473.326437) scale(0.1 -0.1)">
       <use xlink:href="#DejaVuSans-32" transform="translate(0 0.765625)"/>
       <use xlink:href="#DejaVuSans-31" transform="translate(64.580078 39.046875) scale(0.7)"/>
       <use xlink:href="#DejaVuSans-36" transform="translate(109.116211 39.046875) scale(0.7)"/>
      </g>
     </g>
    </g>
    <g id="text_8">
     <!-- n (u64 limbs, an = bn = n) -->
     <g transform="translate(381.628377 487.004563) scale(0.1 -0.1)">
      <defs>
       <path id="DejaVuSans-6e" d="M 3513 2113 
L 3513 0 
L 2938 0 
L 2938 2094 
Q 2938 2591 2744 2837 
Q 2550 3084 2163 3084 
Q 1697 3084 1428 2787 
Q 1159 2491 1159 1978 
L 1159 0 
L 581 0 
L 581 3500 
L 1159 3500 
L 1159 2956 
Q 1366 3272 1645 3428 
Q 1925 3584 2291 3584 
Q 2894 3584 3203 3211 
Q 3513 2838 3513 2113 
z
" transform="scale(0.015625)"/>
       <path id="DejaVuSans-20" transform="scale(0.015625)"/>
       <path id="DejaVuSans-28" d="M 1984 4856 
Q 1566 4138 1362 3434 
Q 1159 2731 1159 2009 
Q 1159 1288 1364 580 
Q 1569 -128 1984 -844 
L 1484 -844 
Q 1016 -109 783 600 
Q 550 1309 550 2009 
Q 550 2706 781 3412 
Q 1013 4119 1484 4856 
L 1984 4856 
z
" transform="scale(0.015625)"/>
       <path id="DejaVuSans-75" d="M 544 1381 
L 544 3500 
L 1119 3500 
L 1119 1403 
Q 1119 906 1312 657 
Q 1506 409 1894 409 
Q 2359 409 2629 706 
Q 2900 1003 2900 1516 
L 2900 3500 
L 3475 3500 
L 3475 0 
L 2900 0 
L 2900 538 
Q 2691 219 2414 64 
Q 2138 -91 1772 -91 
Q 1169 -91 856 284 
Q 544 659 544 1381 
z
M 1991 3584 
L 1991 3584 
z
" transform="scale(0.015625)"/>
       <path id="DejaVuSans-6c" d="M 603 4863 
L 1178 4863 
L 1178 0 
L 603 0 
L 603 4863 
z
" transform="scale(0.015625)"/>
       <path id="DejaVuSans-69" d="M 603 3500 
L 1178 3500 
L 1178 0 
L 603 0 
L 603 3500 
z
M 603 4863 
L 1178 4863 
L 1178 4134 
L 603 4134 
L 603 4863 
z
" transform="scale(0.015625)"/>
       <path id="DejaVuSans-6d" d="M 3328 2828 
Q 3544 3216 3844 3400 
Q 4144 3584 4550 3584 
Q 5097 3584 5394 3201 
Q 5691 2819 5691 2113 
L 5691 0 
L 5113 0 
L 5113 2094 
Q 5113 2597 4934 2840 
Q 4756 3084 4391 3084 
Q 3944 3084 3684 2787 
Q 3425 2491 3425 1978 
L 3425 0 
L 2847 0 
L 2847 2094 
Q 2847 2600 2669 2842 
Q 2491 3084 2119 3084 
Q 1678 3084 1418 2786 
Q 1159 2488 1159 1978 
L 1159 0 
L 581 0 
L 581 3500 
L 1159 3500 
L 1159 2956 
Q 1356 3278 1631 3431 
Q 1906 3584 2284 3584 
Q 2666 3584 2933 3390 
Q 3200 3197 3328 2828 
z
" transform="scale(0.015625)"/>
       <path id="DejaVuSans-62" d="M 3116 1747 
Q 3116 2381 2855 2742 
Q 2594 3103 2138 3103 
Q 1681 3103 1420 2742 
Q 1159 2381 1159 1747 
Q 1159 1113 1420 752 
Q 1681 391 2138 391 
Q 2594 391 2855 752 
Q 3116 1113 3116 1747 
z
M 1159 2969 
Q 1341 3281 1617 3432 
Q 1894 3584 2278 3584 
Q 2916 3584 3314 3078 
Q 3713 2572 3713 1747 
Q 3713 922 3314 415 
Q 2916 -91 2278 -91 
Q 1894 -91 1617 61 
Q 1341 213 1159 525 
L 1159 0 
L 581 0 
L 581 4863 
L 1159 4863 
L 1159 2969 
z
" transform="scale(0.015625)"/>
       <path id="DejaVuSans-73" d="M 2834 3397 
L 2834 2853 
Q 2591 2978 2328 3040 
Q 2066 3103 1784 3103 
Q 1356 3103 1142 2972 
Q 928 2841 928 2578 
Q 928 2378 1081 2264 
Q 1234 2150 1697 2047 
L 1894 2003 
Q 2506 1872 2764 1633 
Q 3022 1394 3022 966 
Q 3022 478 2636 193 
Q 2250 -91 1575 -91 
Q 1294 -91 989 -36 
Q 684 19 347 128 
L 347 722 
Q 666 556 975 473 
Q 1284 391 1588 391 
Q 1994 391 2212 530 
Q 2431 669 2431 922 
Q 2431 1156 2273 1281 
Q 2116 1406 1581 1522 
L 1381 1569 
Q 847 1681 609 1914 
Q 372 2147 372 2553 
Q 372 3047 722 3315 
Q 1072 3584 1716 3584 
Q 2034 3584 2315 3537 
Q 2597 3491 2834 3397 
z
" transform="scale(0.015625)"/>
       <path id="DejaVuSans-2c" d="M 750 794 
L 1409 794 
L 1409 256 
L 897 -744 
L 494 -744 
L 750 256 
L 750 794 
z
" transform="scale(0.015625)"/>
       <path id="DejaVuSans-61" d="M 2194 1759 
Q 1497 1759 1228 1600 
Q 959 1441 959 1056 
Q 959 750 1161 570 
Q 1363 391 1709 391 
Q 2188 391 2477 730 
Q 2766 1069 2766 1631 
L 2766 1759 
L 2194 1759 
z
M 3341 1997 
L 3341 0 
L 2766 0 
L 2766 531 
Q 2569 213 2275 61 
Q 1981 -91 1556 -91 
Q 1019 -91 701 211 
Q 384 513 384 1019 
Q 384 1609 779 1909 
Q 1175 2209 1959 2209 
L 2766 2209 
L 2766 2266 
Q 2766 2663 2505 2880 
Q 2244 3097 1772 3097 
Q 1472 3097 1187 3025 
Q 903 2953 641 2809 
L 641 3341 
Q 956 3463 1253 3523 
Q 1550 3584 1831 3584 
Q 2591 3584 2966 3190 
Q 3341 2797 3341 1997 
z
" transform="scale(0.015625)"/>
       <path id="DejaVuSans-3d" d="M 678 2906 
L 4684 2906 
L 4684 2381 
L 678 2381 
L 678 2906 
z
M 678 1631 
L 4684 1631 
L 4684 1100 
L 678 1100 
L 678 1631 
z
" transform="scale(0.015625)"/>
       <path id="DejaVuSans-29" d="M 513 4856 
L 1013 4856 
Q 1481 4119 1714 3412 
Q 1947 2706 1947 2009 
Q 1947 1309 1714 600 
Q 1481 -109 1013 -844 
L 513 -844 
Q 928 -128 1133 580 
Q 1338 1288 1338 2009 
Q 1338 2731 1133 3434 
Q 928 4138 513 4856 
z
" transform="scale(0.015625)"/>
      </defs>
      <use xlink:href="#DejaVuSans-6e"/>
      <use xlink:href="#DejaVuSans-20" transform="translate(63.378906 0)"/>
      <use xlink:href="#DejaVuSans-28" transform="translate(95.166016 0)"/>
      <use xlink:href="#DejaVuSans-75" transform="translate(134.179688 0)"/>
      <use xlink:href="#DejaVuSans-36" transform="translate(197.558594 0)"/>
      <use xlink:href="#DejaVuSans-34" transform="translate(261.181641 0)"/>
      <use xlink:href="#DejaVuSans-20" transform="translate(324.804688 0)"/>
      <use xlink:href="#DejaVuSans-6c" transform="translate(356.591797 0)"/>
      <use xlink:href="#DejaVuSans-69" transform="translate(384.375 0)"/>
      <use xlink:href="#DejaVuSans-6d" transform="translate(412.158203 0)"/>
      <use xlink:href="#DejaVuSans-62" transform="translate(509.570312 0)"/>
      <use xlink:href="#DejaVuSans-73" transform="translate(573.046875 0)"/>
      <use xlink:href="#DejaVuSans-2c" transform="translate(625.146484 0)"/>
      <use xlink:href="#DejaVuSans-20" transform="translate(656.933594 0)"/>
      <use xlink:href="#DejaVuSans-61" transform="translate(688.720703 0)"/>
      <use xlink:href="#DejaVuSans-6e" transform="translate(750 0)"/>
      <use xlink:href="#DejaVuSans-20" transform="translate(813.378906 0)"/>
      <use xlink:href="#DejaVuSans-3d" transform="translate(845.166016 0)"/>
      <use xlink:href="#DejaVuSans-20" transform="translate(928.955078 0)"/>
      <use xlink:href="#DejaVuSans-62" transform="translate(960.742188 0)"/>
      <use xlink:href="#DejaVuSans-6e" transform="translate(1024.21875 0)"/>
      <use xlink:href="#DejaVuSans-20" transform="translate(1087.597656 0)"/>
      <use xlink:href="#DejaVuSans-3d" transform="translate(1119.384766 0)"/>
      <use xlink:href="#DejaVuSans-20" transform="translate(1203.173828 0)"/>
      <use xlink:href="#DejaVuSans-6e" transform="translate(1234.960938 0)"/>
      <use xlink:href="#DejaVuSans-29" transform="translate(1298.339844 0)"/>
     </g>
    </g>
   </g>
   <g id="matplotlib.axis_2">
    <g id="ytick_1">
     <g id="line2d_15">
      <path d="M 43.788005 312.024483 
L 853.2 312.024483 
" clip-path="url(#pfb28d0db9e)" style="fill: none; stroke: #b0b0b0; stroke-opacity: 0.3; stroke-width: 0.8; stroke-linecap: square"/>
     </g>
     <g id="line2d_16">
      <defs>
       <path id="m799c055640" d="M 0 0 
L -3.5 0 
" style="stroke: #000000; stroke-width: 0.8"/>
      </defs>
      <g>
       <use xlink:href="#m799c055640" x="43.788005" y="312.024483" style="stroke: #000000; stroke-width: 0.8"/>
      </g>
     </g>
     <g id="text_9">
      <!-- $\mathdefault{2^{4}}$ -->
      <g transform="translate(25.588005 315.823702) scale(0.1 -0.1)">
       <use xlink:href="#DejaVuSans-32" transform="translate(0 0.684375)"/>
       <use xlink:href="#DejaVuSans-34" transform="translate(64.580078 38.965625) scale(0.7)"/>
      </g>
     </g>
    </g>
    <g id="ytick_2">
     <g id="line2d_17">
      <path d="M 43.788005 57.469177 
L 853.2 57.469177 
" clip-path="url(#pfb28d0db9e)" style="fill: none; stroke: #b0b0b0; stroke-opacity: 0.3; stroke-width: 0.8; stroke-linecap: square"/>
     </g>
     <g id="line2d_18">
      <g>
       <use xlink:href="#m799c055640" x="43.788005" y="57.469177" style="stroke: #000000; stroke-width: 0.8"/>
      </g>
     </g>
     <g id="text_10">
      <!-- $\mathdefault{2^{5}}$ -->
      <g transform="translate(25.588005 61.268396) scale(0.1 -0.1)">
       <defs>
        <path id="DejaVuSans-35" d="M 691 4666 
L 3169 4666 
L 3169 4134 
L 1269 4134 
L 1269 2991 
Q 1406 3038 1543 3061 
Q 1681 3084 1819 3084 
Q 2600 3084 3056 2656 
Q 3513 2228 3513 1497 
Q 3513 744 3044 326 
Q 2575 -91 1722 -91 
Q 1428 -91 1123 -41 
Q 819 9 494 109 
L 494 744 
Q 775 591 1075 516 
Q 1375 441 1709 441 
Q 2250 441 2565 725 
Q 2881 1009 2881 1497 
Q 2881 1984 2565 2268 
Q 2250 2553 1709 2553 
Q 1456 2553 1204 2497 
Q 953 2441 691 2322 
L 691 4666 
z
" transform="scale(0.015625)"/>
       </defs>
       <use xlink:href="#DejaVuSans-32" transform="translate(0 0.684375)"/>
       <use xlink:href="#DejaVuSans-35" transform="translate(64.580078 38.965625) scale(0.7)"/>
      </g>
     </g>
    </g>
    <g id="text_11">
     <!-- ns / input limb -->
     <g transform="translate(19.508317 277.992594) rotate(-90) scale(0.1 -0.1)">
      <defs>
       <path id="DejaVuSans-2f" d="M 1625 4666 
L 2156 4666 
L 531 -594 
L 0 -594 
L 1625 4666 
z
" transform="scale(0.015625)"/>
       <path id="DejaVuSans-70" d="M 1159 525 
L 1159 -1331 
L 581 -1331 
L 581 3500 
L 1159 3500 
L 1159 2969 
Q 1341 3281 1617 3432 
Q 1894 3584 2278 3584 
Q 2916 3584 3314 3078 
Q 3713 2572 3713 1747 
Q 3713 922 3314 415 
Q 2916 -91 2278 -91 
Q 1894 -91 1617 61 
Q 1341 213 1159 525 
z
M 3116 1747 
Q 3116 2381 2855 2742 
Q 2594 3103 2138 3103 
Q 1681 3103 1420 2742 
Q 1159 2381 1159 1747 
Q 1159 1113 1420 752 
Q 1681 391 2138 391 
Q 2594 391 2855 752 
Q 3116 1113 3116 1747 
z
" transform="scale(0.015625)"/>
       <path id="DejaVuSans-74" d="M 1172 4494 
L 1172 3500 
L 2356 3500 
L 2356 3053 
L 1172 3053 
L 1172 1153 
Q 1172 725 1289 603 
Q 1406 481 1766 481 
L 2356 481 
L 2356 0 
L 1766 0 
Q 1100 0 847 248 
Q 594 497 594 1153 
L 594 3053 
L 172 3053 
L 172 3500 
L 594 3500 
L 594 4494 
L 1172 4494 
z
" transform="scale(0.015625)"/>
      </defs>
      <use xlink:href="#DejaVuSans-6e"/>
      <use xlink:href="#DejaVuSans-73" transform="translate(63.378906 0)"/>
      <use xlink:href="#DejaVuSans-20" transform="translate(115.478516 0)"/>
      <use xlink:href="#DejaVuSans-2f" transform="translate(147.265625 0)"/>
      <use xlink:href="#DejaVuSans-20" transform="translate(180.957031 0)"/>
      <use xlink:href="#DejaVuSans-69" transform="translate(212.744141 0)"/>
      <use xlink:href="#DejaVuSans-6e" transform="translate(240.527344 0)"/>
      <use xlink:href="#DejaVuSans-70" transform="translate(303.90625 0)"/>
      <use xlink:href="#DejaVuSans-75" transform="translate(367.382812 0)"/>
      <use xlink:href="#DejaVuSans-74" transform="translate(430.761719 0)"/>
      <use xlink:href="#DejaVuSans-20" transform="translate(469.970703 0)"/>
      <use xlink:href="#DejaVuSans-6c" transform="translate(501.757812 0)"/>
      <use xlink:href="#DejaVuSans-69" transform="translate(529.541016 0)"/>
      <use xlink:href="#DejaVuSans-6d" transform="translate(557.324219 0)"/>
      <use xlink:href="#DejaVuSans-62" transform="translate(654.736328 0)"/>
     </g>
    </g>
   </g>
   <g id="line2d_19">
    <path d="M 80.579459 405.218162 
L 89.510585 265.094757 
L 97.499749 294.106506 
L 104.726827 303.157821 
L 111.324632 331.079237 
L 117.394025 366.693631 
L 123.013404 387.573579 
L 128.244922 402.330393 
L 133.138679 423.815701 
L 137.735658 312.69072 
L 142.069805 338.503034 
L 146.169556 353.071496 
L 150.058969 372.953118 
L 153.758577 298.54896 
L 157.286047 318.554908 
L 160.656688 332.532621 
L 163.883852 347.619397 
L 166.979259 369.259737 
L 169.953245 374.03852 
L 172.814978 384.429189 
L 175.572625 401.714529 
L 178.233492 404.390766 
L 183.290494 422.01517 
L 185.6979 439.033091 
L 188.03122 288.466474 
L 192.492914 301.972254 
L 194.629026 309.257637 
L 198.728777 326.323471 
L 202.61819 347.9483 
L 204.490555 296.496995 
L 208.102043 319.889114 
L 211.549315 340.605898 
L 214.846658 351.71365 
L 218.00657 326.228026 
L 222.512465 358.137034 
L 225.374199 361.562054 
L 228.131845 374.364768 
L 232.088931 380.342616 
L 234.616729 396.362101 
L 238.25712 393.027401 
L 241.730717 296.299024 
L 245.052135 311.519867 
L 248.234151 320.710772 
L 251.287997 337.640636 
L 254.2236 348.733798 
L 257.968901 314.234594 
L 261.537885 327.734162 
L 264.946411 347.872373 
L 268.208287 358.892496 
L 271.335614 330.765093 
L 274.339053 341.127289 
L 277.933419 360.172509 
L 280.691066 370.038454 
L 284.002812 379.62453 
L 287.794948 387.573579 
L 290.816341 400.661158 
L 294.289937 296.585016 
L 297.611355 310.421288 
L 303.847218 334.381872 
L 307.261225 345.77793 
L 310.528121 289.436456 
L 320.367364 327.087919 
L 323.5109 289.781956 
L 326.898273 304.864585 
L 330.140774 316.063361 
L 343.375561 366.880138 
L 346.565692 271.636694 
L 349.899281 286.748362 
L 356.406438 310.512711 
L 359.820446 325.370142 
L 363.087341 277.606952 
L 366.438119 290.45229 
L 369.647072 308.779556 
L 372.926585 323.589295 
L 376.26233 288.574123 
L 379.457494 301.102294 
L 382.876131 313.957602 
L 389.444609 340.060471 
L 392.604521 352.097437 
L 395.934782 363.64307 
L 399.266778 269.402197 
L 402.458501 282.001127 
L 405.781861 294.347044 
L 412.379666 320.241028 
L 415.646562 257.043298 
L 422.206292 284.079802 
L 425.485805 296.827182 
L 428.821551 253.738301 
L 432.108682 266.328993 
L 438.622188 292.862603 
L 445.241077 318.905546 
L 448.494002 331.200132 
L 451.755099 242.836567 
L 461.649492 283.017783 
L 464.938887 295.530153 
L 468.205782 248.662032 
L 478.045026 287.778264 
L 481.332764 245.507873 
L 497.76164 310.078655 
L 501.053223 322.950298 
L 504.349777 234.063805 
L 514.177578 273.90556 
L 517.468295 286.576992 
L 520.765003 222.731547 
L 524.06113 236.484927 
L 527.324733 249.164579 
L 530.629317 262.759067 
L 533.891985 225.531998 
L 537.181153 239.75069 
L 540.465775 253.444653 
L 543.761712 251.415127 
L 547.04156 264.933197 
L 550.32086 275.128297 
L 553.612443 291.536059 
L 556.891271 203.72156 
L 560.187104 217.60191 
L 563.459522 232.544804 
L 566.752368 246.773974 
L 570.042423 259.700917 
L 573.324223 211.633739 
L 576.606682 222.37175 
L 579.897044 237.158224 
L 583.176003 249.570984 
L 586.46321 195.107115 
L 589.751868 208.244156 
L 593.036004 218.170319 
L 596.320933 225.042639 
L 599.600781 235.812863 
L 602.889747 253.522936 
L 606.171664 266.36953 
L 609.459355 183.42511 
L 612.737837 198.225494 
L 616.026871 210.221958 
L 622.59419 237.889024 
L 625.883444 180.766408 
L 629.165903 196.294341 
L 635.735224 221.940457 
L 639.02243 186.755386 
L 645.58972 215.407596 
L 648.874883 193.05941 
L 652.160001 205.743824 
L 655.444134 219.61305 
L 658.730884 231.695425 
L 658.730884 231.695425 
" clip-path="url(#pfb28d0db9e)" style="fill: none; stroke: #1f77b4; stroke-width: 1.1; stroke-linecap: square"/>
   </g>
   <g id="line2d_20">
    <path d="M 80.579459 393.027401 
L 89.510585 244.513404 
L 97.499749 268.361348 
L 104.726827 285.828188 
L 111.324632 312.552779 
L 117.394025 346.40753 
L 123.013404 368.081379 
L 128.244922 375.563493 
L 133.138679 406.4034 
L 137.735658 296.651045 
L 142.069805 313.196949 
L 146.169556 333.285797 
L 150.058969 353.585199 
L 153.758577 271.80123 
L 157.286047 280.291876 
L 163.883852 302.68761 
L 166.979259 336.485736 
L 169.953245 348.201503 
L 172.814978 358.241144 
L 175.572625 370.953541 
L 183.290494 399.144938 
L 185.6979 410.942516 
L 188.03122 270.486997 
L 192.492914 288.358856 
L 194.629026 299.124684 
L 198.728777 311.726217 
L 202.61819 325.703526 
L 204.490555 285.742707 
L 208.102043 310.512711 
L 211.549315 321.67563 
L 214.846658 333.456083 
L 218.00657 312.713715 
L 222.512465 335.530164 
L 225.374199 347.644686 
L 228.131845 348.252164 
L 232.088931 361.168252 
L 234.616729 372.060069 
L 238.25712 395.6985 
L 241.730717 280.460337 
L 248.234151 303.897942 
L 251.287997 317.971256 
L 254.2236 323.163173 
L 257.968901 287.048452 
L 261.537885 300.745983 
L 264.946411 322.997593 
L 268.208287 332.023282 
L 271.335614 308.961609 
L 274.339053 320.710772 
L 277.933419 335.407835 
L 280.691066 345.828258 
L 284.002812 360.61764 
L 287.794948 366.587098 
L 290.816341 377.862892 
L 294.289937 275.273638 
L 297.611355 290.257551 
L 300.793372 301.013184 
L 303.847218 313.243004 
L 307.261225 325.512984 
L 310.528121 274.754827 
L 313.660062 283.1875 
L 317.087851 299.169008 
L 320.367364 311.703284 
L 323.5109 270.056787 
L 326.898273 285.486385 
L 330.140774 297.841613 
L 333.588046 311.657421 
L 336.885388 324.276866 
L 340.045301 336.903047 
L 343.375561 348.176175 
L 346.565692 258.171428 
L 349.899281 271.883526 
L 359.820446 309.120979 
L 363.087341 263.381807 
L 366.438119 277.73237 
L 369.647072 295.464325 
L 372.926585 307.077187 
L 376.26233 267.974334 
L 379.457494 281.240478 
L 382.876131 294.565851 
L 386.147266 308.256657 
L 395.934782 346.483155 
L 399.266778 254.561766 
L 402.458501 267.140586 
L 405.781861 279.345718 
L 412.379666 304.48212 
L 415.646562 244.437018 
L 422.206292 269.565735 
L 425.485805 282.869346 
L 428.821551 236.335474 
L 438.622188 276.396778 
L 445.241077 303.113013 
L 448.494002 315.784986 
L 451.755099 231.068883 
L 464.938887 282.001127 
L 468.205782 235.626397 
L 474.765512 260.917129 
L 478.045026 272.975692 
L 481.332764 228.098187 
L 491.181408 268.198345 
L 497.76164 294.850495 
L 501.053223 307.825258 
L 504.349777 222.191983 
L 507.610907 234.769868 
L 510.900302 248.179461 
L 517.468295 272.748749 
L 520.765003 210.448175 
L 527.324733 236.410193 
L 530.629317 248.951879 
L 533.891985 215.072526 
L 540.465775 242.152789 
L 543.761712 234.435248 
L 547.04156 250.307531 
L 550.32086 263.341598 
L 553.612443 274.464612 
L 556.891271 194.273337 
L 570.042423 244.532503 
L 573.324223 198.023507 
L 576.606682 212.858184 
L 579.897044 225.459459 
L 583.176003 237.008496 
L 586.46321 185.07835 
L 589.751868 197.973028 
L 593.036004 209.995881 
L 596.320933 210.918456 
L 599.600781 224.029746 
L 602.889747 237.682754 
L 606.171664 252.623686 
L 609.459355 172.542606 
L 612.737837 187.049247 
L 616.026871 199.000808 
L 619.311588 212.472919 
L 622.59419 236.391512 
L 625.883444 170.97599 
L 632.449719 197.787996 
L 635.735224 211.040479 
L 639.02243 178.206525 
L 645.58972 206.759147 
L 648.874883 179.596248 
L 655.444134 206.862558 
L 658.730884 221.491732 
L 662.014144 154.274918 
L 668.586092 182.552869 
L 671.870809 195.040343 
L 675.157137 208.451845 
L 678.439096 161.074423 
L 681.725123 173.989819 
L 685.00894 187.948618 
L 688.294444 200.827568 
L 691.581651 152.427287 
L 694.864562 166.331279 
L 698.148941 174.920934 
L 701.434103 166.578343 
L 704.719222 167.847164 
L 708.005771 182.875679 
L 711.290105 196.579177 
L 711.290105 196.579177 
" clip-path="url(#pfb28d0db9e)" style="fill: none; stroke: #ff7f0e; stroke-width: 1.1; stroke-linecap: square"/>
   </g>
   <g id="line2d_21">
    <path d="M 80.579459 289.026595 
L 89.510585 143.41305 
L 97.499749 176.09212 
L 104.726827 191.171679 
L 111.324632 217.211638 
L 123.013404 262.377909 
L 128.244922 270.220617 
L 133.138679 262.738996 
L 137.735658 174.352516 
L 142.069805 196.730062 
L 146.169556 203.055625 
L 150.058969 220.059484 
L 153.758577 183.975363 
L 157.286047 199.659423 
L 160.656688 205.211472 
L 163.883852 219.862986 
L 166.979259 221.186911 
L 169.953245 241.925146 
L 172.814978 240.997064 
L 175.572625 257.438739 
L 178.233492 257.458522 
L 183.290494 268.585596 
L 185.6979 283.420989 
L 188.03122 181.859785 
L 192.492914 196.998455 
L 194.629026 204.799857 
L 198.728777 218.09922 
L 202.61819 228.353967 
L 204.490555 187.932246 
L 208.102043 207.863698 
L 211.549315 218.188096 
L 214.846658 227.003999 
L 218.00657 220.810718 
L 222.512465 237.34547 
L 225.374199 245.354702 
L 228.131845 243.140878 
L 232.088931 249.261301 
L 234.616729 255.958027 
L 238.25712 271.061396 
L 241.730717 194.273337 
L 245.052135 202.799818 
L 248.234151 209.370545 
L 254.2236 231.529472 
L 257.968901 203.53361 
L 261.537885 214.473689 
L 264.946411 231.234628 
L 268.208287 240.109061 
L 271.335614 222.893572 
L 274.339053 231.216208 
L 277.933419 244.360648 
L 280.691066 250.928928 
L 284.002812 255.170748 
L 287.794948 261.116893 
L 290.816341 270.815115 
L 294.289937 193.275295 
L 300.793372 214.121887 
L 303.847218 223.073682 
L 307.261225 231.953724 
L 310.528121 193.076012 
L 313.660062 200.963246 
L 317.087851 211.860828 
L 320.367364 220.721204 
L 323.5109 194.25668 
L 326.898273 204.697026 
L 340.045301 242.057921 
L 343.375561 248.662032 
L 346.565692 178.126816 
L 349.899281 189.310034 
L 356.406438 208.053878 
L 359.820446 218.86426 
L 363.087341 175.854416 
L 366.438119 186.59223 
L 369.647072 202.322787 
L 372.926585 211.80841 
L 376.26233 193.657557 
L 379.457494 203.175063 
L 386.147266 223.903331 
L 389.444609 233.451744 
L 392.604521 242.171766 
L 395.934782 251.006676 
L 399.266778 178.254359 
L 402.458501 188.030489 
L 405.781861 197.065584 
L 412.379666 217.690666 
L 415.646562 170.273187 
L 422.206292 191.386457 
L 425.485805 201.014138 
L 428.821551 168.033213 
L 432.108682 177.187548 
L 435.347334 188.112377 
L 445.241077 218.116994 
L 448.494002 227.733096 
L 451.755099 159.116665 
L 458.341081 180.285069 
L 461.649492 190.247915 
L 464.938887 200.793656 
L 468.205782 162.874426 
L 471.50191 173.454315 
L 478.045026 193.674186 
L 481.332764 161.561688 
L 484.621932 172.464116 
L 491.181408 192.545118 
L 501.053223 221.814758 
L 504.349777 151.269812 
L 507.610907 161.226624 
L 510.900302 172.009206 
L 517.468295 191.386457 
L 520.765003 143.833862 
L 524.06113 154.70837 
L 527.324733 164.637196 
L 530.629317 175.347826 
L 533.891985 148.009974 
L 537.181153 159.040993 
L 540.465775 167.475348 
L 543.761712 167.088439 
L 547.04156 177.792225 
L 550.32086 187.964991 
L 553.612443 197.502222 
L 556.891271 129.245432 
L 563.459522 150.500184 
L 570.042423 171.33572 
L 573.324223 130.923697 
L 576.606682 142.992719 
L 583.176003 162.981484 
L 586.46321 120.735406 
L 589.751868 126.950269 
L 593.036004 134.657261 
L 599.600781 156.898381 
L 602.889747 167.212206 
L 606.171664 178.206525 
L 609.459355 105.002763 
L 612.737837 115.281597 
L 616.026871 126.603765 
L 619.311588 138.987568 
L 622.59419 160.253626 
L 625.883444 108.217044 
L 629.165903 119.918275 
L 635.735224 141.575841 
L 639.02243 115.967322 
L 642.305342 127.352624 
L 645.58972 137.814487 
L 648.874883 117.504763 
L 652.160001 129.091974 
L 655.444134 139.805216 
L 658.730884 149.997837 
L 662.014144 94.648059 
L 665.301302 106.560471 
L 668.586092 117.234571 
L 671.870809 128.868877 
L 675.157137 139.991952 
L 678.439096 99.479972 
L 685.00894 121.868776 
L 688.294444 132.426645 
L 691.581651 93.241156 
L 694.864562 103.529685 
L 698.148941 107.36153 
L 701.434103 68.099536 
L 704.719222 108.625761 
L 711.290105 131.835969 
L 714.57558 85.765381 
L 717.860522 95.83098 
L 721.145312 107.966764 
L 724.430029 119.06224 
L 727.714494 129.67825 
L 731.000101 64.666099 
L 734.284344 74.943858 
L 740.855232 98.99134 
L 744.139371 86.025782 
L 750.709537 108.916095 
L 753.994642 102.334713 
L 757.279704 112.911614 
L 760.563784 122.525818 
L 763.849325 134.983103 
L 767.134801 52.544528 
L 770.419743 64.560783 
L 773.704533 72.090472 
L 776.989249 86.100216 
L 780.273715 99.261293 
L 783.559321 51.639758 
L 786.843564 64.607586 
L 790.129017 76.644826 
L 793.413669 87.567162 
L 796.698591 48.020438 
L 799.983721 48.557707 
L 803.268758 71.255443 
L 806.553862 45.134909 
L 809.838925 60.719874 
L 813.123608 75.088315 
L 816.408546 84.429086 
L 816.408546 84.429086 
" clip-path="url(#pfb28d0db9e)" style="fill: none; stroke: #2ca02c; stroke-width: 1.1; stroke-linecap: square"/>
   </g>
   <g id="patch_3">
    <path d="M 43.788005 458.728 
L 43.788005 25.44 
" style="fill: none; stroke: #000000; stroke-width: 0.8; stroke-linejoin: miter; stroke-linecap: square"/>
   </g>
   <g id="patch_4">
    <path d="M 853.2 458.728 
L 853.2 25.44 
" style="fill: none; stroke: #000000; stroke-width: 0.8; stroke-linejoin: miter; stroke-linecap: square"/>
   </g>
   <g id="patch_5">
    <path d="M 43.788005 458.728 
L 853.2 458.728 
" style="fill: none; stroke: #000000; stroke-width: 0.8; stroke-linejoin: miter; stroke-linecap: square"/>
   </g>
   <g id="patch_6">
    <path d="M 43.788005 25.44 
L 853.2 25.44 
" style="fill: none; stroke: #000000; stroke-width: 0.8; stroke-linejoin: miter; stroke-linecap: square"/>
   </g>
   <g id="text_12">
    <!-- int_fft reference: balanced mul, per-codec cost (1/16-octave grid) -->
    <g transform="translate(252.139315 19.44) scale(0.12 -0.12)">
     <defs>
      <path id="DejaVuSans-5f" d="M 3263 -1063 
L 3263 -1509 
L -63 -1509 
L -63 -1063 
L 3263 -1063 
z
" transform="scale(0.015625)"/>
      <path id="DejaVuSans-66" d="M 2375 4863 
L 2375 4384 
L 1825 4384 
Q 1516 4384 1395 4259 
Q 1275 4134 1275 3809 
L 1275 3500 
L 2222 3500 
L 2222 3053 
L 1275 3053 
L 1275 0 
L 697 0 
L 697 3053 
L 147 3053 
L 147 3500 
L 697 3500 
L 697 3744 
Q 697 4328 969 4595 
Q 1241 4863 1831 4863 
L 2375 4863 
z
" transform="scale(0.015625)"/>
      <path id="DejaVuSans-72" d="M 2631 2963 
Q 2534 3019 2420 3045 
Q 2306 3072 2169 3072 
Q 1681 3072 1420 2755 
Q 1159 2438 1159 1844 
L 1159 0 
L 581 0 
L 581 3500 
L 1159 3500 
L 1159 2956 
Q 1341 3275 1631 3429 
Q 1922 3584 2338 3584 
Q 2397 3584 2469 3576 
Q 2541 3569 2628 3553 
L 2631 2963 
z
" transform="scale(0.015625)"/>
      <path id="DejaVuSans-65" d="M 3597 1894 
L 3597 1613 
L 953 1613 
Q 991 1019 1311 708 
Q 1631 397 2203 397 
Q 2534 397 2845 478 
Q 3156 559 3463 722 
L 3463 178 
Q 3153 47 2828 -22 
Q 2503 -91 2169 -91 
Q 1331 -91 842 396 
Q 353 884 353 1716 
Q 353 2575 817 3079 
Q 1281 3584 2069 3584 
Q 2775 3584 3186 3129 
Q 3597 2675 3597 1894 
z
M 3022 2063 
Q 3016 2534 2758 2815 
Q 2500 3097 2075 3097 
Q 1594 3097 1305 2825 
Q 1016 2553 972 2059 
L 3022 2063 
z
" transform="scale(0.015625)"/>
      <path id="DejaVuSans-63" d="M 3122 3366 
L 3122 2828 
Q 2878 2963 2633 3030 
Q 2388 3097 2138 3097 
Q 1578 3097 1268 2742 
Q 959 2388 959 1747 
Q 959 1106 1268 751 
Q 1578 397 2138 397 
Q 2388 397 2633 464 
Q 2878 531 3122 666 
L 3122 134 
Q 2881 22 2623 -34 
Q 2366 -91 2075 -91 
Q 1284 -91 818 406 
Q 353 903 353 1747 
Q 353 2603 823 3093 
Q 1294 3584 2113 3584 
Q 2378 3584 2631 3529 
Q 2884 3475 3122 3366 
z
" transform="scale(0.015625)"/>
      <path id="DejaVuSans-3a" d="M 750 794 
L 1409 794 
L 1409 0 
L 750 0 
L 750 794 
z
M 750 3309 
L 1409 3309 
L 1409 2516 
L 750 2516 
L 750 3309 
z
" transform="scale(0.015625)"/>
      <path id="DejaVuSans-64" d="M 2906 2969 
L 2906 4863 
L 3481 4863 
L 3481 0 
L 2906 0 
L 2906 525 
Q 2725 213 2448 61 
Q 2172 -91 1784 -91 
Q 1150 -91 751 415 
Q 353 922 353 1747 
Q 353 2572 751 3078 
Q 1150 3584 1784 3584 
Q 2172 3584 2448 3432 
Q 2725 3281 2906 2969 
z
M 947 1747 
Q 947 1113 1208 752 
Q 1469 391 1925 391 
Q 2381 391 2643 752 
Q 2906 1113 2906 1747 
Q 2906 2381 2643 2742 
Q 2381 3103 1925 3103 
Q 1469 3103 1208 2742 
Q 947 2381 947 1747 
z
" transform="scale(0.015625)"/>
      <path id="DejaVuSans-2d" d="M 313 2009 
L 1997 2009 
L 1997 1497 
L 313 1497 
L 313 2009 
z
" transform="scale(0.015625)"/>
      <path id="DejaVuSans-6f" d="M 1959 3097 
Q 1497 3097 1228 2736 
Q 959 2375 959 1747 
Q 959 1119 1226 758 
Q 1494 397 1959 397 
Q 2419 397 2687 759 
Q 2956 1122 2956 1747 
Q 2956 2369 2687 2733 
Q 2419 3097 1959 3097 
z
M 1959 3584 
Q 2709 3584 3137 3096 
Q 3566 2609 3566 1747 
Q 3566 888 3137 398 
Q 2709 -91 1959 -91 
Q 1206 -91 779 398 
Q 353 888 353 1747 
Q 353 2609 779 3096 
Q 1206 3584 1959 3584 
z
" transform="scale(0.015625)"/>
      <path id="DejaVuSans-76" d="M 191 3500 
L 800 3500 
L 1894 563 
L 2988 3500 
L 3597 3500 
L 2284 0 
L 1503 0 
L 191 3500 
z
" transform="scale(0.015625)"/>
      <path id="DejaVuSans-67" d="M 2906 1791 
Q 2906 2416 2648 2759 
Q 2391 3103 1925 3103 
Q 1463 3103 1205 2759 
Q 947 2416 947 1791 
Q 947 1169 1205 825 
Q 1463 481 1925 481 
Q 2391 481 2648 825 
Q 2906 1169 2906 1791 
z
M 3481 434 
Q 3481 -459 3084 -895 
Q 2688 -1331 1869 -1331 
Q 1566 -1331 1297 -1286 
Q 1028 -1241 775 -1147 
L 775 -588 
Q 1028 -725 1275 -790 
Q 1522 -856 1778 -856 
Q 2344 -856 2625 -561 
Q 2906 -266 2906 331 
L 2906 616 
Q 2728 306 2450 153 
Q 2172 0 1784 0 
Q 1141 0 747 490 
Q 353 981 353 1791 
Q 353 2603 747 3093 
Q 1141 3584 1784 3584 
Q 2172 3584 2450 3431 
Q 2728 3278 2906 2969 
L 2906 3500 
L 3481 3500 
L 3481 434 
z
" transform="scale(0.015625)"/>
     </defs>
     <use xlink:href="#DejaVuSans-69"/>
     <use xlink:href="#DejaVuSans-6e" transform="translate(27.783203 0)"/>
     <use xlink:href="#DejaVuSans-74" transform="translate(91.162109 0)"/>
     <use xlink:href="#DejaVuSans-5f" transform="translate(130.371094 0)"/>
     <use xlink:href="#DejaVuSans-66" transform="translate(180.371094 0)"/>
     <use xlink:href="#DejaVuSans-66" transform="translate(215.576172 0)"/>
     <use xlink:href="#DejaVuSans-74" transform="translate(249.03125 0)"/>
     <use xlink:href="#DejaVuSans-20" transform="translate(288.240234 0)"/>
     <use xlink:href="#DejaVuSans-72" transform="translate(320.027344 0)"/>
     <use xlink:href="#DejaVuSans-65" transform="translate(358.890625 0)"/>
     <use xlink:href="#DejaVuSans-66" transform="translate(420.414062 0)"/>
     <use xlink:href="#DejaVuSans-65" transform="translate(455.619141 0)"/>
     <use xlink:href="#DejaVuSans-72" transform="translate(517.142578 0)"/>
     <use xlink:href="#DejaVuSans-65" transform="translate(556.005859 0)"/>
     <use xlink:href="#DejaVuSans-6e" transform="translate(617.529297 0)"/>
     <use xlink:href="#DejaVuSans-63" transform="translate(680.908203 0)"/>
     <use xlink:href="#DejaVuSans-65" transform="translate(735.888672 0)"/>
     <use xlink:href="#DejaVuSans-3a" transform="translate(797.412109 0)"/>
     <use xlink:href="#DejaVuSans-20" transform="translate(831.103516 0)"/>
     <use xlink:href="#DejaVuSans-62" transform="translate(862.890625 0)"/>
     <use xlink:href="#DejaVuSans-61" transform="translate(926.367188 0)"/>
     <use xlink:href="#DejaVuSans-6c" transform="translate(987.646484 0)"/>
     <use xlink:href="#DejaVuSans-61" transform="translate(1015.429688 0)"/>
     <use xlink:href="#DejaVuSans-6e" transform="translate(1076.708984 0)"/>
     <use xlink:href="#DejaVuSans-63" transform="translate(1140.087891 0)"/>
     <use xlink:href="#DejaVuSans-65" transform="translate(1195.068359 0)"/>
     <use xlink:href="#DejaVuSans-64" transform="translate(1256.591797 0)"/>
     <use xlink:href="#DejaVuSans-20" transform="translate(1320.068359 0)"/>
     <use xlink:href="#DejaVuSans-6d" transform="translate(1351.855469 0)"/>
     <use xlink:href="#DejaVuSans-75" transform="translate(1449.267578 0)"/>
     <use xlink:href="#DejaVuSans-6c" transform="translate(1512.646484 0)"/>
     <use xlink:href="#DejaVuSans-2c" transform="translate(1540.429688 0)"/>
     <use xlink:href="#DejaVuSans-20" transform="translate(1572.216797 0)"/>
     <use xlink:href="#DejaVuSans-70" transform="translate(1604.003906 0)"/>
     <use xlink:href="#DejaVuSans-65" transform="translate(1667.480469 0)"/>
     <use xlink:href="#DejaVuSans-72" transform="translate(1729.003906 0)"/>
     <use xlink:href="#DejaVuSans-2d" transform="translate(1763.742188 0)"/>
     <use xlink:href="#DejaVuSans-63" transform="translate(1799.826172 0)"/>
     <use xlink:href="#DejaVuSans-6f" transform="translate(1854.806641 0)"/>
     <use xlink:href="#DejaVuSans-64" transform="translate(1915.988281 0)"/>
     <use xlink:href="#DejaVuSans-65" transform="translate(1979.464844 0)"/>
     <use xlink:href="#DejaVuSans-63" transform="translate(2040.988281 0)"/>
     <use xlink:href="#DejaVuSans-20" transform="translate(2095.96875 0)"/>
     <use xlink:href="#DejaVuSans-63" transform="translate(2127.755859 0)"/>
     <use xlink:href="#DejaVuSans-6f" transform="translate(2182.736328 0)"/>
     <use xlink:href="#DejaVuSans-73" transform="translate(2243.917969 0)"/>
     <use xlink:href="#DejaVuSans-74" transform="translate(2296.017578 0)"/>
     <use xlink:href="#DejaVuSans-20" transform="translate(2335.226562 0)"/>
     <use xlink:href="#DejaVuSans-28" transform="translate(2367.013672 0)"/>
     <use xlink:href="#DejaVuSans-31" transform="translate(2406.027344 0)"/>
     <use xlink:href="#DejaVuSans-2f" transform="translate(2469.650391 0)"/>
     <use xlink:href="#DejaVuSans-31" transform="translate(2503.341797 0)"/>
     <use xlink:href="#DejaVuSans-36" transform="translate(2566.964844 0)"/>
     <use xlink:href="#DejaVuSans-2d" transform="translate(2630.587891 0)"/>
     <use xlink:href="#DejaVuSans-6f" transform="translate(2668.546875 0)"/>
     <use xlink:href="#DejaVuSans-63" transform="translate(2729.728516 0)"/>
     <use xlink:href="#DejaVuSans-74" transform="translate(2784.708984 0)"/>
     <use xlink:href="#DejaVuSans-61" transform="translate(2823.917969 0)"/>
     <use xlink:href="#DejaVuSans-76" transform="translate(2885.197266 0)"/>
     <use xlink:href="#DejaVuSans-65" transform="translate(2944.376953 0)"/>
     <use xlink:href="#DejaVuSans-20" transform="translate(3005.900391 0)"/>
     <use xlink:href="#DejaVuSans-67" transform="translate(3037.6875 0)"/>
     <use xlink:href="#DejaVuSans-72" transform="translate(3101.164062 0)"/>
     <use xlink:href="#DejaVuSans-69" transform="translate(3142.277344 0)"/>
     <use xlink:href="#DejaVuSans-64" transform="translate(3170.060547 0)"/>
     <use xlink:href="#DejaVuSans-29" transform="translate(3233.537109 0)"/>
    </g>
   </g>
   <g id="legend_1">
    <g id="patch_7">
     <path d="M 50.788005 77.474375 
L 220.989567 77.474375 
Q 222.989567 77.474375 222.989567 75.474375 
L 222.989567 32.44 
Q 222.989567 30.44 220.989567 30.44 
L 50.788005 30.44 
Q 48.788005 30.44 48.788005 32.44 
L 48.788005 75.474375 
Q 48.788005 77.474375 50.788005 77.474375 
z
" style="fill: #ffffff; opacity: 0.8; stroke: #cccccc; stroke-linejoin: miter"/>
    </g>
    <g id="line2d_22">
     <path d="M 52.788005 38.538437 
L 62.788005 38.538437 
L 72.788005 38.538437 
" style="fill: none; stroke: #1f77b4; stroke-width: 1.1; stroke-linecap: square"/>
    </g>
    <g id="text_13">
     <!-- U16 (N &lt;= 2^16) -->
     <g transform="translate(80.788005 42.038437) scale(0.1 -0.1)">
      <defs>
       <path id="DejaVuSans-55" d="M 556 4666 
L 1191 4666 
L 1191 1831 
Q 1191 1081 1462 751 
Q 1734 422 2344 422 
Q 2950 422 3222 751 
Q 3494 1081 3494 1831 
L 3494 4666 
L 4128 4666 
L 4128 1753 
Q 4128 841 3676 375 
Q 3225 -91 2344 -91 
Q 1459 -91 1007 375 
Q 556 841 556 1753 
L 556 4666 
z
" transform="scale(0.015625)"/>
       <path id="DejaVuSans-4e" d="M 628 4666 
L 1478 4666 
L 3547 763 
L 3547 4666 
L 4159 4666 
L 4159 0 
L 3309 0 
L 1241 3903 
L 1241 0 
L 628 0 
L 628 4666 
z
" transform="scale(0.015625)"/>
       <path id="DejaVuSans-3c" d="M 4684 3150 
L 1459 2003 
L 4684 863 
L 4684 294 
L 678 1747 
L 678 2266 
L 4684 3719 
L 4684 3150 
z
" transform="scale(0.015625)"/>
       <path id="DejaVuSans-5e" d="M 2988 4666 
L 4684 2925 
L 4056 2925 
L 2681 4159 
L 1306 2925 
L 678 2925 
L 2375 4666 
L 2988 4666 
z
" transform="scale(0.015625)"/>
      </defs>
      <use xlink:href="#DejaVuSans-55"/>
      <use xlink:href="#DejaVuSans-31" transform="translate(73.193359 0)"/>
      <use xlink:href="#DejaVuSans-36" transform="translate(136.816406 0)"/>
      <use xlink:href="#DejaVuSans-20" transform="translate(200.439453 0)"/>
      <use xlink:href="#DejaVuSans-28" transform="translate(232.226562 0)"/>
      <use xlink:href="#DejaVuSans-4e" transform="translate(271.240234 0)"/>
      <use xlink:href="#DejaVuSans-20" transform="translate(346.044922 0)"/>
      <use xlink:href="#DejaVuSans-3c" transform="translate(377.832031 0)"/>
      <use xlink:href="#DejaVuSans-3d" transform="translate(461.621094 0)"/>
      <use xlink:href="#DejaVuSans-20" transform="translate(545.410156 0)"/>
      <use xlink:href="#DejaVuSans-32" transform="translate(577.197266 0)"/>
      <use xlink:href="#DejaVuSans-5e" transform="translate(640.820312 0)"/>
      <use xlink:href="#DejaVuSans-31" transform="translate(724.609375 0)"/>
      <use xlink:href="#DejaVuSans-36" transform="translate(788.232422 0)"/>
      <use xlink:href="#DejaVuSans-29" transform="translate(851.855469 0)"/>
     </g>
    </g>
    <g id="line2d_23">
     <path d="M 52.788005 53.216563 
L 62.788005 53.216563 
L 72.788005 53.216563 
" style="fill: none; stroke: #ff7f0e; stroke-width: 1.1; stroke-linecap: square"/>
    </g>
    <g id="text_14">
     <!-- Wide U16 (N &lt;= 2^17) -->
     <g transform="translate(80.788005 56.716563) scale(0.1 -0.1)">
      <defs>
       <path id="DejaVuSans-57" d="M 213 4666 
L 850 4666 
L 1831 722 
L 2809 4666 
L 3519 4666 
L 4500 722 
L 5478 4666 
L 6119 4666 
L 4947 0 
L 4153 0 
L 3169 4050 
L 2175 0 
L 1381 0 
L 213 4666 
z
" transform="scale(0.015625)"/>
       <path id="DejaVuSans-37" d="M 525 4666 
L 3525 4666 
L 3525 4397 
L 1831 0 
L 1172 0 
L 2766 4134 
L 525 4134 
L 525 4666 
z
" transform="scale(0.015625)"/>
      </defs>
      <use xlink:href="#DejaVuSans-57"/>
      <use xlink:href="#DejaVuSans-69" transform="translate(96.626953 0)"/>
      <use xlink:href="#DejaVuSans-64" transform="translate(124.410156 0)"/>
      <use xlink:href="#DejaVuSans-65" transform="translate(187.886719 0)"/>
      <use xlink:href="#DejaVuSans-20" transform="translate(249.410156 0)"/>
      <use xlink:href="#DejaVuSans-55" transform="translate(281.197266 0)"/>
      <use xlink:href="#DejaVuSans-31" transform="translate(354.390625 0)"/>
      <use xlink:href="#DejaVuSans-36" transform="translate(418.013672 0)"/>
      <use xlink:href="#DejaVuSans-20" transform="translate(481.636719 0)"/>
      <use xlink:href="#DejaVuSans-28" transform="translate(513.423828 0)"/>
      <use xlink:href="#DejaVuSans-4e" transform="translate(552.4375 0)"/>
      <use xlink:href="#DejaVuSans-20" transform="translate(627.242188 0)"/>
      <use xlink:href="#DejaVuSans-3c" transform="translate(659.029297 0)"/>
      <use xlink:href="#DejaVuSans-3d" transform="translate(742.818359 0)"/>
      <use xlink:href="#DejaVuSans-20" transform="translate(826.607422 0)"/>
      <use xlink:href="#DejaVuSans-32" transform="translate(858.394531 0)"/>
      <use xlink:href="#DejaVuSans-5e" transform="translate(922.017578 0)"/>
      <use xlink:href="#DejaVuSans-31" transform="translate(1005.806641 0)"/>
      <use xlink:href="#DejaVuSans-37" transform="translate(1069.429688 0)"/>
      <use xlink:href="#DejaVuSans-29" transform="translate(1133.052734 0)"/>
     </g>
    </g>
    <g id="line2d_24">
     <path d="M 52.788005 67.894687 
L 62.788005 67.894687 
L 72.788005 67.894687 
" style="fill: none; stroke: #2ca02c; stroke-width: 1.1; stroke-linecap: square"/>
    </g>
    <g id="text_15">
     <!-- Centered U16 (N &lt;= 2^19) -->
     <g transform="translate(80.788005 71.394687) scale(0.1 -0.1)">
      <defs>
       <path id="DejaVuSans-43" d="M 4122 4306 
L 4122 3641 
Q 3803 3938 3442 4084 
Q 3081 4231 2675 4231 
Q 1875 4231 1450 3742 
Q 1025 3253 1025 2328 
Q 1025 1406 1450 917 
Q 1875 428 2675 428 
Q 3081 428 3442 575 
Q 3803 722 4122 1019 
L 4122 359 
Q 3791 134 3420 21 
Q 3050 -91 2638 -91 
Q 1578 -91 968 557 
Q 359 1206 359 2328 
Q 359 3453 968 4101 
Q 1578 4750 2638 4750 
Q 3056 4750 3426 4639 
Q 3797 4528 4122 4306 
z
" transform="scale(0.015625)"/>
       <path id="DejaVuSans-39" d="M 703 97 
L 703 672 
Q 941 559 1184 500 
Q 1428 441 1663 441 
Q 2288 441 2617 861 
Q 2947 1281 2994 2138 
Q 2813 1869 2534 1725 
Q 2256 1581 1919 1581 
Q 1219 1581 811 2004 
Q 403 2428 403 3163 
Q 403 3881 828 4315 
Q 1253 4750 1959 4750 
Q 2769 4750 3195 4129 
Q 3622 3509 3622 2328 
Q 3622 1225 3098 567 
Q 2575 -91 1691 -91 
Q 1453 -91 1209 -44 
Q 966 3 703 97 
z
M 1959 2075 
Q 2384 2075 2632 2365 
Q 2881 2656 2881 3163 
Q 2881 3666 2632 3958 
Q 2384 4250 1959 4250 
Q 1534 4250 1286 3958 
Q 1038 3666 1038 3163 
Q 1038 2656 1286 2365 
Q 1534 2075 1959 2075 
z
" transform="scale(0.015625)"/>
      </defs>
      <use xlink:href="#DejaVuSans-43"/>
      <use xlink:href="#DejaVuSans-65" transform="translate(69.824219 0)"/>
      <use xlink:href="#DejaVuSans-6e" transform="translate(131.347656 0)"/>
      <use xlink:href="#DejaVuSans-74" transform="translate(194.726562 0)"/>
      <use xlink:href="#DejaVuSans-65" transform="translate(233.935547 0)"/>
      <use xlink:href="#DejaVuSans-72" transform="translate(295.458984 0)"/>
      <use xlink:href="#DejaVuSans-65" transform="translate(334.322266 0)"/>
      <use xlink:href="#DejaVuSans-64" transform="translate(395.845703 0)"/>
      <use xlink:href="#DejaVuSans-20" transform="translate(459.322266 0)"/>
      <use xlink:href="#DejaVuSans-55" transform="translate(491.109375 0)"/>
      <use xlink:href="#DejaVuSans-31" transform="translate(564.302734 0)"/>
      <use xlink:href="#DejaVuSans-36" transform="translate(627.925781 0)"/>
      <use xlink:href="#DejaVuSans-20" transform="translate(691.548828 0)"/>
      <use xlink:href="#DejaVuSans-28" transform="translate(723.335938 0)"/>
      <use xlink:href="#DejaVuSans-4e" transform="translate(762.349609 0)"/>
      <use xlink:href="#DejaVuSans-20" transform="translate(837.154297 0)"/>
      <use xlink:href="#DejaVuSans-3c" transform="translate(868.941406 0)"/>
      <use xlink:href="#DejaVuSans-3d" transform="translate(952.730469 0)"/>
      <use xlink:href="#DejaVuSans-20" transform="translate(1036.519531 0)"/>
      <use xlink:href="#DejaVuSans-32" transform="translate(1068.306641 0)"/>
      <use xlink:href="#DejaVuSans-5e" transform="translate(1131.929688 0)"/>
      <use xlink:href="#DejaVuSans-31" transform="translate(1215.71875 0)"/>
      <use xlink:href="#DejaVuSans-39" transform="translate(1279.341797 0)"/>
      <use xlink:href="#DejaVuSans-29" transform="translate(1342.964844 0)"/>
     </g>
    </g>
   </g>
  </g>
 </g>
 <defs>
  <clipPath id="pfb28d0db9e">
   <rect x="43.788005" y="25.44" width="809.411995" height="433.288"/>
  </clipPath>
 </defs>
</svg>
