<?xml version="1.0" encoding="utf-8" standalone="no"?>
<!DOCTYPE svg PUBLIC "-//W3C//DTD SVG 1.1//EN"
  "http://www.w3.org/Graphics/SVG/1.1/DTD/svg11.dtd">
<svg xmlns:xlink="http://www.w3.org/1999/xlink" width="1008pt" height="396pt" viewBox="0 0 1008 396" xmlns="http://www.w3.org/2000/svg" version="1.1">
 <metadata>
  <rdf:RDF xmlns:dc="http://purl.org/dc/elements/1.1/" xmlns:cc="http://creativecommons.org/ns#" xmlns:rdf="http://www.w3.org/1999/02/22-rdf-syntax-ns#">
   <cc:Work>
    <dc:type rdf:resource="http://purl.org/dc/dcmitype/StillImage"/>
    <dc:date>2026-07-01T12:51:34.634653</dc:date>
    <dc:format>image/svg+xml</dc:format>
    <dc:creator>
     <cc:Agent>
      <dc:title>Matplotlib v3.10.7+dfsg1, https://matplotlib.org/</dc:title>
     </cc:Agent>
    </dc:creator>
   </cc:Work>
  </rdf:RDF>
 </metadata>
 <defs>
  <style type="text/css">*{stroke-linejoin: round; stroke-linecap: butt}</style>
 </defs>
 <g id="figure_1">
  <g id="patch_1">
   <path d="M 0 396 
L 1008 396 
L 1008 0 
L 0 0 
z
" style="fill: #ffffff"/>
  </g>
  <g id="axes_1">
   <g id="patch_2">
    <path d="M 44.76125 354.04 
L 498.650625 354.04 
L 498.650625 25.44 
L 44.76125 25.44 
z
" style="fill: #ffffff"/>
   </g>
   <g id="matplotlib.axis_1">
    <g id="xtick_1">
     <g id="line2d_1">
      <path d="M 46.562398 354.04 
L 46.562398 25.44 
" clip-path="url(#pd1e77af282)" style="fill: none; stroke: #b0b0b0; stroke-opacity: 0.3; stroke-width: 0.8; stroke-linecap: square"/>
     </g>
     <g id="line2d_2">
      <defs>
       <path id="m875a682853" d="M 0 0 
L 0 3.5 
" style="stroke: #000000; stroke-width: 0.8"/>
      </defs>
      <g>
       <use xlink:href="#m875a682853" x="46.562398" y="354.04" style="stroke: #000000; stroke-width: 0.8"/>
      </g>
     </g>
     <g id="text_1">
      <!-- 0 -->
      <g transform="translate(43.381148 368.638437) scale(0.1 -0.1)">
       <defs>
        <path id="DejaVuSans-30" d="M 2034 4250 
Q 1547 4250 1301 3770 
Q 1056 3291 1056 2328 
Q 1056 1369 1301 889 
Q 1547 409 2034 409 
Q 2525 409 2770 889 
Q 3016 1369 3016 2328 
Q 3016 3291 2770 3770 
Q 2525 4250 2034 4250 
z
M 2034 4750 
Q 2819 4750 3233 4129 
Q 3647 3509 3647 2328 
Q 3647 1150 3233 529 
Q 2819 -91 2034 -91 
Q 1250 -91 836 529 
Q 422 1150 422 2328 
Q 422 3509 836 4129 
Q 1250 4750 2034 4750 
z
" transform="scale(0.015625)"/>
       </defs>
       <use xlink:href="#DejaVuSans-30"/>
      </g>
     </g>
    </g>
    <g id="xtick_2">
     <g id="line2d_3">
      <path d="M 133.156067 354.04 
L 133.156067 25.44 
" clip-path="url(#pd1e77af282)" style="fill: none; stroke: #b0b0b0; stroke-opacity: 0.3; stroke-width: 0.8; stroke-linecap: square"/>
     </g>
     <g id="line2d_4">
      <g>
       <use xlink:href="#m875a682853" x="133.156067" y="354.04" style="stroke: #000000; stroke-width: 0.8"/>
      </g>
     </g>
     <g id="text_2">
      <!-- 100 -->
      <g transform="translate(123.612317 368.638437) scale(0.1 -0.1)">
       <defs>
        <path id="DejaVuSans-31" d="M 794 531 
L 1825 531 
L 1825 4091 
L 703 3866 
L 703 4441 
L 1819 4666 
L 2450 4666 
L 2450 531 
L 3481 531 
L 3481 0 
L 794 0 
L 794 531 
z
" transform="scale(0.015625)"/>
       </defs>
       <use xlink:href="#DejaVuSans-31"/>
       <use xlink:href="#DejaVuSans-30" transform="translate(63.623047 0)"/>
       <use xlink:href="#DejaVuSans-30" transform="translate(127.246094 0)"/>
      </g>
     </g>
    </g>
    <g id="xtick_3">
     <g id="line2d_5">
      <path d="M 219.749736 354.04 
L 219.749736 25.44 
" clip-path="url(#pd1e77af282)" style="fill: none; stroke: #b0b0b0; stroke-opacity: 0.3; stroke-width: 0.8; stroke-linecap: square"/>
     </g>
     <g id="line2d_6">
      <g>
       <use xlink:href="#m875a682853" x="219.749736" y="354.04" style="stroke: #000000; stroke-width: 0.8"/>
      </g>
     </g>
     <g id="text_3">
      <!-- 200 -->
      <g transform="translate(210.205986 368.638437) scale(0.1 -0.1)">
       <defs>
        <path id="DejaVuSans-32" d="M 1228 531 
L 3431 531 
L 3431 0 
L 469 0 
L 469 531 
Q 828 903 1448 1529 
Q 2069 2156 2228 2338 
Q 2531 2678 2651 2914 
Q 2772 3150 2772 3378 
Q 2772 3750 2511 3984 
Q 2250 4219 1831 4219 
Q 1534 4219 1204 4116 
Q 875 4013 500 3803 
L 500 4441 
Q 881 4594 1212 4672 
Q 1544 4750 1819 4750 
Q 2544 4750 2975 4387 
Q 3406 4025 3406 3419 
Q 3406 3131 3298 2873 
Q 3191 2616 2906 2266 
Q 2828 2175 2409 1742 
Q 1991 1309 1228 531 
z
" transform="scale(0.015625)"/>
       </defs>
       <use xlink:href="#DejaVuSans-32"/>
       <use xlink:href="#DejaVuSans-30" transform="translate(63.623047 0)"/>
       <use xlink:href="#DejaVuSans-30" transform="translate(127.246094 0)"/>
      </g>
     </g>
    </g>
    <g id="xtick_4">
     <g id="line2d_7">
      <path d="M 306.343405 354.04 
L 306.343405 25.44 
" clip-path="url(#pd1e77af282)" style="fill: none; stroke: #b0b0b0; stroke-opacity: 0.3; stroke-width: 0.8; stroke-linecap: square"/>
     </g>
     <g id="line2d_8">
      <g>
       <use xlink:href="#m875a682853" x="306.343405" y="354.04" style="stroke: #000000; stroke-width: 0.8"/>
      </g>
     </g>
     <g id="text_4">
      <!-- 300 -->
      <g transform="translate(296.799655 368.638437) scale(0.1 -0.1)">
       <defs>
        <path id="DejaVuSans-33" d="M 2597 2516 
Q 3050 2419 3304 2112 
Q 3559 1806 3559 1356 
Q 3559 666 3084 287 
Q 2609 -91 1734 -91 
Q 1441 -91 1130 -33 
Q 819 25 488 141 
L 488 750 
Q 750 597 1062 519 
Q 1375 441 1716 441 
Q 2309 441 2620 675 
Q 2931 909 2931 1356 
Q 2931 1769 2642 2001 
Q 2353 2234 1838 2234 
L 1294 2234 
L 1294 2753 
L 1863 2753 
Q 2328 2753 2575 2939 
Q 2822 3125 2822 3475 
Q 2822 3834 2567 4026 
Q 2313 4219 1838 4219 
Q 1578 4219 1281 4162 
Q 984 4106 628 3988 
L 628 4550 
Q 988 4650 1302 4700 
Q 1616 4750 1894 4750 
Q 2613 4750 3031 4423 
Q 3450 4097 3450 3541 
Q 3450 3153 3228 2886 
Q 3006 2619 2597 2516 
z
" transform="scale(0.015625)"/>
       </defs>
       <use xlink:href="#DejaVuSans-33"/>
       <use xlink:href="#DejaVuSans-30" transform="translate(63.623047 0)"/>
       <use xlink:href="#DejaVuSans-30" transform="translate(127.246094 0)"/>
      </g>
     </g>
    </g>
    <g id="xtick_5">
     <g id="line2d_9">
      <path d="M 392.937074 354.04 
L 392.937074 25.44 
" clip-path="url(#pd1e77af282)" style="fill: none; stroke: #b0b0b0; stroke-opacity: 0.3; stroke-width: 0.8; stroke-linecap: square"/>
     </g>
     <g id="line2d_10">
      <g>
       <use xlink:href="#m875a682853" x="392.937074" y="354.04" style="stroke: #000000; stroke-width: 0.8"/>
      </g>
     </g>
     <g id="text_5">
      <!-- 400 -->
      <g transform="translate(383.393324 368.638437) scale(0.1 -0.1)">
       <defs>
        <path id="DejaVuSans-34" d="M 2419 4116 
L 825 1625 
L 2419 1625 
L 2419 4116 
z
M 2253 4666 
L 3047 4666 
L 3047 1625 
L 3713 1625 
L 3713 1100 
L 3047 1100 
L 3047 0 
L 2419 0 
L 2419 1100 
L 313 1100 
L 313 1709 
L 2253 4666 
z
" transform="scale(0.015625)"/>
       </defs>
       <use xlink:href="#DejaVuSans-34"/>
       <use xlink:href="#DejaVuSans-30" transform="translate(63.623047 0)"/>
       <use xlink:href="#DejaVuSans-30" transform="translate(127.246094 0)"/>
      </g>
     </g>
    </g>
    <g id="xtick_6">
     <g id="line2d_11">
      <path d="M 479.530743 354.04 
L 479.530743 25.44 
" clip-path="url(#pd1e77af282)" style="fill: none; stroke: #b0b0b0; stroke-opacity: 0.3; stroke-width: 0.8; stroke-linecap: square"/>
     </g>
     <g id="line2d_12">
      <g>
       <use xlink:href="#m875a682853" x="479.530743" y="354.04" style="stroke: #000000; stroke-width: 0.8"/>
      </g>
     </g>
     <g id="text_6">
      <!-- 500 -->
      <g transform="translate(469.986993 368.638437) scale(0.1 -0.1)">
       <defs>
        <path id="DejaVuSans-35" d="M 691 4666 
L 3169 4666 
L 3169 4134 
L 1269 4134 
L 1269 2991 
Q 1406 3038 1543 3061 
Q 1681 3084 1819 3084 
Q 2600 3084 3056 2656 
Q 3513 2228 3513 1497 
Q 3513 744 3044 326 
Q 2575 -91 1722 -91 
Q 1428 -91 1123 -41 
Q 819 9 494 109 
L 494 744 
Q 775 591 1075 516 
Q 1375 441 1709 441 
Q 2250 441 2565 725 
Q 2881 1009 2881 1497 
Q 2881 1984 2565 2268 
Q 2250 2553 1709 2553 
Q 1456 2553 1204 2497 
Q 953 2441 691 2322 
L 691 4666 
z
" transform="scale(0.015625)"/>
       </defs>
       <use xlink:href="#DejaVuSans-35"/>
       <use xlink:href="#DejaVuSans-30" transform="translate(63.623047 0)"/>
       <use xlink:href="#DejaVuSans-30" transform="translate(127.246094 0)"/>
      </g>
     </g>
    </g>
    <g id="text_7">
     <!-- an (limbs)   [bn = 2*an] -->
     <g transform="translate(212.261406 382.316562) scale(0.1 -0.1)">
      <defs>
       <path id="DejaVuSans-61" d="M 2194 1759 
Q 1497 1759 1228 1600 
Q 959 1441 959 1056 
Q 959 750 1161 570 
Q 1363 391 1709 391 
Q 2188 391 2477 730 
Q 2766 1069 2766 1631 
L 2766 1759 
L 2194 1759 
z
M 3341 1997 
L 3341 0 
L 2766 0 
L 2766 531 
Q 2569 213 2275 61 
Q 1981 -91 1556 -91 
Q 1019 -91 701 211 
Q 384 513 384 1019 
Q 384 1609 779 1909 
Q 1175 2209 1959 2209 
L 2766 2209 
L 2766 2266 
Q 2766 2663 2505 2880 
Q 2244 3097 1772 3097 
Q 1472 3097 1187 3025 
Q 903 2953 641 2809 
L 641 3341 
Q 956 3463 1253 3523 
Q 1550 3584 1831 3584 
Q 2591 3584 2966 3190 
Q 3341 2797 3341 1997 
z
" transform="scale(0.015625)"/>
       <path id="DejaVuSans-6e" d="M 3513 2113 
L 3513 0 
L 2938 0 
L 2938 2094 
Q 2938 2591 2744 2837 
Q 2550 3084 2163 3084 
Q 1697 3084 1428 2787 
Q 1159 2491 1159 1978 
L 1159 0 
L 581 0 
L 581 3500 
L 1159 3500 
L 1159 2956 
Q 1366 3272 1645 3428 
Q 1925 3584 2291 3584 
Q 2894 3584 3203 3211 
Q 3513 2838 3513 2113 
z
" transform="scale(0.015625)"/>
       <path id="DejaVuSans-20" transform="scale(0.015625)"/>
       <path id="DejaVuSans-28" d="M 1984 4856 
Q 1566 4138 1362 3434 
Q 1159 2731 1159 2009 
Q 1159 1288 1364 580 
Q 1569 -128 1984 -844 
L 1484 -844 
Q 1016 -109 783 600 
Q 550 1309 550 2009 
Q 550 2706 781 3412 
Q 1013 4119 1484 4856 
L 1984 4856 
z
" transform="scale(0.015625)"/>
       <path id="DejaVuSans-6c" d="M 603 4863 
L 1178 4863 
L 1178 0 
L 603 0 
L 603 4863 
z
" transform="scale(0.015625)"/>
       <path id="DejaVuSans-69" d="M 603 3500 
L 1178 3500 
L 1178 0 
L 603 0 
L 603 3500 
z
M 603 4863 
L 1178 4863 
L 1178 4134 
L 603 4134 
L 603 4863 
z
" transform="scale(0.015625)"/>
       <path id="DejaVuSans-6d" d="M 3328 2828 
Q 3544 3216 3844 3400 
Q 4144 3584 4550 3584 
Q 5097 3584 5394 3201 
Q 5691 2819 5691 2113 
L 5691 0 
L 5113 0 
L 5113 2094 
Q 5113 2597 4934 2840 
Q 4756 3084 4391 3084 
Q 3944 3084 3684 2787 
Q 3425 2491 3425 1978 
L 3425 0 
L 2847 0 
L 2847 2094 
Q 2847 2600 2669 2842 
Q 2491 3084 2119 3084 
Q 1678 3084 1418 2786 
Q 1159 2488 1159 1978 
L 1159 0 
L 581 0 
L 581 3500 
L 1159 3500 
L 1159 2956 
Q 1356 3278 1631 3431 
Q 1906 3584 2284 3584 
Q 2666 3584 2933 3390 
Q 3200 3197 3328 2828 
z
" transform="scale(0.015625)"/>
       <path id="DejaVuSans-62" d="M 3116 1747 
Q 3116 2381 2855 2742 
Q 2594 3103 2138 3103 
Q 1681 3103 1420 2742 
Q 1159 2381 1159 1747 
Q 1159 1113 1420 752 
Q 1681 391 2138 391 
Q 2594 391 2855 752 
Q 3116 1113 3116 1747 
z
M 1159 2969 
Q 1341 3281 1617 3432 
Q 1894 3584 2278 3584 
Q 2916 3584 3314 3078 
Q 3713 2572 3713 1747 
Q 3713 922 3314 415 
Q 2916 -91 2278 -91 
Q 1894 -91 1617 61 
Q 1341 213 1159 525 
L 1159 0 
L 581 0 
L 581 4863 
L 1159 4863 
L 1159 2969 
z
" transform="scale(0.015625)"/>
       <path id="DejaVuSans-73" d="M 2834 3397 
L 2834 2853 
Q 2591 2978 2328 3040 
Q 2066 3103 1784 3103 
Q 1356 3103 1142 2972 
Q 928 2841 928 2578 
Q 928 2378 1081 2264 
Q 1234 2150 1697 2047 
L 1894 2003 
Q 2506 1872 2764 1633 
Q 3022 1394 3022 966 
Q 3022 478 2636 193 
Q 2250 -91 1575 -91 
Q 1294 -91 989 -36 
Q 684 19 347 128 
L 347 722 
Q 666 556 975 473 
Q 1284 391 1588 391 
Q 1994 391 2212 530 
Q 2431 669 2431 922 
Q 2431 1156 2273 1281 
Q 2116 1406 1581 1522 
L 1381 1569 
Q 847 1681 609 1914 
Q 372 2147 372 2553 
Q 372 3047 722 3315 
Q 1072 3584 1716 3584 
Q 2034 3584 2315 3537 
Q 2597 3491 2834 3397 
z
" transform="scale(0.015625)"/>
       <path id="DejaVuSans-29" d="M 513 4856 
L 1013 4856 
Q 1481 4119 1714 3412 
Q 1947 2706 1947 2009 
Q 1947 1309 1714 600 
Q 1481 -109 1013 -844 
L 513 -844 
Q 928 -128 1133 580 
Q 1338 1288 1338 2009 
Q 1338 2731 1133 3434 
Q 928 4138 513 4856 
z
" transform="scale(0.015625)"/>
       <path id="DejaVuSans-5b" d="M 550 4863 
L 1875 4863 
L 1875 4416 
L 1125 4416 
L 1125 -397 
L 1875 -397 
L 1875 -844 
L 550 -844 
L 550 4863 
z
" transform="scale(0.015625)"/>
       <path id="DejaVuSans-3d" d="M 678 2906 
L 4684 2906 
L 4684 2381 
L 678 2381 
L 678 2906 
z
M 678 1631 
L 4684 1631 
L 4684 1100 
L 678 1100 
L 678 1631 
z
" transform="scale(0.015625)"/>
       <path id="DejaVuSans-2a" d="M 3009 3897 
L 1888 3291 
L 3009 2681 
L 2828 2375 
L 1778 3009 
L 1778 1831 
L 1422 1831 
L 1422 3009 
L 372 2375 
L 191 2681 
L 1313 3291 
L 191 3897 
L 372 4206 
L 1422 3572 
L 1422 4750 
L 1778 4750 
L 1778 3572 
L 2828 4206 
L 3009 3897 
z
" transform="scale(0.015625)"/>
       <path id="DejaVuSans-5d" d="M 1947 4863 
L 1947 -844 
L 622 -844 
L 622 -397 
L 1369 -397 
L 1369 4416 
L 622 4416 
L 622 4863 
L 1947 4863 
z
" transform="scale(0.015625)"/>
      </defs>
      <use xlink:href="#DejaVuSans-61"/>
      <use xlink:href="#DejaVuSans-6e" transform="translate(61.279297 0)"/>
      <use xlink:href="#DejaVuSans-20" transform="translate(124.658203 0)"/>
      <use xlink:href="#DejaVuSans-28" transform="translate(156.445312 0)"/>
      <use xlink:href="#DejaVuSans-6c" transform="translate(195.458984 0)"/>
      <use xlink:href="#DejaVuSans-69" transform="translate(223.242188 0)"/>
      <use xlink:href="#DejaVuSans-6d" transform="translate(251.025391 0)"/>
      <use xlink:href="#DejaVuSans-62" transform="translate(348.4375 0)"/>
      <use xlink:href="#DejaVuSans-73" transform="translate(411.914062 0)"/>
      <use xlink:href="#DejaVuSans-29" transform="translate(464.013672 0)"/>
      <use xlink:href="#DejaVuSans-20" transform="translate(503.027344 0)"/>
      <use xlink:href="#DejaVuSans-20" transform="translate(534.814453 0)"/>
      <use xlink:href="#DejaVuSans-20" transform="translate(566.601562 0)"/>
      <use xlink:href="#DejaVuSans-5b" transform="translate(598.388672 0)"/>
      <use xlink:href="#DejaVuSans-62" transform="translate(637.402344 0)"/>
      <use xlink:href="#DejaVuSans-6e" transform="translate(700.878906 0)"/>
      <use xlink:href="#DejaVuSans-20" transform="translate(764.257812 0)"/>
      <use xlink:href="#DejaVuSans-3d" transform="translate(796.044922 0)"/>
      <use xlink:href="#DejaVuSans-20" transform="translate(879.833984 0)"/>
      <use xlink:href="#DejaVuSans-32" transform="translate(911.621094 0)"/>
      <use xlink:href="#DejaVuSans-2a" transform="translate(975.244141 0)"/>
      <use xlink:href="#DejaVuSans-61" transform="translate(1025.244141 0)"/>
      <use xlink:href="#DejaVuSans-6e" transform="translate(1086.523438 0)"/>
      <use xlink:href="#DejaVuSans-5d" transform="translate(1149.902344 0)"/>
     </g>
    </g>
   </g>
   <g id="matplotlib.axis_2">
    <g id="ytick_1">
     <g id="line2d_13">
      <path d="M 44.76125 349.569067 
L 498.650625 349.569067 
" clip-path="url(#pd1e77af282)" style="fill: none; stroke: #b0b0b0; stroke-opacity: 0.3; stroke-width: 0.8; stroke-linecap: square"/>
     </g>
     <g id="line2d_14">
      <defs>
       <path id="md94f2c66fd" d="M 0 0 
L -3.5 0 
" style="stroke: #000000; stroke-width: 0.8"/>
      </defs>
      <g>
       <use xlink:href="#md94f2c66fd" x="44.76125" y="349.569067" style="stroke: #000000; stroke-width: 0.8"/>
      </g>
     </g>
     <g id="text_8">
      <!-- 0 -->
      <g transform="translate(31.39875 353.368286) scale(0.1 -0.1)">
       <use xlink:href="#DejaVuSans-30"/>
      </g>
     </g>
    </g>
    <g id="ytick_2">
     <g id="line2d_15">
      <path d="M 44.76125 307.66544 
L 498.650625 307.66544 
" clip-path="url(#pd1e77af282)" style="fill: none; stroke: #b0b0b0; stroke-opacity: 0.3; stroke-width: 0.8; stroke-linecap: square"/>
     </g>
     <g id="line2d_16">
      <g>
       <use xlink:href="#md94f2c66fd" x="44.76125" y="307.66544" style="stroke: #000000; stroke-width: 0.8"/>
      </g>
     </g>
     <g id="text_9">
      <!-- 2 -->
      <g transform="translate(31.39875 311.464659) scale(0.1 -0.1)">
       <use xlink:href="#DejaVuSans-32"/>
      </g>
     </g>
    </g>
    <g id="ytick_3">
     <g id="line2d_17">
      <path d="M 44.76125 265.761814 
L 498.650625 265.761814 
" clip-path="url(#pd1e77af282)" style="fill: none; stroke: #b0b0b0; stroke-opacity: 0.3; stroke-width: 0.8; stroke-linecap: square"/>
     </g>
     <g id="line2d_18">
      <g>
       <use xlink:href="#md94f2c66fd" x="44.76125" y="265.761814" style="stroke: #000000; stroke-width: 0.8"/>
      </g>
     </g>
     <g id="text_10">
      <!-- 4 -->
      <g transform="translate(31.39875 269.561032) scale(0.1 -0.1)">
       <use xlink:href="#DejaVuSans-34"/>
      </g>
     </g>
    </g>
    <g id="ytick_4">
     <g id="line2d_19">
      <path d="M 44.76125 223.858187 
L 498.650625 223.858187 
" clip-path="url(#pd1e77af282)" style="fill: none; stroke: #b0b0b0; stroke-opacity: 0.3; stroke-width: 0.8; stroke-linecap: square"/>
     </g>
     <g id="line2d_20">
      <g>
       <use xlink:href="#md94f2c66fd" x="44.76125" y="223.858187" style="stroke: #000000; stroke-width: 0.8"/>
      </g>
     </g>
     <g id="text_11">
      <!-- 6 -->
      <g transform="translate(31.39875 227.657405) scale(0.1 -0.1)">
       <defs>
        <path id="DejaVuSans-36" d="M 2113 2584 
Q 1688 2584 1439 2293 
Q 1191 2003 1191 1497 
Q 1191 994 1439 701 
Q 1688 409 2113 409 
Q 2538 409 2786 701 
Q 3034 994 3034 1497 
Q 3034 2003 2786 2293 
Q 2538 2584 2113 2584 
z
M 3366 4563 
L 3366 3988 
Q 3128 4100 2886 4159 
Q 2644 4219 2406 4219 
Q 1781 4219 1451 3797 
Q 1122 3375 1075 2522 
Q 1259 2794 1537 2939 
Q 1816 3084 2150 3084 
Q 2853 3084 3261 2657 
Q 3669 2231 3669 1497 
Q 3669 778 3244 343 
Q 2819 -91 2113 -91 
Q 1303 -91 875 529 
Q 447 1150 447 2328 
Q 447 3434 972 4092 
Q 1497 4750 2381 4750 
Q 2619 4750 2861 4703 
Q 3103 4656 3366 4563 
z
" transform="scale(0.015625)"/>
       </defs>
       <use xlink:href="#DejaVuSans-36"/>
      </g>
     </g>
    </g>
    <g id="ytick_5">
     <g id="line2d_21">
      <path d="M 44.76125 181.95456 
L 498.650625 181.95456 
" clip-path="url(#pd1e77af282)" style="fill: none; stroke: #b0b0b0; stroke-opacity: 0.3; stroke-width: 0.8; stroke-linecap: square"/>
     </g>
     <g id="line2d_22">
      <g>
       <use xlink:href="#md94f2c66fd" x="44.76125" y="181.95456" style="stroke: #000000; stroke-width: 0.8"/>
      </g>
     </g>
     <g id="text_12">
      <!-- 8 -->
      <g transform="translate(31.39875 185.753779) scale(0.1 -0.1)">
       <defs>
        <path id="DejaVuSans-38" d="M 2034 2216 
Q 1584 2216 1326 1975 
Q 1069 1734 1069 1313 
Q 1069 891 1326 650 
Q 1584 409 2034 409 
Q 2484 409 2743 651 
Q 3003 894 3003 1313 
Q 3003 1734 2745 1975 
Q 2488 2216 2034 2216 
z
M 1403 2484 
Q 997 2584 770 2862 
Q 544 3141 544 3541 
Q 544 4100 942 4425 
Q 1341 4750 2034 4750 
Q 2731 4750 3128 4425 
Q 3525 4100 3525 3541 
Q 3525 3141 3298 2862 
Q 3072 2584 2669 2484 
Q 3125 2378 3379 2068 
Q 3634 1759 3634 1313 
Q 3634 634 3220 271 
Q 2806 -91 2034 -91 
Q 1263 -91 848 271 
Q 434 634 434 1313 
Q 434 1759 690 2068 
Q 947 2378 1403 2484 
z
M 1172 3481 
Q 1172 3119 1398 2916 
Q 1625 2713 2034 2713 
Q 2441 2713 2670 2916 
Q 2900 3119 2900 3481 
Q 2900 3844 2670 4047 
Q 2441 4250 2034 4250 
Q 1625 4250 1398 4047 
Q 1172 3844 1172 3481 
z
" transform="scale(0.015625)"/>
       </defs>
       <use xlink:href="#DejaVuSans-38"/>
      </g>
     </g>
    </g>
    <g id="ytick_6">
     <g id="line2d_23">
      <path d="M 44.76125 140.050933 
L 498.650625 140.050933 
" clip-path="url(#pd1e77af282)" style="fill: none; stroke: #b0b0b0; stroke-opacity: 0.3; stroke-width: 0.8; stroke-linecap: square"/>
     </g>
     <g id="line2d_24">
      <g>
       <use xlink:href="#md94f2c66fd" x="44.76125" y="140.050933" style="stroke: #000000; stroke-width: 0.8"/>
      </g>
     </g>
     <g id="text_13">
      <!-- 10 -->
      <g transform="translate(25.03625 143.850152) scale(0.1 -0.1)">
       <use xlink:href="#DejaVuSans-31"/>
       <use xlink:href="#DejaVuSans-30" transform="translate(63.623047 0)"/>
      </g>
     </g>
    </g>
    <g id="ytick_7">
     <g id="line2d_25">
      <path d="M 44.76125 98.147306 
L 498.650625 98.147306 
" clip-path="url(#pd1e77af282)" style="fill: none; stroke: #b0b0b0; stroke-opacity: 0.3; stroke-width: 0.8; stroke-linecap: square"/>
     </g>
     <g id="line2d_26">
      <g>
       <use xlink:href="#md94f2c66fd" x="44.76125" y="98.147306" style="stroke: #000000; stroke-width: 0.8"/>
      </g>
     </g>
     <g id="text_14">
      <!-- 12 -->
      <g transform="translate(25.03625 101.946525) scale(0.1 -0.1)">
       <use xlink:href="#DejaVuSans-31"/>
       <use xlink:href="#DejaVuSans-32" transform="translate(63.623047 0)"/>
      </g>
     </g>
    </g>
    <g id="ytick_8">
     <g id="line2d_27">
      <path d="M 44.76125 56.243679 
L 498.650625 56.243679 
" clip-path="url(#pd1e77af282)" style="fill: none; stroke: #b0b0b0; stroke-opacity: 0.3; stroke-width: 0.8; stroke-linecap: square"/>
     </g>
     <g id="line2d_28">
      <g>
       <use xlink:href="#md94f2c66fd" x="44.76125" y="56.243679" style="stroke: #000000; stroke-width: 0.8"/>
      </g>
     </g>
     <g id="text_15">
      <!-- 14 -->
      <g transform="translate(25.03625 60.042898) scale(0.1 -0.1)">
       <use xlink:href="#DejaVuSans-31"/>
       <use xlink:href="#DejaVuSans-34" transform="translate(63.623047 0)"/>
      </g>
     </g>
    </g>
    <g id="text_16">
     <!-- ns / an_limb -->
     <g transform="translate(18.678438 219.931406) rotate(-90) scale(0.1 -0.1)">
      <defs>
       <path id="DejaVuSans-2f" d="M 1625 4666 
L 2156 4666 
L 531 -594 
L 0 -594 
L 1625 4666 
z
" transform="scale(0.015625)"/>
       <path id="DejaVuSans-5f" d="M 3263 -1063 
L 3263 -1509 
L -63 -1509 
L -63 -1063 
L 3263 -1063 
z
" transform="scale(0.015625)"/>
      </defs>
      <use xlink:href="#DejaVuSans-6e"/>
      <use xlink:href="#DejaVuSans-73" transform="translate(63.378906 0)"/>
      <use xlink:href="#DejaVuSans-20" transform="translate(115.478516 0)"/>
      <use xlink:href="#DejaVuSans-2f" transform="translate(147.265625 0)"/>
      <use xlink:href="#DejaVuSans-20" transform="translate(180.957031 0)"/>
      <use xlink:href="#DejaVuSans-61" transform="translate(212.744141 0)"/>
      <use xlink:href="#DejaVuSans-6e" transform="translate(274.023438 0)"/>
      <use xlink:href="#DejaVuSans-5f" transform="translate(337.402344 0)"/>
      <use xlink:href="#DejaVuSans-6c" transform="translate(387.402344 0)"/>
      <use xlink:href="#DejaVuSans-69" transform="translate(415.185547 0)"/>
      <use xlink:href="#DejaVuSans-6d" transform="translate(442.96875 0)"/>
      <use xlink:href="#DejaVuSans-62" transform="translate(540.380859 0)"/>
     </g>
    </g>
   </g>
   <g id="line2d_29">
    <path d="M 53.489892 333.150702 
L 54.355829 337.528758 
L 55.221765 337.965953 
L 56.087702 338.23985 
L 56.953639 337.773196 
L 57.819575 338.359847 
L 58.685512 339.103636 
L 59.551449 338.8585 
L 60.417385 334.249363 
L 61.283322 334.67356 
L 62.149259 334.24398 
L 63.015195 334.425317 
L 63.881132 334.720517 
L 65.613005 334.867561 
L 66.478942 334.761601 
L 67.344879 329.968646 
L 68.210816 330.297589 
L 69.942689 330.343062 
L 70.808626 330.142995 
L 71.674562 330.414775 
L 72.540499 330.433078 
L 73.406436 330.257578 
L 74.272372 325.502636 
L 76.870182 325.583431 
L 77.736119 325.435488 
L 79.467993 325.609014 
L 80.333929 325.584076 
L 81.199866 320.706897 
L 82.931739 320.848122 
L 84.663613 320.813656 
L 87.261423 320.862408 
L 88.127359 315.967596 
L 91.591106 315.995398 
L 93.32298 316.144329 
L 94.188916 316.054927 
L 95.054853 311.153169 
L 97.652663 311.222987 
L 98.5186 311.201408 
L 100.250473 311.297539 
L 101.11641 311.305402 
L 101.982346 306.364136 
L 105.446093 306.443457 
L 108.043903 306.367313 
L 108.90984 301.620842 
L 109.775777 301.591424 
L 110.641713 301.696722 
L 111.50765 301.597795 
L 112.373587 301.661092 
L 114.10546 301.538647 
L 114.971397 301.548837 
L 115.837333 296.705809 
L 116.70327 296.927765 
L 117.569207 296.953698 
L 118.435144 296.764944 
L 119.30108 296.750044 
L 121.032954 296.873551 
L 121.89889 296.766644 
L 122.764827 292.037292 
L 123.630764 292.227014 
L 126.228574 292.120789 
L 127.09451 292.207057 
L 127.960447 292.14505 
L 128.826384 292.275782 
L 129.69232 287.15056 
L 130.558257 287.48042 
L 131.424194 287.380023 
L 132.290131 287.54789 
L 133.156067 287.279116 
L 134.022004 287.542779 
L 135.753877 287.377982 
L 136.619814 282.520847 
L 137.485751 282.487945 
L 139.217624 282.875529 
L 140.083561 282.552558 
L 140.949497 282.789295 
L 141.815434 282.65107 
L 142.681371 282.75279 
L 143.547308 277.848017 
L 145.279181 277.791646 
L 146.145118 278.153263 
L 147.876991 277.980302 
L 148.742928 277.965002 
L 149.608864 278.084473 
L 150.474801 273.17474 
L 151.340738 273.560044 
L 152.206674 273.041367 
L 153.072611 273.418594 
L 154.804484 273.638522 
L 155.670421 273.228308 
L 156.536358 273.331687 
L 157.402295 268.699487 
L 159.134168 268.361934 
L 160.000105 268.777915 
L 160.866041 268.699988 
L 161.731978 268.956571 
L 162.597915 268.459281 
L 163.463851 268.656889 
L 164.329788 263.798043 
L 165.195725 263.955064 
L 166.061661 263.733283 
L 166.927598 264.122899 
L 168.659471 263.971548 
L 170.391345 264.058416 
L 171.257282 259.194438 
L 172.123218 259.089167 
L 172.989155 259.197008 
L 173.855092 258.19208 
L 174.721028 258.327317 
L 177.318838 258.416468 
L 178.184775 253.589499 
L 179.050712 254.518495 
L 179.916648 254.42008 
L 180.782585 254.506364 
L 181.648522 254.325212 
L 182.514459 254.687512 
L 183.380395 254.673796 
L 184.246332 254.500543 
L 185.112269 249.789199 
L 185.978205 249.859908 
L 186.844142 249.772088 
L 187.710079 249.966717 
L 188.576015 249.672098 
L 189.441952 249.582823 
L 190.307889 249.751094 
L 191.173825 249.70733 
L 192.039762 245.221429 
L 192.905699 245.325985 
L 193.771635 245.066598 
L 194.637572 245.338574 
L 195.503509 245.069583 
L 196.369446 245.316235 
L 197.235382 245.143303 
L 198.101319 245.182344 
L 198.967256 240.242505 
L 199.833192 240.410474 
L 200.699129 240.403645 
L 202.431002 240.245648 
L 203.296939 240.588731 
L 205.028812 240.39306 
L 205.894749 235.773164 
L 206.760686 235.867087 
L 207.626623 235.701481 
L 208.492559 235.886208 
L 210.224433 235.542425 
L 211.956306 235.557197 
L 212.822243 230.527956 
L 213.688179 231.063114 
L 214.554116 230.69323 
L 215.420053 231.039931 
L 216.285989 230.813227 
L 217.151926 231.041893 
L 218.017863 230.85387 
L 218.883799 231.140047 
L 219.749736 225.978091 
L 220.615673 226.208855 
L 221.48161 226.053771 
L 224.07942 226.294423 
L 224.945356 225.770091 
L 225.811293 226.054382 
L 226.67723 220.902671 
L 227.543166 221.681905 
L 228.409103 221.207383 
L 229.27504 221.420031 
L 230.140976 221.187819 
L 231.006913 221.60749 
L 232.738786 221.472896 
L 233.604723 216.751836 
L 234.47066 216.667563 
L 235.336597 216.808863 
L 236.202533 216.520842 
L 237.06847 216.62943 
L 237.934407 216.608006 
L 238.800343 216.443415 
L 239.66628 216.764354 
L 240.532217 211.800605 
L 241.398153 211.712746 
L 242.26409 211.799027 
L 243.130027 211.643464 
L 243.995963 212.03824 
L 244.8619 212.032855 
L 245.727837 211.63171 
L 246.593774 211.951208 
L 247.45971 206.802688 
L 248.325647 207.01113 
L 249.191584 206.973443 
L 250.05752 206.796367 
L 250.923457 207.18516 
L 251.789394 207.208214 
L 252.65533 206.92111 
L 253.521267 207.252428 
L 254.387204 202.016008 
L 255.25314 202.380491 
L 256.119077 202.597464 
L 256.985014 202.185562 
L 257.85095 202.620433 
L 258.716887 202.120723 
L 259.582824 202.076647 
L 260.448761 202.513548 
L 261.314697 197.280896 
L 262.180634 197.524029 
L 263.046571 197.502649 
L 263.912507 197.098631 
L 265.644381 197.590327 
L 266.510317 197.232309 
L 267.376254 197.462435 
L 268.242191 192.877821 
L 269.108127 192.929723 
L 270.840001 192.680675 
L 271.705937 192.79946 
L 272.571874 193.113367 
L 273.437811 192.39632 
L 274.303748 192.74331 
L 275.169684 187.947572 
L 276.035621 187.768728 
L 276.901558 188.111794 
L 278.633431 188.091565 
L 279.499368 188.260433 
L 281.231241 188.091122 
L 282.097178 183.316043 
L 284.694988 183.418368 
L 285.560925 183.080948 
L 286.426861 183.450686 
L 287.292798 182.908696 
L 288.158735 183.219328 
L 289.024671 178.313958 
L 289.890608 178.753033 
L 290.756545 178.507466 
L 291.622481 178.408225 
L 292.488418 178.621525 
L 295.086228 178.448088 
L 295.952165 173.821182 
L 297.684038 173.773166 
L 298.549975 173.3893 
L 299.415912 173.789523 
L 301.147785 173.981397 
L 302.013722 173.513465 
L 302.879658 168.562175 
L 303.745595 168.958651 
L 306.343405 169.101949 
L 307.209342 168.835105 
L 308.075278 169.089036 
L 308.941215 168.870602 
L 309.807152 164.116365 
L 310.673089 164.361494 
L 311.539025 164.355858 
L 312.404962 164.524698 
L 314.136835 164.269195 
L 315.002772 164.512446 
L 315.868709 164.534508 
L 316.734645 159.171612 
L 318.466519 159.051158 
L 319.332455 159.689966 
L 320.198392 159.437792 
L 321.064329 159.729048 
L 321.930265 159.671911 
L 322.796202 158.946644 
L 323.662139 153.984806 
L 324.528076 154.555136 
L 326.259949 154.756965 
L 327.125886 154.543833 
L 327.991822 154.904737 
L 329.723696 154.659857 
L 330.589632 149.507164 
L 332.321506 149.720131 
L 333.187442 149.715542 
L 334.053379 149.980704 
L 334.919316 150.038908 
L 335.785252 149.000745 
L 336.651189 150.060834 
L 337.517126 145.393957 
L 339.248999 145.058106 
L 340.114936 145.404708 
L 340.980873 144.903804 
L 341.846809 145.194142 
L 343.578683 145.300981 
L 344.444619 140.381533 
L 345.310556 140.880321 
L 346.176493 140.507392 
L 347.908366 140.492306 
L 348.774303 140.822428 
L 349.64024 140.050574 
L 350.506176 140.600754 
L 351.372113 135.840749 
L 352.23805 135.309532 
L 353.103986 135.330205 
L 353.969923 135.948391 
L 354.83586 135.35655 
L 355.701796 135.689258 
L 356.567733 135.496606 
L 357.43367 135.781724 
L 358.299606 130.69816 
L 359.165543 130.853145 
L 360.03148 130.623138 
L 360.897416 131.027859 
L 362.62929 130.925816 
L 363.495227 131.070505 
L 364.361163 130.991357 
L 365.2271 126.227974 
L 366.093037 125.942641 
L 366.958973 125.361617 
L 367.82491 126.633245 
L 368.690847 126.137465 
L 369.556783 125.954295 
L 371.288657 126.591656 
L 372.154593 120.974084 
L 373.02053 120.954328 
L 374.752404 121.409347 
L 375.61834 121.121686 
L 376.484277 121.630275 
L 377.350214 121.530682 
L 378.21615 121.830022 
L 379.082087 116.333698 
L 379.948024 116.472361 
L 380.81396 116.395793 
L 381.679897 116.992028 
L 382.545834 116.552772 
L 383.41177 116.823128 
L 384.277707 116.484226 
L 385.143644 116.728993 
L 386.00958 111.527765 
L 386.875517 112.091511 
L 387.741454 111.52823 
L 388.607391 112.134896 
L 389.473327 111.42737 
L 390.339264 112.286666 
L 391.205201 111.518143 
L 392.071137 112.048808 
L 392.937074 106.750959 
L 393.803011 106.990852 
L 394.668947 106.776483 
L 395.534884 107.367092 
L 396.400821 106.456152 
L 397.266757 107.198076 
L 398.132694 106.804224 
L 398.998631 107.581182 
L 399.864567 102.339569 
L 400.730504 101.947268 
L 402.462378 102.531792 
L 403.328314 102.040377 
L 404.194251 102.740319 
L 405.060188 101.887255 
L 405.926124 102.265726 
L 406.792061 97.354612 
L 407.657998 97.566735 
L 408.523934 97.1138 
L 409.389871 98.247765 
L 410.255808 97.31971 
L 411.121744 97.649638 
L 412.853618 97.27684 
L 413.719555 92.861668 
L 414.585491 93.238666 
L 415.451428 92.753198 
L 416.317365 92.919657 
L 417.183301 92.154696 
L 418.049238 92.868817 
L 418.915175 92.482569 
L 419.781111 92.471941 
L 420.647048 87.383021 
L 421.512985 87.176056 
L 422.378921 86.845879 
L 423.244858 87.541691 
L 424.110795 87.723875 
L 424.976731 87.764172 
L 425.842668 87.228015 
L 426.708605 87.823742 
L 427.574542 82.113026 
L 428.440478 83.012305 
L 429.306415 82.470136 
L 430.172352 83.124998 
L 432.770162 82.756414 
L 433.636098 82.889089 
L 434.502035 77.554667 
L 435.367972 78.858619 
L 436.233908 78.409255 
L 437.099845 78.778214 
L 437.965782 78.303853 
L 438.831719 78.435581 
L 439.697655 78.004722 
L 440.563592 78.705405 
L 441.429529 73.326299 
L 442.295465 74.096458 
L 443.161402 73.751115 
L 444.027339 73.71845 
L 445.759212 74.103578 
L 446.625149 73.488473 
L 447.491085 74.112725 
L 448.357022 69.218632 
L 449.222959 68.971974 
L 450.088895 69.344632 
L 450.954832 68.871432 
L 451.820769 68.858596 
L 453.552642 69.270492 
L 454.418579 68.762988 
L 455.284516 64.063367 
L 456.150452 64.190707 
L 457.016389 64.04655 
L 457.882326 64.293101 
L 458.748262 64.323553 
L 459.614199 64.12446 
L 461.346072 64.297268 
L 462.212009 58.847641 
L 463.077946 60.192552 
L 463.943882 59.653565 
L 464.809819 59.664247 
L 465.675756 59.917389 
L 466.541693 59.81564 
L 467.407629 59.403997 
L 468.273566 59.354486 
L 469.139503 54.7795 
L 470.005439 54.756872 
L 470.871376 55.024327 
L 472.603249 54.875509 
L 473.469186 54.648027 
L 474.335123 54.27722 
L 475.201059 54.579978 
L 476.066996 49.17692 
L 476.932933 48.876819 
L 477.79887 49.816185 
L 478.664806 49.88705 
L 480.39668 49.467336 
L 482.128553 49.526395 
L 482.99449 45.004777 
L 483.860426 45.001227 
L 484.726363 44.355885 
L 485.5923 44.584388 
L 486.458236 45.159799 
L 487.324173 45.427563 
L 488.19011 45.18182 
L 489.056046 44.516732 
L 489.921983 40.376364 
L 489.921983 40.376364 
" clip-path="url(#pd1e77af282)" style="fill: none; stroke: #1f77b4; stroke-linecap: square"/>
   </g>
   <g id="patch_3">
    <path d="M 44.76125 354.04 
L 44.76125 25.44 
" style="fill: none; stroke: #000000; stroke-width: 0.8; stroke-linejoin: miter; stroke-linecap: square"/>
   </g>
   <g id="patch_4">
    <path d="M 498.650625 354.04 
L 498.650625 25.44 
" style="fill: none; stroke: #000000; stroke-width: 0.8; stroke-linejoin: miter; stroke-linecap: square"/>
   </g>
   <g id="patch_5">
    <path d="M 44.76125 354.04 
L 498.650625 354.04 
" style="fill: none; stroke: #000000; stroke-width: 0.8; stroke-linejoin: miter; stroke-linecap: square"/>
   </g>
   <g id="patch_6">
    <path d="M 44.76125 25.44 
L 498.650625 25.44 
" style="fill: none; stroke: #000000; stroke-width: 0.8; stroke-linejoin: miter; stroke-linecap: square"/>
   </g>
   <g id="text_17">
    <!-- midmul_basecase_simple: ns per an-limb -->
    <g transform="translate(147.901563 19.44) scale(0.12 -0.12)">
     <defs>
      <path id="DejaVuSans-64" d="M 2906 2969 
L 2906 4863 
L 3481 4863 
L 3481 0 
L 2906 0 
L 2906 525 
Q 2725 213 2448 61 
Q 2172 -91 1784 -91 
Q 1150 -91 751 415 
Q 353 922 353 1747 
Q 353 2572 751 3078 
Q 1150 3584 1784 3584 
Q 2172 3584 2448 3432 
Q 2725 3281 2906 2969 
z
M 947 1747 
Q 947 1113 1208 752 
Q 1469 391 1925 391 
Q 2381 391 2643 752 
Q 2906 1113 2906 1747 
Q 2906 2381 2643 2742 
Q 2381 3103 1925 3103 
Q 1469 3103 1208 2742 
Q 947 2381 947 1747 
z
" transform="scale(0.015625)"/>
      <path id="DejaVuSans-75" d="M 544 1381 
L 544 3500 
L 1119 3500 
L 1119 1403 
Q 1119 906 1312 657 
Q 1506 409 1894 409 
Q 2359 409 2629 706 
Q 2900 1003 2900 1516 
L 2900 3500 
L 3475 3500 
L 3475 0 
L 2900 0 
L 2900 538 
Q 2691 219 2414 64 
Q 2138 -91 1772 -91 
Q 1169 -91 856 284 
Q 544 659 544 1381 
z
M 1991 3584 
L 1991 3584 
z
" transform="scale(0.015625)"/>
      <path id="DejaVuSans-65" d="M 3597 1894 
L 3597 1613 
L 953 1613 
Q 991 1019 1311 708 
Q 1631 397 2203 397 
Q 2534 397 2845 478 
Q 3156 559 3463 722 
L 3463 178 
Q 3153 47 2828 -22 
Q 2503 -91 2169 -91 
Q 1331 -91 842 396 
Q 353 884 353 1716 
Q 353 2575 817 3079 
Q 1281 3584 2069 3584 
Q 2775 3584 3186 3129 
Q 3597 2675 3597 1894 
z
M 3022 2063 
Q 3016 2534 2758 2815 
Q 2500 3097 2075 3097 
Q 1594 3097 1305 2825 
Q 1016 2553 972 2059 
L 3022 2063 
z
" transform="scale(0.015625)"/>
      <path id="DejaVuSans-63" d="M 3122 3366 
L 3122 2828 
Q 2878 2963 2633 3030 
Q 2388 3097 2138 3097 
Q 1578 3097 1268 2742 
Q 959 2388 959 1747 
Q 959 1106 1268 751 
Q 1578 397 2138 397 
Q 2388 397 2633 464 
Q 2878 531 3122 666 
L 3122 134 
Q 2881 22 2623 -34 
Q 2366 -91 2075 -91 
Q 1284 -91 818 406 
Q 353 903 353 1747 
Q 353 2603 823 3093 
Q 1294 3584 2113 3584 
Q 2378 3584 2631 3529 
Q 2884 3475 3122 3366 
z
" transform="scale(0.015625)"/>
      <path id="DejaVuSans-70" d="M 1159 525 
L 1159 -1331 
L 581 -1331 
L 581 3500 
L 1159 3500 
L 1159 2969 
Q 1341 3281 1617 3432 
Q 1894 3584 2278 3584 
Q 2916 3584 3314 3078 
Q 3713 2572 3713 1747 
Q 3713 922 3314 415 
Q 2916 -91 2278 -91 
Q 1894 -91 1617 61 
Q 1341 213 1159 525 
z
M 3116 1747 
Q 3116 2381 2855 2742 
Q 2594 3103 2138 3103 
Q 1681 3103 1420 2742 
Q 1159 2381 1159 1747 
Q 1159 1113 1420 752 
Q 1681 391 2138 391 
Q 2594 391 2855 752 
Q 3116 1113 3116 1747 
z
" transform="scale(0.015625)"/>
      <path id="DejaVuSans-3a" d="M 750 794 
L 1409 794 
L 1409 0 
L 750 0 
L 750 794 
z
M 750 3309 
L 1409 3309 
L 1409 2516 
L 750 2516 
L 750 3309 
z
" transform="scale(0.015625)"/>
      <path id="DejaVuSans-72" d="M 2631 2963 
Q 2534 3019 2420 3045 
Q 2306 3072 2169 3072 
Q 1681 3072 1420 2755 
Q 1159 2438 1159 1844 
L 1159 0 
L 581 0 
L 581 3500 
L 1159 3500 
L 1159 2956 
Q 1341 3275 1631 3429 
Q 1922 3584 2338 3584 
Q 2397 3584 2469 3576 
Q 2541 3569 2628 3553 
L 2631 2963 
z
" transform="scale(0.015625)"/>
      <path id="DejaVuSans-2d" d="M 313 2009 
L 1997 2009 
L 1997 1497 
L 313 1497 
L 313 2009 
z
" transform="scale(0.015625)"/>
     </defs>
     <use xlink:href="#DejaVuSans-6d"/>
     <use xlink:href="#DejaVuSans-69" transform="translate(97.412109 0)"/>
     <use xlink:href="#DejaVuSans-64" transform="translate(125.195312 0)"/>
     <use xlink:href="#DejaVuSans-6d" transform="translate(188.671875 0)"/>
     <use xlink:href="#DejaVuSans-75" transform="translate(286.083984 0)"/>
     <use xlink:href="#DejaVuSans-6c" transform="translate(349.462891 0)"/>
     <use xlink:href="#DejaVuSans-5f" transform="translate(377.246094 0)"/>
     <use xlink:href="#DejaVuSans-62" transform="translate(427.246094 0)"/>
     <use xlink:href="#DejaVuSans-61" transform="translate(490.722656 0)"/>
     <use xlink:href="#DejaVuSans-73" transform="translate(552.001953 0)"/>
     <use xlink:href="#DejaVuSans-65" transform="translate(604.101562 0)"/>
     <use xlink:href="#DejaVuSans-63" transform="translate(665.625 0)"/>
     <use xlink:href="#DejaVuSans-61" transform="translate(720.605469 0)"/>
     <use xlink:href="#DejaVuSans-73" transform="translate(781.884766 0)"/>
     <use xlink:href="#DejaVuSans-65" transform="translate(833.984375 0)"/>
     <use xlink:href="#DejaVuSans-5f" transform="translate(895.507812 0)"/>
     <use xlink:href="#DejaVuSans-73" transform="translate(945.507812 0)"/>
     <use xlink:href="#DejaVuSans-69" transform="translate(997.607422 0)"/>
     <use xlink:href="#DejaVuSans-6d" transform="translate(1025.390625 0)"/>
     <use xlink:href="#DejaVuSans-70" transform="translate(1122.802734 0)"/>
     <use xlink:href="#DejaVuSans-6c" transform="translate(1186.279297 0)"/>
     <use xlink:href="#DejaVuSans-65" transform="translate(1214.0625 0)"/>
     <use xlink:href="#DejaVuSans-3a" transform="translate(1275.585938 0)"/>
     <use xlink:href="#DejaVuSans-20" transform="translate(1309.277344 0)"/>
     <use xlink:href="#DejaVuSans-6e" transform="translate(1341.064453 0)"/>
     <use xlink:href="#DejaVuSans-73" transform="translate(1404.443359 0)"/>
     <use xlink:href="#DejaVuSans-20" transform="translate(1456.542969 0)"/>
     <use xlink:href="#DejaVuSans-70" transform="translate(1488.330078 0)"/>
     <use xlink:href="#DejaVuSans-65" transform="translate(1551.806641 0)"/>
     <use xlink:href="#DejaVuSans-72" transform="translate(1613.330078 0)"/>
     <use xlink:href="#DejaVuSans-20" transform="translate(1654.443359 0)"/>
     <use xlink:href="#DejaVuSans-61" transform="translate(1686.230469 0)"/>
     <use xlink:href="#DejaVuSans-6e" transform="translate(1747.509766 0)"/>
     <use xlink:href="#DejaVuSans-2d" transform="translate(1810.888672 0)"/>
     <use xlink:href="#DejaVuSans-6c" transform="translate(1846.972656 0)"/>
     <use xlink:href="#DejaVuSans-69" transform="translate(1874.755859 0)"/>
     <use xlink:href="#DejaVuSans-6d" transform="translate(1902.539062 0)"/>
     <use xlink:href="#DejaVuSans-62" transform="translate(1999.951172 0)"/>
    </g>
   </g>
  </g>
  <g id="axes_2">
   <g id="patch_7">
    <path d="M 543.310625 354.04 
L 997.2 354.04 
L 997.2 25.44 
L 543.310625 25.44 
z
" style="fill: #ffffff"/>
   </g>
   <g id="matplotlib.axis_3">
    <g id="xtick_7">
     <g id="line2d_30">
      <path d="M 545.111773 354.04 
L 545.111773 25.44 
" clip-path="url(#p6b78850ba5)" style="fill: none; stroke: #b0b0b0; stroke-opacity: 0.3; stroke-width: 0.8; stroke-linecap: square"/>
     </g>
     <g id="line2d_31">
      <g>
       <use xlink:href="#m875a682853" x="545.111773" y="354.04" style="stroke: #000000; stroke-width: 0.8"/>
      </g>
     </g>
     <g id="text_18">
      <!-- 0 -->
      <g transform="translate(541.930523 368.638437) scale(0.1 -0.1)">
       <use xlink:href="#DejaVuSans-30"/>
      </g>
     </g>
    </g>
    <g id="xtick_8">
     <g id="line2d_32">
      <path d="M 631.705442 354.04 
L 631.705442 25.44 
" clip-path="url(#p6b78850ba5)" style="fill: none; stroke: #b0b0b0; stroke-opacity: 0.3; stroke-width: 0.8; stroke-linecap: square"/>
     </g>
     <g id="line2d_33">
      <g>
       <use xlink:href="#m875a682853" x="631.705442" y="354.04" style="stroke: #000000; stroke-width: 0.8"/>
      </g>
     </g>
     <g id="text_19">
      <!-- 100 -->
      <g transform="translate(622.161692 368.638437) scale(0.1 -0.1)">
       <use xlink:href="#DejaVuSans-31"/>
       <use xlink:href="#DejaVuSans-30" transform="translate(63.623047 0)"/>
       <use xlink:href="#DejaVuSans-30" transform="translate(127.246094 0)"/>
      </g>
     </g>
    </g>
    <g id="xtick_9">
     <g id="line2d_34">
      <path d="M 718.299111 354.04 
L 718.299111 25.44 
" clip-path="url(#p6b78850ba5)" style="fill: none; stroke: #b0b0b0; stroke-opacity: 0.3; stroke-width: 0.8; stroke-linecap: square"/>
     </g>
     <g id="line2d_35">
      <g>
       <use xlink:href="#m875a682853" x="718.299111" y="354.04" style="stroke: #000000; stroke-width: 0.8"/>
      </g>
     </g>
     <g id="text_20">
      <!-- 200 -->
      <g transform="translate(708.755361 368.638437) scale(0.1 -0.1)">
       <use xlink:href="#DejaVuSans-32"/>
       <use xlink:href="#DejaVuSans-30" transform="translate(63.623047 0)"/>
       <use xlink:href="#DejaVuSans-30" transform="translate(127.246094 0)"/>
      </g>
     </g>
    </g>
    <g id="xtick_10">
     <g id="line2d_36">
      <path d="M 804.89278 354.04 
L 804.89278 25.44 
" clip-path="url(#p6b78850ba5)" style="fill: none; stroke: #b0b0b0; stroke-opacity: 0.3; stroke-width: 0.8; stroke-linecap: square"/>
     </g>
     <g id="line2d_37">
      <g>
       <use xlink:href="#m875a682853" x="804.89278" y="354.04" style="stroke: #000000; stroke-width: 0.8"/>
      </g>
     </g>
     <g id="text_21">
      <!-- 300 -->
      <g transform="translate(795.34903 368.638437) scale(0.1 -0.1)">
       <use xlink:href="#DejaVuSans-33"/>
       <use xlink:href="#DejaVuSans-30" transform="translate(63.623047 0)"/>
       <use xlink:href="#DejaVuSans-30" transform="translate(127.246094 0)"/>
      </g>
     </g>
    </g>
    <g id="xtick_11">
     <g id="line2d_38">
      <path d="M 891.486449 354.04 
L 891.486449 25.44 
" clip-path="url(#p6b78850ba5)" style="fill: none; stroke: #b0b0b0; stroke-opacity: 0.3; stroke-width: 0.8; stroke-linecap: square"/>
     </g>
     <g id="line2d_39">
      <g>
       <use xlink:href="#m875a682853" x="891.486449" y="354.04" style="stroke: #000000; stroke-width: 0.8"/>
      </g>
     </g>
     <g id="text_22">
      <!-- 400 -->
      <g transform="translate(881.942699 368.638437) scale(0.1 -0.1)">
       <use xlink:href="#DejaVuSans-34"/>
       <use xlink:href="#DejaVuSans-30" transform="translate(63.623047 0)"/>
       <use xlink:href="#DejaVuSans-30" transform="translate(127.246094 0)"/>
      </g>
     </g>
    </g>
    <g id="xtick_12">
     <g id="line2d_40">
      <path d="M 978.080118 354.04 
L 978.080118 25.44 
" clip-path="url(#p6b78850ba5)" style="fill: none; stroke: #b0b0b0; stroke-opacity: 0.3; stroke-width: 0.8; stroke-linecap: square"/>
     </g>
     <g id="line2d_41">
      <g>
       <use xlink:href="#m875a682853" x="978.080118" y="354.04" style="stroke: #000000; stroke-width: 0.8"/>
      </g>
     </g>
     <g id="text_23">
      <!-- 500 -->
      <g transform="translate(968.536368 368.638437) scale(0.1 -0.1)">
       <use xlink:href="#DejaVuSans-35"/>
       <use xlink:href="#DejaVuSans-30" transform="translate(63.623047 0)"/>
       <use xlink:href="#DejaVuSans-30" transform="translate(127.246094 0)"/>
      </g>
     </g>
    </g>
    <g id="text_24">
     <!-- an (limbs)   [bn = 2*an] -->
     <g transform="translate(710.810781 382.316562) scale(0.1 -0.1)">
      <use xlink:href="#DejaVuSans-61"/>
      <use xlink:href="#DejaVuSans-6e" transform="translate(61.279297 0)"/>
      <use xlink:href="#DejaVuSans-20" transform="translate(124.658203 0)"/>
      <use xlink:href="#DejaVuSans-28" transform="translate(156.445312 0)"/>
      <use xlink:href="#DejaVuSans-6c" transform="translate(195.458984 0)"/>
      <use xlink:href="#DejaVuSans-69" transform="translate(223.242188 0)"/>
      <use xlink:href="#DejaVuSans-6d" transform="translate(251.025391 0)"/>
      <use xlink:href="#DejaVuSans-62" transform="translate(348.4375 0)"/>
      <use xlink:href="#DejaVuSans-73" transform="translate(411.914062 0)"/>
      <use xlink:href="#DejaVuSans-29" transform="translate(464.013672 0)"/>
      <use xlink:href="#DejaVuSans-20" transform="translate(503.027344 0)"/>
      <use xlink:href="#DejaVuSans-20" transform="translate(534.814453 0)"/>
      <use xlink:href="#DejaVuSans-20" transform="translate(566.601562 0)"/>
      <use xlink:href="#DejaVuSans-5b" transform="translate(598.388672 0)"/>
      <use xlink:href="#DejaVuSans-62" transform="translate(637.402344 0)"/>
      <use xlink:href="#DejaVuSans-6e" transform="translate(700.878906 0)"/>
      <use xlink:href="#DejaVuSans-20" transform="translate(764.257812 0)"/>
      <use xlink:href="#DejaVuSans-3d" transform="translate(796.044922 0)"/>
      <use xlink:href="#DejaVuSans-20" transform="translate(879.833984 0)"/>
      <use xlink:href="#DejaVuSans-32" transform="translate(911.621094 0)"/>
      <use xlink:href="#DejaVuSans-2a" transform="translate(975.244141 0)"/>
      <use xlink:href="#DejaVuSans-61" transform="translate(1025.244141 0)"/>
      <use xlink:href="#DejaVuSans-6e" transform="translate(1086.523438 0)"/>
      <use xlink:href="#DejaVuSans-5d" transform="translate(1149.902344 0)"/>
     </g>
    </g>
   </g>
   <g id="matplotlib.axis_4">
    <g id="ytick_9">
     <g id="line2d_42">
      <path d="M 543.310625 354.04 
L 997.2 354.04 
" clip-path="url(#p6b78850ba5)" style="fill: none; stroke: #b0b0b0; stroke-opacity: 0.3; stroke-width: 0.8; stroke-linecap: square"/>
     </g>
     <g id="line2d_43">
      <g>
       <use xlink:href="#md94f2c66fd" x="543.310625" y="354.04" style="stroke: #000000; stroke-width: 0.8"/>
      </g>
     </g>
     <g id="text_25">
      <!-- 0 -->
      <g transform="translate(529.948125 357.839219) scale(0.1 -0.1)">
       <use xlink:href="#DejaVuSans-30"/>
      </g>
     </g>
    </g>
    <g id="ytick_10">
     <g id="line2d_44">
      <path d="M 543.310625 289.247757 
L 997.2 289.247757 
" clip-path="url(#p6b78850ba5)" style="fill: none; stroke: #b0b0b0; stroke-opacity: 0.3; stroke-width: 0.8; stroke-linecap: square"/>
     </g>
     <g id="line2d_45">
      <g>
       <use xlink:href="#md94f2c66fd" x="543.310625" y="289.247757" style="stroke: #000000; stroke-width: 0.8"/>
      </g>
     </g>
     <g id="text_26">
      <!-- 10 -->
      <g transform="translate(523.585625 293.046976) scale(0.1 -0.1)">
       <use xlink:href="#DejaVuSans-31"/>
       <use xlink:href="#DejaVuSans-30" transform="translate(63.623047 0)"/>
      </g>
     </g>
    </g>
    <g id="ytick_11">
     <g id="line2d_46">
      <path d="M 543.310625 224.455514 
L 997.2 224.455514 
" clip-path="url(#p6b78850ba5)" style="fill: none; stroke: #b0b0b0; stroke-opacity: 0.3; stroke-width: 0.8; stroke-linecap: square"/>
     </g>
     <g id="line2d_47">
      <g>
       <use xlink:href="#md94f2c66fd" x="543.310625" y="224.455514" style="stroke: #000000; stroke-width: 0.8"/>
      </g>
     </g>
     <g id="text_27">
      <!-- 20 -->
      <g transform="translate(523.585625 228.254732) scale(0.1 -0.1)">
       <use xlink:href="#DejaVuSans-32"/>
       <use xlink:href="#DejaVuSans-30" transform="translate(63.623047 0)"/>
      </g>
     </g>
    </g>
    <g id="ytick_12">
     <g id="line2d_48">
      <path d="M 543.310625 159.663271 
L 997.2 159.663271 
" clip-path="url(#p6b78850ba5)" style="fill: none; stroke: #b0b0b0; stroke-opacity: 0.3; stroke-width: 0.8; stroke-linecap: square"/>
     </g>
     <g id="line2d_49">
      <g>
       <use xlink:href="#md94f2c66fd" x="543.310625" y="159.663271" style="stroke: #000000; stroke-width: 0.8"/>
      </g>
     </g>
     <g id="text_28">
      <!-- 30 -->
      <g transform="translate(523.585625 163.462489) scale(0.1 -0.1)">
       <use xlink:href="#DejaVuSans-33"/>
       <use xlink:href="#DejaVuSans-30" transform="translate(63.623047 0)"/>
      </g>
     </g>
    </g>
    <g id="ytick_13">
     <g id="line2d_50">
      <path d="M 543.310625 94.871027 
L 997.2 94.871027 
" clip-path="url(#p6b78850ba5)" style="fill: none; stroke: #b0b0b0; stroke-opacity: 0.3; stroke-width: 0.8; stroke-linecap: square"/>
     </g>
     <g id="line2d_51">
      <g>
       <use xlink:href="#md94f2c66fd" x="543.310625" y="94.871027" style="stroke: #000000; stroke-width: 0.8"/>
      </g>
     </g>
     <g id="text_29">
      <!-- 40 -->
      <g transform="translate(523.585625 98.670246) scale(0.1 -0.1)">
       <use xlink:href="#DejaVuSans-34"/>
       <use xlink:href="#DejaVuSans-30" transform="translate(63.623047 0)"/>
      </g>
     </g>
    </g>
    <g id="ytick_14">
     <g id="line2d_52">
      <path d="M 543.310625 30.078784 
L 997.2 30.078784 
" clip-path="url(#p6b78850ba5)" style="fill: none; stroke: #b0b0b0; stroke-opacity: 0.3; stroke-width: 0.8; stroke-linecap: square"/>
     </g>
     <g id="line2d_53">
      <g>
       <use xlink:href="#md94f2c66fd" x="543.310625" y="30.078784" style="stroke: #000000; stroke-width: 0.8"/>
      </g>
     </g>
     <g id="text_30">
      <!-- 50 -->
      <g transform="translate(523.585625 33.878003) scale(0.1 -0.1)">
       <use xlink:href="#DejaVuSans-35"/>
       <use xlink:href="#DejaVuSans-30" transform="translate(63.623047 0)"/>
      </g>
     </g>
    </g>
    <g id="text_31">
     <!-- ps / (52x52 product)   [ns/(an*bn) * 1000] -->
     <g transform="translate(517.505937 294.292344) rotate(-90) scale(0.1 -0.1)">
      <defs>
       <path id="DejaVuSans-78" d="M 3513 3500 
L 2247 1797 
L 3578 0 
L 2900 0 
L 1881 1375 
L 863 0 
L 184 0 
L 1544 1831 
L 300 3500 
L 978 3500 
L 1906 2253 
L 2834 3500 
L 3513 3500 
z
" transform="scale(0.015625)"/>
       <path id="DejaVuSans-6f" d="M 1959 3097 
Q 1497 3097 1228 2736 
Q 959 2375 959 1747 
Q 959 1119 1226 758 
Q 1494 397 1959 397 
Q 2419 397 2687 759 
Q 2956 1122 2956 1747 
Q 2956 2369 2687 2733 
Q 2419 3097 1959 3097 
z
M 1959 3584 
Q 2709 3584 3137 3096 
Q 3566 2609 3566 1747 
Q 3566 888 3137 398 
Q 2709 -91 1959 -91 
Q 1206 -91 779 398 
Q 353 888 353 1747 
Q 353 2609 779 3096 
Q 1206 3584 1959 3584 
z
" transform="scale(0.015625)"/>
       <path id="DejaVuSans-74" d="M 1172 4494 
L 1172 3500 
L 2356 3500 
L 2356 3053 
L 1172 3053 
L 1172 1153 
Q 1172 725 1289 603 
Q 1406 481 1766 481 
L 2356 481 
L 2356 0 
L 1766 0 
Q 1100 0 847 248 
Q 594 497 594 1153 
L 594 3053 
L 172 3053 
L 172 3500 
L 594 3500 
L 594 4494 
L 1172 4494 
z
" transform="scale(0.015625)"/>
      </defs>
      <use xlink:href="#DejaVuSans-70"/>
      <use xlink:href="#DejaVuSans-73" transform="translate(63.476562 0)"/>
      <use xlink:href="#DejaVuSans-20" transform="translate(115.576172 0)"/>
      <use xlink:href="#DejaVuSans-2f" transform="translate(147.363281 0)"/>
      <use xlink:href="#DejaVuSans-20" transform="translate(181.054688 0)"/>
      <use xlink:href="#DejaVuSans-28" transform="translate(212.841797 0)"/>
      <use xlink:href="#DejaVuSans-35" transform="translate(251.855469 0)"/>
      <use xlink:href="#DejaVuSans-32" transform="translate(315.478516 0)"/>
      <use xlink:href="#DejaVuSans-78" transform="translate(379.101562 0)"/>
      <use xlink:href="#DejaVuSans-35" transform="translate(438.28125 0)"/>
      <use xlink:href="#DejaVuSans-32" transform="translate(501.904297 0)"/>
      <use xlink:href="#DejaVuSans-20" transform="translate(565.527344 0)"/>
      <use xlink:href="#DejaVuSans-70" transform="translate(597.314453 0)"/>
      <use xlink:href="#DejaVuSans-72" transform="translate(660.791016 0)"/>
      <use xlink:href="#DejaVuSans-6f" transform="translate(699.654297 0)"/>
      <use xlink:href="#DejaVuSans-64" transform="translate(760.835938 0)"/>
      <use xlink:href="#DejaVuSans-75" transform="translate(824.3125 0)"/>
      <use xlink:href="#DejaVuSans-63" transform="translate(887.691406 0)"/>
      <use xlink:href="#DejaVuSans-74" transform="translate(942.671875 0)"/>
      <use xlink:href="#DejaVuSans-29" transform="translate(981.880859 0)"/>
      <use xlink:href="#DejaVuSans-20" transform="translate(1020.894531 0)"/>
      <use xlink:href="#DejaVuSans-20" transform="translate(1052.681641 0)"/>
      <use xlink:href="#DejaVuSans-20" transform="translate(1084.46875 0)"/>
      <use xlink:href="#DejaVuSans-5b" transform="translate(1116.255859 0)"/>
      <use xlink:href="#DejaVuSans-6e" transform="translate(1155.269531 0)"/>
      <use xlink:href="#DejaVuSans-73" transform="translate(1218.648438 0)"/>
      <use xlink:href="#DejaVuSans-2f" transform="translate(1270.748047 0)"/>
      <use xlink:href="#DejaVuSans-28" transform="translate(1304.439453 0)"/>
      <use xlink:href="#DejaVuSans-61" transform="translate(1343.453125 0)"/>
      <use xlink:href="#DejaVuSans-6e" transform="translate(1404.732422 0)"/>
      <use xlink:href="#DejaVuSans-2a" transform="translate(1468.111328 0)"/>
      <use xlink:href="#DejaVuSans-62" transform="translate(1518.111328 0)"/>
      <use xlink:href="#DejaVuSans-6e" transform="translate(1581.587891 0)"/>
      <use xlink:href="#DejaVuSans-29" transform="translate(1644.966797 0)"/>
      <use xlink:href="#DejaVuSans-20" transform="translate(1683.980469 0)"/>
      <use xlink:href="#DejaVuSans-2a" transform="translate(1715.767578 0)"/>
      <use xlink:href="#DejaVuSans-20" transform="translate(1765.767578 0)"/>
      <use xlink:href="#DejaVuSans-31" transform="translate(1797.554688 0)"/>
      <use xlink:href="#DejaVuSans-30" transform="translate(1861.177734 0)"/>
      <use xlink:href="#DejaVuSans-30" transform="translate(1924.800781 0)"/>
      <use xlink:href="#DejaVuSans-30" transform="translate(1988.423828 0)"/>
      <use xlink:href="#DejaVuSans-5d" transform="translate(2052.046875 0)"/>
     </g>
    </g>
   </g>
   <g id="line2d_54">
    <path d="M 552.039267 36.709865 
L 552.905204 147.184764 
L 553.77114 174.630279 
L 554.637077 194.790305 
L 555.503014 202.048196 
L 557.234887 238.455266 
L 558.100824 243.634018 
L 558.96676 205.992255 
L 559.832697 218.559195 
L 560.698634 222.39576 
L 562.430507 239.244343 
L 564.16238 250.713775 
L 565.028317 254.493884 
L 565.894254 227.762618 
L 566.760191 234.848189 
L 568.492064 243.937626 
L 569.358001 246.765037 
L 570.223937 251.913249 
L 571.089874 255.411808 
L 571.955811 257.718004 
L 572.821747 237.752476 
L 574.553621 245.243959 
L 575.419557 248.076914 
L 576.285494 250.384909 
L 578.017368 256.546519 
L 578.883304 258.947479 
L 579.749241 242.471807 
L 581.481114 248.304495 
L 585.810798 259.599953 
L 586.676734 245.799833 
L 589.274544 252.356533 
L 590.140481 254.208668 
L 591.872355 258.332569 
L 592.738291 259.821369 
L 593.604228 247.969561 
L 595.336101 251.948881 
L 597.067975 255.165237 
L 597.933911 257.048398 
L 599.665785 260.128794 
L 600.531721 249.658209 
L 602.263595 253.07655 
L 603.129531 254.309886 
L 603.995468 255.978677 
L 606.593278 259.95629 
L 607.459215 251.069827 
L 608.325152 252.418066 
L 609.191088 254.011354 
L 610.057025 255.14112 
L 610.922962 256.571198 
L 613.520772 260.052835 
L 614.386708 251.867188 
L 615.252645 253.552277 
L 616.118582 254.826637 
L 616.984519 255.670345 
L 618.716392 258.137616 
L 619.582329 259.297113 
L 620.448265 260.19611 
L 621.314202 252.952722 
L 622.180139 254.418143 
L 624.777949 257.488152 
L 625.643885 258.669773 
L 626.509822 259.582354 
L 627.375759 260.789424 
L 628.241695 253.505864 
L 629.107632 255.06811 
L 629.973569 255.919623 
L 630.839506 257.172919 
L 631.705442 257.726007 
L 632.571379 259.083255 
L 634.303252 260.679685 
L 635.169189 254.356032 
L 636.035126 255.256953 
L 637.766999 257.663448 
L 638.632936 258.093431 
L 639.498872 259.309498 
L 640.364809 259.976388 
L 641.230746 260.965504 
L 642.096683 255.025221 
L 643.828556 256.685866 
L 644.694493 258.018631 
L 646.426366 259.431445 
L 647.292303 260.213163 
L 648.158239 261.156858 
L 649.024176 255.60461 
L 649.890113 256.910493 
L 650.756049 257.049268 
L 651.621986 258.31202 
L 653.353859 260.115713 
L 654.219796 260.357746 
L 655.085733 261.221265 
L 655.95167 256.350785 
L 657.683543 257.45221 
L 658.54948 258.680513 
L 659.415416 259.311651 
L 660.281353 260.32219 
L 661.14729 260.447756 
L 662.013226 261.367361 
L 662.879163 256.524626 
L 663.7451 257.413635 
L 664.611036 257.865332 
L 665.476973 258.990641 
L 667.208846 260.172885 
L 668.94072 261.579641 
L 669.806657 256.998961 
L 670.672593 257.555952 
L 671.53853 258.331012 
L 672.404467 257.925059 
L 674.13634 259.37623 
L 675.868213 260.700921 
L 676.73415 256.404758 
L 677.600087 257.981742 
L 678.466023 258.506684 
L 679.33196 259.209102 
L 680.197897 259.637441 
L 681.063834 260.595543 
L 681.92977 261.173541 
L 682.795707 261.589124 
L 683.661644 257.613957 
L 684.52758 258.280784 
L 685.393517 258.78807 
L 686.259454 259.557063 
L 687.12539 259.855407 
L 687.991327 260.342563 
L 688.857264 261.063742 
L 689.7232 261.579966 
L 690.589137 258.001638 
L 691.455074 258.665573 
L 692.32101 258.990676 
L 693.186947 259.792447 
L 694.052884 260.098584 
L 694.918821 260.862048 
L 695.784757 261.24388 
L 696.650694 261.808639 
L 697.516631 257.992862 
L 698.382567 258.682235 
L 700.114441 259.635552 
L 700.980377 260.129943 
L 701.846314 260.941867 
L 703.578187 261.794005 
L 704.444124 258.413072 
L 705.310061 259.008474 
L 706.175998 259.381728 
L 707.041934 260.040665 
L 709.639744 261.248893 
L 710.505681 261.742889 
L 711.371618 258.17344 
L 712.237554 259.098899 
L 713.103491 259.293481 
L 713.969428 260.054272 
L 714.835364 260.354947 
L 715.701301 261.009982 
L 716.567238 261.333 
L 717.433174 262.021222 
L 718.299111 258.490555 
L 719.165048 259.143444 
L 720.030985 259.494519 
L 722.628795 261.059624 
L 723.494731 261.117425 
L 724.360668 261.778682 
L 725.226605 258.392593 
L 726.092541 259.426727 
L 726.958478 259.527878 
L 727.824415 260.131633 
L 728.690351 260.405233 
L 729.556288 261.149482 
L 731.288161 261.916784 
L 732.154098 258.963744 
L 733.020035 259.341835 
L 733.885972 259.87645 
L 734.751908 260.103068 
L 736.483782 261.01416 
L 737.349718 261.318558 
L 738.215655 261.956879 
L 739.081592 258.941603 
L 741.679402 260.091373 
L 742.545338 260.771152 
L 743.411275 261.174804 
L 744.277212 261.308888 
L 745.143149 261.92418 
L 746.009085 258.889875 
L 746.875022 259.43657 
L 748.606895 260.100399 
L 749.472832 260.753176 
L 750.338769 261.161832 
L 751.204705 261.365554 
L 752.070642 261.96766 
L 752.936579 258.977687 
L 754.668452 260.134838 
L 755.534389 260.259183 
L 756.400325 260.919107 
L 757.266262 260.983821 
L 758.132199 261.334394 
L 758.998136 261.98322 
L 759.864072 259.091984 
L 760.730009 259.624281 
L 761.595946 259.98872 
L 762.461882 260.114541 
L 764.193756 261.157537 
L 765.059692 261.305273 
L 765.925629 261.808479 
L 766.791566 259.399686 
L 768.523439 260.097185 
L 769.389376 260.378211 
L 771.121249 261.352262 
L 771.987186 261.282859 
L 772.853123 261.839549 
L 773.719059 259.379979 
L 774.584996 259.632835 
L 775.450933 260.187168 
L 777.182806 260.875892 
L 778.048743 261.319292 
L 779.780616 261.906976 
L 780.646553 259.531243 
L 783.244363 260.619781 
L 784.1103 260.769229 
L 784.976236 261.312335 
L 785.842173 261.344436 
L 786.70811 261.848831 
L 787.574046 259.469234 
L 788.439983 260.047388 
L 790.171856 260.523255 
L 791.037793 260.968669 
L 793.635603 261.848101 
L 794.50154 259.684109 
L 796.233413 260.309237 
L 797.09935 260.42737 
L 797.965287 260.959891 
L 799.69716 261.694 
L 800.563097 261.761774 
L 801.429033 259.487111 
L 802.29497 260.011881 
L 804.89278 261.02602 
L 805.758717 261.19796 
L 806.624653 261.635395 
L 807.49059 261.828893 
L 808.356527 259.714094 
L 809.222464 260.147629 
L 814.418084 262.045076 
L 815.28402 259.682169 
L 817.015894 260.22386 
L 817.88183 260.835256 
L 818.747767 261.006817 
L 819.613704 261.442362 
L 820.47964 261.705768 
L 821.345577 261.643674 
L 822.211514 259.534882 
L 823.077451 260.104012 
L 824.809324 260.782276 
L 825.675261 260.968396 
L 826.541197 261.426474 
L 828.273071 261.877126 
L 829.139007 259.729086 
L 833.468691 261.392071 
L 834.334627 261.188852 
L 835.200564 261.955313 
L 836.066501 260.081749 
L 837.798374 260.484076 
L 838.664311 260.918142 
L 839.530248 260.964233 
L 841.262121 261.685987 
L 842.128058 261.957351 
L 842.993994 260.013827 
L 843.859931 260.509913 
L 844.725868 260.613575 
L 847.323678 261.556242 
L 848.189615 261.479494 
L 849.055551 261.985564 
L 849.921488 260.156168 
L 850.787425 260.189443 
L 851.653361 260.463587 
L 852.519298 260.996437 
L 853.385235 261.00074 
L 854.251171 261.405455 
L 855.117108 261.581003 
L 855.983045 261.96135 
L 856.848981 260.033704 
L 857.714918 260.360492 
L 858.580855 260.521032 
L 859.446791 260.951053 
L 862.910538 261.950268 
L 863.776475 260.199088 
L 864.642412 260.333836 
L 865.508348 260.344287 
L 866.374285 261.126814 
L 867.240222 261.170509 
L 868.106158 261.343559 
L 869.838032 262.10074 
L 870.703968 260.035152 
L 871.569905 260.276399 
L 873.301779 260.95683 
L 874.167715 261.084736 
L 875.033652 261.535114 
L 875.899589 261.736962 
L 876.765525 262.098809 
L 877.631462 260.125081 
L 880.229272 261.116133 
L 881.095209 261.180579 
L 881.961145 261.526755 
L 882.827082 261.629605 
L 883.693019 261.962743 
L 884.558955 260.146041 
L 885.424892 260.606757 
L 886.290829 260.622842 
L 887.156766 261.09682 
L 888.022702 261.055264 
L 888.888639 261.624158 
L 889.754576 261.557789 
L 890.620512 261.99522 
L 891.486449 260.177421 
L 892.352386 260.503993 
L 893.218322 260.654216 
L 894.084259 261.112546 
L 894.950196 260.993923 
L 895.816132 261.50692 
L 896.682069 261.584838 
L 897.548006 262.107173 
L 898.413942 260.346055 
L 899.279879 260.426826 
L 901.011753 261.102268 
L 901.877689 261.143419 
L 902.743626 261.6304 
L 903.609563 261.535007 
L 904.475499 261.898922 
L 905.341436 260.295015 
L 906.207373 260.598477 
L 907.073309 260.654477 
L 907.939246 261.295817 
L 908.805183 261.174975 
L 909.671119 261.516731 
L 911.402993 261.817922 
L 912.26893 260.425325 
L 913.134866 260.782753 
L 914.000803 260.82546 
L 914.86674 261.104038 
L 915.732676 261.044824 
L 916.598613 261.518982 
L 917.46455 261.595258 
L 918.330486 261.805934 
L 919.196423 260.198005 
L 920.928296 260.439088 
L 921.794233 260.901591 
L 923.526106 261.406574 
L 924.392043 261.428792 
L 925.25798 261.849575 
L 926.123917 260.052275 
L 926.989853 260.580702 
L 927.85579 260.602484 
L 928.721727 261.041973 
L 932.185473 261.792567 
L 933.05141 260.157362 
L 933.917347 260.815496 
L 934.783283 260.868258 
L 935.64922 261.201343 
L 936.515157 261.244467 
L 937.381094 261.494276 
L 938.24703 261.55138 
L 939.112967 261.992764 
L 939.978904 260.370656 
L 940.84484 260.836199 
L 942.576714 261.114977 
L 944.308587 261.647297 
L 945.174524 261.641418 
L 946.04046 262.049456 
L 946.906397 260.616818 
L 947.772334 260.735709 
L 948.63827 261.059583 
L 949.504207 261.10201 
L 951.236081 261.57702 
L 952.102017 261.826515 
L 952.967954 261.855692 
L 953.833891 260.511453 
L 957.297637 261.381925 
L 959.029511 261.733215 
L 959.895447 261.953762 
L 960.761384 260.390124 
L 961.627321 261.017157 
L 962.493257 261.037248 
L 965.957004 261.723302 
L 966.822941 261.897144 
L 967.688878 260.636384 
L 972.018561 261.542448 
L 972.884498 261.613627 
L 973.750434 261.894919 
L 974.616371 260.396357 
L 975.482308 260.49141 
L 976.348245 260.970919 
L 978.080118 261.288206 
L 979.811991 261.606423 
L 980.677928 261.806977 
L 981.543865 260.602793 
L 982.409801 260.78673 
L 983.275738 260.773824 
L 986.739485 261.755731 
L 987.605421 261.735079 
L 988.471358 260.664986 
L 988.471358 260.664986 
" clip-path="url(#p6b78850ba5)" style="fill: none; stroke: #ff7f0e; stroke-linecap: square"/>
   </g>
   <g id="patch_8">
    <path d="M 543.310625 354.04 
L 543.310625 25.44 
" style="fill: none; stroke: #000000; stroke-width: 0.8; stroke-linejoin: miter; stroke-linecap: square"/>
   </g>
   <g id="patch_9">
    <path d="M 997.2 354.04 
L 997.2 25.44 
" style="fill: none; stroke: #000000; stroke-width: 0.8; stroke-linejoin: miter; stroke-linecap: square"/>
   </g>
   <g id="patch_10">
    <path d="M 543.310625 354.04 
L 997.2 354.04 
" style="fill: none; stroke: #000000; stroke-width: 0.8; stroke-linejoin: miter; stroke-linecap: square"/>
   </g>
   <g id="patch_11">
    <path d="M 543.310625 25.44 
L 997.2 25.44 
" style="fill: none; stroke: #000000; stroke-width: 0.8; stroke-linejoin: miter; stroke-linecap: square"/>
   </g>
   <g id="text_32">
    <!-- steady-state kernel throughput -->
    <g transform="translate(676.969375 19.44) scale(0.12 -0.12)">
     <defs>
      <path id="DejaVuSans-79" d="M 2059 -325 
Q 1816 -950 1584 -1140 
Q 1353 -1331 966 -1331 
L 506 -1331 
L 506 -850 
L 844 -850 
Q 1081 -850 1212 -737 
Q 1344 -625 1503 -206 
L 1606 56 
L 191 3500 
L 800 3500 
L 1894 763 
L 2988 3500 
L 3597 3500 
L 2059 -325 
z
" transform="scale(0.015625)"/>
      <path id="DejaVuSans-6b" d="M 581 4863 
L 1159 4863 
L 1159 1991 
L 2875 3500 
L 3609 3500 
L 1753 1863 
L 3688 0 
L 2938 0 
L 1159 1709 
L 1159 0 
L 581 0 
L 581 4863 
z
" transform="scale(0.015625)"/>
      <path id="DejaVuSans-68" d="M 3513 2113 
L 3513 0 
L 2938 0 
L 2938 2094 
Q 2938 2591 2744 2837 
Q 2550 3084 2163 3084 
Q 1697 3084 1428 2787 
Q 1159 2491 1159 1978 
L 1159 0 
L 581 0 
L 581 4863 
L 1159 4863 
L 1159 2956 
Q 1366 3272 1645 3428 
Q 1925 3584 2291 3584 
Q 2894 3584 3203 3211 
Q 3513 2838 3513 2113 
z
" transform="scale(0.015625)"/>
      <path id="DejaVuSans-67" d="M 2906 1791 
Q 2906 2416 2648 2759 
Q 2391 3103 1925 3103 
Q 1463 3103 1205 2759 
Q 947 2416 947 1791 
Q 947 1169 1205 825 
Q 1463 481 1925 481 
Q 2391 481 2648 825 
Q 2906 1169 2906 1791 
z
M 3481 434 
Q 3481 -459 3084 -895 
Q 2688 -1331 1869 -1331 
Q 1566 -1331 1297 -1286 
Q 1028 -1241 775 -1147 
L 775 -588 
Q 1028 -725 1275 -790 
Q 1522 -856 1778 -856 
Q 2344 -856 2625 -561 
Q 2906 -266 2906 331 
L 2906 616 
Q 2728 306 2450 153 
Q 2172 0 1784 0 
Q 1141 0 747 490 
Q 353 981 353 1791 
Q 353 2603 747 3093 
Q 1141 3584 1784 3584 
Q 2172 3584 2450 3431 
Q 2728 3278 2906 2969 
L 2906 3500 
L 3481 3500 
L 3481 434 
z
" transform="scale(0.015625)"/>
     </defs>
     <use xlink:href="#DejaVuSans-73"/>
     <use xlink:href="#DejaVuSans-74" transform="translate(52.099609 0)"/>
     <use xlink:href="#DejaVuSans-65" transform="translate(91.308594 0)"/>
     <use xlink:href="#DejaVuSans-61" transform="translate(152.832031 0)"/>
     <use xlink:href="#DejaVuSans-64" transform="translate(214.111328 0)"/>
     <use xlink:href="#DejaVuSans-79" transform="translate(277.587891 0)"/>
     <use xlink:href="#DejaVuSans-2d" transform="translate(335.017578 0)"/>
     <use xlink:href="#DejaVuSans-73" transform="translate(371.101562 0)"/>
     <use xlink:href="#DejaVuSans-74" transform="translate(423.201172 0)"/>
     <use xlink:href="#DejaVuSans-61" transform="translate(462.410156 0)"/>
     <use xlink:href="#DejaVuSans-74" transform="translate(523.689453 0)"/>
     <use xlink:href="#DejaVuSans-65" transform="translate(562.898438 0)"/>
     <use xlink:href="#DejaVuSans-20" transform="translate(624.421875 0)"/>
     <use xlink:href="#DejaVuSans-6b" transform="translate(656.208984 0)"/>
     <use xlink:href="#DejaVuSans-65" transform="translate(710.494141 0)"/>
     <use xlink:href="#DejaVuSans-72" transform="translate(772.017578 0)"/>
     <use xlink:href="#DejaVuSans-6e" transform="translate(811.380859 0)"/>
     <use xlink:href="#DejaVuSans-65" transform="translate(874.759766 0)"/>
     <use xlink:href="#DejaVuSans-6c" transform="translate(936.283203 0)"/>
     <use xlink:href="#DejaVuSans-20" transform="translate(964.066406 0)"/>
     <use xlink:href="#DejaVuSans-74" transform="translate(995.853516 0)"/>
     <use xlink:href="#DejaVuSans-68" transform="translate(1035.0625 0)"/>
     <use xlink:href="#DejaVuSans-72" transform="translate(1098.441406 0)"/>
     <use xlink:href="#DejaVuSans-6f" transform="translate(1137.304688 0)"/>
     <use xlink:href="#DejaVuSans-75" transform="translate(1198.486328 0)"/>
     <use xlink:href="#DejaVuSans-67" transform="translate(1261.865234 0)"/>
     <use xlink:href="#DejaVuSans-68" transform="translate(1325.341797 0)"/>
     <use xlink:href="#DejaVuSans-70" transform="translate(1388.720703 0)"/>
     <use xlink:href="#DejaVuSans-75" transform="translate(1452.197266 0)"/>
     <use xlink:href="#DejaVuSans-74" transform="translate(1515.576172 0)"/>
    </g>
   </g>
  </g>
 </g>
 <defs>
  <clipPath id="pd1e77af282">
   <rect x="44.76125" y="25.44" width="453.889375" height="328.6"/>
  </clipPath>
  <clipPath id="p6b78850ba5">
   <rect x="543.310625" y="25.44" width="453.889375" height="328.6"/>
  </clipPath>
 </defs>
</svg>
