<?xml version="1.0" encoding="utf-8" standalone="no"?>
<!DOCTYPE svg PUBLIC "-//W3C//DTD SVG 1.1//EN"
  "http://www.w3.org/Graphics/SVG/1.1/DTD/svg11.dtd">
<svg xmlns:xlink="http://www.w3.org/1999/xlink" width="1008pt" height="396pt" viewBox="0 0 1008 396" xmlns="http://www.w3.org/2000/svg" version="1.1">
 <metadata>
  <rdf:RDF xmlns:dc="http://purl.org/dc/elements/1.1/" xmlns:cc="http://creativecommons.org/ns#" xmlns:rdf="http://www.w3.org/1999/02/22-rdf-syntax-ns#">
   <cc:Work>
    <dc:type rdf:resource="http://purl.org/dc/dcmitype/StillImage"/>
    <dc:date>2026-07-01T13:42:56.076574</dc:date>
    <dc:format>image/svg+xml</dc:format>
    <dc:creator>
     <cc:Agent>
      <dc:title>Matplotlib v3.10.7+dfsg1, https://matplotlib.org/</dc:title>
     </cc:Agent>
    </dc:creator>
   </cc:Work>
  </rdf:RDF>
 </metadata>
 <defs>
  <style type="text/css">*{stroke-linejoin: round; stroke-linecap: butt}</style>
 </defs>
 <g id="figure_1">
  <g id="patch_1">
   <path d="M 0 396 
L 1008 396 
L 1008 0 
L 0 0 
z
" style="fill: #ffffff"/>
  </g>
  <g id="axes_1">
   <g id="patch_2">
    <path d="M 47.91125 354.04 
L 495.405 354.04 
L 495.405 25.44 
L 47.91125 25.44 
z
" style="fill: #ffffff"/>
   </g>
   <g id="matplotlib.axis_1">
    <g id="xtick_1">
     <g id="line2d_1">
      <path d="M 108.933125 354.04 
L 108.933125 25.44 
" clip-path="url(#pa181a05fe9)" style="fill: none; stroke: #b0b0b0; stroke-opacity: 0.3; stroke-width: 0.8; stroke-linecap: square"/>
     </g>
     <g id="line2d_2">
      <defs>
       <path id="m0481e27d53" d="M 0 0 
L 0 3.5 
" style="stroke: #000000; stroke-width: 0.8"/>
      </defs>
      <g>
       <use xlink:href="#m0481e27d53" x="108.933125" y="354.04" style="stroke: #000000; stroke-width: 0.8"/>
      </g>
     </g>
     <g id="text_1">
      <!-- 20 -->
      <g transform="translate(102.570625 368.638437) scale(0.1 -0.1)">
       <defs>
        <path id="DejaVuSans-32" d="M 1228 531 
L 3431 531 
L 3431 0 
L 469 0 
L 469 531 
Q 828 903 1448 1529 
Q 2069 2156 2228 2338 
Q 2531 2678 2651 2914 
Q 2772 3150 2772 3378 
Q 2772 3750 2511 3984 
Q 2250 4219 1831 4219 
Q 1534 4219 1204 4116 
Q 875 4013 500 3803 
L 500 4441 
Q 881 4594 1212 4672 
Q 1544 4750 1819 4750 
Q 2544 4750 2975 4387 
Q 3406 4025 3406 3419 
Q 3406 3131 3298 2873 
Q 3191 2616 2906 2266 
Q 2828 2175 2409 1742 
Q 1991 1309 1228 531 
z
" transform="scale(0.015625)"/>
        <path id="DejaVuSans-30" d="M 2034 4250 
Q 1547 4250 1301 3770 
Q 1056 3291 1056 2328 
Q 1056 1369 1301 889 
Q 1547 409 2034 409 
Q 2525 409 2770 889 
Q 3016 1369 3016 2328 
Q 3016 3291 2770 3770 
Q 2525 4250 2034 4250 
z
M 2034 4750 
Q 2819 4750 3233 4129 
Q 3647 3509 3647 2328 
Q 3647 1150 3233 529 
Q 2819 -91 2034 -91 
Q 1250 -91 836 529 
Q 422 1150 422 2328 
Q 422 3509 836 4129 
Q 1250 4750 2034 4750 
z
" transform="scale(0.015625)"/>
       </defs>
       <use xlink:href="#DejaVuSans-32"/>
       <use xlink:href="#DejaVuSans-30" transform="translate(63.623047 0)"/>
      </g>
     </g>
    </g>
    <g id="xtick_2">
     <g id="line2d_3">
      <path d="M 176.735208 354.04 
L 176.735208 25.44 
" clip-path="url(#pa181a05fe9)" style="fill: none; stroke: #b0b0b0; stroke-opacity: 0.3; stroke-width: 0.8; stroke-linecap: square"/>
     </g>
     <g id="line2d_4">
      <g>
       <use xlink:href="#m0481e27d53" x="176.735208" y="354.04" style="stroke: #000000; stroke-width: 0.8"/>
      </g>
     </g>
     <g id="text_2">
      <!-- 40 -->
      <g transform="translate(170.372708 368.638437) scale(0.1 -0.1)">
       <defs>
        <path id="DejaVuSans-34" d="M 2419 4116 
L 825 1625 
L 2419 1625 
L 2419 4116 
z
M 2253 4666 
L 3047 4666 
L 3047 1625 
L 3713 1625 
L 3713 1100 
L 3047 1100 
L 3047 0 
L 2419 0 
L 2419 1100 
L 313 1100 
L 313 1709 
L 2253 4666 
z
" transform="scale(0.015625)"/>
       </defs>
       <use xlink:href="#DejaVuSans-34"/>
       <use xlink:href="#DejaVuSans-30" transform="translate(63.623047 0)"/>
      </g>
     </g>
    </g>
    <g id="xtick_3">
     <g id="line2d_5">
      <path d="M 244.537292 354.04 
L 244.537292 25.44 
" clip-path="url(#pa181a05fe9)" style="fill: none; stroke: #b0b0b0; stroke-opacity: 0.3; stroke-width: 0.8; stroke-linecap: square"/>
     </g>
     <g id="line2d_6">
      <g>
       <use xlink:href="#m0481e27d53" x="244.537292" y="354.04" style="stroke: #000000; stroke-width: 0.8"/>
      </g>
     </g>
     <g id="text_3">
      <!-- 60 -->
      <g transform="translate(238.174792 368.638437) scale(0.1 -0.1)">
       <defs>
        <path id="DejaVuSans-36" d="M 2113 2584 
Q 1688 2584 1439 2293 
Q 1191 2003 1191 1497 
Q 1191 994 1439 701 
Q 1688 409 2113 409 
Q 2538 409 2786 701 
Q 3034 994 3034 1497 
Q 3034 2003 2786 2293 
Q 2538 2584 2113 2584 
z
M 3366 4563 
L 3366 3988 
Q 3128 4100 2886 4159 
Q 2644 4219 2406 4219 
Q 1781 4219 1451 3797 
Q 1122 3375 1075 2522 
Q 1259 2794 1537 2939 
Q 1816 3084 2150 3084 
Q 2853 3084 3261 2657 
Q 3669 2231 3669 1497 
Q 3669 778 3244 343 
Q 2819 -91 2113 -91 
Q 1303 -91 875 529 
Q 447 1150 447 2328 
Q 447 3434 972 4092 
Q 1497 4750 2381 4750 
Q 2619 4750 2861 4703 
Q 3103 4656 3366 4563 
z
" transform="scale(0.015625)"/>
       </defs>
       <use xlink:href="#DejaVuSans-36"/>
       <use xlink:href="#DejaVuSans-30" transform="translate(63.623047 0)"/>
      </g>
     </g>
    </g>
    <g id="xtick_4">
     <g id="line2d_7">
      <path d="M 312.339375 354.04 
L 312.339375 25.44 
" clip-path="url(#pa181a05fe9)" style="fill: none; stroke: #b0b0b0; stroke-opacity: 0.3; stroke-width: 0.8; stroke-linecap: square"/>
     </g>
     <g id="line2d_8">
      <g>
       <use xlink:href="#m0481e27d53" x="312.339375" y="354.04" style="stroke: #000000; stroke-width: 0.8"/>
      </g>
     </g>
     <g id="text_4">
      <!-- 80 -->
      <g transform="translate(305.976875 368.638437) scale(0.1 -0.1)">
       <defs>
        <path id="DejaVuSans-38" d="M 2034 2216 
Q 1584 2216 1326 1975 
Q 1069 1734 1069 1313 
Q 1069 891 1326 650 
Q 1584 409 2034 409 
Q 2484 409 2743 651 
Q 3003 894 3003 1313 
Q 3003 1734 2745 1975 
Q 2488 2216 2034 2216 
z
M 1403 2484 
Q 997 2584 770 2862 
Q 544 3141 544 3541 
Q 544 4100 942 4425 
Q 1341 4750 2034 4750 
Q 2731 4750 3128 4425 
Q 3525 4100 3525 3541 
Q 3525 3141 3298 2862 
Q 3072 2584 2669 2484 
Q 3125 2378 3379 2068 
Q 3634 1759 3634 1313 
Q 3634 634 3220 271 
Q 2806 -91 2034 -91 
Q 1263 -91 848 271 
Q 434 634 434 1313 
Q 434 1759 690 2068 
Q 947 2378 1403 2484 
z
M 1172 3481 
Q 1172 3119 1398 2916 
Q 1625 2713 2034 2713 
Q 2441 2713 2670 2916 
Q 2900 3119 2900 3481 
Q 2900 3844 2670 4047 
Q 2441 4250 2034 4250 
Q 1625 4250 1398 4047 
Q 1172 3844 1172 3481 
z
" transform="scale(0.015625)"/>
       </defs>
       <use xlink:href="#DejaVuSans-38"/>
       <use xlink:href="#DejaVuSans-30" transform="translate(63.623047 0)"/>
      </g>
     </g>
    </g>
    <g id="xtick_5">
     <g id="line2d_9">
      <path d="M 380.141458 354.04 
L 380.141458 25.44 
" clip-path="url(#pa181a05fe9)" style="fill: none; stroke: #b0b0b0; stroke-opacity: 0.3; stroke-width: 0.8; stroke-linecap: square"/>
     </g>
     <g id="line2d_10">
      <g>
       <use xlink:href="#m0481e27d53" x="380.141458" y="354.04" style="stroke: #000000; stroke-width: 0.8"/>
      </g>
     </g>
     <g id="text_5">
      <!-- 100 -->
      <g transform="translate(370.597708 368.638437) scale(0.1 -0.1)">
       <defs>
        <path id="DejaVuSans-31" d="M 794 531 
L 1825 531 
L 1825 4091 
L 703 3866 
L 703 4441 
L 1819 4666 
L 2450 4666 
L 2450 531 
L 3481 531 
L 3481 0 
L 794 0 
L 794 531 
z
" transform="scale(0.015625)"/>
       </defs>
       <use xlink:href="#DejaVuSans-31"/>
       <use xlink:href="#DejaVuSans-30" transform="translate(63.623047 0)"/>
       <use xlink:href="#DejaVuSans-30" transform="translate(127.246094 0)"/>
      </g>
     </g>
    </g>
    <g id="xtick_6">
     <g id="line2d_11">
      <path d="M 447.943542 354.04 
L 447.943542 25.44 
" clip-path="url(#pa181a05fe9)" style="fill: none; stroke: #b0b0b0; stroke-opacity: 0.3; stroke-width: 0.8; stroke-linecap: square"/>
     </g>
     <g id="line2d_12">
      <g>
       <use xlink:href="#m0481e27d53" x="447.943542" y="354.04" style="stroke: #000000; stroke-width: 0.8"/>
      </g>
     </g>
     <g id="text_6">
      <!-- 120 -->
      <g transform="translate(438.399792 368.638437) scale(0.1 -0.1)">
       <use xlink:href="#DejaVuSans-31"/>
       <use xlink:href="#DejaVuSans-32" transform="translate(63.623047 0)"/>
       <use xlink:href="#DejaVuSans-30" transform="translate(127.246094 0)"/>
      </g>
     </g>
    </g>
    <g id="text_7">
     <!-- n  (an=n, bn=2n) -->
     <g transform="translate(227.757344 382.316562) scale(0.1 -0.1)">
      <defs>
       <path id="DejaVuSans-6e" d="M 3513 2113 
L 3513 0 
L 2938 0 
L 2938 2094 
Q 2938 2591 2744 2837 
Q 2550 3084 2163 3084 
Q 1697 3084 1428 2787 
Q 1159 2491 1159 1978 
L 1159 0 
L 581 0 
L 581 3500 
L 1159 3500 
L 1159 2956 
Q 1366 3272 1645 3428 
Q 1925 3584 2291 3584 
Q 2894 3584 3203 3211 
Q 3513 2838 3513 2113 
z
" transform="scale(0.015625)"/>
       <path id="DejaVuSans-20" transform="scale(0.015625)"/>
       <path id="DejaVuSans-28" d="M 1984 4856 
Q 1566 4138 1362 3434 
Q 1159 2731 1159 2009 
Q 1159 1288 1364 580 
Q 1569 -128 1984 -844 
L 1484 -844 
Q 1016 -109 783 600 
Q 550 1309 550 2009 
Q 550 2706 781 3412 
Q 1013 4119 1484 4856 
L 1984 4856 
z
" transform="scale(0.015625)"/>
       <path id="DejaVuSans-61" d="M 2194 1759 
Q 1497 1759 1228 1600 
Q 959 1441 959 1056 
Q 959 750 1161 570 
Q 1363 391 1709 391 
Q 2188 391 2477 730 
Q 2766 1069 2766 1631 
L 2766 1759 
L 2194 1759 
z
M 3341 1997 
L 3341 0 
L 2766 0 
L 2766 531 
Q 2569 213 2275 61 
Q 1981 -91 1556 -91 
Q 1019 -91 701 211 
Q 384 513 384 1019 
Q 384 1609 779 1909 
Q 1175 2209 1959 2209 
L 2766 2209 
L 2766 2266 
Q 2766 2663 2505 2880 
Q 2244 3097 1772 3097 
Q 1472 3097 1187 3025 
Q 903 2953 641 2809 
L 641 3341 
Q 956 3463 1253 3523 
Q 1550 3584 1831 3584 
Q 2591 3584 2966 3190 
Q 3341 2797 3341 1997 
z
" transform="scale(0.015625)"/>
       <path id="DejaVuSans-3d" d="M 678 2906 
L 4684 2906 
L 4684 2381 
L 678 2381 
L 678 2906 
z
M 678 1631 
L 4684 1631 
L 4684 1100 
L 678 1100 
L 678 1631 
z
" transform="scale(0.015625)"/>
       <path id="DejaVuSans-2c" d="M 750 794 
L 1409 794 
L 1409 256 
L 897 -744 
L 494 -744 
L 750 256 
L 750 794 
z
" transform="scale(0.015625)"/>
       <path id="DejaVuSans-62" d="M 3116 1747 
Q 3116 2381 2855 2742 
Q 2594 3103 2138 3103 
Q 1681 3103 1420 2742 
Q 1159 2381 1159 1747 
Q 1159 1113 1420 752 
Q 1681 391 2138 391 
Q 2594 391 2855 752 
Q 3116 1113 3116 1747 
z
M 1159 2969 
Q 1341 3281 1617 3432 
Q 1894 3584 2278 3584 
Q 2916 3584 3314 3078 
Q 3713 2572 3713 1747 
Q 3713 922 3314 415 
Q 2916 -91 2278 -91 
Q 1894 -91 1617 61 
Q 1341 213 1159 525 
L 1159 0 
L 581 0 
L 581 4863 
L 1159 4863 
L 1159 2969 
z
" transform="scale(0.015625)"/>
       <path id="DejaVuSans-29" d="M 513 4856 
L 1013 4856 
Q 1481 4119 1714 3412 
Q 1947 2706 1947 2009 
Q 1947 1309 1714 600 
Q 1481 -109 1013 -844 
L 513 -844 
Q 928 -128 1133 580 
Q 1338 1288 1338 2009 
Q 1338 2731 1133 3434 
Q 928 4138 513 4856 
z
" transform="scale(0.015625)"/>
      </defs>
      <use xlink:href="#DejaVuSans-6e"/>
      <use xlink:href="#DejaVuSans-20" transform="translate(63.378906 0)"/>
      <use xlink:href="#DejaVuSans-20" transform="translate(95.166016 0)"/>
      <use xlink:href="#DejaVuSans-28" transform="translate(126.953125 0)"/>
      <use xlink:href="#DejaVuSans-61" transform="translate(165.966797 0)"/>
      <use xlink:href="#DejaVuSans-6e" transform="translate(227.246094 0)"/>
      <use xlink:href="#DejaVuSans-3d" transform="translate(290.625 0)"/>
      <use xlink:href="#DejaVuSans-6e" transform="translate(374.414062 0)"/>
      <use xlink:href="#DejaVuSans-2c" transform="translate(437.792969 0)"/>
      <use xlink:href="#DejaVuSans-20" transform="translate(469.580078 0)"/>
      <use xlink:href="#DejaVuSans-62" transform="translate(501.367188 0)"/>
      <use xlink:href="#DejaVuSans-6e" transform="translate(564.84375 0)"/>
      <use xlink:href="#DejaVuSans-3d" transform="translate(628.222656 0)"/>
      <use xlink:href="#DejaVuSans-32" transform="translate(712.011719 0)"/>
      <use xlink:href="#DejaVuSans-6e" transform="translate(775.634766 0)"/>
      <use xlink:href="#DejaVuSans-29" transform="translate(839.013672 0)"/>
     </g>
    </g>
   </g>
   <g id="matplotlib.axis_2">
    <g id="ytick_1">
     <g id="line2d_13">
      <path d="M 47.91125 326.99778 
L 495.405 326.99778 
" clip-path="url(#pa181a05fe9)" style="fill: none; stroke: #b0b0b0; stroke-opacity: 0.3; stroke-width: 0.8; stroke-linecap: square"/>
     </g>
     <g id="line2d_14">
      <defs>
       <path id="m4aa75223d1" d="M 0 0 
L -3.5 0 
" style="stroke: #000000; stroke-width: 0.8"/>
      </defs>
      <g>
       <use xlink:href="#m4aa75223d1" x="47.91125" y="326.99778" style="stroke: #000000; stroke-width: 0.8"/>
      </g>
     </g>
     <g id="text_8">
      <!-- 0.5 -->
      <g transform="translate(25.008125 330.796999) scale(0.1 -0.1)">
       <defs>
        <path id="DejaVuSans-2e" d="M 684 794 
L 1344 794 
L 1344 0 
L 684 0 
L 684 794 
z
" transform="scale(0.015625)"/>
        <path id="DejaVuSans-35" d="M 691 4666 
L 3169 4666 
L 3169 4134 
L 1269 4134 
L 1269 2991 
Q 1406 3038 1543 3061 
Q 1681 3084 1819 3084 
Q 2600 3084 3056 2656 
Q 3513 2228 3513 1497 
Q 3513 744 3044 326 
Q 2575 -91 1722 -91 
Q 1428 -91 1123 -41 
Q 819 9 494 109 
L 494 744 
Q 775 591 1075 516 
Q 1375 441 1709 441 
Q 2250 441 2565 725 
Q 2881 1009 2881 1497 
Q 2881 1984 2565 2268 
Q 2250 2553 1709 2553 
Q 1456 2553 1204 2497 
Q 953 2441 691 2322 
L 691 4666 
z
" transform="scale(0.015625)"/>
       </defs>
       <use xlink:href="#DejaVuSans-30"/>
       <use xlink:href="#DejaVuSans-2e" transform="translate(63.623047 0)"/>
       <use xlink:href="#DejaVuSans-35" transform="translate(95.410156 0)"/>
      </g>
     </g>
    </g>
    <g id="ytick_2">
     <g id="line2d_15">
      <path d="M 47.91125 284.521091 
L 495.405 284.521091 
" clip-path="url(#pa181a05fe9)" style="fill: none; stroke: #b0b0b0; stroke-opacity: 0.3; stroke-width: 0.8; stroke-linecap: square"/>
     </g>
     <g id="line2d_16">
      <g>
       <use xlink:href="#m4aa75223d1" x="47.91125" y="284.521091" style="stroke: #000000; stroke-width: 0.8"/>
      </g>
     </g>
     <g id="text_9">
      <!-- 1.0 -->
      <g transform="translate(25.008125 288.320309) scale(0.1 -0.1)">
       <use xlink:href="#DejaVuSans-31"/>
       <use xlink:href="#DejaVuSans-2e" transform="translate(63.623047 0)"/>
       <use xlink:href="#DejaVuSans-30" transform="translate(95.410156 0)"/>
      </g>
     </g>
    </g>
    <g id="ytick_3">
     <g id="line2d_17">
      <path d="M 47.91125 242.044401 
L 495.405 242.044401 
" clip-path="url(#pa181a05fe9)" style="fill: none; stroke: #b0b0b0; stroke-opacity: 0.3; stroke-width: 0.8; stroke-linecap: square"/>
     </g>
     <g id="line2d_18">
      <g>
       <use xlink:href="#m4aa75223d1" x="47.91125" y="242.044401" style="stroke: #000000; stroke-width: 0.8"/>
      </g>
     </g>
     <g id="text_10">
      <!-- 1.5 -->
      <g transform="translate(25.008125 245.84362) scale(0.1 -0.1)">
       <use xlink:href="#DejaVuSans-31"/>
       <use xlink:href="#DejaVuSans-2e" transform="translate(63.623047 0)"/>
       <use xlink:href="#DejaVuSans-35" transform="translate(95.410156 0)"/>
      </g>
     </g>
    </g>
    <g id="ytick_4">
     <g id="line2d_19">
      <path d="M 47.91125 199.567712 
L 495.405 199.567712 
" clip-path="url(#pa181a05fe9)" style="fill: none; stroke: #b0b0b0; stroke-opacity: 0.3; stroke-width: 0.8; stroke-linecap: square"/>
     </g>
     <g id="line2d_20">
      <g>
       <use xlink:href="#m4aa75223d1" x="47.91125" y="199.567712" style="stroke: #000000; stroke-width: 0.8"/>
      </g>
     </g>
     <g id="text_11">
      <!-- 2.0 -->
      <g transform="translate(25.008125 203.366931) scale(0.1 -0.1)">
       <use xlink:href="#DejaVuSans-32"/>
       <use xlink:href="#DejaVuSans-2e" transform="translate(63.623047 0)"/>
       <use xlink:href="#DejaVuSans-30" transform="translate(95.410156 0)"/>
      </g>
     </g>
    </g>
    <g id="ytick_5">
     <g id="line2d_21">
      <path d="M 47.91125 157.091023 
L 495.405 157.091023 
" clip-path="url(#pa181a05fe9)" style="fill: none; stroke: #b0b0b0; stroke-opacity: 0.3; stroke-width: 0.8; stroke-linecap: square"/>
     </g>
     <g id="line2d_22">
      <g>
       <use xlink:href="#m4aa75223d1" x="47.91125" y="157.091023" style="stroke: #000000; stroke-width: 0.8"/>
      </g>
     </g>
     <g id="text_12">
      <!-- 2.5 -->
      <g transform="translate(25.008125 160.890242) scale(0.1 -0.1)">
       <use xlink:href="#DejaVuSans-32"/>
       <use xlink:href="#DejaVuSans-2e" transform="translate(63.623047 0)"/>
       <use xlink:href="#DejaVuSans-35" transform="translate(95.410156 0)"/>
      </g>
     </g>
    </g>
    <g id="ytick_6">
     <g id="line2d_23">
      <path d="M 47.91125 114.614334 
L 495.405 114.614334 
" clip-path="url(#pa181a05fe9)" style="fill: none; stroke: #b0b0b0; stroke-opacity: 0.3; stroke-width: 0.8; stroke-linecap: square"/>
     </g>
     <g id="line2d_24">
      <g>
       <use xlink:href="#m4aa75223d1" x="47.91125" y="114.614334" style="stroke: #000000; stroke-width: 0.8"/>
      </g>
     </g>
     <g id="text_13">
      <!-- 3.0 -->
      <g transform="translate(25.008125 118.413552) scale(0.1 -0.1)">
       <defs>
        <path id="DejaVuSans-33" d="M 2597 2516 
Q 3050 2419 3304 2112 
Q 3559 1806 3559 1356 
Q 3559 666 3084 287 
Q 2609 -91 1734 -91 
Q 1441 -91 1130 -33 
Q 819 25 488 141 
L 488 750 
Q 750 597 1062 519 
Q 1375 441 1716 441 
Q 2309 441 2620 675 
Q 2931 909 2931 1356 
Q 2931 1769 2642 2001 
Q 2353 2234 1838 2234 
L 1294 2234 
L 1294 2753 
L 1863 2753 
Q 2328 2753 2575 2939 
Q 2822 3125 2822 3475 
Q 2822 3834 2567 4026 
Q 2313 4219 1838 4219 
Q 1578 4219 1281 4162 
Q 984 4106 628 3988 
L 628 4550 
Q 988 4650 1302 4700 
Q 1616 4750 1894 4750 
Q 2613 4750 3031 4423 
Q 3450 4097 3450 3541 
Q 3450 3153 3228 2886 
Q 3006 2619 2597 2516 
z
" transform="scale(0.015625)"/>
       </defs>
       <use xlink:href="#DejaVuSans-33"/>
       <use xlink:href="#DejaVuSans-2e" transform="translate(63.623047 0)"/>
       <use xlink:href="#DejaVuSans-30" transform="translate(95.410156 0)"/>
      </g>
     </g>
    </g>
    <g id="ytick_7">
     <g id="line2d_25">
      <path d="M 47.91125 72.137644 
L 495.405 72.137644 
" clip-path="url(#pa181a05fe9)" style="fill: none; stroke: #b0b0b0; stroke-opacity: 0.3; stroke-width: 0.8; stroke-linecap: square"/>
     </g>
     <g id="line2d_26">
      <g>
       <use xlink:href="#m4aa75223d1" x="47.91125" y="72.137644" style="stroke: #000000; stroke-width: 0.8"/>
      </g>
     </g>
     <g id="text_14">
      <!-- 3.5 -->
      <g transform="translate(25.008125 75.936863) scale(0.1 -0.1)">
       <use xlink:href="#DejaVuSans-33"/>
       <use xlink:href="#DejaVuSans-2e" transform="translate(63.623047 0)"/>
       <use xlink:href="#DejaVuSans-35" transform="translate(95.410156 0)"/>
      </g>
     </g>
    </g>
    <g id="ytick_8">
     <g id="line2d_27">
      <path d="M 47.91125 29.660955 
L 495.405 29.660955 
" clip-path="url(#pa181a05fe9)" style="fill: none; stroke: #b0b0b0; stroke-opacity: 0.3; stroke-width: 0.8; stroke-linecap: square"/>
     </g>
     <g id="line2d_28">
      <g>
       <use xlink:href="#m4aa75223d1" x="47.91125" y="29.660955" style="stroke: #000000; stroke-width: 0.8"/>
      </g>
     </g>
     <g id="text_15">
      <!-- 4.0 -->
      <g transform="translate(25.008125 33.460174) scale(0.1 -0.1)">
       <use xlink:href="#DejaVuSans-34"/>
       <use xlink:href="#DejaVuSans-2e" transform="translate(63.623047 0)"/>
       <use xlink:href="#DejaVuSans-30" transform="translate(95.410156 0)"/>
      </g>
     </g>
    </g>
    <g id="text_16">
     <!-- ns / n_limb -->
     <g transform="translate(18.650312 216.867344) rotate(-90) scale(0.1 -0.1)">
      <defs>
       <path id="DejaVuSans-73" d="M 2834 3397 
L 2834 2853 
Q 2591 2978 2328 3040 
Q 2066 3103 1784 3103 
Q 1356 3103 1142 2972 
Q 928 2841 928 2578 
Q 928 2378 1081 2264 
Q 1234 2150 1697 2047 
L 1894 2003 
Q 2506 1872 2764 1633 
Q 3022 1394 3022 966 
Q 3022 478 2636 193 
Q 2250 -91 1575 -91 
Q 1294 -91 989 -36 
Q 684 19 347 128 
L 347 722 
Q 666 556 975 473 
Q 1284 391 1588 391 
Q 1994 391 2212 530 
Q 2431 669 2431 922 
Q 2431 1156 2273 1281 
Q 2116 1406 1581 1522 
L 1381 1569 
Q 847 1681 609 1914 
Q 372 2147 372 2553 
Q 372 3047 722 3315 
Q 1072 3584 1716 3584 
Q 2034 3584 2315 3537 
Q 2597 3491 2834 3397 
z
" transform="scale(0.015625)"/>
       <path id="DejaVuSans-2f" d="M 1625 4666 
L 2156 4666 
L 531 -594 
L 0 -594 
L 1625 4666 
z
" transform="scale(0.015625)"/>
       <path id="DejaVuSans-5f" d="M 3263 -1063 
L 3263 -1509 
L -63 -1509 
L -63 -1063 
L 3263 -1063 
z
" transform="scale(0.015625)"/>
       <path id="DejaVuSans-6c" d="M 603 4863 
L 1178 4863 
L 1178 0 
L 603 0 
L 603 4863 
z
" transform="scale(0.015625)"/>
       <path id="DejaVuSans-69" d="M 603 3500 
L 1178 3500 
L 1178 0 
L 603 0 
L 603 3500 
z
M 603 4863 
L 1178 4863 
L 1178 4134 
L 603 4134 
L 603 4863 
z
" transform="scale(0.015625)"/>
       <path id="DejaVuSans-6d" d="M 3328 2828 
Q 3544 3216 3844 3400 
Q 4144 3584 4550 3584 
Q 5097 3584 5394 3201 
Q 5691 2819 5691 2113 
L 5691 0 
L 5113 0 
L 5113 2094 
Q 5113 2597 4934 2840 
Q 4756 3084 4391 3084 
Q 3944 3084 3684 2787 
Q 3425 2491 3425 1978 
L 3425 0 
L 2847 0 
L 2847 2094 
Q 2847 2600 2669 2842 
Q 2491 3084 2119 3084 
Q 1678 3084 1418 2786 
Q 1159 2488 1159 1978 
L 1159 0 
L 581 0 
L 581 3500 
L 1159 3500 
L 1159 2956 
Q 1356 3278 1631 3431 
Q 1906 3584 2284 3584 
Q 2666 3584 2933 3390 
Q 3200 3197 3328 2828 
z
" transform="scale(0.015625)"/>
      </defs>
      <use xlink:href="#DejaVuSans-6e"/>
      <use xlink:href="#DejaVuSans-73" transform="translate(63.378906 0)"/>
      <use xlink:href="#DejaVuSans-20" transform="translate(115.478516 0)"/>
      <use xlink:href="#DejaVuSans-2f" transform="translate(147.265625 0)"/>
      <use xlink:href="#DejaVuSans-20" transform="translate(180.957031 0)"/>
      <use xlink:href="#DejaVuSans-6e" transform="translate(212.744141 0)"/>
      <use xlink:href="#DejaVuSans-5f" transform="translate(276.123047 0)"/>
      <use xlink:href="#DejaVuSans-6c" transform="translate(326.123047 0)"/>
      <use xlink:href="#DejaVuSans-69" transform="translate(353.90625 0)"/>
      <use xlink:href="#DejaVuSans-6d" transform="translate(381.689453 0)"/>
      <use xlink:href="#DejaVuSans-62" transform="translate(479.101562 0)"/>
     </g>
    </g>
   </g>
   <g id="line2d_29">
    <path d="M 68.251875 314.711398 
L 71.641979 319.370854 
L 75.032083 321.034053 
L 78.422187 324.50324 
L 81.812292 321.284665 
L 85.202396 325.494759 
L 88.5925 328.326693 
L 91.982604 324.335907 
L 95.372708 308.977045 
L 98.762812 309.922151 
L 102.152917 310.030702 
L 105.543021 310.811926 
L 108.933125 310.920353 
L 112.323229 311.398721 
L 115.713333 311.412696 
L 119.103437 310.601778 
L 122.493542 291.720889 
L 125.883646 293.804796 
L 129.27375 293.836555 
L 132.663854 293.214653 
L 136.053958 292.540083 
L 139.444063 277.144794 
L 142.834167 293.945252 
L 146.224271 293.293212 
L 149.614375 273.657677 
L 153.004479 274.859575 
L 156.394583 274.251726 
L 159.784687 274.319404 
L 163.174792 274.199255 
L 166.564896 274.374902 
L 169.955 274.002521 
L 173.345104 273.871422 
L 176.735208 254.320165 
L 180.125313 254.973891 
L 183.515417 255.13329 
L 186.905521 255.028439 
L 190.295625 254.609778 
L 193.685729 254.895016 
L 197.075833 254.898217 
L 200.465937 254.606656 
L 203.856042 235.168487 
L 207.246146 235.789059 
L 210.63625 235.239636 
L 214.026354 235.657906 
L 217.416458 235.378829 
L 220.806562 235.810747 
L 224.196667 235.279595 
L 227.586771 235.376333 
L 230.976875 215.719473 
L 234.366979 216.230498 
L 237.757083 215.973967 
L 241.147187 215.900359 
L 244.537292 215.456826 
L 247.927396 216.522178 
L 251.3175 216.089774 
L 254.707604 216.291392 
L 258.097708 196.385943 
L 261.487813 195.314815 
L 264.877917 195.438463 
L 268.268021 195.337795 
L 271.658125 195.403747 
L 275.048229 190.583585 
L 278.438333 190.646394 
L 281.828438 196.138467 
L 285.218542 176.728232 
L 288.608646 176.465048 
L 291.99875 176.171092 
L 295.388854 175.947275 
L 298.778958 175.80424 
L 302.169062 176.984456 
L 305.559167 176.581288 
L 308.949271 177.028183 
L 312.339375 157.446765 
L 315.729479 157.111999 
L 319.119583 156.834091 
L 322.509687 156.462573 
L 325.899792 156.325431 
L 329.289896 157.410847 
L 332.68 157.75682 
L 336.070104 156.823469 
L 339.460208 137.399216 
L 342.850312 137.698744 
L 346.240417 137.269512 
L 349.630521 137.257676 
L 353.020625 136.79917 
L 356.410729 137.683287 
L 359.800833 137.509269 
L 363.190937 135.993075 
L 366.581042 116.038188 
L 369.971146 117.776876 
L 373.36125 117.077982 
L 376.751354 117.868305 
L 380.141458 117.470466 
L 383.531563 117.637328 
L 386.921667 117.444447 
L 390.311771 118.063606 
L 393.701875 98.542625 
L 397.091979 96.990148 
L 400.482083 96.951244 
L 403.872187 97.410877 
L 407.262292 97.168213 
L 410.652396 98.231581 
L 414.0425 97.754177 
L 417.432604 96.901172 
L 420.822708 78.374891 
L 424.212812 77.428811 
L 427.602917 77.668556 
L 430.993021 77.677343 
L 434.383125 77.933515 
L 437.773229 79.005072 
L 441.163333 79.37236 
L 444.553437 70.101619 
L 447.943542 59.758521 
L 451.333646 59.674071 
L 454.72375 58.585491 
L 458.113854 59.355269 
L 461.503958 59.56797 
L 464.894062 60.312134 
L 468.284167 60.374973 
L 471.674271 59.20667 
L 475.064375 40.376364 
" clip-path="url(#pa181a05fe9)" style="fill: none; stroke: #1f77b4; stroke-width: 1.1; stroke-linecap: square"/>
   </g>
   <g id="line2d_30">
    <path d="M 68.251875 306.991259 
L 71.641979 310.639535 
L 75.032083 313.073921 
L 78.422187 298.206308 
L 81.812292 319.564359 
L 85.202396 323.31211 
L 88.5925 294.95822 
L 91.982604 325.933031 
L 95.372708 308.3983 
L 98.762812 308.59288 
L 102.152917 309.03958 
L 105.543021 308.960836 
L 108.933125 309.565347 
L 112.323229 310.528961 
L 115.713333 311.729341 
L 119.103437 311.192758 
L 122.493542 293.065985 
L 125.883646 293.988295 
L 129.27375 293.957451 
L 132.663854 293.280728 
L 136.053958 293.365344 
L 139.444063 293.546655 
L 142.834167 294.007551 
L 146.224271 293.715239 
L 149.614375 284.125526 
L 153.004479 268.274401 
L 156.394583 264.721956 
L 159.784687 274.134933 
L 163.174792 274.100143 
L 166.564896 274.287653 
L 169.955 274.472 
L 173.345104 274.06529 
L 176.735208 263.463272 
L 180.125313 256.471972 
L 183.515417 252.394555 
L 186.905521 254.799262 
L 190.295625 254.592402 
L 193.685729 255.414175 
L 197.075833 255.099519 
L 200.465937 254.731375 
L 203.856042 243.610729 
L 207.246146 234.767884 
L 210.63625 231.438822 
L 214.026354 235.403046 
L 217.416458 235.512794 
L 220.806562 235.668089 
L 224.196667 235.616262 
L 227.586771 235.810368 
L 230.976875 226.054962 
L 234.366979 219.260501 
L 237.757083 216.038415 
L 241.147187 216.073146 
L 244.537292 215.740004 
L 247.927396 215.772917 
L 251.3175 216.088404 
L 254.707604 216.341285 
L 258.097708 207.667486 
L 261.487813 201.692854 
L 264.877917 198.741347 
L 268.268021 195.798064 
L 271.658125 193.930806 
L 275.048229 195.326199 
L 278.438333 194.492355 
L 281.828438 194.158216 
L 285.218542 186.3787 
L 288.608646 181.348122 
L 291.99875 177.351256 
L 295.388854 175.053565 
L 298.778958 175.172679 
L 302.169062 175.799522 
L 305.559167 175.440953 
L 308.949271 175.491495 
L 312.339375 161.873898 
L 315.729479 156.953629 
L 319.119583 156.20212 
L 322.509687 156.104335 
L 325.899792 155.204856 
L 329.289896 156.601292 
L 332.68 156.256307 
L 336.070104 156.44069 
L 339.460208 143.012897 
L 342.850312 139.568673 
L 346.240417 137.840587 
L 349.630521 136.787165 
L 353.020625 136.935834 
L 356.410729 137.316982 
L 359.800833 136.028911 
L 363.190937 136.061038 
L 366.581042 122.912332 
L 369.971146 120.011063 
L 373.36125 116.849994 
L 376.751354 116.619748 
L 380.141458 116.992179 
L 383.531563 118.025927 
L 386.921667 116.461653 
L 390.311771 117.632241 
L 393.701875 103.76399 
L 397.091979 104.649707 
L 400.482083 99.862099 
L 403.872187 96.917036 
L 407.262292 96.9165 
L 410.652396 98.545675 
L 414.0425 97.106987 
L 417.432604 97.243281 
L 420.822708 85.221982 
L 424.212812 81.817819 
L 427.602917 77.793751 
L 430.993021 76.647561 
L 434.383125 77.374727 
L 437.773229 70.628088 
L 441.163333 69.346422 
L 444.553437 78.115078 
L 447.943542 57.892379 
L 451.333646 60.685788 
L 454.72375 56.549396 
L 458.113854 58.38832 
L 461.503958 58.499202 
L 464.894062 59.267547 
L 468.284167 57.618707 
L 471.674271 57.561116 
L 475.064375 46.045674 
" clip-path="url(#pa181a05fe9)" style="fill: none; stroke: #d62728; stroke-width: 1.1; stroke-linecap: square"/>
   </g>
   <g id="line2d_31">
    <path d="M 68.251875 339.103636 
L 71.641979 316.397486 
L 75.032083 318.035198 
L 78.422187 318.154906 
L 81.812292 317.716623 
L 85.202396 315.72512 
L 88.5925 314.80697 
L 91.982604 313.745053 
L 95.372708 314.960948 
L 98.762812 309.677285 
L 102.152917 307.557615 
L 105.543021 308.191785 
L 108.933125 306.426319 
L 112.323229 304.262638 
L 115.713333 302.195255 
L 119.103437 300.665926 
L 122.493542 300.325959 
L 125.883646 298.218973 
L 129.27375 295.672855 
L 132.663854 295.01126 
L 136.053958 292.567389 
L 139.444063 290.684605 
L 142.834167 288.369479 
L 146.224271 287.05599 
L 149.614375 285.500709 
L 153.004479 283.300851 
L 156.394583 279.09157 
L 159.784687 279.003976 
L 163.174792 276.301851 
L 166.564896 274.804261 
L 169.955 271.961404 
L 173.345104 270.778248 
L 176.735208 269.004356 
L 180.125313 266.301699 
L 183.515417 263.541652 
L 186.905521 262.172425 
L 190.295625 259.021562 
L 193.685729 257.823076 
L 197.075833 254.743085 
L 200.465937 253.596253 
L 203.856042 251.518473 
L 207.246146 249.522032 
L 210.63625 246.334547 
L 214.026354 245.305945 
L 217.416458 242.0395 
L 220.806562 238.69275 
L 224.196667 235.329938 
L 227.586771 234.092765 
L 230.976875 231.951637 
L 234.366979 231.835092 
L 237.757083 228.738945 
L 241.147187 227.788073 
L 244.537292 224.28065 
L 247.927396 223.452146 
L 251.3175 219.941451 
L 254.707604 218.47321 
L 258.097708 215.538947 
L 261.487813 214.439781 
L 264.877917 210.888393 
L 268.268021 209.952312 
L 271.658125 206.552629 
L 275.048229 205.478744 
L 278.438333 201.606593 
L 281.828438 200.32272 
L 285.218542 198.140023 
L 288.608646 196.214963 
L 291.99875 192.792106 
L 295.388854 192.001198 
L 298.778958 188.682502 
L 302.169062 187.579356 
L 305.559167 183.750047 
L 308.949271 177.188411 
L 312.339375 175.247684 
L 315.729479 178.035701 
L 319.119583 175.065915 
L 322.509687 174.435842 
L 325.899792 169.865381 
L 329.289896 169.663123 
L 332.68 165.788866 
L 336.070104 164.222224 
L 339.460208 161.541421 
L 342.850312 160.125481 
L 346.240417 156.722892 
L 349.630521 156.304971 
L 353.020625 152.406583 
L 356.410729 151.121449 
L 359.800833 147.409953 
L 363.190937 145.538258 
L 366.581042 143.157784 
L 369.971146 141.274806 
L 373.36125 137.712117 
L 376.751354 137.921593 
L 380.141458 134.151062 
L 383.531563 133.078656 
L 386.921667 128.893164 
L 390.311771 127.522298 
L 393.701875 125.217169 
L 397.091979 121.11529 
L 400.482083 118.096621 
L 403.872187 116.122852 
L 407.262292 112.771317 
L 410.652396 112.892664 
L 414.0425 109.118622 
L 417.432604 108.565806 
L 420.822708 106.437571 
L 424.212812 104.604871 
L 427.602917 101.407064 
L 430.993021 100.256474 
L 434.383125 96.914004 
L 437.773229 96.591148 
L 441.163333 91.591968 
L 444.553437 91.130079 
L 447.943542 88.359492 
L 451.333646 86.387345 
L 454.72375 82.299322 
L 458.113854 82.408024 
L 461.503958 78.2399 
L 464.894062 77.460483 
L 468.284167 73.66276 
L 471.674271 72.949049 
L 475.064375 69.285069 
" clip-path="url(#pa181a05fe9)" style="fill: none; stroke: #2ca02c; stroke-opacity: 0.7; stroke-width: 0.9; stroke-linecap: square"/>
   </g>
   <g id="patch_3">
    <path d="M 47.91125 354.04 
L 47.91125 25.44 
" style="fill: none; stroke: #000000; stroke-width: 0.8; stroke-linejoin: miter; stroke-linecap: square"/>
   </g>
   <g id="patch_4">
    <path d="M 495.405 354.04 
L 495.405 25.44 
" style="fill: none; stroke: #000000; stroke-width: 0.8; stroke-linejoin: miter; stroke-linecap: square"/>
   </g>
   <g id="patch_5">
    <path d="M 47.91125 354.04 
L 495.405 354.04 
" style="fill: none; stroke: #000000; stroke-width: 0.8; stroke-linejoin: miter; stroke-linecap: square"/>
   </g>
   <g id="patch_6">
    <path d="M 47.91125 25.44 
L 495.405 25.44 
" style="fill: none; stroke: #000000; stroke-width: 0.8; stroke-linejoin: miter; stroke-linecap: square"/>
   </g>
   <g id="text_17">
    <!-- full range 8..128 -->
    <g transform="translate(222.065312 19.44) scale(0.12 -0.12)">
     <defs>
      <path id="DejaVuSans-66" d="M 2375 4863 
L 2375 4384 
L 1825 4384 
Q 1516 4384 1395 4259 
Q 1275 4134 1275 3809 
L 1275 3500 
L 2222 3500 
L 2222 3053 
L 1275 3053 
L 1275 0 
L 697 0 
L 697 3053 
L 147 3053 
L 147 3500 
L 697 3500 
L 697 3744 
Q 697 4328 969 4595 
Q 1241 4863 1831 4863 
L 2375 4863 
z
" transform="scale(0.015625)"/>
      <path id="DejaVuSans-75" d="M 544 1381 
L 544 3500 
L 1119 3500 
L 1119 1403 
Q 1119 906 1312 657 
Q 1506 409 1894 409 
Q 2359 409 2629 706 
Q 2900 1003 2900 1516 
L 2900 3500 
L 3475 3500 
L 3475 0 
L 2900 0 
L 2900 538 
Q 2691 219 2414 64 
Q 2138 -91 1772 -91 
Q 1169 -91 856 284 
Q 544 659 544 1381 
z
M 1991 3584 
L 1991 3584 
z
" transform="scale(0.015625)"/>
      <path id="DejaVuSans-72" d="M 2631 2963 
Q 2534 3019 2420 3045 
Q 2306 3072 2169 3072 
Q 1681 3072 1420 2755 
Q 1159 2438 1159 1844 
L 1159 0 
L 581 0 
L 581 3500 
L 1159 3500 
L 1159 2956 
Q 1341 3275 1631 3429 
Q 1922 3584 2338 3584 
Q 2397 3584 2469 3576 
Q 2541 3569 2628 3553 
L 2631 2963 
z
" transform="scale(0.015625)"/>
      <path id="DejaVuSans-67" d="M 2906 1791 
Q 2906 2416 2648 2759 
Q 2391 3103 1925 3103 
Q 1463 3103 1205 2759 
Q 947 2416 947 1791 
Q 947 1169 1205 825 
Q 1463 481 1925 481 
Q 2391 481 2648 825 
Q 2906 1169 2906 1791 
z
M 3481 434 
Q 3481 -459 3084 -895 
Q 2688 -1331 1869 -1331 
Q 1566 -1331 1297 -1286 
Q 1028 -1241 775 -1147 
L 775 -588 
Q 1028 -725 1275 -790 
Q 1522 -856 1778 -856 
Q 2344 -856 2625 -561 
Q 2906 -266 2906 331 
L 2906 616 
Q 2728 306 2450 153 
Q 2172 0 1784 0 
Q 1141 0 747 490 
Q 353 981 353 1791 
Q 353 2603 747 3093 
Q 1141 3584 1784 3584 
Q 2172 3584 2450 3431 
Q 2728 3278 2906 2969 
L 2906 3500 
L 3481 3500 
L 3481 434 
z
" transform="scale(0.015625)"/>
      <path id="DejaVuSans-65" d="M 3597 1894 
L 3597 1613 
L 953 1613 
Q 991 1019 1311 708 
Q 1631 397 2203 397 
Q 2534 397 2845 478 
Q 3156 559 3463 722 
L 3463 178 
Q 3153 47 2828 -22 
Q 2503 -91 2169 -91 
Q 1331 -91 842 396 
Q 353 884 353 1716 
Q 353 2575 817 3079 
Q 1281 3584 2069 3584 
Q 2775 3584 3186 3129 
Q 3597 2675 3597 1894 
z
M 3022 2063 
Q 3016 2534 2758 2815 
Q 2500 3097 2075 3097 
Q 1594 3097 1305 2825 
Q 1016 2553 972 2059 
L 3022 2063 
z
" transform="scale(0.015625)"/>
     </defs>
     <use xlink:href="#DejaVuSans-66"/>
     <use xlink:href="#DejaVuSans-75" transform="translate(35.205078 0)"/>
     <use xlink:href="#DejaVuSans-6c" transform="translate(98.583984 0)"/>
     <use xlink:href="#DejaVuSans-6c" transform="translate(126.367188 0)"/>
     <use xlink:href="#DejaVuSans-20" transform="translate(154.150391 0)"/>
     <use xlink:href="#DejaVuSans-72" transform="translate(185.9375 0)"/>
     <use xlink:href="#DejaVuSans-61" transform="translate(227.050781 0)"/>
     <use xlink:href="#DejaVuSans-6e" transform="translate(288.330078 0)"/>
     <use xlink:href="#DejaVuSans-67" transform="translate(351.708984 0)"/>
     <use xlink:href="#DejaVuSans-65" transform="translate(415.185547 0)"/>
     <use xlink:href="#DejaVuSans-20" transform="translate(476.708984 0)"/>
     <use xlink:href="#DejaVuSans-38" transform="translate(508.496094 0)"/>
     <use xlink:href="#DejaVuSans-2e" transform="translate(572.119141 0)"/>
     <use xlink:href="#DejaVuSans-2e" transform="translate(603.90625 0)"/>
     <use xlink:href="#DejaVuSans-31" transform="translate(635.693359 0)"/>
     <use xlink:href="#DejaVuSans-32" transform="translate(699.316406 0)"/>
     <use xlink:href="#DejaVuSans-38" transform="translate(762.939453 0)"/>
    </g>
   </g>
   <g id="legend_1">
    <g id="patch_7">
     <path d="M 53.51125 67.29 
L 235.7 67.29 
Q 237.3 67.29 237.3 65.69 
L 237.3 31.04 
Q 237.3 29.44 235.7 29.44 
L 53.51125 29.44 
Q 51.91125 29.44 51.91125 31.04 
L 51.91125 65.69 
Q 51.91125 67.29 53.51125 67.29 
z
" style="fill: #ffffff; opacity: 0.8; stroke: #cccccc; stroke-linejoin: miter"/>
    </g>
    <g id="line2d_32">
     <path d="M 55.11125 35.91875 
L 63.11125 35.91875 
L 71.11125 35.91875 
" style="fill: none; stroke: #1f77b4; stroke-width: 1.1; stroke-linecap: square"/>
    </g>
    <g id="text_18">
     <!-- midmul simple (horizontal masked tail) -->
     <g transform="translate(77.51125 38.71875) scale(0.08 -0.08)">
      <defs>
       <path id="DejaVuSans-64" d="M 2906 2969 
L 2906 4863 
L 3481 4863 
L 3481 0 
L 2906 0 
L 2906 525 
Q 2725 213 2448 61 
Q 2172 -91 1784 -91 
Q 1150 -91 751 415 
Q 353 922 353 1747 
Q 353 2572 751 3078 
Q 1150 3584 1784 3584 
Q 2172 3584 2448 3432 
Q 2725 3281 2906 2969 
z
M 947 1747 
Q 947 1113 1208 752 
Q 1469 391 1925 391 
Q 2381 391 2643 752 
Q 2906 1113 2906 1747 
Q 2906 2381 2643 2742 
Q 2381 3103 1925 3103 
Q 1469 3103 1208 2742 
Q 947 2381 947 1747 
z
" transform="scale(0.015625)"/>
       <path id="DejaVuSans-70" d="M 1159 525 
L 1159 -1331 
L 581 -1331 
L 581 3500 
L 1159 3500 
L 1159 2969 
Q 1341 3281 1617 3432 
Q 1894 3584 2278 3584 
Q 2916 3584 3314 3078 
Q 3713 2572 3713 1747 
Q 3713 922 3314 415 
Q 2916 -91 2278 -91 
Q 1894 -91 1617 61 
Q 1341 213 1159 525 
z
M 3116 1747 
Q 3116 2381 2855 2742 
Q 2594 3103 2138 3103 
Q 1681 3103 1420 2742 
Q 1159 2381 1159 1747 
Q 1159 1113 1420 752 
Q 1681 391 2138 391 
Q 2594 391 2855 752 
Q 3116 1113 3116 1747 
z
" transform="scale(0.015625)"/>
       <path id="DejaVuSans-68" d="M 3513 2113 
L 3513 0 
L 2938 0 
L 2938 2094 
Q 2938 2591 2744 2837 
Q 2550 3084 2163 3084 
Q 1697 3084 1428 2787 
Q 1159 2491 1159 1978 
L 1159 0 
L 581 0 
L 581 4863 
L 1159 4863 
L 1159 2956 
Q 1366 3272 1645 3428 
Q 1925 3584 2291 3584 
Q 2894 3584 3203 3211 
Q 3513 2838 3513 2113 
z
" transform="scale(0.015625)"/>
       <path id="DejaVuSans-6f" d="M 1959 3097 
Q 1497 3097 1228 2736 
Q 959 2375 959 1747 
Q 959 1119 1226 758 
Q 1494 397 1959 397 
Q 2419 397 2687 759 
Q 2956 1122 2956 1747 
Q 2956 2369 2687 2733 
Q 2419 3097 1959 3097 
z
M 1959 3584 
Q 2709 3584 3137 3096 
Q 3566 2609 3566 1747 
Q 3566 888 3137 398 
Q 2709 -91 1959 -91 
Q 1206 -91 779 398 
Q 353 888 353 1747 
Q 353 2609 779 3096 
Q 1206 3584 1959 3584 
z
" transform="scale(0.015625)"/>
       <path id="DejaVuSans-7a" d="M 353 3500 
L 3084 3500 
L 3084 2975 
L 922 459 
L 3084 459 
L 3084 0 
L 275 0 
L 275 525 
L 2438 3041 
L 353 3041 
L 353 3500 
z
" transform="scale(0.015625)"/>
       <path id="DejaVuSans-74" d="M 1172 4494 
L 1172 3500 
L 2356 3500 
L 2356 3053 
L 1172 3053 
L 1172 1153 
Q 1172 725 1289 603 
Q 1406 481 1766 481 
L 2356 481 
L 2356 0 
L 1766 0 
Q 1100 0 847 248 
Q 594 497 594 1153 
L 594 3053 
L 172 3053 
L 172 3500 
L 594 3500 
L 594 4494 
L 1172 4494 
z
" transform="scale(0.015625)"/>
       <path id="DejaVuSans-6b" d="M 581 4863 
L 1159 4863 
L 1159 1991 
L 2875 3500 
L 3609 3500 
L 1753 1863 
L 3688 0 
L 2938 0 
L 1159 1709 
L 1159 0 
L 581 0 
L 581 4863 
z
" transform="scale(0.015625)"/>
      </defs>
      <use xlink:href="#DejaVuSans-6d"/>
      <use xlink:href="#DejaVuSans-69" transform="translate(97.412109 0)"/>
      <use xlink:href="#DejaVuSans-64" transform="translate(125.195312 0)"/>
      <use xlink:href="#DejaVuSans-6d" transform="translate(188.671875 0)"/>
      <use xlink:href="#DejaVuSans-75" transform="translate(286.083984 0)"/>
      <use xlink:href="#DejaVuSans-6c" transform="translate(349.462891 0)"/>
      <use xlink:href="#DejaVuSans-20" transform="translate(377.246094 0)"/>
      <use xlink:href="#DejaVuSans-73" transform="translate(409.033203 0)"/>
      <use xlink:href="#DejaVuSans-69" transform="translate(461.132812 0)"/>
      <use xlink:href="#DejaVuSans-6d" transform="translate(488.916016 0)"/>
      <use xlink:href="#DejaVuSans-70" transform="translate(586.328125 0)"/>
      <use xlink:href="#DejaVuSans-6c" transform="translate(649.804688 0)"/>
      <use xlink:href="#DejaVuSans-65" transform="translate(677.587891 0)"/>
      <use xlink:href="#DejaVuSans-20" transform="translate(739.111328 0)"/>
      <use xlink:href="#DejaVuSans-28" transform="translate(770.898438 0)"/>
      <use xlink:href="#DejaVuSans-68" transform="translate(809.912109 0)"/>
      <use xlink:href="#DejaVuSans-6f" transform="translate(873.291016 0)"/>
      <use xlink:href="#DejaVuSans-72" transform="translate(934.472656 0)"/>
      <use xlink:href="#DejaVuSans-69" transform="translate(975.585938 0)"/>
      <use xlink:href="#DejaVuSans-7a" transform="translate(1003.369141 0)"/>
      <use xlink:href="#DejaVuSans-6f" transform="translate(1055.859375 0)"/>
      <use xlink:href="#DejaVuSans-6e" transform="translate(1117.041016 0)"/>
      <use xlink:href="#DejaVuSans-74" transform="translate(1180.419922 0)"/>
      <use xlink:href="#DejaVuSans-61" transform="translate(1219.628906 0)"/>
      <use xlink:href="#DejaVuSans-6c" transform="translate(1280.908203 0)"/>
      <use xlink:href="#DejaVuSans-20" transform="translate(1308.691406 0)"/>
      <use xlink:href="#DejaVuSans-6d" transform="translate(1340.478516 0)"/>
      <use xlink:href="#DejaVuSans-61" transform="translate(1437.890625 0)"/>
      <use xlink:href="#DejaVuSans-73" transform="translate(1499.169922 0)"/>
      <use xlink:href="#DejaVuSans-6b" transform="translate(1551.269531 0)"/>
      <use xlink:href="#DejaVuSans-65" transform="translate(1605.554688 0)"/>
      <use xlink:href="#DejaVuSans-64" transform="translate(1667.078125 0)"/>
      <use xlink:href="#DejaVuSans-20" transform="translate(1730.554688 0)"/>
      <use xlink:href="#DejaVuSans-74" transform="translate(1762.341797 0)"/>
      <use xlink:href="#DejaVuSans-61" transform="translate(1801.550781 0)"/>
      <use xlink:href="#DejaVuSans-69" transform="translate(1862.830078 0)"/>
      <use xlink:href="#DejaVuSans-6c" transform="translate(1890.613281 0)"/>
      <use xlink:href="#DejaVuSans-29" transform="translate(1918.396484 0)"/>
     </g>
    </g>
    <g id="line2d_33">
     <path d="M 55.11125 47.66125 
L 63.11125 47.66125 
L 71.11125 47.66125 
" style="fill: none; stroke: #d62728; stroke-width: 1.1; stroke-linecap: square"/>
    </g>
    <g id="text_19">
     <!-- midmul vtail (vertical tail, t≤3) -->
     <g transform="translate(77.51125 50.46125) scale(0.08 -0.08)">
      <defs>
       <path id="DejaVuSans-76" d="M 191 3500 
L 800 3500 
L 1894 563 
L 2988 3500 
L 3597 3500 
L 2284 0 
L 1503 0 
L 191 3500 
z
" transform="scale(0.015625)"/>
       <path id="DejaVuSans-63" d="M 3122 3366 
L 3122 2828 
Q 2878 2963 2633 3030 
Q 2388 3097 2138 3097 
Q 1578 3097 1268 2742 
Q 959 2388 959 1747 
Q 959 1106 1268 751 
Q 1578 397 2138 397 
Q 2388 397 2633 464 
Q 2878 531 3122 666 
L 3122 134 
Q 2881 22 2623 -34 
Q 2366 -91 2075 -91 
Q 1284 -91 818 406 
Q 353 903 353 1747 
Q 353 2603 823 3093 
Q 1294 3584 2113 3584 
Q 2378 3584 2631 3529 
Q 2884 3475 3122 3366 
z
" transform="scale(0.015625)"/>
       <path id="DejaVuSans-2264" d="M 4684 3175 
L 1684 2309 
L 4684 1453 
L 4684 897 
L 678 2047 
L 678 2578 
L 4684 3725 
L 4684 3175 
z
M 678 531 
L 4684 531 
L 4684 0 
L 678 0 
L 678 531 
z
" transform="scale(0.015625)"/>
      </defs>
      <use xlink:href="#DejaVuSans-6d"/>
      <use xlink:href="#DejaVuSans-69" transform="translate(97.412109 0)"/>
      <use xlink:href="#DejaVuSans-64" transform="translate(125.195312 0)"/>
      <use xlink:href="#DejaVuSans-6d" transform="translate(188.671875 0)"/>
      <use xlink:href="#DejaVuSans-75" transform="translate(286.083984 0)"/>
      <use xlink:href="#DejaVuSans-6c" transform="translate(349.462891 0)"/>
      <use xlink:href="#DejaVuSans-20" transform="translate(377.246094 0)"/>
      <use xlink:href="#DejaVuSans-76" transform="translate(409.033203 0)"/>
      <use xlink:href="#DejaVuSans-74" transform="translate(468.212891 0)"/>
      <use xlink:href="#DejaVuSans-61" transform="translate(507.421875 0)"/>
      <use xlink:href="#DejaVuSans-69" transform="translate(568.701172 0)"/>
      <use xlink:href="#DejaVuSans-6c" transform="translate(596.484375 0)"/>
      <use xlink:href="#DejaVuSans-20" transform="translate(624.267578 0)"/>
      <use xlink:href="#DejaVuSans-28" transform="translate(656.054688 0)"/>
      <use xlink:href="#DejaVuSans-76" transform="translate(695.068359 0)"/>
      <use xlink:href="#DejaVuSans-65" transform="translate(754.248047 0)"/>
      <use xlink:href="#DejaVuSans-72" transform="translate(815.771484 0)"/>
      <use xlink:href="#DejaVuSans-74" transform="translate(856.884766 0)"/>
      <use xlink:href="#DejaVuSans-69" transform="translate(896.09375 0)"/>
      <use xlink:href="#DejaVuSans-63" transform="translate(923.876953 0)"/>
      <use xlink:href="#DejaVuSans-61" transform="translate(978.857422 0)"/>
      <use xlink:href="#DejaVuSans-6c" transform="translate(1040.136719 0)"/>
      <use xlink:href="#DejaVuSans-20" transform="translate(1067.919922 0)"/>
      <use xlink:href="#DejaVuSans-74" transform="translate(1099.707031 0)"/>
      <use xlink:href="#DejaVuSans-61" transform="translate(1138.916016 0)"/>
      <use xlink:href="#DejaVuSans-69" transform="translate(1200.195312 0)"/>
      <use xlink:href="#DejaVuSans-6c" transform="translate(1227.978516 0)"/>
      <use xlink:href="#DejaVuSans-2c" transform="translate(1255.761719 0)"/>
      <use xlink:href="#DejaVuSans-20" transform="translate(1287.548828 0)"/>
      <use xlink:href="#DejaVuSans-74" transform="translate(1319.335938 0)"/>
      <use xlink:href="#DejaVuSans-2264" transform="translate(1358.544922 0)"/>
      <use xlink:href="#DejaVuSans-33" transform="translate(1442.333984 0)"/>
      <use xlink:href="#DejaVuSans-29" transform="translate(1505.957031 0)"/>
     </g>
    </g>
    <g id="line2d_34">
     <path d="M 55.11125 59.40375 
L 63.11125 59.40375 
L 71.11125 59.40375 
" style="fill: none; stroke: #2ca02c; stroke-opacity: 0.7; stroke-width: 0.9; stroke-linecap: square"/>
    </g>
    <g id="text_20">
     <!-- mul_u52_basecase (an=bn) -->
     <g transform="translate(77.51125 62.20375) scale(0.08 -0.08)">
      <use xlink:href="#DejaVuSans-6d"/>
      <use xlink:href="#DejaVuSans-75" transform="translate(97.412109 0)"/>
      <use xlink:href="#DejaVuSans-6c" transform="translate(160.791016 0)"/>
      <use xlink:href="#DejaVuSans-5f" transform="translate(188.574219 0)"/>
      <use xlink:href="#DejaVuSans-75" transform="translate(238.574219 0)"/>
      <use xlink:href="#DejaVuSans-35" transform="translate(301.953125 0)"/>
      <use xlink:href="#DejaVuSans-32" transform="translate(365.576172 0)"/>
      <use xlink:href="#DejaVuSans-5f" transform="translate(429.199219 0)"/>
      <use xlink:href="#DejaVuSans-62" transform="translate(479.199219 0)"/>
      <use xlink:href="#DejaVuSans-61" transform="translate(542.675781 0)"/>
      <use xlink:href="#DejaVuSans-73" transform="translate(603.955078 0)"/>
      <use xlink:href="#DejaVuSans-65" transform="translate(656.054688 0)"/>
      <use xlink:href="#DejaVuSans-63" transform="translate(717.578125 0)"/>
      <use xlink:href="#DejaVuSans-61" transform="translate(772.558594 0)"/>
      <use xlink:href="#DejaVuSans-73" transform="translate(833.837891 0)"/>
      <use xlink:href="#DejaVuSans-65" transform="translate(885.9375 0)"/>
      <use xlink:href="#DejaVuSans-20" transform="translate(947.460938 0)"/>
      <use xlink:href="#DejaVuSans-28" transform="translate(979.248047 0)"/>
      <use xlink:href="#DejaVuSans-61" transform="translate(1018.261719 0)"/>
      <use xlink:href="#DejaVuSans-6e" transform="translate(1079.541016 0)"/>
      <use xlink:href="#DejaVuSans-3d" transform="translate(1142.919922 0)"/>
      <use xlink:href="#DejaVuSans-62" transform="translate(1226.708984 0)"/>
      <use xlink:href="#DejaVuSans-6e" transform="translate(1290.185547 0)"/>
      <use xlink:href="#DejaVuSans-29" transform="translate(1353.564453 0)"/>
     </g>
    </g>
   </g>
  </g>
  <g id="axes_2">
   <g id="patch_8">
    <path d="M 549.70625 354.04 
L 997.2 354.04 
L 997.2 25.44 
L 549.70625 25.44 
z
" style="fill: #ffffff"/>
   </g>
   <g id="matplotlib.axis_3">
    <g id="xtick_7">
     <g id="line2d_35">
      <path d="M 549.70625 354.04 
L 549.70625 25.44 
" clip-path="url(#p8f82b76a85)" style="fill: none; stroke: #b0b0b0; stroke-opacity: 0.3; stroke-width: 0.8; stroke-linecap: square"/>
     </g>
     <g id="line2d_36">
      <g>
       <use xlink:href="#m0481e27d53" x="549.70625" y="354.04" style="stroke: #000000; stroke-width: 0.8"/>
      </g>
     </g>
     <g id="text_21">
      <!-- 40 -->
      <g transform="translate(543.34375 368.638437) scale(0.1 -0.1)">
       <use xlink:href="#DejaVuSans-34"/>
       <use xlink:href="#DejaVuSans-30" transform="translate(63.623047 0)"/>
      </g>
     </g>
    </g>
    <g id="xtick_8">
     <g id="line2d_37">
      <path d="M 629.615848 354.04 
L 629.615848 25.44 
" clip-path="url(#p8f82b76a85)" style="fill: none; stroke: #b0b0b0; stroke-opacity: 0.3; stroke-width: 0.8; stroke-linecap: square"/>
     </g>
     <g id="line2d_38">
      <g>
       <use xlink:href="#m0481e27d53" x="629.615848" y="354.04" style="stroke: #000000; stroke-width: 0.8"/>
      </g>
     </g>
     <g id="text_22">
      <!-- 50 -->
      <g transform="translate(623.253348 368.638437) scale(0.1 -0.1)">
       <use xlink:href="#DejaVuSans-35"/>
       <use xlink:href="#DejaVuSans-30" transform="translate(63.623047 0)"/>
      </g>
     </g>
    </g>
    <g id="xtick_9">
     <g id="line2d_39">
      <path d="M 709.525446 354.04 
L 709.525446 25.44 
" clip-path="url(#p8f82b76a85)" style="fill: none; stroke: #b0b0b0; stroke-opacity: 0.3; stroke-width: 0.8; stroke-linecap: square"/>
     </g>
     <g id="line2d_40">
      <g>
       <use xlink:href="#m0481e27d53" x="709.525446" y="354.04" style="stroke: #000000; stroke-width: 0.8"/>
      </g>
     </g>
     <g id="text_23">
      <!-- 60 -->
      <g transform="translate(703.162946 368.638437) scale(0.1 -0.1)">
       <use xlink:href="#DejaVuSans-36"/>
       <use xlink:href="#DejaVuSans-30" transform="translate(63.623047 0)"/>
      </g>
     </g>
    </g>
    <g id="xtick_10">
     <g id="line2d_41">
      <path d="M 789.435045 354.04 
L 789.435045 25.44 
" clip-path="url(#p8f82b76a85)" style="fill: none; stroke: #b0b0b0; stroke-opacity: 0.3; stroke-width: 0.8; stroke-linecap: square"/>
     </g>
     <g id="line2d_42">
      <g>
       <use xlink:href="#m0481e27d53" x="789.435045" y="354.04" style="stroke: #000000; stroke-width: 0.8"/>
      </g>
     </g>
     <g id="text_24">
      <!-- 70 -->
      <g transform="translate(783.072545 368.638437) scale(0.1 -0.1)">
       <defs>
        <path id="DejaVuSans-37" d="M 525 4666 
L 3525 4666 
L 3525 4397 
L 1831 0 
L 1172 0 
L 2766 4134 
L 525 4134 
L 525 4666 
z
" transform="scale(0.015625)"/>
       </defs>
       <use xlink:href="#DejaVuSans-37"/>
       <use xlink:href="#DejaVuSans-30" transform="translate(63.623047 0)"/>
      </g>
     </g>
    </g>
    <g id="xtick_11">
     <g id="line2d_43">
      <path d="M 869.344643 354.04 
L 869.344643 25.44 
" clip-path="url(#p8f82b76a85)" style="fill: none; stroke: #b0b0b0; stroke-opacity: 0.3; stroke-width: 0.8; stroke-linecap: square"/>
     </g>
     <g id="line2d_44">
      <g>
       <use xlink:href="#m0481e27d53" x="869.344643" y="354.04" style="stroke: #000000; stroke-width: 0.8"/>
      </g>
     </g>
     <g id="text_25">
      <!-- 80 -->
      <g transform="translate(862.982143 368.638437) scale(0.1 -0.1)">
       <use xlink:href="#DejaVuSans-38"/>
       <use xlink:href="#DejaVuSans-30" transform="translate(63.623047 0)"/>
      </g>
     </g>
    </g>
    <g id="xtick_12">
     <g id="line2d_45">
      <path d="M 949.254241 354.04 
L 949.254241 25.44 
" clip-path="url(#p8f82b76a85)" style="fill: none; stroke: #b0b0b0; stroke-opacity: 0.3; stroke-width: 0.8; stroke-linecap: square"/>
     </g>
     <g id="line2d_46">
      <g>
       <use xlink:href="#m0481e27d53" x="949.254241" y="354.04" style="stroke: #000000; stroke-width: 0.8"/>
      </g>
     </g>
     <g id="text_26">
      <!-- 90 -->
      <g transform="translate(942.891741 368.638437) scale(0.1 -0.1)">
       <defs>
        <path id="DejaVuSans-39" d="M 703 97 
L 703 672 
Q 941 559 1184 500 
Q 1428 441 1663 441 
Q 2288 441 2617 861 
Q 2947 1281 2994 2138 
Q 2813 1869 2534 1725 
Q 2256 1581 1919 1581 
Q 1219 1581 811 2004 
Q 403 2428 403 3163 
Q 403 3881 828 4315 
Q 1253 4750 1959 4750 
Q 2769 4750 3195 4129 
Q 3622 3509 3622 2328 
Q 3622 1225 3098 567 
Q 2575 -91 1691 -91 
Q 1453 -91 1209 -44 
Q 966 3 703 97 
z
M 1959 2075 
Q 2384 2075 2632 2365 
Q 2881 2656 2881 3163 
Q 2881 3666 2632 3958 
Q 2384 4250 1959 4250 
Q 1534 4250 1286 3958 
Q 1038 3666 1038 3163 
Q 1038 2656 1286 2365 
Q 1534 2075 1959 2075 
z
" transform="scale(0.015625)"/>
       </defs>
       <use xlink:href="#DejaVuSans-39"/>
       <use xlink:href="#DejaVuSans-30" transform="translate(63.623047 0)"/>
      </g>
     </g>
    </g>
    <g id="text_27">
     <!-- n  (an=n, bn=2n) -->
     <g transform="translate(729.552344 382.316562) scale(0.1 -0.1)">
      <use xlink:href="#DejaVuSans-6e"/>
      <use xlink:href="#DejaVuSans-20" transform="translate(63.378906 0)"/>
      <use xlink:href="#DejaVuSans-20" transform="translate(95.166016 0)"/>
      <use xlink:href="#DejaVuSans-28" transform="translate(126.953125 0)"/>
      <use xlink:href="#DejaVuSans-61" transform="translate(165.966797 0)"/>
      <use xlink:href="#DejaVuSans-6e" transform="translate(227.246094 0)"/>
      <use xlink:href="#DejaVuSans-3d" transform="translate(290.625 0)"/>
      <use xlink:href="#DejaVuSans-6e" transform="translate(374.414062 0)"/>
      <use xlink:href="#DejaVuSans-2c" transform="translate(437.792969 0)"/>
      <use xlink:href="#DejaVuSans-20" transform="translate(469.580078 0)"/>
      <use xlink:href="#DejaVuSans-62" transform="translate(501.367188 0)"/>
      <use xlink:href="#DejaVuSans-6e" transform="translate(564.84375 0)"/>
      <use xlink:href="#DejaVuSans-3d" transform="translate(628.222656 0)"/>
      <use xlink:href="#DejaVuSans-32" transform="translate(712.011719 0)"/>
      <use xlink:href="#DejaVuSans-6e" transform="translate(775.634766 0)"/>
      <use xlink:href="#DejaVuSans-29" transform="translate(839.013672 0)"/>
     </g>
    </g>
   </g>
   <g id="matplotlib.axis_4">
    <g id="ytick_9">
     <g id="line2d_47">
      <path d="M 549.70625 316.304791 
L 997.2 316.304791 
" clip-path="url(#p8f82b76a85)" style="fill: none; stroke: #b0b0b0; stroke-opacity: 0.3; stroke-width: 0.8; stroke-linecap: square"/>
     </g>
     <g id="line2d_48">
      <g>
       <use xlink:href="#m4aa75223d1" x="549.70625" y="316.304791" style="stroke: #000000; stroke-width: 0.8"/>
      </g>
     </g>
     <g id="text_28">
      <!-- 1.50 -->
      <g transform="translate(520.440625 320.104009) scale(0.1 -0.1)">
       <use xlink:href="#DejaVuSans-31"/>
       <use xlink:href="#DejaVuSans-2e" transform="translate(63.623047 0)"/>
       <use xlink:href="#DejaVuSans-35" transform="translate(95.410156 0)"/>
       <use xlink:href="#DejaVuSans-30" transform="translate(159.033203 0)"/>
      </g>
     </g>
    </g>
    <g id="ytick_10">
     <g id="line2d_49">
      <path d="M 549.70625 270.930027 
L 997.2 270.930027 
" clip-path="url(#p8f82b76a85)" style="fill: none; stroke: #b0b0b0; stroke-opacity: 0.3; stroke-width: 0.8; stroke-linecap: square"/>
     </g>
     <g id="line2d_50">
      <g>
       <use xlink:href="#m4aa75223d1" x="549.70625" y="270.930027" style="stroke: #000000; stroke-width: 0.8"/>
      </g>
     </g>
     <g id="text_29">
      <!-- 1.75 -->
      <g transform="translate(520.440625 274.729245) scale(0.1 -0.1)">
       <use xlink:href="#DejaVuSans-31"/>
       <use xlink:href="#DejaVuSans-2e" transform="translate(63.623047 0)"/>
       <use xlink:href="#DejaVuSans-37" transform="translate(95.410156 0)"/>
       <use xlink:href="#DejaVuSans-35" transform="translate(159.033203 0)"/>
      </g>
     </g>
    </g>
    <g id="ytick_11">
     <g id="line2d_51">
      <path d="M 549.70625 225.555263 
L 997.2 225.555263 
" clip-path="url(#p8f82b76a85)" style="fill: none; stroke: #b0b0b0; stroke-opacity: 0.3; stroke-width: 0.8; stroke-linecap: square"/>
     </g>
     <g id="line2d_52">
      <g>
       <use xlink:href="#m4aa75223d1" x="549.70625" y="225.555263" style="stroke: #000000; stroke-width: 0.8"/>
      </g>
     </g>
     <g id="text_30">
      <!-- 2.00 -->
      <g transform="translate(520.440625 229.354481) scale(0.1 -0.1)">
       <use xlink:href="#DejaVuSans-32"/>
       <use xlink:href="#DejaVuSans-2e" transform="translate(63.623047 0)"/>
       <use xlink:href="#DejaVuSans-30" transform="translate(95.410156 0)"/>
       <use xlink:href="#DejaVuSans-30" transform="translate(159.033203 0)"/>
      </g>
     </g>
    </g>
    <g id="ytick_12">
     <g id="line2d_53">
      <path d="M 549.70625 180.180499 
L 997.2 180.180499 
" clip-path="url(#p8f82b76a85)" style="fill: none; stroke: #b0b0b0; stroke-opacity: 0.3; stroke-width: 0.8; stroke-linecap: square"/>
     </g>
     <g id="line2d_54">
      <g>
       <use xlink:href="#m4aa75223d1" x="549.70625" y="180.180499" style="stroke: #000000; stroke-width: 0.8"/>
      </g>
     </g>
     <g id="text_31">
      <!-- 2.25 -->
      <g transform="translate(520.440625 183.979717) scale(0.1 -0.1)">
       <use xlink:href="#DejaVuSans-32"/>
       <use xlink:href="#DejaVuSans-2e" transform="translate(63.623047 0)"/>
       <use xlink:href="#DejaVuSans-32" transform="translate(95.410156 0)"/>
       <use xlink:href="#DejaVuSans-35" transform="translate(159.033203 0)"/>
      </g>
     </g>
    </g>
    <g id="ytick_13">
     <g id="line2d_55">
      <path d="M 549.70625 134.805735 
L 997.2 134.805735 
" clip-path="url(#p8f82b76a85)" style="fill: none; stroke: #b0b0b0; stroke-opacity: 0.3; stroke-width: 0.8; stroke-linecap: square"/>
     </g>
     <g id="line2d_56">
      <g>
       <use xlink:href="#m4aa75223d1" x="549.70625" y="134.805735" style="stroke: #000000; stroke-width: 0.8"/>
      </g>
     </g>
     <g id="text_32">
      <!-- 2.50 -->
      <g transform="translate(520.440625 138.604954) scale(0.1 -0.1)">
       <use xlink:href="#DejaVuSans-32"/>
       <use xlink:href="#DejaVuSans-2e" transform="translate(63.623047 0)"/>
       <use xlink:href="#DejaVuSans-35" transform="translate(95.410156 0)"/>
       <use xlink:href="#DejaVuSans-30" transform="translate(159.033203 0)"/>
      </g>
     </g>
    </g>
    <g id="ytick_14">
     <g id="line2d_57">
      <path d="M 549.70625 89.430971 
L 997.2 89.430971 
" clip-path="url(#p8f82b76a85)" style="fill: none; stroke: #b0b0b0; stroke-opacity: 0.3; stroke-width: 0.8; stroke-linecap: square"/>
     </g>
     <g id="line2d_58">
      <g>
       <use xlink:href="#m4aa75223d1" x="549.70625" y="89.430971" style="stroke: #000000; stroke-width: 0.8"/>
      </g>
     </g>
     <g id="text_33">
      <!-- 2.75 -->
      <g transform="translate(520.440625 93.23019) scale(0.1 -0.1)">
       <use xlink:href="#DejaVuSans-32"/>
       <use xlink:href="#DejaVuSans-2e" transform="translate(63.623047 0)"/>
       <use xlink:href="#DejaVuSans-37" transform="translate(95.410156 0)"/>
       <use xlink:href="#DejaVuSans-35" transform="translate(159.033203 0)"/>
      </g>
     </g>
    </g>
    <g id="ytick_15">
     <g id="line2d_59">
      <path d="M 549.70625 44.056207 
L 997.2 44.056207 
" clip-path="url(#p8f82b76a85)" style="fill: none; stroke: #b0b0b0; stroke-opacity: 0.3; stroke-width: 0.8; stroke-linecap: square"/>
     </g>
     <g id="line2d_60">
      <g>
       <use xlink:href="#m4aa75223d1" x="549.70625" y="44.056207" style="stroke: #000000; stroke-width: 0.8"/>
      </g>
     </g>
     <g id="text_34">
      <!-- 3.00 -->
      <g transform="translate(520.440625 47.855426) scale(0.1 -0.1)">
       <use xlink:href="#DejaVuSans-33"/>
       <use xlink:href="#DejaVuSans-2e" transform="translate(63.623047 0)"/>
       <use xlink:href="#DejaVuSans-30" transform="translate(95.410156 0)"/>
       <use xlink:href="#DejaVuSans-30" transform="translate(159.033203 0)"/>
      </g>
     </g>
    </g>
    <g id="text_35">
     <!-- ns / n_limb -->
     <g transform="translate(514.082812 216.867344) rotate(-90) scale(0.1 -0.1)">
      <use xlink:href="#DejaVuSans-6e"/>
      <use xlink:href="#DejaVuSans-73" transform="translate(63.378906 0)"/>
      <use xlink:href="#DejaVuSans-20" transform="translate(115.478516 0)"/>
      <use xlink:href="#DejaVuSans-2f" transform="translate(147.265625 0)"/>
      <use xlink:href="#DejaVuSans-20" transform="translate(180.957031 0)"/>
      <use xlink:href="#DejaVuSans-6e" transform="translate(212.744141 0)"/>
      <use xlink:href="#DejaVuSans-5f" transform="translate(276.123047 0)"/>
      <use xlink:href="#DejaVuSans-6c" transform="translate(326.123047 0)"/>
      <use xlink:href="#DejaVuSans-69" transform="translate(353.90625 0)"/>
      <use xlink:href="#DejaVuSans-6d" transform="translate(381.689453 0)"/>
      <use xlink:href="#DejaVuSans-62" transform="translate(479.101562 0)"/>
     </g>
    </g>
   </g>
   <g id="line2d_61">
    <path d="M 460.419708 397 
L 461.805692 391.295194 
L 463.075754 397 
M 483.272755 397 
L 485.778571 383.845127 
L 493.769531 386.412926 
L 501.760491 385.114286 
L 509.751451 385.258875 
L 517.742411 385.002183 
L 525.733371 385.377445 
L 533.72433 384.58187 
L 541.71529 384.301783 
L 549.70625 342.531404 
L 557.69721 343.928062 
L 565.68817 344.268609 
L 573.679129 344.0446 
L 581.670089 343.150151 
L 589.661049 343.759548 
L 597.652009 343.766387 
L 605.642969 343.143481 
L 613.633929 301.614711 
L 621.624888 302.940534 
L 629.615848 301.766716 
L 637.606808 302.660332 
L 645.597768 302.064095 
L 653.588728 302.986869 
L 661.579687 301.852088 
L 669.570647 302.058765 
L 677.561607 260.062771 
L 685.552567 261.154551 
L 693.543527 260.606486 
L 701.534487 260.449225 
L 709.525446 259.501636 
L 717.516406 261.777714 
L 725.507366 260.853902 
L 733.498326 261.284648 
L 741.489286 218.757556 
L 749.480246 216.469141 
L 757.471205 216.733309 
L 765.462165 216.518235 
L 773.453125 216.65914 
L 781.444085 206.36108 
L 789.435045 206.495269 
L 797.426004 218.228836 
L 805.416964 176.759746 
L 813.407924 176.197465 
L 821.398884 175.569442 
L 829.389844 175.091265 
L 837.380804 174.785678 
L 845.371763 177.307157 
L 853.362723 176.445807 
L 861.353683 177.400577 
L 869.344643 135.565762 
L 877.335603 134.850549 
L 885.326563 134.256811 
L 893.317522 133.463079 
L 901.308482 133.170083 
L 909.299442 135.489025 
L 917.290402 136.228181 
L 925.281362 134.234117 
L 933.272321 92.735079 
L 941.263281 93.375007 
L 949.254241 92.457972 
L 957.245201 92.432686 
L 965.236161 91.453107 
L 973.227121 93.341983 
L 981.21808 92.970202 
L 989.20904 89.730922 
L 997.2 47.098207 
L 1005.19096 50.812837 
L 1009 50.101095 
" clip-path="url(#p8f82b76a85)" style="fill: none; stroke: #1f77b4; stroke-width: 1.1; stroke-linecap: square"/>
   </g>
   <g id="line2d_62">
    <path d="M 487.951611 397 
L 493.769531 372.343999 
L 501.760491 364.754362 
L 509.751451 384.864762 
L 517.742411 384.790434 
L 525.733371 385.19104 
L 533.72433 385.584891 
L 541.71529 384.715973 
L 549.70625 362.06524 
L 557.69721 347.128642 
L 565.68817 338.417426 
L 573.679129 343.554974 
L 581.670089 343.113026 
L 589.661049 344.868709 
L 597.652009 344.196461 
L 605.642969 343.409937 
L 613.633929 319.651179 
L 621.624888 300.758841 
L 629.615848 293.646448 
L 637.606808 302.115835 
L 645.597768 302.350305 
L 653.588728 302.682088 
L 661.579687 302.571362 
L 669.570647 302.98606 
L 677.561607 282.144075 
L 685.552567 267.628018 
L 693.543527 260.744174 
L 701.534487 260.818376 
L 709.525446 260.106633 
L 717.516406 260.176951 
L 725.507366 260.850974 
L 733.498326 261.391243 
L 741.489286 242.860063 
L 749.480246 230.095531 
L 757.471205 223.789772 
L 765.462165 217.501581 
L 773.453125 213.512267 
L 781.444085 216.493462 
L 789.435045 214.711991 
L 797.426004 213.998119 
L 805.416964 197.377534 
L 813.407924 186.629931 
L 821.398884 178.090807 
L 829.389844 173.181895 
L 837.380804 173.436376 
L 845.371763 174.775598 
L 853.362723 174.009531 
L 861.353683 174.117511 
L 869.344643 145.024132 
L 877.335603 134.512199 
L 885.326563 132.906635 
L 893.317522 132.697722 
L 901.308482 130.776024 
L 909.299442 133.759446 
L 917.290402 133.022401 
L 925.281362 133.416328 
L 933.272321 104.728454 
L 941.263281 97.370025 
L 949.254241 93.678049 
L 957.245201 91.42746 
L 965.236161 91.745084 
L 973.227121 92.55939 
L 981.21808 89.807485 
L 989.20904 89.876121 
L 997.2 61.784505 
L 1005.19096 55.586075 
L 1009 52.366903 
" clip-path="url(#p8f82b76a85)" style="fill: none; stroke: #d62728; stroke-width: 1.1; stroke-linecap: square"/>
   </g>
   <g id="line2d_63">
    <path d="M 500.387094 397 
L 501.760491 395.454394 
L 509.751451 395.267251 
L 517.742411 389.494285 
L 525.733371 386.294751 
L 533.72433 380.221116 
L 541.71529 377.693356 
L 549.70625 373.903516 
L 557.69721 368.129411 
L 565.68817 362.232695 
L 573.679129 359.307404 
L 581.670089 352.575727 
L 589.661049 350.015215 
L 597.652009 343.434954 
L 605.642969 340.984801 
L 613.633929 336.545717 
L 621.624888 332.280412 
L 629.615848 325.470493 
L 637.606808 323.272931 
L 645.597768 316.294319 
L 653.588728 309.144139 
L 661.579687 301.959643 
L 669.570647 299.316479 
L 677.561607 294.742055 
L 685.552567 294.493062 
L 693.543527 287.878283 
L 701.534487 285.846788 
L 709.525446 278.353338 
L 717.516406 276.583276 
L 725.507366 269.082835 
L 733.498326 265.946005 
L 741.489286 259.677085 
L 749.480246 257.328767 
L 757.471205 249.741387 
L 765.462165 247.741491 
L 773.453125 240.478222 
L 781.444085 238.183914 
L 789.435045 229.91124 
L 797.426004 227.168304 
L 805.416964 222.50507 
L 813.407924 218.392266 
L 821.398884 211.079487 
L 829.389844 209.389747 
L 837.380804 202.299502 
L 845.371763 199.942682 
L 853.362723 191.761535 
L 861.353683 177.742898 
L 869.344643 173.59662 
L 877.335603 179.553095 
L 885.326563 173.208279 
L 893.317522 171.862156 
L 901.308482 162.097575 
L 909.299442 161.66546 
L 917.290402 153.388283 
L 925.281362 150.041225 
L 933.272321 144.31381 
L 941.263281 141.288718 
L 949.254241 134.019239 
L 957.245201 133.12637 
L 965.236161 124.79764 
L 973.227121 122.052011 
L 981.21808 114.122566 
L 989.20904 110.123774 
L 997.2 105.037999 
L 1005.19096 101.015101 
L 1009 97.386927 
" clip-path="url(#p8f82b76a85)" style="fill: none; stroke: #2ca02c; stroke-opacity: 0.7; stroke-width: 0.9; stroke-linecap: square"/>
   </g>
   <g id="line2d_64">
    <path d="M 549.70625 354.04 
L 549.70625 25.44 
" clip-path="url(#p8f82b76a85)" style="fill: none; stroke-dasharray: 0.5,0.825; stroke-dashoffset: 0; stroke: #808080; stroke-opacity: 0.6; stroke-width: 0.5"/>
   </g>
   <g id="line2d_65">
    <path d="M 613.633929 354.04 
L 613.633929 25.44 
" clip-path="url(#p8f82b76a85)" style="fill: none; stroke-dasharray: 0.5,0.825; stroke-dashoffset: 0; stroke: #808080; stroke-opacity: 0.6; stroke-width: 0.5"/>
   </g>
   <g id="line2d_66">
    <path d="M 677.561607 354.04 
L 677.561607 25.44 
" clip-path="url(#p8f82b76a85)" style="fill: none; stroke-dasharray: 0.5,0.825; stroke-dashoffset: 0; stroke: #808080; stroke-opacity: 0.6; stroke-width: 0.5"/>
   </g>
   <g id="line2d_67">
    <path d="M 741.489286 354.04 
L 741.489286 25.44 
" clip-path="url(#p8f82b76a85)" style="fill: none; stroke-dasharray: 0.5,0.825; stroke-dashoffset: 0; stroke: #808080; stroke-opacity: 0.6; stroke-width: 0.5"/>
   </g>
   <g id="line2d_68">
    <path d="M 805.416964 354.04 
L 805.416964 25.44 
" clip-path="url(#p8f82b76a85)" style="fill: none; stroke-dasharray: 0.5,0.825; stroke-dashoffset: 0; stroke: #808080; stroke-opacity: 0.6; stroke-width: 0.5"/>
   </g>
   <g id="line2d_69">
    <path d="M 869.344643 354.04 
L 869.344643 25.44 
" clip-path="url(#p8f82b76a85)" style="fill: none; stroke-dasharray: 0.5,0.825; stroke-dashoffset: 0; stroke: #808080; stroke-opacity: 0.6; stroke-width: 0.5"/>
   </g>
   <g id="line2d_70">
    <path d="M 933.272321 354.04 
L 933.272321 25.44 
" clip-path="url(#p8f82b76a85)" style="fill: none; stroke-dasharray: 0.5,0.825; stroke-dashoffset: 0; stroke: #808080; stroke-opacity: 0.6; stroke-width: 0.5"/>
   </g>
   <g id="line2d_71">
    <path d="M 997.2 354.04 
L 997.2 25.44 
" clip-path="url(#p8f82b76a85)" style="fill: none; stroke-dasharray: 0.5,0.825; stroke-dashoffset: 0; stroke: #808080; stroke-opacity: 0.6; stroke-width: 0.5"/>
   </g>
   <g id="patch_9">
    <path d="M 549.70625 354.04 
L 549.70625 25.44 
" style="fill: none; stroke: #000000; stroke-width: 0.8; stroke-linejoin: miter; stroke-linecap: square"/>
   </g>
   <g id="patch_10">
    <path d="M 997.2 354.04 
L 997.2 25.44 
" style="fill: none; stroke: #000000; stroke-width: 0.8; stroke-linejoin: miter; stroke-linecap: square"/>
   </g>
   <g id="patch_11">
    <path d="M 549.70625 354.04 
L 997.2 354.04 
" style="fill: none; stroke: #000000; stroke-width: 0.8; stroke-linejoin: miter; stroke-linecap: square"/>
   </g>
   <g id="patch_12">
    <path d="M 549.70625 25.44 
L 997.2 25.44 
" style="fill: none; stroke: #000000; stroke-width: 0.8; stroke-linejoin: miter; stroke-linecap: square"/>
   </g>
   <g id="text_36">
    <!-- zoom 40..96: vtail shaves each step's leading edge (t=1) -->
    <g transform="translate(601.64125 19.44) scale(0.12 -0.12)">
     <defs>
      <path id="DejaVuSans-3a" d="M 750 794 
L 1409 794 
L 1409 0 
L 750 0 
L 750 794 
z
M 750 3309 
L 1409 3309 
L 1409 2516 
L 750 2516 
L 750 3309 
z
" transform="scale(0.015625)"/>
      <path id="DejaVuSans-27" d="M 1147 4666 
L 1147 2931 
L 616 2931 
L 616 4666 
L 1147 4666 
z
" transform="scale(0.015625)"/>
     </defs>
     <use xlink:href="#DejaVuSans-7a"/>
     <use xlink:href="#DejaVuSans-6f" transform="translate(52.490234 0)"/>
     <use xlink:href="#DejaVuSans-6f" transform="translate(113.671875 0)"/>
     <use xlink:href="#DejaVuSans-6d" transform="translate(174.853516 0)"/>
     <use xlink:href="#DejaVuSans-20" transform="translate(272.265625 0)"/>
     <use xlink:href="#DejaVuSans-34" transform="translate(304.052734 0)"/>
     <use xlink:href="#DejaVuSans-30" transform="translate(367.675781 0)"/>
     <use xlink:href="#DejaVuSans-2e" transform="translate(431.298828 0)"/>
     <use xlink:href="#DejaVuSans-2e" transform="translate(463.085938 0)"/>
     <use xlink:href="#DejaVuSans-39" transform="translate(494.873047 0)"/>
     <use xlink:href="#DejaVuSans-36" transform="translate(558.496094 0)"/>
     <use xlink:href="#DejaVuSans-3a" transform="translate(622.119141 0)"/>
     <use xlink:href="#DejaVuSans-20" transform="translate(655.810547 0)"/>
     <use xlink:href="#DejaVuSans-76" transform="translate(687.597656 0)"/>
     <use xlink:href="#DejaVuSans-74" transform="translate(746.777344 0)"/>
     <use xlink:href="#DejaVuSans-61" transform="translate(785.986328 0)"/>
     <use xlink:href="#DejaVuSans-69" transform="translate(847.265625 0)"/>
     <use xlink:href="#DejaVuSans-6c" transform="translate(875.048828 0)"/>
     <use xlink:href="#DejaVuSans-20" transform="translate(902.832031 0)"/>
     <use xlink:href="#DejaVuSans-73" transform="translate(934.619141 0)"/>
     <use xlink:href="#DejaVuSans-68" transform="translate(986.71875 0)"/>
     <use xlink:href="#DejaVuSans-61" transform="translate(1050.097656 0)"/>
     <use xlink:href="#DejaVuSans-76" transform="translate(1111.376953 0)"/>
     <use xlink:href="#DejaVuSans-65" transform="translate(1170.556641 0)"/>
     <use xlink:href="#DejaVuSans-73" transform="translate(1232.080078 0)"/>
     <use xlink:href="#DejaVuSans-20" transform="translate(1284.179688 0)"/>
     <use xlink:href="#DejaVuSans-65" transform="translate(1315.966797 0)"/>
     <use xlink:href="#DejaVuSans-61" transform="translate(1377.490234 0)"/>
     <use xlink:href="#DejaVuSans-63" transform="translate(1438.769531 0)"/>
     <use xlink:href="#DejaVuSans-68" transform="translate(1493.75 0)"/>
     <use xlink:href="#DejaVuSans-20" transform="translate(1557.128906 0)"/>
     <use xlink:href="#DejaVuSans-73" transform="translate(1588.916016 0)"/>
     <use xlink:href="#DejaVuSans-74" transform="translate(1641.015625 0)"/>
     <use xlink:href="#DejaVuSans-65" transform="translate(1680.224609 0)"/>
     <use xlink:href="#DejaVuSans-70" transform="translate(1741.748047 0)"/>
     <use xlink:href="#DejaVuSans-27" transform="translate(1805.224609 0)"/>
     <use xlink:href="#DejaVuSans-73" transform="translate(1832.714844 0)"/>
     <use xlink:href="#DejaVuSans-20" transform="translate(1884.814453 0)"/>
     <use xlink:href="#DejaVuSans-6c" transform="translate(1916.601562 0)"/>
     <use xlink:href="#DejaVuSans-65" transform="translate(1944.384766 0)"/>
     <use xlink:href="#DejaVuSans-61" transform="translate(2005.908203 0)"/>
     <use xlink:href="#DejaVuSans-64" transform="translate(2067.1875 0)"/>
     <use xlink:href="#DejaVuSans-69" transform="translate(2130.664062 0)"/>
     <use xlink:href="#DejaVuSans-6e" transform="translate(2158.447266 0)"/>
     <use xlink:href="#DejaVuSans-67" transform="translate(2221.826172 0)"/>
     <use xlink:href="#DejaVuSans-20" transform="translate(2285.302734 0)"/>
     <use xlink:href="#DejaVuSans-65" transform="translate(2317.089844 0)"/>
     <use xlink:href="#DejaVuSans-64" transform="translate(2378.613281 0)"/>
     <use xlink:href="#DejaVuSans-67" transform="translate(2442.089844 0)"/>
     <use xlink:href="#DejaVuSans-65" transform="translate(2505.566406 0)"/>
     <use xlink:href="#DejaVuSans-20" transform="translate(2567.089844 0)"/>
     <use xlink:href="#DejaVuSans-28" transform="translate(2598.876953 0)"/>
     <use xlink:href="#DejaVuSans-74" transform="translate(2637.890625 0)"/>
     <use xlink:href="#DejaVuSans-3d" transform="translate(2677.099609 0)"/>
     <use xlink:href="#DejaVuSans-31" transform="translate(2760.888672 0)"/>
     <use xlink:href="#DejaVuSans-29" transform="translate(2824.511719 0)"/>
    </g>
   </g>
   <g id="legend_2">
    <g id="patch_13">
     <path d="M 809.41125 67.29 
L 991.6 67.29 
Q 993.2 67.29 993.2 65.69 
L 993.2 31.04 
Q 993.2 29.44 991.6 29.44 
L 809.41125 29.44 
Q 807.81125 29.44 807.81125 31.04 
L 807.81125 65.69 
Q 807.81125 67.29 809.41125 67.29 
z
" style="fill: #ffffff; opacity: 0.8; stroke: #cccccc; stroke-linejoin: miter"/>
    </g>
    <g id="line2d_72">
     <path d="M 811.01125 35.91875 
L 819.01125 35.91875 
L 827.01125 35.91875 
" style="fill: none; stroke: #1f77b4; stroke-width: 1.1; stroke-linecap: square"/>
    </g>
    <g id="text_37">
     <!-- midmul simple (horizontal masked tail) -->
     <g transform="translate(833.41125 38.71875) scale(0.08 -0.08)">
      <use xlink:href="#DejaVuSans-6d"/>
      <use xlink:href="#DejaVuSans-69" transform="translate(97.412109 0)"/>
      <use xlink:href="#DejaVuSans-64" transform="translate(125.195312 0)"/>
      <use xlink:href="#DejaVuSans-6d" transform="translate(188.671875 0)"/>
      <use xlink:href="#DejaVuSans-75" transform="translate(286.083984 0)"/>
      <use xlink:href="#DejaVuSans-6c" transform="translate(349.462891 0)"/>
      <use xlink:href="#DejaVuSans-20" transform="translate(377.246094 0)"/>
      <use xlink:href="#DejaVuSans-73" transform="translate(409.033203 0)"/>
      <use xlink:href="#DejaVuSans-69" transform="translate(461.132812 0)"/>
      <use xlink:href="#DejaVuSans-6d" transform="translate(488.916016 0)"/>
      <use xlink:href="#DejaVuSans-70" transform="translate(586.328125 0)"/>
      <use xlink:href="#DejaVuSans-6c" transform="translate(649.804688 0)"/>
      <use xlink:href="#DejaVuSans-65" transform="translate(677.587891 0)"/>
      <use xlink:href="#DejaVuSans-20" transform="translate(739.111328 0)"/>
      <use xlink:href="#DejaVuSans-28" transform="translate(770.898438 0)"/>
      <use xlink:href="#DejaVuSans-68" transform="translate(809.912109 0)"/>
      <use xlink:href="#DejaVuSans-6f" transform="translate(873.291016 0)"/>
      <use xlink:href="#DejaVuSans-72" transform="translate(934.472656 0)"/>
      <use xlink:href="#DejaVuSans-69" transform="translate(975.585938 0)"/>
      <use xlink:href="#DejaVuSans-7a" transform="translate(1003.369141 0)"/>
      <use xlink:href="#DejaVuSans-6f" transform="translate(1055.859375 0)"/>
      <use xlink:href="#DejaVuSans-6e" transform="translate(1117.041016 0)"/>
      <use xlink:href="#DejaVuSans-74" transform="translate(1180.419922 0)"/>
      <use xlink:href="#DejaVuSans-61" transform="translate(1219.628906 0)"/>
      <use xlink:href="#DejaVuSans-6c" transform="translate(1280.908203 0)"/>
      <use xlink:href="#DejaVuSans-20" transform="translate(1308.691406 0)"/>
      <use xlink:href="#DejaVuSans-6d" transform="translate(1340.478516 0)"/>
      <use xlink:href="#DejaVuSans-61" transform="translate(1437.890625 0)"/>
      <use xlink:href="#DejaVuSans-73" transform="translate(1499.169922 0)"/>
      <use xlink:href="#DejaVuSans-6b" transform="translate(1551.269531 0)"/>
      <use xlink:href="#DejaVuSans-65" transform="translate(1605.554688 0)"/>
      <use xlink:href="#DejaVuSans-64" transform="translate(1667.078125 0)"/>
      <use xlink:href="#DejaVuSans-20" transform="translate(1730.554688 0)"/>
      <use xlink:href="#DejaVuSans-74" transform="translate(1762.341797 0)"/>
      <use xlink:href="#DejaVuSans-61" transform="translate(1801.550781 0)"/>
      <use xlink:href="#DejaVuSans-69" transform="translate(1862.830078 0)"/>
      <use xlink:href="#DejaVuSans-6c" transform="translate(1890.613281 0)"/>
      <use xlink:href="#DejaVuSans-29" transform="translate(1918.396484 0)"/>
     </g>
    </g>
    <g id="line2d_73">
     <path d="M 811.01125 47.66125 
L 819.01125 47.66125 
L 827.01125 47.66125 
" style="fill: none; stroke: #d62728; stroke-width: 1.1; stroke-linecap: square"/>
    </g>
    <g id="text_38">
     <!-- midmul vtail (vertical tail, t≤3) -->
     <g transform="translate(833.41125 50.46125) scale(0.08 -0.08)">
      <use xlink:href="#DejaVuSans-6d"/>
      <use xlink:href="#DejaVuSans-69" transform="translate(97.412109 0)"/>
      <use xlink:href="#DejaVuSans-64" transform="translate(125.195312 0)"/>
      <use xlink:href="#DejaVuSans-6d" transform="translate(188.671875 0)"/>
      <use xlink:href="#DejaVuSans-75" transform="translate(286.083984 0)"/>
      <use xlink:href="#DejaVuSans-6c" transform="translate(349.462891 0)"/>
      <use xlink:href="#DejaVuSans-20" transform="translate(377.246094 0)"/>
      <use xlink:href="#DejaVuSans-76" transform="translate(409.033203 0)"/>
      <use xlink:href="#DejaVuSans-74" transform="translate(468.212891 0)"/>
      <use xlink:href="#DejaVuSans-61" transform="translate(507.421875 0)"/>
      <use xlink:href="#DejaVuSans-69" transform="translate(568.701172 0)"/>
      <use xlink:href="#DejaVuSans-6c" transform="translate(596.484375 0)"/>
      <use xlink:href="#DejaVuSans-20" transform="translate(624.267578 0)"/>
      <use xlink:href="#DejaVuSans-28" transform="translate(656.054688 0)"/>
      <use xlink:href="#DejaVuSans-76" transform="translate(695.068359 0)"/>
      <use xlink:href="#DejaVuSans-65" transform="translate(754.248047 0)"/>
      <use xlink:href="#DejaVuSans-72" transform="translate(815.771484 0)"/>
      <use xlink:href="#DejaVuSans-74" transform="translate(856.884766 0)"/>
      <use xlink:href="#DejaVuSans-69" transform="translate(896.09375 0)"/>
      <use xlink:href="#DejaVuSans-63" transform="translate(923.876953 0)"/>
      <use xlink:href="#DejaVuSans-61" transform="translate(978.857422 0)"/>
      <use xlink:href="#DejaVuSans-6c" transform="translate(1040.136719 0)"/>
      <use xlink:href="#DejaVuSans-20" transform="translate(1067.919922 0)"/>
      <use xlink:href="#DejaVuSans-74" transform="translate(1099.707031 0)"/>
      <use xlink:href="#DejaVuSans-61" transform="translate(1138.916016 0)"/>
      <use xlink:href="#DejaVuSans-69" transform="translate(1200.195312 0)"/>
      <use xlink:href="#DejaVuSans-6c" transform="translate(1227.978516 0)"/>
      <use xlink:href="#DejaVuSans-2c" transform="translate(1255.761719 0)"/>
      <use xlink:href="#DejaVuSans-20" transform="translate(1287.548828 0)"/>
      <use xlink:href="#DejaVuSans-74" transform="translate(1319.335938 0)"/>
      <use xlink:href="#DejaVuSans-2264" transform="translate(1358.544922 0)"/>
      <use xlink:href="#DejaVuSans-33" transform="translate(1442.333984 0)"/>
      <use xlink:href="#DejaVuSans-29" transform="translate(1505.957031 0)"/>
     </g>
    </g>
    <g id="line2d_74">
     <path d="M 811.01125 59.40375 
L 819.01125 59.40375 
L 827.01125 59.40375 
" style="fill: none; stroke: #2ca02c; stroke-opacity: 0.7; stroke-width: 0.9; stroke-linecap: square"/>
    </g>
    <g id="text_39">
     <!-- mul_u52_basecase (an=bn) -->
     <g transform="translate(833.41125 62.20375) scale(0.08 -0.08)">
      <use xlink:href="#DejaVuSans-6d"/>
      <use xlink:href="#DejaVuSans-75" transform="translate(97.412109 0)"/>
      <use xlink:href="#DejaVuSans-6c" transform="translate(160.791016 0)"/>
      <use xlink:href="#DejaVuSans-5f" transform="translate(188.574219 0)"/>
      <use xlink:href="#DejaVuSans-75" transform="translate(238.574219 0)"/>
      <use xlink:href="#DejaVuSans-35" transform="translate(301.953125 0)"/>
      <use xlink:href="#DejaVuSans-32" transform="translate(365.576172 0)"/>
      <use xlink:href="#DejaVuSans-5f" transform="translate(429.199219 0)"/>
      <use xlink:href="#DejaVuSans-62" transform="translate(479.199219 0)"/>
      <use xlink:href="#DejaVuSans-61" transform="translate(542.675781 0)"/>
      <use xlink:href="#DejaVuSans-73" transform="translate(603.955078 0)"/>
      <use xlink:href="#DejaVuSans-65" transform="translate(656.054688 0)"/>
      <use xlink:href="#DejaVuSans-63" transform="translate(717.578125 0)"/>
      <use xlink:href="#DejaVuSans-61" transform="translate(772.558594 0)"/>
      <use xlink:href="#DejaVuSans-73" transform="translate(833.837891 0)"/>
      <use xlink:href="#DejaVuSans-65" transform="translate(885.9375 0)"/>
      <use xlink:href="#DejaVuSans-20" transform="translate(947.460938 0)"/>
      <use xlink:href="#DejaVuSans-28" transform="translate(979.248047 0)"/>
      <use xlink:href="#DejaVuSans-61" transform="translate(1018.261719 0)"/>
      <use xlink:href="#DejaVuSans-6e" transform="translate(1079.541016 0)"/>
      <use xlink:href="#DejaVuSans-3d" transform="translate(1142.919922 0)"/>
      <use xlink:href="#DejaVuSans-62" transform="translate(1226.708984 0)"/>
      <use xlink:href="#DejaVuSans-6e" transform="translate(1290.185547 0)"/>
      <use xlink:href="#DejaVuSans-29" transform="translate(1353.564453 0)"/>
     </g>
    </g>
   </g>
  </g>
 </g>
 <defs>
  <clipPath id="pa181a05fe9">
   <rect x="47.91125" y="25.44" width="447.49375" height="328.6"/>
  </clipPath>
  <clipPath id="p8f82b76a85">
   <rect x="549.70625" y="25.44" width="447.49375" height="328.6"/>
  </clipPath>
 </defs>
</svg>
