<?xml version="1.0" encoding="utf-8" standalone="no"?>
<!DOCTYPE svg PUBLIC "-//W3C//DTD SVG 1.1//EN"
  "http://www.w3.org/Graphics/SVG/1.1/DTD/svg11.dtd">
<svg xmlns:xlink="http://www.w3.org/1999/xlink" width="1008pt" height="396pt" viewBox="0 0 1008 396" xmlns="http://www.w3.org/2000/svg" version="1.1">
 <metadata>
  <rdf:RDF xmlns:dc="http://purl.org/dc/elements/1.1/" xmlns:cc="http://creativecommons.org/ns#" xmlns:rdf="http://www.w3.org/1999/02/22-rdf-syntax-ns#">
   <cc:Work>
    <dc:type rdf:resource="http://purl.org/dc/dcmitype/StillImage"/>
    <dc:date>2026-07-01T13:04:23.605979</dc:date>
    <dc:format>image/svg+xml</dc:format>
    <dc:creator>
     <cc:Agent>
      <dc:title>Matplotlib v3.10.7+dfsg1, https://matplotlib.org/</dc:title>
     </cc:Agent>
    </dc:creator>
   </cc:Work>
  </rdf:RDF>
 </metadata>
 <defs>
  <style type="text/css">*{stroke-linejoin: round; stroke-linecap: butt}</style>
 </defs>
 <g id="figure_1">
  <g id="patch_1">
   <path d="M 0 396 
L 1008 396 
L 1008 0 
L 0 0 
z
" style="fill: #ffffff"/>
  </g>
  <g id="axes_1">
   <g id="patch_2">
    <path d="M 44.76125 353.68 
L 493.83 353.68 
L 493.83 26.16 
L 44.76125 26.16 
z
" style="fill: #ffffff"/>
   </g>
   <g id="matplotlib.axis_1">
    <g id="xtick_1">
     <g id="line2d_1">
      <path d="M 46.543269 353.68 
L 46.543269 26.16 
" clip-path="url(#p4213fb1e77)" style="fill: none; stroke: #b0b0b0; stroke-opacity: 0.3; stroke-width: 0.8; stroke-linecap: square"/>
     </g>
     <g id="line2d_2">
      <defs>
       <path id="m3617a80577" d="M 0 0 
L 0 3.5 
" style="stroke: #000000; stroke-width: 0.8"/>
      </defs>
      <g>
       <use xlink:href="#m3617a80577" x="46.543269" y="353.68" style="stroke: #000000; stroke-width: 0.8"/>
      </g>
     </g>
     <g id="text_1">
      <!-- 0 -->
      <g transform="translate(43.362019 368.278437) scale(0.1 -0.1)">
       <defs>
        <path id="DejaVuSans-30" d="M 2034 4250 
Q 1547 4250 1301 3770 
Q 1056 3291 1056 2328 
Q 1056 1369 1301 889 
Q 1547 409 2034 409 
Q 2525 409 2770 889 
Q 3016 1369 3016 2328 
Q 3016 3291 2770 3770 
Q 2525 4250 2034 4250 
z
M 2034 4750 
Q 2819 4750 3233 4129 
Q 3647 3509 3647 2328 
Q 3647 1150 3233 529 
Q 2819 -91 2034 -91 
Q 1250 -91 836 529 
Q 422 1150 422 2328 
Q 422 3509 836 4129 
Q 1250 4750 2034 4750 
z
" transform="scale(0.015625)"/>
       </defs>
       <use xlink:href="#DejaVuSans-30"/>
      </g>
     </g>
    </g>
    <g id="xtick_2">
     <g id="line2d_3">
      <path d="M 132.217252 353.68 
L 132.217252 26.16 
" clip-path="url(#p4213fb1e77)" style="fill: none; stroke: #b0b0b0; stroke-opacity: 0.3; stroke-width: 0.8; stroke-linecap: square"/>
     </g>
     <g id="line2d_4">
      <g>
       <use xlink:href="#m3617a80577" x="132.217252" y="353.68" style="stroke: #000000; stroke-width: 0.8"/>
      </g>
     </g>
     <g id="text_2">
      <!-- 100 -->
      <g transform="translate(122.673502 368.278437) scale(0.1 -0.1)">
       <defs>
        <path id="DejaVuSans-31" d="M 794 531 
L 1825 531 
L 1825 4091 
L 703 3866 
L 703 4441 
L 1819 4666 
L 2450 4666 
L 2450 531 
L 3481 531 
L 3481 0 
L 794 0 
L 794 531 
z
" transform="scale(0.015625)"/>
       </defs>
       <use xlink:href="#DejaVuSans-31"/>
       <use xlink:href="#DejaVuSans-30" transform="translate(63.623047 0)"/>
       <use xlink:href="#DejaVuSans-30" transform="translate(127.246094 0)"/>
      </g>
     </g>
    </g>
    <g id="xtick_3">
     <g id="line2d_5">
      <path d="M 217.891235 353.68 
L 217.891235 26.16 
" clip-path="url(#p4213fb1e77)" style="fill: none; stroke: #b0b0b0; stroke-opacity: 0.3; stroke-width: 0.8; stroke-linecap: square"/>
     </g>
     <g id="line2d_6">
      <g>
       <use xlink:href="#m3617a80577" x="217.891235" y="353.68" style="stroke: #000000; stroke-width: 0.8"/>
      </g>
     </g>
     <g id="text_3">
      <!-- 200 -->
      <g transform="translate(208.347485 368.278437) scale(0.1 -0.1)">
       <defs>
        <path id="DejaVuSans-32" d="M 1228 531 
L 3431 531 
L 3431 0 
L 469 0 
L 469 531 
Q 828 903 1448 1529 
Q 2069 2156 2228 2338 
Q 2531 2678 2651 2914 
Q 2772 3150 2772 3378 
Q 2772 3750 2511 3984 
Q 2250 4219 1831 4219 
Q 1534 4219 1204 4116 
Q 875 4013 500 3803 
L 500 4441 
Q 881 4594 1212 4672 
Q 1544 4750 1819 4750 
Q 2544 4750 2975 4387 
Q 3406 4025 3406 3419 
Q 3406 3131 3298 2873 
Q 3191 2616 2906 2266 
Q 2828 2175 2409 1742 
Q 1991 1309 1228 531 
z
" transform="scale(0.015625)"/>
       </defs>
       <use xlink:href="#DejaVuSans-32"/>
       <use xlink:href="#DejaVuSans-30" transform="translate(63.623047 0)"/>
       <use xlink:href="#DejaVuSans-30" transform="translate(127.246094 0)"/>
      </g>
     </g>
    </g>
    <g id="xtick_4">
     <g id="line2d_7">
      <path d="M 303.565218 353.68 
L 303.565218 26.16 
" clip-path="url(#p4213fb1e77)" style="fill: none; stroke: #b0b0b0; stroke-opacity: 0.3; stroke-width: 0.8; stroke-linecap: square"/>
     </g>
     <g id="line2d_8">
      <g>
       <use xlink:href="#m3617a80577" x="303.565218" y="353.68" style="stroke: #000000; stroke-width: 0.8"/>
      </g>
     </g>
     <g id="text_4">
      <!-- 300 -->
      <g transform="translate(294.021468 368.278437) scale(0.1 -0.1)">
       <defs>
        <path id="DejaVuSans-33" d="M 2597 2516 
Q 3050 2419 3304 2112 
Q 3559 1806 3559 1356 
Q 3559 666 3084 287 
Q 2609 -91 1734 -91 
Q 1441 -91 1130 -33 
Q 819 25 488 141 
L 488 750 
Q 750 597 1062 519 
Q 1375 441 1716 441 
Q 2309 441 2620 675 
Q 2931 909 2931 1356 
Q 2931 1769 2642 2001 
Q 2353 2234 1838 2234 
L 1294 2234 
L 1294 2753 
L 1863 2753 
Q 2328 2753 2575 2939 
Q 2822 3125 2822 3475 
Q 2822 3834 2567 4026 
Q 2313 4219 1838 4219 
Q 1578 4219 1281 4162 
Q 984 4106 628 3988 
L 628 4550 
Q 988 4650 1302 4700 
Q 1616 4750 1894 4750 
Q 2613 4750 3031 4423 
Q 3450 4097 3450 3541 
Q 3450 3153 3228 2886 
Q 3006 2619 2597 2516 
z
" transform="scale(0.015625)"/>
       </defs>
       <use xlink:href="#DejaVuSans-33"/>
       <use xlink:href="#DejaVuSans-30" transform="translate(63.623047 0)"/>
       <use xlink:href="#DejaVuSans-30" transform="translate(127.246094 0)"/>
      </g>
     </g>
    </g>
    <g id="xtick_5">
     <g id="line2d_9">
      <path d="M 389.239201 353.68 
L 389.239201 26.16 
" clip-path="url(#p4213fb1e77)" style="fill: none; stroke: #b0b0b0; stroke-opacity: 0.3; stroke-width: 0.8; stroke-linecap: square"/>
     </g>
     <g id="line2d_10">
      <g>
       <use xlink:href="#m3617a80577" x="389.239201" y="353.68" style="stroke: #000000; stroke-width: 0.8"/>
      </g>
     </g>
     <g id="text_5">
      <!-- 400 -->
      <g transform="translate(379.695451 368.278437) scale(0.1 -0.1)">
       <defs>
        <path id="DejaVuSans-34" d="M 2419 4116 
L 825 1625 
L 2419 1625 
L 2419 4116 
z
M 2253 4666 
L 3047 4666 
L 3047 1625 
L 3713 1625 
L 3713 1100 
L 3047 1100 
L 3047 0 
L 2419 0 
L 2419 1100 
L 313 1100 
L 313 1709 
L 2253 4666 
z
" transform="scale(0.015625)"/>
       </defs>
       <use xlink:href="#DejaVuSans-34"/>
       <use xlink:href="#DejaVuSans-30" transform="translate(63.623047 0)"/>
       <use xlink:href="#DejaVuSans-30" transform="translate(127.246094 0)"/>
      </g>
     </g>
    </g>
    <g id="xtick_6">
     <g id="line2d_11">
      <path d="M 474.913185 353.68 
L 474.913185 26.16 
" clip-path="url(#p4213fb1e77)" style="fill: none; stroke: #b0b0b0; stroke-opacity: 0.3; stroke-width: 0.8; stroke-linecap: square"/>
     </g>
     <g id="line2d_12">
      <g>
       <use xlink:href="#m3617a80577" x="474.913185" y="353.68" style="stroke: #000000; stroke-width: 0.8"/>
      </g>
     </g>
     <g id="text_6">
      <!-- 500 -->
      <g transform="translate(465.369435 368.278437) scale(0.1 -0.1)">
       <defs>
        <path id="DejaVuSans-35" d="M 691 4666 
L 3169 4666 
L 3169 4134 
L 1269 4134 
L 1269 2991 
Q 1406 3038 1543 3061 
Q 1681 3084 1819 3084 
Q 2600 3084 3056 2656 
Q 3513 2228 3513 1497 
Q 3513 744 3044 326 
Q 2575 -91 1722 -91 
Q 1428 -91 1123 -41 
Q 819 9 494 109 
L 494 744 
Q 775 591 1075 516 
Q 1375 441 1709 441 
Q 2250 441 2565 725 
Q 2881 1009 2881 1497 
Q 2881 1984 2565 2268 
Q 2250 2553 1709 2553 
Q 1456 2553 1204 2497 
Q 953 2441 691 2322 
L 691 4666 
z
" transform="scale(0.015625)"/>
       </defs>
       <use xlink:href="#DejaVuSans-35"/>
       <use xlink:href="#DejaVuSans-30" transform="translate(63.623047 0)"/>
       <use xlink:href="#DejaVuSans-30" transform="translate(127.246094 0)"/>
      </g>
     </g>
    </g>
    <g id="text_7">
     <!-- n limbs   (midmul: an=n, bn=2n  |  mul: an=bn=n) -->
     <g transform="translate(141.787812 382.000313) scale(0.1 -0.1)">
      <defs>
       <path id="DejaVuSans-6e" d="M 3513 2113 
L 3513 0 
L 2938 0 
L 2938 2094 
Q 2938 2591 2744 2837 
Q 2550 3084 2163 3084 
Q 1697 3084 1428 2787 
Q 1159 2491 1159 1978 
L 1159 0 
L 581 0 
L 581 3500 
L 1159 3500 
L 1159 2956 
Q 1366 3272 1645 3428 
Q 1925 3584 2291 3584 
Q 2894 3584 3203 3211 
Q 3513 2838 3513 2113 
z
" transform="scale(0.015625)"/>
       <path id="DejaVuSans-20" transform="scale(0.015625)"/>
       <path id="DejaVuSans-6c" d="M 603 4863 
L 1178 4863 
L 1178 0 
L 603 0 
L 603 4863 
z
" transform="scale(0.015625)"/>
       <path id="DejaVuSans-69" d="M 603 3500 
L 1178 3500 
L 1178 0 
L 603 0 
L 603 3500 
z
M 603 4863 
L 1178 4863 
L 1178 4134 
L 603 4134 
L 603 4863 
z
" transform="scale(0.015625)"/>
       <path id="DejaVuSans-6d" d="M 3328 2828 
Q 3544 3216 3844 3400 
Q 4144 3584 4550 3584 
Q 5097 3584 5394 3201 
Q 5691 2819 5691 2113 
L 5691 0 
L 5113 0 
L 5113 2094 
Q 5113 2597 4934 2840 
Q 4756 3084 4391 3084 
Q 3944 3084 3684 2787 
Q 3425 2491 3425 1978 
L 3425 0 
L 2847 0 
L 2847 2094 
Q 2847 2600 2669 2842 
Q 2491 3084 2119 3084 
Q 1678 3084 1418 2786 
Q 1159 2488 1159 1978 
L 1159 0 
L 581 0 
L 581 3500 
L 1159 3500 
L 1159 2956 
Q 1356 3278 1631 3431 
Q 1906 3584 2284 3584 
Q 2666 3584 2933 3390 
Q 3200 3197 3328 2828 
z
" transform="scale(0.015625)"/>
       <path id="DejaVuSans-62" d="M 3116 1747 
Q 3116 2381 2855 2742 
Q 2594 3103 2138 3103 
Q 1681 3103 1420 2742 
Q 1159 2381 1159 1747 
Q 1159 1113 1420 752 
Q 1681 391 2138 391 
Q 2594 391 2855 752 
Q 3116 1113 3116 1747 
z
M 1159 2969 
Q 1341 3281 1617 3432 
Q 1894 3584 2278 3584 
Q 2916 3584 3314 3078 
Q 3713 2572 3713 1747 
Q 3713 922 3314 415 
Q 2916 -91 2278 -91 
Q 1894 -91 1617 61 
Q 1341 213 1159 525 
L 1159 0 
L 581 0 
L 581 4863 
L 1159 4863 
L 1159 2969 
z
" transform="scale(0.015625)"/>
       <path id="DejaVuSans-73" d="M 2834 3397 
L 2834 2853 
Q 2591 2978 2328 3040 
Q 2066 3103 1784 3103 
Q 1356 3103 1142 2972 
Q 928 2841 928 2578 
Q 928 2378 1081 2264 
Q 1234 2150 1697 2047 
L 1894 2003 
Q 2506 1872 2764 1633 
Q 3022 1394 3022 966 
Q 3022 478 2636 193 
Q 2250 -91 1575 -91 
Q 1294 -91 989 -36 
Q 684 19 347 128 
L 347 722 
Q 666 556 975 473 
Q 1284 391 1588 391 
Q 1994 391 2212 530 
Q 2431 669 2431 922 
Q 2431 1156 2273 1281 
Q 2116 1406 1581 1522 
L 1381 1569 
Q 847 1681 609 1914 
Q 372 2147 372 2553 
Q 372 3047 722 3315 
Q 1072 3584 1716 3584 
Q 2034 3584 2315 3537 
Q 2597 3491 2834 3397 
z
" transform="scale(0.015625)"/>
       <path id="DejaVuSans-28" d="M 1984 4856 
Q 1566 4138 1362 3434 
Q 1159 2731 1159 2009 
Q 1159 1288 1364 580 
Q 1569 -128 1984 -844 
L 1484 -844 
Q 1016 -109 783 600 
Q 550 1309 550 2009 
Q 550 2706 781 3412 
Q 1013 4119 1484 4856 
L 1984 4856 
z
" transform="scale(0.015625)"/>
       <path id="DejaVuSans-64" d="M 2906 2969 
L 2906 4863 
L 3481 4863 
L 3481 0 
L 2906 0 
L 2906 525 
Q 2725 213 2448 61 
Q 2172 -91 1784 -91 
Q 1150 -91 751 415 
Q 353 922 353 1747 
Q 353 2572 751 3078 
Q 1150 3584 1784 3584 
Q 2172 3584 2448 3432 
Q 2725 3281 2906 2969 
z
M 947 1747 
Q 947 1113 1208 752 
Q 1469 391 1925 391 
Q 2381 391 2643 752 
Q 2906 1113 2906 1747 
Q 2906 2381 2643 2742 
Q 2381 3103 1925 3103 
Q 1469 3103 1208 2742 
Q 947 2381 947 1747 
z
" transform="scale(0.015625)"/>
       <path id="DejaVuSans-75" d="M 544 1381 
L 544 3500 
L 1119 3500 
L 1119 1403 
Q 1119 906 1312 657 
Q 1506 409 1894 409 
Q 2359 409 2629 706 
Q 2900 1003 2900 1516 
L 2900 3500 
L 3475 3500 
L 3475 0 
L 2900 0 
L 2900 538 
Q 2691 219 2414 64 
Q 2138 -91 1772 -91 
Q 1169 -91 856 284 
Q 544 659 544 1381 
z
M 1991 3584 
L 1991 3584 
z
" transform="scale(0.015625)"/>
       <path id="DejaVuSans-3a" d="M 750 794 
L 1409 794 
L 1409 0 
L 750 0 
L 750 794 
z
M 750 3309 
L 1409 3309 
L 1409 2516 
L 750 2516 
L 750 3309 
z
" transform="scale(0.015625)"/>
       <path id="DejaVuSans-61" d="M 2194 1759 
Q 1497 1759 1228 1600 
Q 959 1441 959 1056 
Q 959 750 1161 570 
Q 1363 391 1709 391 
Q 2188 391 2477 730 
Q 2766 1069 2766 1631 
L 2766 1759 
L 2194 1759 
z
M 3341 1997 
L 3341 0 
L 2766 0 
L 2766 531 
Q 2569 213 2275 61 
Q 1981 -91 1556 -91 
Q 1019 -91 701 211 
Q 384 513 384 1019 
Q 384 1609 779 1909 
Q 1175 2209 1959 2209 
L 2766 2209 
L 2766 2266 
Q 2766 2663 2505 2880 
Q 2244 3097 1772 3097 
Q 1472 3097 1187 3025 
Q 903 2953 641 2809 
L 641 3341 
Q 956 3463 1253 3523 
Q 1550 3584 1831 3584 
Q 2591 3584 2966 3190 
Q 3341 2797 3341 1997 
z
" transform="scale(0.015625)"/>
       <path id="DejaVuSans-3d" d="M 678 2906 
L 4684 2906 
L 4684 2381 
L 678 2381 
L 678 2906 
z
M 678 1631 
L 4684 1631 
L 4684 1100 
L 678 1100 
L 678 1631 
z
" transform="scale(0.015625)"/>
       <path id="DejaVuSans-2c" d="M 750 794 
L 1409 794 
L 1409 256 
L 897 -744 
L 494 -744 
L 750 256 
L 750 794 
z
" transform="scale(0.015625)"/>
       <path id="DejaVuSans-7c" d="M 1344 4891 
L 1344 -1509 
L 813 -1509 
L 813 4891 
L 1344 4891 
z
" transform="scale(0.015625)"/>
       <path id="DejaVuSans-29" d="M 513 4856 
L 1013 4856 
Q 1481 4119 1714 3412 
Q 1947 2706 1947 2009 
Q 1947 1309 1714 600 
Q 1481 -109 1013 -844 
L 513 -844 
Q 928 -128 1133 580 
Q 1338 1288 1338 2009 
Q 1338 2731 1133 3434 
Q 928 4138 513 4856 
z
" transform="scale(0.015625)"/>
      </defs>
      <use xlink:href="#DejaVuSans-6e"/>
      <use xlink:href="#DejaVuSans-20" transform="translate(63.378906 0)"/>
      <use xlink:href="#DejaVuSans-6c" transform="translate(95.166016 0)"/>
      <use xlink:href="#DejaVuSans-69" transform="translate(122.949219 0)"/>
      <use xlink:href="#DejaVuSans-6d" transform="translate(150.732422 0)"/>
      <use xlink:href="#DejaVuSans-62" transform="translate(248.144531 0)"/>
      <use xlink:href="#DejaVuSans-73" transform="translate(311.621094 0)"/>
      <use xlink:href="#DejaVuSans-20" transform="translate(363.720703 0)"/>
      <use xlink:href="#DejaVuSans-20" transform="translate(395.507812 0)"/>
      <use xlink:href="#DejaVuSans-20" transform="translate(427.294922 0)"/>
      <use xlink:href="#DejaVuSans-28" transform="translate(459.082031 0)"/>
      <use xlink:href="#DejaVuSans-6d" transform="translate(498.095703 0)"/>
      <use xlink:href="#DejaVuSans-69" transform="translate(595.507812 0)"/>
      <use xlink:href="#DejaVuSans-64" transform="translate(623.291016 0)"/>
      <use xlink:href="#DejaVuSans-6d" transform="translate(686.767578 0)"/>
      <use xlink:href="#DejaVuSans-75" transform="translate(784.179688 0)"/>
      <use xlink:href="#DejaVuSans-6c" transform="translate(847.558594 0)"/>
      <use xlink:href="#DejaVuSans-3a" transform="translate(875.341797 0)"/>
      <use xlink:href="#DejaVuSans-20" transform="translate(909.033203 0)"/>
      <use xlink:href="#DejaVuSans-61" transform="translate(940.820312 0)"/>
      <use xlink:href="#DejaVuSans-6e" transform="translate(1002.099609 0)"/>
      <use xlink:href="#DejaVuSans-3d" transform="translate(1065.478516 0)"/>
      <use xlink:href="#DejaVuSans-6e" transform="translate(1149.267578 0)"/>
      <use xlink:href="#DejaVuSans-2c" transform="translate(1212.646484 0)"/>
      <use xlink:href="#DejaVuSans-20" transform="translate(1244.433594 0)"/>
      <use xlink:href="#DejaVuSans-62" transform="translate(1276.220703 0)"/>
      <use xlink:href="#DejaVuSans-6e" transform="translate(1339.697266 0)"/>
      <use xlink:href="#DejaVuSans-3d" transform="translate(1403.076172 0)"/>
      <use xlink:href="#DejaVuSans-32" transform="translate(1486.865234 0)"/>
      <use xlink:href="#DejaVuSans-6e" transform="translate(1550.488281 0)"/>
      <use xlink:href="#DejaVuSans-20" transform="translate(1613.867188 0)"/>
      <use xlink:href="#DejaVuSans-20" transform="translate(1645.654297 0)"/>
      <use xlink:href="#DejaVuSans-7c" transform="translate(1677.441406 0)"/>
      <use xlink:href="#DejaVuSans-20" transform="translate(1711.132812 0)"/>
      <use xlink:href="#DejaVuSans-20" transform="translate(1742.919922 0)"/>
      <use xlink:href="#DejaVuSans-6d" transform="translate(1774.707031 0)"/>
      <use xlink:href="#DejaVuSans-75" transform="translate(1872.119141 0)"/>
      <use xlink:href="#DejaVuSans-6c" transform="translate(1935.498047 0)"/>
      <use xlink:href="#DejaVuSans-3a" transform="translate(1963.28125 0)"/>
      <use xlink:href="#DejaVuSans-20" transform="translate(1996.972656 0)"/>
      <use xlink:href="#DejaVuSans-61" transform="translate(2028.759766 0)"/>
      <use xlink:href="#DejaVuSans-6e" transform="translate(2090.039062 0)"/>
      <use xlink:href="#DejaVuSans-3d" transform="translate(2153.417969 0)"/>
      <use xlink:href="#DejaVuSans-62" transform="translate(2237.207031 0)"/>
      <use xlink:href="#DejaVuSans-6e" transform="translate(2300.683594 0)"/>
      <use xlink:href="#DejaVuSans-3d" transform="translate(2364.0625 0)"/>
      <use xlink:href="#DejaVuSans-6e" transform="translate(2447.851562 0)"/>
      <use xlink:href="#DejaVuSans-29" transform="translate(2511.230469 0)"/>
     </g>
    </g>
   </g>
   <g id="matplotlib.axis_2">
    <g id="ytick_1">
     <g id="line2d_13">
      <path d="M 44.76125 349.103901 
L 493.83 349.103901 
" clip-path="url(#p4213fb1e77)" style="fill: none; stroke: #b0b0b0; stroke-opacity: 0.3; stroke-width: 0.8; stroke-linecap: square"/>
     </g>
     <g id="line2d_14">
      <defs>
       <path id="m3499529e89" d="M 0 0 
L -3.5 0 
" style="stroke: #000000; stroke-width: 0.8"/>
      </defs>
      <g>
       <use xlink:href="#m3499529e89" x="44.76125" y="349.103901" style="stroke: #000000; stroke-width: 0.8"/>
      </g>
     </g>
     <g id="text_8">
      <!-- 0 -->
      <g transform="translate(31.39875 352.90312) scale(0.1 -0.1)">
       <use xlink:href="#DejaVuSans-30"/>
      </g>
     </g>
    </g>
    <g id="ytick_2">
     <g id="line2d_15">
      <path d="M 44.76125 307.400467 
L 493.83 307.400467 
" clip-path="url(#p4213fb1e77)" style="fill: none; stroke: #b0b0b0; stroke-opacity: 0.3; stroke-width: 0.8; stroke-linecap: square"/>
     </g>
     <g id="line2d_16">
      <g>
       <use xlink:href="#m3499529e89" x="44.76125" y="307.400467" style="stroke: #000000; stroke-width: 0.8"/>
      </g>
     </g>
     <g id="text_9">
      <!-- 2 -->
      <g transform="translate(31.39875 311.199686) scale(0.1 -0.1)">
       <use xlink:href="#DejaVuSans-32"/>
      </g>
     </g>
    </g>
    <g id="ytick_3">
     <g id="line2d_17">
      <path d="M 44.76125 265.697033 
L 493.83 265.697033 
" clip-path="url(#p4213fb1e77)" style="fill: none; stroke: #b0b0b0; stroke-opacity: 0.3; stroke-width: 0.8; stroke-linecap: square"/>
     </g>
     <g id="line2d_18">
      <g>
       <use xlink:href="#m3499529e89" x="44.76125" y="265.697033" style="stroke: #000000; stroke-width: 0.8"/>
      </g>
     </g>
     <g id="text_10">
      <!-- 4 -->
      <g transform="translate(31.39875 269.496252) scale(0.1 -0.1)">
       <use xlink:href="#DejaVuSans-34"/>
      </g>
     </g>
    </g>
    <g id="ytick_4">
     <g id="line2d_19">
      <path d="M 44.76125 223.993599 
L 493.83 223.993599 
" clip-path="url(#p4213fb1e77)" style="fill: none; stroke: #b0b0b0; stroke-opacity: 0.3; stroke-width: 0.8; stroke-linecap: square"/>
     </g>
     <g id="line2d_20">
      <g>
       <use xlink:href="#m3499529e89" x="44.76125" y="223.993599" style="stroke: #000000; stroke-width: 0.8"/>
      </g>
     </g>
     <g id="text_11">
      <!-- 6 -->
      <g transform="translate(31.39875 227.792818) scale(0.1 -0.1)">
       <defs>
        <path id="DejaVuSans-36" d="M 2113 2584 
Q 1688 2584 1439 2293 
Q 1191 2003 1191 1497 
Q 1191 994 1439 701 
Q 1688 409 2113 409 
Q 2538 409 2786 701 
Q 3034 994 3034 1497 
Q 3034 2003 2786 2293 
Q 2538 2584 2113 2584 
z
M 3366 4563 
L 3366 3988 
Q 3128 4100 2886 4159 
Q 2644 4219 2406 4219 
Q 1781 4219 1451 3797 
Q 1122 3375 1075 2522 
Q 1259 2794 1537 2939 
Q 1816 3084 2150 3084 
Q 2853 3084 3261 2657 
Q 3669 2231 3669 1497 
Q 3669 778 3244 343 
Q 2819 -91 2113 -91 
Q 1303 -91 875 529 
Q 447 1150 447 2328 
Q 447 3434 972 4092 
Q 1497 4750 2381 4750 
Q 2619 4750 2861 4703 
Q 3103 4656 3366 4563 
z
" transform="scale(0.015625)"/>
       </defs>
       <use xlink:href="#DejaVuSans-36"/>
      </g>
     </g>
    </g>
    <g id="ytick_5">
     <g id="line2d_21">
      <path d="M 44.76125 182.290165 
L 493.83 182.290165 
" clip-path="url(#p4213fb1e77)" style="fill: none; stroke: #b0b0b0; stroke-opacity: 0.3; stroke-width: 0.8; stroke-linecap: square"/>
     </g>
     <g id="line2d_22">
      <g>
       <use xlink:href="#m3499529e89" x="44.76125" y="182.290165" style="stroke: #000000; stroke-width: 0.8"/>
      </g>
     </g>
     <g id="text_12">
      <!-- 8 -->
      <g transform="translate(31.39875 186.089384) scale(0.1 -0.1)">
       <defs>
        <path id="DejaVuSans-38" d="M 2034 2216 
Q 1584 2216 1326 1975 
Q 1069 1734 1069 1313 
Q 1069 891 1326 650 
Q 1584 409 2034 409 
Q 2484 409 2743 651 
Q 3003 894 3003 1313 
Q 3003 1734 2745 1975 
Q 2488 2216 2034 2216 
z
M 1403 2484 
Q 997 2584 770 2862 
Q 544 3141 544 3541 
Q 544 4100 942 4425 
Q 1341 4750 2034 4750 
Q 2731 4750 3128 4425 
Q 3525 4100 3525 3541 
Q 3525 3141 3298 2862 
Q 3072 2584 2669 2484 
Q 3125 2378 3379 2068 
Q 3634 1759 3634 1313 
Q 3634 634 3220 271 
Q 2806 -91 2034 -91 
Q 1263 -91 848 271 
Q 434 634 434 1313 
Q 434 1759 690 2068 
Q 947 2378 1403 2484 
z
M 1172 3481 
Q 1172 3119 1398 2916 
Q 1625 2713 2034 2713 
Q 2441 2713 2670 2916 
Q 2900 3119 2900 3481 
Q 2900 3844 2670 4047 
Q 2441 4250 2034 4250 
Q 1625 4250 1398 4047 
Q 1172 3844 1172 3481 
z
" transform="scale(0.015625)"/>
       </defs>
       <use xlink:href="#DejaVuSans-38"/>
      </g>
     </g>
    </g>
    <g id="ytick_6">
     <g id="line2d_23">
      <path d="M 44.76125 140.586731 
L 493.83 140.586731 
" clip-path="url(#p4213fb1e77)" style="fill: none; stroke: #b0b0b0; stroke-opacity: 0.3; stroke-width: 0.8; stroke-linecap: square"/>
     </g>
     <g id="line2d_24">
      <g>
       <use xlink:href="#m3499529e89" x="44.76125" y="140.586731" style="stroke: #000000; stroke-width: 0.8"/>
      </g>
     </g>
     <g id="text_13">
      <!-- 10 -->
      <g transform="translate(25.03625 144.38595) scale(0.1 -0.1)">
       <use xlink:href="#DejaVuSans-31"/>
       <use xlink:href="#DejaVuSans-30" transform="translate(63.623047 0)"/>
      </g>
     </g>
    </g>
    <g id="ytick_7">
     <g id="line2d_25">
      <path d="M 44.76125 98.883297 
L 493.83 98.883297 
" clip-path="url(#p4213fb1e77)" style="fill: none; stroke: #b0b0b0; stroke-opacity: 0.3; stroke-width: 0.8; stroke-linecap: square"/>
     </g>
     <g id="line2d_26">
      <g>
       <use xlink:href="#m3499529e89" x="44.76125" y="98.883297" style="stroke: #000000; stroke-width: 0.8"/>
      </g>
     </g>
     <g id="text_14">
      <!-- 12 -->
      <g transform="translate(25.03625 102.682516) scale(0.1 -0.1)">
       <use xlink:href="#DejaVuSans-31"/>
       <use xlink:href="#DejaVuSans-32" transform="translate(63.623047 0)"/>
      </g>
     </g>
    </g>
    <g id="ytick_8">
     <g id="line2d_27">
      <path d="M 44.76125 57.179863 
L 493.83 57.179863 
" clip-path="url(#p4213fb1e77)" style="fill: none; stroke: #b0b0b0; stroke-opacity: 0.3; stroke-width: 0.8; stroke-linecap: square"/>
     </g>
     <g id="line2d_28">
      <g>
       <use xlink:href="#m3499529e89" x="44.76125" y="57.179863" style="stroke: #000000; stroke-width: 0.8"/>
      </g>
     </g>
     <g id="text_15">
      <!-- 14 -->
      <g transform="translate(25.03625 60.979082) scale(0.1 -0.1)">
       <use xlink:href="#DejaVuSans-31"/>
       <use xlink:href="#DejaVuSans-34" transform="translate(63.623047 0)"/>
      </g>
     </g>
    </g>
    <g id="text_16">
     <!-- ns / n_limb -->
     <g transform="translate(18.678438 217.047344) rotate(-90) scale(0.1 -0.1)">
      <defs>
       <path id="DejaVuSans-2f" d="M 1625 4666 
L 2156 4666 
L 531 -594 
L 0 -594 
L 1625 4666 
z
" transform="scale(0.015625)"/>
       <path id="DejaVuSans-5f" d="M 3263 -1063 
L 3263 -1509 
L -63 -1509 
L -63 -1063 
L 3263 -1063 
z
" transform="scale(0.015625)"/>
      </defs>
      <use xlink:href="#DejaVuSans-6e"/>
      <use xlink:href="#DejaVuSans-73" transform="translate(63.378906 0)"/>
      <use xlink:href="#DejaVuSans-20" transform="translate(115.478516 0)"/>
      <use xlink:href="#DejaVuSans-2f" transform="translate(147.265625 0)"/>
      <use xlink:href="#DejaVuSans-20" transform="translate(180.957031 0)"/>
      <use xlink:href="#DejaVuSans-6e" transform="translate(212.744141 0)"/>
      <use xlink:href="#DejaVuSans-5f" transform="translate(276.123047 0)"/>
      <use xlink:href="#DejaVuSans-6c" transform="translate(326.123047 0)"/>
      <use xlink:href="#DejaVuSans-69" transform="translate(353.90625 0)"/>
      <use xlink:href="#DejaVuSans-6d" transform="translate(381.689453 0)"/>
      <use xlink:href="#DejaVuSans-62" transform="translate(479.101562 0)"/>
     </g>
    </g>
   </g>
   <g id="line2d_29">
    <path d="M 53.397188 333.04026 
L 54.253927 336.409839 
L 55.110667 333.973895 
L 55.967407 338.067656 
L 56.824147 336.545955 
L 57.680887 332.146643 
L 58.537626 338.792727 
L 59.394366 331.542585 
L 60.251106 333.893877 
L 61.107846 334.365417 
L 61.964586 333.929643 
L 62.821326 334.22236 
L 66.248285 334.614678 
L 67.105025 329.890782 
L 67.961765 330.345697 
L 68.818504 323.69047 
L 69.675244 329.967431 
L 70.531984 330.117668 
L 71.388724 325.551527 
L 72.245464 326.461717 
L 73.102204 330.191394 
L 73.958943 325.609881 
L 74.815683 325.688687 
L 79.099382 325.520061 
L 79.956122 325.581561 
L 80.812862 320.758077 
L 81.669602 320.717086 
L 82.526342 320.805639 
L 84.239821 320.733245 
L 85.096561 320.965204 
L 86.810041 320.962069 
L 87.666781 316.151672 
L 88.523521 316.180317 
L 89.38026 316.050594 
L 91.09374 316.180644 
L 91.95048 316.385197 
L 93.66396 316.163496 
L 94.520699 311.469531 
L 95.377439 307.71178 
L 96.234179 307.956273 
L 97.090919 307.875462 
L 97.947659 308.065637 
L 98.804399 311.558847 
L 99.661138 311.527426 
L 100.517878 311.622444 
L 101.374618 306.616899 
L 103.944838 306.712049 
L 104.801577 306.54984 
L 105.658317 306.670053 
L 106.515057 306.52678 
L 107.371797 306.611333 
L 108.228537 301.74386 
L 109.942016 301.770786 
L 110.798756 301.684595 
L 111.655496 301.904668 
L 112.512236 301.904009 
L 114.225716 301.757306 
L 115.082455 296.829689 
L 115.939195 297.128036 
L 116.795935 297.241867 
L 117.652675 297.047213 
L 119.366155 296.969212 
L 120.222894 297.149909 
L 121.079634 297.111703 
L 121.936374 292.353584 
L 122.793114 292.440883 
L 123.649854 289.877379 
L 124.506594 289.899003 
L 125.363333 289.73249 
L 126.220073 292.340147 
L 127.076813 292.145884 
L 127.933553 292.378012 
L 128.790293 287.503151 
L 130.503772 287.667083 
L 132.217252 287.531909 
L 133.073992 284.026105 
L 133.930732 287.435562 
L 134.787471 287.523922 
L 135.644211 282.564268 
L 136.500951 282.994228 
L 138.214431 282.724701 
L 139.071171 282.85259 
L 139.92791 282.848431 
L 140.78465 282.666919 
L 141.64139 282.838835 
L 142.49813 277.986514 
L 143.35487 278.21323 
L 144.21161 277.844988 
L 145.068349 278.099816 
L 148.495309 278.1972 
L 149.352049 273.229369 
L 150.208788 273.463005 
L 151.065528 273.362945 
L 151.922268 273.401658 
L 152.779008 273.595966 
L 154.492488 273.253629 
L 155.349227 273.370465 
L 156.205967 268.563493 
L 157.062707 268.784866 
L 157.919447 268.507524 
L 158.776187 268.67278 
L 159.632927 268.560827 
L 160.489666 268.562655 
L 161.346406 268.449771 
L 162.203146 268.73397 
L 163.059886 263.955915 
L 166.486845 264.156538 
L 167.343585 263.645875 
L 169.057065 263.761177 
L 169.913805 258.842466 
L 170.770544 259.155634 
L 172.484024 258.995689 
L 173.340764 259.362761 
L 174.197504 258.924564 
L 175.054244 258.816384 
L 175.910983 258.924644 
L 176.767723 254.408435 
L 177.624463 254.5107 
L 178.481203 254.256075 
L 180.194683 254.130345 
L 181.051422 254.398723 
L 181.908162 254.412823 
L 182.764902 254.222163 
L 183.621642 249.493685 
L 185.335122 249.671073 
L 187.048601 249.537588 
L 187.905341 249.531898 
L 189.618821 249.750215 
L 190.475561 244.914822 
L 191.3323 245.115278 
L 192.18904 245.185322 
L 193.04578 244.764348 
L 193.90252 245.051773 
L 194.75926 244.665606 
L 195.616 244.803613 
L 196.472739 244.69709 
L 197.329479 239.867206 
L 198.186219 240.69983 
L 199.042959 240.120645 
L 201.613178 240.154256 
L 202.469918 239.664008 
L 203.326658 240.113914 
L 204.183398 235.258513 
L 205.040138 235.72083 
L 207.610357 235.104459 
L 208.467097 235.332189 
L 209.323837 235.231358 
L 210.180577 235.399379 
L 211.037316 230.792454 
L 211.894056 230.859973 
L 212.750796 230.737733 
L 213.607536 230.965237 
L 214.464276 230.523378 
L 217.034495 230.514005 
L 217.891235 225.987545 
L 218.747975 225.524281 
L 219.604715 226.122229 
L 221.318194 225.819351 
L 222.174934 225.972478 
L 223.031674 225.491481 
L 223.888414 225.725098 
L 224.745154 221.404979 
L 225.601894 221.284672 
L 227.315373 221.283469 
L 228.172113 221.054786 
L 229.028853 220.946703 
L 229.885593 220.700392 
L 230.742333 221.010252 
L 231.599072 216.081048 
L 232.455812 216.341115 
L 233.312552 216.289942 
L 234.169292 216.368155 
L 235.026032 216.031371 
L 235.882772 216.156939 
L 236.739511 215.925112 
L 237.596251 216.047225 
L 238.452991 211.701605 
L 240.166471 211.468822 
L 241.023211 210.66577 
L 241.87995 211.027947 
L 242.73669 211.058524 
L 244.45017 211.570128 
L 245.30691 206.485078 
L 246.16365 206.866196 
L 247.020389 206.088301 
L 247.877129 206.332106 
L 248.733869 206.268403 
L 249.590609 206.560684 
L 250.447349 206.263507 
L 251.304089 206.227762 
L 252.160828 201.61684 
L 253.017568 202.680722 
L 254.731048 202.203727 
L 255.587788 202.254744 
L 256.444528 202.127638 
L 257.301267 202.141254 
L 258.158007 202.371129 
L 259.014747 197.5305 
L 259.871487 197.263792 
L 260.728227 197.699584 
L 261.584967 197.323007 
L 262.441706 197.178291 
L 263.298446 197.3531 
L 264.155186 197.167865 
L 265.011926 197.647414 
L 265.868666 192.483804 
L 266.725406 192.945149 
L 267.582145 193.199331 
L 268.438885 192.698392 
L 269.295625 192.420411 
L 271.865844 192.819252 
L 272.722584 187.840513 
L 273.579324 187.557466 
L 274.436064 187.987701 
L 276.149544 187.774323 
L 277.006283 187.964855 
L 277.863023 187.868154 
L 278.719763 187.898123 
L 279.576503 183.116338 
L 280.433243 182.671225 
L 281.289983 183.397589 
L 282.146722 183.404633 
L 284.716942 182.818959 
L 285.573682 183.221243 
L 286.430422 178.574985 
L 287.287161 177.972079 
L 288.143901 178.621742 
L 289.000641 178.626821 
L 289.857381 178.221584 
L 290.714121 178.350727 
L 291.570861 178.625075 
L 292.4276 178.165449 
L 293.28434 173.223361 
L 294.14108 172.974354 
L 294.99782 173.470608 
L 295.85456 173.736017 
L 296.7113 173.651056 
L 297.568039 173.199315 
L 298.424779 173.383574 
L 299.281519 173.829033 
L 300.138259 168.679418 
L 300.994999 168.678698 
L 301.851739 169.030572 
L 305.278698 168.755399 
L 306.135438 169.122065 
L 306.992178 163.327518 
L 307.848917 164.125722 
L 308.705657 164.081574 
L 309.562397 164.415354 
L 310.419137 164.240093 
L 311.275877 163.916564 
L 312.132617 164.24926 
L 312.989356 164.09131 
L 313.846096 158.957361 
L 314.702836 159.53468 
L 315.559576 159.512321 
L 316.416316 159.059896 
L 317.273056 159.596305 
L 318.986535 159.12876 
L 319.843275 159.676511 
L 320.700015 154.319477 
L 321.556755 154.627927 
L 322.413495 154.301009 
L 323.270234 154.973835 
L 324.126974 155.066769 
L 324.983714 154.521902 
L 326.697194 154.564651 
L 327.553934 149.74553 
L 328.410673 149.695446 
L 329.267413 149.422804 
L 330.124153 149.829208 
L 330.980893 149.956438 
L 333.551112 149.570709 
L 334.407852 145.431094 
L 335.264592 144.721683 
L 336.121332 144.522215 
L 336.978072 145.254871 
L 337.834812 144.751187 
L 339.548291 144.184994 
L 340.405031 145.326758 
L 341.261771 139.931175 
L 342.118511 139.304139 
L 342.97525 139.832514 
L 343.83199 140.070306 
L 344.68873 140.001385 
L 345.54547 139.544384 
L 346.40221 139.530443 
L 347.25895 140.124726 
L 348.115689 134.454372 
L 348.972429 134.740571 
L 349.829169 134.822881 
L 350.685909 135.017561 
L 351.542649 134.718203 
L 352.399389 134.792991 
L 353.256128 134.685404 
L 354.112868 134.905945 
L 354.969608 129.830952 
L 355.826348 130.288698 
L 357.539828 129.805647 
L 358.396567 130.022129 
L 360.110047 129.83619 
L 360.966787 130.239734 
L 361.823527 125.674071 
L 362.680267 124.933421 
L 363.537006 124.389625 
L 364.393746 125.622505 
L 365.250486 124.660504 
L 366.107226 124.770061 
L 366.963966 125.857558 
L 367.820706 125.161799 
L 368.677445 120.69081 
L 369.534185 120.924945 
L 370.390925 120.577137 
L 371.247665 120.933851 
L 372.104405 120.480463 
L 372.961145 120.91497 
L 373.817884 120.451615 
L 374.674624 120.909026 
L 375.531364 115.612022 
L 376.388104 115.601933 
L 377.244844 116.394796 
L 378.101584 116.182841 
L 378.958323 115.766417 
L 379.815063 116.011562 
L 380.671803 115.235535 
L 381.528543 115.362393 
L 382.385283 110.889471 
L 383.242023 111.504263 
L 384.098762 110.576506 
L 384.955502 110.892461 
L 385.812242 110.70917 
L 386.668982 110.821824 
L 388.382462 111.247843 
L 389.239201 105.918302 
L 390.095941 106.323668 
L 390.952681 106.478769 
L 393.522901 106.440989 
L 394.37964 106.426483 
L 395.23638 107.338745 
L 396.09312 102.214717 
L 396.94986 102.449553 
L 397.8066 101.759258 
L 398.66334 102.6189 
L 399.520079 102.352021 
L 400.376819 102.790949 
L 401.233559 102.060162 
L 402.090299 102.370709 
L 402.947039 97.631041 
L 403.803779 97.591191 
L 404.660518 97.203736 
L 405.517258 97.737 
L 406.373998 97.401932 
L 407.230738 97.658296 
L 408.087478 97.738726 
L 408.944218 97.485444 
L 409.800957 93.139682 
L 410.657697 92.797343 
L 413.227917 92.647708 
L 414.084656 92.939975 
L 414.941396 92.951226 
L 415.798136 93.091213 
L 416.654876 88.326536 
L 417.511616 88.082686 
L 418.368356 88.435146 
L 419.225095 88.056127 
L 420.081835 88.46576 
L 420.938575 87.807552 
L 421.795315 88.166086 
L 422.652055 88.196199 
L 423.508795 82.806055 
L 424.365534 83.579272 
L 425.222274 83.129684 
L 426.079014 83.394802 
L 426.935754 83.170261 
L 427.792494 83.271078 
L 428.649234 82.576927 
L 429.505973 82.720604 
L 430.362713 79.008074 
L 431.219453 79.095668 
L 432.076193 79.066891 
L 433.789673 78.591117 
L 434.646412 79.283972 
L 435.503152 78.477688 
L 436.359892 78.810197 
L 437.216632 74.025398 
L 438.930112 74.300125 
L 439.786851 73.973128 
L 440.643591 74.372331 
L 441.500331 73.597492 
L 443.213811 73.431412 
L 444.070551 68.983823 
L 444.92729 69.389597 
L 445.78403 68.838568 
L 446.64077 68.976979 
L 447.49751 68.350948 
L 448.35425 68.523286 
L 449.21099 69.025857 
L 450.067729 69.276737 
L 450.924469 64.159401 
L 451.781209 64.160295 
L 452.637949 63.782291 
L 454.351429 63.821267 
L 455.208168 64.432108 
L 456.064908 64.519537 
L 456.921648 64.726661 
L 457.778388 59.028021 
L 458.635128 59.520328 
L 459.491868 59.645254 
L 460.348607 59.885579 
L 462.918827 59.535721 
L 463.775567 60.227639 
L 464.632307 54.8681 
L 465.489046 55.293828 
L 466.345786 53.9907 
L 467.202526 54.662921 
L 468.059266 54.842479 
L 468.916006 54.829498 
L 469.772746 55.47112 
L 470.629485 54.458609 
L 471.486225 50.05732 
L 472.342965 50.0435 
L 473.199705 50.558773 
L 474.913185 50.025723 
L 475.769924 50.280442 
L 476.626664 49.895345 
L 477.483404 49.695548 
L 478.340144 45.182886 
L 479.196884 45.915601 
L 480.053624 46.474073 
L 480.910363 45.317334 
L 481.767103 45.256581 
L 482.623843 45.433751 
L 483.480583 45.169152 
L 484.337323 45.422188 
L 485.194062 41.047273 
L 485.194062 41.047273 
" clip-path="url(#p4213fb1e77)" style="fill: none; stroke: #1f77b4; stroke-linecap: square"/>
   </g>
   <g id="line2d_30">
    <path d="M 53.397188 321.433673 
L 54.253927 332.888216 
L 55.110667 333.66112 
L 55.967407 334.217671 
L 56.824147 334.351312 
L 58.537626 333.771932 
L 59.394366 333.66112 
L 60.251106 333.89909 
L 61.107846 333.715334 
L 61.964586 333.399083 
L 62.821326 333.507914 
L 63.678065 332.723835 
L 66.248285 331.815108 
L 67.105025 331.86822 
L 67.961765 330.744382 
L 68.818504 330.275603 
L 69.675244 330.041571 
L 70.531984 329.536799 
L 71.388724 328.272317 
L 72.245464 327.821249 
L 74.815683 327.59188 
L 75.672423 326.902342 
L 76.529163 326.668645 
L 77.385903 325.832227 
L 78.242643 325.399444 
L 79.099382 324.67831 
L 79.956122 324.386597 
L 80.812862 323.876973 
L 81.669602 323.544273 
L 82.526342 322.936486 
L 83.383082 322.677502 
L 84.239821 321.713275 
L 85.096561 321.501788 
L 85.953301 320.791349 
L 87.666781 320.020535 
L 88.523521 319.463398 
L 89.38026 318.624113 
L 90.237 318.478453 
L 91.09374 317.620215 
L 91.95048 317.372703 
L 92.80722 316.631214 
L 93.66396 316.372772 
L 95.377439 315.238518 
L 96.234179 314.257806 
L 97.090919 314.367415 
L 97.947659 313.427656 
L 98.804399 313.239974 
L 99.661138 312.359476 
L 100.517878 312.055365 
L 101.374618 311.318309 
L 102.231358 310.95777 
L 103.088098 310.151314 
L 103.944838 309.936285 
L 104.801577 309.065232 
L 105.658317 308.854044 
L 106.515057 307.967038 
L 107.371797 307.677707 
L 109.942016 305.778542 
L 110.798756 305.593319 
L 111.655496 304.655174 
L 112.512236 304.510203 
L 113.368976 303.434364 
L 114.225716 303.029261 
L 115.082455 302.408045 
L 115.939195 301.37741 
L 116.795935 300.687994 
L 117.652675 300.26918 
L 118.509415 299.704198 
L 119.366155 299.644365 
L 120.222894 298.68445 
L 121.079634 298.565571 
L 121.936374 298.061978 
L 122.793114 297.730659 
L 123.649854 296.979474 
L 124.506594 296.783277 
L 125.363333 295.831617 
L 126.220073 295.665435 
L 127.076813 294.782073 
L 128.790293 293.905062 
L 130.503772 292.305952 
L 131.360512 292.043704 
L 132.217252 291.395315 
L 133.073992 286.708545 
L 133.930732 290.250339 
L 134.787471 289.487223 
L 135.644211 289.242231 
L 137.357691 288.12876 
L 138.214431 287.721124 
L 139.071171 286.937596 
L 139.92791 286.683426 
L 141.64139 284.869905 
L 143.35487 284.444572 
L 145.068349 282.528539 
L 146.781829 282.071156 
L 148.495309 280.450587 
L 149.352049 280.066125 
L 150.208788 279.866723 
L 151.065528 279.078879 
L 151.922268 278.877522 
L 152.779008 277.980376 
L 154.492488 276.734873 
L 155.349227 275.824072 
L 156.205967 275.85524 
L 157.062707 275.483762 
L 158.776187 273.849577 
L 159.632927 273.413748 
L 160.489666 272.791634 
L 161.346406 272.027241 
L 162.203146 271.437125 
L 163.059886 271.209246 
L 163.916626 270.59186 
L 164.773366 269.674574 
L 168.200325 267.869136 
L 169.057065 267.045542 
L 169.913805 266.541673 
L 170.770544 266.255428 
L 171.627284 265.455382 
L 172.484024 265.11659 
L 173.340764 264.469741 
L 174.197504 264.156805 
L 175.910983 262.482555 
L 177.624463 262.085461 
L 178.481203 260.869319 
L 179.337943 260.545583 
L 180.194683 259.693744 
L 181.908162 258.948731 
L 183.621642 257.311124 
L 184.478382 257.70694 
L 185.335122 256.219284 
L 186.191861 255.984227 
L 187.048601 254.927884 
L 187.905341 255.37278 
L 188.762081 254.111769 
L 189.618821 253.319354 
L 190.475561 252.839219 
L 191.3323 253.220674 
L 192.18904 252.079268 
L 193.04578 251.418485 
L 193.90252 250.915469 
L 194.75926 250.078736 
L 195.616 249.826001 
L 196.472739 248.75412 
L 197.329479 248.378972 
L 198.186219 248.204799 
L 199.899699 246.709157 
L 201.613178 245.681804 
L 202.469918 244.992195 
L 203.326658 244.582334 
L 204.183398 243.910049 
L 205.040138 243.715942 
L 205.896877 242.595125 
L 206.753617 242.664249 
L 207.610357 241.648127 
L 208.467097 241.730136 
L 209.323837 240.687155 
L 210.180577 240.021037 
L 211.037316 238.937438 
L 211.894056 238.946765 
L 212.750796 237.783141 
L 213.607536 238.027767 
L 214.464276 237.001773 
L 215.321016 236.945162 
L 216.177755 236.014298 
L 217.891235 234.818247 
L 218.747975 234.627871 
L 220.461455 233.927234 
L 221.318194 233.267605 
L 222.174934 232.871345 
L 223.031674 231.736976 
L 223.888414 231.07452 
L 224.745154 229.938845 
L 225.601894 229.988618 
L 226.458633 229.483658 
L 227.315373 229.248034 
L 228.172113 227.880477 
L 229.028853 228.057139 
L 230.742333 226.093028 
L 231.599072 225.588852 
L 232.455812 225.866891 
L 233.312552 224.496623 
L 234.169292 224.738072 
L 235.026032 223.38852 
L 235.882772 222.971488 
L 236.739511 222.72249 
L 238.452991 220.574849 
L 239.309731 221.156932 
L 240.166471 220.164726 
L 241.023211 219.98465 
L 241.87995 219.133777 
L 242.73669 218.756814 
L 243.59343 217.789307 
L 244.45017 217.676341 
L 245.30691 216.843348 
L 246.16365 216.618624 
L 247.020389 215.54001 
L 247.877129 215.684944 
L 248.733869 214.495112 
L 249.590609 214.143759 
L 250.447349 213.272225 
L 251.304089 212.699472 
L 253.017568 211.94174 
L 253.874308 211.160918 
L 254.731048 210.859764 
L 255.587788 209.879978 
L 256.444528 209.623022 
L 258.158007 208.264989 
L 259.871487 207.448641 
L 260.728227 206.796855 
L 261.584967 206.408956 
L 263.298446 205.252686 
L 265.011926 203.844463 
L 265.868666 203.198817 
L 266.725406 203.084114 
L 267.582145 202.033832 
L 268.438885 201.844648 
L 269.295625 200.708567 
L 270.152365 200.20906 
L 271.009105 199.094262 
L 271.865844 198.801792 
L 272.722584 199.508076 
L 274.436064 197.254408 
L 275.292804 197.34901 
L 276.149544 196.520217 
L 277.006283 196.026486 
L 277.863023 194.790615 
L 278.719763 194.845361 
L 279.576503 194.181547 
L 280.433243 193.819026 
L 281.289983 192.002347 
L 282.146722 192.845608 
L 283.003462 191.863143 
L 283.860202 191.717475 
L 284.716942 190.579773 
L 285.573682 190.76082 
L 286.430422 189.541127 
L 287.287161 189.264286 
L 288.143901 188.460129 
L 289.000641 188.137783 
L 289.857381 187.227837 
L 290.714121 186.89598 
L 291.570861 186.215465 
L 292.4276 185.811781 
L 294.14108 184.040194 
L 294.99782 184.052495 
L 295.85456 183.594293 
L 296.7113 182.595015 
L 297.568039 182.438547 
L 299.281519 181.400398 
L 300.138259 179.816701 
L 300.994999 180.430571 
L 301.851739 179.367216 
L 302.708478 179.276988 
L 303.565218 178.432876 
L 304.421958 178.378009 
L 305.278698 177.16161 
L 306.135438 177.046956 
L 306.992178 175.888757 
L 307.848917 174.138922 
L 308.705657 174.553906 
L 309.562397 174.653479 
L 310.419137 173.094964 
L 311.275877 173.940234 
L 312.132617 172.342753 
L 312.989356 172.554894 
L 313.846096 171.143519 
L 314.702836 171.448272 
L 315.559576 170.320815 
L 316.416316 170.49372 
L 317.273056 168.85031 
L 318.129795 169.236925 
L 318.986535 168.240239 
L 319.843275 167.977651 
L 320.700015 166.549204 
L 321.556755 166.720429 
L 322.413495 166.022977 
L 323.270234 165.978248 
L 324.983714 164.657376 
L 325.840454 163.61918 
L 326.697194 163.461958 
L 327.553934 161.944992 
L 328.410673 161.4034 
L 329.267413 160.549091 
L 330.124153 160.456906 
L 330.980893 160.701101 
L 331.837633 159.572188 
L 332.694373 159.192331 
L 333.551112 158.612823 
L 334.407852 157.509886 
L 335.264592 157.680622 
L 336.121332 156.739532 
L 336.978072 156.8857 
L 337.834812 155.703368 
L 338.691551 155.177858 
L 339.548291 153.750628 
L 341.261771 153.763744 
L 342.97525 152.191435 
L 343.83199 152.332137 
L 344.68873 151.21182 
L 345.54547 151.094742 
L 346.40221 149.433281 
L 347.25895 150.370226 
L 348.115689 148.75006 
L 348.972429 148.70815 
L 349.829169 147.914578 
L 350.685909 147.445948 
L 352.399389 145.926698 
L 353.256128 145.642399 
L 354.112868 145.159588 
L 354.969608 143.441737 
L 355.826348 143.477727 
L 356.683088 142.690681 
L 357.539828 142.887428 
L 358.396567 142.021834 
L 359.253307 141.346477 
L 360.110047 140.831768 
L 360.966787 140.081347 
L 361.823527 139.655374 
L 362.680267 138.932156 
L 363.537006 138.530865 
L 364.393746 138.549052 
L 365.250486 136.972826 
L 366.107226 138.627453 
L 366.963966 136.083708 
L 367.820706 135.928124 
L 368.677445 134.256239 
L 369.534185 134.982044 
L 370.390925 133.082982 
L 371.247665 133.237464 
L 372.104405 132.223656 
L 372.961145 132.760879 
L 373.817884 131.430262 
L 374.674624 131.595068 
L 375.531364 129.948337 
L 376.388104 129.255421 
L 378.958323 128.581033 
L 379.815063 128.540925 
L 380.671803 126.930354 
L 381.528543 126.620827 
L 382.385283 125.465992 
L 383.242023 125.514336 
L 384.955502 124.745603 
L 385.812242 124.025466 
L 386.668982 124.134044 
L 387.525722 122.237325 
L 388.382462 122.03163 
L 389.239201 121.362751 
L 390.095941 120.899331 
L 390.952681 119.952298 
L 391.809421 119.424981 
L 392.666161 119.133669 
L 393.522901 119.390266 
L 394.37964 117.877054 
L 396.09312 116.977681 
L 396.94986 115.849152 
L 398.66334 115.073311 
L 399.520079 114.247268 
L 400.376819 114.311044 
L 401.233559 113.157557 
L 402.090299 113.340873 
L 402.947039 111.547457 
L 403.803779 112.217995 
L 404.660518 111.318902 
L 405.517258 110.935042 
L 406.373998 109.516233 
L 407.230738 109.608905 
L 408.944218 108.411349 
L 409.800957 107.09312 
L 410.657697 107.098334 
L 411.514437 106.292412 
L 412.371177 106.869456 
L 413.227917 105.844945 
L 414.941396 104.892035 
L 415.798136 103.738699 
L 416.654876 101.671539 
L 418.368356 102.123721 
L 419.225095 101.938817 
L 420.081835 101.27278 
L 420.938575 99.864139 
L 421.795315 99.754309 
L 422.652055 99.031587 
L 423.508795 97.274682 
L 424.365534 98.553216 
L 425.222274 97.566809 
L 426.079014 96.901019 
L 426.935754 95.962178 
L 427.792494 95.92718 
L 428.649234 95.289649 
L 429.505973 94.919978 
L 430.362713 93.255521 
L 431.219453 94.177497 
L 432.076193 92.404298 
L 432.932933 92.049205 
L 433.789673 92.72263 
L 434.646412 92.504697 
L 435.503152 90.750714 
L 436.359892 90.340509 
L 437.216632 88.845665 
L 438.073372 89.400192 
L 438.930112 88.900287 
L 439.786851 89.103615 
L 440.643591 87.494407 
L 441.500331 87.448505 
L 442.357071 86.267738 
L 444.070551 84.617982 
L 444.92729 84.187142 
L 445.78403 82.909853 
L 446.64077 83.913193 
L 447.49751 82.322445 
L 448.35425 82.050004 
L 449.21099 80.565108 
L 450.067729 81.6345 
L 450.924469 79.578274 
L 451.781209 79.921019 
L 452.637949 79.613363 
L 453.494689 79.514598 
L 454.351429 78.19064 
L 455.208168 77.84374 
L 456.064908 76.714738 
L 456.921648 75.829178 
L 457.778388 74.145559 
L 458.635128 74.99655 
L 459.491868 73.854012 
L 460.348607 74.509971 
L 461.205347 73.145902 
L 462.062087 73.434185 
L 462.918827 72.016117 
L 463.775567 71.743353 
L 464.632307 70.677291 
L 465.489046 70.874154 
L 466.345786 70.380575 
L 467.202526 69.758248 
L 468.059266 68.601688 
L 468.916006 67.965234 
L 469.772746 68.1485 
L 470.629485 67.299181 
L 471.486225 65.908787 
L 472.342965 66.315097 
L 473.199705 66.115327 
L 474.056445 65.439274 
L 474.913185 64.447688 
L 475.769924 64.862035 
L 476.626664 63.096185 
L 477.483404 62.696365 
L 478.340144 61.478544 
L 479.196884 61.761089 
L 480.053624 60.887142 
L 480.910363 60.752375 
L 481.767103 59.36445 
L 482.623843 59.589281 
L 483.480583 58.134545 
L 484.337323 58.326504 
L 485.194062 57.535198 
L 485.194062 57.535198 
" clip-path="url(#p4213fb1e77)" style="fill: none; stroke: #2ca02c; stroke-linecap: square"/>
   </g>
   <g id="patch_3">
    <path d="M 44.76125 353.68 
L 44.76125 26.16 
" style="fill: none; stroke: #000000; stroke-width: 0.8; stroke-linejoin: miter; stroke-linecap: square"/>
   </g>
   <g id="patch_4">
    <path d="M 493.83 353.68 
L 493.83 26.16 
" style="fill: none; stroke: #000000; stroke-width: 0.8; stroke-linejoin: miter; stroke-linecap: square"/>
   </g>
   <g id="patch_5">
    <path d="M 44.76125 353.68 
L 493.83 353.68 
" style="fill: none; stroke: #000000; stroke-width: 0.8; stroke-linejoin: miter; stroke-linecap: square"/>
   </g>
   <g id="patch_6">
    <path d="M 44.76125 26.16 
L 493.83 26.16 
" style="fill: none; stroke: #000000; stroke-width: 0.8; stroke-linejoin: miter; stroke-linecap: square"/>
   </g>
   <g id="text_17">
    <!-- matched ~n² work: ns per n-limb -->
    <g transform="translate(169.659062 20.16) scale(0.12 -0.12)">
     <defs>
      <path id="DejaVuSans-74" d="M 1172 4494 
L 1172 3500 
L 2356 3500 
L 2356 3053 
L 1172 3053 
L 1172 1153 
Q 1172 725 1289 603 
Q 1406 481 1766 481 
L 2356 481 
L 2356 0 
L 1766 0 
Q 1100 0 847 248 
Q 594 497 594 1153 
L 594 3053 
L 172 3053 
L 172 3500 
L 594 3500 
L 594 4494 
L 1172 4494 
z
" transform="scale(0.015625)"/>
      <path id="DejaVuSans-63" d="M 3122 3366 
L 3122 2828 
Q 2878 2963 2633 3030 
Q 2388 3097 2138 3097 
Q 1578 3097 1268 2742 
Q 959 2388 959 1747 
Q 959 1106 1268 751 
Q 1578 397 2138 397 
Q 2388 397 2633 464 
Q 2878 531 3122 666 
L 3122 134 
Q 2881 22 2623 -34 
Q 2366 -91 2075 -91 
Q 1284 -91 818 406 
Q 353 903 353 1747 
Q 353 2603 823 3093 
Q 1294 3584 2113 3584 
Q 2378 3584 2631 3529 
Q 2884 3475 3122 3366 
z
" transform="scale(0.015625)"/>
      <path id="DejaVuSans-68" d="M 3513 2113 
L 3513 0 
L 2938 0 
L 2938 2094 
Q 2938 2591 2744 2837 
Q 2550 3084 2163 3084 
Q 1697 3084 1428 2787 
Q 1159 2491 1159 1978 
L 1159 0 
L 581 0 
L 581 4863 
L 1159 4863 
L 1159 2956 
Q 1366 3272 1645 3428 
Q 1925 3584 2291 3584 
Q 2894 3584 3203 3211 
Q 3513 2838 3513 2113 
z
" transform="scale(0.015625)"/>
      <path id="DejaVuSans-65" d="M 3597 1894 
L 3597 1613 
L 953 1613 
Q 991 1019 1311 708 
Q 1631 397 2203 397 
Q 2534 397 2845 478 
Q 3156 559 3463 722 
L 3463 178 
Q 3153 47 2828 -22 
Q 2503 -91 2169 -91 
Q 1331 -91 842 396 
Q 353 884 353 1716 
Q 353 2575 817 3079 
Q 1281 3584 2069 3584 
Q 2775 3584 3186 3129 
Q 3597 2675 3597 1894 
z
M 3022 2063 
Q 3016 2534 2758 2815 
Q 2500 3097 2075 3097 
Q 1594 3097 1305 2825 
Q 1016 2553 972 2059 
L 3022 2063 
z
" transform="scale(0.015625)"/>
      <path id="DejaVuSans-7e" d="M 4684 2553 
L 4684 1997 
Q 4356 1750 4076 1644 
Q 3797 1538 3494 1538 
Q 3150 1538 2694 1722 
Q 2659 1734 2644 1741 
Q 2622 1750 2575 1766 
Q 2091 1959 1797 1959 
Q 1522 1959 1253 1839 
Q 984 1719 678 1459 
L 678 2016 
Q 1006 2263 1286 2370 
Q 1566 2478 1869 2478 
Q 2213 2478 2672 2291 
Q 2703 2278 2719 2272 
Q 2744 2263 2788 2247 
Q 3272 2053 3566 2053 
Q 3834 2053 4098 2172 
Q 4363 2291 4684 2553 
z
" transform="scale(0.015625)"/>
      <path id="DejaVuSans-b2" d="M 838 2444 
L 2163 2444 
L 2163 2088 
L 294 2088 
L 294 2431 
Q 400 2528 597 2703 
Q 1672 3656 1672 3950 
Q 1672 4156 1509 4282 
Q 1347 4409 1081 4409 
Q 919 4409 728 4354 
Q 538 4300 313 4191 
L 313 4575 
Q 553 4663 761 4706 
Q 969 4750 1147 4750 
Q 1600 4750 1872 4544 
Q 2144 4338 2144 4000 
Q 2144 3566 1109 2678 
Q 934 2528 838 2444 
z
" transform="scale(0.015625)"/>
      <path id="DejaVuSans-77" d="M 269 3500 
L 844 3500 
L 1563 769 
L 2278 3500 
L 2956 3500 
L 3675 769 
L 4391 3500 
L 4966 3500 
L 4050 0 
L 3372 0 
L 2619 2869 
L 1863 0 
L 1184 0 
L 269 3500 
z
" transform="scale(0.015625)"/>
      <path id="DejaVuSans-6f" d="M 1959 3097 
Q 1497 3097 1228 2736 
Q 959 2375 959 1747 
Q 959 1119 1226 758 
Q 1494 397 1959 397 
Q 2419 397 2687 759 
Q 2956 1122 2956 1747 
Q 2956 2369 2687 2733 
Q 2419 3097 1959 3097 
z
M 1959 3584 
Q 2709 3584 3137 3096 
Q 3566 2609 3566 1747 
Q 3566 888 3137 398 
Q 2709 -91 1959 -91 
Q 1206 -91 779 398 
Q 353 888 353 1747 
Q 353 2609 779 3096 
Q 1206 3584 1959 3584 
z
" transform="scale(0.015625)"/>
      <path id="DejaVuSans-72" d="M 2631 2963 
Q 2534 3019 2420 3045 
Q 2306 3072 2169 3072 
Q 1681 3072 1420 2755 
Q 1159 2438 1159 1844 
L 1159 0 
L 581 0 
L 581 3500 
L 1159 3500 
L 1159 2956 
Q 1341 3275 1631 3429 
Q 1922 3584 2338 3584 
Q 2397 3584 2469 3576 
Q 2541 3569 2628 3553 
L 2631 2963 
z
" transform="scale(0.015625)"/>
      <path id="DejaVuSans-6b" d="M 581 4863 
L 1159 4863 
L 1159 1991 
L 2875 3500 
L 3609 3500 
L 1753 1863 
L 3688 0 
L 2938 0 
L 1159 1709 
L 1159 0 
L 581 0 
L 581 4863 
z
" transform="scale(0.015625)"/>
      <path id="DejaVuSans-70" d="M 1159 525 
L 1159 -1331 
L 581 -1331 
L 581 3500 
L 1159 3500 
L 1159 2969 
Q 1341 3281 1617 3432 
Q 1894 3584 2278 3584 
Q 2916 3584 3314 3078 
Q 3713 2572 3713 1747 
Q 3713 922 3314 415 
Q 2916 -91 2278 -91 
Q 1894 -91 1617 61 
Q 1341 213 1159 525 
z
M 3116 1747 
Q 3116 2381 2855 2742 
Q 2594 3103 2138 3103 
Q 1681 3103 1420 2742 
Q 1159 2381 1159 1747 
Q 1159 1113 1420 752 
Q 1681 391 2138 391 
Q 2594 391 2855 752 
Q 3116 1113 3116 1747 
z
" transform="scale(0.015625)"/>
      <path id="DejaVuSans-2d" d="M 313 2009 
L 1997 2009 
L 1997 1497 
L 313 1497 
L 313 2009 
z
" transform="scale(0.015625)"/>
     </defs>
     <use xlink:href="#DejaVuSans-6d"/>
     <use xlink:href="#DejaVuSans-61" transform="translate(97.412109 0)"/>
     <use xlink:href="#DejaVuSans-74" transform="translate(158.691406 0)"/>
     <use xlink:href="#DejaVuSans-63" transform="translate(197.900391 0)"/>
     <use xlink:href="#DejaVuSans-68" transform="translate(252.880859 0)"/>
     <use xlink:href="#DejaVuSans-65" transform="translate(316.259766 0)"/>
     <use xlink:href="#DejaVuSans-64" transform="translate(377.783203 0)"/>
     <use xlink:href="#DejaVuSans-20" transform="translate(441.259766 0)"/>
     <use xlink:href="#DejaVuSans-7e" transform="translate(473.046875 0)"/>
     <use xlink:href="#DejaVuSans-6e" transform="translate(556.835938 0)"/>
     <use xlink:href="#DejaVuSans-b2" transform="translate(620.214844 0)"/>
     <use xlink:href="#DejaVuSans-20" transform="translate(660.302734 0)"/>
     <use xlink:href="#DejaVuSans-77" transform="translate(692.089844 0)"/>
     <use xlink:href="#DejaVuSans-6f" transform="translate(773.876953 0)"/>
     <use xlink:href="#DejaVuSans-72" transform="translate(835.058594 0)"/>
     <use xlink:href="#DejaVuSans-6b" transform="translate(876.171875 0)"/>
     <use xlink:href="#DejaVuSans-3a" transform="translate(934.082031 0)"/>
     <use xlink:href="#DejaVuSans-20" transform="translate(967.773438 0)"/>
     <use xlink:href="#DejaVuSans-6e" transform="translate(999.560547 0)"/>
     <use xlink:href="#DejaVuSans-73" transform="translate(1062.939453 0)"/>
     <use xlink:href="#DejaVuSans-20" transform="translate(1115.039062 0)"/>
     <use xlink:href="#DejaVuSans-70" transform="translate(1146.826172 0)"/>
     <use xlink:href="#DejaVuSans-65" transform="translate(1210.302734 0)"/>
     <use xlink:href="#DejaVuSans-72" transform="translate(1271.826172 0)"/>
     <use xlink:href="#DejaVuSans-20" transform="translate(1312.939453 0)"/>
     <use xlink:href="#DejaVuSans-6e" transform="translate(1344.726562 0)"/>
     <use xlink:href="#DejaVuSans-2d" transform="translate(1408.105469 0)"/>
     <use xlink:href="#DejaVuSans-6c" transform="translate(1444.189453 0)"/>
     <use xlink:href="#DejaVuSans-69" transform="translate(1471.972656 0)"/>
     <use xlink:href="#DejaVuSans-6d" transform="translate(1499.755859 0)"/>
     <use xlink:href="#DejaVuSans-62" transform="translate(1597.167969 0)"/>
    </g>
   </g>
   <g id="legend_1">
    <g id="patch_7">
     <path d="M 51.06125 60.28125 
L 246.172813 60.28125 
Q 247.972813 60.28125 247.972813 58.48125 
L 247.972813 32.46 
Q 247.972813 30.66 246.172813 30.66 
L 51.06125 30.66 
Q 49.26125 30.66 49.26125 32.46 
L 49.26125 58.48125 
Q 49.26125 60.28125 51.06125 60.28125 
z
" style="fill: #ffffff; opacity: 0.8; stroke: #cccccc; stroke-linejoin: miter"/>
    </g>
    <g id="line2d_31">
     <path d="M 52.86125 37.948594 
L 61.86125 37.948594 
L 70.86125 37.948594 
" style="fill: none; stroke: #1f77b4; stroke-linecap: square"/>
    </g>
    <g id="text_18">
     <!-- midmul_basecase_simple  (bn=2·an) -->
     <g transform="translate(78.06125 41.098594) scale(0.09 -0.09)">
      <defs>
       <path id="DejaVuSans-b7" d="M 684 2619 
L 1344 2619 
L 1344 1825 
L 684 1825 
L 684 2619 
z
" transform="scale(0.015625)"/>
      </defs>
      <use xlink:href="#DejaVuSans-6d"/>
      <use xlink:href="#DejaVuSans-69" transform="translate(97.412109 0)"/>
      <use xlink:href="#DejaVuSans-64" transform="translate(125.195312 0)"/>
      <use xlink:href="#DejaVuSans-6d" transform="translate(188.671875 0)"/>
      <use xlink:href="#DejaVuSans-75" transform="translate(286.083984 0)"/>
      <use xlink:href="#DejaVuSans-6c" transform="translate(349.462891 0)"/>
      <use xlink:href="#DejaVuSans-5f" transform="translate(377.246094 0)"/>
      <use xlink:href="#DejaVuSans-62" transform="translate(427.246094 0)"/>
      <use xlink:href="#DejaVuSans-61" transform="translate(490.722656 0)"/>
      <use xlink:href="#DejaVuSans-73" transform="translate(552.001953 0)"/>
      <use xlink:href="#DejaVuSans-65" transform="translate(604.101562 0)"/>
      <use xlink:href="#DejaVuSans-63" transform="translate(665.625 0)"/>
      <use xlink:href="#DejaVuSans-61" transform="translate(720.605469 0)"/>
      <use xlink:href="#DejaVuSans-73" transform="translate(781.884766 0)"/>
      <use xlink:href="#DejaVuSans-65" transform="translate(833.984375 0)"/>
      <use xlink:href="#DejaVuSans-5f" transform="translate(895.507812 0)"/>
      <use xlink:href="#DejaVuSans-73" transform="translate(945.507812 0)"/>
      <use xlink:href="#DejaVuSans-69" transform="translate(997.607422 0)"/>
      <use xlink:href="#DejaVuSans-6d" transform="translate(1025.390625 0)"/>
      <use xlink:href="#DejaVuSans-70" transform="translate(1122.802734 0)"/>
      <use xlink:href="#DejaVuSans-6c" transform="translate(1186.279297 0)"/>
      <use xlink:href="#DejaVuSans-65" transform="translate(1214.0625 0)"/>
      <use xlink:href="#DejaVuSans-20" transform="translate(1275.585938 0)"/>
      <use xlink:href="#DejaVuSans-20" transform="translate(1307.373047 0)"/>
      <use xlink:href="#DejaVuSans-28" transform="translate(1339.160156 0)"/>
      <use xlink:href="#DejaVuSans-62" transform="translate(1378.173828 0)"/>
      <use xlink:href="#DejaVuSans-6e" transform="translate(1441.650391 0)"/>
      <use xlink:href="#DejaVuSans-3d" transform="translate(1505.029297 0)"/>
      <use xlink:href="#DejaVuSans-32" transform="translate(1588.818359 0)"/>
      <use xlink:href="#DejaVuSans-b7" transform="translate(1652.441406 0)"/>
      <use xlink:href="#DejaVuSans-61" transform="translate(1684.228516 0)"/>
      <use xlink:href="#DejaVuSans-6e" transform="translate(1745.507812 0)"/>
      <use xlink:href="#DejaVuSans-29" transform="translate(1808.886719 0)"/>
     </g>
    </g>
    <g id="line2d_32">
     <path d="M 52.86125 51.409219 
L 61.86125 51.409219 
L 70.86125 51.409219 
" style="fill: none; stroke: #2ca02c; stroke-linecap: square"/>
    </g>
    <g id="text_19">
     <!-- mul_u52_basecase  (an=bn) -->
     <g transform="translate(78.06125 54.559219) scale(0.09 -0.09)">
      <use xlink:href="#DejaVuSans-6d"/>
      <use xlink:href="#DejaVuSans-75" transform="translate(97.412109 0)"/>
      <use xlink:href="#DejaVuSans-6c" transform="translate(160.791016 0)"/>
      <use xlink:href="#DejaVuSans-5f" transform="translate(188.574219 0)"/>
      <use xlink:href="#DejaVuSans-75" transform="translate(238.574219 0)"/>
      <use xlink:href="#DejaVuSans-35" transform="translate(301.953125 0)"/>
      <use xlink:href="#DejaVuSans-32" transform="translate(365.576172 0)"/>
      <use xlink:href="#DejaVuSans-5f" transform="translate(429.199219 0)"/>
      <use xlink:href="#DejaVuSans-62" transform="translate(479.199219 0)"/>
      <use xlink:href="#DejaVuSans-61" transform="translate(542.675781 0)"/>
      <use xlink:href="#DejaVuSans-73" transform="translate(603.955078 0)"/>
      <use xlink:href="#DejaVuSans-65" transform="translate(656.054688 0)"/>
      <use xlink:href="#DejaVuSans-63" transform="translate(717.578125 0)"/>
      <use xlink:href="#DejaVuSans-61" transform="translate(772.558594 0)"/>
      <use xlink:href="#DejaVuSans-73" transform="translate(833.837891 0)"/>
      <use xlink:href="#DejaVuSans-65" transform="translate(885.9375 0)"/>
      <use xlink:href="#DejaVuSans-20" transform="translate(947.460938 0)"/>
      <use xlink:href="#DejaVuSans-20" transform="translate(979.248047 0)"/>
      <use xlink:href="#DejaVuSans-28" transform="translate(1011.035156 0)"/>
      <use xlink:href="#DejaVuSans-61" transform="translate(1050.048828 0)"/>
      <use xlink:href="#DejaVuSans-6e" transform="translate(1111.328125 0)"/>
      <use xlink:href="#DejaVuSans-3d" transform="translate(1174.707031 0)"/>
      <use xlink:href="#DejaVuSans-62" transform="translate(1258.496094 0)"/>
      <use xlink:href="#DejaVuSans-6e" transform="translate(1321.972656 0)"/>
      <use xlink:href="#DejaVuSans-29" transform="translate(1385.351562 0)"/>
     </g>
    </g>
   </g>
  </g>
  <g id="axes_2">
   <g id="patch_8">
    <path d="M 548.13125 353.68 
L 997.2 353.68 
L 997.2 26.16 
L 548.13125 26.16 
z
" style="fill: #ffffff"/>
   </g>
   <g id="matplotlib.axis_3">
    <g id="xtick_7">
     <g id="line2d_33">
      <path d="M 549.913269 353.68 
L 549.913269 26.16 
" clip-path="url(#p4fabc59795)" style="fill: none; stroke: #b0b0b0; stroke-opacity: 0.3; stroke-width: 0.8; stroke-linecap: square"/>
     </g>
     <g id="line2d_34">
      <g>
       <use xlink:href="#m3617a80577" x="549.913269" y="353.68" style="stroke: #000000; stroke-width: 0.8"/>
      </g>
     </g>
     <g id="text_20">
      <!-- 0 -->
      <g transform="translate(546.732019 368.278437) scale(0.1 -0.1)">
       <use xlink:href="#DejaVuSans-30"/>
      </g>
     </g>
    </g>
    <g id="xtick_8">
     <g id="line2d_35">
      <path d="M 635.587252 353.68 
L 635.587252 26.16 
" clip-path="url(#p4fabc59795)" style="fill: none; stroke: #b0b0b0; stroke-opacity: 0.3; stroke-width: 0.8; stroke-linecap: square"/>
     </g>
     <g id="line2d_36">
      <g>
       <use xlink:href="#m3617a80577" x="635.587252" y="353.68" style="stroke: #000000; stroke-width: 0.8"/>
      </g>
     </g>
     <g id="text_21">
      <!-- 100 -->
      <g transform="translate(626.043502 368.278437) scale(0.1 -0.1)">
       <use xlink:href="#DejaVuSans-31"/>
       <use xlink:href="#DejaVuSans-30" transform="translate(63.623047 0)"/>
       <use xlink:href="#DejaVuSans-30" transform="translate(127.246094 0)"/>
      </g>
     </g>
    </g>
    <g id="xtick_9">
     <g id="line2d_37">
      <path d="M 721.261235 353.68 
L 721.261235 26.16 
" clip-path="url(#p4fabc59795)" style="fill: none; stroke: #b0b0b0; stroke-opacity: 0.3; stroke-width: 0.8; stroke-linecap: square"/>
     </g>
     <g id="line2d_38">
      <g>
       <use xlink:href="#m3617a80577" x="721.261235" y="353.68" style="stroke: #000000; stroke-width: 0.8"/>
      </g>
     </g>
     <g id="text_22">
      <!-- 200 -->
      <g transform="translate(711.717485 368.278437) scale(0.1 -0.1)">
       <use xlink:href="#DejaVuSans-32"/>
       <use xlink:href="#DejaVuSans-30" transform="translate(63.623047 0)"/>
       <use xlink:href="#DejaVuSans-30" transform="translate(127.246094 0)"/>
      </g>
     </g>
    </g>
    <g id="xtick_10">
     <g id="line2d_39">
      <path d="M 806.935218 353.68 
L 806.935218 26.16 
" clip-path="url(#p4fabc59795)" style="fill: none; stroke: #b0b0b0; stroke-opacity: 0.3; stroke-width: 0.8; stroke-linecap: square"/>
     </g>
     <g id="line2d_40">
      <g>
       <use xlink:href="#m3617a80577" x="806.935218" y="353.68" style="stroke: #000000; stroke-width: 0.8"/>
      </g>
     </g>
     <g id="text_23">
      <!-- 300 -->
      <g transform="translate(797.391468 368.278437) scale(0.1 -0.1)">
       <use xlink:href="#DejaVuSans-33"/>
       <use xlink:href="#DejaVuSans-30" transform="translate(63.623047 0)"/>
       <use xlink:href="#DejaVuSans-30" transform="translate(127.246094 0)"/>
      </g>
     </g>
    </g>
    <g id="xtick_11">
     <g id="line2d_41">
      <path d="M 892.609201 353.68 
L 892.609201 26.16 
" clip-path="url(#p4fabc59795)" style="fill: none; stroke: #b0b0b0; stroke-opacity: 0.3; stroke-width: 0.8; stroke-linecap: square"/>
     </g>
     <g id="line2d_42">
      <g>
       <use xlink:href="#m3617a80577" x="892.609201" y="353.68" style="stroke: #000000; stroke-width: 0.8"/>
      </g>
     </g>
     <g id="text_24">
      <!-- 400 -->
      <g transform="translate(883.065451 368.278437) scale(0.1 -0.1)">
       <use xlink:href="#DejaVuSans-34"/>
       <use xlink:href="#DejaVuSans-30" transform="translate(63.623047 0)"/>
       <use xlink:href="#DejaVuSans-30" transform="translate(127.246094 0)"/>
      </g>
     </g>
    </g>
    <g id="xtick_12">
     <g id="line2d_43">
      <path d="M 978.283185 353.68 
L 978.283185 26.16 
" clip-path="url(#p4fabc59795)" style="fill: none; stroke: #b0b0b0; stroke-opacity: 0.3; stroke-width: 0.8; stroke-linecap: square"/>
     </g>
     <g id="line2d_44">
      <g>
       <use xlink:href="#m3617a80577" x="978.283185" y="353.68" style="stroke: #000000; stroke-width: 0.8"/>
      </g>
     </g>
     <g id="text_25">
      <!-- 500 -->
      <g transform="translate(968.739435 368.278437) scale(0.1 -0.1)">
       <use xlink:href="#DejaVuSans-35"/>
       <use xlink:href="#DejaVuSans-30" transform="translate(63.623047 0)"/>
       <use xlink:href="#DejaVuSans-30" transform="translate(127.246094 0)"/>
      </g>
     </g>
    </g>
    <g id="text_26">
     <!-- n limbs -->
     <g transform="translate(754.480469 381.956563) scale(0.1 -0.1)">
      <use xlink:href="#DejaVuSans-6e"/>
      <use xlink:href="#DejaVuSans-20" transform="translate(63.378906 0)"/>
      <use xlink:href="#DejaVuSans-6c" transform="translate(95.166016 0)"/>
      <use xlink:href="#DejaVuSans-69" transform="translate(122.949219 0)"/>
      <use xlink:href="#DejaVuSans-6d" transform="translate(150.732422 0)"/>
      <use xlink:href="#DejaVuSans-62" transform="translate(248.144531 0)"/>
      <use xlink:href="#DejaVuSans-73" transform="translate(311.621094 0)"/>
     </g>
    </g>
   </g>
   <g id="matplotlib.axis_4">
    <g id="ytick_9">
     <g id="line2d_45">
      <path d="M 548.13125 353.68 
L 997.2 353.68 
" clip-path="url(#p4fabc59795)" style="fill: none; stroke: #b0b0b0; stroke-opacity: 0.3; stroke-width: 0.8; stroke-linecap: square"/>
     </g>
     <g id="line2d_46">
      <g>
       <use xlink:href="#m3499529e89" x="548.13125" y="353.68" style="stroke: #000000; stroke-width: 0.8"/>
      </g>
     </g>
     <g id="text_27">
      <!-- 0.90 -->
      <g transform="translate(518.865625 357.479219) scale(0.1 -0.1)">
       <defs>
        <path id="DejaVuSans-2e" d="M 684 794 
L 1344 794 
L 1344 0 
L 684 0 
L 684 794 
z
" transform="scale(0.015625)"/>
        <path id="DejaVuSans-39" d="M 703 97 
L 703 672 
Q 941 559 1184 500 
Q 1428 441 1663 441 
Q 2288 441 2617 861 
Q 2947 1281 2994 2138 
Q 2813 1869 2534 1725 
Q 2256 1581 1919 1581 
Q 1219 1581 811 2004 
Q 403 2428 403 3163 
Q 403 3881 828 4315 
Q 1253 4750 1959 4750 
Q 2769 4750 3195 4129 
Q 3622 3509 3622 2328 
Q 3622 1225 3098 567 
Q 2575 -91 1691 -91 
Q 1453 -91 1209 -44 
Q 966 3 703 97 
z
M 1959 2075 
Q 2384 2075 2632 2365 
Q 2881 2656 2881 3163 
Q 2881 3666 2632 3958 
Q 2384 4250 1959 4250 
Q 1534 4250 1286 3958 
Q 1038 3666 1038 3163 
Q 1038 2656 1286 2365 
Q 1534 2075 1959 2075 
z
" transform="scale(0.015625)"/>
       </defs>
       <use xlink:href="#DejaVuSans-30"/>
       <use xlink:href="#DejaVuSans-2e" transform="translate(63.623047 0)"/>
       <use xlink:href="#DejaVuSans-39" transform="translate(95.410156 0)"/>
       <use xlink:href="#DejaVuSans-30" transform="translate(159.033203 0)"/>
      </g>
     </g>
    </g>
    <g id="ytick_10">
     <g id="line2d_47">
      <path d="M 548.13125 312.74 
L 997.2 312.74 
" clip-path="url(#p4fabc59795)" style="fill: none; stroke: #b0b0b0; stroke-opacity: 0.3; stroke-width: 0.8; stroke-linecap: square"/>
     </g>
     <g id="line2d_48">
      <g>
       <use xlink:href="#m3499529e89" x="548.13125" y="312.74" style="stroke: #000000; stroke-width: 0.8"/>
      </g>
     </g>
     <g id="text_28">
      <!-- 0.95 -->
      <g transform="translate(518.865625 316.539219) scale(0.1 -0.1)">
       <use xlink:href="#DejaVuSans-30"/>
       <use xlink:href="#DejaVuSans-2e" transform="translate(63.623047 0)"/>
       <use xlink:href="#DejaVuSans-39" transform="translate(95.410156 0)"/>
       <use xlink:href="#DejaVuSans-35" transform="translate(159.033203 0)"/>
      </g>
     </g>
    </g>
    <g id="ytick_11">
     <g id="line2d_49">
      <path d="M 548.13125 271.8 
L 997.2 271.8 
" clip-path="url(#p4fabc59795)" style="fill: none; stroke: #b0b0b0; stroke-opacity: 0.3; stroke-width: 0.8; stroke-linecap: square"/>
     </g>
     <g id="line2d_50">
      <g>
       <use xlink:href="#m3499529e89" x="548.13125" y="271.8" style="stroke: #000000; stroke-width: 0.8"/>
      </g>
     </g>
     <g id="text_29">
      <!-- 1.00 -->
      <g transform="translate(518.865625 275.599219) scale(0.1 -0.1)">
       <use xlink:href="#DejaVuSans-31"/>
       <use xlink:href="#DejaVuSans-2e" transform="translate(63.623047 0)"/>
       <use xlink:href="#DejaVuSans-30" transform="translate(95.410156 0)"/>
       <use xlink:href="#DejaVuSans-30" transform="translate(159.033203 0)"/>
      </g>
     </g>
    </g>
    <g id="ytick_12">
     <g id="line2d_51">
      <path d="M 548.13125 230.86 
L 997.2 230.86 
" clip-path="url(#p4fabc59795)" style="fill: none; stroke: #b0b0b0; stroke-opacity: 0.3; stroke-width: 0.8; stroke-linecap: square"/>
     </g>
     <g id="line2d_52">
      <g>
       <use xlink:href="#m3499529e89" x="548.13125" y="230.86" style="stroke: #000000; stroke-width: 0.8"/>
      </g>
     </g>
     <g id="text_30">
      <!-- 1.05 -->
      <g transform="translate(518.865625 234.659219) scale(0.1 -0.1)">
       <use xlink:href="#DejaVuSans-31"/>
       <use xlink:href="#DejaVuSans-2e" transform="translate(63.623047 0)"/>
       <use xlink:href="#DejaVuSans-30" transform="translate(95.410156 0)"/>
       <use xlink:href="#DejaVuSans-35" transform="translate(159.033203 0)"/>
      </g>
     </g>
    </g>
    <g id="ytick_13">
     <g id="line2d_53">
      <path d="M 548.13125 189.92 
L 997.2 189.92 
" clip-path="url(#p4fabc59795)" style="fill: none; stroke: #b0b0b0; stroke-opacity: 0.3; stroke-width: 0.8; stroke-linecap: square"/>
     </g>
     <g id="line2d_54">
      <g>
       <use xlink:href="#m3499529e89" x="548.13125" y="189.92" style="stroke: #000000; stroke-width: 0.8"/>
      </g>
     </g>
     <g id="text_31">
      <!-- 1.10 -->
      <g transform="translate(518.865625 193.719219) scale(0.1 -0.1)">
       <use xlink:href="#DejaVuSans-31"/>
       <use xlink:href="#DejaVuSans-2e" transform="translate(63.623047 0)"/>
       <use xlink:href="#DejaVuSans-31" transform="translate(95.410156 0)"/>
       <use xlink:href="#DejaVuSans-30" transform="translate(159.033203 0)"/>
      </g>
     </g>
    </g>
    <g id="ytick_14">
     <g id="line2d_55">
      <path d="M 548.13125 148.98 
L 997.2 148.98 
" clip-path="url(#p4fabc59795)" style="fill: none; stroke: #b0b0b0; stroke-opacity: 0.3; stroke-width: 0.8; stroke-linecap: square"/>
     </g>
     <g id="line2d_56">
      <g>
       <use xlink:href="#m3499529e89" x="548.13125" y="148.98" style="stroke: #000000; stroke-width: 0.8"/>
      </g>
     </g>
     <g id="text_32">
      <!-- 1.15 -->
      <g transform="translate(518.865625 152.779219) scale(0.1 -0.1)">
       <use xlink:href="#DejaVuSans-31"/>
       <use xlink:href="#DejaVuSans-2e" transform="translate(63.623047 0)"/>
       <use xlink:href="#DejaVuSans-31" transform="translate(95.410156 0)"/>
       <use xlink:href="#DejaVuSans-35" transform="translate(159.033203 0)"/>
      </g>
     </g>
    </g>
    <g id="ytick_15">
     <g id="line2d_57">
      <path d="M 548.13125 108.04 
L 997.2 108.04 
" clip-path="url(#p4fabc59795)" style="fill: none; stroke: #b0b0b0; stroke-opacity: 0.3; stroke-width: 0.8; stroke-linecap: square"/>
     </g>
     <g id="line2d_58">
      <g>
       <use xlink:href="#m3499529e89" x="548.13125" y="108.04" style="stroke: #000000; stroke-width: 0.8"/>
      </g>
     </g>
     <g id="text_33">
      <!-- 1.20 -->
      <g transform="translate(518.865625 111.839219) scale(0.1 -0.1)">
       <use xlink:href="#DejaVuSans-31"/>
       <use xlink:href="#DejaVuSans-2e" transform="translate(63.623047 0)"/>
       <use xlink:href="#DejaVuSans-32" transform="translate(95.410156 0)"/>
       <use xlink:href="#DejaVuSans-30" transform="translate(159.033203 0)"/>
      </g>
     </g>
    </g>
    <g id="ytick_16">
     <g id="line2d_59">
      <path d="M 548.13125 67.1 
L 997.2 67.1 
" clip-path="url(#p4fabc59795)" style="fill: none; stroke: #b0b0b0; stroke-opacity: 0.3; stroke-width: 0.8; stroke-linecap: square"/>
     </g>
     <g id="line2d_60">
      <g>
       <use xlink:href="#m3499529e89" x="548.13125" y="67.1" style="stroke: #000000; stroke-width: 0.8"/>
      </g>
     </g>
     <g id="text_34">
      <!-- 1.25 -->
      <g transform="translate(518.865625 70.899219) scale(0.1 -0.1)">
       <use xlink:href="#DejaVuSans-31"/>
       <use xlink:href="#DejaVuSans-2e" transform="translate(63.623047 0)"/>
       <use xlink:href="#DejaVuSans-32" transform="translate(95.410156 0)"/>
       <use xlink:href="#DejaVuSans-35" transform="translate(159.033203 0)"/>
      </g>
     </g>
    </g>
    <g id="ytick_17">
     <g id="line2d_61">
      <path d="M 548.13125 26.16 
L 997.2 26.16 
" clip-path="url(#p4fabc59795)" style="fill: none; stroke: #b0b0b0; stroke-opacity: 0.3; stroke-width: 0.8; stroke-linecap: square"/>
     </g>
     <g id="line2d_62">
      <g>
       <use xlink:href="#m3499529e89" x="548.13125" y="26.16" style="stroke: #000000; stroke-width: 0.8"/>
      </g>
     </g>
     <g id="text_35">
      <!-- 1.30 -->
      <g transform="translate(518.865625 29.959219) scale(0.1 -0.1)">
       <use xlink:href="#DejaVuSans-31"/>
       <use xlink:href="#DejaVuSans-2e" transform="translate(63.623047 0)"/>
       <use xlink:href="#DejaVuSans-33" transform="translate(95.410156 0)"/>
       <use xlink:href="#DejaVuSans-30" transform="translate(159.033203 0)"/>
      </g>
     </g>
    </g>
    <g id="text_36">
     <!-- midmul / mul_basecase  (time ratio) -->
     <g transform="translate(512.507812 280.479375) rotate(-90) scale(0.1 -0.1)">
      <use xlink:href="#DejaVuSans-6d"/>
      <use xlink:href="#DejaVuSans-69" transform="translate(97.412109 0)"/>
      <use xlink:href="#DejaVuSans-64" transform="translate(125.195312 0)"/>
      <use xlink:href="#DejaVuSans-6d" transform="translate(188.671875 0)"/>
      <use xlink:href="#DejaVuSans-75" transform="translate(286.083984 0)"/>
      <use xlink:href="#DejaVuSans-6c" transform="translate(349.462891 0)"/>
      <use xlink:href="#DejaVuSans-20" transform="translate(377.246094 0)"/>
      <use xlink:href="#DejaVuSans-2f" transform="translate(409.033203 0)"/>
      <use xlink:href="#DejaVuSans-20" transform="translate(442.724609 0)"/>
      <use xlink:href="#DejaVuSans-6d" transform="translate(474.511719 0)"/>
      <use xlink:href="#DejaVuSans-75" transform="translate(571.923828 0)"/>
      <use xlink:href="#DejaVuSans-6c" transform="translate(635.302734 0)"/>
      <use xlink:href="#DejaVuSans-5f" transform="translate(663.085938 0)"/>
      <use xlink:href="#DejaVuSans-62" transform="translate(713.085938 0)"/>
      <use xlink:href="#DejaVuSans-61" transform="translate(776.5625 0)"/>
      <use xlink:href="#DejaVuSans-73" transform="translate(837.841797 0)"/>
      <use xlink:href="#DejaVuSans-65" transform="translate(889.941406 0)"/>
      <use xlink:href="#DejaVuSans-63" transform="translate(951.464844 0)"/>
      <use xlink:href="#DejaVuSans-61" transform="translate(1006.445312 0)"/>
      <use xlink:href="#DejaVuSans-73" transform="translate(1067.724609 0)"/>
      <use xlink:href="#DejaVuSans-65" transform="translate(1119.824219 0)"/>
      <use xlink:href="#DejaVuSans-20" transform="translate(1181.347656 0)"/>
      <use xlink:href="#DejaVuSans-20" transform="translate(1213.134766 0)"/>
      <use xlink:href="#DejaVuSans-28" transform="translate(1244.921875 0)"/>
      <use xlink:href="#DejaVuSans-74" transform="translate(1283.935547 0)"/>
      <use xlink:href="#DejaVuSans-69" transform="translate(1323.144531 0)"/>
      <use xlink:href="#DejaVuSans-6d" transform="translate(1350.927734 0)"/>
      <use xlink:href="#DejaVuSans-65" transform="translate(1448.339844 0)"/>
      <use xlink:href="#DejaVuSans-20" transform="translate(1509.863281 0)"/>
      <use xlink:href="#DejaVuSans-72" transform="translate(1541.650391 0)"/>
      <use xlink:href="#DejaVuSans-61" transform="translate(1582.763672 0)"/>
      <use xlink:href="#DejaVuSans-74" transform="translate(1644.042969 0)"/>
      <use xlink:href="#DejaVuSans-69" transform="translate(1683.251953 0)"/>
      <use xlink:href="#DejaVuSans-6f" transform="translate(1711.035156 0)"/>
      <use xlink:href="#DejaVuSans-29" transform="translate(1772.216797 0)"/>
     </g>
    </g>
   </g>
   <g id="line2d_63">
    <path d="M 548.13125 271.8 
L 997.2 271.8 
" clip-path="url(#p4fabc59795)" style="fill: none; stroke-dasharray: 2.96,1.28; stroke-dashoffset: 0; stroke: #808080; stroke-width: 0.8"/>
   </g>
   <g id="line2d_64">
    <path d="M 557.903535 397 
L 558.480667 288.383851 
L 558.957436 397 
M 560.161836 397 
L 560.194147 393.60735 
L 561.050887 169.123142 
L 561.577384 397 
M 562.229492 397 
L 562.764366 159.47205 
L 563.621106 271.519277 
L 564.477846 306.389829 
L 565.334586 299.461754 
L 566.191326 309.308887 
L 567.048065 352.476112 
L 567.904805 374.393807 
L 568.761545 393.155987 
L 569.054752 397 
M 569.646227 397 
L 570.475025 177.859643 
L 571.331765 254.019408 
L 572.145212 -1 
M 572.229566 -1 
L 573.045244 268.615428 
L 573.901984 296.106908 
L 574.758724 164.857462 
L 575.615464 219.495206 
L 576.472204 365.970634 
L 577.328943 190.434309 
L 578.185683 199.35983 
L 579.042423 225.478009 
L 579.899163 233.466992 
L 580.755903 263.974344 
L 581.612643 279.606067 
L 582.469382 300.017357 
L 583.326122 311.385075 
L 584.182862 170.568822 
L 585.039602 181.231339 
L 585.896342 205.124044 
L 586.753082 211.489827 
L 587.609821 242.503512 
L 588.466561 255.882554 
L 589.323301 275.654164 
L 590.180041 286.753631 
L 591.036781 162.877794 
L 591.893521 181.106965 
L 592.75026 202.665752 
L 593.607 208.727094 
L 594.46374 234.360919 
L 595.32048 246.318146 
L 596.17722 262.112076 
L 597.03396 266.564779 
L 597.890699 165.332747 
L 598.747439 89.81791 
L 599.604179 123.729035 
L 600.460919 118.77328 
L 601.317659 148.737128 
L 602.174399 233.418628 
L 603.031138 253.25887 
L 603.887878 262.232118 
L 604.744618 169.922147 
L 605.601358 179.364723 
L 606.458098 197.731915 
L 607.314838 204.397273 
L 608.171577 220.359662 
L 609.028317 227.371232 
L 609.885057 243.132691 
L 610.741797 250.722819 
L 611.598537 168.290289 
L 612.455277 180.081999 
L 613.312016 196.057965 
L 614.168756 198.244031 
L 615.025496 221.132309 
L 615.882236 223.946793 
L 616.738976 242.251767 
L 617.595716 249.195883 
L 618.452455 173.984949 
L 619.309195 198.897355 
L 620.165935 213.519788 
L 621.022675 217.778054 
L 621.879415 227.310018 
L 622.736155 227.51299 
L 623.592894 246.879418 
L 624.449634 248.245065 
L 625.306374 180.22756 
L 626.163114 187.490183 
L 627.019854 160.236275 
L 627.876594 164.063441 
L 628.733333 178.055843 
L 629.590073 220.848948 
L 631.303553 242.213046 
L 632.160293 176.836315 
L 633.873772 204.926006 
L 634.730512 207.982134 
L 635.587252 216.983947 
L 636.443992 236.598964 
L 637.300732 232.639419 
L 638.157471 244.835223 
L 639.014211 180.457477 
L 639.870951 194.740808 
L 640.727691 200.810636 
L 641.584431 205.151493 
L 642.441171 217.995889 
L 643.29791 221.494499 
L 644.15465 232.147025 
L 645.01139 245.909659 
L 645.86813 186.424156 
L 646.72487 192.890695 
L 647.58161 202.225464 
L 648.438349 217.331822 
L 650.151829 224.146747 
L 651.865309 244.924772 
L 652.722049 190.714879 
L 653.578788 196.069534 
L 654.435528 204.963792 
L 655.292268 207.954508 
L 656.149008 221.325073 
L 657.005748 226.173557 
L 657.862488 232.412399 
L 658.719227 244.384363 
L 659.575967 190.290209 
L 660.432707 197.295158 
L 661.289447 203.2934 
L 662.146187 215.474183 
L 663.002927 219.302129 
L 664.716406 233.795857 
L 665.573146 243.30206 
L 666.429886 195.555648 
L 667.286626 203.040737 
L 668.143366 213.473607 
L 669.856845 226.528682 
L 670.713585 225.056106 
L 671.570325 229.778643 
L 672.427065 239.027747 
L 673.283805 195.444132 
L 674.140544 201.632005 
L 674.997284 209.871201 
L 675.854024 212.126776 
L 676.710764 222.392111 
L 677.567504 221.366735 
L 678.424244 228.56255 
L 679.280983 238.168369 
L 680.137723 197.784225 
L 680.994463 200.525287 
L 681.851203 210.430365 
L 682.707943 213.286833 
L 683.564683 220.85153 
L 684.421422 227.015422 
L 685.278162 230.60434 
L 686.134902 236.767444 
L 686.991642 202.067726 
L 687.848382 199.100467 
L 688.705122 214.075958 
L 689.561861 215.484905 
L 690.418601 224.934837 
L 691.275341 220.776242 
L 692.132081 233.570638 
L 692.988821 241.289738 
L 693.845561 204.397332 
L 694.7023 202.583537 
L 695.55904 213.621345 
L 696.41578 216.024971 
L 697.27252 222.902234 
L 698.12926 227.040966 
L 698.986 230.377579 
L 699.842739 238.696834 
L 700.699479 202.607262 
L 701.556219 210.896896 
L 702.412959 212.591434 
L 703.269699 218.936633 
L 704.126438 222.984324 
L 704.983178 228.038013 
L 705.839918 229.895787 
L 706.696658 236.795333 
L 707.553398 204.458824 
L 708.410138 209.68287 
L 709.266877 217.411669 
L 710.123617 216.068486 
L 710.980357 221.938041 
L 711.837097 223.011185 
L 712.693837 230.595974 
L 713.550577 237.108821 
L 714.407316 211.263305 
L 715.264056 211.690721 
L 716.120796 219.978756 
L 716.977536 219.738415 
L 717.834276 224.481457 
L 718.691016 224.88605 
L 719.547755 231.435524 
L 720.404495 236.065406 
L 721.261235 208.532401 
L 722.117975 206.685762 
L 722.974715 213.963329 
L 723.831455 215.578204 
L 724.688194 219.151302 
L 725.544934 223.200947 
L 726.401674 228.228861 
L 727.258414 234.689689 
L 728.115154 213.162597 
L 728.971894 211.968965 
L 729.828633 215.851917 
L 730.685373 217.389763 
L 731.542113 225.69607 
L 732.398853 223.702682 
L 733.255593 228.881405 
L 734.112333 237.967407 
L 734.969072 208.771327 
L 735.825812 208.50972 
L 736.682552 217.873532 
L 737.539292 216.694121 
L 738.396032 223.881967 
L 739.252772 227.562739 
L 740.109511 227.761142 
L 740.966251 235.758666 
L 741.822991 215.272612 
L 742.679731 210.519097 
L 743.536471 216.578565 
L 744.393211 212.705023 
L 745.24995 220.734002 
L 746.10669 223.441728 
L 746.96343 231.224477 
L 747.82017 233.757999 
L 748.67691 207.673914 
L 749.53365 211.526974 
L 750.390389 213.857248 
L 751.247129 214.401082 
L 752.103869 221.758472 
L 753.817349 229.551107 
L 754.674089 232.952024 
L 755.530828 207.939491 
L 756.387568 216.515648 
L 757.244308 220.31522 
L 758.101048 220.531548 
L 758.957788 226.954681 
L 759.814528 227.799559 
L 760.671267 232.116157 
L 761.528007 237.534663 
L 762.384747 212.061974 
L 763.241487 212.929226 
L 764.098227 219.456527 
L 764.954967 219.663782 
L 765.811706 222.167932 
L 766.668446 226.835615 
L 767.525186 230.243498 
L 768.381926 236.868409 
L 769.238666 211.668766 
L 770.095406 214.946168 
L 770.952145 222.614675 
L 771.808885 220.944425 
L 772.665625 226.068491 
L 773.522365 229.862921 
L 774.379105 236.564186 
L 775.235844 239.208949 
L 776.092584 207.938591 
L 776.949324 212.836785 
L 777.806064 221.832237 
L 778.662804 220.672826 
L 780.376283 228.678924 
L 781.233023 235.068806 
L 782.089763 234.924255 
L 782.946503 213.317845 
L 783.803243 213.018874 
L 784.659983 226.952731 
L 785.516722 222.328896 
L 786.373462 226.900898 
L 787.230202 227.415739 
L 788.086942 231.714275 
L 788.943682 232.812468 
L 789.800422 215.526997 
L 790.657161 213.954148 
L 791.513901 221.65382 
L 792.370641 223.419785 
L 793.227381 226.244655 
L 794.084121 228.66491 
L 794.940861 233.644984 
L 795.7976 233.458796 
L 796.65434 213.864005 
L 797.51108 216.9078 
L 798.36782 219.304543 
L 799.22456 223.02968 
L 800.0813 227.818485 
L 800.938039 226.409143 
L 801.794779 230.126268 
L 802.651519 234.833371 
L 803.508259 217.93174 
L 804.364999 214.752251 
L 805.221739 221.936624 
L 806.078478 221.988577 
L 806.935218 226.091512 
L 807.791958 225.940385 
L 808.648698 231.769095 
L 809.505438 234.086318 
L 810.362178 212.422152 
L 811.218917 224.940292 
L 812.075657 222.675133 
L 812.932397 223.746365 
L 813.789137 230.606816 
L 814.645877 224.944501 
L 815.502617 234.309001 
L 816.359356 232.547539 
L 817.216096 215.731195 
L 818.072836 216.891247 
L 818.929576 222.298701 
L 819.786316 219.384091 
L 820.643056 229.763781 
L 821.499795 226.796952 
L 823.213275 234.273834 
L 824.070015 216.946846 
L 824.926755 217.511416 
L 825.783495 219.375385 
L 826.640234 222.596553 
L 827.496974 226.351497 
L 828.353714 226.806329 
L 829.210454 231.624699 
L 830.067194 232.557174 
L 830.923934 218.428671 
L 831.780673 220.726761 
L 832.637413 223.484057 
L 833.494153 225.671732 
L 834.350893 225.10361 
L 835.207633 229.739034 
L 836.064373 230.926188 
L 836.921112 232.933704 
L 837.777852 220.179836 
L 838.634592 216.36902 
L 839.491332 219.796922 
L 840.348072 222.255664 
L 841.204812 225.431745 
L 842.061551 226.698889 
L 843.775031 236.420667 
L 844.631771 213.818543 
L 845.488511 214.988246 
L 846.34525 220.409223 
L 847.20199 220.776484 
L 848.05873 225.415609 
L 848.91547 224.037398 
L 849.77221 231.190903 
L 850.62895 229.58765 
L 851.485689 213.376814 
L 852.342429 214.729661 
L 853.199169 218.519429 
L 854.055909 221.336515 
L 854.912649 223.509641 
L 855.769389 226.931387 
L 856.626128 227.705234 
L 857.482868 230.633454 
L 858.339608 217.611567 
L 859.196348 219.281508 
L 860.053088 221.825761 
L 860.909828 219.857677 
L 861.766567 224.353312 
L 862.623307 226.669311 
L 863.480047 228.572043 
L 864.336787 233.247641 
L 865.193527 217.142701 
L 866.050267 217.262867 
L 866.907006 216.812678 
L 867.763746 221.531594 
L 868.620486 224.275942 
L 869.477226 217.891678 
L 870.333966 232.49306 
L 871.190706 230.446957 
L 872.047445 220.10117 
L 872.904185 218.045782 
L 873.760925 224.398175 
L 874.617665 225.131334 
L 875.474405 227.465273 
L 876.331145 226.966426 
L 877.187884 230.502779 
L 878.044624 231.572984 
L 878.901364 218.237247 
L 879.758104 220.949179 
L 880.614844 224.74218 
L 881.471584 224.382243 
L 882.328323 224.219412 
L 883.185063 225.287017 
L 884.041803 228.699829 
L 884.898543 230.365811 
L 885.755283 218.431343 
L 886.612023 220.494175 
L 887.468762 218.658015 
L 888.325502 221.242688 
L 889.182242 223.357406 
L 890.038982 223.348864 
L 890.895722 231.552992 
L 891.752462 232.914738 
L 892.609201 216.272418 
L 893.465941 219.502396 
L 894.322681 223.656652 
L 895.179421 225.49852 
L 896.036161 226.676654 
L 896.892901 225.643107 
L 897.74964 231.252252 
L 898.60638 236.112013 
L 899.46312 219.725248 
L 900.31986 224.763052 
L 901.1766 223.657513 
L 902.03334 228.225903 
L 902.890079 230.328623 
L 903.746819 231.625639 
L 904.603559 233.288928 
L 905.460299 233.700854 
L 906.317039 223.833457 
L 907.173779 221.242212 
L 908.030518 223.195177 
L 908.887258 226.426491 
L 909.743998 230.398912 
L 910.600738 230.942533 
L 911.457478 233.500672 
L 912.314218 234.631707 
L 913.170957 224.59105 
L 914.027697 223.414125 
L 914.884437 226.006191 
L 915.741177 223.888631 
L 916.597917 227.378624 
L 917.454656 230.200482 
L 918.311396 231.764542 
L 919.168136 236.268629 
L 920.024876 227.638889 
L 920.881616 225.990524 
L 921.738356 226.419007 
L 922.595095 225.809903 
L 923.451835 229.487366 
L 924.308575 232.19182 
L 925.165315 233.747254 
L 926.022055 236.322199 
L 926.878795 224.756563 
L 927.735534 222.865129 
L 928.592274 224.804474 
L 929.449014 227.950816 
L 930.305754 230.42388 
L 931.162494 230.868843 
L 932.019234 230.789 
L 932.875973 232.502285 
L 933.732713 226.203424 
L 934.589453 223.358563 
L 935.446193 229.257399 
L 936.302933 229.625677 
L 937.159673 226.668455 
L 939.729892 235.314856 
L 940.586632 225.173871 
L 941.443372 223.762462 
L 942.300112 225.856698 
L 943.156851 224.150656 
L 944.013591 230.729793 
L 944.870331 228.455931 
L 945.727071 232.054529 
L 946.583811 234.335059 
L 947.440551 223.399505 
L 949.15403 228.51741 
L 950.01077 225.683104 
L 950.86751 228.918977 
L 951.72425 230.326437 
L 952.58099 236.615739 
L 953.437729 233.969367 
L 954.294469 224.958543 
L 955.151209 223.859058 
L 956.007949 223.700048 
L 956.864689 224.210348 
L 957.721429 228.370442 
L 958.578168 231.316929 
L 960.291648 238.534061 
L 961.148388 226.781397 
L 962.005128 225.57019 
L 962.861868 229.532477 
L 963.718607 228.192143 
L 964.575347 232.000393 
L 965.432087 230.42118 
L 966.288827 234.920177 
L 967.145567 237.804298 
L 968.002307 225.30816 
L 968.859046 225.948788 
L 969.715786 223.651788 
L 971.429266 231.636181 
L 972.286006 233.542934 
L 973.142746 234.853786 
L 973.999485 234.490973 
L 974.856225 225.968768 
L 975.712965 224.686452 
L 976.569705 226.788622 
L 977.426445 228.077241 
L 978.283185 230.315907 
L 979.139924 229.795602 
L 979.996664 234.007846 
L 980.853404 234.63244 
L 981.710144 225.410193 
L 982.566884 226.647363 
L 983.423624 230.853661 
L 984.280363 227.970817 
L 985.137103 231.931341 
L 985.993843 231.765586 
L 986.850583 235.314839 
L 987.707323 235.462741 
L 988.564062 225.497661 
L 988.564062 225.497661 
" clip-path="url(#p4fabc59795)" style="fill: none; stroke: #d62728; stroke-linecap: square"/>
   </g>
   <g id="line2d_65">
    <path d="M 548.13125 222.071663 
L 997.2 222.071663 
" clip-path="url(#p4fabc59795)" style="fill: none; stroke-dasharray: 0.7,1.155; stroke-dashoffset: 0; stroke: #d62728; stroke-width: 0.7"/>
   </g>
   <g id="patch_9">
    <path d="M 548.13125 353.68 
L 548.13125 26.16 
" style="fill: none; stroke: #000000; stroke-width: 0.8; stroke-linejoin: miter; stroke-linecap: square"/>
   </g>
   <g id="patch_10">
    <path d="M 997.2 353.68 
L 997.2 26.16 
" style="fill: none; stroke: #000000; stroke-width: 0.8; stroke-linejoin: miter; stroke-linecap: square"/>
   </g>
   <g id="patch_11">
    <path d="M 548.13125 353.68 
L 997.2 353.68 
" style="fill: none; stroke: #000000; stroke-width: 0.8; stroke-linejoin: miter; stroke-linecap: square"/>
   </g>
   <g id="patch_12">
    <path d="M 548.13125 26.16 
L 997.2 26.16 
" style="fill: none; stroke: #000000; stroke-width: 0.8; stroke-linejoin: miter; stroke-linecap: square"/>
   </g>
   <g id="text_37">
    <!--  mean(n≥32)=1.061 -->
    <g style="fill: #d62728" transform="translate(905.531562 220.407913) scale(0.08 -0.08)">
     <defs>
      <path id="DejaVuSans-2265" d="M 678 3175 
L 678 3725 
L 4684 2578 
L 4684 2047 
L 678 897 
L 678 1453 
L 3681 2309 
L 678 3175 
z
M 4684 531 
L 4684 0 
L 678 0 
L 678 531 
L 4684 531 
z
" transform="scale(0.015625)"/>
     </defs>
     <use xlink:href="#DejaVuSans-20"/>
     <use xlink:href="#DejaVuSans-6d" transform="translate(31.787109 0)"/>
     <use xlink:href="#DejaVuSans-65" transform="translate(129.199219 0)"/>
     <use xlink:href="#DejaVuSans-61" transform="translate(190.722656 0)"/>
     <use xlink:href="#DejaVuSans-6e" transform="translate(252.001953 0)"/>
     <use xlink:href="#DejaVuSans-28" transform="translate(315.380859 0)"/>
     <use xlink:href="#DejaVuSans-6e" transform="translate(354.394531 0)"/>
     <use xlink:href="#DejaVuSans-2265" transform="translate(417.773438 0)"/>
     <use xlink:href="#DejaVuSans-33" transform="translate(501.5625 0)"/>
     <use xlink:href="#DejaVuSans-32" transform="translate(565.185547 0)"/>
     <use xlink:href="#DejaVuSans-29" transform="translate(628.808594 0)"/>
     <use xlink:href="#DejaVuSans-3d" transform="translate(667.822266 0)"/>
     <use xlink:href="#DejaVuSans-31" transform="translate(751.611328 0)"/>
     <use xlink:href="#DejaVuSans-2e" transform="translate(815.234375 0)"/>
     <use xlink:href="#DejaVuSans-30" transform="translate(847.021484 0)"/>
     <use xlink:href="#DejaVuSans-36" transform="translate(910.644531 0)"/>
     <use xlink:href="#DejaVuSans-31" transform="translate(974.267578 0)"/>
    </g>
   </g>
   <g id="text_38">
    <!-- cost of midmul's extra align ops -->
    <g transform="translate(676.629062 20.16) scale(0.12 -0.12)">
     <defs>
      <path id="DejaVuSans-66" d="M 2375 4863 
L 2375 4384 
L 1825 4384 
Q 1516 4384 1395 4259 
Q 1275 4134 1275 3809 
L 1275 3500 
L 2222 3500 
L 2222 3053 
L 1275 3053 
L 1275 0 
L 697 0 
L 697 3053 
L 147 3053 
L 147 3500 
L 697 3500 
L 697 3744 
Q 697 4328 969 4595 
Q 1241 4863 1831 4863 
L 2375 4863 
z
" transform="scale(0.015625)"/>
      <path id="DejaVuSans-27" d="M 1147 4666 
L 1147 2931 
L 616 2931 
L 616 4666 
L 1147 4666 
z
" transform="scale(0.015625)"/>
      <path id="DejaVuSans-78" d="M 3513 3500 
L 2247 1797 
L 3578 0 
L 2900 0 
L 1881 1375 
L 863 0 
L 184 0 
L 1544 1831 
L 300 3500 
L 978 3500 
L 1906 2253 
L 2834 3500 
L 3513 3500 
z
" transform="scale(0.015625)"/>
      <path id="DejaVuSans-67" d="M 2906 1791 
Q 2906 2416 2648 2759 
Q 2391 3103 1925 3103 
Q 1463 3103 1205 2759 
Q 947 2416 947 1791 
Q 947 1169 1205 825 
Q 1463 481 1925 481 
Q 2391 481 2648 825 
Q 2906 1169 2906 1791 
z
M 3481 434 
Q 3481 -459 3084 -895 
Q 2688 -1331 1869 -1331 
Q 1566 -1331 1297 -1286 
Q 1028 -1241 775 -1147 
L 775 -588 
Q 1028 -725 1275 -790 
Q 1522 -856 1778 -856 
Q 2344 -856 2625 -561 
Q 2906 -266 2906 331 
L 2906 616 
Q 2728 306 2450 153 
Q 2172 0 1784 0 
Q 1141 0 747 490 
Q 353 981 353 1791 
Q 353 2603 747 3093 
Q 1141 3584 1784 3584 
Q 2172 3584 2450 3431 
Q 2728 3278 2906 2969 
L 2906 3500 
L 3481 3500 
L 3481 434 
z
" transform="scale(0.015625)"/>
     </defs>
     <use xlink:href="#DejaVuSans-63"/>
     <use xlink:href="#DejaVuSans-6f" transform="translate(54.980469 0)"/>
     <use xlink:href="#DejaVuSans-73" transform="translate(116.162109 0)"/>
     <use xlink:href="#DejaVuSans-74" transform="translate(168.261719 0)"/>
     <use xlink:href="#DejaVuSans-20" transform="translate(207.470703 0)"/>
     <use xlink:href="#DejaVuSans-6f" transform="translate(239.257812 0)"/>
     <use xlink:href="#DejaVuSans-66" transform="translate(300.439453 0)"/>
     <use xlink:href="#DejaVuSans-20" transform="translate(335.644531 0)"/>
     <use xlink:href="#DejaVuSans-6d" transform="translate(367.431641 0)"/>
     <use xlink:href="#DejaVuSans-69" transform="translate(464.84375 0)"/>
     <use xlink:href="#DejaVuSans-64" transform="translate(492.626953 0)"/>
     <use xlink:href="#DejaVuSans-6d" transform="translate(556.103516 0)"/>
     <use xlink:href="#DejaVuSans-75" transform="translate(653.515625 0)"/>
     <use xlink:href="#DejaVuSans-6c" transform="translate(716.894531 0)"/>
     <use xlink:href="#DejaVuSans-27" transform="translate(744.677734 0)"/>
     <use xlink:href="#DejaVuSans-73" transform="translate(772.167969 0)"/>
     <use xlink:href="#DejaVuSans-20" transform="translate(824.267578 0)"/>
     <use xlink:href="#DejaVuSans-65" transform="translate(856.054688 0)"/>
     <use xlink:href="#DejaVuSans-78" transform="translate(915.828125 0)"/>
     <use xlink:href="#DejaVuSans-74" transform="translate(975.007812 0)"/>
     <use xlink:href="#DejaVuSans-72" transform="translate(1014.216797 0)"/>
     <use xlink:href="#DejaVuSans-61" transform="translate(1055.330078 0)"/>
     <use xlink:href="#DejaVuSans-20" transform="translate(1116.609375 0)"/>
     <use xlink:href="#DejaVuSans-61" transform="translate(1148.396484 0)"/>
     <use xlink:href="#DejaVuSans-6c" transform="translate(1209.675781 0)"/>
     <use xlink:href="#DejaVuSans-69" transform="translate(1237.458984 0)"/>
     <use xlink:href="#DejaVuSans-67" transform="translate(1265.242188 0)"/>
     <use xlink:href="#DejaVuSans-6e" transform="translate(1328.71875 0)"/>
     <use xlink:href="#DejaVuSans-20" transform="translate(1392.097656 0)"/>
     <use xlink:href="#DejaVuSans-6f" transform="translate(1423.884766 0)"/>
     <use xlink:href="#DejaVuSans-70" transform="translate(1485.066406 0)"/>
     <use xlink:href="#DejaVuSans-73" transform="translate(1548.542969 0)"/>
    </g>
   </g>
  </g>
 </g>
 <defs>
  <clipPath id="p4213fb1e77">
   <rect x="44.76125" y="26.16" width="449.06875" height="327.52"/>
  </clipPath>
  <clipPath id="p4fabc59795">
   <rect x="548.13125" y="26.16" width="449.06875" height="327.52"/>
  </clipPath>
 </defs>
</svg>
