<?xml version="1.0" encoding="utf-8" standalone="no"?>
<!DOCTYPE svg PUBLIC "-//W3C//DTD SVG 1.1//EN"
  "http://www.w3.org/Graphics/SVG/1.1/DTD/svg11.dtd">
<svg xmlns:xlink="http://www.w3.org/1999/xlink" width="1008pt" height="396pt" viewBox="0 0 1008 396" xmlns="http://www.w3.org/2000/svg" version="1.1">
 <metadata>
  <rdf:RDF xmlns:dc="http://purl.org/dc/elements/1.1/" xmlns:cc="http://creativecommons.org/ns#" xmlns:rdf="http://www.w3.org/1999/02/22-rdf-syntax-ns#">
   <cc:Work>
    <dc:type rdf:resource="http://purl.org/dc/dcmitype/StillImage"/>
    <dc:date>2026-07-01T17:47:52.486687</dc:date>
    <dc:format>image/svg+xml</dc:format>
    <dc:creator>
     <cc:Agent>
      <dc:title>Matplotlib v3.10.7+dfsg1, https://matplotlib.org/</dc:title>
     </cc:Agent>
    </dc:creator>
   </cc:Work>
  </rdf:RDF>
 </metadata>
 <defs>
  <style type="text/css">*{stroke-linejoin: round; stroke-linecap: butt}</style>
 </defs>
 <g id="figure_1">
  <g id="patch_1">
   <path d="M 0 396 
L 1008 396 
L 1008 0 
L 0 0 
z
" style="fill: #ffffff"/>
  </g>
  <g id="axes_1">
   <g id="patch_2">
    <path d="M 47.91125 354.04 
L 498.6 354.04 
L 498.6 25.44 
L 47.91125 25.44 
z
" style="fill: #ffffff"/>
   </g>
   <g id="matplotlib.axis_1">
    <g id="xtick_1">
     <g id="line2d_1">
      <path d="M 109.368807 354.04 
L 109.368807 25.44 
" clip-path="url(#peb4daec3aa)" style="fill: none; stroke: #b0b0b0; stroke-opacity: 0.3; stroke-width: 0.8; stroke-linecap: square"/>
     </g>
     <g id="line2d_2">
      <defs>
       <path id="m3689c91034" d="M 0 0 
L 0 3.5 
" style="stroke: #000000; stroke-width: 0.8"/>
      </defs>
      <g>
       <use xlink:href="#m3689c91034" x="109.368807" y="354.04" style="stroke: #000000; stroke-width: 0.8"/>
      </g>
     </g>
     <g id="text_1">
      <!-- 20 -->
      <g transform="translate(103.006307 368.638437) scale(0.1 -0.1)">
       <defs>
        <path id="DejaVuSans-32" d="M 1228 531 
L 3431 531 
L 3431 0 
L 469 0 
L 469 531 
Q 828 903 1448 1529 
Q 2069 2156 2228 2338 
Q 2531 2678 2651 2914 
Q 2772 3150 2772 3378 
Q 2772 3750 2511 3984 
Q 2250 4219 1831 4219 
Q 1534 4219 1204 4116 
Q 875 4013 500 3803 
L 500 4441 
Q 881 4594 1212 4672 
Q 1544 4750 1819 4750 
Q 2544 4750 2975 4387 
Q 3406 4025 3406 3419 
Q 3406 3131 3298 2873 
Q 3191 2616 2906 2266 
Q 2828 2175 2409 1742 
Q 1991 1309 1228 531 
z
" transform="scale(0.015625)"/>
        <path id="DejaVuSans-30" d="M 2034 4250 
Q 1547 4250 1301 3770 
Q 1056 3291 1056 2328 
Q 1056 1369 1301 889 
Q 1547 409 2034 409 
Q 2525 409 2770 889 
Q 3016 1369 3016 2328 
Q 3016 3291 2770 3770 
Q 2525 4250 2034 4250 
z
M 2034 4750 
Q 2819 4750 3233 4129 
Q 3647 3509 3647 2328 
Q 3647 1150 3233 529 
Q 2819 -91 2034 -91 
Q 1250 -91 836 529 
Q 422 1150 422 2328 
Q 422 3509 836 4129 
Q 1250 4750 2034 4750 
z
" transform="scale(0.015625)"/>
       </defs>
       <use xlink:href="#DejaVuSans-32"/>
       <use xlink:href="#DejaVuSans-30" transform="translate(63.623047 0)"/>
      </g>
     </g>
    </g>
    <g id="xtick_2">
     <g id="line2d_3">
      <path d="M 177.654981 354.04 
L 177.654981 25.44 
" clip-path="url(#peb4daec3aa)" style="fill: none; stroke: #b0b0b0; stroke-opacity: 0.3; stroke-width: 0.8; stroke-linecap: square"/>
     </g>
     <g id="line2d_4">
      <g>
       <use xlink:href="#m3689c91034" x="177.654981" y="354.04" style="stroke: #000000; stroke-width: 0.8"/>
      </g>
     </g>
     <g id="text_2">
      <!-- 40 -->
      <g transform="translate(171.292481 368.638437) scale(0.1 -0.1)">
       <defs>
        <path id="DejaVuSans-34" d="M 2419 4116 
L 825 1625 
L 2419 1625 
L 2419 4116 
z
M 2253 4666 
L 3047 4666 
L 3047 1625 
L 3713 1625 
L 3713 1100 
L 3047 1100 
L 3047 0 
L 2419 0 
L 2419 1100 
L 313 1100 
L 313 1709 
L 2253 4666 
z
" transform="scale(0.015625)"/>
       </defs>
       <use xlink:href="#DejaVuSans-34"/>
       <use xlink:href="#DejaVuSans-30" transform="translate(63.623047 0)"/>
      </g>
     </g>
    </g>
    <g id="xtick_3">
     <g id="line2d_5">
      <path d="M 245.941155 354.04 
L 245.941155 25.44 
" clip-path="url(#peb4daec3aa)" style="fill: none; stroke: #b0b0b0; stroke-opacity: 0.3; stroke-width: 0.8; stroke-linecap: square"/>
     </g>
     <g id="line2d_6">
      <g>
       <use xlink:href="#m3689c91034" x="245.941155" y="354.04" style="stroke: #000000; stroke-width: 0.8"/>
      </g>
     </g>
     <g id="text_3">
      <!-- 60 -->
      <g transform="translate(239.578655 368.638437) scale(0.1 -0.1)">
       <defs>
        <path id="DejaVuSans-36" d="M 2113 2584 
Q 1688 2584 1439 2293 
Q 1191 2003 1191 1497 
Q 1191 994 1439 701 
Q 1688 409 2113 409 
Q 2538 409 2786 701 
Q 3034 994 3034 1497 
Q 3034 2003 2786 2293 
Q 2538 2584 2113 2584 
z
M 3366 4563 
L 3366 3988 
Q 3128 4100 2886 4159 
Q 2644 4219 2406 4219 
Q 1781 4219 1451 3797 
Q 1122 3375 1075 2522 
Q 1259 2794 1537 2939 
Q 1816 3084 2150 3084 
Q 2853 3084 3261 2657 
Q 3669 2231 3669 1497 
Q 3669 778 3244 343 
Q 2819 -91 2113 -91 
Q 1303 -91 875 529 
Q 447 1150 447 2328 
Q 447 3434 972 4092 
Q 1497 4750 2381 4750 
Q 2619 4750 2861 4703 
Q 3103 4656 3366 4563 
z
" transform="scale(0.015625)"/>
       </defs>
       <use xlink:href="#DejaVuSans-36"/>
       <use xlink:href="#DejaVuSans-30" transform="translate(63.623047 0)"/>
      </g>
     </g>
    </g>
    <g id="xtick_4">
     <g id="line2d_7">
      <path d="M 314.22733 354.04 
L 314.22733 25.44 
" clip-path="url(#peb4daec3aa)" style="fill: none; stroke: #b0b0b0; stroke-opacity: 0.3; stroke-width: 0.8; stroke-linecap: square"/>
     </g>
     <g id="line2d_8">
      <g>
       <use xlink:href="#m3689c91034" x="314.22733" y="354.04" style="stroke: #000000; stroke-width: 0.8"/>
      </g>
     </g>
     <g id="text_4">
      <!-- 80 -->
      <g transform="translate(307.86483 368.638437) scale(0.1 -0.1)">
       <defs>
        <path id="DejaVuSans-38" d="M 2034 2216 
Q 1584 2216 1326 1975 
Q 1069 1734 1069 1313 
Q 1069 891 1326 650 
Q 1584 409 2034 409 
Q 2484 409 2743 651 
Q 3003 894 3003 1313 
Q 3003 1734 2745 1975 
Q 2488 2216 2034 2216 
z
M 1403 2484 
Q 997 2584 770 2862 
Q 544 3141 544 3541 
Q 544 4100 942 4425 
Q 1341 4750 2034 4750 
Q 2731 4750 3128 4425 
Q 3525 4100 3525 3541 
Q 3525 3141 3298 2862 
Q 3072 2584 2669 2484 
Q 3125 2378 3379 2068 
Q 3634 1759 3634 1313 
Q 3634 634 3220 271 
Q 2806 -91 2034 -91 
Q 1263 -91 848 271 
Q 434 634 434 1313 
Q 434 1759 690 2068 
Q 947 2378 1403 2484 
z
M 1172 3481 
Q 1172 3119 1398 2916 
Q 1625 2713 2034 2713 
Q 2441 2713 2670 2916 
Q 2900 3119 2900 3481 
Q 2900 3844 2670 4047 
Q 2441 4250 2034 4250 
Q 1625 4250 1398 4047 
Q 1172 3844 1172 3481 
z
" transform="scale(0.015625)"/>
       </defs>
       <use xlink:href="#DejaVuSans-38"/>
       <use xlink:href="#DejaVuSans-30" transform="translate(63.623047 0)"/>
      </g>
     </g>
    </g>
    <g id="xtick_5">
     <g id="line2d_9">
      <path d="M 382.513504 354.04 
L 382.513504 25.44 
" clip-path="url(#peb4daec3aa)" style="fill: none; stroke: #b0b0b0; stroke-opacity: 0.3; stroke-width: 0.8; stroke-linecap: square"/>
     </g>
     <g id="line2d_10">
      <g>
       <use xlink:href="#m3689c91034" x="382.513504" y="354.04" style="stroke: #000000; stroke-width: 0.8"/>
      </g>
     </g>
     <g id="text_5">
      <!-- 100 -->
      <g transform="translate(372.969754 368.638437) scale(0.1 -0.1)">
       <defs>
        <path id="DejaVuSans-31" d="M 794 531 
L 1825 531 
L 1825 4091 
L 703 3866 
L 703 4441 
L 1819 4666 
L 2450 4666 
L 2450 531 
L 3481 531 
L 3481 0 
L 794 0 
L 794 531 
z
" transform="scale(0.015625)"/>
       </defs>
       <use xlink:href="#DejaVuSans-31"/>
       <use xlink:href="#DejaVuSans-30" transform="translate(63.623047 0)"/>
       <use xlink:href="#DejaVuSans-30" transform="translate(127.246094 0)"/>
      </g>
     </g>
    </g>
    <g id="xtick_6">
     <g id="line2d_11">
      <path d="M 450.799678 354.04 
L 450.799678 25.44 
" clip-path="url(#peb4daec3aa)" style="fill: none; stroke: #b0b0b0; stroke-opacity: 0.3; stroke-width: 0.8; stroke-linecap: square"/>
     </g>
     <g id="line2d_12">
      <g>
       <use xlink:href="#m3689c91034" x="450.799678" y="354.04" style="stroke: #000000; stroke-width: 0.8"/>
      </g>
     </g>
     <g id="text_6">
      <!-- 120 -->
      <g transform="translate(441.255928 368.638437) scale(0.1 -0.1)">
       <use xlink:href="#DejaVuSans-31"/>
       <use xlink:href="#DejaVuSans-32" transform="translate(63.623047 0)"/>
       <use xlink:href="#DejaVuSans-30" transform="translate(127.246094 0)"/>
      </g>
     </g>
    </g>
    <g id="text_7">
     <!-- n  (an=n, bn=2n) -->
     <g transform="translate(229.354844 382.316562) scale(0.1 -0.1)">
      <defs>
       <path id="DejaVuSans-6e" d="M 3513 2113 
L 3513 0 
L 2938 0 
L 2938 2094 
Q 2938 2591 2744 2837 
Q 2550 3084 2163 3084 
Q 1697 3084 1428 2787 
Q 1159 2491 1159 1978 
L 1159 0 
L 581 0 
L 581 3500 
L 1159 3500 
L 1159 2956 
Q 1366 3272 1645 3428 
Q 1925 3584 2291 3584 
Q 2894 3584 3203 3211 
Q 3513 2838 3513 2113 
z
" transform="scale(0.015625)"/>
       <path id="DejaVuSans-20" transform="scale(0.015625)"/>
       <path id="DejaVuSans-28" d="M 1984 4856 
Q 1566 4138 1362 3434 
Q 1159 2731 1159 2009 
Q 1159 1288 1364 580 
Q 1569 -128 1984 -844 
L 1484 -844 
Q 1016 -109 783 600 
Q 550 1309 550 2009 
Q 550 2706 781 3412 
Q 1013 4119 1484 4856 
L 1984 4856 
z
" transform="scale(0.015625)"/>
       <path id="DejaVuSans-61" d="M 2194 1759 
Q 1497 1759 1228 1600 
Q 959 1441 959 1056 
Q 959 750 1161 570 
Q 1363 391 1709 391 
Q 2188 391 2477 730 
Q 2766 1069 2766 1631 
L 2766 1759 
L 2194 1759 
z
M 3341 1997 
L 3341 0 
L 2766 0 
L 2766 531 
Q 2569 213 2275 61 
Q 1981 -91 1556 -91 
Q 1019 -91 701 211 
Q 384 513 384 1019 
Q 384 1609 779 1909 
Q 1175 2209 1959 2209 
L 2766 2209 
L 2766 2266 
Q 2766 2663 2505 2880 
Q 2244 3097 1772 3097 
Q 1472 3097 1187 3025 
Q 903 2953 641 2809 
L 641 3341 
Q 956 3463 1253 3523 
Q 1550 3584 1831 3584 
Q 2591 3584 2966 3190 
Q 3341 2797 3341 1997 
z
" transform="scale(0.015625)"/>
       <path id="DejaVuSans-3d" d="M 678 2906 
L 4684 2906 
L 4684 2381 
L 678 2381 
L 678 2906 
z
M 678 1631 
L 4684 1631 
L 4684 1100 
L 678 1100 
L 678 1631 
z
" transform="scale(0.015625)"/>
       <path id="DejaVuSans-2c" d="M 750 794 
L 1409 794 
L 1409 256 
L 897 -744 
L 494 -744 
L 750 256 
L 750 794 
z
" transform="scale(0.015625)"/>
       <path id="DejaVuSans-62" d="M 3116 1747 
Q 3116 2381 2855 2742 
Q 2594 3103 2138 3103 
Q 1681 3103 1420 2742 
Q 1159 2381 1159 1747 
Q 1159 1113 1420 752 
Q 1681 391 2138 391 
Q 2594 391 2855 752 
Q 3116 1113 3116 1747 
z
M 1159 2969 
Q 1341 3281 1617 3432 
Q 1894 3584 2278 3584 
Q 2916 3584 3314 3078 
Q 3713 2572 3713 1747 
Q 3713 922 3314 415 
Q 2916 -91 2278 -91 
Q 1894 -91 1617 61 
Q 1341 213 1159 525 
L 1159 0 
L 581 0 
L 581 4863 
L 1159 4863 
L 1159 2969 
z
" transform="scale(0.015625)"/>
       <path id="DejaVuSans-29" d="M 513 4856 
L 1013 4856 
Q 1481 4119 1714 3412 
Q 1947 2706 1947 2009 
Q 1947 1309 1714 600 
Q 1481 -109 1013 -844 
L 513 -844 
Q 928 -128 1133 580 
Q 1338 1288 1338 2009 
Q 1338 2731 1133 3434 
Q 928 4138 513 4856 
z
" transform="scale(0.015625)"/>
      </defs>
      <use xlink:href="#DejaVuSans-6e"/>
      <use xlink:href="#DejaVuSans-20" transform="translate(63.378906 0)"/>
      <use xlink:href="#DejaVuSans-20" transform="translate(95.166016 0)"/>
      <use xlink:href="#DejaVuSans-28" transform="translate(126.953125 0)"/>
      <use xlink:href="#DejaVuSans-61" transform="translate(165.966797 0)"/>
      <use xlink:href="#DejaVuSans-6e" transform="translate(227.246094 0)"/>
      <use xlink:href="#DejaVuSans-3d" transform="translate(290.625 0)"/>
      <use xlink:href="#DejaVuSans-6e" transform="translate(374.414062 0)"/>
      <use xlink:href="#DejaVuSans-2c" transform="translate(437.792969 0)"/>
      <use xlink:href="#DejaVuSans-20" transform="translate(469.580078 0)"/>
      <use xlink:href="#DejaVuSans-62" transform="translate(501.367188 0)"/>
      <use xlink:href="#DejaVuSans-6e" transform="translate(564.84375 0)"/>
      <use xlink:href="#DejaVuSans-3d" transform="translate(628.222656 0)"/>
      <use xlink:href="#DejaVuSans-32" transform="translate(712.011719 0)"/>
      <use xlink:href="#DejaVuSans-6e" transform="translate(775.634766 0)"/>
      <use xlink:href="#DejaVuSans-29" transform="translate(839.013672 0)"/>
     </g>
    </g>
   </g>
   <g id="matplotlib.axis_2">
    <g id="ytick_1">
     <g id="line2d_13">
      <path d="M 47.91125 336.965067 
L 498.6 336.965067 
" clip-path="url(#peb4daec3aa)" style="fill: none; stroke: #b0b0b0; stroke-opacity: 0.3; stroke-width: 0.8; stroke-linecap: square"/>
     </g>
     <g id="line2d_14">
      <defs>
       <path id="m452554fd00" d="M 0 0 
L -3.5 0 
" style="stroke: #000000; stroke-width: 0.8"/>
      </defs>
      <g>
       <use xlink:href="#m452554fd00" x="47.91125" y="336.965067" style="stroke: #000000; stroke-width: 0.8"/>
      </g>
     </g>
     <g id="text_8">
      <!-- 0.5 -->
      <g transform="translate(25.008125 340.764286) scale(0.1 -0.1)">
       <defs>
        <path id="DejaVuSans-2e" d="M 684 794 
L 1344 794 
L 1344 0 
L 684 0 
L 684 794 
z
" transform="scale(0.015625)"/>
        <path id="DejaVuSans-35" d="M 691 4666 
L 3169 4666 
L 3169 4134 
L 1269 4134 
L 1269 2991 
Q 1406 3038 1543 3061 
Q 1681 3084 1819 3084 
Q 2600 3084 3056 2656 
Q 3513 2228 3513 1497 
Q 3513 744 3044 326 
Q 2575 -91 1722 -91 
Q 1428 -91 1123 -41 
Q 819 9 494 109 
L 494 744 
Q 775 591 1075 516 
Q 1375 441 1709 441 
Q 2250 441 2565 725 
Q 2881 1009 2881 1497 
Q 2881 1984 2565 2268 
Q 2250 2553 1709 2553 
Q 1456 2553 1204 2497 
Q 953 2441 691 2322 
L 691 4666 
z
" transform="scale(0.015625)"/>
       </defs>
       <use xlink:href="#DejaVuSans-30"/>
       <use xlink:href="#DejaVuSans-2e" transform="translate(63.623047 0)"/>
       <use xlink:href="#DejaVuSans-35" transform="translate(95.410156 0)"/>
      </g>
     </g>
    </g>
    <g id="ytick_2">
     <g id="line2d_15">
      <path d="M 47.91125 292.935699 
L 498.6 292.935699 
" clip-path="url(#peb4daec3aa)" style="fill: none; stroke: #b0b0b0; stroke-opacity: 0.3; stroke-width: 0.8; stroke-linecap: square"/>
     </g>
     <g id="line2d_16">
      <g>
       <use xlink:href="#m452554fd00" x="47.91125" y="292.935699" style="stroke: #000000; stroke-width: 0.8"/>
      </g>
     </g>
     <g id="text_9">
      <!-- 1.0 -->
      <g transform="translate(25.008125 296.734918) scale(0.1 -0.1)">
       <use xlink:href="#DejaVuSans-31"/>
       <use xlink:href="#DejaVuSans-2e" transform="translate(63.623047 0)"/>
       <use xlink:href="#DejaVuSans-30" transform="translate(95.410156 0)"/>
      </g>
     </g>
    </g>
    <g id="ytick_3">
     <g id="line2d_17">
      <path d="M 47.91125 248.906331 
L 498.6 248.906331 
" clip-path="url(#peb4daec3aa)" style="fill: none; stroke: #b0b0b0; stroke-opacity: 0.3; stroke-width: 0.8; stroke-linecap: square"/>
     </g>
     <g id="line2d_18">
      <g>
       <use xlink:href="#m452554fd00" x="47.91125" y="248.906331" style="stroke: #000000; stroke-width: 0.8"/>
      </g>
     </g>
     <g id="text_10">
      <!-- 1.5 -->
      <g transform="translate(25.008125 252.70555) scale(0.1 -0.1)">
       <use xlink:href="#DejaVuSans-31"/>
       <use xlink:href="#DejaVuSans-2e" transform="translate(63.623047 0)"/>
       <use xlink:href="#DejaVuSans-35" transform="translate(95.410156 0)"/>
      </g>
     </g>
    </g>
    <g id="ytick_4">
     <g id="line2d_19">
      <path d="M 47.91125 204.876963 
L 498.6 204.876963 
" clip-path="url(#peb4daec3aa)" style="fill: none; stroke: #b0b0b0; stroke-opacity: 0.3; stroke-width: 0.8; stroke-linecap: square"/>
     </g>
     <g id="line2d_20">
      <g>
       <use xlink:href="#m452554fd00" x="47.91125" y="204.876963" style="stroke: #000000; stroke-width: 0.8"/>
      </g>
     </g>
     <g id="text_11">
      <!-- 2.0 -->
      <g transform="translate(25.008125 208.676181) scale(0.1 -0.1)">
       <use xlink:href="#DejaVuSans-32"/>
       <use xlink:href="#DejaVuSans-2e" transform="translate(63.623047 0)"/>
       <use xlink:href="#DejaVuSans-30" transform="translate(95.410156 0)"/>
      </g>
     </g>
    </g>
    <g id="ytick_5">
     <g id="line2d_21">
      <path d="M 47.91125 160.847594 
L 498.6 160.847594 
" clip-path="url(#peb4daec3aa)" style="fill: none; stroke: #b0b0b0; stroke-opacity: 0.3; stroke-width: 0.8; stroke-linecap: square"/>
     </g>
     <g id="line2d_22">
      <g>
       <use xlink:href="#m452554fd00" x="47.91125" y="160.847594" style="stroke: #000000; stroke-width: 0.8"/>
      </g>
     </g>
     <g id="text_12">
      <!-- 2.5 -->
      <g transform="translate(25.008125 164.646813) scale(0.1 -0.1)">
       <use xlink:href="#DejaVuSans-32"/>
       <use xlink:href="#DejaVuSans-2e" transform="translate(63.623047 0)"/>
       <use xlink:href="#DejaVuSans-35" transform="translate(95.410156 0)"/>
      </g>
     </g>
    </g>
    <g id="ytick_6">
     <g id="line2d_23">
      <path d="M 47.91125 116.818226 
L 498.6 116.818226 
" clip-path="url(#peb4daec3aa)" style="fill: none; stroke: #b0b0b0; stroke-opacity: 0.3; stroke-width: 0.8; stroke-linecap: square"/>
     </g>
     <g id="line2d_24">
      <g>
       <use xlink:href="#m452554fd00" x="47.91125" y="116.818226" style="stroke: #000000; stroke-width: 0.8"/>
      </g>
     </g>
     <g id="text_13">
      <!-- 3.0 -->
      <g transform="translate(25.008125 120.617445) scale(0.1 -0.1)">
       <defs>
        <path id="DejaVuSans-33" d="M 2597 2516 
Q 3050 2419 3304 2112 
Q 3559 1806 3559 1356 
Q 3559 666 3084 287 
Q 2609 -91 1734 -91 
Q 1441 -91 1130 -33 
Q 819 25 488 141 
L 488 750 
Q 750 597 1062 519 
Q 1375 441 1716 441 
Q 2309 441 2620 675 
Q 2931 909 2931 1356 
Q 2931 1769 2642 2001 
Q 2353 2234 1838 2234 
L 1294 2234 
L 1294 2753 
L 1863 2753 
Q 2328 2753 2575 2939 
Q 2822 3125 2822 3475 
Q 2822 3834 2567 4026 
Q 2313 4219 1838 4219 
Q 1578 4219 1281 4162 
Q 984 4106 628 3988 
L 628 4550 
Q 988 4650 1302 4700 
Q 1616 4750 1894 4750 
Q 2613 4750 3031 4423 
Q 3450 4097 3450 3541 
Q 3450 3153 3228 2886 
Q 3006 2619 2597 2516 
z
" transform="scale(0.015625)"/>
       </defs>
       <use xlink:href="#DejaVuSans-33"/>
       <use xlink:href="#DejaVuSans-2e" transform="translate(63.623047 0)"/>
       <use xlink:href="#DejaVuSans-30" transform="translate(95.410156 0)"/>
      </g>
     </g>
    </g>
    <g id="ytick_7">
     <g id="line2d_25">
      <path d="M 47.91125 72.788858 
L 498.6 72.788858 
" clip-path="url(#peb4daec3aa)" style="fill: none; stroke: #b0b0b0; stroke-opacity: 0.3; stroke-width: 0.8; stroke-linecap: square"/>
     </g>
     <g id="line2d_26">
      <g>
       <use xlink:href="#m452554fd00" x="47.91125" y="72.788858" style="stroke: #000000; stroke-width: 0.8"/>
      </g>
     </g>
     <g id="text_14">
      <!-- 3.5 -->
      <g transform="translate(25.008125 76.588077) scale(0.1 -0.1)">
       <use xlink:href="#DejaVuSans-33"/>
       <use xlink:href="#DejaVuSans-2e" transform="translate(63.623047 0)"/>
       <use xlink:href="#DejaVuSans-35" transform="translate(95.410156 0)"/>
      </g>
     </g>
    </g>
    <g id="ytick_8">
     <g id="line2d_27">
      <path d="M 47.91125 28.75949 
L 498.6 28.75949 
" clip-path="url(#peb4daec3aa)" style="fill: none; stroke: #b0b0b0; stroke-opacity: 0.3; stroke-width: 0.8; stroke-linecap: square"/>
     </g>
     <g id="line2d_28">
      <g>
       <use xlink:href="#m452554fd00" x="47.91125" y="28.75949" style="stroke: #000000; stroke-width: 0.8"/>
      </g>
     </g>
     <g id="text_15">
      <!-- 4.0 -->
      <g transform="translate(25.008125 32.558709) scale(0.1 -0.1)">
       <use xlink:href="#DejaVuSans-34"/>
       <use xlink:href="#DejaVuSans-2e" transform="translate(63.623047 0)"/>
       <use xlink:href="#DejaVuSans-30" transform="translate(95.410156 0)"/>
      </g>
     </g>
    </g>
    <g id="text_16">
     <!-- ns / n_limb -->
     <g transform="translate(18.650312 216.867344) rotate(-90) scale(0.1 -0.1)">
      <defs>
       <path id="DejaVuSans-73" d="M 2834 3397 
L 2834 2853 
Q 2591 2978 2328 3040 
Q 2066 3103 1784 3103 
Q 1356 3103 1142 2972 
Q 928 2841 928 2578 
Q 928 2378 1081 2264 
Q 1234 2150 1697 2047 
L 1894 2003 
Q 2506 1872 2764 1633 
Q 3022 1394 3022 966 
Q 3022 478 2636 193 
Q 2250 -91 1575 -91 
Q 1294 -91 989 -36 
Q 684 19 347 128 
L 347 722 
Q 666 556 975 473 
Q 1284 391 1588 391 
Q 1994 391 2212 530 
Q 2431 669 2431 922 
Q 2431 1156 2273 1281 
Q 2116 1406 1581 1522 
L 1381 1569 
Q 847 1681 609 1914 
Q 372 2147 372 2553 
Q 372 3047 722 3315 
Q 1072 3584 1716 3584 
Q 2034 3584 2315 3537 
Q 2597 3491 2834 3397 
z
" transform="scale(0.015625)"/>
       <path id="DejaVuSans-2f" d="M 1625 4666 
L 2156 4666 
L 531 -594 
L 0 -594 
L 1625 4666 
z
" transform="scale(0.015625)"/>
       <path id="DejaVuSans-5f" d="M 3263 -1063 
L 3263 -1509 
L -63 -1509 
L -63 -1063 
L 3263 -1063 
z
" transform="scale(0.015625)"/>
       <path id="DejaVuSans-6c" d="M 603 4863 
L 1178 4863 
L 1178 0 
L 603 0 
L 603 4863 
z
" transform="scale(0.015625)"/>
       <path id="DejaVuSans-69" d="M 603 3500 
L 1178 3500 
L 1178 0 
L 603 0 
L 603 3500 
z
M 603 4863 
L 1178 4863 
L 1178 4134 
L 603 4134 
L 603 4863 
z
" transform="scale(0.015625)"/>
       <path id="DejaVuSans-6d" d="M 3328 2828 
Q 3544 3216 3844 3400 
Q 4144 3584 4550 3584 
Q 5097 3584 5394 3201 
Q 5691 2819 5691 2113 
L 5691 0 
L 5113 0 
L 5113 2094 
Q 5113 2597 4934 2840 
Q 4756 3084 4391 3084 
Q 3944 3084 3684 2787 
Q 3425 2491 3425 1978 
L 3425 0 
L 2847 0 
L 2847 2094 
Q 2847 2600 2669 2842 
Q 2491 3084 2119 3084 
Q 1678 3084 1418 2786 
Q 1159 2488 1159 1978 
L 1159 0 
L 581 0 
L 581 3500 
L 1159 3500 
L 1159 2956 
Q 1356 3278 1631 3431 
Q 1906 3584 2284 3584 
Q 2666 3584 2933 3390 
Q 3200 3197 3328 2828 
z
" transform="scale(0.015625)"/>
      </defs>
      <use xlink:href="#DejaVuSans-6e"/>
      <use xlink:href="#DejaVuSans-73" transform="translate(63.378906 0)"/>
      <use xlink:href="#DejaVuSans-20" transform="translate(115.478516 0)"/>
      <use xlink:href="#DejaVuSans-2f" transform="translate(147.265625 0)"/>
      <use xlink:href="#DejaVuSans-20" transform="translate(180.957031 0)"/>
      <use xlink:href="#DejaVuSans-6e" transform="translate(212.744141 0)"/>
      <use xlink:href="#DejaVuSans-5f" transform="translate(276.123047 0)"/>
      <use xlink:href="#DejaVuSans-6c" transform="translate(326.123047 0)"/>
      <use xlink:href="#DejaVuSans-69" transform="translate(353.90625 0)"/>
      <use xlink:href="#DejaVuSans-6d" transform="translate(381.689453 0)"/>
      <use xlink:href="#DejaVuSans-62" transform="translate(479.101562 0)"/>
     </g>
    </g>
   </g>
   <g id="line2d_29">
    <path d="M 68.397102 324.229572 
L 71.811411 330.448721 
L 75.22572 333.372271 
L 78.640028 335.932378 
L 82.054337 336.407362 
L 85.468646 337.296981 
L 88.882955 339.103636 
L 92.297263 336.196021 
L 95.711572 319.490912 
L 99.125881 320.461824 
L 102.540189 320.537221 
L 105.954498 320.993993 
L 109.368807 321.259791 
L 112.783116 321.87767 
L 116.197424 322.303287 
L 119.611733 321.642847 
L 123.026042 302.545109 
L 126.44035 303.139945 
L 129.854659 303.235184 
L 133.268968 302.677604 
L 136.683277 302.27936 
L 140.097585 302.591795 
L 143.511894 302.396142 
L 146.926203 281.854501 
L 150.340511 281.661429 
L 153.75482 283.006409 
L 157.169129 282.889233 
L 160.583438 282.278076 
L 163.997746 282.102028 
L 167.412055 282.43767 
L 170.826364 282.248149 
L 174.240672 282.219628 
L 177.654981 262.013874 
L 181.06929 263.266348 
L 184.483598 263.215875 
L 187.897907 262.43461 
L 191.312216 262.349297 
L 194.726525 262.40867 
L 198.140833 262.700923 
L 201.555142 262.3025 
L 204.969451 241.999224 
L 208.383759 242.934511 
L 211.798068 242.6841 
L 215.212377 242.258759 
L 218.626686 242.076698 
L 222.040994 242.484689 
L 225.455303 242.632961 
L 228.869612 242.545288 
L 232.28392 222.046844 
L 235.698229 222.490255 
L 239.112538 222.848536 
L 242.526847 221.611108 
L 245.941155 221.608123 
L 249.355464 222.62152 
L 252.769773 221.980242 
L 256.184081 222.197976 
L 259.59839 201.764637 
L 263.012699 201.965605 
L 266.427008 201.528062 
L 269.841316 201.567531 
L 273.255625 201.364973 
L 276.669934 202.145866 
L 280.084242 201.876676 
L 283.498551 201.830874 
L 286.91286 181.031391 
L 290.327169 181.622219 
L 293.741477 181.34386 
L 297.155786 181.223212 
L 300.570095 181.606283 
L 303.984403 181.836451 
L 307.398712 181.653164 
L 310.813021 181.607163 
L 314.22733 161.434286 
L 317.641638 161.441176 
L 321.055947 161.031229 
L 324.470256 160.957933 
L 327.884564 160.696637 
L 331.298873 160.999884 
L 334.713182 162.206361 
L 338.127491 158.205832 
L 341.541799 138.600756 
L 344.956108 141.105617 
L 348.370417 141.585235 
L 351.784725 141.187272 
L 355.199034 140.940577 
L 358.613343 141.652684 
L 362.027652 141.028758 
L 365.44196 141.307824 
L 368.856269 120.483671 
L 372.270578 121.764949 
L 375.684886 121.203192 
L 379.099195 119.999904 
L 382.513504 120.330889 
L 385.927813 120.966577 
L 389.342121 121.080442 
L 392.75643 121.051885 
L 396.170739 100.747507 
L 399.585047 100.772247 
L 402.999356 100.294752 
L 406.413665 100.276352 
L 409.827973 99.979439 
L 413.242282 101.069446 
L 416.656591 101.260649 
L 420.0709 100.611452 
L 423.485208 80.564759 
L 426.899517 80.985334 
L 430.313826 80.030531 
L 433.728134 79.45299 
L 437.142443 79.985382 
L 440.556752 80.80973 
L 443.971061 81.465629 
L 447.385369 80.229451 
L 450.799678 60.015205 
L 454.213987 60.186998 
L 457.628295 60.316998 
L 461.042604 59.506307 
L 464.456913 59.677338 
L 467.871222 60.760739 
L 471.28553 60.888349 
L 474.699839 59.529431 
L 478.114148 40.376364 
" clip-path="url(#peb4daec3aa)" style="fill: none; stroke: #1f77b4; stroke-width: 1.1; stroke-linecap: square"/>
   </g>
   <g id="line2d_30">
    <path d="M 68.397102 316.986741 
L 71.811411 305.136726 
L 75.22572 307.544643 
L 78.640028 313.405352 
L 82.054337 315.001751 
L 85.468646 317.78181 
L 88.882955 319.611206 
L 92.297263 332.526907 
L 95.711572 318.472732 
L 99.125881 306.988837 
L 102.540189 305.043775 
L 105.954498 307.771279 
L 109.368807 310.371329 
L 112.783116 310.232951 
L 116.197424 313.713558 
L 119.611733 320.475112 
L 123.026042 304.647511 
L 126.44035 293.812764 
L 129.854659 298.093909 
L 133.268968 298.845419 
L 136.683277 296.967531 
L 140.097585 298.070434 
L 143.511894 296.346507 
L 146.926203 254.567655 
L 150.340511 291.702877 
L 153.75482 283.086463 
L 157.169129 283.759461 
L 160.583438 283.895841 
L 163.997746 281.170073 
L 167.412055 280.271901 
L 170.826364 279.527598 
L 174.240672 282.185759 
L 177.654981 272.838494 
L 181.06929 261.752167 
L 184.483598 265.415247 
L 187.897907 265.303687 
L 191.312216 263.744228 
L 194.726525 262.011428 
L 198.140833 261.263269 
L 201.555142 261.976496 
L 204.969451 255.798761 
L 208.383759 245.531345 
L 211.798068 246.065556 
L 215.212377 244.612172 
L 218.626686 244.572825 
L 222.040994 243.421767 
L 225.455303 241.992089 
L 228.869612 241.912866 
L 232.28392 234.417524 
L 235.698229 229.709526 
L 239.112538 228.65434 
L 242.526847 227.352836 
L 245.941155 225.170098 
L 249.355464 223.492002 
L 252.769773 222.549783 
L 256.184081 221.425016 
L 259.59839 215.354576 
L 263.012699 209.117329 
L 266.427008 208.25655 
L 269.841316 206.912828 
L 273.255625 205.39884 
L 276.669934 203.582882 
L 280.084242 202.172301 
L 283.498551 201.316165 
L 286.91286 195.455901 
L 290.327169 188.37379 
L 293.741477 187.241416 
L 297.155786 186.406936 
L 300.570095 183.435819 
L 303.984403 181.40645 
L 307.398712 181.070622 
L 310.813021 180.735493 
L 314.22733 176.045432 
L 317.641638 165.304889 
L 321.055947 164.887557 
L 324.470256 164.664888 
L 327.884564 164.141411 
L 331.298873 162.716512 
L 334.713182 162.228888 
L 338.127491 160.31823 
L 341.541799 151.87561 
L 344.956108 145.064303 
L 348.370417 144.752414 
L 351.784725 145.025085 
L 355.199034 144.006361 
L 358.613343 142.13464 
L 362.027652 141.540248 
L 365.44196 139.619877 
L 368.856269 132.20007 
L 372.270578 123.747632 
L 375.684886 125.643868 
L 379.099195 124.828903 
L 382.513504 123.106501 
L 385.927813 122.525479 
L 389.342121 120.704897 
L 392.75643 120.131116 
L 396.170739 112.793773 
L 399.585047 106.332527 
L 402.999356 104.892083 
L 406.413665 104.606043 
L 409.827973 103.307733 
L 413.242282 101.718981 
L 416.656591 100.970856 
L 420.0709 99.960135 
L 423.485208 91.224584 
L 426.899517 83.768925 
L 430.313826 85.721133 
L 433.728134 84.87358 
L 437.142443 83.282271 
L 440.556752 81.618816 
L 443.971061 81.145483 
L 447.385369 80.500288 
L 450.799678 71.63162 
L 454.213987 65.891894 
L 457.628295 64.596509 
L 461.042604 64.580782 
L 464.456913 63.201108 
L 467.871222 60.968558 
L 471.28553 61.296494 
L 474.699839 60.328894 
L 478.114148 51.782034 
" clip-path="url(#peb4daec3aa)" style="fill: none; stroke: #ff7f0e; stroke-width: 1.1; stroke-linecap: square"/>
   </g>
   <g id="patch_3">
    <path d="M 47.91125 354.04 
L 47.91125 25.44 
" style="fill: none; stroke: #000000; stroke-width: 0.8; stroke-linejoin: miter; stroke-linecap: square"/>
   </g>
   <g id="patch_4">
    <path d="M 498.6 354.04 
L 498.6 25.44 
" style="fill: none; stroke: #000000; stroke-width: 0.8; stroke-linejoin: miter; stroke-linecap: square"/>
   </g>
   <g id="patch_5">
    <path d="M 47.91125 354.04 
L 498.6 354.04 
" style="fill: none; stroke: #000000; stroke-width: 0.8; stroke-linejoin: miter; stroke-linecap: square"/>
   </g>
   <g id="patch_6">
    <path d="M 47.91125 25.44 
L 498.6 25.44 
" style="fill: none; stroke: #000000; stroke-width: 0.8; stroke-linejoin: miter; stroke-linecap: square"/>
   </g>
   <g id="text_17">
    <!-- full range 8..128 -->
    <g transform="translate(223.662813 19.44) scale(0.12 -0.12)">
     <defs>
      <path id="DejaVuSans-66" d="M 2375 4863 
L 2375 4384 
L 1825 4384 
Q 1516 4384 1395 4259 
Q 1275 4134 1275 3809 
L 1275 3500 
L 2222 3500 
L 2222 3053 
L 1275 3053 
L 1275 0 
L 697 0 
L 697 3053 
L 147 3053 
L 147 3500 
L 697 3500 
L 697 3744 
Q 697 4328 969 4595 
Q 1241 4863 1831 4863 
L 2375 4863 
z
" transform="scale(0.015625)"/>
      <path id="DejaVuSans-75" d="M 544 1381 
L 544 3500 
L 1119 3500 
L 1119 1403 
Q 1119 906 1312 657 
Q 1506 409 1894 409 
Q 2359 409 2629 706 
Q 2900 1003 2900 1516 
L 2900 3500 
L 3475 3500 
L 3475 0 
L 2900 0 
L 2900 538 
Q 2691 219 2414 64 
Q 2138 -91 1772 -91 
Q 1169 -91 856 284 
Q 544 659 544 1381 
z
M 1991 3584 
L 1991 3584 
z
" transform="scale(0.015625)"/>
      <path id="DejaVuSans-72" d="M 2631 2963 
Q 2534 3019 2420 3045 
Q 2306 3072 2169 3072 
Q 1681 3072 1420 2755 
Q 1159 2438 1159 1844 
L 1159 0 
L 581 0 
L 581 3500 
L 1159 3500 
L 1159 2956 
Q 1341 3275 1631 3429 
Q 1922 3584 2338 3584 
Q 2397 3584 2469 3576 
Q 2541 3569 2628 3553 
L 2631 2963 
z
" transform="scale(0.015625)"/>
      <path id="DejaVuSans-67" d="M 2906 1791 
Q 2906 2416 2648 2759 
Q 2391 3103 1925 3103 
Q 1463 3103 1205 2759 
Q 947 2416 947 1791 
Q 947 1169 1205 825 
Q 1463 481 1925 481 
Q 2391 481 2648 825 
Q 2906 1169 2906 1791 
z
M 3481 434 
Q 3481 -459 3084 -895 
Q 2688 -1331 1869 -1331 
Q 1566 -1331 1297 -1286 
Q 1028 -1241 775 -1147 
L 775 -588 
Q 1028 -725 1275 -790 
Q 1522 -856 1778 -856 
Q 2344 -856 2625 -561 
Q 2906 -266 2906 331 
L 2906 616 
Q 2728 306 2450 153 
Q 2172 0 1784 0 
Q 1141 0 747 490 
Q 353 981 353 1791 
Q 353 2603 747 3093 
Q 1141 3584 1784 3584 
Q 2172 3584 2450 3431 
Q 2728 3278 2906 2969 
L 2906 3500 
L 3481 3500 
L 3481 434 
z
" transform="scale(0.015625)"/>
      <path id="DejaVuSans-65" d="M 3597 1894 
L 3597 1613 
L 953 1613 
Q 991 1019 1311 708 
Q 1631 397 2203 397 
Q 2534 397 2845 478 
Q 3156 559 3463 722 
L 3463 178 
Q 3153 47 2828 -22 
Q 2503 -91 2169 -91 
Q 1331 -91 842 396 
Q 353 884 353 1716 
Q 353 2575 817 3079 
Q 1281 3584 2069 3584 
Q 2775 3584 3186 3129 
Q 3597 2675 3597 1894 
z
M 3022 2063 
Q 3016 2534 2758 2815 
Q 2500 3097 2075 3097 
Q 1594 3097 1305 2825 
Q 1016 2553 972 2059 
L 3022 2063 
z
" transform="scale(0.015625)"/>
     </defs>
     <use xlink:href="#DejaVuSans-66"/>
     <use xlink:href="#DejaVuSans-75" transform="translate(35.205078 0)"/>
     <use xlink:href="#DejaVuSans-6c" transform="translate(98.583984 0)"/>
     <use xlink:href="#DejaVuSans-6c" transform="translate(126.367188 0)"/>
     <use xlink:href="#DejaVuSans-20" transform="translate(154.150391 0)"/>
     <use xlink:href="#DejaVuSans-72" transform="translate(185.9375 0)"/>
     <use xlink:href="#DejaVuSans-61" transform="translate(227.050781 0)"/>
     <use xlink:href="#DejaVuSans-6e" transform="translate(288.330078 0)"/>
     <use xlink:href="#DejaVuSans-67" transform="translate(351.708984 0)"/>
     <use xlink:href="#DejaVuSans-65" transform="translate(415.185547 0)"/>
     <use xlink:href="#DejaVuSans-20" transform="translate(476.708984 0)"/>
     <use xlink:href="#DejaVuSans-38" transform="translate(508.496094 0)"/>
     <use xlink:href="#DejaVuSans-2e" transform="translate(572.119141 0)"/>
     <use xlink:href="#DejaVuSans-2e" transform="translate(603.90625 0)"/>
     <use xlink:href="#DejaVuSans-31" transform="translate(635.693359 0)"/>
     <use xlink:href="#DejaVuSans-32" transform="translate(699.316406 0)"/>
     <use xlink:href="#DejaVuSans-38" transform="translate(762.939453 0)"/>
    </g>
   </g>
   <g id="legend_1">
    <g id="patch_7">
     <path d="M 53.51125 55.325 
L 263.77875 55.325 
Q 265.37875 55.325 265.37875 53.725 
L 265.37875 31.04 
Q 265.37875 29.44 263.77875 29.44 
L 53.51125 29.44 
Q 51.91125 29.44 51.91125 31.04 
L 51.91125 53.725 
Q 51.91125 55.325 53.51125 55.325 
z
" style="fill: #ffffff; opacity: 0.8; stroke: #cccccc; stroke-linejoin: miter"/>
    </g>
    <g id="line2d_31">
     <path d="M 55.11125 35.91875 
L 63.11125 35.91875 
L 71.11125 35.91875 
" style="fill: none; stroke: #1f77b4; stroke-width: 1.1; stroke-linecap: square"/>
    </g>
    <g id="text_18">
     <!-- midmul simple (masked horizontal tail) -->
     <g transform="translate(77.51125 38.71875) scale(0.08 -0.08)">
      <defs>
       <path id="DejaVuSans-64" d="M 2906 2969 
L 2906 4863 
L 3481 4863 
L 3481 0 
L 2906 0 
L 2906 525 
Q 2725 213 2448 61 
Q 2172 -91 1784 -91 
Q 1150 -91 751 415 
Q 353 922 353 1747 
Q 353 2572 751 3078 
Q 1150 3584 1784 3584 
Q 2172 3584 2448 3432 
Q 2725 3281 2906 2969 
z
M 947 1747 
Q 947 1113 1208 752 
Q 1469 391 1925 391 
Q 2381 391 2643 752 
Q 2906 1113 2906 1747 
Q 2906 2381 2643 2742 
Q 2381 3103 1925 3103 
Q 1469 3103 1208 2742 
Q 947 2381 947 1747 
z
" transform="scale(0.015625)"/>
       <path id="DejaVuSans-70" d="M 1159 525 
L 1159 -1331 
L 581 -1331 
L 581 3500 
L 1159 3500 
L 1159 2969 
Q 1341 3281 1617 3432 
Q 1894 3584 2278 3584 
Q 2916 3584 3314 3078 
Q 3713 2572 3713 1747 
Q 3713 922 3314 415 
Q 2916 -91 2278 -91 
Q 1894 -91 1617 61 
Q 1341 213 1159 525 
z
M 3116 1747 
Q 3116 2381 2855 2742 
Q 2594 3103 2138 3103 
Q 1681 3103 1420 2742 
Q 1159 2381 1159 1747 
Q 1159 1113 1420 752 
Q 1681 391 2138 391 
Q 2594 391 2855 752 
Q 3116 1113 3116 1747 
z
" transform="scale(0.015625)"/>
       <path id="DejaVuSans-6b" d="M 581 4863 
L 1159 4863 
L 1159 1991 
L 2875 3500 
L 3609 3500 
L 1753 1863 
L 3688 0 
L 2938 0 
L 1159 1709 
L 1159 0 
L 581 0 
L 581 4863 
z
" transform="scale(0.015625)"/>
       <path id="DejaVuSans-68" d="M 3513 2113 
L 3513 0 
L 2938 0 
L 2938 2094 
Q 2938 2591 2744 2837 
Q 2550 3084 2163 3084 
Q 1697 3084 1428 2787 
Q 1159 2491 1159 1978 
L 1159 0 
L 581 0 
L 581 4863 
L 1159 4863 
L 1159 2956 
Q 1366 3272 1645 3428 
Q 1925 3584 2291 3584 
Q 2894 3584 3203 3211 
Q 3513 2838 3513 2113 
z
" transform="scale(0.015625)"/>
       <path id="DejaVuSans-6f" d="M 1959 3097 
Q 1497 3097 1228 2736 
Q 959 2375 959 1747 
Q 959 1119 1226 758 
Q 1494 397 1959 397 
Q 2419 397 2687 759 
Q 2956 1122 2956 1747 
Q 2956 2369 2687 2733 
Q 2419 3097 1959 3097 
z
M 1959 3584 
Q 2709 3584 3137 3096 
Q 3566 2609 3566 1747 
Q 3566 888 3137 398 
Q 2709 -91 1959 -91 
Q 1206 -91 779 398 
Q 353 888 353 1747 
Q 353 2609 779 3096 
Q 1206 3584 1959 3584 
z
" transform="scale(0.015625)"/>
       <path id="DejaVuSans-7a" d="M 353 3500 
L 3084 3500 
L 3084 2975 
L 922 459 
L 3084 459 
L 3084 0 
L 275 0 
L 275 525 
L 2438 3041 
L 353 3041 
L 353 3500 
z
" transform="scale(0.015625)"/>
       <path id="DejaVuSans-74" d="M 1172 4494 
L 1172 3500 
L 2356 3500 
L 2356 3053 
L 1172 3053 
L 1172 1153 
Q 1172 725 1289 603 
Q 1406 481 1766 481 
L 2356 481 
L 2356 0 
L 1766 0 
Q 1100 0 847 248 
Q 594 497 594 1153 
L 594 3053 
L 172 3053 
L 172 3500 
L 594 3500 
L 594 4494 
L 1172 4494 
z
" transform="scale(0.015625)"/>
      </defs>
      <use xlink:href="#DejaVuSans-6d"/>
      <use xlink:href="#DejaVuSans-69" transform="translate(97.412109 0)"/>
      <use xlink:href="#DejaVuSans-64" transform="translate(125.195312 0)"/>
      <use xlink:href="#DejaVuSans-6d" transform="translate(188.671875 0)"/>
      <use xlink:href="#DejaVuSans-75" transform="translate(286.083984 0)"/>
      <use xlink:href="#DejaVuSans-6c" transform="translate(349.462891 0)"/>
      <use xlink:href="#DejaVuSans-20" transform="translate(377.246094 0)"/>
      <use xlink:href="#DejaVuSans-73" transform="translate(409.033203 0)"/>
      <use xlink:href="#DejaVuSans-69" transform="translate(461.132812 0)"/>
      <use xlink:href="#DejaVuSans-6d" transform="translate(488.916016 0)"/>
      <use xlink:href="#DejaVuSans-70" transform="translate(586.328125 0)"/>
      <use xlink:href="#DejaVuSans-6c" transform="translate(649.804688 0)"/>
      <use xlink:href="#DejaVuSans-65" transform="translate(677.587891 0)"/>
      <use xlink:href="#DejaVuSans-20" transform="translate(739.111328 0)"/>
      <use xlink:href="#DejaVuSans-28" transform="translate(770.898438 0)"/>
      <use xlink:href="#DejaVuSans-6d" transform="translate(809.912109 0)"/>
      <use xlink:href="#DejaVuSans-61" transform="translate(907.324219 0)"/>
      <use xlink:href="#DejaVuSans-73" transform="translate(968.603516 0)"/>
      <use xlink:href="#DejaVuSans-6b" transform="translate(1020.703125 0)"/>
      <use xlink:href="#DejaVuSans-65" transform="translate(1074.988281 0)"/>
      <use xlink:href="#DejaVuSans-64" transform="translate(1136.511719 0)"/>
      <use xlink:href="#DejaVuSans-20" transform="translate(1199.988281 0)"/>
      <use xlink:href="#DejaVuSans-68" transform="translate(1231.775391 0)"/>
      <use xlink:href="#DejaVuSans-6f" transform="translate(1295.154297 0)"/>
      <use xlink:href="#DejaVuSans-72" transform="translate(1356.335938 0)"/>
      <use xlink:href="#DejaVuSans-69" transform="translate(1397.449219 0)"/>
      <use xlink:href="#DejaVuSans-7a" transform="translate(1425.232422 0)"/>
      <use xlink:href="#DejaVuSans-6f" transform="translate(1477.722656 0)"/>
      <use xlink:href="#DejaVuSans-6e" transform="translate(1538.904297 0)"/>
      <use xlink:href="#DejaVuSans-74" transform="translate(1602.283203 0)"/>
      <use xlink:href="#DejaVuSans-61" transform="translate(1641.492188 0)"/>
      <use xlink:href="#DejaVuSans-6c" transform="translate(1702.771484 0)"/>
      <use xlink:href="#DejaVuSans-20" transform="translate(1730.554688 0)"/>
      <use xlink:href="#DejaVuSans-74" transform="translate(1762.341797 0)"/>
      <use xlink:href="#DejaVuSans-61" transform="translate(1801.550781 0)"/>
      <use xlink:href="#DejaVuSans-69" transform="translate(1862.830078 0)"/>
      <use xlink:href="#DejaVuSans-6c" transform="translate(1890.613281 0)"/>
      <use xlink:href="#DejaVuSans-29" transform="translate(1918.396484 0)"/>
     </g>
    </g>
    <g id="line2d_32">
     <path d="M 55.11125 47.66125 
L 63.11125 47.66125 
L 71.11125 47.66125 
" style="fill: none; stroke: #ff7f0e; stroke-width: 1.1; stroke-linecap: square"/>
    </g>
    <g id="text_19">
     <!-- midmul wtail (horiz-bottom + vertical-top tail) -->
     <g transform="translate(77.51125 50.46125) scale(0.08 -0.08)">
      <defs>
       <path id="DejaVuSans-77" d="M 269 3500 
L 844 3500 
L 1563 769 
L 2278 3500 
L 2956 3500 
L 3675 769 
L 4391 3500 
L 4966 3500 
L 4050 0 
L 3372 0 
L 2619 2869 
L 1863 0 
L 1184 0 
L 269 3500 
z
" transform="scale(0.015625)"/>
       <path id="DejaVuSans-2d" d="M 313 2009 
L 1997 2009 
L 1997 1497 
L 313 1497 
L 313 2009 
z
" transform="scale(0.015625)"/>
       <path id="DejaVuSans-2b" d="M 2944 4013 
L 2944 2272 
L 4684 2272 
L 4684 1741 
L 2944 1741 
L 2944 0 
L 2419 0 
L 2419 1741 
L 678 1741 
L 678 2272 
L 2419 2272 
L 2419 4013 
L 2944 4013 
z
" transform="scale(0.015625)"/>
       <path id="DejaVuSans-76" d="M 191 3500 
L 800 3500 
L 1894 563 
L 2988 3500 
L 3597 3500 
L 2284 0 
L 1503 0 
L 191 3500 
z
" transform="scale(0.015625)"/>
       <path id="DejaVuSans-63" d="M 3122 3366 
L 3122 2828 
Q 2878 2963 2633 3030 
Q 2388 3097 2138 3097 
Q 1578 3097 1268 2742 
Q 959 2388 959 1747 
Q 959 1106 1268 751 
Q 1578 397 2138 397 
Q 2388 397 2633 464 
Q 2878 531 3122 666 
L 3122 134 
Q 2881 22 2623 -34 
Q 2366 -91 2075 -91 
Q 1284 -91 818 406 
Q 353 903 353 1747 
Q 353 2603 823 3093 
Q 1294 3584 2113 3584 
Q 2378 3584 2631 3529 
Q 2884 3475 3122 3366 
z
" transform="scale(0.015625)"/>
      </defs>
      <use xlink:href="#DejaVuSans-6d"/>
      <use xlink:href="#DejaVuSans-69" transform="translate(97.412109 0)"/>
      <use xlink:href="#DejaVuSans-64" transform="translate(125.195312 0)"/>
      <use xlink:href="#DejaVuSans-6d" transform="translate(188.671875 0)"/>
      <use xlink:href="#DejaVuSans-75" transform="translate(286.083984 0)"/>
      <use xlink:href="#DejaVuSans-6c" transform="translate(349.462891 0)"/>
      <use xlink:href="#DejaVuSans-20" transform="translate(377.246094 0)"/>
      <use xlink:href="#DejaVuSans-77" transform="translate(409.033203 0)"/>
      <use xlink:href="#DejaVuSans-74" transform="translate(490.820312 0)"/>
      <use xlink:href="#DejaVuSans-61" transform="translate(530.029297 0)"/>
      <use xlink:href="#DejaVuSans-69" transform="translate(591.308594 0)"/>
      <use xlink:href="#DejaVuSans-6c" transform="translate(619.091797 0)"/>
      <use xlink:href="#DejaVuSans-20" transform="translate(646.875 0)"/>
      <use xlink:href="#DejaVuSans-28" transform="translate(678.662109 0)"/>
      <use xlink:href="#DejaVuSans-68" transform="translate(717.675781 0)"/>
      <use xlink:href="#DejaVuSans-6f" transform="translate(781.054688 0)"/>
      <use xlink:href="#DejaVuSans-72" transform="translate(842.236328 0)"/>
      <use xlink:href="#DejaVuSans-69" transform="translate(883.349609 0)"/>
      <use xlink:href="#DejaVuSans-7a" transform="translate(911.132812 0)"/>
      <use xlink:href="#DejaVuSans-2d" transform="translate(963.623047 0)"/>
      <use xlink:href="#DejaVuSans-62" transform="translate(999.707031 0)"/>
      <use xlink:href="#DejaVuSans-6f" transform="translate(1063.183594 0)"/>
      <use xlink:href="#DejaVuSans-74" transform="translate(1124.365234 0)"/>
      <use xlink:href="#DejaVuSans-74" transform="translate(1163.574219 0)"/>
      <use xlink:href="#DejaVuSans-6f" transform="translate(1202.783203 0)"/>
      <use xlink:href="#DejaVuSans-6d" transform="translate(1263.964844 0)"/>
      <use xlink:href="#DejaVuSans-20" transform="translate(1361.376953 0)"/>
      <use xlink:href="#DejaVuSans-2b" transform="translate(1393.164062 0)"/>
      <use xlink:href="#DejaVuSans-20" transform="translate(1476.953125 0)"/>
      <use xlink:href="#DejaVuSans-76" transform="translate(1508.740234 0)"/>
      <use xlink:href="#DejaVuSans-65" transform="translate(1567.919922 0)"/>
      <use xlink:href="#DejaVuSans-72" transform="translate(1629.443359 0)"/>
      <use xlink:href="#DejaVuSans-74" transform="translate(1670.556641 0)"/>
      <use xlink:href="#DejaVuSans-69" transform="translate(1709.765625 0)"/>
      <use xlink:href="#DejaVuSans-63" transform="translate(1737.548828 0)"/>
      <use xlink:href="#DejaVuSans-61" transform="translate(1792.529297 0)"/>
      <use xlink:href="#DejaVuSans-6c" transform="translate(1853.808594 0)"/>
      <use xlink:href="#DejaVuSans-2d" transform="translate(1881.591797 0)"/>
      <use xlink:href="#DejaVuSans-74" transform="translate(1917.675781 0)"/>
      <use xlink:href="#DejaVuSans-6f" transform="translate(1956.884766 0)"/>
      <use xlink:href="#DejaVuSans-70" transform="translate(2018.066406 0)"/>
      <use xlink:href="#DejaVuSans-20" transform="translate(2081.542969 0)"/>
      <use xlink:href="#DejaVuSans-74" transform="translate(2113.330078 0)"/>
      <use xlink:href="#DejaVuSans-61" transform="translate(2152.539062 0)"/>
      <use xlink:href="#DejaVuSans-69" transform="translate(2213.818359 0)"/>
      <use xlink:href="#DejaVuSans-6c" transform="translate(2241.601562 0)"/>
      <use xlink:href="#DejaVuSans-29" transform="translate(2269.384766 0)"/>
     </g>
    </g>
   </g>
  </g>
  <g id="axes_2">
   <g id="patch_8">
    <path d="M 546.51125 354.04 
L 997.2 354.04 
L 997.2 25.44 
L 546.51125 25.44 
z
" style="fill: #ffffff"/>
   </g>
   <g id="matplotlib.axis_3">
    <g id="xtick_7">
     <g id="line2d_33">
      <path d="M 546.51125 354.04 
L 546.51125 25.44 
" clip-path="url(#p8bd9942d4f)" style="fill: none; stroke: #b0b0b0; stroke-opacity: 0.3; stroke-width: 0.8; stroke-linecap: square"/>
     </g>
     <g id="line2d_34">
      <g>
       <use xlink:href="#m3689c91034" x="546.51125" y="354.04" style="stroke: #000000; stroke-width: 0.8"/>
      </g>
     </g>
     <g id="text_20">
      <!-- 40 -->
      <g transform="translate(540.14875 368.638437) scale(0.1 -0.1)">
       <use xlink:href="#DejaVuSans-34"/>
       <use xlink:href="#DejaVuSans-30" transform="translate(63.623047 0)"/>
      </g>
     </g>
    </g>
    <g id="xtick_8">
     <g id="line2d_35">
      <path d="M 626.991384 354.04 
L 626.991384 25.44 
" clip-path="url(#p8bd9942d4f)" style="fill: none; stroke: #b0b0b0; stroke-opacity: 0.3; stroke-width: 0.8; stroke-linecap: square"/>
     </g>
     <g id="line2d_36">
      <g>
       <use xlink:href="#m3689c91034" x="626.991384" y="354.04" style="stroke: #000000; stroke-width: 0.8"/>
      </g>
     </g>
     <g id="text_21">
      <!-- 50 -->
      <g transform="translate(620.628884 368.638437) scale(0.1 -0.1)">
       <use xlink:href="#DejaVuSans-35"/>
       <use xlink:href="#DejaVuSans-30" transform="translate(63.623047 0)"/>
      </g>
     </g>
    </g>
    <g id="xtick_9">
     <g id="line2d_37">
      <path d="M 707.471518 354.04 
L 707.471518 25.44 
" clip-path="url(#p8bd9942d4f)" style="fill: none; stroke: #b0b0b0; stroke-opacity: 0.3; stroke-width: 0.8; stroke-linecap: square"/>
     </g>
     <g id="line2d_38">
      <g>
       <use xlink:href="#m3689c91034" x="707.471518" y="354.04" style="stroke: #000000; stroke-width: 0.8"/>
      </g>
     </g>
     <g id="text_22">
      <!-- 60 -->
      <g transform="translate(701.109018 368.638437) scale(0.1 -0.1)">
       <use xlink:href="#DejaVuSans-36"/>
       <use xlink:href="#DejaVuSans-30" transform="translate(63.623047 0)"/>
      </g>
     </g>
    </g>
    <g id="xtick_10">
     <g id="line2d_39">
      <path d="M 787.951652 354.04 
L 787.951652 25.44 
" clip-path="url(#p8bd9942d4f)" style="fill: none; stroke: #b0b0b0; stroke-opacity: 0.3; stroke-width: 0.8; stroke-linecap: square"/>
     </g>
     <g id="line2d_40">
      <g>
       <use xlink:href="#m3689c91034" x="787.951652" y="354.04" style="stroke: #000000; stroke-width: 0.8"/>
      </g>
     </g>
     <g id="text_23">
      <!-- 70 -->
      <g transform="translate(781.589152 368.638437) scale(0.1 -0.1)">
       <defs>
        <path id="DejaVuSans-37" d="M 525 4666 
L 3525 4666 
L 3525 4397 
L 1831 0 
L 1172 0 
L 2766 4134 
L 525 4134 
L 525 4666 
z
" transform="scale(0.015625)"/>
       </defs>
       <use xlink:href="#DejaVuSans-37"/>
       <use xlink:href="#DejaVuSans-30" transform="translate(63.623047 0)"/>
      </g>
     </g>
    </g>
    <g id="xtick_11">
     <g id="line2d_41">
      <path d="M 868.431786 354.04 
L 868.431786 25.44 
" clip-path="url(#p8bd9942d4f)" style="fill: none; stroke: #b0b0b0; stroke-opacity: 0.3; stroke-width: 0.8; stroke-linecap: square"/>
     </g>
     <g id="line2d_42">
      <g>
       <use xlink:href="#m3689c91034" x="868.431786" y="354.04" style="stroke: #000000; stroke-width: 0.8"/>
      </g>
     </g>
     <g id="text_24">
      <!-- 80 -->
      <g transform="translate(862.069286 368.638437) scale(0.1 -0.1)">
       <use xlink:href="#DejaVuSans-38"/>
       <use xlink:href="#DejaVuSans-30" transform="translate(63.623047 0)"/>
      </g>
     </g>
    </g>
    <g id="xtick_12">
     <g id="line2d_43">
      <path d="M 948.91192 354.04 
L 948.91192 25.44 
" clip-path="url(#p8bd9942d4f)" style="fill: none; stroke: #b0b0b0; stroke-opacity: 0.3; stroke-width: 0.8; stroke-linecap: square"/>
     </g>
     <g id="line2d_44">
      <g>
       <use xlink:href="#m3689c91034" x="948.91192" y="354.04" style="stroke: #000000; stroke-width: 0.8"/>
      </g>
     </g>
     <g id="text_25">
      <!-- 90 -->
      <g transform="translate(942.54942 368.638437) scale(0.1 -0.1)">
       <defs>
        <path id="DejaVuSans-39" d="M 703 97 
L 703 672 
Q 941 559 1184 500 
Q 1428 441 1663 441 
Q 2288 441 2617 861 
Q 2947 1281 2994 2138 
Q 2813 1869 2534 1725 
Q 2256 1581 1919 1581 
Q 1219 1581 811 2004 
Q 403 2428 403 3163 
Q 403 3881 828 4315 
Q 1253 4750 1959 4750 
Q 2769 4750 3195 4129 
Q 3622 3509 3622 2328 
Q 3622 1225 3098 567 
Q 2575 -91 1691 -91 
Q 1453 -91 1209 -44 
Q 966 3 703 97 
z
M 1959 2075 
Q 2384 2075 2632 2365 
Q 2881 2656 2881 3163 
Q 2881 3666 2632 3958 
Q 2384 4250 1959 4250 
Q 1534 4250 1286 3958 
Q 1038 3666 1038 3163 
Q 1038 2656 1286 2365 
Q 1534 2075 1959 2075 
z
" transform="scale(0.015625)"/>
       </defs>
       <use xlink:href="#DejaVuSans-39"/>
       <use xlink:href="#DejaVuSans-30" transform="translate(63.623047 0)"/>
      </g>
     </g>
    </g>
    <g id="text_26">
     <!-- n  (an=n, bn=2n) -->
     <g transform="translate(727.954844 382.316562) scale(0.1 -0.1)">
      <use xlink:href="#DejaVuSans-6e"/>
      <use xlink:href="#DejaVuSans-20" transform="translate(63.378906 0)"/>
      <use xlink:href="#DejaVuSans-20" transform="translate(95.166016 0)"/>
      <use xlink:href="#DejaVuSans-28" transform="translate(126.953125 0)"/>
      <use xlink:href="#DejaVuSans-61" transform="translate(165.966797 0)"/>
      <use xlink:href="#DejaVuSans-6e" transform="translate(227.246094 0)"/>
      <use xlink:href="#DejaVuSans-3d" transform="translate(290.625 0)"/>
      <use xlink:href="#DejaVuSans-6e" transform="translate(374.414062 0)"/>
      <use xlink:href="#DejaVuSans-2c" transform="translate(437.792969 0)"/>
      <use xlink:href="#DejaVuSans-20" transform="translate(469.580078 0)"/>
      <use xlink:href="#DejaVuSans-62" transform="translate(501.367188 0)"/>
      <use xlink:href="#DejaVuSans-6e" transform="translate(564.84375 0)"/>
      <use xlink:href="#DejaVuSans-3d" transform="translate(628.222656 0)"/>
      <use xlink:href="#DejaVuSans-32" transform="translate(712.011719 0)"/>
      <use xlink:href="#DejaVuSans-6e" transform="translate(775.634766 0)"/>
      <use xlink:href="#DejaVuSans-29" transform="translate(839.013672 0)"/>
     </g>
    </g>
   </g>
   <g id="matplotlib.axis_4">
    <g id="ytick_9">
     <g id="line2d_45">
      <path d="M 546.51125 332.683139 
L 997.2 332.683139 
" clip-path="url(#p8bd9942d4f)" style="fill: none; stroke: #b0b0b0; stroke-opacity: 0.3; stroke-width: 0.8; stroke-linecap: square"/>
     </g>
     <g id="line2d_46">
      <g>
       <use xlink:href="#m452554fd00" x="546.51125" y="332.683139" style="stroke: #000000; stroke-width: 0.8"/>
      </g>
     </g>
     <g id="text_27">
      <!-- 1.4 -->
      <g transform="translate(523.608125 336.482358) scale(0.1 -0.1)">
       <use xlink:href="#DejaVuSans-31"/>
       <use xlink:href="#DejaVuSans-2e" transform="translate(63.623047 0)"/>
       <use xlink:href="#DejaVuSans-34" transform="translate(95.410156 0)"/>
      </g>
     </g>
    </g>
    <g id="ytick_10">
     <g id="line2d_47">
      <path d="M 546.51125 296.034805 
L 997.2 296.034805 
" clip-path="url(#p8bd9942d4f)" style="fill: none; stroke: #b0b0b0; stroke-opacity: 0.3; stroke-width: 0.8; stroke-linecap: square"/>
     </g>
     <g id="line2d_48">
      <g>
       <use xlink:href="#m452554fd00" x="546.51125" y="296.034805" style="stroke: #000000; stroke-width: 0.8"/>
      </g>
     </g>
     <g id="text_28">
      <!-- 1.6 -->
      <g transform="translate(523.608125 299.834024) scale(0.1 -0.1)">
       <use xlink:href="#DejaVuSans-31"/>
       <use xlink:href="#DejaVuSans-2e" transform="translate(63.623047 0)"/>
       <use xlink:href="#DejaVuSans-36" transform="translate(95.410156 0)"/>
      </g>
     </g>
    </g>
    <g id="ytick_11">
     <g id="line2d_49">
      <path d="M 546.51125 259.386471 
L 997.2 259.386471 
" clip-path="url(#p8bd9942d4f)" style="fill: none; stroke: #b0b0b0; stroke-opacity: 0.3; stroke-width: 0.8; stroke-linecap: square"/>
     </g>
     <g id="line2d_50">
      <g>
       <use xlink:href="#m452554fd00" x="546.51125" y="259.386471" style="stroke: #000000; stroke-width: 0.8"/>
      </g>
     </g>
     <g id="text_29">
      <!-- 1.8 -->
      <g transform="translate(523.608125 263.18569) scale(0.1 -0.1)">
       <use xlink:href="#DejaVuSans-31"/>
       <use xlink:href="#DejaVuSans-2e" transform="translate(63.623047 0)"/>
       <use xlink:href="#DejaVuSans-38" transform="translate(95.410156 0)"/>
      </g>
     </g>
    </g>
    <g id="ytick_12">
     <g id="line2d_51">
      <path d="M 546.51125 222.738137 
L 997.2 222.738137 
" clip-path="url(#p8bd9942d4f)" style="fill: none; stroke: #b0b0b0; stroke-opacity: 0.3; stroke-width: 0.8; stroke-linecap: square"/>
     </g>
     <g id="line2d_52">
      <g>
       <use xlink:href="#m452554fd00" x="546.51125" y="222.738137" style="stroke: #000000; stroke-width: 0.8"/>
      </g>
     </g>
     <g id="text_30">
      <!-- 2.0 -->
      <g transform="translate(523.608125 226.537356) scale(0.1 -0.1)">
       <use xlink:href="#DejaVuSans-32"/>
       <use xlink:href="#DejaVuSans-2e" transform="translate(63.623047 0)"/>
       <use xlink:href="#DejaVuSans-30" transform="translate(95.410156 0)"/>
      </g>
     </g>
    </g>
    <g id="ytick_13">
     <g id="line2d_53">
      <path d="M 546.51125 186.089804 
L 997.2 186.089804 
" clip-path="url(#p8bd9942d4f)" style="fill: none; stroke: #b0b0b0; stroke-opacity: 0.3; stroke-width: 0.8; stroke-linecap: square"/>
     </g>
     <g id="line2d_54">
      <g>
       <use xlink:href="#m452554fd00" x="546.51125" y="186.089804" style="stroke: #000000; stroke-width: 0.8"/>
      </g>
     </g>
     <g id="text_31">
      <!-- 2.2 -->
      <g transform="translate(523.608125 189.889022) scale(0.1 -0.1)">
       <use xlink:href="#DejaVuSans-32"/>
       <use xlink:href="#DejaVuSans-2e" transform="translate(63.623047 0)"/>
       <use xlink:href="#DejaVuSans-32" transform="translate(95.410156 0)"/>
      </g>
     </g>
    </g>
    <g id="ytick_14">
     <g id="line2d_55">
      <path d="M 546.51125 149.44147 
L 997.2 149.44147 
" clip-path="url(#p8bd9942d4f)" style="fill: none; stroke: #b0b0b0; stroke-opacity: 0.3; stroke-width: 0.8; stroke-linecap: square"/>
     </g>
     <g id="line2d_56">
      <g>
       <use xlink:href="#m452554fd00" x="546.51125" y="149.44147" style="stroke: #000000; stroke-width: 0.8"/>
      </g>
     </g>
     <g id="text_32">
      <!-- 2.4 -->
      <g transform="translate(523.608125 153.240689) scale(0.1 -0.1)">
       <use xlink:href="#DejaVuSans-32"/>
       <use xlink:href="#DejaVuSans-2e" transform="translate(63.623047 0)"/>
       <use xlink:href="#DejaVuSans-34" transform="translate(95.410156 0)"/>
      </g>
     </g>
    </g>
    <g id="ytick_15">
     <g id="line2d_57">
      <path d="M 546.51125 112.793136 
L 997.2 112.793136 
" clip-path="url(#p8bd9942d4f)" style="fill: none; stroke: #b0b0b0; stroke-opacity: 0.3; stroke-width: 0.8; stroke-linecap: square"/>
     </g>
     <g id="line2d_58">
      <g>
       <use xlink:href="#m452554fd00" x="546.51125" y="112.793136" style="stroke: #000000; stroke-width: 0.8"/>
      </g>
     </g>
     <g id="text_33">
      <!-- 2.6 -->
      <g transform="translate(523.608125 116.592355) scale(0.1 -0.1)">
       <use xlink:href="#DejaVuSans-32"/>
       <use xlink:href="#DejaVuSans-2e" transform="translate(63.623047 0)"/>
       <use xlink:href="#DejaVuSans-36" transform="translate(95.410156 0)"/>
      </g>
     </g>
    </g>
    <g id="ytick_16">
     <g id="line2d_59">
      <path d="M 546.51125 76.144802 
L 997.2 76.144802 
" clip-path="url(#p8bd9942d4f)" style="fill: none; stroke: #b0b0b0; stroke-opacity: 0.3; stroke-width: 0.8; stroke-linecap: square"/>
     </g>
     <g id="line2d_60">
      <g>
       <use xlink:href="#m452554fd00" x="546.51125" y="76.144802" style="stroke: #000000; stroke-width: 0.8"/>
      </g>
     </g>
     <g id="text_34">
      <!-- 2.8 -->
      <g transform="translate(523.608125 79.944021) scale(0.1 -0.1)">
       <use xlink:href="#DejaVuSans-32"/>
       <use xlink:href="#DejaVuSans-2e" transform="translate(63.623047 0)"/>
       <use xlink:href="#DejaVuSans-38" transform="translate(95.410156 0)"/>
      </g>
     </g>
    </g>
    <g id="ytick_17">
     <g id="line2d_61">
      <path d="M 546.51125 39.496468 
L 997.2 39.496468 
" clip-path="url(#p8bd9942d4f)" style="fill: none; stroke: #b0b0b0; stroke-opacity: 0.3; stroke-width: 0.8; stroke-linecap: square"/>
     </g>
     <g id="line2d_62">
      <g>
       <use xlink:href="#m452554fd00" x="546.51125" y="39.496468" style="stroke: #000000; stroke-width: 0.8"/>
      </g>
     </g>
     <g id="text_35">
      <!-- 3.0 -->
      <g transform="translate(523.608125 43.295687) scale(0.1 -0.1)">
       <use xlink:href="#DejaVuSans-33"/>
       <use xlink:href="#DejaVuSans-2e" transform="translate(63.623047 0)"/>
       <use xlink:href="#DejaVuSans-30" transform="translate(95.410156 0)"/>
      </g>
     </g>
    </g>
    <g id="text_36">
     <!-- ns / n_limb -->
     <g transform="translate(517.250313 216.867344) rotate(-90) scale(0.1 -0.1)">
      <use xlink:href="#DejaVuSans-6e"/>
      <use xlink:href="#DejaVuSans-73" transform="translate(63.378906 0)"/>
      <use xlink:href="#DejaVuSans-20" transform="translate(115.478516 0)"/>
      <use xlink:href="#DejaVuSans-2f" transform="translate(147.265625 0)"/>
      <use xlink:href="#DejaVuSans-20" transform="translate(180.957031 0)"/>
      <use xlink:href="#DejaVuSans-6e" transform="translate(212.744141 0)"/>
      <use xlink:href="#DejaVuSans-5f" transform="translate(276.123047 0)"/>
      <use xlink:href="#DejaVuSans-6c" transform="translate(326.123047 0)"/>
      <use xlink:href="#DejaVuSans-69" transform="translate(353.90625 0)"/>
      <use xlink:href="#DejaVuSans-6d" transform="translate(381.689453 0)"/>
      <use xlink:href="#DejaVuSans-62" transform="translate(479.101562 0)"/>
     </g>
    </g>
   </g>
   <g id="line2d_63">
    <path d="M 471.428333 397 
L 474.079129 382.920911 
L 482.127143 382.519146 
L 490.175156 385.31792 
L 498.22317 385.074088 
L 506.271183 383.802329 
L 514.319196 383.435991 
L 522.36721 384.134428 
L 530.415223 383.740054 
L 538.463237 383.680705 
L 546.51125 341.634494 
L 554.559263 344.240772 
L 562.607277 344.135743 
L 570.65529 342.510006 
L 578.703304 342.332478 
L 586.751317 342.456028 
L 594.79933 343.064178 
L 602.847344 342.235098 
L 610.895357 299.985953 
L 618.943371 301.932195 
L 626.991384 301.411116 
L 635.039397 300.526022 
L 643.087411 300.147171 
L 651.135424 300.99616 
L 659.183438 301.3047 
L 667.231451 301.12226 
L 675.279464 258.466991 
L 683.327478 259.389686 
L 691.375491 260.135235 
L 699.423504 257.560266 
L 707.471518 257.554055 
L 715.519531 259.662836 
L 723.567545 258.328398 
L 731.615558 258.781483 
L 739.663571 216.26169 
L 747.711585 216.679886 
L 755.759598 215.769401 
L 763.807612 215.851533 
L 771.855625 215.430028 
L 779.903638 217.05499 
L 787.951652 216.494832 
L 795.999665 216.399524 
L 804.047679 173.11782 
L 812.095692 174.347276 
L 820.143705 173.768039 
L 828.191719 173.516982 
L 836.239732 174.314115 
L 844.287746 174.793074 
L 852.335759 174.411671 
L 860.383772 174.315946 
L 868.431786 132.338151 
L 876.479799 132.352487 
L 884.527813 131.499429 
L 892.575826 131.346907 
L 900.623839 130.803174 
L 908.671853 131.434203 
L 916.719866 133.944764 
L 924.767879 125.620053 
L 932.815893 84.823794 
L 940.863906 90.036168 
L 948.91192 91.034206 
L 956.959933 90.206083 
L 965.007946 89.692735 
L 973.05596 91.17456 
L 981.103973 89.876231 
L 989.151987 90.456941 
L 997.2 47.123903 
L 1005.248013 49.790116 
L 1009 49.245146 
" clip-path="url(#p8bd9942d4f)" style="fill: none; stroke: #1f77b4; stroke-width: 1.1; stroke-linecap: square"/>
   </g>
   <g id="line2d_64">
    <path d="M 467.519433 397 
L 474.079129 326.139638 
L 481.459094 397 
M 485.006317 397 
L 490.175156 385.484503 
L 498.22317 386.884947 
L 506.271183 387.16874 
L 514.319196 381.496683 
L 522.36721 379.627673 
L 530.415223 378.078851 
L 538.463237 383.610227 
L 546.51125 364.159476 
L 554.559263 341.089909 
L 562.607277 348.712422 
L 570.65529 348.480275 
L 578.703304 345.235193 
L 586.751317 341.629404 
L 594.79933 340.072558 
L 602.847344 341.556714 
L 610.895357 328.70145 
L 618.943371 307.335954 
L 626.991384 308.447596 
L 635.039397 305.423246 
L 643.087411 305.341367 
L 651.135424 302.946128 
L 659.183438 299.971108 
L 667.231451 299.806252 
L 675.279464 284.209173 
L 683.327478 274.412288 
L 691.375491 272.216547 
L 699.423504 269.508244 
L 707.471518 264.96618 
L 715.519531 261.474225 
L 723.567545 259.513558 
L 731.615558 257.173028 
L 739.663571 244.541033 
L 747.711585 231.561929 
L 755.759598 229.770731 
L 763.807612 226.974575 
L 771.855625 223.824114 
L 779.903638 220.045282 
L 787.951652 217.11 
L 795.999665 215.328464 
L 804.047679 203.133824 
L 812.095692 188.396641 
L 820.143705 186.040279 
L 828.191719 184.303808 
L 836.239732 178.121202 
L 844.287746 173.898283 
L 852.335759 173.199457 
L 860.383772 172.502086 
L 868.431786 162.742524 
L 876.479799 140.392499 
L 884.527813 139.524073 
L 892.575826 139.060719 
L 900.623839 137.971414 
L 908.671853 135.006338 
L 916.719866 133.99164 
L 924.767879 130.015747 
L 932.815893 112.447476 
L 940.863906 98.273807 
L 948.91192 97.624798 
L 956.959933 98.192198 
L 965.007946 96.072334 
L 973.05596 92.177463 
L 981.103973 90.940592 
L 989.151987 86.944488 
L 997.2 71.504589 
L 1005.248013 53.915888 
L 1009 55.75546 
" clip-path="url(#p8bd9942d4f)" style="fill: none; stroke: #ff7f0e; stroke-width: 1.1; stroke-linecap: square"/>
   </g>
   <g id="line2d_65">
    <path d="M 546.51125 354.04 
L 546.51125 25.44 
" clip-path="url(#p8bd9942d4f)" style="fill: none; stroke-dasharray: 0.5,0.825; stroke-dashoffset: 0; stroke: #808080; stroke-opacity: 0.6; stroke-width: 0.5"/>
   </g>
   <g id="line2d_66">
    <path d="M 610.895357 354.04 
L 610.895357 25.44 
" clip-path="url(#p8bd9942d4f)" style="fill: none; stroke-dasharray: 0.5,0.825; stroke-dashoffset: 0; stroke: #808080; stroke-opacity: 0.6; stroke-width: 0.5"/>
   </g>
   <g id="line2d_67">
    <path d="M 675.279464 354.04 
L 675.279464 25.44 
" clip-path="url(#p8bd9942d4f)" style="fill: none; stroke-dasharray: 0.5,0.825; stroke-dashoffset: 0; stroke: #808080; stroke-opacity: 0.6; stroke-width: 0.5"/>
   </g>
   <g id="line2d_68">
    <path d="M 739.663571 354.04 
L 739.663571 25.44 
" clip-path="url(#p8bd9942d4f)" style="fill: none; stroke-dasharray: 0.5,0.825; stroke-dashoffset: 0; stroke: #808080; stroke-opacity: 0.6; stroke-width: 0.5"/>
   </g>
   <g id="line2d_69">
    <path d="M 804.047679 354.04 
L 804.047679 25.44 
" clip-path="url(#p8bd9942d4f)" style="fill: none; stroke-dasharray: 0.5,0.825; stroke-dashoffset: 0; stroke: #808080; stroke-opacity: 0.6; stroke-width: 0.5"/>
   </g>
   <g id="line2d_70">
    <path d="M 868.431786 354.04 
L 868.431786 25.44 
" clip-path="url(#p8bd9942d4f)" style="fill: none; stroke-dasharray: 0.5,0.825; stroke-dashoffset: 0; stroke: #808080; stroke-opacity: 0.6; stroke-width: 0.5"/>
   </g>
   <g id="line2d_71">
    <path d="M 932.815893 354.04 
L 932.815893 25.44 
" clip-path="url(#p8bd9942d4f)" style="fill: none; stroke-dasharray: 0.5,0.825; stroke-dashoffset: 0; stroke: #808080; stroke-opacity: 0.6; stroke-width: 0.5"/>
   </g>
   <g id="line2d_72">
    <path d="M 997.2 354.04 
L 997.2 25.44 
" clip-path="url(#p8bd9942d4f)" style="fill: none; stroke-dasharray: 0.5,0.825; stroke-dashoffset: 0; stroke: #808080; stroke-opacity: 0.6; stroke-width: 0.5"/>
   </g>
   <g id="patch_9">
    <path d="M 546.51125 354.04 
L 546.51125 25.44 
" style="fill: none; stroke: #000000; stroke-width: 0.8; stroke-linejoin: miter; stroke-linecap: square"/>
   </g>
   <g id="patch_10">
    <path d="M 997.2 354.04 
L 997.2 25.44 
" style="fill: none; stroke: #000000; stroke-width: 0.8; stroke-linejoin: miter; stroke-linecap: square"/>
   </g>
   <g id="patch_11">
    <path d="M 546.51125 354.04 
L 997.2 354.04 
" style="fill: none; stroke: #000000; stroke-width: 0.8; stroke-linejoin: miter; stroke-linecap: square"/>
   </g>
   <g id="patch_12">
    <path d="M 546.51125 25.44 
L 997.2 25.44 
" style="fill: none; stroke: #000000; stroke-width: 0.8; stroke-linejoin: miter; stroke-linecap: square"/>
   </g>
   <g id="text_37">
    <!-- zoom 40..96: wtail flattens the staircase steps -->
    <g transform="translate(633.025938 19.44) scale(0.12 -0.12)">
     <defs>
      <path id="DejaVuSans-3a" d="M 750 794 
L 1409 794 
L 1409 0 
L 750 0 
L 750 794 
z
M 750 3309 
L 1409 3309 
L 1409 2516 
L 750 2516 
L 750 3309 
z
" transform="scale(0.015625)"/>
     </defs>
     <use xlink:href="#DejaVuSans-7a"/>
     <use xlink:href="#DejaVuSans-6f" transform="translate(52.490234 0)"/>
     <use xlink:href="#DejaVuSans-6f" transform="translate(113.671875 0)"/>
     <use xlink:href="#DejaVuSans-6d" transform="translate(174.853516 0)"/>
     <use xlink:href="#DejaVuSans-20" transform="translate(272.265625 0)"/>
     <use xlink:href="#DejaVuSans-34" transform="translate(304.052734 0)"/>
     <use xlink:href="#DejaVuSans-30" transform="translate(367.675781 0)"/>
     <use xlink:href="#DejaVuSans-2e" transform="translate(431.298828 0)"/>
     <use xlink:href="#DejaVuSans-2e" transform="translate(463.085938 0)"/>
     <use xlink:href="#DejaVuSans-39" transform="translate(494.873047 0)"/>
     <use xlink:href="#DejaVuSans-36" transform="translate(558.496094 0)"/>
     <use xlink:href="#DejaVuSans-3a" transform="translate(622.119141 0)"/>
     <use xlink:href="#DejaVuSans-20" transform="translate(655.810547 0)"/>
     <use xlink:href="#DejaVuSans-77" transform="translate(687.597656 0)"/>
     <use xlink:href="#DejaVuSans-74" transform="translate(769.384766 0)"/>
     <use xlink:href="#DejaVuSans-61" transform="translate(808.59375 0)"/>
     <use xlink:href="#DejaVuSans-69" transform="translate(869.873047 0)"/>
     <use xlink:href="#DejaVuSans-6c" transform="translate(897.65625 0)"/>
     <use xlink:href="#DejaVuSans-20" transform="translate(925.439453 0)"/>
     <use xlink:href="#DejaVuSans-66" transform="translate(957.226562 0)"/>
     <use xlink:href="#DejaVuSans-6c" transform="translate(992.431641 0)"/>
     <use xlink:href="#DejaVuSans-61" transform="translate(1020.214844 0)"/>
     <use xlink:href="#DejaVuSans-74" transform="translate(1081.494141 0)"/>
     <use xlink:href="#DejaVuSans-74" transform="translate(1120.703125 0)"/>
     <use xlink:href="#DejaVuSans-65" transform="translate(1159.912109 0)"/>
     <use xlink:href="#DejaVuSans-6e" transform="translate(1221.435547 0)"/>
     <use xlink:href="#DejaVuSans-73" transform="translate(1284.814453 0)"/>
     <use xlink:href="#DejaVuSans-20" transform="translate(1336.914062 0)"/>
     <use xlink:href="#DejaVuSans-74" transform="translate(1368.701172 0)"/>
     <use xlink:href="#DejaVuSans-68" transform="translate(1407.910156 0)"/>
     <use xlink:href="#DejaVuSans-65" transform="translate(1471.289062 0)"/>
     <use xlink:href="#DejaVuSans-20" transform="translate(1532.8125 0)"/>
     <use xlink:href="#DejaVuSans-73" transform="translate(1564.599609 0)"/>
     <use xlink:href="#DejaVuSans-74" transform="translate(1616.699219 0)"/>
     <use xlink:href="#DejaVuSans-61" transform="translate(1655.908203 0)"/>
     <use xlink:href="#DejaVuSans-69" transform="translate(1717.1875 0)"/>
     <use xlink:href="#DejaVuSans-72" transform="translate(1744.970703 0)"/>
     <use xlink:href="#DejaVuSans-63" transform="translate(1783.833984 0)"/>
     <use xlink:href="#DejaVuSans-61" transform="translate(1838.814453 0)"/>
     <use xlink:href="#DejaVuSans-73" transform="translate(1900.09375 0)"/>
     <use xlink:href="#DejaVuSans-65" transform="translate(1952.193359 0)"/>
     <use xlink:href="#DejaVuSans-20" transform="translate(2013.716797 0)"/>
     <use xlink:href="#DejaVuSans-73" transform="translate(2045.503906 0)"/>
     <use xlink:href="#DejaVuSans-74" transform="translate(2097.603516 0)"/>
     <use xlink:href="#DejaVuSans-65" transform="translate(2136.8125 0)"/>
     <use xlink:href="#DejaVuSans-70" transform="translate(2198.335938 0)"/>
     <use xlink:href="#DejaVuSans-73" transform="translate(2261.8125 0)"/>
    </g>
   </g>
   <g id="legend_2">
    <g id="patch_13">
     <path d="M 781.3325 55.325 
L 991.6 55.325 
Q 993.2 55.325 993.2 53.725 
L 993.2 31.04 
Q 993.2 29.44 991.6 29.44 
L 781.3325 29.44 
Q 779.7325 29.44 779.7325 31.04 
L 779.7325 53.725 
Q 779.7325 55.325 781.3325 55.325 
z
" style="fill: #ffffff; opacity: 0.8; stroke: #cccccc; stroke-linejoin: miter"/>
    </g>
    <g id="line2d_73">
     <path d="M 782.9325 35.91875 
L 790.9325 35.91875 
L 798.9325 35.91875 
" style="fill: none; stroke: #1f77b4; stroke-width: 1.1; stroke-linecap: square"/>
    </g>
    <g id="text_38">
     <!-- midmul simple (masked horizontal tail) -->
     <g transform="translate(805.3325 38.71875) scale(0.08 -0.08)">
      <use xlink:href="#DejaVuSans-6d"/>
      <use xlink:href="#DejaVuSans-69" transform="translate(97.412109 0)"/>
      <use xlink:href="#DejaVuSans-64" transform="translate(125.195312 0)"/>
      <use xlink:href="#DejaVuSans-6d" transform="translate(188.671875 0)"/>
      <use xlink:href="#DejaVuSans-75" transform="translate(286.083984 0)"/>
      <use xlink:href="#DejaVuSans-6c" transform="translate(349.462891 0)"/>
      <use xlink:href="#DejaVuSans-20" transform="translate(377.246094 0)"/>
      <use xlink:href="#DejaVuSans-73" transform="translate(409.033203 0)"/>
      <use xlink:href="#DejaVuSans-69" transform="translate(461.132812 0)"/>
      <use xlink:href="#DejaVuSans-6d" transform="translate(488.916016 0)"/>
      <use xlink:href="#DejaVuSans-70" transform="translate(586.328125 0)"/>
      <use xlink:href="#DejaVuSans-6c" transform="translate(649.804688 0)"/>
      <use xlink:href="#DejaVuSans-65" transform="translate(677.587891 0)"/>
      <use xlink:href="#DejaVuSans-20" transform="translate(739.111328 0)"/>
      <use xlink:href="#DejaVuSans-28" transform="translate(770.898438 0)"/>
      <use xlink:href="#DejaVuSans-6d" transform="translate(809.912109 0)"/>
      <use xlink:href="#DejaVuSans-61" transform="translate(907.324219 0)"/>
      <use xlink:href="#DejaVuSans-73" transform="translate(968.603516 0)"/>
      <use xlink:href="#DejaVuSans-6b" transform="translate(1020.703125 0)"/>
      <use xlink:href="#DejaVuSans-65" transform="translate(1074.988281 0)"/>
      <use xlink:href="#DejaVuSans-64" transform="translate(1136.511719 0)"/>
      <use xlink:href="#DejaVuSans-20" transform="translate(1199.988281 0)"/>
      <use xlink:href="#DejaVuSans-68" transform="translate(1231.775391 0)"/>
      <use xlink:href="#DejaVuSans-6f" transform="translate(1295.154297 0)"/>
      <use xlink:href="#DejaVuSans-72" transform="translate(1356.335938 0)"/>
      <use xlink:href="#DejaVuSans-69" transform="translate(1397.449219 0)"/>
      <use xlink:href="#DejaVuSans-7a" transform="translate(1425.232422 0)"/>
      <use xlink:href="#DejaVuSans-6f" transform="translate(1477.722656 0)"/>
      <use xlink:href="#DejaVuSans-6e" transform="translate(1538.904297 0)"/>
      <use xlink:href="#DejaVuSans-74" transform="translate(1602.283203 0)"/>
      <use xlink:href="#DejaVuSans-61" transform="translate(1641.492188 0)"/>
      <use xlink:href="#DejaVuSans-6c" transform="translate(1702.771484 0)"/>
      <use xlink:href="#DejaVuSans-20" transform="translate(1730.554688 0)"/>
      <use xlink:href="#DejaVuSans-74" transform="translate(1762.341797 0)"/>
      <use xlink:href="#DejaVuSans-61" transform="translate(1801.550781 0)"/>
      <use xlink:href="#DejaVuSans-69" transform="translate(1862.830078 0)"/>
      <use xlink:href="#DejaVuSans-6c" transform="translate(1890.613281 0)"/>
      <use xlink:href="#DejaVuSans-29" transform="translate(1918.396484 0)"/>
     </g>
    </g>
    <g id="line2d_74">
     <path d="M 782.9325 47.66125 
L 790.9325 47.66125 
L 798.9325 47.66125 
" style="fill: none; stroke: #ff7f0e; stroke-width: 1.1; stroke-linecap: square"/>
    </g>
    <g id="text_39">
     <!-- midmul wtail (horiz-bottom + vertical-top tail) -->
     <g transform="translate(805.3325 50.46125) scale(0.08 -0.08)">
      <use xlink:href="#DejaVuSans-6d"/>
      <use xlink:href="#DejaVuSans-69" transform="translate(97.412109 0)"/>
      <use xlink:href="#DejaVuSans-64" transform="translate(125.195312 0)"/>
      <use xlink:href="#DejaVuSans-6d" transform="translate(188.671875 0)"/>
      <use xlink:href="#DejaVuSans-75" transform="translate(286.083984 0)"/>
      <use xlink:href="#DejaVuSans-6c" transform="translate(349.462891 0)"/>
      <use xlink:href="#DejaVuSans-20" transform="translate(377.246094 0)"/>
      <use xlink:href="#DejaVuSans-77" transform="translate(409.033203 0)"/>
      <use xlink:href="#DejaVuSans-74" transform="translate(490.820312 0)"/>
      <use xlink:href="#DejaVuSans-61" transform="translate(530.029297 0)"/>
      <use xlink:href="#DejaVuSans-69" transform="translate(591.308594 0)"/>
      <use xlink:href="#DejaVuSans-6c" transform="translate(619.091797 0)"/>
      <use xlink:href="#DejaVuSans-20" transform="translate(646.875 0)"/>
      <use xlink:href="#DejaVuSans-28" transform="translate(678.662109 0)"/>
      <use xlink:href="#DejaVuSans-68" transform="translate(717.675781 0)"/>
      <use xlink:href="#DejaVuSans-6f" transform="translate(781.054688 0)"/>
      <use xlink:href="#DejaVuSans-72" transform="translate(842.236328 0)"/>
      <use xlink:href="#DejaVuSans-69" transform="translate(883.349609 0)"/>
      <use xlink:href="#DejaVuSans-7a" transform="translate(911.132812 0)"/>
      <use xlink:href="#DejaVuSans-2d" transform="translate(963.623047 0)"/>
      <use xlink:href="#DejaVuSans-62" transform="translate(999.707031 0)"/>
      <use xlink:href="#DejaVuSans-6f" transform="translate(1063.183594 0)"/>
      <use xlink:href="#DejaVuSans-74" transform="translate(1124.365234 0)"/>
      <use xlink:href="#DejaVuSans-74" transform="translate(1163.574219 0)"/>
      <use xlink:href="#DejaVuSans-6f" transform="translate(1202.783203 0)"/>
      <use xlink:href="#DejaVuSans-6d" transform="translate(1263.964844 0)"/>
      <use xlink:href="#DejaVuSans-20" transform="translate(1361.376953 0)"/>
      <use xlink:href="#DejaVuSans-2b" transform="translate(1393.164062 0)"/>
      <use xlink:href="#DejaVuSans-20" transform="translate(1476.953125 0)"/>
      <use xlink:href="#DejaVuSans-76" transform="translate(1508.740234 0)"/>
      <use xlink:href="#DejaVuSans-65" transform="translate(1567.919922 0)"/>
      <use xlink:href="#DejaVuSans-72" transform="translate(1629.443359 0)"/>
      <use xlink:href="#DejaVuSans-74" transform="translate(1670.556641 0)"/>
      <use xlink:href="#DejaVuSans-69" transform="translate(1709.765625 0)"/>
      <use xlink:href="#DejaVuSans-63" transform="translate(1737.548828 0)"/>
      <use xlink:href="#DejaVuSans-61" transform="translate(1792.529297 0)"/>
      <use xlink:href="#DejaVuSans-6c" transform="translate(1853.808594 0)"/>
      <use xlink:href="#DejaVuSans-2d" transform="translate(1881.591797 0)"/>
      <use xlink:href="#DejaVuSans-74" transform="translate(1917.675781 0)"/>
      <use xlink:href="#DejaVuSans-6f" transform="translate(1956.884766 0)"/>
      <use xlink:href="#DejaVuSans-70" transform="translate(2018.066406 0)"/>
      <use xlink:href="#DejaVuSans-20" transform="translate(2081.542969 0)"/>
      <use xlink:href="#DejaVuSans-74" transform="translate(2113.330078 0)"/>
      <use xlink:href="#DejaVuSans-61" transform="translate(2152.539062 0)"/>
      <use xlink:href="#DejaVuSans-69" transform="translate(2213.818359 0)"/>
      <use xlink:href="#DejaVuSans-6c" transform="translate(2241.601562 0)"/>
      <use xlink:href="#DejaVuSans-29" transform="translate(2269.384766 0)"/>
     </g>
    </g>
   </g>
  </g>
 </g>
 <defs>
  <clipPath id="peb4daec3aa">
   <rect x="47.91125" y="25.44" width="450.68875" height="328.6"/>
  </clipPath>
  <clipPath id="p8bd9942d4f">
   <rect x="546.51125" y="25.44" width="450.68875" height="328.6"/>
  </clipPath>
 </defs>
</svg>
