<?xml version="1.0" encoding="utf-8" standalone="no"?>
<!DOCTYPE svg PUBLIC "-//W3C//DTD SVG 1.1//EN"
  "http://www.w3.org/Graphics/SVG/1.1/DTD/svg11.dtd">
<svg xmlns:xlink="http://www.w3.org/1999/xlink" width="864pt" height="504pt" viewBox="0 0 864 504" xmlns="http://www.w3.org/2000/svg" version="1.1">
 <metadata>
  <rdf:RDF xmlns:dc="http://purl.org/dc/elements/1.1/" xmlns:cc="http://creativecommons.org/ns#" xmlns:rdf="http://www.w3.org/1999/02/22-rdf-syntax-ns#">
   <cc:Work>
    <dc:type rdf:resource="http://purl.org/dc/dcmitype/StillImage"/>
    <dc:date>2026-06-04T10:41:27.313555</dc:date>
    <dc:format>image/svg+xml</dc:format>
    <dc:creator>
     <cc:Agent>
      <dc:title>Matplotlib v3.10.7+dfsg1, https://matplotlib.org/</dc:title>
     </cc:Agent>
    </dc:creator>
   </cc:Work>
  </rdf:RDF>
 </metadata>
 <defs>
  <style type="text/css">*{stroke-linejoin: round; stroke-linecap: butt}</style>
 </defs>
 <g id="figure_1">
  <g id="patch_1">
   <path d="M 0 504 
L 864 504 
L 864 0 
L 0 0 
z
" style="fill: #ffffff"/>
  </g>
  <g id="axes_1">
   <g id="patch_2">
    <path d="M 54.30125 462.04 
L 853.2 462.04 
L 853.2 25.44 
L 54.30125 25.44 
z
" style="fill: #ffffff"/>
   </g>
   <g id="matplotlib.axis_1">
    <g id="xtick_1">
     <g id="line2d_1">
      <path d="M 75.79296 462.04 
L 75.79296 25.44 
" clip-path="url(#p9af52d81de)" style="fill: none; stroke: #b0b0b0; stroke-opacity: 0.25; stroke-width: 0.8; stroke-linecap: square"/>
     </g>
     <g id="line2d_2">
      <defs>
       <path id="m242cddc238" d="M 0 0 
L 0 3.5 
" style="stroke: #000000; stroke-width: 0.8"/>
      </defs>
      <g>
       <use xlink:href="#m242cddc238" x="75.79296" y="462.04" style="stroke: #000000; stroke-width: 0.8"/>
      </g>
     </g>
     <g id="text_1">
      <!-- 0 -->
      <g transform="translate(72.61171 476.638438) scale(0.1 -0.1)">
       <defs>
        <path id="DejaVuSans-30" d="M 2034 4250 
Q 1547 4250 1301 3770 
Q 1056 3291 1056 2328 
Q 1056 1369 1301 889 
Q 1547 409 2034 409 
Q 2525 409 2770 889 
Q 3016 1369 3016 2328 
Q 3016 3291 2770 3770 
Q 2525 4250 2034 4250 
z
M 2034 4750 
Q 2819 4750 3233 4129 
Q 3647 3509 3647 2328 
Q 3647 1150 3233 529 
Q 2819 -91 2034 -91 
Q 1250 -91 836 529 
Q 422 1150 422 2328 
Q 422 3509 836 4129 
Q 1250 4750 2034 4750 
z
" transform="scale(0.015625)"/>
       </defs>
       <use xlink:href="#DejaVuSans-30"/>
      </g>
     </g>
    </g>
    <g id="xtick_2">
     <g id="line2d_3">
      <path d="M 168.429643 462.04 
L 168.429643 25.44 
" clip-path="url(#p9af52d81de)" style="fill: none; stroke: #b0b0b0; stroke-opacity: 0.25; stroke-width: 0.8; stroke-linecap: square"/>
     </g>
     <g id="line2d_4">
      <g>
       <use xlink:href="#m242cddc238" x="168.429643" y="462.04" style="stroke: #000000; stroke-width: 0.8"/>
      </g>
     </g>
     <g id="text_2">
      <!-- 50 -->
      <g transform="translate(162.067143 476.638438) scale(0.1 -0.1)">
       <defs>
        <path id="DejaVuSans-35" d="M 691 4666 
L 3169 4666 
L 3169 4134 
L 1269 4134 
L 1269 2991 
Q 1406 3038 1543 3061 
Q 1681 3084 1819 3084 
Q 2600 3084 3056 2656 
Q 3513 2228 3513 1497 
Q 3513 744 3044 326 
Q 2575 -91 1722 -91 
Q 1428 -91 1123 -41 
Q 819 9 494 109 
L 494 744 
Q 775 591 1075 516 
Q 1375 441 1709 441 
Q 2250 441 2565 725 
Q 2881 1009 2881 1497 
Q 2881 1984 2565 2268 
Q 2250 2553 1709 2553 
Q 1456 2553 1204 2497 
Q 953 2441 691 2322 
L 691 4666 
z
" transform="scale(0.015625)"/>
       </defs>
       <use xlink:href="#DejaVuSans-35"/>
       <use xlink:href="#DejaVuSans-30" transform="translate(63.623047 0)"/>
      </g>
     </g>
    </g>
    <g id="xtick_3">
     <g id="line2d_5">
      <path d="M 261.066325 462.04 
L 261.066325 25.44 
" clip-path="url(#p9af52d81de)" style="fill: none; stroke: #b0b0b0; stroke-opacity: 0.25; stroke-width: 0.8; stroke-linecap: square"/>
     </g>
     <g id="line2d_6">
      <g>
       <use xlink:href="#m242cddc238" x="261.066325" y="462.04" style="stroke: #000000; stroke-width: 0.8"/>
      </g>
     </g>
     <g id="text_3">
      <!-- 100 -->
      <g transform="translate(251.522575 476.638438) scale(0.1 -0.1)">
       <defs>
        <path id="DejaVuSans-31" d="M 794 531 
L 1825 531 
L 1825 4091 
L 703 3866 
L 703 4441 
L 1819 4666 
L 2450 4666 
L 2450 531 
L 3481 531 
L 3481 0 
L 794 0 
L 794 531 
z
" transform="scale(0.015625)"/>
       </defs>
       <use xlink:href="#DejaVuSans-31"/>
       <use xlink:href="#DejaVuSans-30" transform="translate(63.623047 0)"/>
       <use xlink:href="#DejaVuSans-30" transform="translate(127.246094 0)"/>
      </g>
     </g>
    </g>
    <g id="xtick_4">
     <g id="line2d_7">
      <path d="M 353.703008 462.04 
L 353.703008 25.44 
" clip-path="url(#p9af52d81de)" style="fill: none; stroke: #b0b0b0; stroke-opacity: 0.25; stroke-width: 0.8; stroke-linecap: square"/>
     </g>
     <g id="line2d_8">
      <g>
       <use xlink:href="#m242cddc238" x="353.703008" y="462.04" style="stroke: #000000; stroke-width: 0.8"/>
      </g>
     </g>
     <g id="text_4">
      <!-- 150 -->
      <g transform="translate(344.159258 476.638438) scale(0.1 -0.1)">
       <use xlink:href="#DejaVuSans-31"/>
       <use xlink:href="#DejaVuSans-35" transform="translate(63.623047 0)"/>
       <use xlink:href="#DejaVuSans-30" transform="translate(127.246094 0)"/>
      </g>
     </g>
    </g>
    <g id="xtick_5">
     <g id="line2d_9">
      <path d="M 446.33969 462.04 
L 446.33969 25.44 
" clip-path="url(#p9af52d81de)" style="fill: none; stroke: #b0b0b0; stroke-opacity: 0.25; stroke-width: 0.8; stroke-linecap: square"/>
     </g>
     <g id="line2d_10">
      <g>
       <use xlink:href="#m242cddc238" x="446.33969" y="462.04" style="stroke: #000000; stroke-width: 0.8"/>
      </g>
     </g>
     <g id="text_5">
      <!-- 200 -->
      <g transform="translate(436.79594 476.638438) scale(0.1 -0.1)">
       <defs>
        <path id="DejaVuSans-32" d="M 1228 531 
L 3431 531 
L 3431 0 
L 469 0 
L 469 531 
Q 828 903 1448 1529 
Q 2069 2156 2228 2338 
Q 2531 2678 2651 2914 
Q 2772 3150 2772 3378 
Q 2772 3750 2511 3984 
Q 2250 4219 1831 4219 
Q 1534 4219 1204 4116 
Q 875 4013 500 3803 
L 500 4441 
Q 881 4594 1212 4672 
Q 1544 4750 1819 4750 
Q 2544 4750 2975 4387 
Q 3406 4025 3406 3419 
Q 3406 3131 3298 2873 
Q 3191 2616 2906 2266 
Q 2828 2175 2409 1742 
Q 1991 1309 1228 531 
z
" transform="scale(0.015625)"/>
       </defs>
       <use xlink:href="#DejaVuSans-32"/>
       <use xlink:href="#DejaVuSans-30" transform="translate(63.623047 0)"/>
       <use xlink:href="#DejaVuSans-30" transform="translate(127.246094 0)"/>
      </g>
     </g>
    </g>
    <g id="xtick_6">
     <g id="line2d_11">
      <path d="M 538.976373 462.04 
L 538.976373 25.44 
" clip-path="url(#p9af52d81de)" style="fill: none; stroke: #b0b0b0; stroke-opacity: 0.25; stroke-width: 0.8; stroke-linecap: square"/>
     </g>
     <g id="line2d_12">
      <g>
       <use xlink:href="#m242cddc238" x="538.976373" y="462.04" style="stroke: #000000; stroke-width: 0.8"/>
      </g>
     </g>
     <g id="text_6">
      <!-- 250 -->
      <g transform="translate(529.432623 476.638438) scale(0.1 -0.1)">
       <use xlink:href="#DejaVuSans-32"/>
       <use xlink:href="#DejaVuSans-35" transform="translate(63.623047 0)"/>
       <use xlink:href="#DejaVuSans-30" transform="translate(127.246094 0)"/>
      </g>
     </g>
    </g>
    <g id="xtick_7">
     <g id="line2d_13">
      <path d="M 631.613055 462.04 
L 631.613055 25.44 
" clip-path="url(#p9af52d81de)" style="fill: none; stroke: #b0b0b0; stroke-opacity: 0.25; stroke-width: 0.8; stroke-linecap: square"/>
     </g>
     <g id="line2d_14">
      <g>
       <use xlink:href="#m242cddc238" x="631.613055" y="462.04" style="stroke: #000000; stroke-width: 0.8"/>
      </g>
     </g>
     <g id="text_7">
      <!-- 300 -->
      <g transform="translate(622.069305 476.638438) scale(0.1 -0.1)">
       <defs>
        <path id="DejaVuSans-33" d="M 2597 2516 
Q 3050 2419 3304 2112 
Q 3559 1806 3559 1356 
Q 3559 666 3084 287 
Q 2609 -91 1734 -91 
Q 1441 -91 1130 -33 
Q 819 25 488 141 
L 488 750 
Q 750 597 1062 519 
Q 1375 441 1716 441 
Q 2309 441 2620 675 
Q 2931 909 2931 1356 
Q 2931 1769 2642 2001 
Q 2353 2234 1838 2234 
L 1294 2234 
L 1294 2753 
L 1863 2753 
Q 2328 2753 2575 2939 
Q 2822 3125 2822 3475 
Q 2822 3834 2567 4026 
Q 2313 4219 1838 4219 
Q 1578 4219 1281 4162 
Q 984 4106 628 3988 
L 628 4550 
Q 988 4650 1302 4700 
Q 1616 4750 1894 4750 
Q 2613 4750 3031 4423 
Q 3450 4097 3450 3541 
Q 3450 3153 3228 2886 
Q 3006 2619 2597 2516 
z
" transform="scale(0.015625)"/>
       </defs>
       <use xlink:href="#DejaVuSans-33"/>
       <use xlink:href="#DejaVuSans-30" transform="translate(63.623047 0)"/>
       <use xlink:href="#DejaVuSans-30" transform="translate(127.246094 0)"/>
      </g>
     </g>
    </g>
    <g id="xtick_8">
     <g id="line2d_15">
      <path d="M 724.249738 462.04 
L 724.249738 25.44 
" clip-path="url(#p9af52d81de)" style="fill: none; stroke: #b0b0b0; stroke-opacity: 0.25; stroke-width: 0.8; stroke-linecap: square"/>
     </g>
     <g id="line2d_16">
      <g>
       <use xlink:href="#m242cddc238" x="724.249738" y="462.04" style="stroke: #000000; stroke-width: 0.8"/>
      </g>
     </g>
     <g id="text_8">
      <!-- 350 -->
      <g transform="translate(714.705988 476.638438) scale(0.1 -0.1)">
       <use xlink:href="#DejaVuSans-33"/>
       <use xlink:href="#DejaVuSans-35" transform="translate(63.623047 0)"/>
       <use xlink:href="#DejaVuSans-30" transform="translate(127.246094 0)"/>
      </g>
     </g>
    </g>
    <g id="xtick_9">
     <g id="line2d_17">
      <path d="M 816.88642 462.04 
L 816.88642 25.44 
" clip-path="url(#p9af52d81de)" style="fill: none; stroke: #b0b0b0; stroke-opacity: 0.25; stroke-width: 0.8; stroke-linecap: square"/>
     </g>
     <g id="line2d_18">
      <g>
       <use xlink:href="#m242cddc238" x="816.88642" y="462.04" style="stroke: #000000; stroke-width: 0.8"/>
      </g>
     </g>
     <g id="text_9">
      <!-- 400 -->
      <g transform="translate(807.34267 476.638438) scale(0.1 -0.1)">
       <defs>
        <path id="DejaVuSans-34" d="M 2419 4116 
L 825 1625 
L 2419 1625 
L 2419 4116 
z
M 2253 4666 
L 3047 4666 
L 3047 1625 
L 3713 1625 
L 3713 1100 
L 3047 1100 
L 3047 0 
L 2419 0 
L 2419 1100 
L 313 1100 
L 313 1709 
L 2253 4666 
z
" transform="scale(0.015625)"/>
       </defs>
       <use xlink:href="#DejaVuSans-34"/>
       <use xlink:href="#DejaVuSans-30" transform="translate(63.623047 0)"/>
       <use xlink:href="#DejaVuSans-30" transform="translate(127.246094 0)"/>
      </g>
     </g>
    </g>
    <g id="text_10">
     <!-- an u52 limbs -->
     <g transform="translate(421.381094 490.316563) scale(0.1 -0.1)">
      <defs>
       <path id="DejaVuSans-61" d="M 2194 1759 
Q 1497 1759 1228 1600 
Q 959 1441 959 1056 
Q 959 750 1161 570 
Q 1363 391 1709 391 
Q 2188 391 2477 730 
Q 2766 1069 2766 1631 
L 2766 1759 
L 2194 1759 
z
M 3341 1997 
L 3341 0 
L 2766 0 
L 2766 531 
Q 2569 213 2275 61 
Q 1981 -91 1556 -91 
Q 1019 -91 701 211 
Q 384 513 384 1019 
Q 384 1609 779 1909 
Q 1175 2209 1959 2209 
L 2766 2209 
L 2766 2266 
Q 2766 2663 2505 2880 
Q 2244 3097 1772 3097 
Q 1472 3097 1187 3025 
Q 903 2953 641 2809 
L 641 3341 
Q 956 3463 1253 3523 
Q 1550 3584 1831 3584 
Q 2591 3584 2966 3190 
Q 3341 2797 3341 1997 
z
" transform="scale(0.015625)"/>
       <path id="DejaVuSans-6e" d="M 3513 2113 
L 3513 0 
L 2938 0 
L 2938 2094 
Q 2938 2591 2744 2837 
Q 2550 3084 2163 3084 
Q 1697 3084 1428 2787 
Q 1159 2491 1159 1978 
L 1159 0 
L 581 0 
L 581 3500 
L 1159 3500 
L 1159 2956 
Q 1366 3272 1645 3428 
Q 1925 3584 2291 3584 
Q 2894 3584 3203 3211 
Q 3513 2838 3513 2113 
z
" transform="scale(0.015625)"/>
       <path id="DejaVuSans-20" transform="scale(0.015625)"/>
       <path id="DejaVuSans-75" d="M 544 1381 
L 544 3500 
L 1119 3500 
L 1119 1403 
Q 1119 906 1312 657 
Q 1506 409 1894 409 
Q 2359 409 2629 706 
Q 2900 1003 2900 1516 
L 2900 3500 
L 3475 3500 
L 3475 0 
L 2900 0 
L 2900 538 
Q 2691 219 2414 64 
Q 2138 -91 1772 -91 
Q 1169 -91 856 284 
Q 544 659 544 1381 
z
M 1991 3584 
L 1991 3584 
z
" transform="scale(0.015625)"/>
       <path id="DejaVuSans-6c" d="M 603 4863 
L 1178 4863 
L 1178 0 
L 603 0 
L 603 4863 
z
" transform="scale(0.015625)"/>
       <path id="DejaVuSans-69" d="M 603 3500 
L 1178 3500 
L 1178 0 
L 603 0 
L 603 3500 
z
M 603 4863 
L 1178 4863 
L 1178 4134 
L 603 4134 
L 603 4863 
z
" transform="scale(0.015625)"/>
       <path id="DejaVuSans-6d" d="M 3328 2828 
Q 3544 3216 3844 3400 
Q 4144 3584 4550 3584 
Q 5097 3584 5394 3201 
Q 5691 2819 5691 2113 
L 5691 0 
L 5113 0 
L 5113 2094 
Q 5113 2597 4934 2840 
Q 4756 3084 4391 3084 
Q 3944 3084 3684 2787 
Q 3425 2491 3425 1978 
L 3425 0 
L 2847 0 
L 2847 2094 
Q 2847 2600 2669 2842 
Q 2491 3084 2119 3084 
Q 1678 3084 1418 2786 
Q 1159 2488 1159 1978 
L 1159 0 
L 581 0 
L 581 3500 
L 1159 3500 
L 1159 2956 
Q 1356 3278 1631 3431 
Q 1906 3584 2284 3584 
Q 2666 3584 2933 3390 
Q 3200 3197 3328 2828 
z
" transform="scale(0.015625)"/>
       <path id="DejaVuSans-62" d="M 3116 1747 
Q 3116 2381 2855 2742 
Q 2594 3103 2138 3103 
Q 1681 3103 1420 2742 
Q 1159 2381 1159 1747 
Q 1159 1113 1420 752 
Q 1681 391 2138 391 
Q 2594 391 2855 752 
Q 3116 1113 3116 1747 
z
M 1159 2969 
Q 1341 3281 1617 3432 
Q 1894 3584 2278 3584 
Q 2916 3584 3314 3078 
Q 3713 2572 3713 1747 
Q 3713 922 3314 415 
Q 2916 -91 2278 -91 
Q 1894 -91 1617 61 
Q 1341 213 1159 525 
L 1159 0 
L 581 0 
L 581 4863 
L 1159 4863 
L 1159 2969 
z
" transform="scale(0.015625)"/>
       <path id="DejaVuSans-73" d="M 2834 3397 
L 2834 2853 
Q 2591 2978 2328 3040 
Q 2066 3103 1784 3103 
Q 1356 3103 1142 2972 
Q 928 2841 928 2578 
Q 928 2378 1081 2264 
Q 1234 2150 1697 2047 
L 1894 2003 
Q 2506 1872 2764 1633 
Q 3022 1394 3022 966 
Q 3022 478 2636 193 
Q 2250 -91 1575 -91 
Q 1294 -91 989 -36 
Q 684 19 347 128 
L 347 722 
Q 666 556 975 473 
Q 1284 391 1588 391 
Q 1994 391 2212 530 
Q 2431 669 2431 922 
Q 2431 1156 2273 1281 
Q 2116 1406 1581 1522 
L 1381 1569 
Q 847 1681 609 1914 
Q 372 2147 372 2553 
Q 372 3047 722 3315 
Q 1072 3584 1716 3584 
Q 2034 3584 2315 3537 
Q 2597 3491 2834 3397 
z
" transform="scale(0.015625)"/>
      </defs>
      <use xlink:href="#DejaVuSans-61"/>
      <use xlink:href="#DejaVuSans-6e" transform="translate(61.279297 0)"/>
      <use xlink:href="#DejaVuSans-20" transform="translate(124.658203 0)"/>
      <use xlink:href="#DejaVuSans-75" transform="translate(156.445312 0)"/>
      <use xlink:href="#DejaVuSans-35" transform="translate(219.824219 0)"/>
      <use xlink:href="#DejaVuSans-32" transform="translate(283.447266 0)"/>
      <use xlink:href="#DejaVuSans-20" transform="translate(347.070312 0)"/>
      <use xlink:href="#DejaVuSans-6c" transform="translate(378.857422 0)"/>
      <use xlink:href="#DejaVuSans-69" transform="translate(406.640625 0)"/>
      <use xlink:href="#DejaVuSans-6d" transform="translate(434.423828 0)"/>
      <use xlink:href="#DejaVuSans-62" transform="translate(531.835938 0)"/>
      <use xlink:href="#DejaVuSans-73" transform="translate(595.3125 0)"/>
     </g>
    </g>
   </g>
   <g id="matplotlib.axis_2">
    <g id="ytick_1">
     <g id="line2d_19">
      <path d="M 54.30125 415.607236 
L 853.2 415.607236 
" clip-path="url(#p9af52d81de)" style="fill: none; stroke: #b0b0b0; stroke-opacity: 0.25; stroke-width: 0.8; stroke-linecap: square"/>
     </g>
     <g id="line2d_20">
      <defs>
       <path id="ma9b7c33a5e" d="M 0 0 
L -3.5 0 
" style="stroke: #000000; stroke-width: 0.8"/>
      </defs>
      <g>
       <use xlink:href="#ma9b7c33a5e" x="54.30125" y="415.607236" style="stroke: #000000; stroke-width: 0.8"/>
      </g>
     </g>
     <g id="text_11">
      <!-- 0.05 -->
      <g transform="translate(25.035625 419.406455) scale(0.1 -0.1)">
       <defs>
        <path id="DejaVuSans-2e" d="M 684 794 
L 1344 794 
L 1344 0 
L 684 0 
L 684 794 
z
" transform="scale(0.015625)"/>
       </defs>
       <use xlink:href="#DejaVuSans-30"/>
       <use xlink:href="#DejaVuSans-2e" transform="translate(63.623047 0)"/>
       <use xlink:href="#DejaVuSans-30" transform="translate(95.410156 0)"/>
       <use xlink:href="#DejaVuSans-35" transform="translate(159.033203 0)"/>
      </g>
     </g>
    </g>
    <g id="ytick_2">
     <g id="line2d_21">
      <path d="M 54.30125 340.458934 
L 853.2 340.458934 
" clip-path="url(#p9af52d81de)" style="fill: none; stroke: #b0b0b0; stroke-opacity: 0.25; stroke-width: 0.8; stroke-linecap: square"/>
     </g>
     <g id="line2d_22">
      <g>
       <use xlink:href="#ma9b7c33a5e" x="54.30125" y="340.458934" style="stroke: #000000; stroke-width: 0.8"/>
      </g>
     </g>
     <g id="text_12">
      <!-- 0.10 -->
      <g transform="translate(25.035625 344.258153) scale(0.1 -0.1)">
       <use xlink:href="#DejaVuSans-30"/>
       <use xlink:href="#DejaVuSans-2e" transform="translate(63.623047 0)"/>
       <use xlink:href="#DejaVuSans-31" transform="translate(95.410156 0)"/>
       <use xlink:href="#DejaVuSans-30" transform="translate(159.033203 0)"/>
      </g>
     </g>
    </g>
    <g id="ytick_3">
     <g id="line2d_23">
      <path d="M 54.30125 265.310633 
L 853.2 265.310633 
" clip-path="url(#p9af52d81de)" style="fill: none; stroke: #b0b0b0; stroke-opacity: 0.25; stroke-width: 0.8; stroke-linecap: square"/>
     </g>
     <g id="line2d_24">
      <g>
       <use xlink:href="#ma9b7c33a5e" x="54.30125" y="265.310633" style="stroke: #000000; stroke-width: 0.8"/>
      </g>
     </g>
     <g id="text_13">
      <!-- 0.15 -->
      <g transform="translate(25.035625 269.109852) scale(0.1 -0.1)">
       <use xlink:href="#DejaVuSans-30"/>
       <use xlink:href="#DejaVuSans-2e" transform="translate(63.623047 0)"/>
       <use xlink:href="#DejaVuSans-31" transform="translate(95.410156 0)"/>
       <use xlink:href="#DejaVuSans-35" transform="translate(159.033203 0)"/>
      </g>
     </g>
    </g>
    <g id="ytick_4">
     <g id="line2d_25">
      <path d="M 54.30125 190.162332 
L 853.2 190.162332 
" clip-path="url(#p9af52d81de)" style="fill: none; stroke: #b0b0b0; stroke-opacity: 0.25; stroke-width: 0.8; stroke-linecap: square"/>
     </g>
     <g id="line2d_26">
      <g>
       <use xlink:href="#ma9b7c33a5e" x="54.30125" y="190.162332" style="stroke: #000000; stroke-width: 0.8"/>
      </g>
     </g>
     <g id="text_14">
      <!-- 0.20 -->
      <g transform="translate(25.035625 193.96155) scale(0.1 -0.1)">
       <use xlink:href="#DejaVuSans-30"/>
       <use xlink:href="#DejaVuSans-2e" transform="translate(63.623047 0)"/>
       <use xlink:href="#DejaVuSans-32" transform="translate(95.410156 0)"/>
       <use xlink:href="#DejaVuSans-30" transform="translate(159.033203 0)"/>
      </g>
     </g>
    </g>
    <g id="ytick_5">
     <g id="line2d_27">
      <path d="M 54.30125 115.01403 
L 853.2 115.01403 
" clip-path="url(#p9af52d81de)" style="fill: none; stroke: #b0b0b0; stroke-opacity: 0.25; stroke-width: 0.8; stroke-linecap: square"/>
     </g>
     <g id="line2d_28">
      <g>
       <use xlink:href="#ma9b7c33a5e" x="54.30125" y="115.01403" style="stroke: #000000; stroke-width: 0.8"/>
      </g>
     </g>
     <g id="text_15">
      <!-- 0.25 -->
      <g transform="translate(25.035625 118.813249) scale(0.1 -0.1)">
       <use xlink:href="#DejaVuSans-30"/>
       <use xlink:href="#DejaVuSans-2e" transform="translate(63.623047 0)"/>
       <use xlink:href="#DejaVuSans-32" transform="translate(95.410156 0)"/>
       <use xlink:href="#DejaVuSans-35" transform="translate(159.033203 0)"/>
      </g>
     </g>
    </g>
    <g id="ytick_6">
     <g id="line2d_29">
      <path d="M 54.30125 39.865729 
L 853.2 39.865729 
" clip-path="url(#p9af52d81de)" style="fill: none; stroke: #b0b0b0; stroke-opacity: 0.25; stroke-width: 0.8; stroke-linecap: square"/>
     </g>
     <g id="line2d_30">
      <g>
       <use xlink:href="#ma9b7c33a5e" x="54.30125" y="39.865729" style="stroke: #000000; stroke-width: 0.8"/>
      </g>
     </g>
     <g id="text_16">
      <!-- 0.30 -->
      <g transform="translate(25.035625 43.664948) scale(0.1 -0.1)">
       <use xlink:href="#DejaVuSans-30"/>
       <use xlink:href="#DejaVuSans-2e" transform="translate(63.623047 0)"/>
       <use xlink:href="#DejaVuSans-33" transform="translate(95.410156 0)"/>
       <use xlink:href="#DejaVuSans-30" transform="translate(159.033203 0)"/>
      </g>
     </g>
    </g>
    <g id="text_17">
     <!-- total_ns / (an * bn) -->
     <g transform="translate(18.677812 290.464219) rotate(-90) scale(0.1 -0.1)">
      <defs>
       <path id="DejaVuSans-74" d="M 1172 4494 
L 1172 3500 
L 2356 3500 
L 2356 3053 
L 1172 3053 
L 1172 1153 
Q 1172 725 1289 603 
Q 1406 481 1766 481 
L 2356 481 
L 2356 0 
L 1766 0 
Q 1100 0 847 248 
Q 594 497 594 1153 
L 594 3053 
L 172 3053 
L 172 3500 
L 594 3500 
L 594 4494 
L 1172 4494 
z
" transform="scale(0.015625)"/>
       <path id="DejaVuSans-6f" d="M 1959 3097 
Q 1497 3097 1228 2736 
Q 959 2375 959 1747 
Q 959 1119 1226 758 
Q 1494 397 1959 397 
Q 2419 397 2687 759 
Q 2956 1122 2956 1747 
Q 2956 2369 2687 2733 
Q 2419 3097 1959 3097 
z
M 1959 3584 
Q 2709 3584 3137 3096 
Q 3566 2609 3566 1747 
Q 3566 888 3137 398 
Q 2709 -91 1959 -91 
Q 1206 -91 779 398 
Q 353 888 353 1747 
Q 353 2609 779 3096 
Q 1206 3584 1959 3584 
z
" transform="scale(0.015625)"/>
       <path id="DejaVuSans-5f" d="M 3263 -1063 
L 3263 -1509 
L -63 -1509 
L -63 -1063 
L 3263 -1063 
z
" transform="scale(0.015625)"/>
       <path id="DejaVuSans-2f" d="M 1625 4666 
L 2156 4666 
L 531 -594 
L 0 -594 
L 1625 4666 
z
" transform="scale(0.015625)"/>
       <path id="DejaVuSans-28" d="M 1984 4856 
Q 1566 4138 1362 3434 
Q 1159 2731 1159 2009 
Q 1159 1288 1364 580 
Q 1569 -128 1984 -844 
L 1484 -844 
Q 1016 -109 783 600 
Q 550 1309 550 2009 
Q 550 2706 781 3412 
Q 1013 4119 1484 4856 
L 1984 4856 
z
" transform="scale(0.015625)"/>
       <path id="DejaVuSans-2a" d="M 3009 3897 
L 1888 3291 
L 3009 2681 
L 2828 2375 
L 1778 3009 
L 1778 1831 
L 1422 1831 
L 1422 3009 
L 372 2375 
L 191 2681 
L 1313 3291 
L 191 3897 
L 372 4206 
L 1422 3572 
L 1422 4750 
L 1778 4750 
L 1778 3572 
L 2828 4206 
L 3009 3897 
z
" transform="scale(0.015625)"/>
       <path id="DejaVuSans-29" d="M 513 4856 
L 1013 4856 
Q 1481 4119 1714 3412 
Q 1947 2706 1947 2009 
Q 1947 1309 1714 600 
Q 1481 -109 1013 -844 
L 513 -844 
Q 928 -128 1133 580 
Q 1338 1288 1338 2009 
Q 1338 2731 1133 3434 
Q 928 4138 513 4856 
z
" transform="scale(0.015625)"/>
      </defs>
      <use xlink:href="#DejaVuSans-74"/>
      <use xlink:href="#DejaVuSans-6f" transform="translate(39.208984 0)"/>
      <use xlink:href="#DejaVuSans-74" transform="translate(100.390625 0)"/>
      <use xlink:href="#DejaVuSans-61" transform="translate(139.599609 0)"/>
      <use xlink:href="#DejaVuSans-6c" transform="translate(200.878906 0)"/>
      <use xlink:href="#DejaVuSans-5f" transform="translate(228.662109 0)"/>
      <use xlink:href="#DejaVuSans-6e" transform="translate(278.662109 0)"/>
      <use xlink:href="#DejaVuSans-73" transform="translate(342.041016 0)"/>
      <use xlink:href="#DejaVuSans-20" transform="translate(394.140625 0)"/>
      <use xlink:href="#DejaVuSans-2f" transform="translate(425.927734 0)"/>
      <use xlink:href="#DejaVuSans-20" transform="translate(459.619141 0)"/>
      <use xlink:href="#DejaVuSans-28" transform="translate(491.40625 0)"/>
      <use xlink:href="#DejaVuSans-61" transform="translate(530.419922 0)"/>
      <use xlink:href="#DejaVuSans-6e" transform="translate(591.699219 0)"/>
      <use xlink:href="#DejaVuSans-20" transform="translate(655.078125 0)"/>
      <use xlink:href="#DejaVuSans-2a" transform="translate(686.865234 0)"/>
      <use xlink:href="#DejaVuSans-20" transform="translate(736.865234 0)"/>
      <use xlink:href="#DejaVuSans-62" transform="translate(768.652344 0)"/>
      <use xlink:href="#DejaVuSans-6e" transform="translate(832.128906 0)"/>
      <use xlink:href="#DejaVuSans-29" transform="translate(895.507812 0)"/>
     </g>
    </g>
   </g>
   <g id="line2d_31">
    <path d="M 90.61483 45.285455 
L 105.436699 233.553024 
L 120.258568 273.550178 
L 135.080437 360.347936 
L 149.902306 367.909776 
L 164.724176 377.287391 
L 179.546045 381.351799 
L 194.367914 397.31492 
L 209.189783 394.879568 
L 224.011652 392.471778 
L 238.833522 368.050978 
L 253.655391 346.426735 
L 268.47726 322.973147 
L 283.299129 320.117382 
L 298.120998 319.280101 
L 312.942868 320.283778 
L 327.764737 321.569742 
L 342.586606 323.848235 
L 357.408475 321.618989 
L 372.230344 326.3231 
L 387.052214 325.30858 
L 401.874083 325.485093 
L 416.695952 325.803858 
L 431.517821 326.434507 
L 446.33969 327.316969 
L 461.16156 326.666916 
L 475.983429 327.180034 
L 490.805298 327.830177 
L 505.627167 326.588629 
L 520.449036 328.147309 
L 535.270906 328.178441 
L 550.092775 328.968371 
L 564.914644 328.804784 
L 579.736513 329.734911 
L 594.558382 331.549365 
L 609.380252 329.415895 
L 624.202121 330.031956 
L 639.02399 331.298405 
L 653.845859 330.293343 
L 668.667728 330.604267 
L 683.489598 332.670277 
L 698.311467 331.757014 
L 713.133336 335.433088 
L 727.955205 332.115824 
L 742.777074 331.646446 
L 757.598944 331.759429 
L 772.420813 331.118074 
L 787.242682 331.354103 
L 802.064551 332.338353 
L 816.88642 331.733208 
" clip-path="url(#p9af52d81de)" style="fill: none; stroke: #1f77b4; stroke-width: 1.6; stroke-linecap: square"/>
   </g>
   <g id="line2d_32">
    <path d="M 90.61483 284.298087 
L 105.436699 354.336582 
L 120.258568 388.080245 
L 135.080437 400.012877 
L 149.902306 409.533646 
L 164.724176 409.06791 
L 179.546045 411.654247 
L 194.367914 413.608384 
L 209.189783 412.696387 
L 224.011652 412.332811 
L 238.833522 407.629686 
L 253.655391 402.2996 
L 268.47726 395.257467 
L 283.299129 396.761985 
L 298.120998 398.782941 
L 312.942868 399.865321 
L 327.764737 397.016446 
L 342.586606 399.747268 
L 357.408475 405.4727 
L 372.230344 403.837593 
L 387.052214 403.6818 
L 401.874083 401.527436 
L 416.695952 403.036993 
L 431.517821 402.973912 
L 446.33969 402.506127 
L 461.16156 402.090538 
L 475.983429 404.123977 
L 490.805298 403.314819 
L 505.627167 403.264429 
L 520.449036 403.233144 
L 535.270906 404.849656 
L 550.092775 404.343711 
L 564.914644 405.265146 
L 579.736513 405.396681 
L 594.558382 405.653992 
L 609.380252 405.472381 
L 624.202121 406.665804 
L 639.02399 404.523468 
L 653.845859 406.580118 
L 668.667728 404.5966 
L 683.489598 406.900008 
L 698.311467 406.941065 
L 713.133336 407.728861 
L 727.955205 406.027996 
L 742.777074 407.988546 
L 757.598944 406.38454 
L 772.420813 408.123314 
L 787.242682 406.627388 
L 802.064551 408.157334 
L 816.88642 407.276393 
" clip-path="url(#p9af52d81de)" style="fill: none; stroke: #ff7f0e; stroke-width: 1.6; stroke-linecap: square"/>
   </g>
   <g id="line2d_33">
    <path d="M 90.61483 323.927524 
L 105.436699 384.949699 
L 120.258568 404.950034 
L 135.080437 423.388152 
L 149.902306 426.178711 
L 164.724176 423.791842 
L 179.546045 428.091916 
L 194.367914 427.191782 
L 209.189783 427.500559 
L 224.011652 425.983476 
L 238.833522 423.273521 
L 253.655391 422.923695 
L 268.47726 420.972005 
L 283.299129 422.057118 
L 298.120998 423.546368 
L 312.942868 425.217764 
L 327.764737 429.001162 
L 342.586606 429.229068 
L 357.408475 430.187156 
L 372.230344 431.101003 
L 387.052214 430.464411 
L 401.874083 432.102395 
L 416.695952 430.910424 
L 431.517821 432.003217 
L 446.33969 432.532075 
L 461.16156 430.16651 
L 475.983429 430.143785 
L 490.805298 432.22911 
L 505.627167 433.056027 
L 520.449036 433.929157 
L 535.270906 432.196464 
L 550.092775 432.272951 
L 564.914644 434.566458 
L 579.736513 431.60762 
L 594.558382 433.100394 
L 609.380252 434.13907 
L 624.202121 435.102235 
L 639.02399 434.403022 
L 653.845859 432.735788 
L 668.667728 434.496828 
L 683.489598 436.083053 
L 698.311467 434.229562 
L 713.133336 433.773705 
L 727.955205 434.540007 
L 742.777074 435.858062 
L 757.598944 434.864999 
L 772.420813 434.455474 
L 787.242682 436.107865 
L 802.064551 436.664147 
L 816.88642 435.067036 
" clip-path="url(#p9af52d81de)" style="fill: none; stroke: #2ca02c; stroke-width: 1.6; stroke-linecap: square"/>
   </g>
   <g id="line2d_34">
    <path d="M 90.61483 352.092284 
L 105.436699 401.441925 
L 120.258568 416.424143 
L 135.080437 427.03875 
L 149.902306 426.35931 
L 164.724176 432.396814 
L 179.546045 432.314919 
L 194.367914 431.546438 
L 209.189783 431.486102 
L 224.011652 432.865628 
L 238.833522 431.45512 
L 253.655391 429.304326 
L 268.47726 430.775572 
L 283.299129 434.043644 
L 298.120998 434.194822 
L 312.942868 434.384518 
L 327.764737 435.286057 
L 342.586606 437.01322 
L 357.408475 436.733458 
L 372.230344 436.064823 
L 387.052214 436.475683 
L 401.874083 437.239408 
L 416.695952 436.785538 
L 431.517821 436.355267 
L 446.33969 436.215727 
L 461.16156 437.233208 
L 475.983429 437.467253 
L 490.805298 436.615061 
L 505.627167 436.952361 
L 520.449036 437.710323 
L 535.270906 437.880373 
L 550.092775 437.001699 
L 564.914644 437.650292 
L 579.736513 438.090247 
L 594.558382 438.159304 
L 609.380252 437.784675 
L 624.202121 437.93247 
L 639.02399 438.60129 
L 653.845859 438.510217 
L 668.667728 438.228337 
L 683.489598 438.444877 
L 698.311467 439.006371 
L 713.133336 438.8935 
L 727.955205 438.560745 
L 742.777074 438.415177 
L 757.598944 438.963316 
L 772.420813 438.884246 
L 787.242682 438.781012 
L 802.064551 438.908008 
L 816.88642 439.11445 
" clip-path="url(#p9af52d81de)" style="fill: none; stroke: #d62728; stroke-width: 1.6; stroke-linecap: square"/>
   </g>
   <g id="line2d_35">
    <path d="M 90.61483 370.732428 
L 105.436699 410.783723 
L 120.258568 417.132265 
L 135.080437 425.21851 
L 149.902306 428.298067 
L 164.724176 430.510755 
L 179.546045 432.057841 
L 194.367914 433.214653 
L 209.189783 432.821827 
L 224.011652 432.852633 
L 238.833522 432.87113 
L 253.655391 434.376218 
L 268.47726 436.885369 
L 283.299129 436.989631 
L 298.120998 436.667173 
L 312.942868 437.67184 
L 327.764737 437.901984 
L 342.586606 437.953462 
L 357.408475 437.929723 
L 372.230344 438.454475 
L 387.052214 438.597859 
L 401.874083 438.263415 
L 416.695952 438.15916 
L 431.517821 438.705565 
L 446.33969 438.372846 
L 461.16156 438.48365 
L 475.983429 438.539615 
L 490.805298 438.871346 
L 505.627167 439.024425 
L 520.449036 439.074196 
L 535.270906 438.768371 
L 550.092775 439.222158 
L 564.914644 439.612278 
L 579.736513 439.1835 
L 594.558382 439.264121 
L 609.380252 439.395038 
L 624.202121 439.783187 
L 639.02399 439.692964 
L 653.845859 439.496661 
L 668.667728 439.967814 
L 683.489598 439.718433 
L 698.311467 439.804263 
L 713.133336 439.887757 
L 727.955205 439.971268 
L 742.777074 440.027545 
L 757.598944 440.013304 
L 772.420813 439.877582 
L 787.242682 440.242677 
L 802.064551 440.21775 
L 816.88642 440.014355 
" clip-path="url(#p9af52d81de)" style="fill: none; stroke: #9467bd; stroke-width: 1.6; stroke-linecap: square"/>
   </g>
   <g id="line2d_36">
    <path d="M 90.61483 392.554851 
L 105.436699 420.554805 
L 120.258568 423.206794 
L 135.080437 427.700269 
L 149.902306 431.097137 
L 164.724176 433.091232 
L 179.546045 434.463067 
L 194.367914 435.075215 
L 209.189783 435.33212 
L 224.011652 435.431215 
L 238.833522 435.320485 
L 253.655391 435.969211 
L 268.47726 436.86986 
L 283.299129 437.355025 
L 298.120998 437.617443 
L 312.942868 437.979098 
L 327.764737 438.309365 
L 342.586606 438.753347 
L 357.408475 438.911495 
L 372.230344 439.083537 
L 387.052214 439.003259 
L 401.874083 439.231377 
L 416.695952 439.115273 
L 431.517821 439.40991 
L 446.33969 439.299997 
L 461.16156 439.468357 
L 475.983429 439.585024 
L 490.805298 439.674044 
L 505.627167 439.727544 
L 520.449036 439.73133 
L 535.270906 439.708201 
L 550.092775 440.082908 
L 564.914644 440.116702 
L 579.736513 440.164449 
L 594.558382 440.305721 
L 609.380252 440.223936 
L 624.202121 440.384037 
L 639.02399 440.441931 
L 653.845859 440.332187 
L 668.667728 440.649916 
L 683.489598 440.557005 
L 698.311467 440.673637 
L 713.133336 440.664221 
L 727.955205 441.530397 
L 742.777074 439.665772 
L 757.598944 439.633969 
L 772.420813 439.648081 
L 787.242682 439.836713 
L 802.064551 439.724054 
L 816.88642 439.661002 
" clip-path="url(#p9af52d81de)" style="fill: none; stroke: #8c564b; stroke-width: 1.6; stroke-linecap: square"/>
   </g>
   <g id="line2d_37">
    <path d="M 90.61483 394.723965 
L 105.436699 413.748109 
L 120.258568 423.093407 
L 135.080437 427.78079 
L 149.902306 431.694796 
L 164.724176 433.70344 
L 179.546045 434.6013 
L 194.367914 435.485815 
L 209.189783 435.986128 
L 224.011652 436.240724 
L 238.833522 436.26632 
L 253.655391 436.874964 
L 268.47726 437.54511 
L 283.299129 437.7876 
L 298.120998 438.272617 
L 312.942868 438.599016 
L 327.764737 438.746707 
L 342.586606 438.911448 
L 357.408475 439.109924 
L 372.230344 439.213743 
L 387.052214 438.355059 
L 401.874083 438.153672 
L 416.695952 438.063697 
L 431.517821 440.420595 
L 446.33969 440.305479 
L 461.16156 440.430648 
L 475.983429 440.432662 
L 490.805298 440.385843 
L 505.627167 440.484881 
L 520.449036 440.731189 
L 535.270906 440.476332 
L 550.092775 440.676754 
L 564.914644 440.769705 
L 579.736513 440.737268 
L 594.558382 440.822065 
L 609.380252 440.757629 
L 624.202121 440.940156 
L 639.02399 440.942195 
L 653.845859 440.91803 
L 668.667728 441.124156 
L 683.489598 440.939842 
L 698.311467 441.012371 
L 713.133336 441.067939 
L 727.955205 441.156017 
L 742.777074 441.111764 
L 757.598944 441.260309 
L 772.420813 441.198366 
L 787.242682 441.235539 
L 802.064551 441.17867 
L 816.88642 441.230307 
" clip-path="url(#p9af52d81de)" style="fill: none; stroke: #e377c2; stroke-width: 1.6; stroke-linecap: square"/>
   </g>
   <g id="line2d_38">
    <path d="M 90.61483 403.448302 
L 105.436699 424.899715 
L 120.258568 432.033772 
L 135.080437 434.557324 
L 149.902306 437.391521 
L 164.724176 438.141626 
L 179.546045 439.165565 
L 194.367914 439.416609 
L 209.189783 439.897208 
L 224.011652 439.824288 
L 238.833522 439.685434 
L 253.655391 440.422819 
L 268.47726 440.899453 
L 283.299129 440.789116 
L 298.120998 441.298769 
L 312.942868 441.427036 
L 327.764737 441.481146 
L 342.586606 441.771787 
L 357.408475 441.872188 
L 372.230344 442.052109 
L 387.052214 442.115826 
L 401.874083 442.089862 
L 416.695952 442.097389 
L 431.517821 442.194545 
L 446.33969 442.174207 
L 461.16156 442.168972 
L 475.983429 436.752499 
L 490.805298 441.58137 
L 505.627167 440.534589 
L 520.449036 440.839065 
L 535.270906 440.882919 
L 550.092775 441.182302 
L 564.914644 441.226213 
L 579.736513 441.302678 
L 594.558382 441.455953 
L 609.380252 441.468604 
L 624.202121 441.510936 
L 639.02399 441.401737 
L 653.845859 441.565701 
L 668.667728 441.326967 
L 683.489598 441.612131 
L 698.311467 441.631246 
L 713.133336 441.68241 
L 727.955205 441.496939 
L 742.777074 441.550969 
L 757.598944 441.807682 
L 772.420813 441.622327 
L 787.242682 441.696741 
L 802.064551 441.833772 
L 816.88642 441.890172 
" clip-path="url(#p9af52d81de)" style="fill: none; stroke: #7f7f7f; stroke-width: 1.6; stroke-linecap: square"/>
   </g>
   <g id="patch_3">
    <path d="M 54.30125 462.04 
L 54.30125 25.44 
" style="fill: none; stroke: #000000; stroke-width: 0.8; stroke-linejoin: miter; stroke-linecap: square"/>
   </g>
   <g id="patch_4">
    <path d="M 853.2 462.04 
L 853.2 25.44 
" style="fill: none; stroke: #000000; stroke-width: 0.8; stroke-linejoin: miter; stroke-linecap: square"/>
   </g>
   <g id="patch_5">
    <path d="M 54.30125 462.04 
L 853.2 462.04 
" style="fill: none; stroke: #000000; stroke-width: 0.8; stroke-linejoin: miter; stroke-linecap: square"/>
   </g>
   <g id="patch_6">
    <path d="M 54.30125 25.44 
L 853.2 25.44 
" style="fill: none; stroke: #000000; stroke-width: 0.8; stroke-linejoin: miter; stroke-linecap: square"/>
   </g>
   <g id="text_18">
    <!-- mul_u52_1 sweep -->
    <g transform="translate(400.049688 19.44) scale(0.12 -0.12)">
     <defs>
      <path id="DejaVuSans-77" d="M 269 3500 
L 844 3500 
L 1563 769 
L 2278 3500 
L 2956 3500 
L 3675 769 
L 4391 3500 
L 4966 3500 
L 4050 0 
L 3372 0 
L 2619 2869 
L 1863 0 
L 1184 0 
L 269 3500 
z
" transform="scale(0.015625)"/>
      <path id="DejaVuSans-65" d="M 3597 1894 
L 3597 1613 
L 953 1613 
Q 991 1019 1311 708 
Q 1631 397 2203 397 
Q 2534 397 2845 478 
Q 3156 559 3463 722 
L 3463 178 
Q 3153 47 2828 -22 
Q 2503 -91 2169 -91 
Q 1331 -91 842 396 
Q 353 884 353 1716 
Q 353 2575 817 3079 
Q 1281 3584 2069 3584 
Q 2775 3584 3186 3129 
Q 3597 2675 3597 1894 
z
M 3022 2063 
Q 3016 2534 2758 2815 
Q 2500 3097 2075 3097 
Q 1594 3097 1305 2825 
Q 1016 2553 972 2059 
L 3022 2063 
z
" transform="scale(0.015625)"/>
      <path id="DejaVuSans-70" d="M 1159 525 
L 1159 -1331 
L 581 -1331 
L 581 3500 
L 1159 3500 
L 1159 2969 
Q 1341 3281 1617 3432 
Q 1894 3584 2278 3584 
Q 2916 3584 3314 3078 
Q 3713 2572 3713 1747 
Q 3713 922 3314 415 
Q 2916 -91 2278 -91 
Q 1894 -91 1617 61 
Q 1341 213 1159 525 
z
M 3116 1747 
Q 3116 2381 2855 2742 
Q 2594 3103 2138 3103 
Q 1681 3103 1420 2742 
Q 1159 2381 1159 1747 
Q 1159 1113 1420 752 
Q 1681 391 2138 391 
Q 2594 391 2855 752 
Q 3116 1113 3116 1747 
z
" transform="scale(0.015625)"/>
     </defs>
     <use xlink:href="#DejaVuSans-6d"/>
     <use xlink:href="#DejaVuSans-75" transform="translate(97.412109 0)"/>
     <use xlink:href="#DejaVuSans-6c" transform="translate(160.791016 0)"/>
     <use xlink:href="#DejaVuSans-5f" transform="translate(188.574219 0)"/>
     <use xlink:href="#DejaVuSans-75" transform="translate(238.574219 0)"/>
     <use xlink:href="#DejaVuSans-35" transform="translate(301.953125 0)"/>
     <use xlink:href="#DejaVuSans-32" transform="translate(365.576172 0)"/>
     <use xlink:href="#DejaVuSans-5f" transform="translate(429.199219 0)"/>
     <use xlink:href="#DejaVuSans-31" transform="translate(479.199219 0)"/>
     <use xlink:href="#DejaVuSans-20" transform="translate(542.822266 0)"/>
     <use xlink:href="#DejaVuSans-73" transform="translate(574.609375 0)"/>
     <use xlink:href="#DejaVuSans-77" transform="translate(626.708984 0)"/>
     <use xlink:href="#DejaVuSans-65" transform="translate(708.496094 0)"/>
     <use xlink:href="#DejaVuSans-65" transform="translate(770.019531 0)"/>
     <use xlink:href="#DejaVuSans-70" transform="translate(831.542969 0)"/>
    </g>
   </g>
   <g id="legend_1">
    <g id="patch_7">
     <path d="M 589.75875 59.060625 
L 846.9 59.060625 
Q 848.7 59.060625 848.7 57.260625 
L 848.7 31.74 
Q 848.7 29.94 846.9 29.94 
L 589.75875 29.94 
Q 587.95875 29.94 587.95875 31.74 
L 587.95875 57.260625 
Q 587.95875 59.060625 589.75875 59.060625 
z
" style="fill: #ffffff; opacity: 0.8; stroke: #cccccc; stroke-linejoin: miter"/>
    </g>
    <g id="line2d_39">
     <path d="M 591.55875 37.228594 
L 600.55875 37.228594 
L 609.55875 37.228594 
" style="fill: none; stroke: #1f77b4; stroke-width: 1.6; stroke-linecap: square"/>
    </g>
    <g id="text_19">
     <!-- bn=1 -->
     <g transform="translate(616.75875 40.378594) scale(0.09 -0.09)">
      <defs>
       <path id="DejaVuSans-3d" d="M 678 2906 
L 4684 2906 
L 4684 2381 
L 678 2381 
L 678 2906 
z
M 678 1631 
L 4684 1631 
L 4684 1100 
L 678 1100 
L 678 1631 
z
" transform="scale(0.015625)"/>
      </defs>
      <use xlink:href="#DejaVuSans-62"/>
      <use xlink:href="#DejaVuSans-6e" transform="translate(63.476562 0)"/>
      <use xlink:href="#DejaVuSans-3d" transform="translate(126.855469 0)"/>
      <use xlink:href="#DejaVuSans-31" transform="translate(210.644531 0)"/>
     </g>
    </g>
    <g id="line2d_40">
     <path d="M 591.55875 50.438906 
L 600.55875 50.438906 
L 609.55875 50.438906 
" style="fill: none; stroke: #ff7f0e; stroke-width: 1.6; stroke-linecap: square"/>
    </g>
    <g id="text_20">
     <!-- bn=2 -->
     <g transform="translate(616.75875 53.588906) scale(0.09 -0.09)">
      <use xlink:href="#DejaVuSans-62"/>
      <use xlink:href="#DejaVuSans-6e" transform="translate(63.476562 0)"/>
      <use xlink:href="#DejaVuSans-3d" transform="translate(126.855469 0)"/>
      <use xlink:href="#DejaVuSans-32" transform="translate(210.644531 0)"/>
     </g>
    </g>
    <g id="line2d_41">
     <path d="M 659.444062 37.228594 
L 668.444062 37.228594 
L 677.444062 37.228594 
" style="fill: none; stroke: #2ca02c; stroke-width: 1.6; stroke-linecap: square"/>
    </g>
    <g id="text_21">
     <!-- bn=3 -->
     <g transform="translate(684.644063 40.378594) scale(0.09 -0.09)">
      <use xlink:href="#DejaVuSans-62"/>
      <use xlink:href="#DejaVuSans-6e" transform="translate(63.476562 0)"/>
      <use xlink:href="#DejaVuSans-3d" transform="translate(126.855469 0)"/>
      <use xlink:href="#DejaVuSans-33" transform="translate(210.644531 0)"/>
     </g>
    </g>
    <g id="line2d_42">
     <path d="M 659.444062 50.438906 
L 668.444062 50.438906 
L 677.444062 50.438906 
" style="fill: none; stroke: #d62728; stroke-width: 1.6; stroke-linecap: square"/>
    </g>
    <g id="text_22">
     <!-- bn=4 -->
     <g transform="translate(684.644063 53.588906) scale(0.09 -0.09)">
      <use xlink:href="#DejaVuSans-62"/>
      <use xlink:href="#DejaVuSans-6e" transform="translate(63.476562 0)"/>
      <use xlink:href="#DejaVuSans-3d" transform="translate(126.855469 0)"/>
      <use xlink:href="#DejaVuSans-34" transform="translate(210.644531 0)"/>
     </g>
    </g>
    <g id="line2d_43">
     <path d="M 727.329375 37.228594 
L 736.329375 37.228594 
L 745.329375 37.228594 
" style="fill: none; stroke: #9467bd; stroke-width: 1.6; stroke-linecap: square"/>
    </g>
    <g id="text_23">
     <!-- bn=5 -->
     <g transform="translate(752.529375 40.378594) scale(0.09 -0.09)">
      <use xlink:href="#DejaVuSans-62"/>
      <use xlink:href="#DejaVuSans-6e" transform="translate(63.476562 0)"/>
      <use xlink:href="#DejaVuSans-3d" transform="translate(126.855469 0)"/>
      <use xlink:href="#DejaVuSans-35" transform="translate(210.644531 0)"/>
     </g>
    </g>
    <g id="line2d_44">
     <path d="M 727.329375 50.438906 
L 736.329375 50.438906 
L 745.329375 50.438906 
" style="fill: none; stroke: #8c564b; stroke-width: 1.6; stroke-linecap: square"/>
    </g>
    <g id="text_24">
     <!-- bn=6 -->
     <g transform="translate(752.529375 53.588906) scale(0.09 -0.09)">
      <defs>
       <path id="DejaVuSans-36" d="M 2113 2584 
Q 1688 2584 1439 2293 
Q 1191 2003 1191 1497 
Q 1191 994 1439 701 
Q 1688 409 2113 409 
Q 2538 409 2786 701 
Q 3034 994 3034 1497 
Q 3034 2003 2786 2293 
Q 2538 2584 2113 2584 
z
M 3366 4563 
L 3366 3988 
Q 3128 4100 2886 4159 
Q 2644 4219 2406 4219 
Q 1781 4219 1451 3797 
Q 1122 3375 1075 2522 
Q 1259 2794 1537 2939 
Q 1816 3084 2150 3084 
Q 2853 3084 3261 2657 
Q 3669 2231 3669 1497 
Q 3669 778 3244 343 
Q 2819 -91 2113 -91 
Q 1303 -91 875 529 
Q 447 1150 447 2328 
Q 447 3434 972 4092 
Q 1497 4750 2381 4750 
Q 2619 4750 2861 4703 
Q 3103 4656 3366 4563 
z
" transform="scale(0.015625)"/>
      </defs>
      <use xlink:href="#DejaVuSans-62"/>
      <use xlink:href="#DejaVuSans-6e" transform="translate(63.476562 0)"/>
      <use xlink:href="#DejaVuSans-3d" transform="translate(126.855469 0)"/>
      <use xlink:href="#DejaVuSans-36" transform="translate(210.644531 0)"/>
     </g>
    </g>
    <g id="line2d_45">
     <path d="M 795.214688 37.228594 
L 804.214688 37.228594 
L 813.214688 37.228594 
" style="fill: none; stroke: #e377c2; stroke-width: 1.6; stroke-linecap: square"/>
    </g>
    <g id="text_25">
     <!-- bn=7 -->
     <g transform="translate(820.414688 40.378594) scale(0.09 -0.09)">
      <defs>
       <path id="DejaVuSans-37" d="M 525 4666 
L 3525 4666 
L 3525 4397 
L 1831 0 
L 1172 0 
L 2766 4134 
L 525 4134 
L 525 4666 
z
" transform="scale(0.015625)"/>
      </defs>
      <use xlink:href="#DejaVuSans-62"/>
      <use xlink:href="#DejaVuSans-6e" transform="translate(63.476562 0)"/>
      <use xlink:href="#DejaVuSans-3d" transform="translate(126.855469 0)"/>
      <use xlink:href="#DejaVuSans-37" transform="translate(210.644531 0)"/>
     </g>
    </g>
    <g id="line2d_46">
     <path d="M 795.214688 50.438906 
L 804.214688 50.438906 
L 813.214688 50.438906 
" style="fill: none; stroke: #7f7f7f; stroke-width: 1.6; stroke-linecap: square"/>
    </g>
    <g id="text_26">
     <!-- bn=8 -->
     <g transform="translate(820.414688 53.588906) scale(0.09 -0.09)">
      <defs>
       <path id="DejaVuSans-38" d="M 2034 2216 
Q 1584 2216 1326 1975 
Q 1069 1734 1069 1313 
Q 1069 891 1326 650 
Q 1584 409 2034 409 
Q 2484 409 2743 651 
Q 3003 894 3003 1313 
Q 3003 1734 2745 1975 
Q 2488 2216 2034 2216 
z
M 1403 2484 
Q 997 2584 770 2862 
Q 544 3141 544 3541 
Q 544 4100 942 4425 
Q 1341 4750 2034 4750 
Q 2731 4750 3128 4425 
Q 3525 4100 3525 3541 
Q 3525 3141 3298 2862 
Q 3072 2584 2669 2484 
Q 3125 2378 3379 2068 
Q 3634 1759 3634 1313 
Q 3634 634 3220 271 
Q 2806 -91 2034 -91 
Q 1263 -91 848 271 
Q 434 634 434 1313 
Q 434 1759 690 2068 
Q 947 2378 1403 2484 
z
M 1172 3481 
Q 1172 3119 1398 2916 
Q 1625 2713 2034 2713 
Q 2441 2713 2670 2916 
Q 2900 3119 2900 3481 
Q 2900 3844 2670 4047 
Q 2441 4250 2034 4250 
Q 1625 4250 1398 4047 
Q 1172 3844 1172 3481 
z
" transform="scale(0.015625)"/>
      </defs>
      <use xlink:href="#DejaVuSans-62"/>
      <use xlink:href="#DejaVuSans-6e" transform="translate(63.476562 0)"/>
      <use xlink:href="#DejaVuSans-3d" transform="translate(126.855469 0)"/>
      <use xlink:href="#DejaVuSans-38" transform="translate(210.644531 0)"/>
     </g>
    </g>
   </g>
  </g>
 </g>
 <defs>
  <clipPath id="p9af52d81de">
   <rect x="54.30125" y="25.44" width="798.89875" height="436.6"/>
  </clipPath>
 </defs>
</svg>
