<svg xmlns="http://www.w3.org/2000/svg" width="1320" height="980" viewBox="0 0 1320 980">
<rect width="100%" height="100%" fill="white"/>
<text x="660.0" y="32" text-anchor="middle" font-family="Arial" font-size="22" fill="#111">mul.h u52 basecase sweep zoom: 0..0.4</text>
<text x="660.0" y="55" text-anchor="middle" font-family="Arial" font-size="13" fill="#444">y = ns per u52 digit product; values above 0.4 are clipped</text>
<rect x="60.0" y="76.0" width="375.0" height="247.3" fill="#fff" stroke="#bbb"/>
<text x="247.5" y="66.0" text-anchor="middle" font-family="Arial" font-size="15" fill="#111">an=1bn</text>
<line x1="60.0" y1="76.0" x2="60.0" y2="323.3" stroke="#eeeeee"/>
<text x="60.0" y="341.3" text-anchor="middle" font-family="Arial" font-size="11" fill="#444">8</text>
<line x1="153.8" y1="76.0" x2="153.8" y2="323.3" stroke="#eeeeee"/>
<text x="153.8" y="341.3" text-anchor="middle" font-family="Arial" font-size="11" fill="#444">56</text>
<line x1="247.5" y1="76.0" x2="247.5" y2="323.3" stroke="#eeeeee"/>
<text x="247.5" y="341.3" text-anchor="middle" font-family="Arial" font-size="11" fill="#444">104</text>
<line x1="341.2" y1="76.0" x2="341.2" y2="323.3" stroke="#eeeeee"/>
<text x="341.2" y="341.3" text-anchor="middle" font-family="Arial" font-size="11" fill="#444">152</text>
<line x1="435.0" y1="76.0" x2="435.0" y2="323.3" stroke="#eeeeee"/>
<text x="435.0" y="341.3" text-anchor="middle" font-family="Arial" font-size="11" fill="#444">200</text>
<line x1="60.0" y1="323.3" x2="435.0" y2="323.3" stroke="#eeeeee"/>
<text x="52.0" y="327.3" text-anchor="end" font-family="Arial" font-size="11" fill="#444">0.0</text>
<line x1="60.0" y1="261.5" x2="435.0" y2="261.5" stroke="#eeeeee"/>
<text x="52.0" y="265.5" text-anchor="end" font-family="Arial" font-size="11" fill="#444">0.1</text>
<line x1="60.0" y1="199.7" x2="435.0" y2="199.7" stroke="#eeeeee"/>
<text x="52.0" y="203.7" text-anchor="end" font-family="Arial" font-size="11" fill="#444">0.2</text>
<line x1="60.0" y1="137.8" x2="435.0" y2="137.8" stroke="#eeeeee"/>
<text x="52.0" y="141.8" text-anchor="end" font-family="Arial" font-size="11" fill="#444">0.3</text>
<line x1="60.0" y1="76.0" x2="435.0" y2="76.0" stroke="#eeeeee"/>
<text x="52.0" y="80.0" text-anchor="end" font-family="Arial" font-size="11" fill="#444">0.4</text>
<polyline points="60.00,237.34 63.91,227.67 67.81,255.93 71.72,255.63 75.62,265.91 79.53,264.77 83.44,274.13 87.34,272.50 91.25,275.54 95.16,276.24 99.06,279.66 102.97,278.85 106.88,281.64 110.78,281.15 114.69,283.08 118.59,282.32 122.50,283.78 126.41,283.47 130.31,283.08 134.22,282.85 138.12,283.35 142.03,284.11 145.94,284.35 149.84,283.55 153.75,284.39 157.66,285.43 161.56,286.05 165.47,287.17 169.38,285.59 173.28,285.67 177.19,285.72 181.09,286.11 185.00,286.19 188.91,286.68 192.81,286.92 196.72,286.44 200.62,286.31 204.53,287.17 208.44,287.18 212.34,286.91 216.25,287.21 220.16,287.65 224.06,287.72 227.97,287.62 231.88,288.12 235.78,288.27 239.69,288.24 243.59,288.16 247.50,288.20 251.41,288.40 255.31,288.29 259.22,288.90 263.12,288.83 267.03,288.71 270.94,288.90 274.84,288.83 278.75,289.13 282.66,289.37 286.56,289.48 290.47,288.98 294.38,289.54 298.28,289.96 302.19,289.68 306.09,290.93 310.00,291.41 313.91,291.63 317.81,291.63 321.72,291.37 325.62,291.48 329.53,291.62 333.44,291.56 337.34,291.47 341.25,291.84 345.16,291.63 349.06,290.53 352.97,290.02 356.88,290.17 360.78,290.07 364.69,290.14 368.59,290.19 372.50,291.16 376.41,291.61 380.31,291.61 384.22,291.56 388.12,291.33 392.03,290.14 395.94,290.45 399.84,290.03 403.75,290.36 407.66,290.70 411.56,290.11 415.47,290.55 419.38,290.56 423.28,291.05 427.19,291.18 431.09,291.13 435.00,292.02" fill="none" stroke="#0b6cff" stroke-width="1.8"/>
<polyline points="60.00,154.23 63.91,138.04 67.81,168.52 71.72,205.44 75.62,226.42 79.53,219.84 83.44,230.33 87.34,242.58 91.25,251.66 95.16,246.35 99.06,250.99 102.97,257.23 106.88,261.64 110.78,258.94 114.69,261.85 118.59,265.07 122.50,268.93 126.41,266.35 130.31,266.92 134.22,269.24 138.12,271.96 142.03,270.83 145.94,271.86 149.84,274.21 153.75,274.90 157.66,274.07 161.56,275.91 165.47,277.56 169.38,277.18 173.28,276.63 177.19,277.52 181.09,278.62 185.00,279.67 188.91,278.82 192.81,279.76 196.72,280.10 200.62,280.68 204.53,280.51 208.44,280.96 212.34,281.63 216.25,281.93 220.16,281.61 224.06,282.02 227.97,282.23 231.88,282.61 235.78,282.65 239.69,282.84 243.59,283.35 247.50,283.57 251.41,283.67 255.31,283.67 259.22,284.04 263.12,284.14 267.03,284.17 270.94,284.31 274.84,284.82 278.75,285.04 282.66,284.26 286.56,285.06 290.47,285.45 294.38,285.02 298.28,285.10 302.19,285.59 306.09,286.92 310.00,287.29 313.91,287.29 317.81,287.14 321.72,287.65 325.62,287.63 329.53,287.40 333.44,287.64 337.34,287.86 341.25,287.93 345.16,287.46 349.06,286.64 352.97,286.66 356.88,286.83 360.78,286.59 364.69,287.02 368.59,287.03 372.50,288.08 376.41,287.88 380.31,288.17 384.22,288.25 388.12,287.81 392.03,287.35 395.94,287.74 399.84,287.64 403.75,287.66 407.66,287.56 411.56,287.72 415.47,287.89 419.38,287.88 423.28,287.67 427.19,288.16 431.09,288.65 435.00,289.18" fill="none" stroke="#d14a00" stroke-width="1.8"/>
<polyline points="60.00,76.00 63.91,76.00 67.81,85.38 71.72,144.98 75.62,177.00 79.53,174.10 83.44,190.95 87.34,209.41 91.25,221.97 95.16,216.33 99.06,223.78 102.97,232.59 106.88,237.62 110.78,237.33 114.69,240.95 118.59,246.49 122.50,251.50 126.41,248.97 130.31,250.96 134.22,254.93 138.12,256.59 142.03,256.04 145.94,258.74 149.84,261.46 153.75,263.76 157.66,261.76 161.56,264.12 165.47,266.79 169.38,266.91 173.28,266.69 177.19,267.39 181.09,268.69 185.00,269.49 188.91,269.39 192.81,270.50 196.72,271.85 200.62,271.75 204.53,271.36 208.44,272.41 212.34,273.17 216.25,274.39 220.16,273.25 224.06,274.28 227.97,274.88 231.88,275.51 235.78,275.28 239.69,275.73 243.59,276.33 247.50,277.25 251.41,276.83 255.31,277.21 259.22,278.08 263.12,278.01 267.03,277.97 270.94,278.33 274.84,278.99 278.75,279.29 282.66,279.01 286.56,279.33 290.47,279.72 294.38,279.99 298.28,280.08 302.19,281.14 306.09,281.74 310.00,282.43 313.91,282.44 317.81,282.52 321.72,282.86 325.62,282.96 329.53,282.68 333.44,283.29 337.34,283.39 341.25,283.49 345.16,281.86 349.06,282.37 352.97,282.52 356.88,282.92 360.78,282.91 364.69,282.99 368.59,283.17 372.50,284.24 376.41,284.41 380.31,284.42 384.22,284.59 388.12,284.18 392.03,283.97 395.94,284.20 399.84,284.28 403.75,284.44 407.66,284.29 411.56,284.54 415.47,284.63 419.38,284.80 423.28,284.68 427.19,285.10 431.09,285.71 435.00,286.09" fill="none" stroke="#179b52" stroke-width="1.8"/>
<rect x="485.0" y="76.0" width="375.0" height="247.3" fill="#fff" stroke="#bbb"/>
<text x="672.5" y="66.0" text-anchor="middle" font-family="Arial" font-size="15" fill="#111">an=2bn</text>
<line x1="485.0" y1="76.0" x2="485.0" y2="323.3" stroke="#eeeeee"/>
<text x="485.0" y="341.3" text-anchor="middle" font-family="Arial" font-size="11" fill="#444">8</text>
<line x1="578.8" y1="76.0" x2="578.8" y2="323.3" stroke="#eeeeee"/>
<text x="578.8" y="341.3" text-anchor="middle" font-family="Arial" font-size="11" fill="#444">56</text>
<line x1="672.5" y1="76.0" x2="672.5" y2="323.3" stroke="#eeeeee"/>
<text x="672.5" y="341.3" text-anchor="middle" font-family="Arial" font-size="11" fill="#444">104</text>
<line x1="766.2" y1="76.0" x2="766.2" y2="323.3" stroke="#eeeeee"/>
<text x="766.2" y="341.3" text-anchor="middle" font-family="Arial" font-size="11" fill="#444">152</text>
<line x1="860.0" y1="76.0" x2="860.0" y2="323.3" stroke="#eeeeee"/>
<text x="860.0" y="341.3" text-anchor="middle" font-family="Arial" font-size="11" fill="#444">200</text>
<line x1="485.0" y1="323.3" x2="860.0" y2="323.3" stroke="#eeeeee"/>
<line x1="485.0" y1="261.5" x2="860.0" y2="261.5" stroke="#eeeeee"/>
<line x1="485.0" y1="199.7" x2="860.0" y2="199.7" stroke="#eeeeee"/>
<line x1="485.0" y1="137.8" x2="860.0" y2="137.8" stroke="#eeeeee"/>
<line x1="485.0" y1="76.0" x2="860.0" y2="76.0" stroke="#eeeeee"/>
<polyline points="485.00,172.93 488.91,183.31 492.81,197.01 496.72,235.87 500.62,249.88 504.53,243.32 508.44,256.39 512.34,258.67 516.25,263.61 520.16,263.88 524.06,266.05 527.97,270.21 531.88,273.01 535.78,269.16 539.69,271.71 543.59,274.04 547.50,276.63 551.41,277.22 555.31,276.86 559.22,277.80 563.12,279.37 567.03,278.81 570.94,280.28 574.84,280.65 578.75,281.74 582.66,280.87 586.56,281.17 590.47,281.97 594.38,282.55 598.28,281.99 602.19,283.37 606.09,282.98 610.00,283.57 613.91,283.50 617.81,283.29 621.72,283.60 625.62,283.94 629.53,284.48 633.44,284.21 637.34,284.21 641.25,284.18 645.16,284.02 649.06,285.53 652.97,286.95 656.88,287.51 660.78,287.55 664.69,287.53 668.59,287.64 672.50,286.17 676.41,285.85 680.31,286.46 684.22,286.22 688.12,286.29 692.03,286.15 695.94,286.77 699.84,286.44 703.75,286.85 707.66,287.33 711.56,287.31 715.47,287.65 719.38,287.71 723.28,286.79 727.19,287.40 731.09,287.87 735.00,289.20 738.91,289.34 742.81,289.04 746.72,289.15 750.62,289.12 754.53,288.98 758.44,289.40 762.34,289.39 766.25,289.53 770.16,289.33 774.06,289.34 777.97,289.49 781.88,289.55 785.78,289.88 789.69,289.85 793.59,289.98 797.50,289.82 801.41,289.70 805.31,290.10 809.22,289.90 813.12,290.18 817.03,289.92 820.94,290.62 824.84,290.50 828.75,290.60 832.66,290.59 836.56,290.42 840.47,290.48 844.38,290.70 848.28,290.54 852.19,290.38 856.09,290.66 860.00,290.84" fill="none" stroke="#0b6cff" stroke-width="1.8"/>
<polyline points="485.00,76.00 488.91,76.00 492.81,107.36 496.72,162.34 500.62,197.12 504.53,162.72 508.44,194.07 512.34,202.15 516.25,216.48 520.16,210.33 524.06,223.36 527.97,237.83 531.88,244.99 535.78,237.71 539.69,244.41 543.59,246.23 547.50,252.04 551.41,249.78 555.31,253.86 559.22,260.29 563.12,260.62 567.03,255.10 570.94,259.20 574.84,260.42 578.75,262.06 582.66,261.85 586.56,263.09 590.47,266.72 594.38,267.90 598.28,266.55 602.19,268.48 606.09,269.17 610.00,271.18 613.91,269.65 617.81,271.76 621.72,273.28 625.62,273.97 629.53,271.60 633.44,273.37 637.34,275.09 641.25,275.06 645.16,274.65 649.06,276.48 652.97,278.40 656.88,278.06 660.78,277.67 664.69,278.67 668.59,278.41 672.50,278.87 676.41,278.42 680.31,278.80 684.22,279.98 688.12,279.86 692.03,279.00 695.94,279.80 699.84,280.18 703.75,280.10 707.66,280.37 711.56,280.53 715.47,281.55 719.38,281.25 723.28,281.00 727.19,281.44 731.09,281.73 735.00,282.56 738.91,282.85 742.81,283.07 746.72,283.68 750.62,283.54 754.53,283.19 758.44,283.68 762.34,283.68 766.25,284.28 770.16,284.18 774.06,284.56 777.97,284.52 781.88,284.46 785.78,284.33 789.69,284.61 793.59,284.79 797.50,285.19 801.41,285.12 805.31,285.23 809.22,285.64 813.12,285.40 817.03,285.03 820.94,283.51 824.84,285.86 828.75,286.11 832.66,285.71 836.56,286.02 840.47,286.36 844.38,286.27 848.28,285.88 852.19,286.32 856.09,286.31 860.00,286.54" fill="none" stroke="#d14a00" stroke-width="1.8"/>
<polyline points="485.00,76.00 488.91,76.00 492.81,76.00 496.72,76.00 500.62,109.15 504.53,90.33 508.44,127.40 512.34,140.39 516.25,166.10 520.16,164.16 524.06,186.86 527.97,198.52 531.88,208.92 535.78,202.82 539.69,212.49 543.59,216.42 547.50,223.54 551.41,222.66 555.31,228.40 559.22,234.48 563.12,237.69 567.03,231.74 570.94,236.55 574.84,239.23 578.75,243.51 582.66,242.06 586.56,246.08 590.47,249.79 594.38,250.85 598.28,250.76 602.19,253.57 606.09,254.79 610.00,256.35 613.91,256.11 617.81,257.94 621.72,259.56 625.62,262.13 629.53,258.42 633.44,261.18 637.34,262.26 641.25,263.30 645.16,264.05 649.06,264.17 652.97,266.36 656.88,267.32 660.78,266.74 664.69,267.92 668.59,268.33 672.50,268.25 676.41,268.54 680.31,269.55 684.22,270.12 688.12,270.46 692.03,270.25 695.94,271.02 699.84,271.38 703.75,272.04 707.66,271.99 711.56,272.70 715.47,273.14 719.38,273.40 723.28,273.08 727.19,273.65 731.09,274.53 735.00,275.51 738.91,275.47 742.81,276.22 746.72,276.60 750.62,276.92 754.53,276.34 758.44,276.84 762.34,277.14 766.25,277.88 770.16,277.62 774.06,277.92 777.97,278.58 781.88,278.53 785.78,277.78 789.69,278.69 793.59,279.10 797.50,279.27 801.41,279.10 805.31,279.53 809.22,279.91 813.12,279.63 817.03,279.03 820.94,280.07 824.84,280.26 828.75,280.57 832.66,280.56 836.56,280.78 840.47,281.15 844.38,281.09 848.28,280.87 852.19,281.28 856.09,281.23 860.00,281.51" fill="none" stroke="#179b52" stroke-width="1.8"/>
<rect x="910.0" y="76.0" width="375.0" height="247.3" fill="#fff" stroke="#bbb"/>
<text x="1097.5" y="66.0" text-anchor="middle" font-family="Arial" font-size="15" fill="#111">an=4bn</text>
<line x1="910.0" y1="76.0" x2="910.0" y2="323.3" stroke="#eeeeee"/>
<text x="910.0" y="341.3" text-anchor="middle" font-family="Arial" font-size="11" fill="#444">8</text>
<line x1="1003.8" y1="76.0" x2="1003.8" y2="323.3" stroke="#eeeeee"/>
<text x="1003.8" y="341.3" text-anchor="middle" font-family="Arial" font-size="11" fill="#444">56</text>
<line x1="1097.5" y1="76.0" x2="1097.5" y2="323.3" stroke="#eeeeee"/>
<text x="1097.5" y="341.3" text-anchor="middle" font-family="Arial" font-size="11" fill="#444">104</text>
<line x1="1191.2" y1="76.0" x2="1191.2" y2="323.3" stroke="#eeeeee"/>
<text x="1191.2" y="341.3" text-anchor="middle" font-family="Arial" font-size="11" fill="#444">152</text>
<line x1="1285.0" y1="76.0" x2="1285.0" y2="323.3" stroke="#eeeeee"/>
<text x="1285.0" y="341.3" text-anchor="middle" font-family="Arial" font-size="11" fill="#444">200</text>
<line x1="910.0" y1="323.3" x2="1285.0" y2="323.3" stroke="#eeeeee"/>
<line x1="910.0" y1="261.5" x2="1285.0" y2="261.5" stroke="#eeeeee"/>
<line x1="910.0" y1="199.7" x2="1285.0" y2="199.7" stroke="#eeeeee"/>
<line x1="910.0" y1="137.8" x2="1285.0" y2="137.8" stroke="#eeeeee"/>
<line x1="910.0" y1="76.0" x2="1285.0" y2="76.0" stroke="#eeeeee"/>
<polyline points="910.00,99.12 913.91,138.58 917.81,132.71 921.72,189.50 925.62,204.83 929.53,217.02 933.44,218.88 937.34,233.55 941.25,240.84 945.16,248.27 949.06,247.86 952.97,251.55 956.88,253.87 960.78,253.80 964.69,256.48 968.59,260.53 972.50,262.12 976.41,256.25 980.31,265.84 984.22,266.22 988.12,269.48 992.03,269.42 995.94,268.60 999.84,272.45 1003.75,273.87 1007.66,272.89 1011.56,272.65 1015.47,276.78 1019.38,275.97 1023.28,275.86 1027.19,277.00 1031.09,268.60 1035.00,278.26 1038.91,279.33 1042.81,276.73 1046.72,278.97 1050.62,279.61 1054.53,280.22 1058.44,280.28 1062.34,281.28 1066.25,281.91 1070.16,281.80 1074.06,281.58 1077.97,282.79 1081.88,281.98 1085.78,282.08 1089.69,283.64 1093.59,283.20 1097.50,283.73 1101.41,284.34 1105.31,284.47 1109.22,284.33 1113.12,284.66 1117.03,284.36 1120.94,284.34 1124.84,284.59 1128.75,284.87 1132.66,285.28 1136.56,285.54 1140.47,285.63 1144.38,284.55 1148.28,282.69 1152.19,284.90 1156.09,285.20 1160.00,285.52 1163.91,285.24 1167.81,285.59 1171.72,286.04 1175.62,286.29 1179.53,286.01 1183.44,285.74 1187.34,286.40 1191.25,286.59 1195.16,286.51 1199.06,286.66 1202.97,286.68 1206.88,286.63 1210.78,286.70 1214.69,284.21 1218.59,287.06 1222.50,287.40 1226.41,287.55 1230.31,287.57 1234.22,287.72 1238.12,287.92 1242.03,287.95 1245.94,287.84 1249.84,288.19 1253.75,288.23 1257.66,287.85 1261.56,286.40 1265.47,286.46 1269.38,286.93 1273.28,286.91 1277.19,287.47 1281.09,287.61 1285.00,286.97" fill="none" stroke="#0b6cff" stroke-width="1.8"/>
<polyline points="910.00,76.00 913.91,76.00 917.81,76.00 921.72,76.00 925.62,90.48 929.53,87.82 933.44,114.98 937.34,159.33 941.25,174.34 945.16,171.48 949.06,181.68 952.97,199.44 956.88,189.51 960.78,198.26 964.69,208.35 968.59,208.36 972.50,219.73 976.41,223.59 980.31,224.28 984.22,234.69 988.12,237.69 992.03,238.09 995.94,239.11 999.84,246.36 1003.75,245.70 1007.66,243.91 1011.56,247.26 1015.47,253.78 1019.38,251.63 1023.28,250.94 1027.19,252.59 1031.09,254.25 1035.00,256.16 1038.91,256.60 1042.81,258.00 1046.72,260.26 1050.62,260.85 1054.53,261.74 1058.44,262.65 1062.34,265.47 1066.25,266.48 1070.16,265.79 1074.06,266.64 1077.97,265.63 1081.88,265.44 1085.78,263.23 1089.69,265.86 1093.59,265.22 1097.50,267.64 1101.41,268.66 1105.31,269.03 1109.22,269.90 1113.12,270.69 1117.03,271.66 1120.94,271.22 1124.84,272.27 1128.75,273.36 1132.66,273.12 1136.56,272.68 1140.47,272.08 1144.38,271.94 1148.28,272.43 1152.19,273.57 1156.09,274.36 1160.00,274.45 1163.91,275.45 1167.81,275.08 1171.72,274.80 1175.62,276.48 1179.53,276.04 1183.44,276.20 1187.34,277.31 1191.25,277.75 1195.16,277.87 1199.06,278.28 1202.97,278.18 1206.88,278.58 1210.78,277.15 1214.69,275.78 1218.59,278.97 1222.50,279.28 1226.41,279.50 1230.31,279.82 1234.22,280.12 1238.12,280.20 1242.03,280.69 1245.94,280.52 1249.84,281.22 1253.75,281.24 1257.66,280.66 1261.56,280.38 1265.47,280.65 1269.38,280.39 1273.28,279.68 1277.19,279.89 1281.09,280.84 1285.00,280.79" fill="none" stroke="#d14a00" stroke-width="1.8"/>
<polyline points="910.00,76.00 913.91,76.00 917.81,76.00 921.72,76.00 925.62,76.00 929.53,76.00 933.44,76.00 937.34,76.00 941.25,78.82 945.16,87.89 949.06,100.16 952.97,132.57 956.88,133.94 960.78,144.92 964.69,151.15 968.59,165.64 972.50,102.77 976.41,175.77 980.31,166.41 984.22,194.84 988.12,197.85 992.03,204.51 995.94,200.84 999.84,212.91 1003.75,211.44 1007.66,211.98 1011.56,215.15 1015.47,224.93 1019.38,227.23 1023.28,223.70 1027.19,187.91 1031.09,229.00 1035.00,230.56 1038.91,190.14 1042.81,233.99 1046.72,236.42 1050.62,239.65 1054.53,239.04 1058.44,238.95 1062.34,244.38 1066.25,245.09 1070.16,244.88 1074.06,245.71 1077.97,245.26 1081.88,246.37 1085.78,246.25 1089.69,247.06 1093.59,249.56 1097.50,250.39 1101.41,251.30 1105.31,253.12 1109.22,254.19 1113.12,254.65 1117.03,255.58 1120.94,256.10 1124.84,257.60 1128.75,258.27 1132.66,257.96 1136.56,258.49 1140.47,257.94 1144.38,257.90 1148.28,259.99 1152.19,260.01 1156.09,261.57 1160.00,261.79 1163.91,262.17 1167.81,262.11 1171.72,263.63 1175.62,264.88 1179.53,264.59 1183.44,263.96 1187.34,265.37 1191.25,266.04 1195.16,266.46 1199.06,266.74 1202.97,268.14 1206.88,268.74 1210.78,267.73 1214.69,267.70 1218.59,269.40 1222.50,269.75 1226.41,269.71 1230.31,270.14 1234.22,270.78 1238.12,271.02 1242.03,271.47 1245.94,271.40 1249.84,272.23 1253.75,272.56 1257.66,271.89 1261.56,271.86 1265.47,272.14 1269.38,272.47 1273.28,272.29 1277.19,272.44 1281.09,273.19 1285.00,273.17" fill="none" stroke="#179b52" stroke-width="1.8"/>
<rect x="60.0" y="379.3" width="375.0" height="247.3" fill="#fff" stroke="#bbb"/>
<text x="247.5" y="369.3" text-anchor="middle" font-family="Arial" font-size="15" fill="#111">an=8bn</text>
<line x1="60.0" y1="379.3" x2="60.0" y2="626.7" stroke="#eeeeee"/>
<text x="60.0" y="644.7" text-anchor="middle" font-family="Arial" font-size="11" fill="#444">8</text>
<line x1="153.8" y1="379.3" x2="153.8" y2="626.7" stroke="#eeeeee"/>
<text x="153.8" y="644.7" text-anchor="middle" font-family="Arial" font-size="11" fill="#444">56</text>
<line x1="247.5" y1="379.3" x2="247.5" y2="626.7" stroke="#eeeeee"/>
<text x="247.5" y="644.7" text-anchor="middle" font-family="Arial" font-size="11" fill="#444">104</text>
<line x1="341.2" y1="379.3" x2="341.2" y2="626.7" stroke="#eeeeee"/>
<text x="341.2" y="644.7" text-anchor="middle" font-family="Arial" font-size="11" fill="#444">152</text>
<line x1="435.0" y1="379.3" x2="435.0" y2="626.7" stroke="#eeeeee"/>
<text x="435.0" y="644.7" text-anchor="middle" font-family="Arial" font-size="11" fill="#444">200</text>
<line x1="60.0" y1="626.7" x2="435.0" y2="626.7" stroke="#eeeeee"/>
<text x="52.0" y="630.7" text-anchor="end" font-family="Arial" font-size="11" fill="#444">0.0</text>
<line x1="60.0" y1="564.8" x2="435.0" y2="564.8" stroke="#eeeeee"/>
<text x="52.0" y="568.8" text-anchor="end" font-family="Arial" font-size="11" fill="#444">0.1</text>
<line x1="60.0" y1="503.0" x2="435.0" y2="503.0" stroke="#eeeeee"/>
<text x="52.0" y="507.0" text-anchor="end" font-family="Arial" font-size="11" fill="#444">0.2</text>
<line x1="60.0" y1="441.2" x2="435.0" y2="441.2" stroke="#eeeeee"/>
<text x="52.0" y="445.2" text-anchor="end" font-family="Arial" font-size="11" fill="#444">0.3</text>
<line x1="60.0" y1="379.3" x2="435.0" y2="379.3" stroke="#eeeeee"/>
<text x="52.0" y="383.3" text-anchor="end" font-family="Arial" font-size="11" fill="#444">0.4</text>
<polyline points="60.00,379.33 63.91,379.33 67.81,407.27 71.72,401.56 75.62,430.28 79.53,408.33 83.44,474.31 87.34,468.83 91.25,483.00 95.16,490.40 99.06,524.86 102.97,515.68 106.88,520.69 110.78,519.31 114.69,532.19 118.59,534.56 122.50,538.22 126.41,530.72 130.31,544.51 134.22,544.80 138.12,549.66 142.03,544.31 145.94,553.01 149.84,554.89 153.75,556.31 157.66,555.83 161.56,561.25 165.47,561.83 169.38,560.57 173.28,561.12 177.19,563.60 181.09,563.63 185.00,564.57 188.91,561.60 192.81,566.99 196.72,564.53 200.62,566.80 204.53,567.33 208.44,572.02 212.34,570.19 216.25,571.27 220.16,571.80 224.06,575.34 227.97,572.76 231.88,573.95 235.78,573.94 239.69,574.93 243.59,574.26 247.50,575.42 251.41,574.39 255.31,576.08 259.22,575.77 263.12,577.03 267.03,575.98 270.94,577.30 274.84,577.22 278.75,577.35 282.66,576.64 286.56,577.48 290.47,578.19 294.38,577.89 298.28,577.99 302.19,580.61 306.09,579.63 310.00,579.78 313.91,579.64 317.81,581.61 321.72,580.80 325.62,581.66 329.53,582.64 333.44,584.25 337.34,583.61 341.25,583.93 345.16,583.90 349.06,584.26 352.97,584.25 356.88,584.22 360.78,584.12 364.69,584.56 368.59,584.73 372.50,585.17 376.41,584.23 380.31,585.79 384.22,585.83 388.12,585.64 392.03,585.59 395.94,586.32 399.84,586.09 403.75,586.46 407.66,586.47 411.56,587.26 415.47,587.32 419.38,584.57 423.28,586.60 427.19,587.42 431.09,587.96 435.00,585.12" fill="none" stroke="#0b6cff" stroke-width="1.8"/>
<polyline points="60.00,379.33 63.91,379.33 67.81,379.33 71.72,379.33 75.62,379.33 79.53,379.33 83.44,379.33 87.34,379.33 91.25,379.33 95.16,379.33 99.06,392.17 102.97,402.64 106.88,422.77 110.78,412.20 114.69,444.43 118.59,453.43 122.50,458.47 126.41,442.94 130.31,475.07 134.22,480.42 138.12,491.84 142.03,478.34 145.94,500.30 149.84,506.71 153.75,508.86 157.66,498.54 161.56,516.47 165.47,522.28 169.38,524.68 173.28,516.35 177.19,523.50 181.09,526.86 185.00,525.03 188.91,522.54 192.81,533.49 196.72,532.27 200.62,536.59 204.53,534.26 208.44,542.57 212.34,541.63 216.25,542.83 220.16,542.48 224.06,547.10 227.97,548.28 231.88,548.89 235.78,548.13 239.69,552.66 243.59,551.86 247.50,554.02 251.41,550.28 255.31,554.93 259.22,556.44 263.12,557.33 267.03,554.14 270.94,558.83 274.84,558.99 278.75,560.47 282.66,558.03 286.56,560.65 290.47,561.25 294.38,561.82 298.28,559.49 302.19,560.30 306.09,560.99 310.00,559.55 313.91,557.55 317.81,562.64 321.72,561.91 325.62,563.37 329.53,564.90 333.44,566.96 337.34,567.16 341.25,567.25 345.16,567.08 349.06,569.24 352.97,569.65 356.88,569.73 360.78,569.55 364.69,571.23 368.59,571.57 372.50,571.67 376.41,570.97 380.31,573.19 384.22,573.31 388.12,573.88 392.03,572.65 395.94,573.99 399.84,574.31 403.75,574.57 407.66,573.45 411.56,573.07 415.47,571.60 419.38,572.77 423.28,572.38 427.19,572.75 431.09,573.17 435.00,571.75" fill="none" stroke="#d14a00" stroke-width="1.8"/>
<polyline points="60.00,379.33 63.91,379.33 67.81,379.33 71.72,379.33 75.62,379.33 79.53,379.33 83.44,379.33 87.34,379.33 91.25,379.33 95.16,379.33 99.06,379.33 102.97,379.33 106.88,379.33 110.78,379.33 114.69,379.33 118.59,379.33 122.50,379.33 126.41,379.33 130.31,397.07 134.22,406.01 138.12,415.64 142.03,398.95 145.94,436.13 149.84,442.37 153.75,444.97 157.66,434.65 161.56,463.53 165.47,469.77 169.38,473.14 173.28,462.47 177.19,477.25 181.09,479.40 185.00,478.61 188.91,474.06 192.81,489.31 196.72,487.83 200.62,495.49 204.53,492.30 208.44,504.33 212.34,502.90 216.25,507.20 220.16,502.81 224.06,511.83 227.97,512.96 231.88,514.62 235.78,512.58 239.69,518.50 243.59,518.90 247.50,521.78 251.41,517.02 255.31,526.15 259.22,527.56 263.12,529.13 267.03,526.32 270.94,529.74 274.84,531.78 278.75,533.39 282.66,530.55 286.56,535.18 290.47,536.56 294.38,537.59 298.28,535.12 302.19,538.26 306.09,538.46 310.00,537.54 313.91,535.70 317.81,540.32 321.72,541.90 325.62,542.06 329.53,544.08 333.44,546.70 337.34,547.09 341.25,547.12 345.16,547.42 349.06,550.34 352.97,550.79 356.88,551.00 360.78,551.01 364.69,553.30 368.59,554.02 372.50,554.39 376.41,553.22 380.31,556.14 384.22,556.40 388.12,557.66 392.03,556.10 395.94,558.07 399.84,557.47 403.75,558.67 407.66,557.68 411.56,558.86 415.47,557.77 419.38,558.07 423.28,557.84 427.19,558.53 431.09,559.10 435.00,557.49" fill="none" stroke="#179b52" stroke-width="1.8"/>
<rect x="485.0" y="379.3" width="375.0" height="247.3" fill="#fff" stroke="#bbb"/>
<text x="672.5" y="369.3" text-anchor="middle" font-family="Arial" font-size="15" fill="#111">bn=4</text>
<line x1="485.0" y1="379.3" x2="485.0" y2="626.7" stroke="#eeeeee"/>
<text x="485.0" y="644.7" text-anchor="middle" font-family="Arial" font-size="11" fill="#444">8</text>
<line x1="578.8" y1="379.3" x2="578.8" y2="626.7" stroke="#eeeeee"/>
<text x="578.8" y="644.7" text-anchor="middle" font-family="Arial" font-size="11" fill="#444">56</text>
<line x1="672.5" y1="379.3" x2="672.5" y2="626.7" stroke="#eeeeee"/>
<text x="672.5" y="644.7" text-anchor="middle" font-family="Arial" font-size="11" fill="#444">104</text>
<line x1="766.2" y1="379.3" x2="766.2" y2="626.7" stroke="#eeeeee"/>
<text x="766.2" y="644.7" text-anchor="middle" font-family="Arial" font-size="11" fill="#444">152</text>
<line x1="860.0" y1="379.3" x2="860.0" y2="626.7" stroke="#eeeeee"/>
<text x="860.0" y="644.7" text-anchor="middle" font-family="Arial" font-size="11" fill="#444">200</text>
<line x1="485.0" y1="626.7" x2="860.0" y2="626.7" stroke="#eeeeee"/>
<line x1="485.0" y1="564.8" x2="860.0" y2="564.8" stroke="#eeeeee"/>
<line x1="485.0" y1="503.0" x2="860.0" y2="503.0" stroke="#eeeeee"/>
<line x1="485.0" y1="441.2" x2="860.0" y2="441.2" stroke="#eeeeee"/>
<line x1="485.0" y1="379.3" x2="860.0" y2="379.3" stroke="#eeeeee"/>
<polyline points="485.00,498.27 488.91,488.05 492.81,511.07 496.72,488.04 500.62,510.92 504.53,510.31 508.44,521.95 512.34,510.11 516.25,519.84 520.16,518.77 524.06,527.00 527.97,516.03 531.88,520.03 535.78,521.71 539.69,526.73 543.59,515.81 547.50,522.80 551.41,523.91 555.31,528.06 559.22,520.75 563.12,525.45 567.03,524.36 570.94,526.42 574.84,518.44 578.75,526.29 582.66,525.97 586.56,527.28 590.47,523.38 594.38,526.11 598.28,524.02 602.19,527.71 606.09,522.73 610.00,526.25 613.91,524.52 617.81,523.72 621.72,519.32 625.62,525.29 629.53,520.33 633.44,525.39 637.34,521.22 641.25,520.25 645.16,516.27 649.06,521.24 652.97,517.62 656.88,521.20 660.78,517.96 664.69,522.65 668.59,518.22 672.50,519.16 676.41,519.06 680.31,521.00 684.22,515.92 688.12,518.69 692.03,520.38 695.94,522.13 699.84,517.85 703.75,521.61 707.66,522.71 711.56,524.17 715.47,521.52 719.38,521.86 723.28,519.78 727.19,523.07 731.09,518.53 735.00,520.63 738.91,521.84 742.81,521.50 746.72,515.93 750.62,518.12 754.53,522.28 758.44,524.44 762.34,516.36 766.25,517.89 770.16,521.90 774.06,523.55 777.97,518.42 781.88,520.25 785.78,521.25 789.69,522.23 793.59,516.76 797.50,518.43 801.41,517.39 805.31,519.13 809.22,518.40 813.12,517.44 817.03,517.64 820.94,517.52 824.84,514.29 828.75,517.90 832.66,517.49 836.56,517.50 840.47,516.90 844.38,518.01 848.28,516.62 852.19,517.32 856.09,515.64 860.00,516.26" fill="none" stroke="#0b6cff" stroke-width="1.8"/>
<polyline points="485.00,379.33 488.91,379.33 492.81,379.33 496.72,379.33 500.62,390.31 504.53,379.33 508.44,379.33 512.34,390.96 516.25,412.57 520.16,402.58 524.06,388.94 527.97,406.24 531.88,420.35 535.78,410.34 539.69,397.81 543.59,413.42 547.50,428.04 551.41,423.20 555.31,416.85 559.22,419.55 563.12,432.96 567.03,426.80 570.94,420.31 574.84,430.07 578.75,434.03 582.66,431.37 586.56,426.17 590.47,432.19 594.38,436.05 598.28,429.85 602.19,427.39 606.09,434.09 610.00,439.04 613.91,434.58 617.81,431.70 621.72,434.75 625.62,437.39 629.53,434.06 633.44,433.14 637.34,430.78 641.25,433.54 645.16,430.60 649.06,428.26 652.97,430.20 656.88,437.31 660.78,433.29 664.69,431.02 668.59,435.72 672.50,438.69 676.41,435.79 680.31,433.30 684.22,436.04 688.12,436.69 692.03,435.91 695.94,434.75 699.84,437.57 703.75,443.85 707.66,438.06 711.56,437.38 715.47,439.86 719.38,443.71 723.28,439.77 727.19,437.61 731.09,439.90 735.00,443.08 738.91,440.09 742.81,439.10 746.72,442.11 750.62,444.07 754.53,437.70 758.44,438.61 762.34,442.58 766.25,443.02 770.16,438.72 774.06,438.11 777.97,441.57 781.88,444.48 785.78,439.17 789.69,437.59 793.59,440.55 797.50,442.30 801.41,440.11 805.31,441.08 809.22,440.05 813.12,442.34 817.03,435.96 820.94,437.45 824.84,439.62 828.75,441.14 832.66,437.22 836.56,436.24 840.47,440.74 844.38,442.57 848.28,440.12 852.19,438.95 856.09,440.57 860.00,442.89" fill="none" stroke="#d14a00" stroke-width="1.8"/>
<polyline points="485.00,379.33 488.91,379.33 492.81,379.33 496.72,379.33 500.62,379.33 504.53,379.33 508.44,379.33 512.34,379.33 516.25,379.33 520.16,379.33 524.06,379.33 527.97,379.33 531.88,379.33 535.78,379.33 539.69,379.33 543.59,379.33 547.50,379.33 551.41,379.33 555.31,379.33 559.22,379.33 563.12,379.33 567.03,379.33 570.94,379.33 574.84,379.33 578.75,379.33 582.66,379.33 586.56,379.33 590.47,379.33 594.38,379.33 598.28,379.33 602.19,379.33 606.09,379.33 610.00,379.33 613.91,379.33 617.81,379.33 621.72,379.33 625.62,379.33 629.53,379.33 633.44,379.33 637.34,379.33 641.25,379.33 645.16,379.33 649.06,379.33 652.97,379.33 656.88,379.33 660.78,379.33 664.69,379.33 668.59,379.33 672.50,379.33 676.41,379.33 680.31,379.33 684.22,379.33 688.12,379.33 692.03,379.33 695.94,379.33 699.84,379.33 703.75,379.33 707.66,379.33 711.56,379.33 715.47,379.33 719.38,379.33 723.28,379.33 727.19,379.33 731.09,379.33 735.00,379.33 738.91,379.33 742.81,379.33 746.72,379.33 750.62,379.33 754.53,379.33 758.44,379.33 762.34,379.33 766.25,379.33 770.16,379.33 774.06,379.33 777.97,379.33 781.88,379.33 785.78,379.33 789.69,379.33 793.59,379.33 797.50,379.33 801.41,379.33 805.31,379.33 809.22,379.33 813.12,379.33 817.03,379.33 820.94,379.33 824.84,379.33 828.75,379.33 832.66,379.33 836.56,379.33 840.47,379.33 844.38,379.33 848.28,379.33 852.19,379.33 856.09,379.33 860.00,379.33" fill="none" stroke="#179b52" stroke-width="1.8"/>
<rect x="910.0" y="379.3" width="375.0" height="247.3" fill="#fff" stroke="#bbb"/>
<text x="1097.5" y="369.3" text-anchor="middle" font-family="Arial" font-size="15" fill="#111">bn=6</text>
<line x1="910.0" y1="379.3" x2="910.0" y2="626.7" stroke="#eeeeee"/>
<text x="910.0" y="644.7" text-anchor="middle" font-family="Arial" font-size="11" fill="#444">8</text>
<line x1="1003.8" y1="379.3" x2="1003.8" y2="626.7" stroke="#eeeeee"/>
<text x="1003.8" y="644.7" text-anchor="middle" font-family="Arial" font-size="11" fill="#444">56</text>
<line x1="1097.5" y1="379.3" x2="1097.5" y2="626.7" stroke="#eeeeee"/>
<text x="1097.5" y="644.7" text-anchor="middle" font-family="Arial" font-size="11" fill="#444">104</text>
<line x1="1191.2" y1="379.3" x2="1191.2" y2="626.7" stroke="#eeeeee"/>
<text x="1191.2" y="644.7" text-anchor="middle" font-family="Arial" font-size="11" fill="#444">152</text>
<line x1="1285.0" y1="379.3" x2="1285.0" y2="626.7" stroke="#eeeeee"/>
<text x="1285.0" y="644.7" text-anchor="middle" font-family="Arial" font-size="11" fill="#444">200</text>
<line x1="910.0" y1="626.7" x2="1285.0" y2="626.7" stroke="#eeeeee"/>
<line x1="910.0" y1="564.8" x2="1285.0" y2="564.8" stroke="#eeeeee"/>
<line x1="910.0" y1="503.0" x2="1285.0" y2="503.0" stroke="#eeeeee"/>
<line x1="910.0" y1="441.2" x2="1285.0" y2="441.2" stroke="#eeeeee"/>
<line x1="910.0" y1="379.3" x2="1285.0" y2="379.3" stroke="#eeeeee"/>
<polyline points="910.00,525.39 913.91,513.19 917.81,517.79 921.72,511.38 925.62,535.49 929.53,532.84 933.44,536.01 937.34,536.00 941.25,543.77 945.16,541.61 949.06,542.47 952.97,542.41 956.88,547.87 960.78,545.45 964.69,543.17 968.59,544.84 972.50,548.70 976.41,545.53 980.31,546.28 984.22,545.77 988.12,549.45 992.03,546.96 995.94,546.35 999.84,547.03 1003.75,548.86 1007.66,548.36 1011.56,546.83 1015.47,547.71 1019.38,549.81 1023.28,540.86 1027.19,546.97 1031.09,546.91 1035.00,550.77 1038.91,546.78 1042.81,547.67 1046.72,546.78 1050.62,549.36 1054.53,548.05 1058.44,526.81 1062.34,524.65 1066.25,547.65 1070.16,548.35 1074.06,547.01 1077.97,547.19 1081.88,548.58 1085.78,547.05 1089.69,547.69 1093.59,547.43 1097.50,549.21 1101.41,548.18 1105.31,547.23 1109.22,546.92 1113.12,548.38 1117.03,548.24 1120.94,547.32 1124.84,547.34 1128.75,548.47 1132.66,548.05 1136.56,548.35 1140.47,547.75 1144.38,549.22 1148.28,548.19 1152.19,547.64 1156.09,547.62 1160.00,548.65 1163.91,547.37 1167.81,547.43 1171.72,546.73 1175.62,548.16 1179.53,547.04 1183.44,546.98 1187.34,546.73 1191.25,548.53 1195.16,547.56 1199.06,549.00 1202.97,547.13 1206.88,547.60 1210.78,547.60 1214.69,531.54 1218.59,525.29 1222.50,536.33 1226.41,540.59 1230.31,544.83 1234.22,534.49 1238.12,545.26 1242.03,544.85 1245.94,536.18 1249.84,547.28 1253.75,537.94 1257.66,541.54 1261.56,544.64 1265.47,546.53 1269.38,547.20 1273.28,546.58 1277.19,533.16 1281.09,546.19 1285.00,546.55" fill="none" stroke="#0b6cff" stroke-width="1.8"/>
<polyline points="910.00,411.50 913.91,379.33 917.81,409.98 921.72,440.76 925.62,461.95 929.53,423.44 933.44,448.76 937.34,465.17 941.25,478.87 945.16,454.41 949.06,462.22 952.97,477.73 956.88,479.19 960.78,464.93 964.69,475.10 968.59,483.59 972.50,490.52 976.41,471.79 980.31,479.24 984.22,486.38 988.12,491.87 992.03,478.61 995.94,484.41 999.84,489.00 1003.75,494.76 1007.66,481.77 1011.56,484.41 1015.47,490.99 1019.38,495.12 1023.28,483.11 1027.19,488.96 1031.09,492.80 1035.00,495.46 1038.91,486.67 1042.81,490.80 1046.72,494.01 1050.62,495.73 1054.53,486.54 1058.44,459.25 1062.34,491.83 1066.25,492.86 1070.16,489.93 1074.06,491.97 1077.97,496.46 1081.88,497.90 1085.78,489.87 1089.69,493.37 1093.59,496.08 1097.50,498.09 1101.41,491.51 1105.31,494.67 1109.22,495.96 1113.12,499.89 1117.03,493.54 1120.94,496.20 1124.84,497.06 1128.75,500.24 1132.66,492.02 1136.56,496.51 1140.47,498.77 1144.38,501.13 1148.28,496.03 1152.19,497.63 1156.09,499.57 1160.00,501.26 1163.91,496.80 1167.81,497.22 1171.72,498.92 1175.62,501.89 1179.53,495.57 1183.44,498.47 1187.34,499.60 1191.25,501.57 1195.16,496.69 1199.06,498.94 1202.97,499.91 1206.88,501.16 1210.78,495.27 1214.69,463.44 1218.59,483.56 1222.50,491.15 1226.41,468.09 1230.31,467.62 1234.22,469.58 1238.12,497.66 1242.03,496.57 1245.94,469.43 1249.84,499.31 1253.75,500.09 1257.66,494.00 1261.56,496.44 1265.47,497.66 1269.38,501.05 1273.28,464.91 1277.19,481.21 1281.09,498.48 1285.00,498.26" fill="none" stroke="#d14a00" stroke-width="1.8"/>
<polyline points="910.00,379.33 913.91,379.33 917.81,379.33 921.72,379.33 925.62,379.33 929.53,379.33 933.44,379.33 937.34,379.33 941.25,383.63 945.16,379.33 949.06,379.33 952.97,387.34 956.88,396.29 960.78,379.33 964.69,387.66 968.59,384.83 972.50,407.72 976.41,391.56 980.31,399.83 984.22,407.51 988.12,414.03 992.03,400.04 995.94,406.44 999.84,415.11 1003.75,418.76 1007.66,407.28 1011.56,413.59 1015.47,420.07 1019.38,423.58 1023.28,412.76 1027.19,419.12 1031.09,423.95 1035.00,426.26 1038.91,410.17 1042.81,421.67 1046.72,426.68 1050.62,428.79 1054.53,408.50 1058.44,379.33 1062.34,422.96 1066.25,426.42 1070.16,419.18 1074.06,422.77 1077.97,427.13 1081.88,430.02 1085.78,422.08 1089.69,425.79 1093.59,428.30 1097.50,431.06 1101.41,424.06 1105.31,428.46 1109.22,430.31 1113.12,434.74 1117.03,425.99 1120.94,430.29 1124.84,432.96 1128.75,434.99 1132.66,428.29 1136.56,433.74 1140.47,436.03 1144.38,437.94 1148.28,433.80 1152.19,434.21 1156.09,437.84 1160.00,440.06 1163.91,434.57 1167.81,437.74 1171.72,437.72 1175.62,441.58 1179.53,434.76 1183.44,439.42 1187.34,439.99 1191.25,442.64 1195.16,438.82 1199.06,439.69 1202.97,441.05 1206.88,442.58 1210.78,432.86 1214.69,381.06 1218.59,410.58 1222.50,437.19 1226.41,429.85 1230.31,379.33 1234.22,433.59 1238.12,441.24 1242.03,439.24 1245.94,438.01 1249.84,438.33 1253.75,443.82 1257.66,436.94 1261.56,440.88 1265.47,442.48 1269.38,445.08 1273.28,379.33 1277.19,442.83 1281.09,443.19 1285.00,443.84" fill="none" stroke="#179b52" stroke-width="1.8"/>
<rect x="60.0" y="682.7" width="375.0" height="247.3" fill="#fff" stroke="#bbb"/>
<text x="247.5" y="672.7" text-anchor="middle" font-family="Arial" font-size="15" fill="#111">bn=8</text>
<line x1="60.0" y1="682.7" x2="60.0" y2="930.0" stroke="#eeeeee"/>
<text x="60.0" y="948.0" text-anchor="middle" font-family="Arial" font-size="11" fill="#444">8</text>
<line x1="153.8" y1="682.7" x2="153.8" y2="930.0" stroke="#eeeeee"/>
<text x="153.8" y="948.0" text-anchor="middle" font-family="Arial" font-size="11" fill="#444">56</text>
<line x1="247.5" y1="682.7" x2="247.5" y2="930.0" stroke="#eeeeee"/>
<text x="247.5" y="948.0" text-anchor="middle" font-family="Arial" font-size="11" fill="#444">104</text>
<line x1="341.2" y1="682.7" x2="341.2" y2="930.0" stroke="#eeeeee"/>
<text x="341.2" y="948.0" text-anchor="middle" font-family="Arial" font-size="11" fill="#444">152</text>
<line x1="435.0" y1="682.7" x2="435.0" y2="930.0" stroke="#eeeeee"/>
<text x="435.0" y="948.0" text-anchor="middle" font-family="Arial" font-size="11" fill="#444">200</text>
<line x1="60.0" y1="930.0" x2="435.0" y2="930.0" stroke="#eeeeee"/>
<text x="52.0" y="934.0" text-anchor="end" font-family="Arial" font-size="11" fill="#444">0.0</text>
<line x1="60.0" y1="868.2" x2="435.0" y2="868.2" stroke="#eeeeee"/>
<text x="52.0" y="872.2" text-anchor="end" font-family="Arial" font-size="11" fill="#444">0.1</text>
<line x1="60.0" y1="806.3" x2="435.0" y2="806.3" stroke="#eeeeee"/>
<text x="52.0" y="810.3" text-anchor="end" font-family="Arial" font-size="11" fill="#444">0.2</text>
<line x1="60.0" y1="744.5" x2="435.0" y2="744.5" stroke="#eeeeee"/>
<text x="52.0" y="748.5" text-anchor="end" font-family="Arial" font-size="11" fill="#444">0.3</text>
<line x1="60.0" y1="682.7" x2="435.0" y2="682.7" stroke="#eeeeee"/>
<text x="52.0" y="686.7" text-anchor="end" font-family="Arial" font-size="11" fill="#444">0.4</text>
<polyline points="60.00,845.58 63.91,831.10 67.81,844.19 71.72,846.08 75.62,854.71 79.53,851.83 83.44,855.87 87.34,858.38 91.25,861.04 95.16,859.16 99.06,859.29 102.97,858.95 106.88,864.04 110.78,864.21 114.69,863.50 118.59,863.64 122.50,866.73 126.41,865.19 130.31,864.80 134.22,864.53 138.12,865.58 142.03,865.49 145.94,865.81 149.84,862.96 153.75,866.84 157.66,866.98 161.56,864.98 165.47,865.27 169.38,865.62 173.28,865.43 177.19,865.94 181.09,865.71 185.00,867.08 188.91,866.78 192.81,864.14 196.72,865.54 200.62,865.89 204.53,866.00 208.44,864.93 212.34,864.96 216.25,865.80 220.16,865.75 224.06,864.78 227.97,865.52 231.88,865.80 235.78,865.73 239.69,864.78 243.59,864.35 247.50,865.64 251.41,864.70 255.31,864.48 259.22,864.59 263.12,865.07 267.03,864.46 270.94,864.04 274.84,864.55 278.75,865.31 282.66,865.26 286.56,865.12 290.47,865.10 294.38,865.81 298.28,863.74 302.19,864.45 306.09,864.12 310.00,864.40 313.91,863.96 317.81,863.78 321.72,861.67 325.62,862.88 329.53,859.13 333.44,863.40 337.34,864.58 341.25,865.28 345.16,865.34 349.06,865.79 352.97,865.58 356.88,864.97 360.78,864.78 364.69,864.05 368.59,865.12 372.50,865.20 376.41,864.69 380.31,864.42 384.22,864.02 388.12,865.01 392.03,864.62 395.94,864.59 399.84,864.58 403.75,865.71 407.66,865.10 411.56,865.36 415.47,865.30 419.38,865.42 423.28,864.54 427.19,864.90 431.09,861.61 435.00,865.15" fill="none" stroke="#0b6cff" stroke-width="1.8"/>
<polyline points="60.00,761.37 63.91,734.06 67.81,763.90 71.72,783.00 75.62,803.60 79.53,777.90 83.44,792.09 87.34,801.49 91.25,814.32 95.16,790.23 99.06,797.50 102.97,807.46 106.88,822.81 110.78,807.23 114.69,813.52 118.59,818.82 122.50,827.19 126.41,808.63 130.31,817.40 134.22,821.62 138.12,829.51 142.03,816.75 145.94,820.29 149.84,822.21 153.75,829.28 157.66,819.45 161.56,823.09 165.47,826.10 169.38,831.05 173.28,822.54 177.19,825.60 181.09,826.48 185.00,832.48 188.91,823.49 192.81,827.06 196.72,827.95 200.62,831.35 204.53,824.27 208.44,828.42 212.34,829.06 216.25,833.12 220.16,825.91 224.06,828.29 227.97,829.52 231.88,833.55 235.78,826.80 239.69,828.73 243.59,830.68 247.50,832.89 251.41,827.09 255.31,827.89 259.22,829.60 263.12,830.18 267.03,827.65 270.94,828.02 274.84,830.37 278.75,832.83 282.66,829.45 286.56,829.92 290.47,831.95 294.38,833.76 298.28,829.73 302.19,831.37 306.09,832.65 310.00,834.31 313.91,830.54 317.81,831.53 321.72,831.80 325.62,831.80 329.53,829.54 333.44,830.45 337.34,833.57 341.25,836.28 345.16,832.84 349.06,834.06 352.97,834.16 356.88,835.44 360.78,832.03 364.69,832.86 368.59,834.00 372.50,836.03 376.41,833.35 380.31,833.59 384.22,833.29 388.12,835.26 392.03,833.55 395.94,832.77 399.84,834.48 403.75,834.96 407.66,832.95 411.56,833.21 415.47,833.47 419.38,835.86 423.28,831.96 427.19,834.25 431.09,834.02 435.00,835.51" fill="none" stroke="#d14a00" stroke-width="1.8"/>
<polyline points="60.00,682.67 63.91,682.67 67.81,682.67 71.72,682.67 75.62,715.05 79.53,682.67 83.44,704.44 87.34,723.29 91.25,744.07 95.16,716.65 99.06,727.96 102.97,739.02 106.88,762.76 110.78,742.16 114.69,750.65 118.59,759.20 122.50,770.31 126.41,750.31 130.31,756.40 134.22,763.38 138.12,771.87 142.03,759.32 145.94,764.56 149.84,768.02 153.75,765.09 157.66,764.44 161.56,768.70 165.47,772.77 169.38,777.34 173.28,769.39 177.19,773.96 181.09,776.56 185.00,784.13 188.91,770.89 192.81,776.53 196.72,779.04 200.62,784.31 204.53,772.23 208.44,778.02 212.34,777.32 216.25,782.24 220.16,774.50 224.06,777.19 227.97,779.56 231.88,780.89 235.78,775.22 239.69,777.63 243.59,778.69 247.50,783.42 251.41,776.42 255.31,777.25 259.22,778.94 263.12,783.81 267.03,777.47 270.94,780.03 274.84,781.01 278.75,785.62 282.66,781.09 286.56,781.44 290.47,784.43 294.38,788.44 298.28,781.72 302.19,784.25 306.09,784.71 310.00,788.28 313.91,783.17 317.81,775.45 321.72,785.44 325.62,788.12 329.53,784.19 333.44,783.80 337.34,788.71 341.25,791.86 345.16,788.10 349.06,789.37 352.97,789.21 356.88,792.34 360.78,787.83 364.69,787.86 368.59,790.06 372.50,792.89 376.41,789.80 380.31,790.45 384.22,790.75 388.12,793.90 392.03,790.20 395.94,791.11 399.84,789.06 403.75,794.90 407.66,792.47 411.56,792.30 415.47,793.32 419.38,794.32 423.28,787.74 427.19,793.03 431.09,792.76 435.00,783.79" fill="none" stroke="#179b52" stroke-width="1.8"/>
<rect x="485.0" y="682.7" width="375.0" height="247.3" fill="#fff" stroke="#bbb"/>
<text x="672.5" y="672.7" text-anchor="middle" font-family="Arial" font-size="15" fill="#111">bn=10</text>
<line x1="485.0" y1="682.7" x2="485.0" y2="930.0" stroke="#eeeeee"/>
<text x="485.0" y="948.0" text-anchor="middle" font-family="Arial" font-size="11" fill="#444">8</text>
<line x1="578.8" y1="682.7" x2="578.8" y2="930.0" stroke="#eeeeee"/>
<text x="578.8" y="948.0" text-anchor="middle" font-family="Arial" font-size="11" fill="#444">56</text>
<line x1="672.5" y1="682.7" x2="672.5" y2="930.0" stroke="#eeeeee"/>
<text x="672.5" y="948.0" text-anchor="middle" font-family="Arial" font-size="11" fill="#444">104</text>
<line x1="766.2" y1="682.7" x2="766.2" y2="930.0" stroke="#eeeeee"/>
<text x="766.2" y="948.0" text-anchor="middle" font-family="Arial" font-size="11" fill="#444">152</text>
<line x1="860.0" y1="682.7" x2="860.0" y2="930.0" stroke="#eeeeee"/>
<text x="860.0" y="948.0" text-anchor="middle" font-family="Arial" font-size="11" fill="#444">200</text>
<line x1="485.0" y1="930.0" x2="860.0" y2="930.0" stroke="#eeeeee"/>
<line x1="485.0" y1="868.2" x2="860.0" y2="868.2" stroke="#eeeeee"/>
<line x1="485.0" y1="806.3" x2="860.0" y2="806.3" stroke="#eeeeee"/>
<line x1="485.0" y1="744.5" x2="860.0" y2="744.5" stroke="#eeeeee"/>
<line x1="485.0" y1="682.7" x2="860.0" y2="682.7" stroke="#eeeeee"/>
<polyline points="485.00,836.50 488.91,835.35 492.81,850.13 496.72,854.40 500.62,858.27 504.53,856.58 508.44,862.39 512.34,862.56 516.25,865.27 520.16,863.88 524.06,867.64 527.97,862.35 531.88,867.02 535.78,863.54 539.69,869.36 543.59,867.59 547.50,867.92 551.41,868.57 555.31,868.69 559.22,867.64 563.12,869.04 567.03,863.34 570.94,870.97 574.84,866.50 578.75,870.94 582.66,869.73 586.56,871.59 590.47,868.79 594.38,870.93 598.28,870.82 602.19,872.53 606.09,870.42 610.00,871.11 613.91,870.14 617.81,872.37 621.72,870.85 625.62,871.25 629.53,869.91 633.44,872.61 637.34,870.83 641.25,871.64 645.16,871.11 649.06,873.33 652.97,871.05 656.88,872.13 660.78,871.22 664.69,872.81 668.59,869.72 672.50,872.13 676.41,871.74 680.31,872.99 684.22,869.58 688.12,870.71 692.03,867.83 695.94,869.17 699.84,867.87 703.75,868.61 707.66,870.53 711.56,869.75 715.47,867.85 719.38,871.37 723.28,871.18 727.19,872.39 731.09,869.96 735.00,869.89 738.91,871.78 742.81,872.54 746.72,870.42 750.62,870.33 754.53,871.03 758.44,872.02 762.34,870.84 766.25,871.47 770.16,871.17 774.06,871.70 777.97,870.58 781.88,870.83 785.78,870.45 789.69,871.19 793.59,870.90 797.50,872.13 801.41,870.55 805.31,871.73 809.22,870.40 813.12,871.93 817.03,871.68 820.94,871.99 824.84,871.75 828.75,871.61 832.66,871.13 836.56,871.78 840.47,871.27 844.38,871.91 848.28,871.00 852.19,871.34 856.09,870.78 860.00,870.93" fill="none" stroke="#0b6cff" stroke-width="1.8"/>
<polyline points="485.00,733.84 488.91,747.23 492.81,774.06 496.72,774.86 500.62,788.50 504.53,788.35 508.44,803.14 512.34,799.60 516.25,803.45 520.16,807.61 524.06,815.43 527.97,812.56 531.88,818.65 535.78,819.70 539.69,824.64 543.59,822.01 547.50,827.34 551.41,825.57 555.31,830.26 559.22,826.65 563.12,830.32 567.03,829.25 570.94,833.37 574.84,830.27 578.75,832.33 582.66,832.10 586.56,835.65 590.47,835.31 594.38,837.26 598.28,836.01 602.19,838.51 606.09,837.62 610.00,838.19 613.91,837.09 617.81,837.92 621.72,837.21 625.62,839.77 629.53,839.68 633.44,841.48 637.34,839.55 641.25,839.55 645.16,840.74 649.06,842.55 652.97,842.04 656.88,843.40 660.78,841.88 664.69,842.20 668.59,842.92 672.50,843.43 676.41,842.84 680.31,842.56 684.22,841.01 688.12,842.20 692.03,840.69 695.94,842.29 699.84,841.79 703.75,843.16 707.66,843.09 711.56,844.78 715.47,843.19 719.38,844.64 723.28,844.45 727.19,845.11 731.09,844.14 735.00,845.25 738.91,844.65 742.81,845.72 746.72,844.71 750.62,845.95 754.53,844.39 758.44,846.18 762.34,844.82 766.25,846.32 770.16,845.14 774.06,845.15 777.97,844.94 781.88,846.37 785.78,845.72 789.69,847.08 793.59,846.37 797.50,845.99 801.41,845.23 805.31,847.87 809.22,847.03 813.12,848.17 817.03,847.00 820.94,847.89 824.84,846.78 828.75,847.52 832.66,846.32 836.56,847.60 840.47,847.79 844.38,848.17 848.28,847.77 852.19,848.42 856.09,847.16 860.00,847.62" fill="none" stroke="#d14a00" stroke-width="1.8"/>
<polyline points="485.00,682.67 488.91,682.67 492.81,682.67 496.72,689.11 500.62,712.54 504.53,718.38 508.44,733.68 512.34,737.94 516.25,748.19 520.16,750.45 524.06,760.62 527.97,756.12 531.88,768.79 535.78,768.29 539.69,775.36 543.59,772.36 547.50,778.43 551.41,777.01 555.31,781.98 559.22,780.13 563.12,783.58 567.03,782.36 570.94,782.60 574.84,785.70 578.75,788.98 582.66,788.49 586.56,793.51 590.47,791.81 594.38,794.69 598.28,794.94 602.19,796.30 606.09,795.68 610.00,796.62 613.91,796.60 617.81,796.56 621.72,795.71 625.62,798.74 629.53,796.24 633.44,798.52 637.34,796.85 641.25,799.13 645.16,798.76 649.06,801.63 652.97,800.87 656.88,802.06 660.78,801.06 664.69,802.56 668.59,801.41 672.50,802.69 676.41,802.56 680.31,800.23 684.22,796.80 688.12,801.39 692.03,801.29 695.94,803.71 699.84,802.41 703.75,804.18 707.66,804.70 711.56,806.67 715.47,805.50 719.38,807.33 723.28,807.36 727.19,808.01 731.09,806.87 735.00,808.28 738.91,807.42 742.81,809.01 746.72,807.74 750.62,809.44 754.53,808.00 758.44,810.00 762.34,809.51 766.25,810.53 770.16,807.31 774.06,811.02 777.97,810.48 781.88,809.74 785.78,810.89 789.69,812.80 793.59,811.21 797.50,808.98 801.41,811.31 805.31,813.00 809.22,812.38 813.12,813.39 817.03,813.24 820.94,813.79 824.84,811.89 828.75,814.17 832.66,813.20 836.56,814.01 840.47,814.26 844.38,814.47 848.28,813.96 852.19,814.83 856.09,814.91 860.00,815.33" fill="none" stroke="#179b52" stroke-width="1.8"/>
<rect x="910.0" y="682.7" width="375.0" height="247.3" fill="#fff" stroke="#bbb"/>
<text x="1097.5" y="672.7" text-anchor="middle" font-family="Arial" font-size="15" fill="#111">bn=12</text>
<line x1="910.0" y1="682.7" x2="910.0" y2="930.0" stroke="#eeeeee"/>
<text x="910.0" y="948.0" text-anchor="middle" font-family="Arial" font-size="11" fill="#444">8</text>
<line x1="1003.8" y1="682.7" x2="1003.8" y2="930.0" stroke="#eeeeee"/>
<text x="1003.8" y="948.0" text-anchor="middle" font-family="Arial" font-size="11" fill="#444">56</text>
<line x1="1097.5" y1="682.7" x2="1097.5" y2="930.0" stroke="#eeeeee"/>
<text x="1097.5" y="948.0" text-anchor="middle" font-family="Arial" font-size="11" fill="#444">104</text>
<line x1="1191.2" y1="682.7" x2="1191.2" y2="930.0" stroke="#eeeeee"/>
<text x="1191.2" y="948.0" text-anchor="middle" font-family="Arial" font-size="11" fill="#444">152</text>
<line x1="1285.0" y1="682.7" x2="1285.0" y2="930.0" stroke="#eeeeee"/>
<text x="1285.0" y="948.0" text-anchor="middle" font-family="Arial" font-size="11" fill="#444">200</text>
<line x1="910.0" y1="930.0" x2="1285.0" y2="930.0" stroke="#eeeeee"/>
<line x1="910.0" y1="868.2" x2="1285.0" y2="868.2" stroke="#eeeeee"/>
<line x1="910.0" y1="806.3" x2="1285.0" y2="806.3" stroke="#eeeeee"/>
<line x1="910.0" y1="744.5" x2="1285.0" y2="744.5" stroke="#eeeeee"/>
<line x1="910.0" y1="682.7" x2="1285.0" y2="682.7" stroke="#eeeeee"/>
<polyline points="910.00,845.49 913.91,851.14 917.81,862.24 921.72,857.81 925.62,865.66 929.53,865.77 933.44,856.27 937.34,867.44 941.25,872.47 945.16,873.37 949.06,875.48 952.97,871.97 956.88,875.26 960.78,874.90 964.69,877.63 968.59,871.62 972.50,875.87 976.41,876.08 980.31,878.20 984.22,874.34 988.12,876.91 992.03,876.12 995.94,878.83 999.84,875.92 1003.75,877.50 1007.66,876.42 1011.56,878.50 1015.47,875.66 1019.38,875.43 1023.28,874.11 1027.19,878.72 1031.09,875.97 1035.00,877.21 1038.91,876.78 1042.81,878.40 1046.72,875.71 1050.62,876.80 1054.53,877.30 1058.44,878.33 1062.34,876.07 1066.25,876.64 1070.16,877.70 1074.06,877.88 1077.97,876.25 1081.88,877.25 1085.78,877.44 1089.69,878.17 1093.59,876.22 1097.50,877.06 1101.41,877.76 1105.31,878.48 1109.22,876.87 1113.12,875.46 1117.03,877.14 1120.94,877.58 1124.84,876.02 1128.75,876.11 1132.66,876.66 1136.56,877.14 1140.47,875.65 1144.38,876.30 1148.28,876.56 1152.19,877.61 1156.09,874.94 1160.00,875.56 1163.91,876.63 1167.81,877.24 1171.72,874.80 1175.62,875.55 1179.53,876.02 1183.44,876.12 1187.34,875.60 1191.25,875.81 1195.16,874.43 1199.06,875.76 1202.97,874.07 1206.88,874.94 1210.78,876.31 1214.69,875.21 1218.59,875.94 1222.50,874.04 1226.41,875.56 1230.31,877.04 1234.22,875.31 1238.12,869.47 1242.03,873.94 1245.94,873.85 1249.84,873.02 1253.75,873.43 1257.66,876.18 1261.56,876.05 1265.47,870.41 1269.38,876.64 1273.28,875.66 1277.19,876.44 1281.09,875.42 1285.00,876.12" fill="none" stroke="#0b6cff" stroke-width="1.8"/>
<polyline points="910.00,764.16 913.91,770.43 917.81,775.72 921.72,795.91 925.62,810.82 929.53,809.56 933.44,808.55 937.34,820.17 941.25,826.60 945.16,827.26 949.06,823.88 952.97,830.47 956.88,836.52 960.78,835.41 964.69,833.97 968.59,837.87 972.50,839.91 976.41,840.78 980.31,838.83 984.22,842.17 988.12,843.08 992.03,841.35 995.94,842.01 999.84,845.39 1003.75,847.13 1007.66,846.21 1011.56,845.09 1015.47,846.87 1019.38,848.15 1023.28,845.14 1027.19,846.97 1031.09,848.97 1035.00,849.54 1038.91,849.22 1042.81,847.02 1046.72,850.34 1050.62,851.23 1054.53,850.07 1058.44,848.86 1062.34,851.50 1066.25,852.70 1070.16,851.65 1074.06,850.76 1077.97,852.14 1081.88,853.30 1085.78,852.33 1089.69,850.99 1093.59,852.58 1097.50,853.83 1101.41,851.85 1105.31,848.75 1109.22,853.05 1113.12,850.70 1117.03,851.94 1120.94,851.13 1124.84,851.54 1128.75,853.68 1132.66,852.68 1136.56,851.40 1140.47,852.54 1144.38,854.18 1148.28,853.04 1152.19,853.17 1156.09,853.08 1160.00,854.51 1163.91,853.35 1167.81,852.90 1171.72,852.66 1175.62,854.42 1179.53,853.92 1183.44,852.94 1187.34,853.29 1191.25,855.25 1195.16,855.07 1199.06,855.65 1202.97,855.87 1206.88,856.59 1210.78,855.60 1214.69,855.13 1218.59,855.69 1222.50,856.85 1226.41,856.04 1230.31,854.92 1234.22,855.60 1238.12,856.93 1242.03,855.39 1245.94,854.31 1249.84,855.99 1253.75,856.52 1257.66,854.88 1261.56,853.12 1265.47,855.87 1269.38,856.95 1273.28,856.61 1277.19,856.10 1281.09,855.27 1285.00,854.56" fill="none" stroke="#d14a00" stroke-width="1.8"/>
<polyline points="910.00,682.67 913.91,682.67 917.81,692.82 921.72,725.89 925.62,745.15 929.53,748.35 933.44,753.69 937.34,769.39 941.25,777.06 945.16,778.64 949.06,776.75 952.97,784.30 956.88,793.20 960.78,790.10 964.69,790.85 968.59,794.20 972.50,800.34 976.41,798.67 980.31,798.38 984.22,802.74 988.12,805.51 992.03,803.39 995.94,803.72 999.84,806.84 1003.75,810.93 1007.66,808.56 1011.56,808.36 1015.47,810.56 1019.38,813.13 1023.28,812.32 1027.19,811.38 1031.09,813.63 1035.00,814.89 1038.91,813.50 1042.81,813.19 1046.72,815.73 1050.62,817.32 1054.53,813.80 1058.44,816.07 1062.34,817.96 1066.25,817.11 1070.16,816.18 1074.06,814.82 1077.97,815.00 1081.88,818.42 1085.78,817.78 1089.69,817.18 1093.59,818.92 1097.50,818.78 1101.41,818.12 1105.31,816.49 1109.22,818.35 1113.12,818.23 1117.03,817.40 1120.94,818.03 1124.84,819.88 1128.75,820.22 1132.66,819.44 1136.56,820.11 1140.47,820.82 1144.38,822.01 1148.28,820.76 1152.19,821.36 1156.09,822.01 1160.00,823.76 1163.91,820.70 1167.81,821.60 1171.72,822.95 1175.62,823.76 1179.53,823.57 1183.44,822.68 1187.34,823.61 1191.25,825.15 1195.16,825.26 1199.06,825.45 1202.97,824.97 1206.88,826.68 1210.78,825.82 1214.69,825.64 1218.59,826.48 1222.50,827.00 1226.41,827.11 1230.31,823.83 1234.22,826.32 1238.12,826.70 1242.03,827.23 1245.94,818.72 1249.84,827.13 1253.75,826.75 1257.66,826.73 1261.56,823.33 1265.47,828.62 1269.38,818.57 1273.28,828.17 1277.19,826.64 1281.09,825.10 1285.00,829.04" fill="none" stroke="#179b52" stroke-width="1.8"/>
<line x1="930" y1="34" x2="958" y2="34" stroke="#0b6cff" stroke-width="3"/>
<text x="965" y="39" font-family="Arial" font-size="13" fill="#111">mul.h u52</text>
<line x1="1058" y1="34" x2="1086" y2="34" stroke="#d14a00" stroke-width="3"/>
<text x="1093" y="39" font-family="Arial" font-size="13" fill="#111">ref predecoded</text>
<line x1="1186" y1="34" x2="1214" y2="34" stroke="#179b52" stroke-width="3"/>
<text x="1221" y="39" font-family="Arial" font-size="13" fill="#111">ref full u64</text>
<text x="660.0" y="965" text-anchor="middle" font-family="Arial" font-size="14" fill="#111">an52 digits</text>
</svg>