<?xml version="1.0" encoding="utf-8" standalone="no"?>
<!DOCTYPE svg PUBLIC "-//W3C//DTD SVG 1.1//EN"
  "http://www.w3.org/Graphics/SVG/1.1/DTD/svg11.dtd">
<svg xmlns:xlink="http://www.w3.org/1999/xlink" width="864pt" height="504pt" viewBox="0 0 864 504" xmlns="http://www.w3.org/2000/svg" version="1.1">
 <metadata>
  <rdf:RDF xmlns:dc="http://purl.org/dc/elements/1.1/" xmlns:cc="http://creativecommons.org/ns#" xmlns:rdf="http://www.w3.org/1999/02/22-rdf-syntax-ns#">
   <cc:Work>
    <dc:type rdf:resource="http://purl.org/dc/dcmitype/StillImage"/>
    <dc:date>2026-06-04T10:33:21.675197</dc:date>
    <dc:format>image/svg+xml</dc:format>
    <dc:creator>
     <cc:Agent>
      <dc:title>Matplotlib v3.10.7+dfsg1, https://matplotlib.org/</dc:title>
     </cc:Agent>
    </dc:creator>
   </cc:Work>
  </rdf:RDF>
 </metadata>
 <defs>
  <style type="text/css">*{stroke-linejoin: round; stroke-linecap: butt}</style>
 </defs>
 <g id="figure_1">
  <g id="patch_1">
   <path d="M 0 504 
L 864 504 
L 864 0 
L 0 0 
z
" style="fill: #ffffff"/>
  </g>
  <g id="axes_1">
   <g id="patch_2">
    <path d="M 60.69125 462.04 
L 853.2 462.04 
L 853.2 25.44 
L 60.69125 25.44 
z
" style="fill: #ffffff"/>
   </g>
   <g id="matplotlib.axis_1">
    <g id="xtick_1">
     <g id="line2d_1">
      <path d="M 190.687745 462.04 
L 190.687745 25.44 
" clip-path="url(#p31796cf73a)" style="fill: none; stroke: #b0b0b0; stroke-opacity: 0.25; stroke-width: 0.8; stroke-linecap: square"/>
     </g>
     <g id="line2d_2">
      <defs>
       <path id="m4381400997" d="M 0 0 
L 0 3.5 
" style="stroke: #000000; stroke-width: 0.8"/>
      </defs>
      <g>
       <use xlink:href="#m4381400997" x="190.687745" y="462.04" style="stroke: #000000; stroke-width: 0.8"/>
      </g>
     </g>
     <g id="text_1">
      <!-- 20 -->
      <g transform="translate(184.325245 476.638438) scale(0.1 -0.1)">
       <defs>
        <path id="DejaVuSans-32" d="M 1228 531 
L 3431 531 
L 3431 0 
L 469 0 
L 469 531 
Q 828 903 1448 1529 
Q 2069 2156 2228 2338 
Q 2531 2678 2651 2914 
Q 2772 3150 2772 3378 
Q 2772 3750 2511 3984 
Q 2250 4219 1831 4219 
Q 1534 4219 1204 4116 
Q 875 4013 500 3803 
L 500 4441 
Q 881 4594 1212 4672 
Q 1544 4750 1819 4750 
Q 2544 4750 2975 4387 
Q 3406 4025 3406 3419 
Q 3406 3131 3298 2873 
Q 3191 2616 2906 2266 
Q 2828 2175 2409 1742 
Q 1991 1309 1228 531 
z
" transform="scale(0.015625)"/>
        <path id="DejaVuSans-30" d="M 2034 4250 
Q 1547 4250 1301 3770 
Q 1056 3291 1056 2328 
Q 1056 1369 1301 889 
Q 1547 409 2034 409 
Q 2525 409 2770 889 
Q 3016 1369 3016 2328 
Q 3016 3291 2770 3770 
Q 2525 4250 2034 4250 
z
M 2034 4750 
Q 2819 4750 3233 4129 
Q 3647 3509 3647 2328 
Q 3647 1150 3233 529 
Q 2819 -91 2034 -91 
Q 1250 -91 836 529 
Q 422 1150 422 2328 
Q 422 3509 836 4129 
Q 1250 4750 2034 4750 
z
" transform="scale(0.015625)"/>
       </defs>
       <use xlink:href="#DejaVuSans-32"/>
       <use xlink:href="#DejaVuSans-30" transform="translate(63.623047 0)"/>
      </g>
     </g>
    </g>
    <g id="xtick_2">
     <g id="line2d_3">
      <path d="M 347.310027 462.04 
L 347.310027 25.44 
" clip-path="url(#p31796cf73a)" style="fill: none; stroke: #b0b0b0; stroke-opacity: 0.25; stroke-width: 0.8; stroke-linecap: square"/>
     </g>
     <g id="line2d_4">
      <g>
       <use xlink:href="#m4381400997" x="347.310027" y="462.04" style="stroke: #000000; stroke-width: 0.8"/>
      </g>
     </g>
     <g id="text_2">
      <!-- 40 -->
      <g transform="translate(340.947527 476.638438) scale(0.1 -0.1)">
       <defs>
        <path id="DejaVuSans-34" d="M 2419 4116 
L 825 1625 
L 2419 1625 
L 2419 4116 
z
M 2253 4666 
L 3047 4666 
L 3047 1625 
L 3713 1625 
L 3713 1100 
L 3047 1100 
L 3047 0 
L 2419 0 
L 2419 1100 
L 313 1100 
L 313 1709 
L 2253 4666 
z
" transform="scale(0.015625)"/>
       </defs>
       <use xlink:href="#DejaVuSans-34"/>
       <use xlink:href="#DejaVuSans-30" transform="translate(63.623047 0)"/>
      </g>
     </g>
    </g>
    <g id="xtick_3">
     <g id="line2d_5">
      <path d="M 503.93231 462.04 
L 503.93231 25.44 
" clip-path="url(#p31796cf73a)" style="fill: none; stroke: #b0b0b0; stroke-opacity: 0.25; stroke-width: 0.8; stroke-linecap: square"/>
     </g>
     <g id="line2d_6">
      <g>
       <use xlink:href="#m4381400997" x="503.93231" y="462.04" style="stroke: #000000; stroke-width: 0.8"/>
      </g>
     </g>
     <g id="text_3">
      <!-- 60 -->
      <g transform="translate(497.56981 476.638438) scale(0.1 -0.1)">
       <defs>
        <path id="DejaVuSans-36" d="M 2113 2584 
Q 1688 2584 1439 2293 
Q 1191 2003 1191 1497 
Q 1191 994 1439 701 
Q 1688 409 2113 409 
Q 2538 409 2786 701 
Q 3034 994 3034 1497 
Q 3034 2003 2786 2293 
Q 2538 2584 2113 2584 
z
M 3366 4563 
L 3366 3988 
Q 3128 4100 2886 4159 
Q 2644 4219 2406 4219 
Q 1781 4219 1451 3797 
Q 1122 3375 1075 2522 
Q 1259 2794 1537 2939 
Q 1816 3084 2150 3084 
Q 2853 3084 3261 2657 
Q 3669 2231 3669 1497 
Q 3669 778 3244 343 
Q 2819 -91 2113 -91 
Q 1303 -91 875 529 
Q 447 1150 447 2328 
Q 447 3434 972 4092 
Q 1497 4750 2381 4750 
Q 2619 4750 2861 4703 
Q 3103 4656 3366 4563 
z
" transform="scale(0.015625)"/>
       </defs>
       <use xlink:href="#DejaVuSans-36"/>
       <use xlink:href="#DejaVuSans-30" transform="translate(63.623047 0)"/>
      </g>
     </g>
    </g>
    <g id="xtick_4">
     <g id="line2d_7">
      <path d="M 660.554592 462.04 
L 660.554592 25.44 
" clip-path="url(#p31796cf73a)" style="fill: none; stroke: #b0b0b0; stroke-opacity: 0.25; stroke-width: 0.8; stroke-linecap: square"/>
     </g>
     <g id="line2d_8">
      <g>
       <use xlink:href="#m4381400997" x="660.554592" y="462.04" style="stroke: #000000; stroke-width: 0.8"/>
      </g>
     </g>
     <g id="text_4">
      <!-- 80 -->
      <g transform="translate(654.192092 476.638438) scale(0.1 -0.1)">
       <defs>
        <path id="DejaVuSans-38" d="M 2034 2216 
Q 1584 2216 1326 1975 
Q 1069 1734 1069 1313 
Q 1069 891 1326 650 
Q 1584 409 2034 409 
Q 2484 409 2743 651 
Q 3003 894 3003 1313 
Q 3003 1734 2745 1975 
Q 2488 2216 2034 2216 
z
M 1403 2484 
Q 997 2584 770 2862 
Q 544 3141 544 3541 
Q 544 4100 942 4425 
Q 1341 4750 2034 4750 
Q 2731 4750 3128 4425 
Q 3525 4100 3525 3541 
Q 3525 3141 3298 2862 
Q 3072 2584 2669 2484 
Q 3125 2378 3379 2068 
Q 3634 1759 3634 1313 
Q 3634 634 3220 271 
Q 2806 -91 2034 -91 
Q 1263 -91 848 271 
Q 434 634 434 1313 
Q 434 1759 690 2068 
Q 947 2378 1403 2484 
z
M 1172 3481 
Q 1172 3119 1398 2916 
Q 1625 2713 2034 2713 
Q 2441 2713 2670 2916 
Q 2900 3119 2900 3481 
Q 2900 3844 2670 4047 
Q 2441 4250 2034 4250 
Q 1625 4250 1398 4047 
Q 1172 3844 1172 3481 
z
" transform="scale(0.015625)"/>
       </defs>
       <use xlink:href="#DejaVuSans-38"/>
       <use xlink:href="#DejaVuSans-30" transform="translate(63.623047 0)"/>
      </g>
     </g>
    </g>
    <g id="xtick_5">
     <g id="line2d_9">
      <path d="M 817.176875 462.04 
L 817.176875 25.44 
" clip-path="url(#p31796cf73a)" style="fill: none; stroke: #b0b0b0; stroke-opacity: 0.25; stroke-width: 0.8; stroke-linecap: square"/>
     </g>
     <g id="line2d_10">
      <g>
       <use xlink:href="#m4381400997" x="817.176875" y="462.04" style="stroke: #000000; stroke-width: 0.8"/>
      </g>
     </g>
     <g id="text_5">
      <!-- 100 -->
      <g transform="translate(807.633125 476.638438) scale(0.1 -0.1)">
       <defs>
        <path id="DejaVuSans-31" d="M 794 531 
L 1825 531 
L 1825 4091 
L 703 3866 
L 703 4441 
L 1819 4666 
L 2450 4666 
L 2450 531 
L 3481 531 
L 3481 0 
L 794 0 
L 794 531 
z
" transform="scale(0.015625)"/>
       </defs>
       <use xlink:href="#DejaVuSans-31"/>
       <use xlink:href="#DejaVuSans-30" transform="translate(63.623047 0)"/>
       <use xlink:href="#DejaVuSans-30" transform="translate(127.246094 0)"/>
      </g>
     </g>
    </g>
    <g id="text_6">
     <!-- an u52 limbs -->
     <g transform="translate(424.576094 490.316563) scale(0.1 -0.1)">
      <defs>
       <path id="DejaVuSans-61" d="M 2194 1759 
Q 1497 1759 1228 1600 
Q 959 1441 959 1056 
Q 959 750 1161 570 
Q 1363 391 1709 391 
Q 2188 391 2477 730 
Q 2766 1069 2766 1631 
L 2766 1759 
L 2194 1759 
z
M 3341 1997 
L 3341 0 
L 2766 0 
L 2766 531 
Q 2569 213 2275 61 
Q 1981 -91 1556 -91 
Q 1019 -91 701 211 
Q 384 513 384 1019 
Q 384 1609 779 1909 
Q 1175 2209 1959 2209 
L 2766 2209 
L 2766 2266 
Q 2766 2663 2505 2880 
Q 2244 3097 1772 3097 
Q 1472 3097 1187 3025 
Q 903 2953 641 2809 
L 641 3341 
Q 956 3463 1253 3523 
Q 1550 3584 1831 3584 
Q 2591 3584 2966 3190 
Q 3341 2797 3341 1997 
z
" transform="scale(0.015625)"/>
       <path id="DejaVuSans-6e" d="M 3513 2113 
L 3513 0 
L 2938 0 
L 2938 2094 
Q 2938 2591 2744 2837 
Q 2550 3084 2163 3084 
Q 1697 3084 1428 2787 
Q 1159 2491 1159 1978 
L 1159 0 
L 581 0 
L 581 3500 
L 1159 3500 
L 1159 2956 
Q 1366 3272 1645 3428 
Q 1925 3584 2291 3584 
Q 2894 3584 3203 3211 
Q 3513 2838 3513 2113 
z
" transform="scale(0.015625)"/>
       <path id="DejaVuSans-20" transform="scale(0.015625)"/>
       <path id="DejaVuSans-75" d="M 544 1381 
L 544 3500 
L 1119 3500 
L 1119 1403 
Q 1119 906 1312 657 
Q 1506 409 1894 409 
Q 2359 409 2629 706 
Q 2900 1003 2900 1516 
L 2900 3500 
L 3475 3500 
L 3475 0 
L 2900 0 
L 2900 538 
Q 2691 219 2414 64 
Q 2138 -91 1772 -91 
Q 1169 -91 856 284 
Q 544 659 544 1381 
z
M 1991 3584 
L 1991 3584 
z
" transform="scale(0.015625)"/>
       <path id="DejaVuSans-35" d="M 691 4666 
L 3169 4666 
L 3169 4134 
L 1269 4134 
L 1269 2991 
Q 1406 3038 1543 3061 
Q 1681 3084 1819 3084 
Q 2600 3084 3056 2656 
Q 3513 2228 3513 1497 
Q 3513 744 3044 326 
Q 2575 -91 1722 -91 
Q 1428 -91 1123 -41 
Q 819 9 494 109 
L 494 744 
Q 775 591 1075 516 
Q 1375 441 1709 441 
Q 2250 441 2565 725 
Q 2881 1009 2881 1497 
Q 2881 1984 2565 2268 
Q 2250 2553 1709 2553 
Q 1456 2553 1204 2497 
Q 953 2441 691 2322 
L 691 4666 
z
" transform="scale(0.015625)"/>
       <path id="DejaVuSans-6c" d="M 603 4863 
L 1178 4863 
L 1178 0 
L 603 0 
L 603 4863 
z
" transform="scale(0.015625)"/>
       <path id="DejaVuSans-69" d="M 603 3500 
L 1178 3500 
L 1178 0 
L 603 0 
L 603 3500 
z
M 603 4863 
L 1178 4863 
L 1178 4134 
L 603 4134 
L 603 4863 
z
" transform="scale(0.015625)"/>
       <path id="DejaVuSans-6d" d="M 3328 2828 
Q 3544 3216 3844 3400 
Q 4144 3584 4550 3584 
Q 5097 3584 5394 3201 
Q 5691 2819 5691 2113 
L 5691 0 
L 5113 0 
L 5113 2094 
Q 5113 2597 4934 2840 
Q 4756 3084 4391 3084 
Q 3944 3084 3684 2787 
Q 3425 2491 3425 1978 
L 3425 0 
L 2847 0 
L 2847 2094 
Q 2847 2600 2669 2842 
Q 2491 3084 2119 3084 
Q 1678 3084 1418 2786 
Q 1159 2488 1159 1978 
L 1159 0 
L 581 0 
L 581 3500 
L 1159 3500 
L 1159 2956 
Q 1356 3278 1631 3431 
Q 1906 3584 2284 3584 
Q 2666 3584 2933 3390 
Q 3200 3197 3328 2828 
z
" transform="scale(0.015625)"/>
       <path id="DejaVuSans-62" d="M 3116 1747 
Q 3116 2381 2855 2742 
Q 2594 3103 2138 3103 
Q 1681 3103 1420 2742 
Q 1159 2381 1159 1747 
Q 1159 1113 1420 752 
Q 1681 391 2138 391 
Q 2594 391 2855 752 
Q 3116 1113 3116 1747 
z
M 1159 2969 
Q 1341 3281 1617 3432 
Q 1894 3584 2278 3584 
Q 2916 3584 3314 3078 
Q 3713 2572 3713 1747 
Q 3713 922 3314 415 
Q 2916 -91 2278 -91 
Q 1894 -91 1617 61 
Q 1341 213 1159 525 
L 1159 0 
L 581 0 
L 581 4863 
L 1159 4863 
L 1159 2969 
z
" transform="scale(0.015625)"/>
       <path id="DejaVuSans-73" d="M 2834 3397 
L 2834 2853 
Q 2591 2978 2328 3040 
Q 2066 3103 1784 3103 
Q 1356 3103 1142 2972 
Q 928 2841 928 2578 
Q 928 2378 1081 2264 
Q 1234 2150 1697 2047 
L 1894 2003 
Q 2506 1872 2764 1633 
Q 3022 1394 3022 966 
Q 3022 478 2636 193 
Q 2250 -91 1575 -91 
Q 1294 -91 989 -36 
Q 684 19 347 128 
L 347 722 
Q 666 556 975 473 
Q 1284 391 1588 391 
Q 1994 391 2212 530 
Q 2431 669 2431 922 
Q 2431 1156 2273 1281 
Q 2116 1406 1581 1522 
L 1381 1569 
Q 847 1681 609 1914 
Q 372 2147 372 2553 
Q 372 3047 722 3315 
Q 1072 3584 1716 3584 
Q 2034 3584 2315 3537 
Q 2597 3491 2834 3397 
z
" transform="scale(0.015625)"/>
      </defs>
      <use xlink:href="#DejaVuSans-61"/>
      <use xlink:href="#DejaVuSans-6e" transform="translate(61.279297 0)"/>
      <use xlink:href="#DejaVuSans-20" transform="translate(124.658203 0)"/>
      <use xlink:href="#DejaVuSans-75" transform="translate(156.445312 0)"/>
      <use xlink:href="#DejaVuSans-35" transform="translate(219.824219 0)"/>
      <use xlink:href="#DejaVuSans-32" transform="translate(283.447266 0)"/>
      <use xlink:href="#DejaVuSans-20" transform="translate(347.070312 0)"/>
      <use xlink:href="#DejaVuSans-6c" transform="translate(378.857422 0)"/>
      <use xlink:href="#DejaVuSans-69" transform="translate(406.640625 0)"/>
      <use xlink:href="#DejaVuSans-6d" transform="translate(434.423828 0)"/>
      <use xlink:href="#DejaVuSans-62" transform="translate(531.835938 0)"/>
      <use xlink:href="#DejaVuSans-73" transform="translate(595.3125 0)"/>
     </g>
    </g>
   </g>
   <g id="matplotlib.axis_2">
    <g id="ytick_1">
     <g id="line2d_11">
      <path d="M 60.69125 462.04 
L 853.2 462.04 
" clip-path="url(#p31796cf73a)" style="fill: none; stroke: #b0b0b0; stroke-opacity: 0.25; stroke-width: 0.8; stroke-linecap: square"/>
     </g>
     <g id="line2d_12">
      <defs>
       <path id="ma5ee0d7144" d="M 0 0 
L -3.5 0 
" style="stroke: #000000; stroke-width: 0.8"/>
      </defs>
      <g>
       <use xlink:href="#ma5ee0d7144" x="60.69125" y="462.04" style="stroke: #000000; stroke-width: 0.8"/>
      </g>
     </g>
     <g id="text_7">
      <!-- 0.000 -->
      <g transform="translate(25.063125 465.839219) scale(0.1 -0.1)">
       <defs>
        <path id="DejaVuSans-2e" d="M 684 794 
L 1344 794 
L 1344 0 
L 684 0 
L 684 794 
z
" transform="scale(0.015625)"/>
       </defs>
       <use xlink:href="#DejaVuSans-30"/>
       <use xlink:href="#DejaVuSans-2e" transform="translate(63.623047 0)"/>
       <use xlink:href="#DejaVuSans-30" transform="translate(95.410156 0)"/>
       <use xlink:href="#DejaVuSans-30" transform="translate(159.033203 0)"/>
       <use xlink:href="#DejaVuSans-30" transform="translate(222.65625 0)"/>
      </g>
     </g>
    </g>
    <g id="ytick_2">
     <g id="line2d_13">
      <path d="M 60.69125 407.465 
L 853.2 407.465 
" clip-path="url(#p31796cf73a)" style="fill: none; stroke: #b0b0b0; stroke-opacity: 0.25; stroke-width: 0.8; stroke-linecap: square"/>
     </g>
     <g id="line2d_14">
      <g>
       <use xlink:href="#ma5ee0d7144" x="60.69125" y="407.465" style="stroke: #000000; stroke-width: 0.8"/>
      </g>
     </g>
     <g id="text_8">
      <!-- 0.025 -->
      <g transform="translate(25.063125 411.264219) scale(0.1 -0.1)">
       <use xlink:href="#DejaVuSans-30"/>
       <use xlink:href="#DejaVuSans-2e" transform="translate(63.623047 0)"/>
       <use xlink:href="#DejaVuSans-30" transform="translate(95.410156 0)"/>
       <use xlink:href="#DejaVuSans-32" transform="translate(159.033203 0)"/>
       <use xlink:href="#DejaVuSans-35" transform="translate(222.65625 0)"/>
      </g>
     </g>
    </g>
    <g id="ytick_3">
     <g id="line2d_15">
      <path d="M 60.69125 352.89 
L 853.2 352.89 
" clip-path="url(#p31796cf73a)" style="fill: none; stroke: #b0b0b0; stroke-opacity: 0.25; stroke-width: 0.8; stroke-linecap: square"/>
     </g>
     <g id="line2d_16">
      <g>
       <use xlink:href="#ma5ee0d7144" x="60.69125" y="352.89" style="stroke: #000000; stroke-width: 0.8"/>
      </g>
     </g>
     <g id="text_9">
      <!-- 0.050 -->
      <g transform="translate(25.063125 356.689219) scale(0.1 -0.1)">
       <use xlink:href="#DejaVuSans-30"/>
       <use xlink:href="#DejaVuSans-2e" transform="translate(63.623047 0)"/>
       <use xlink:href="#DejaVuSans-30" transform="translate(95.410156 0)"/>
       <use xlink:href="#DejaVuSans-35" transform="translate(159.033203 0)"/>
       <use xlink:href="#DejaVuSans-30" transform="translate(222.65625 0)"/>
      </g>
     </g>
    </g>
    <g id="ytick_4">
     <g id="line2d_17">
      <path d="M 60.69125 298.315 
L 853.2 298.315 
" clip-path="url(#p31796cf73a)" style="fill: none; stroke: #b0b0b0; stroke-opacity: 0.25; stroke-width: 0.8; stroke-linecap: square"/>
     </g>
     <g id="line2d_18">
      <g>
       <use xlink:href="#ma5ee0d7144" x="60.69125" y="298.315" style="stroke: #000000; stroke-width: 0.8"/>
      </g>
     </g>
     <g id="text_10">
      <!-- 0.075 -->
      <g transform="translate(25.063125 302.114219) scale(0.1 -0.1)">
       <defs>
        <path id="DejaVuSans-37" d="M 525 4666 
L 3525 4666 
L 3525 4397 
L 1831 0 
L 1172 0 
L 2766 4134 
L 525 4134 
L 525 4666 
z
" transform="scale(0.015625)"/>
       </defs>
       <use xlink:href="#DejaVuSans-30"/>
       <use xlink:href="#DejaVuSans-2e" transform="translate(63.623047 0)"/>
       <use xlink:href="#DejaVuSans-30" transform="translate(95.410156 0)"/>
       <use xlink:href="#DejaVuSans-37" transform="translate(159.033203 0)"/>
       <use xlink:href="#DejaVuSans-35" transform="translate(222.65625 0)"/>
      </g>
     </g>
    </g>
    <g id="ytick_5">
     <g id="line2d_19">
      <path d="M 60.69125 243.74 
L 853.2 243.74 
" clip-path="url(#p31796cf73a)" style="fill: none; stroke: #b0b0b0; stroke-opacity: 0.25; stroke-width: 0.8; stroke-linecap: square"/>
     </g>
     <g id="line2d_20">
      <g>
       <use xlink:href="#ma5ee0d7144" x="60.69125" y="243.74" style="stroke: #000000; stroke-width: 0.8"/>
      </g>
     </g>
     <g id="text_11">
      <!-- 0.100 -->
      <g transform="translate(25.063125 247.539219) scale(0.1 -0.1)">
       <use xlink:href="#DejaVuSans-30"/>
       <use xlink:href="#DejaVuSans-2e" transform="translate(63.623047 0)"/>
       <use xlink:href="#DejaVuSans-31" transform="translate(95.410156 0)"/>
       <use xlink:href="#DejaVuSans-30" transform="translate(159.033203 0)"/>
       <use xlink:href="#DejaVuSans-30" transform="translate(222.65625 0)"/>
      </g>
     </g>
    </g>
    <g id="ytick_6">
     <g id="line2d_21">
      <path d="M 60.69125 189.165 
L 853.2 189.165 
" clip-path="url(#p31796cf73a)" style="fill: none; stroke: #b0b0b0; stroke-opacity: 0.25; stroke-width: 0.8; stroke-linecap: square"/>
     </g>
     <g id="line2d_22">
      <g>
       <use xlink:href="#ma5ee0d7144" x="60.69125" y="189.165" style="stroke: #000000; stroke-width: 0.8"/>
      </g>
     </g>
     <g id="text_12">
      <!-- 0.125 -->
      <g transform="translate(25.063125 192.964219) scale(0.1 -0.1)">
       <use xlink:href="#DejaVuSans-30"/>
       <use xlink:href="#DejaVuSans-2e" transform="translate(63.623047 0)"/>
       <use xlink:href="#DejaVuSans-31" transform="translate(95.410156 0)"/>
       <use xlink:href="#DejaVuSans-32" transform="translate(159.033203 0)"/>
       <use xlink:href="#DejaVuSans-35" transform="translate(222.65625 0)"/>
      </g>
     </g>
    </g>
    <g id="ytick_7">
     <g id="line2d_23">
      <path d="M 60.69125 134.59 
L 853.2 134.59 
" clip-path="url(#p31796cf73a)" style="fill: none; stroke: #b0b0b0; stroke-opacity: 0.25; stroke-width: 0.8; stroke-linecap: square"/>
     </g>
     <g id="line2d_24">
      <g>
       <use xlink:href="#ma5ee0d7144" x="60.69125" y="134.59" style="stroke: #000000; stroke-width: 0.8"/>
      </g>
     </g>
     <g id="text_13">
      <!-- 0.150 -->
      <g transform="translate(25.063125 138.389219) scale(0.1 -0.1)">
       <use xlink:href="#DejaVuSans-30"/>
       <use xlink:href="#DejaVuSans-2e" transform="translate(63.623047 0)"/>
       <use xlink:href="#DejaVuSans-31" transform="translate(95.410156 0)"/>
       <use xlink:href="#DejaVuSans-35" transform="translate(159.033203 0)"/>
       <use xlink:href="#DejaVuSans-30" transform="translate(222.65625 0)"/>
      </g>
     </g>
    </g>
    <g id="ytick_8">
     <g id="line2d_25">
      <path d="M 60.69125 80.015 
L 853.2 80.015 
" clip-path="url(#p31796cf73a)" style="fill: none; stroke: #b0b0b0; stroke-opacity: 0.25; stroke-width: 0.8; stroke-linecap: square"/>
     </g>
     <g id="line2d_26">
      <g>
       <use xlink:href="#ma5ee0d7144" x="60.69125" y="80.015" style="stroke: #000000; stroke-width: 0.8"/>
      </g>
     </g>
     <g id="text_14">
      <!-- 0.175 -->
      <g transform="translate(25.063125 83.814219) scale(0.1 -0.1)">
       <use xlink:href="#DejaVuSans-30"/>
       <use xlink:href="#DejaVuSans-2e" transform="translate(63.623047 0)"/>
       <use xlink:href="#DejaVuSans-31" transform="translate(95.410156 0)"/>
       <use xlink:href="#DejaVuSans-37" transform="translate(159.033203 0)"/>
       <use xlink:href="#DejaVuSans-35" transform="translate(222.65625 0)"/>
      </g>
     </g>
    </g>
    <g id="ytick_9">
     <g id="line2d_27">
      <path d="M 60.69125 25.44 
L 853.2 25.44 
" clip-path="url(#p31796cf73a)" style="fill: none; stroke: #b0b0b0; stroke-opacity: 0.25; stroke-width: 0.8; stroke-linecap: square"/>
     </g>
     <g id="line2d_28">
      <g>
       <use xlink:href="#ma5ee0d7144" x="60.69125" y="25.44" style="stroke: #000000; stroke-width: 0.8"/>
      </g>
     </g>
     <g id="text_15">
      <!-- 0.200 -->
      <g transform="translate(25.063125 29.239219) scale(0.1 -0.1)">
       <use xlink:href="#DejaVuSans-30"/>
       <use xlink:href="#DejaVuSans-2e" transform="translate(63.623047 0)"/>
       <use xlink:href="#DejaVuSans-32" transform="translate(95.410156 0)"/>
       <use xlink:href="#DejaVuSans-30" transform="translate(159.033203 0)"/>
       <use xlink:href="#DejaVuSans-30" transform="translate(222.65625 0)"/>
      </g>
     </g>
    </g>
    <g id="text_16">
     <!-- total_ns / (an * bn) -->
     <g transform="translate(18.705312 290.464219) rotate(-90) scale(0.1 -0.1)">
      <defs>
       <path id="DejaVuSans-74" d="M 1172 4494 
L 1172 3500 
L 2356 3500 
L 2356 3053 
L 1172 3053 
L 1172 1153 
Q 1172 725 1289 603 
Q 1406 481 1766 481 
L 2356 481 
L 2356 0 
L 1766 0 
Q 1100 0 847 248 
Q 594 497 594 1153 
L 594 3053 
L 172 3053 
L 172 3500 
L 594 3500 
L 594 4494 
L 1172 4494 
z
" transform="scale(0.015625)"/>
       <path id="DejaVuSans-6f" d="M 1959 3097 
Q 1497 3097 1228 2736 
Q 959 2375 959 1747 
Q 959 1119 1226 758 
Q 1494 397 1959 397 
Q 2419 397 2687 759 
Q 2956 1122 2956 1747 
Q 2956 2369 2687 2733 
Q 2419 3097 1959 3097 
z
M 1959 3584 
Q 2709 3584 3137 3096 
Q 3566 2609 3566 1747 
Q 3566 888 3137 398 
Q 2709 -91 1959 -91 
Q 1206 -91 779 398 
Q 353 888 353 1747 
Q 353 2609 779 3096 
Q 1206 3584 1959 3584 
z
" transform="scale(0.015625)"/>
       <path id="DejaVuSans-5f" d="M 3263 -1063 
L 3263 -1509 
L -63 -1509 
L -63 -1063 
L 3263 -1063 
z
" transform="scale(0.015625)"/>
       <path id="DejaVuSans-2f" d="M 1625 4666 
L 2156 4666 
L 531 -594 
L 0 -594 
L 1625 4666 
z
" transform="scale(0.015625)"/>
       <path id="DejaVuSans-28" d="M 1984 4856 
Q 1566 4138 1362 3434 
Q 1159 2731 1159 2009 
Q 1159 1288 1364 580 
Q 1569 -128 1984 -844 
L 1484 -844 
Q 1016 -109 783 600 
Q 550 1309 550 2009 
Q 550 2706 781 3412 
Q 1013 4119 1484 4856 
L 1984 4856 
z
" transform="scale(0.015625)"/>
       <path id="DejaVuSans-2a" d="M 3009 3897 
L 1888 3291 
L 3009 2681 
L 2828 2375 
L 1778 3009 
L 1778 1831 
L 1422 1831 
L 1422 3009 
L 372 2375 
L 191 2681 
L 1313 3291 
L 191 3897 
L 372 4206 
L 1422 3572 
L 1422 4750 
L 1778 4750 
L 1778 3572 
L 2828 4206 
L 3009 3897 
z
" transform="scale(0.015625)"/>
       <path id="DejaVuSans-29" d="M 513 4856 
L 1013 4856 
Q 1481 4119 1714 3412 
Q 1947 2706 1947 2009 
Q 1947 1309 1714 600 
Q 1481 -109 1013 -844 
L 513 -844 
Q 928 -128 1133 580 
Q 1338 1288 1338 2009 
Q 1338 2731 1133 3434 
Q 928 4138 513 4856 
z
" transform="scale(0.015625)"/>
      </defs>
      <use xlink:href="#DejaVuSans-74"/>
      <use xlink:href="#DejaVuSans-6f" transform="translate(39.208984 0)"/>
      <use xlink:href="#DejaVuSans-74" transform="translate(100.390625 0)"/>
      <use xlink:href="#DejaVuSans-61" transform="translate(139.599609 0)"/>
      <use xlink:href="#DejaVuSans-6c" transform="translate(200.878906 0)"/>
      <use xlink:href="#DejaVuSans-5f" transform="translate(228.662109 0)"/>
      <use xlink:href="#DejaVuSans-6e" transform="translate(278.662109 0)"/>
      <use xlink:href="#DejaVuSans-73" transform="translate(342.041016 0)"/>
      <use xlink:href="#DejaVuSans-20" transform="translate(394.140625 0)"/>
      <use xlink:href="#DejaVuSans-2f" transform="translate(425.927734 0)"/>
      <use xlink:href="#DejaVuSans-20" transform="translate(459.619141 0)"/>
      <use xlink:href="#DejaVuSans-28" transform="translate(491.40625 0)"/>
      <use xlink:href="#DejaVuSans-61" transform="translate(530.419922 0)"/>
      <use xlink:href="#DejaVuSans-6e" transform="translate(591.699219 0)"/>
      <use xlink:href="#DejaVuSans-20" transform="translate(655.078125 0)"/>
      <use xlink:href="#DejaVuSans-2a" transform="translate(686.865234 0)"/>
      <use xlink:href="#DejaVuSans-20" transform="translate(736.865234 0)"/>
      <use xlink:href="#DejaVuSans-62" transform="translate(768.652344 0)"/>
      <use xlink:href="#DejaVuSans-6e" transform="translate(832.128906 0)"/>
      <use xlink:href="#DejaVuSans-29" transform="translate(895.507812 0)"/>
     </g>
    </g>
   </g>
   <g id="line2d_29">
    <path d="M 139.713881 -1 
L 143.70106 23.404481 
L 151.532174 57.677322 
L 159.363288 83.387999 
L 167.194402 19.240003 
L 175.025516 55.097732 
L 182.85663 73.65004 
L 190.687745 91.926633 
L 198.518859 109.488504 
L 206.349973 123.895627 
L 214.181087 137.884173 
L 222.012201 151.393771 
L 229.843315 214.320477 
L 237.674429 227.591264 
L 245.505543 232.751036 
L 253.336658 243.598325 
L 261.167772 248.690902 
L 268.998886 258.475438 
L 276.83 261.24525 
L 284.661114 270.117765 
L 292.492228 244.544927 
L 300.323342 247.708633 
L 308.154457 256.430373 
L 315.985571 258.973515 
L 323.816685 268.074436 
L 331.647799 270.21814 
L 339.478913 278.535239 
L 347.310027 279.180361 
L 355.141141 267.624757 
L 362.972255 271.470418 
L 370.80337 279.06519 
L 378.634484 280.132852 
L 386.465598 286.850438 
L 394.296712 289.17751 
L 402.127826 291.862032 
L 409.95894 295.654805 
L 417.790054 280.65119 
L 425.621168 280.906315 
L 433.452283 286.658865 
L 441.283397 287.140474 
L 449.114511 294.649562 
L 456.945625 293.77748 
L 464.776739 300.578195 
L 472.607853 299.978981 
L 480.438967 307.175432 
L 488.270082 311.280084 
L 496.101196 312.494943 
L 503.93231 316.415947 
L 511.763424 317.67971 
L 519.594538 321.081618 
L 527.425652 322.035926 
L 535.256766 324.537958 
L 543.08788 302.964666 
L 550.918995 307.598592 
L 558.750109 309.861256 
L 566.581223 309.061352 
L 574.412337 313.029531 
L 582.243451 314.464197 
L 590.074565 318.186725 
L 597.905679 319.981954 
L 605.736793 301.059795 
L 613.567908 303.411991 
L 621.399022 304.87805 
L 629.230136 308.960648 
L 637.06125 308.745236 
L 644.892364 312.724031 
L 652.723478 312.735269 
L 660.554592 316.234376 
L 668.385707 266.315564 
L 676.216821 264.608801 
L 684.047935 278.611511 
L 691.879049 272.25499 
L 699.710163 282.976947 
L 707.541277 268.935955 
L 715.372391 282.998989 
L 723.203505 274.074416 
L 731.03462 229.657214 
L 738.865734 240.586043 
L 746.696848 244.907276 
L 754.527962 249.630732 
L 762.359076 247.912885 
L 770.19019 249.240282 
L 778.021304 252.387498 
L 785.852418 256.806314 
L 793.683533 206.751748 
L 801.514647 196.072652 
L 809.345761 214.309423 
L 817.176875 199.76827 
" clip-path="url(#p31796cf73a)" style="fill: none; stroke: #1f77b4; stroke-width: 1.6; stroke-linecap: square"/>
   </g>
   <g id="line2d_30">
    <path d="M 96.714375 177.998673 
L 104.545489 105.215648 
L 112.376603 137.167045 
L 120.207717 167.620362 
L 128.038832 191.361388 
L 135.869946 215.256159 
L 143.70106 228.668258 
L 151.532174 248.14248 
L 159.363288 258.822247 
L 167.194402 240.357326 
L 175.025516 252.757355 
L 182.85663 264.254753 
L 190.687745 274.723524 
L 198.518859 282.018689 
L 206.349973 291.663993 
L 214.181087 298.2963 
L 222.012201 305.345476 
L 229.843315 287.466507 
L 237.674429 295.804006 
L 245.505543 299.906492 
L 253.336658 306.914507 
L 261.167772 311.583959 
L 268.998886 317.965925 
L 276.83 321.014733 
L 284.661114 326.32112 
L 292.492228 315.075443 
L 300.323342 318.077437 
L 308.154457 324.276419 
L 315.985571 325.317162 
L 323.816685 330.938023 
L 331.647799 332.791564 
L 339.478913 337.327843 
L 347.310027 339.722153 
L 355.141141 318.774665 
L 362.972255 322.10772 
L 370.80337 324.744321 
L 378.634484 320.916088 
L 386.465598 331.9771 
L 394.296712 334.432329 
L 402.127826 337.525585 
L 409.95894 340.193497 
L 417.790054 325.196768 
L 425.621168 327.491666 
L 433.452283 331.91626 
L 441.283397 332.605551 
L 449.114511 335.754969 
L 456.945625 338.238202 
L 464.776739 341.27255 
L 472.607853 342.434742 
L 480.438967 334.332315 
L 488.270082 334.842449 
L 496.101196 337.983505 
L 503.93231 331.307395 
L 511.763424 351.155454 
L 519.594538 343.30184 
L 527.425652 354.007211 
L 535.256766 355.715374 
L 543.08788 336.247749 
L 550.918995 338.587643 
L 558.750109 340.855848 
L 566.581223 342.505163 
L 574.412337 344.416424 
L 582.243451 345.808623 
L 590.074565 348.257482 
L 597.905679 348.470626 
L 605.736793 337.385494 
L 613.567908 343.363192 
L 621.399022 342.571234 
L 629.230136 345.357382 
L 637.06125 345.224959 
L 644.892364 349.377658 
L 652.723478 347.863704 
L 660.554592 350.212037 
L 668.385707 332.41468 
L 676.216821 328.912009 
L 684.047935 335.535652 
L 691.879049 333.646752 
L 699.710163 337.555593 
L 707.541277 333.659802 
L 715.372391 340.286862 
L 723.203505 336.906524 
L 731.03462 327.068437 
L 738.865734 329.091072 
L 746.696848 330.133015 
L 754.527962 324.331363 
L 762.359076 331.0376 
L 770.19019 338.899983 
L 778.021304 332.151421 
L 785.852418 336.11311 
L 793.683533 325.59527 
L 801.514647 320.253796 
L 809.345761 328.651732 
L 817.176875 319.937445 
" clip-path="url(#p31796cf73a)" style="fill: none; stroke: #ff7f0e; stroke-width: 1.6; stroke-linecap: square"/>
   </g>
   <g id="line2d_31">
    <path d="M 96.714375 222.00725 
L 104.545489 176.274435 
L 112.376603 208.579818 
L 120.207717 226.8557 
L 128.038832 248.309416 
L 135.869946 262.854627 
L 143.70106 274.862795 
L 151.532174 288.514882 
L 159.363288 300.758253 
L 167.194402 281.966548 
L 175.025516 293.177032 
L 182.85663 301.28789 
L 190.687745 309.795764 
L 198.518859 316.550487 
L 206.349973 323.421744 
L 214.181087 327.442442 
L 222.012201 331.51748 
L 229.843315 330.763195 
L 237.674429 333.699507 
L 245.505543 340.60267 
L 253.336658 343.049213 
L 261.167772 348.711823 
L 268.998886 351.950718 
L 276.83 357.959114 
L 284.661114 359.053574 
L 292.492228 338.463441 
L 300.323342 344.593803 
L 308.154457 349.388726 
L 315.985571 352.180678 
L 323.816685 356.682465 
L 331.647799 357.011888 
L 339.478913 361.904707 
L 347.310027 362.204645 
L 355.141141 350.973383 
L 362.972255 355.981654 
L 370.80337 356.410954 
L 378.634484 358.85603 
L 386.465598 361.811345 
L 394.296712 365.039425 
L 402.127826 365.602059 
L 409.95894 369.155031 
L 417.790054 351.239853 
L 425.621168 357.084597 
L 433.452283 357.095656 
L 441.283397 362.449977 
L 449.114511 361.256168 
L 456.945625 366.665516 
L 464.776739 365.257697 
L 472.607853 369.561078 
L 480.438967 363.146664 
L 488.270082 365.071895 
L 496.101196 366.075663 
L 503.93231 367.898256 
L 511.763424 369.100786 
L 519.594538 370.604375 
L 527.425652 372.317028 
L 535.256766 373.739132 
L 543.08788 360.901228 
L 550.918995 361.973889 
L 558.750109 364.160244 
L 566.581223 366.151773 
L 574.412337 366.911339 
L 582.243451 368.845357 
L 590.074565 369.752675 
L 597.905679 370.507943 
L 605.736793 362.821133 
L 613.567908 362.928082 
L 621.399022 365.372778 
L 629.230136 364.821981 
L 637.06125 367.664548 
L 644.892364 367.673182 
L 652.723478 369.183111 
L 660.554592 370.05936 
L 668.385707 362.228964 
L 676.216821 358.493938 
L 684.047935 364.821933 
L 691.879049 362.913699 
L 699.710163 368.100478 
L 707.541277 365.669954 
L 715.372391 369.71072 
L 723.203505 363.672435 
L 731.03462 358.166717 
L 738.865734 356.642948 
L 746.696848 363.930802 
L 754.527962 362.355191 
L 762.359076 364.357694 
L 770.19019 360.996474 
L 778.021304 367.764414 
L 785.852418 366.094718 
L 793.683533 361.800235 
L 801.514647 354.856577 
L 809.345761 364.141461 
L 817.176875 357.606323 
" clip-path="url(#p31796cf73a)" style="fill: none; stroke: #2ca02c; stroke-width: 1.6; stroke-linecap: square"/>
   </g>
   <g id="line2d_32">
    <path d="M 96.714375 256.357836 
L 104.545489 224.893786 
L 112.376603 243.045155 
L 120.207717 256.874327 
L 128.038832 279.527689 
L 135.869946 295.90926 
L 143.70106 290.478052 
L 151.532174 322.916487 
L 159.363288 328.895182 
L 167.194402 312.264763 
L 175.025516 319.094612 
L 182.85663 327.197227 
L 190.687745 333.791699 
L 198.518859 340.279612 
L 206.349973 344.544699 
L 214.181087 351.08262 
L 222.012201 353.650594 
L 229.843315 344.698 
L 237.674429 349.768902 
L 245.505543 352.982655 
L 253.336658 358.197026 
L 261.167772 360.802327 
L 268.998886 365.027349 
L 276.83 367.534662 
L 284.661114 370.788498 
L 292.492228 349.250192 
L 300.323342 352.914028 
L 308.154457 355.710209 
L 315.985571 358.724207 
L 323.816685 361.850261 
L 331.647799 363.87385 
L 339.478913 366.618594 
L 347.310027 368.757184 
L 355.141141 356.624056 
L 362.972255 358.714074 
L 370.80337 361.429625 
L 378.634484 363.601228 
L 386.465598 365.642846 
L 394.296712 367.839924 
L 402.127826 369.223688 
L 409.95894 371.934527 
L 417.790054 359.797023 
L 425.621168 360.242499 
L 433.452283 369.82564 
L 441.283397 370.10623 
L 449.114511 350.150025 
L 456.945625 374.308546 
L 464.776739 376.292304 
L 472.607853 377.759504 
L 480.438967 369.05241 
L 488.270082 354.318116 
L 496.101196 371.997886 
L 503.93231 374.495055 
L 511.763424 375.315911 
L 519.594538 377.332551 
L 527.425652 377.826496 
L 535.256766 379.25031 
L 543.08788 369.022405 
L 550.918995 370.300674 
L 558.750109 372.190545 
L 566.581223 373.091034 
L 574.412337 374.618515 
L 582.243451 375.669887 
L 590.074565 377.296798 
L 597.905679 377.906586 
L 605.736793 372.050684 
L 613.567908 371.840069 
L 621.399022 374.373647 
L 629.230136 374.151125 
L 637.06125 376.75744 
L 644.892364 376.712219 
L 652.723478 378.728241 
L 660.554592 378.782941 
L 668.385707 372.392125 
L 676.216821 369.714955 
L 684.047935 374.250793 
L 691.879049 370.959937 
L 699.710163 376.842614 
L 707.541277 374.108625 
L 715.372391 378.506202 
L 723.203505 377.344162 
L 731.03462 371.868028 
L 738.865734 369.36304 
L 746.696848 374.190101 
L 754.527962 373.675943 
L 762.359076 375.125929 
L 770.19019 374.234403 
L 778.021304 378.154114 
L 785.852418 376.318617 
L 793.683533 374.346013 
L 801.514647 371.542392 
L 809.345761 376.532139 
L 817.176875 373.954607 
" clip-path="url(#p31796cf73a)" style="fill: none; stroke: #d62728; stroke-width: 1.6; stroke-linecap: square"/>
   </g>
   <g id="line2d_33">
    <path d="M 96.714375 285.595266 
L 104.545489 250.327207 
L 112.376603 270.29757 
L 120.207717 289.548441 
L 128.038832 304.624817 
L 135.869946 316.871458 
L 143.70106 327.110001 
L 151.532174 335.306961 
L 159.363288 343.549733 
L 167.194402 310.402125 
L 175.025516 318.891834 
L 182.85663 325.885925 
L 190.687745 333.07342 
L 198.518859 337.760559 
L 206.349973 343.73944 
L 214.181087 350.004406 
L 222.012201 354.777994 
L 229.843315 341.708141 
L 237.674429 345.568404 
L 245.505543 350.827779 
L 253.336658 354.060846 
L 261.167772 357.946869 
L 268.998886 361.37827 
L 276.83 364.852174 
L 284.661114 367.339048 
L 292.492228 351.322888 
L 300.323342 354.726156 
L 308.154457 358.072337 
L 315.985571 360.461635 
L 323.816685 363.267834 
L 331.647799 365.929061 
L 339.478913 368.46774 
L 347.310027 370.381181 
L 355.141141 359.755644 
L 362.972255 362.387711 
L 370.80337 364.092623 
L 378.634484 367.088315 
L 386.465598 368.470977 
L 394.296712 371.030383 
L 402.127826 372.45801 
L 409.95894 374.449784 
L 417.790054 364.157238 
L 425.621168 366.214023 
L 433.452283 368.445067 
L 441.283397 369.752516 
L 449.114511 371.443655 
L 456.945625 372.852262 
L 464.776739 374.578085 
L 472.607853 376.227213 
L 480.438967 367.367975 
L 488.270082 369.275615 
L 496.101196 370.56297 
L 503.93231 372.269168 
L 511.763424 373.633508 
L 519.594538 375.571621 
L 527.425652 376.392835 
L 535.256766 377.812442 
L 543.08788 368.634936 
L 550.918995 369.79467 
L 558.750109 371.756128 
L 566.581223 372.601067 
L 574.412337 374.275174 
L 582.243451 375.137628 
L 590.074565 376.96598 
L 597.905679 377.603302 
L 605.736793 371.445055 
L 613.567908 370.582593 
L 621.399022 373.772285 
L 629.230136 373.420929 
L 637.06125 376.250726 
L 644.892364 375.846122 
L 652.723478 378.403858 
L 660.554592 378.059981 
L 668.385707 372.631345 
L 676.216821 371.673597 
L 684.047935 374.961053 
L 691.879049 374.113346 
L 699.710163 377.588071 
L 707.541277 376.793658 
L 715.372391 378.831554 
L 723.203505 378.440856 
L 731.03462 374.397019 
L 738.865734 372.872403 
L 746.696848 376.046393 
L 754.527962 376.400131 
L 762.359076 377.601855 
L 770.19019 377.52085 
L 778.021304 380.335414 
L 785.852418 362.593383 
L 793.683533 356.285325 
L 801.514647 377.068068 
L 809.345761 379.892095 
L 817.176875 379.379452 
" clip-path="url(#p31796cf73a)" style="fill: none; stroke: #9467bd; stroke-width: 1.6; stroke-linecap: square"/>
   </g>
   <g id="line2d_34">
    <path d="M 96.714375 318.656382 
L 104.545489 277.331122 
L 112.376603 295.426823 
L 120.207717 311.598044 
L 128.038832 322.989484 
L 135.869946 334.549774 
L 143.70106 279.46235 
L 151.532174 348.368566 
L 159.363288 356.497604 
L 167.194402 334.472573 
L 175.025516 341.316142 
L 182.85663 348.073477 
L 190.687745 353.694745 
L 198.518859 358.927431 
L 206.349973 363.329438 
L 214.181087 367.57274 
L 222.012201 371.90143 
L 229.843315 352.755922 
L 237.674429 356.730382 
L 245.505543 360.718188 
L 253.336658 364.222099 
L 261.167772 367.326114 
L 268.998886 370.811035 
L 276.83 373.468711 
L 284.661114 376.541888 
L 292.492228 361.65125 
L 300.323342 364.979201 
L 308.154457 367.586873 
L 315.985571 370.385215 
L 323.816685 372.549847 
L 331.647799 375.213421 
L 339.478913 377.266764 
L 347.310027 379.495363 
L 355.141141 368.401141 
L 362.972255 370.86592 
L 370.80337 372.709509 
L 378.634484 374.987758 
L 386.465598 376.852431 
L 394.296712 378.646433 
L 402.127826 380.333087 
L 409.95894 382.219297 
L 417.790054 372.24185 
L 425.621168 373.802125 
L 433.452283 375.681924 
L 441.283397 377.398059 
L 449.114511 378.888775 
L 456.945625 380.506279 
L 464.776739 382.19948 
L 472.607853 383.344878 
L 480.438967 374.292748 
L 488.270082 376.008588 
L 496.101196 377.408471 
L 503.93231 379.070804 
L 511.763424 380.216825 
L 519.594538 381.470594 
L 527.425652 382.80567 
L 535.256766 383.922035 
L 543.08788 374.20713 
L 550.918995 375.719912 
L 558.750109 376.965565 
L 566.581223 378.104857 
L 574.412337 379.093173 
L 582.243451 380.602737 
L 590.074565 381.679535 
L 597.905679 382.53578 
L 605.736793 377.30737 
L 613.567908 377.475854 
L 621.399022 379.420176 
L 629.230136 379.595658 
L 637.06125 381.588984 
L 644.892364 381.75064 
L 652.723478 383.645394 
L 660.554592 383.652762 
L 668.385707 377.913768 
L 676.216821 377.879091 
L 684.047935 380.033431 
L 691.879049 379.327551 
L 699.710163 382.519652 
L 707.541277 382.145745 
L 715.372391 384.506101 
L 723.203505 384.066953 
L 731.03462 379.300943 
L 738.865734 379.082326 
L 746.696848 381.594466 
L 754.527962 381.210681 
L 762.359076 383.396327 
L 770.19019 382.724539 
L 778.021304 384.935034 
L 785.852418 384.448415 
L 793.683533 380.224958 
L 801.514647 380.01901 
L 809.345761 381.922477 
L 817.176875 382.197971 
" clip-path="url(#p31796cf73a)" style="fill: none; stroke: #8c564b; stroke-width: 1.6; stroke-linecap: square"/>
   </g>
   <g id="line2d_35">
    <path d="M 96.714375 325.288141 
L 104.545489 282.608745 
L 112.376603 298.655319 
L 120.207717 315.968404 
L 128.038832 325.814862 
L 135.869946 338.159991 
L 143.70106 345.490632 
L 151.532174 354.503933 
L 159.363288 360.342631 
L 167.194402 335.562394 
L 175.025516 342.635757 
L 182.85663 349.050422 
L 190.687745 354.836212 
L 198.518859 359.85124 
L 206.349973 364.621948 
L 214.181087 368.312264 
L 222.012201 372.471545 
L 229.843315 352.72629 
L 237.674429 356.982289 
L 245.505543 361.28274 
L 253.336658 364.582986 
L 261.167772 367.969909 
L 268.998886 370.734995 
L 276.83 374.139112 
L 284.661114 376.518017 
L 292.492228 362.867369 
L 300.323342 365.631617 
L 308.154457 368.54707 
L 315.985571 371.065112 
L 323.816685 373.687066 
L 331.647799 375.745979 
L 339.478913 378.180177 
L 347.310027 380.115813 
L 355.141141 368.613053 
L 362.972255 370.939422 
L 370.80337 372.913476 
L 378.634484 375.081313 
L 386.465598 376.745929 
L 394.296712 378.90473 
L 402.127826 380.648956 
L 409.95894 382.298966 
L 417.790054 372.40242 
L 425.621168 374.049863 
L 433.452283 375.699822 
L 441.283397 377.295508 
L 449.114511 379.01529 
L 456.945625 380.566022 
L 464.776739 382.209057 
L 472.607853 383.358913 
L 480.438967 374.862535 
L 488.270082 376.193145 
L 496.101196 377.863131 
L 503.93231 378.786102 
L 511.763424 380.54651 
L 519.594538 381.720412 
L 527.425652 383.280846 
L 535.256766 384.266174 
L 543.08788 376.007378 
L 550.918995 377.220356 
L 558.750109 378.627546 
L 566.581223 379.695295 
L 574.412337 380.946632 
L 582.243451 382.039204 
L 590.074565 383.239542 
L 597.905679 384.29099 
L 605.736793 377.336437 
L 613.567908 378.181229 
L 621.399022 379.654857 
L 629.230136 380.28641 
L 637.06125 381.938111 
L 644.892364 382.589984 
L 652.723478 383.851273 
L 660.554592 384.489248 
L 668.385707 378.788084 
L 676.216821 379.379731 
L 684.047935 381.013421 
L 691.879049 381.298139 
L 699.710163 382.88036 
L 707.541277 383.393906 
L 715.372391 384.662183 
L 723.203505 384.915324 
L 731.03462 379.519688 
L 738.865734 380.396597 
L 746.696848 381.337644 
L 754.527962 381.989683 
L 762.359076 383.608663 
L 770.19019 383.661874 
L 778.021304 385.13332 
L 785.852418 385.651848 
L 793.683533 380.787513 
L 801.514647 381.38717 
L 809.345761 382.311131 
L 817.176875 383.027162 
" clip-path="url(#p31796cf73a)" style="fill: none; stroke: #e377c2; stroke-width: 1.6; stroke-linecap: square"/>
   </g>
   <g id="line2d_36">
    <path d="M 96.714375 335.822616 
L 104.545489 291.182707 
L 112.376603 308.182136 
L 120.207717 322.550882 
L 128.038832 333.970024 
L 135.869946 343.91274 
L 143.70106 352.020236 
L 151.532174 359.768428 
L 159.363288 365.778482 
L 167.194402 342.603682 
L 175.025516 349.424584 
L 182.85663 355.088953 
L 190.687745 360.249592 
L 198.518859 365.499951 
L 206.349973 369.868069 
L 214.181087 373.541444 
L 222.012201 377.295582 
L 229.843315 358.050902 
L 237.674429 361.901878 
L 245.505543 365.905114 
L 253.336658 369.219023 
L 261.167772 372.442146 
L 268.998886 375.233204 
L 276.83 378.495121 
L 284.661114 380.656186 
L 292.492228 368.290207 
L 300.323342 370.470544 
L 308.154457 373.658826 
L 315.985571 376.105266 
L 323.816685 378.317141 
L 331.647799 380.288597 
L 339.478913 382.462199 
L 347.310027 384.420217 
L 355.141141 372.664328 
L 362.972255 374.665742 
L 370.80337 376.954833 
L 378.634484 378.660666 
L 386.465598 380.449875 
L 394.296712 382.365554 
L 402.127826 383.756424 
L 409.95894 385.230848 
L 417.790054 376.754028 
L 425.621168 378.200748 
L 433.452283 379.724949 
L 441.283397 381.336177 
L 449.114511 382.627062 
L 456.945625 384.475563 
L 464.776739 385.657684 
L 472.607853 386.939412 
L 480.438967 378.578147 
L 488.270082 379.593462 
L 496.101196 381.409055 
L 503.93231 382.178632 
L 511.763424 383.929016 
L 519.594538 385.018292 
L 527.425652 386.465948 
L 535.256766 387.188065 
L 543.08788 380.269293 
L 550.918995 381.136378 
L 558.750109 382.61282 
L 566.581223 383.459625 
L 574.412337 384.819484 
L 582.243451 385.821332 
L 590.074565 387.120841 
L 597.905679 387.987052 
L 605.736793 381.259299 
L 613.567908 382.100188 
L 621.399022 383.477174 
L 629.230136 384.412121 
L 637.06125 385.590449 
L 644.892364 386.232524 
L 652.723478 387.548236 
L 660.554592 388.100849 
L 668.385707 382.226789 
L 676.216821 382.735164 
L 684.047935 384.271723 
L 691.879049 384.0156 
L 699.710163 386.465813 
L 707.541277 386.601624 
L 715.372391 387.759367 
L 723.203505 388.310974 
L 731.03462 383.400601 
L 738.865734 384.088748 
L 746.696848 385.064255 
L 754.527962 385.995343 
L 762.359076 386.92874 
L 770.19019 387.441732 
L 778.021304 388.48724 
L 785.852418 388.98627 
L 793.683533 384.467126 
L 801.514647 385.30626 
L 809.345761 385.840265 
L 817.176875 386.799576 
" clip-path="url(#p31796cf73a)" style="fill: none; stroke: #7f7f7f; stroke-width: 1.6; stroke-linecap: square"/>
   </g>
   <g id="patch_3">
    <path d="M 60.69125 462.04 
L 60.69125 25.44 
" style="fill: none; stroke: #000000; stroke-width: 0.8; stroke-linejoin: miter; stroke-linecap: square"/>
   </g>
   <g id="patch_4">
    <path d="M 853.2 462.04 
L 853.2 25.44 
" style="fill: none; stroke: #000000; stroke-width: 0.8; stroke-linejoin: miter; stroke-linecap: square"/>
   </g>
   <g id="patch_5">
    <path d="M 60.69125 462.04 
L 853.2 462.04 
" style="fill: none; stroke: #000000; stroke-width: 0.8; stroke-linejoin: miter; stroke-linecap: square"/>
   </g>
   <g id="patch_6">
    <path d="M 60.69125 25.44 
L 853.2 25.44 
" style="fill: none; stroke: #000000; stroke-width: 0.8; stroke-linejoin: miter; stroke-linecap: square"/>
   </g>
   <g id="text_17">
    <!-- mul_u52_1 sweep -->
    <g transform="translate(403.244687 19.44) scale(0.12 -0.12)">
     <defs>
      <path id="DejaVuSans-77" d="M 269 3500 
L 844 3500 
L 1563 769 
L 2278 3500 
L 2956 3500 
L 3675 769 
L 4391 3500 
L 4966 3500 
L 4050 0 
L 3372 0 
L 2619 2869 
L 1863 0 
L 1184 0 
L 269 3500 
z
" transform="scale(0.015625)"/>
      <path id="DejaVuSans-65" d="M 3597 1894 
L 3597 1613 
L 953 1613 
Q 991 1019 1311 708 
Q 1631 397 2203 397 
Q 2534 397 2845 478 
Q 3156 559 3463 722 
L 3463 178 
Q 3153 47 2828 -22 
Q 2503 -91 2169 -91 
Q 1331 -91 842 396 
Q 353 884 353 1716 
Q 353 2575 817 3079 
Q 1281 3584 2069 3584 
Q 2775 3584 3186 3129 
Q 3597 2675 3597 1894 
z
M 3022 2063 
Q 3016 2534 2758 2815 
Q 2500 3097 2075 3097 
Q 1594 3097 1305 2825 
Q 1016 2553 972 2059 
L 3022 2063 
z
" transform="scale(0.015625)"/>
      <path id="DejaVuSans-70" d="M 1159 525 
L 1159 -1331 
L 581 -1331 
L 581 3500 
L 1159 3500 
L 1159 2969 
Q 1341 3281 1617 3432 
Q 1894 3584 2278 3584 
Q 2916 3584 3314 3078 
Q 3713 2572 3713 1747 
Q 3713 922 3314 415 
Q 2916 -91 2278 -91 
Q 1894 -91 1617 61 
Q 1341 213 1159 525 
z
M 3116 1747 
Q 3116 2381 2855 2742 
Q 2594 3103 2138 3103 
Q 1681 3103 1420 2742 
Q 1159 2381 1159 1747 
Q 1159 1113 1420 752 
Q 1681 391 2138 391 
Q 2594 391 2855 752 
Q 3116 1113 3116 1747 
z
" transform="scale(0.015625)"/>
     </defs>
     <use xlink:href="#DejaVuSans-6d"/>
     <use xlink:href="#DejaVuSans-75" transform="translate(97.412109 0)"/>
     <use xlink:href="#DejaVuSans-6c" transform="translate(160.791016 0)"/>
     <use xlink:href="#DejaVuSans-5f" transform="translate(188.574219 0)"/>
     <use xlink:href="#DejaVuSans-75" transform="translate(238.574219 0)"/>
     <use xlink:href="#DejaVuSans-35" transform="translate(301.953125 0)"/>
     <use xlink:href="#DejaVuSans-32" transform="translate(365.576172 0)"/>
     <use xlink:href="#DejaVuSans-5f" transform="translate(429.199219 0)"/>
     <use xlink:href="#DejaVuSans-31" transform="translate(479.199219 0)"/>
     <use xlink:href="#DejaVuSans-20" transform="translate(542.822266 0)"/>
     <use xlink:href="#DejaVuSans-73" transform="translate(574.609375 0)"/>
     <use xlink:href="#DejaVuSans-77" transform="translate(626.708984 0)"/>
     <use xlink:href="#DejaVuSans-65" transform="translate(708.496094 0)"/>
     <use xlink:href="#DejaVuSans-65" transform="translate(770.019531 0)"/>
     <use xlink:href="#DejaVuSans-70" transform="translate(831.542969 0)"/>
    </g>
   </g>
   <g id="legend_1">
    <g id="patch_7">
     <path d="M 589.75875 59.060625 
L 846.9 59.060625 
Q 848.7 59.060625 848.7 57.260625 
L 848.7 31.74 
Q 848.7 29.94 846.9 29.94 
L 589.75875 29.94 
Q 587.95875 29.94 587.95875 31.74 
L 587.95875 57.260625 
Q 587.95875 59.060625 589.75875 59.060625 
z
" style="fill: #ffffff; opacity: 0.8; stroke: #cccccc; stroke-linejoin: miter"/>
    </g>
    <g id="line2d_37">
     <path d="M 591.55875 37.228594 
L 600.55875 37.228594 
L 609.55875 37.228594 
" style="fill: none; stroke: #1f77b4; stroke-width: 1.6; stroke-linecap: square"/>
    </g>
    <g id="text_18">
     <!-- bn=1 -->
     <g transform="translate(616.75875 40.378594) scale(0.09 -0.09)">
      <defs>
       <path id="DejaVuSans-3d" d="M 678 2906 
L 4684 2906 
L 4684 2381 
L 678 2381 
L 678 2906 
z
M 678 1631 
L 4684 1631 
L 4684 1100 
L 678 1100 
L 678 1631 
z
" transform="scale(0.015625)"/>
      </defs>
      <use xlink:href="#DejaVuSans-62"/>
      <use xlink:href="#DejaVuSans-6e" transform="translate(63.476562 0)"/>
      <use xlink:href="#DejaVuSans-3d" transform="translate(126.855469 0)"/>
      <use xlink:href="#DejaVuSans-31" transform="translate(210.644531 0)"/>
     </g>
    </g>
    <g id="line2d_38">
     <path d="M 591.55875 50.438906 
L 600.55875 50.438906 
L 609.55875 50.438906 
" style="fill: none; stroke: #ff7f0e; stroke-width: 1.6; stroke-linecap: square"/>
    </g>
    <g id="text_19">
     <!-- bn=2 -->
     <g transform="translate(616.75875 53.588906) scale(0.09 -0.09)">
      <use xlink:href="#DejaVuSans-62"/>
      <use xlink:href="#DejaVuSans-6e" transform="translate(63.476562 0)"/>
      <use xlink:href="#DejaVuSans-3d" transform="translate(126.855469 0)"/>
      <use xlink:href="#DejaVuSans-32" transform="translate(210.644531 0)"/>
     </g>
    </g>
    <g id="line2d_39">
     <path d="M 659.444062 37.228594 
L 668.444062 37.228594 
L 677.444062 37.228594 
" style="fill: none; stroke: #2ca02c; stroke-width: 1.6; stroke-linecap: square"/>
    </g>
    <g id="text_20">
     <!-- bn=3 -->
     <g transform="translate(684.644062 40.378594) scale(0.09 -0.09)">
      <defs>
       <path id="DejaVuSans-33" d="M 2597 2516 
Q 3050 2419 3304 2112 
Q 3559 1806 3559 1356 
Q 3559 666 3084 287 
Q 2609 -91 1734 -91 
Q 1441 -91 1130 -33 
Q 819 25 488 141 
L 488 750 
Q 750 597 1062 519 
Q 1375 441 1716 441 
Q 2309 441 2620 675 
Q 2931 909 2931 1356 
Q 2931 1769 2642 2001 
Q 2353 2234 1838 2234 
L 1294 2234 
L 1294 2753 
L 1863 2753 
Q 2328 2753 2575 2939 
Q 2822 3125 2822 3475 
Q 2822 3834 2567 4026 
Q 2313 4219 1838 4219 
Q 1578 4219 1281 4162 
Q 984 4106 628 3988 
L 628 4550 
Q 988 4650 1302 4700 
Q 1616 4750 1894 4750 
Q 2613 4750 3031 4423 
Q 3450 4097 3450 3541 
Q 3450 3153 3228 2886 
Q 3006 2619 2597 2516 
z
" transform="scale(0.015625)"/>
      </defs>
      <use xlink:href="#DejaVuSans-62"/>
      <use xlink:href="#DejaVuSans-6e" transform="translate(63.476562 0)"/>
      <use xlink:href="#DejaVuSans-3d" transform="translate(126.855469 0)"/>
      <use xlink:href="#DejaVuSans-33" transform="translate(210.644531 0)"/>
     </g>
    </g>
    <g id="line2d_40">
     <path d="M 659.444062 50.438906 
L 668.444062 50.438906 
L 677.444062 50.438906 
" style="fill: none; stroke: #d62728; stroke-width: 1.6; stroke-linecap: square"/>
    </g>
    <g id="text_21">
     <!-- bn=4 -->
     <g transform="translate(684.644062 53.588906) scale(0.09 -0.09)">
      <use xlink:href="#DejaVuSans-62"/>
      <use xlink:href="#DejaVuSans-6e" transform="translate(63.476562 0)"/>
      <use xlink:href="#DejaVuSans-3d" transform="translate(126.855469 0)"/>
      <use xlink:href="#DejaVuSans-34" transform="translate(210.644531 0)"/>
     </g>
    </g>
    <g id="line2d_41">
     <path d="M 727.329375 37.228594 
L 736.329375 37.228594 
L 745.329375 37.228594 
" style="fill: none; stroke: #9467bd; stroke-width: 1.6; stroke-linecap: square"/>
    </g>
    <g id="text_22">
     <!-- bn=5 -->
     <g transform="translate(752.529375 40.378594) scale(0.09 -0.09)">
      <use xlink:href="#DejaVuSans-62"/>
      <use xlink:href="#DejaVuSans-6e" transform="translate(63.476562 0)"/>
      <use xlink:href="#DejaVuSans-3d" transform="translate(126.855469 0)"/>
      <use xlink:href="#DejaVuSans-35" transform="translate(210.644531 0)"/>
     </g>
    </g>
    <g id="line2d_42">
     <path d="M 727.329375 50.438906 
L 736.329375 50.438906 
L 745.329375 50.438906 
" style="fill: none; stroke: #8c564b; stroke-width: 1.6; stroke-linecap: square"/>
    </g>
    <g id="text_23">
     <!-- bn=6 -->
     <g transform="translate(752.529375 53.588906) scale(0.09 -0.09)">
      <use xlink:href="#DejaVuSans-62"/>
      <use xlink:href="#DejaVuSans-6e" transform="translate(63.476562 0)"/>
      <use xlink:href="#DejaVuSans-3d" transform="translate(126.855469 0)"/>
      <use xlink:href="#DejaVuSans-36" transform="translate(210.644531 0)"/>
     </g>
    </g>
    <g id="line2d_43">
     <path d="M 795.214687 37.228594 
L 804.214687 37.228594 
L 813.214687 37.228594 
" style="fill: none; stroke: #e377c2; stroke-width: 1.6; stroke-linecap: square"/>
    </g>
    <g id="text_24">
     <!-- bn=7 -->
     <g transform="translate(820.414687 40.378594) scale(0.09 -0.09)">
      <use xlink:href="#DejaVuSans-62"/>
      <use xlink:href="#DejaVuSans-6e" transform="translate(63.476562 0)"/>
      <use xlink:href="#DejaVuSans-3d" transform="translate(126.855469 0)"/>
      <use xlink:href="#DejaVuSans-37" transform="translate(210.644531 0)"/>
     </g>
    </g>
    <g id="line2d_44">
     <path d="M 795.214687 50.438906 
L 804.214687 50.438906 
L 813.214687 50.438906 
" style="fill: none; stroke: #7f7f7f; stroke-width: 1.6; stroke-linecap: square"/>
    </g>
    <g id="text_25">
     <!-- bn=8 -->
     <g transform="translate(820.414687 53.588906) scale(0.09 -0.09)">
      <use xlink:href="#DejaVuSans-62"/>
      <use xlink:href="#DejaVuSans-6e" transform="translate(63.476562 0)"/>
      <use xlink:href="#DejaVuSans-3d" transform="translate(126.855469 0)"/>
      <use xlink:href="#DejaVuSans-38" transform="translate(210.644531 0)"/>
     </g>
    </g>
   </g>
  </g>
 </g>
 <defs>
  <clipPath id="p31796cf73a">
   <rect x="60.69125" y="25.44" width="792.50875" height="436.6"/>
  </clipPath>
 </defs>
</svg>
