<?xml version="1.0" encoding="utf-8" standalone="no"?>
<!DOCTYPE svg PUBLIC "-//W3C//DTD SVG 1.1//EN"
  "http://www.w3.org/Graphics/SVG/1.1/DTD/svg11.dtd">
<svg xmlns:xlink="http://www.w3.org/1999/xlink" width="864pt" height="504pt" viewBox="0 0 864 504" xmlns="http://www.w3.org/2000/svg" version="1.1">
 <metadata>
  <rdf:RDF xmlns:dc="http://purl.org/dc/elements/1.1/" xmlns:cc="http://creativecommons.org/ns#" xmlns:rdf="http://www.w3.org/1999/02/22-rdf-syntax-ns#">
   <cc:Work>
    <dc:type rdf:resource="http://purl.org/dc/dcmitype/StillImage"/>
    <dc:date>2026-06-04T10:33:21.784190</dc:date>
    <dc:format>image/svg+xml</dc:format>
    <dc:creator>
     <cc:Agent>
      <dc:title>Matplotlib v3.10.7+dfsg1, https://matplotlib.org/</dc:title>
     </cc:Agent>
    </dc:creator>
   </cc:Work>
  </rdf:RDF>
 </metadata>
 <defs>
  <style type="text/css">*{stroke-linejoin: round; stroke-linecap: butt}</style>
 </defs>
 <g id="figure_1">
  <g id="patch_1">
   <path d="M 0 504 
L 864 504 
L 864 0 
L 0 0 
z
" style="fill: #ffffff"/>
  </g>
  <g id="axes_1">
   <g id="patch_2">
    <path d="M 54.30125 462.04 
L 853.2 462.04 
L 853.2 25.44 
L 54.30125 25.44 
z
" style="fill: #ffffff"/>
   </g>
   <g id="matplotlib.axis_1">
    <g id="xtick_1">
     <g id="line2d_1">
      <path d="M 185.345907 462.04 
L 185.345907 25.44 
" clip-path="url(#p822d370ed7)" style="fill: none; stroke: #b0b0b0; stroke-opacity: 0.25; stroke-width: 0.8; stroke-linecap: square"/>
     </g>
     <g id="line2d_2">
      <defs>
       <path id="m9d62b5f4f1" d="M 0 0 
L 0 3.5 
" style="stroke: #000000; stroke-width: 0.8"/>
      </defs>
      <g>
       <use xlink:href="#m9d62b5f4f1" x="185.345907" y="462.04" style="stroke: #000000; stroke-width: 0.8"/>
      </g>
     </g>
     <g id="text_1">
      <!-- 20 -->
      <g transform="translate(178.983407 476.638438) scale(0.1 -0.1)">
       <defs>
        <path id="DejaVuSans-32" d="M 1228 531 
L 3431 531 
L 3431 0 
L 469 0 
L 469 531 
Q 828 903 1448 1529 
Q 2069 2156 2228 2338 
Q 2531 2678 2651 2914 
Q 2772 3150 2772 3378 
Q 2772 3750 2511 3984 
Q 2250 4219 1831 4219 
Q 1534 4219 1204 4116 
Q 875 4013 500 3803 
L 500 4441 
Q 881 4594 1212 4672 
Q 1544 4750 1819 4750 
Q 2544 4750 2975 4387 
Q 3406 4025 3406 3419 
Q 3406 3131 3298 2873 
Q 3191 2616 2906 2266 
Q 2828 2175 2409 1742 
Q 1991 1309 1228 531 
z
" transform="scale(0.015625)"/>
        <path id="DejaVuSans-30" d="M 2034 4250 
Q 1547 4250 1301 3770 
Q 1056 3291 1056 2328 
Q 1056 1369 1301 889 
Q 1547 409 2034 409 
Q 2525 409 2770 889 
Q 3016 1369 3016 2328 
Q 3016 3291 2770 3770 
Q 2525 4250 2034 4250 
z
M 2034 4750 
Q 2819 4750 3233 4129 
Q 3647 3509 3647 2328 
Q 3647 1150 3233 529 
Q 2819 -91 2034 -91 
Q 1250 -91 836 529 
Q 422 1150 422 2328 
Q 422 3509 836 4129 
Q 1250 4750 2034 4750 
z
" transform="scale(0.015625)"/>
       </defs>
       <use xlink:href="#DejaVuSans-32"/>
       <use xlink:href="#DejaVuSans-30" transform="translate(63.623047 0)"/>
      </g>
     </g>
    </g>
    <g id="xtick_2">
     <g id="line2d_3">
      <path d="M 343.231035 462.04 
L 343.231035 25.44 
" clip-path="url(#p822d370ed7)" style="fill: none; stroke: #b0b0b0; stroke-opacity: 0.25; stroke-width: 0.8; stroke-linecap: square"/>
     </g>
     <g id="line2d_4">
      <g>
       <use xlink:href="#m9d62b5f4f1" x="343.231035" y="462.04" style="stroke: #000000; stroke-width: 0.8"/>
      </g>
     </g>
     <g id="text_2">
      <!-- 40 -->
      <g transform="translate(336.868535 476.638438) scale(0.1 -0.1)">
       <defs>
        <path id="DejaVuSans-34" d="M 2419 4116 
L 825 1625 
L 2419 1625 
L 2419 4116 
z
M 2253 4666 
L 3047 4666 
L 3047 1625 
L 3713 1625 
L 3713 1100 
L 3047 1100 
L 3047 0 
L 2419 0 
L 2419 1100 
L 313 1100 
L 313 1709 
L 2253 4666 
z
" transform="scale(0.015625)"/>
       </defs>
       <use xlink:href="#DejaVuSans-34"/>
       <use xlink:href="#DejaVuSans-30" transform="translate(63.623047 0)"/>
      </g>
     </g>
    </g>
    <g id="xtick_3">
     <g id="line2d_5">
      <path d="M 501.116164 462.04 
L 501.116164 25.44 
" clip-path="url(#p822d370ed7)" style="fill: none; stroke: #b0b0b0; stroke-opacity: 0.25; stroke-width: 0.8; stroke-linecap: square"/>
     </g>
     <g id="line2d_6">
      <g>
       <use xlink:href="#m9d62b5f4f1" x="501.116164" y="462.04" style="stroke: #000000; stroke-width: 0.8"/>
      </g>
     </g>
     <g id="text_3">
      <!-- 60 -->
      <g transform="translate(494.753664 476.638438) scale(0.1 -0.1)">
       <defs>
        <path id="DejaVuSans-36" d="M 2113 2584 
Q 1688 2584 1439 2293 
Q 1191 2003 1191 1497 
Q 1191 994 1439 701 
Q 1688 409 2113 409 
Q 2538 409 2786 701 
Q 3034 994 3034 1497 
Q 3034 2003 2786 2293 
Q 2538 2584 2113 2584 
z
M 3366 4563 
L 3366 3988 
Q 3128 4100 2886 4159 
Q 2644 4219 2406 4219 
Q 1781 4219 1451 3797 
Q 1122 3375 1075 2522 
Q 1259 2794 1537 2939 
Q 1816 3084 2150 3084 
Q 2853 3084 3261 2657 
Q 3669 2231 3669 1497 
Q 3669 778 3244 343 
Q 2819 -91 2113 -91 
Q 1303 -91 875 529 
Q 447 1150 447 2328 
Q 447 3434 972 4092 
Q 1497 4750 2381 4750 
Q 2619 4750 2861 4703 
Q 3103 4656 3366 4563 
z
" transform="scale(0.015625)"/>
       </defs>
       <use xlink:href="#DejaVuSans-36"/>
       <use xlink:href="#DejaVuSans-30" transform="translate(63.623047 0)"/>
      </g>
     </g>
    </g>
    <g id="xtick_4">
     <g id="line2d_7">
      <path d="M 659.001292 462.04 
L 659.001292 25.44 
" clip-path="url(#p822d370ed7)" style="fill: none; stroke: #b0b0b0; stroke-opacity: 0.25; stroke-width: 0.8; stroke-linecap: square"/>
     </g>
     <g id="line2d_8">
      <g>
       <use xlink:href="#m9d62b5f4f1" x="659.001292" y="462.04" style="stroke: #000000; stroke-width: 0.8"/>
      </g>
     </g>
     <g id="text_4">
      <!-- 80 -->
      <g transform="translate(652.638792 476.638438) scale(0.1 -0.1)">
       <defs>
        <path id="DejaVuSans-38" d="M 2034 2216 
Q 1584 2216 1326 1975 
Q 1069 1734 1069 1313 
Q 1069 891 1326 650 
Q 1584 409 2034 409 
Q 2484 409 2743 651 
Q 3003 894 3003 1313 
Q 3003 1734 2745 1975 
Q 2488 2216 2034 2216 
z
M 1403 2484 
Q 997 2584 770 2862 
Q 544 3141 544 3541 
Q 544 4100 942 4425 
Q 1341 4750 2034 4750 
Q 2731 4750 3128 4425 
Q 3525 4100 3525 3541 
Q 3525 3141 3298 2862 
Q 3072 2584 2669 2484 
Q 3125 2378 3379 2068 
Q 3634 1759 3634 1313 
Q 3634 634 3220 271 
Q 2806 -91 2034 -91 
Q 1263 -91 848 271 
Q 434 634 434 1313 
Q 434 1759 690 2068 
Q 947 2378 1403 2484 
z
M 1172 3481 
Q 1172 3119 1398 2916 
Q 1625 2713 2034 2713 
Q 2441 2713 2670 2916 
Q 2900 3119 2900 3481 
Q 2900 3844 2670 4047 
Q 2441 4250 2034 4250 
Q 1625 4250 1398 4047 
Q 1172 3844 1172 3481 
z
" transform="scale(0.015625)"/>
       </defs>
       <use xlink:href="#DejaVuSans-38"/>
       <use xlink:href="#DejaVuSans-30" transform="translate(63.623047 0)"/>
      </g>
     </g>
    </g>
    <g id="xtick_5">
     <g id="line2d_9">
      <path d="M 816.88642 462.04 
L 816.88642 25.44 
" clip-path="url(#p822d370ed7)" style="fill: none; stroke: #b0b0b0; stroke-opacity: 0.25; stroke-width: 0.8; stroke-linecap: square"/>
     </g>
     <g id="line2d_10">
      <g>
       <use xlink:href="#m9d62b5f4f1" x="816.88642" y="462.04" style="stroke: #000000; stroke-width: 0.8"/>
      </g>
     </g>
     <g id="text_5">
      <!-- 100 -->
      <g transform="translate(807.34267 476.638438) scale(0.1 -0.1)">
       <defs>
        <path id="DejaVuSans-31" d="M 794 531 
L 1825 531 
L 1825 4091 
L 703 3866 
L 703 4441 
L 1819 4666 
L 2450 4666 
L 2450 531 
L 3481 531 
L 3481 0 
L 794 0 
L 794 531 
z
" transform="scale(0.015625)"/>
       </defs>
       <use xlink:href="#DejaVuSans-31"/>
       <use xlink:href="#DejaVuSans-30" transform="translate(63.623047 0)"/>
       <use xlink:href="#DejaVuSans-30" transform="translate(127.246094 0)"/>
      </g>
     </g>
    </g>
    <g id="text_6">
     <!-- an u52 limbs -->
     <g transform="translate(421.381094 490.316563) scale(0.1 -0.1)">
      <defs>
       <path id="DejaVuSans-61" d="M 2194 1759 
Q 1497 1759 1228 1600 
Q 959 1441 959 1056 
Q 959 750 1161 570 
Q 1363 391 1709 391 
Q 2188 391 2477 730 
Q 2766 1069 2766 1631 
L 2766 1759 
L 2194 1759 
z
M 3341 1997 
L 3341 0 
L 2766 0 
L 2766 531 
Q 2569 213 2275 61 
Q 1981 -91 1556 -91 
Q 1019 -91 701 211 
Q 384 513 384 1019 
Q 384 1609 779 1909 
Q 1175 2209 1959 2209 
L 2766 2209 
L 2766 2266 
Q 2766 2663 2505 2880 
Q 2244 3097 1772 3097 
Q 1472 3097 1187 3025 
Q 903 2953 641 2809 
L 641 3341 
Q 956 3463 1253 3523 
Q 1550 3584 1831 3584 
Q 2591 3584 2966 3190 
Q 3341 2797 3341 1997 
z
" transform="scale(0.015625)"/>
       <path id="DejaVuSans-6e" d="M 3513 2113 
L 3513 0 
L 2938 0 
L 2938 2094 
Q 2938 2591 2744 2837 
Q 2550 3084 2163 3084 
Q 1697 3084 1428 2787 
Q 1159 2491 1159 1978 
L 1159 0 
L 581 0 
L 581 3500 
L 1159 3500 
L 1159 2956 
Q 1366 3272 1645 3428 
Q 1925 3584 2291 3584 
Q 2894 3584 3203 3211 
Q 3513 2838 3513 2113 
z
" transform="scale(0.015625)"/>
       <path id="DejaVuSans-20" transform="scale(0.015625)"/>
       <path id="DejaVuSans-75" d="M 544 1381 
L 544 3500 
L 1119 3500 
L 1119 1403 
Q 1119 906 1312 657 
Q 1506 409 1894 409 
Q 2359 409 2629 706 
Q 2900 1003 2900 1516 
L 2900 3500 
L 3475 3500 
L 3475 0 
L 2900 0 
L 2900 538 
Q 2691 219 2414 64 
Q 2138 -91 1772 -91 
Q 1169 -91 856 284 
Q 544 659 544 1381 
z
M 1991 3584 
L 1991 3584 
z
" transform="scale(0.015625)"/>
       <path id="DejaVuSans-35" d="M 691 4666 
L 3169 4666 
L 3169 4134 
L 1269 4134 
L 1269 2991 
Q 1406 3038 1543 3061 
Q 1681 3084 1819 3084 
Q 2600 3084 3056 2656 
Q 3513 2228 3513 1497 
Q 3513 744 3044 326 
Q 2575 -91 1722 -91 
Q 1428 -91 1123 -41 
Q 819 9 494 109 
L 494 744 
Q 775 591 1075 516 
Q 1375 441 1709 441 
Q 2250 441 2565 725 
Q 2881 1009 2881 1497 
Q 2881 1984 2565 2268 
Q 2250 2553 1709 2553 
Q 1456 2553 1204 2497 
Q 953 2441 691 2322 
L 691 4666 
z
" transform="scale(0.015625)"/>
       <path id="DejaVuSans-6c" d="M 603 4863 
L 1178 4863 
L 1178 0 
L 603 0 
L 603 4863 
z
" transform="scale(0.015625)"/>
       <path id="DejaVuSans-69" d="M 603 3500 
L 1178 3500 
L 1178 0 
L 603 0 
L 603 3500 
z
M 603 4863 
L 1178 4863 
L 1178 4134 
L 603 4134 
L 603 4863 
z
" transform="scale(0.015625)"/>
       <path id="DejaVuSans-6d" d="M 3328 2828 
Q 3544 3216 3844 3400 
Q 4144 3584 4550 3584 
Q 5097 3584 5394 3201 
Q 5691 2819 5691 2113 
L 5691 0 
L 5113 0 
L 5113 2094 
Q 5113 2597 4934 2840 
Q 4756 3084 4391 3084 
Q 3944 3084 3684 2787 
Q 3425 2491 3425 1978 
L 3425 0 
L 2847 0 
L 2847 2094 
Q 2847 2600 2669 2842 
Q 2491 3084 2119 3084 
Q 1678 3084 1418 2786 
Q 1159 2488 1159 1978 
L 1159 0 
L 581 0 
L 581 3500 
L 1159 3500 
L 1159 2956 
Q 1356 3278 1631 3431 
Q 1906 3584 2284 3584 
Q 2666 3584 2933 3390 
Q 3200 3197 3328 2828 
z
" transform="scale(0.015625)"/>
       <path id="DejaVuSans-62" d="M 3116 1747 
Q 3116 2381 2855 2742 
Q 2594 3103 2138 3103 
Q 1681 3103 1420 2742 
Q 1159 2381 1159 1747 
Q 1159 1113 1420 752 
Q 1681 391 2138 391 
Q 2594 391 2855 752 
Q 3116 1113 3116 1747 
z
M 1159 2969 
Q 1341 3281 1617 3432 
Q 1894 3584 2278 3584 
Q 2916 3584 3314 3078 
Q 3713 2572 3713 1747 
Q 3713 922 3314 415 
Q 2916 -91 2278 -91 
Q 1894 -91 1617 61 
Q 1341 213 1159 525 
L 1159 0 
L 581 0 
L 581 4863 
L 1159 4863 
L 1159 2969 
z
" transform="scale(0.015625)"/>
       <path id="DejaVuSans-73" d="M 2834 3397 
L 2834 2853 
Q 2591 2978 2328 3040 
Q 2066 3103 1784 3103 
Q 1356 3103 1142 2972 
Q 928 2841 928 2578 
Q 928 2378 1081 2264 
Q 1234 2150 1697 2047 
L 1894 2003 
Q 2506 1872 2764 1633 
Q 3022 1394 3022 966 
Q 3022 478 2636 193 
Q 2250 -91 1575 -91 
Q 1294 -91 989 -36 
Q 684 19 347 128 
L 347 722 
Q 666 556 975 473 
Q 1284 391 1588 391 
Q 1994 391 2212 530 
Q 2431 669 2431 922 
Q 2431 1156 2273 1281 
Q 2116 1406 1581 1522 
L 1381 1569 
Q 847 1681 609 1914 
Q 372 2147 372 2553 
Q 372 3047 722 3315 
Q 1072 3584 1716 3584 
Q 2034 3584 2315 3537 
Q 2597 3491 2834 3397 
z
" transform="scale(0.015625)"/>
      </defs>
      <use xlink:href="#DejaVuSans-61"/>
      <use xlink:href="#DejaVuSans-6e" transform="translate(61.279297 0)"/>
      <use xlink:href="#DejaVuSans-20" transform="translate(124.658203 0)"/>
      <use xlink:href="#DejaVuSans-75" transform="translate(156.445312 0)"/>
      <use xlink:href="#DejaVuSans-35" transform="translate(219.824219 0)"/>
      <use xlink:href="#DejaVuSans-32" transform="translate(283.447266 0)"/>
      <use xlink:href="#DejaVuSans-20" transform="translate(347.070312 0)"/>
      <use xlink:href="#DejaVuSans-6c" transform="translate(378.857422 0)"/>
      <use xlink:href="#DejaVuSans-69" transform="translate(406.640625 0)"/>
      <use xlink:href="#DejaVuSans-6d" transform="translate(434.423828 0)"/>
      <use xlink:href="#DejaVuSans-62" transform="translate(531.835938 0)"/>
      <use xlink:href="#DejaVuSans-73" transform="translate(595.3125 0)"/>
     </g>
    </g>
   </g>
   <g id="matplotlib.axis_2">
    <g id="ytick_1">
     <g id="line2d_11">
      <path d="M 54.30125 422.810164 
L 853.2 422.810164 
" clip-path="url(#p822d370ed7)" style="fill: none; stroke: #b0b0b0; stroke-opacity: 0.25; stroke-width: 0.8; stroke-linecap: square"/>
     </g>
     <g id="line2d_12">
      <defs>
       <path id="m088e2e0a17" d="M 0 0 
L -3.5 0 
" style="stroke: #000000; stroke-width: 0.8"/>
      </defs>
      <g>
       <use xlink:href="#m088e2e0a17" x="54.30125" y="422.810164" style="stroke: #000000; stroke-width: 0.8"/>
      </g>
     </g>
     <g id="text_7">
      <!-- 0.05 -->
      <g transform="translate(25.035625 426.609383) scale(0.1 -0.1)">
       <defs>
        <path id="DejaVuSans-2e" d="M 684 794 
L 1344 794 
L 1344 0 
L 684 0 
L 684 794 
z
" transform="scale(0.015625)"/>
       </defs>
       <use xlink:href="#DejaVuSans-30"/>
       <use xlink:href="#DejaVuSans-2e" transform="translate(63.623047 0)"/>
       <use xlink:href="#DejaVuSans-30" transform="translate(95.410156 0)"/>
       <use xlink:href="#DejaVuSans-35" transform="translate(159.033203 0)"/>
      </g>
     </g>
    </g>
    <g id="ytick_2">
     <g id="line2d_13">
      <path d="M 54.30125 364.194545 
L 853.2 364.194545 
" clip-path="url(#p822d370ed7)" style="fill: none; stroke: #b0b0b0; stroke-opacity: 0.25; stroke-width: 0.8; stroke-linecap: square"/>
     </g>
     <g id="line2d_14">
      <g>
       <use xlink:href="#m088e2e0a17" x="54.30125" y="364.194545" style="stroke: #000000; stroke-width: 0.8"/>
      </g>
     </g>
     <g id="text_8">
      <!-- 0.10 -->
      <g transform="translate(25.035625 367.993764) scale(0.1 -0.1)">
       <use xlink:href="#DejaVuSans-30"/>
       <use xlink:href="#DejaVuSans-2e" transform="translate(63.623047 0)"/>
       <use xlink:href="#DejaVuSans-31" transform="translate(95.410156 0)"/>
       <use xlink:href="#DejaVuSans-30" transform="translate(159.033203 0)"/>
      </g>
     </g>
    </g>
    <g id="ytick_3">
     <g id="line2d_15">
      <path d="M 54.30125 305.578926 
L 853.2 305.578926 
" clip-path="url(#p822d370ed7)" style="fill: none; stroke: #b0b0b0; stroke-opacity: 0.25; stroke-width: 0.8; stroke-linecap: square"/>
     </g>
     <g id="line2d_16">
      <g>
       <use xlink:href="#m088e2e0a17" x="54.30125" y="305.578926" style="stroke: #000000; stroke-width: 0.8"/>
      </g>
     </g>
     <g id="text_9">
      <!-- 0.15 -->
      <g transform="translate(25.035625 309.378145) scale(0.1 -0.1)">
       <use xlink:href="#DejaVuSans-30"/>
       <use xlink:href="#DejaVuSans-2e" transform="translate(63.623047 0)"/>
       <use xlink:href="#DejaVuSans-31" transform="translate(95.410156 0)"/>
       <use xlink:href="#DejaVuSans-35" transform="translate(159.033203 0)"/>
      </g>
     </g>
    </g>
    <g id="ytick_4">
     <g id="line2d_17">
      <path d="M 54.30125 246.963307 
L 853.2 246.963307 
" clip-path="url(#p822d370ed7)" style="fill: none; stroke: #b0b0b0; stroke-opacity: 0.25; stroke-width: 0.8; stroke-linecap: square"/>
     </g>
     <g id="line2d_18">
      <g>
       <use xlink:href="#m088e2e0a17" x="54.30125" y="246.963307" style="stroke: #000000; stroke-width: 0.8"/>
      </g>
     </g>
     <g id="text_10">
      <!-- 0.20 -->
      <g transform="translate(25.035625 250.762526) scale(0.1 -0.1)">
       <use xlink:href="#DejaVuSans-30"/>
       <use xlink:href="#DejaVuSans-2e" transform="translate(63.623047 0)"/>
       <use xlink:href="#DejaVuSans-32" transform="translate(95.410156 0)"/>
       <use xlink:href="#DejaVuSans-30" transform="translate(159.033203 0)"/>
      </g>
     </g>
    </g>
    <g id="ytick_5">
     <g id="line2d_19">
      <path d="M 54.30125 188.347688 
L 853.2 188.347688 
" clip-path="url(#p822d370ed7)" style="fill: none; stroke: #b0b0b0; stroke-opacity: 0.25; stroke-width: 0.8; stroke-linecap: square"/>
     </g>
     <g id="line2d_20">
      <g>
       <use xlink:href="#m088e2e0a17" x="54.30125" y="188.347688" style="stroke: #000000; stroke-width: 0.8"/>
      </g>
     </g>
     <g id="text_11">
      <!-- 0.25 -->
      <g transform="translate(25.035625 192.146907) scale(0.1 -0.1)">
       <use xlink:href="#DejaVuSans-30"/>
       <use xlink:href="#DejaVuSans-2e" transform="translate(63.623047 0)"/>
       <use xlink:href="#DejaVuSans-32" transform="translate(95.410156 0)"/>
       <use xlink:href="#DejaVuSans-35" transform="translate(159.033203 0)"/>
      </g>
     </g>
    </g>
    <g id="ytick_6">
     <g id="line2d_21">
      <path d="M 54.30125 129.732069 
L 853.2 129.732069 
" clip-path="url(#p822d370ed7)" style="fill: none; stroke: #b0b0b0; stroke-opacity: 0.25; stroke-width: 0.8; stroke-linecap: square"/>
     </g>
     <g id="line2d_22">
      <g>
       <use xlink:href="#m088e2e0a17" x="54.30125" y="129.732069" style="stroke: #000000; stroke-width: 0.8"/>
      </g>
     </g>
     <g id="text_12">
      <!-- 0.30 -->
      <g transform="translate(25.035625 133.531288) scale(0.1 -0.1)">
       <defs>
        <path id="DejaVuSans-33" d="M 2597 2516 
Q 3050 2419 3304 2112 
Q 3559 1806 3559 1356 
Q 3559 666 3084 287 
Q 2609 -91 1734 -91 
Q 1441 -91 1130 -33 
Q 819 25 488 141 
L 488 750 
Q 750 597 1062 519 
Q 1375 441 1716 441 
Q 2309 441 2620 675 
Q 2931 909 2931 1356 
Q 2931 1769 2642 2001 
Q 2353 2234 1838 2234 
L 1294 2234 
L 1294 2753 
L 1863 2753 
Q 2328 2753 2575 2939 
Q 2822 3125 2822 3475 
Q 2822 3834 2567 4026 
Q 2313 4219 1838 4219 
Q 1578 4219 1281 4162 
Q 984 4106 628 3988 
L 628 4550 
Q 988 4650 1302 4700 
Q 1616 4750 1894 4750 
Q 2613 4750 3031 4423 
Q 3450 4097 3450 3541 
Q 3450 3153 3228 2886 
Q 3006 2619 2597 2516 
z
" transform="scale(0.015625)"/>
       </defs>
       <use xlink:href="#DejaVuSans-30"/>
       <use xlink:href="#DejaVuSans-2e" transform="translate(63.623047 0)"/>
       <use xlink:href="#DejaVuSans-33" transform="translate(95.410156 0)"/>
       <use xlink:href="#DejaVuSans-30" transform="translate(159.033203 0)"/>
      </g>
     </g>
    </g>
    <g id="ytick_7">
     <g id="line2d_23">
      <path d="M 54.30125 71.11645 
L 853.2 71.11645 
" clip-path="url(#p822d370ed7)" style="fill: none; stroke: #b0b0b0; stroke-opacity: 0.25; stroke-width: 0.8; stroke-linecap: square"/>
     </g>
     <g id="line2d_24">
      <g>
       <use xlink:href="#m088e2e0a17" x="54.30125" y="71.11645" style="stroke: #000000; stroke-width: 0.8"/>
      </g>
     </g>
     <g id="text_13">
      <!-- 0.35 -->
      <g transform="translate(25.035625 74.915669) scale(0.1 -0.1)">
       <use xlink:href="#DejaVuSans-30"/>
       <use xlink:href="#DejaVuSans-2e" transform="translate(63.623047 0)"/>
       <use xlink:href="#DejaVuSans-33" transform="translate(95.410156 0)"/>
       <use xlink:href="#DejaVuSans-35" transform="translate(159.033203 0)"/>
      </g>
     </g>
    </g>
    <g id="text_14">
     <!-- total_ns / (an * bn) -->
     <g transform="translate(18.677812 290.464219) rotate(-90) scale(0.1 -0.1)">
      <defs>
       <path id="DejaVuSans-74" d="M 1172 4494 
L 1172 3500 
L 2356 3500 
L 2356 3053 
L 1172 3053 
L 1172 1153 
Q 1172 725 1289 603 
Q 1406 481 1766 481 
L 2356 481 
L 2356 0 
L 1766 0 
Q 1100 0 847 248 
Q 594 497 594 1153 
L 594 3053 
L 172 3053 
L 172 3500 
L 594 3500 
L 594 4494 
L 1172 4494 
z
" transform="scale(0.015625)"/>
       <path id="DejaVuSans-6f" d="M 1959 3097 
Q 1497 3097 1228 2736 
Q 959 2375 959 1747 
Q 959 1119 1226 758 
Q 1494 397 1959 397 
Q 2419 397 2687 759 
Q 2956 1122 2956 1747 
Q 2956 2369 2687 2733 
Q 2419 3097 1959 3097 
z
M 1959 3584 
Q 2709 3584 3137 3096 
Q 3566 2609 3566 1747 
Q 3566 888 3137 398 
Q 2709 -91 1959 -91 
Q 1206 -91 779 398 
Q 353 888 353 1747 
Q 353 2609 779 3096 
Q 1206 3584 1959 3584 
z
" transform="scale(0.015625)"/>
       <path id="DejaVuSans-5f" d="M 3263 -1063 
L 3263 -1509 
L -63 -1509 
L -63 -1063 
L 3263 -1063 
z
" transform="scale(0.015625)"/>
       <path id="DejaVuSans-2f" d="M 1625 4666 
L 2156 4666 
L 531 -594 
L 0 -594 
L 1625 4666 
z
" transform="scale(0.015625)"/>
       <path id="DejaVuSans-28" d="M 1984 4856 
Q 1566 4138 1362 3434 
Q 1159 2731 1159 2009 
Q 1159 1288 1364 580 
Q 1569 -128 1984 -844 
L 1484 -844 
Q 1016 -109 783 600 
Q 550 1309 550 2009 
Q 550 2706 781 3412 
Q 1013 4119 1484 4856 
L 1984 4856 
z
" transform="scale(0.015625)"/>
       <path id="DejaVuSans-2a" d="M 3009 3897 
L 1888 3291 
L 3009 2681 
L 2828 2375 
L 1778 3009 
L 1778 1831 
L 1422 1831 
L 1422 3009 
L 372 2375 
L 191 2681 
L 1313 3291 
L 191 3897 
L 372 4206 
L 1422 3572 
L 1422 4750 
L 1778 4750 
L 1778 3572 
L 2828 4206 
L 3009 3897 
z
" transform="scale(0.015625)"/>
       <path id="DejaVuSans-29" d="M 513 4856 
L 1013 4856 
Q 1481 4119 1714 3412 
Q 1947 2706 1947 2009 
Q 1947 1309 1714 600 
Q 1481 -109 1013 -844 
L 513 -844 
Q 928 -128 1133 580 
Q 1338 1288 1338 2009 
Q 1338 2731 1133 3434 
Q 928 4138 513 4856 
z
" transform="scale(0.015625)"/>
      </defs>
      <use xlink:href="#DejaVuSans-74"/>
      <use xlink:href="#DejaVuSans-6f" transform="translate(39.208984 0)"/>
      <use xlink:href="#DejaVuSans-74" transform="translate(100.390625 0)"/>
      <use xlink:href="#DejaVuSans-61" transform="translate(139.599609 0)"/>
      <use xlink:href="#DejaVuSans-6c" transform="translate(200.878906 0)"/>
      <use xlink:href="#DejaVuSans-5f" transform="translate(228.662109 0)"/>
      <use xlink:href="#DejaVuSans-6e" transform="translate(278.662109 0)"/>
      <use xlink:href="#DejaVuSans-73" transform="translate(342.041016 0)"/>
      <use xlink:href="#DejaVuSans-20" transform="translate(394.140625 0)"/>
      <use xlink:href="#DejaVuSans-2f" transform="translate(425.927734 0)"/>
      <use xlink:href="#DejaVuSans-20" transform="translate(459.619141 0)"/>
      <use xlink:href="#DejaVuSans-28" transform="translate(491.40625 0)"/>
      <use xlink:href="#DejaVuSans-61" transform="translate(530.419922 0)"/>
      <use xlink:href="#DejaVuSans-6e" transform="translate(591.699219 0)"/>
      <use xlink:href="#DejaVuSans-20" transform="translate(655.078125 0)"/>
      <use xlink:href="#DejaVuSans-2a" transform="translate(686.865234 0)"/>
      <use xlink:href="#DejaVuSans-20" transform="translate(736.865234 0)"/>
      <use xlink:href="#DejaVuSans-62" transform="translate(768.652344 0)"/>
      <use xlink:href="#DejaVuSans-6e" transform="translate(832.128906 0)"/>
      <use xlink:href="#DejaVuSans-29" transform="translate(895.507812 0)"/>
     </g>
    </g>
   </g>
   <g id="line2d_25">
    <path d="M 90.61483 45.285455 
L 98.509086 92.355097 
L 106.403342 144.063143 
L 114.297599 186.431141 
L 122.191855 202.555594 
L 130.086112 220.129694 
L 137.980368 245.870195 
L 145.874625 264.27536 
L 153.768881 278.082481 
L 161.663137 243.633791 
L 169.557394 262.890071 
L 177.45165 272.853013 
L 185.345907 282.66789 
L 193.240163 292.098947 
L 201.134419 299.835845 
L 209.028676 307.34796 
L 216.922932 314.60287 
L 224.817189 348.395704 
L 232.711445 355.522368 
L 240.605702 358.293263 
L 248.499958 364.118464 
L 256.394214 366.853274 
L 264.288471 372.107755 
L 272.182727 373.595197 
L 280.076984 378.359905 
L 287.97124 364.626806 
L 295.865497 366.325777 
L 303.759753 371.009516 
L 311.654009 372.375232 
L 319.548266 377.262599 
L 327.442522 378.413808 
L 335.336779 382.880248 
L 343.231035 383.226691 
L 351.125292 377.021113 
L 359.019548 379.086305 
L 366.913804 383.164842 
L 374.808061 383.738197 
L 382.702317 387.345668 
L 390.596574 388.59535 
L 398.49083 390.036989 
L 406.385086 392.07378 
L 414.279343 384.016554 
L 422.173599 384.153561 
L 430.067856 387.24279 
L 437.962112 387.501423 
L 445.856369 391.533945 
L 453.750625 391.06562 
L 461.644881 394.717733 
L 469.539138 394.395944 
L 477.433394 398.260575 
L 485.327651 400.464851 
L 493.221907 401.117253 
L 501.116164 403.222907 
L 509.01042 403.901571 
L 516.904676 405.728461 
L 524.798933 406.240942 
L 532.693189 407.58458 
L 540.587446 395.999314 
L 548.481702 398.48782 
L 556.375958 399.702913 
L 564.270215 399.27335 
L 572.164471 401.404337 
L 580.058728 402.17478 
L 587.952984 404.173848 
L 595.847241 405.13792 
L 603.741497 394.976362 
L 611.635753 396.239536 
L 619.53001 397.026837 
L 627.424266 399.21927 
L 635.318523 399.10359 
L 643.212779 401.240278 
L 651.107036 401.246313 
L 659.001292 403.1254 
L 666.895548 376.318051 
L 674.789805 375.401487 
L 682.684061 382.921208 
L 690.578318 379.507636 
L 698.472574 385.26553 
L 706.366831 377.725251 
L 714.261087 385.277367 
L 722.155343 380.484702 
L 730.0496 356.631822 
L 737.943856 362.500811 
L 745.838113 364.821395 
L 753.732369 367.35798 
L 761.626625 366.435464 
L 769.520882 367.148301 
L 777.415138 368.838416 
L 785.309395 371.211404 
L 793.203651 344.331153 
L 801.097908 338.596276 
L 808.992164 348.389768 
L 816.88642 340.580893 
" clip-path="url(#p822d370ed7)" style="fill: none; stroke: #1f77b4; stroke-width: 1.6; stroke-linecap: square"/>
   </g>
   <g id="line2d_26">
    <path d="M 90.61483 328.890207 
L 98.509086 289.804343 
L 106.403342 306.962848 
L 114.297599 323.316857 
L 122.191855 336.066238 
L 130.086112 348.898183 
L 137.980368 356.100734 
L 145.874625 366.558761 
L 153.768881 372.293998 
L 161.663137 362.377985 
L 169.557394 369.037036 
L 177.45165 375.211357 
L 185.345907 380.833285 
L 193.240163 384.750927 
L 201.134419 389.930638 
L 209.028676 393.492313 
L 216.922932 397.277854 
L 224.817189 387.676509 
L 232.711445 392.153904 
L 240.605702 394.357016 
L 248.499958 398.120453 
L 256.394214 400.628038 
L 264.288471 404.055274 
L 272.182727 405.692542 
L 280.076984 408.542172 
L 287.97124 402.503031 
L 295.865497 404.115158 
L 303.759753 407.444129 
L 311.654009 408.003028 
L 319.548266 411.021537 
L 327.442522 412.016924 
L 335.336779 414.452991 
L 343.231035 415.738781 
L 351.125292 404.489583 
L 359.019548 406.279497 
L 366.913804 407.695401 
L 374.808061 405.639568 
L 382.702317 411.579541 
L 390.596574 412.898045 
L 398.49083 414.559183 
L 406.385086 415.991902 
L 414.279343 407.938374 
L 422.173599 409.170778 
L 430.067856 411.546868 
L 437.962112 411.917031 
L 445.856369 413.608328 
L 453.750625 414.941871 
L 461.644881 416.571374 
L 469.539138 417.195493 
L 477.433394 412.844336 
L 485.327651 413.118288 
L 493.221907 414.805094 
L 501.116164 411.219896 
L 509.01042 421.87868 
L 516.904676 417.661141 
L 524.798933 423.410128 
L 532.693189 424.327444 
L 540.587446 413.87296 
L 548.481702 415.129528 
L 556.375958 416.347597 
L 564.270215 417.23331 
L 572.164471 418.259693 
L 580.058728 419.007331 
L 587.952984 420.322414 
L 595.847241 420.436877 
L 603.741497 414.483951 
L 611.635753 417.694088 
L 619.53001 417.268792 
L 627.424266 418.765006 
L 635.318523 418.693892 
L 643.212779 420.92397 
L 651.107036 420.110948 
L 659.001292 421.372048 
L 666.895548 411.81453 
L 674.789805 409.933529 
L 682.684061 413.490551 
L 690.578318 412.476176 
L 698.472574 414.575297 
L 706.366831 412.483184 
L 714.261087 416.042041 
L 722.155343 414.226735 
L 730.0496 408.943496 
L 737.943856 410.029689 
L 745.838113 410.589232 
L 753.732369 407.473635 
L 761.626625 411.075012 
L 769.520882 415.29726 
L 777.415138 411.673155 
L 785.309395 413.800657 
L 793.203651 408.152377 
L 801.097908 405.283904 
L 808.992164 409.793755 
L 816.88642 405.114018 
" clip-path="url(#p822d370ed7)" style="fill: none; stroke: #ff7f0e; stroke-width: 1.6; stroke-linecap: square"/>
   </g>
   <g id="line2d_27">
    <path d="M 90.61483 352.523647 
L 98.509086 327.964258 
L 106.403342 345.312861 
L 114.297599 355.127356 
L 122.191855 366.648409 
L 130.086112 374.459463 
L 137.980368 380.908076 
L 145.874625 388.239506 
L 153.768881 394.814428 
L 161.663137 384.722926 
L 169.557394 390.743169 
L 177.45165 395.098853 
L 185.345907 399.667743 
L 193.240163 403.295157 
L 201.134419 406.985152 
L 209.028676 409.144343 
L 216.922932 411.332716 
L 224.817189 410.927651 
L 232.711445 412.504506 
L 240.605702 416.211635 
L 248.499958 417.525475 
L 256.394214 420.566404 
L 264.288471 422.305752 
L 272.182727 425.532375 
L 280.076984 426.12012 
L 287.97124 415.062829 
L 295.865497 418.35495 
L 303.759753 420.929914 
L 311.654009 422.429245 
L 319.548266 424.84679 
L 327.442522 425.023697 
L 335.336779 427.651233 
L 343.231035 427.812305 
L 351.125292 421.780905 
L 359.019548 424.470441 
L 366.913804 424.700984 
L 374.808061 426.014036 
L 382.702317 427.601096 
L 390.596574 429.334636 
L 398.49083 429.636781 
L 406.385086 431.544794 
L 414.279343 421.924004 
L 422.173599 425.062743 
L 430.067856 425.068682 
L 437.962112 427.944053 
L 445.856369 427.302956 
L 453.750625 430.207878 
L 461.644881 429.451852 
L 469.539138 431.762849 
L 477.433394 428.318187 
L 485.327651 429.352073 
L 493.221907 429.891115 
L 501.116164 430.869882 
L 509.01042 431.515664 
L 516.904676 432.32312 
L 524.798933 433.242847 
L 532.693189 434.006544 
L 540.587446 427.112346 
L 548.481702 427.688385 
L 556.375958 428.862499 
L 564.270215 429.931988 
L 572.164471 430.339889 
L 580.058728 431.378494 
L 587.952984 431.865741 
L 595.847241 432.271334 
L 603.741497 428.143371 
L 611.635753 428.200805 
L 619.53001 429.513653 
L 627.424266 429.217865 
L 635.318523 430.744377 
L 643.212779 430.749014 
L 651.107036 431.559874 
L 659.001292 432.030437 
L 666.895548 427.825365 
L 674.789805 425.819585 
L 682.684061 429.217839 
L 690.578318 428.193081 
L 698.472574 430.97848 
L 706.366831 429.673242 
L 714.261087 431.84321 
L 722.155343 428.600537 
L 730.0496 425.643862 
L 737.943856 424.825569 
L 745.838113 428.739284 
L 753.732369 427.893152 
L 761.626625 428.968534 
L 769.520882 427.163495 
L 777.415138 430.798007 
L 785.309395 429.901348 
L 793.203651 427.59513 
L 801.097908 423.866254 
L 808.992164 428.852413 
L 816.88642 425.34292 
" clip-path="url(#p822d370ed7)" style="fill: none; stroke: #2ca02c; stroke-width: 1.6; stroke-linecap: square"/>
   </g>
   <g id="line2d_28">
    <path d="M 90.61483 370.970563 
L 98.509086 354.073771 
L 106.403342 363.821401 
L 114.297599 371.247928 
L 122.191855 383.413213 
L 130.086112 392.210427 
L 137.980368 389.293765 
L 145.874625 406.71382 
L 153.768881 409.924492 
L 161.663137 400.993642 
L 169.557394 404.661401 
L 177.45165 409.012659 
L 185.345907 412.554015 
L 193.240163 416.038147 
L 201.134419 418.32858 
L 209.028676 421.839567 
L 216.922932 423.218618 
L 224.817189 418.410905 
L 232.711445 421.134075 
L 240.605702 422.859922 
L 248.499958 425.660138 
L 256.394214 427.059234 
L 264.288471 429.328151 
L 272.182727 430.674626 
L 280.076984 432.421997 
L 287.97124 420.855519 
L 295.865497 422.823068 
L 303.759753 424.32467 
L 311.654009 425.943244 
L 319.548266 427.621994 
L 327.442522 428.7087 
L 335.336779 430.18268 
L 343.231035 431.331143 
L 351.125292 424.815424 
L 359.019548 425.937802 
L 366.913804 427.396105 
L 374.808061 428.562297 
L 382.702317 429.658684 
L 390.596574 430.838557 
L 398.49083 431.581665 
L 406.385086 433.037436 
L 414.279343 426.519367 
L 422.173599 426.758596 
L 430.067856 431.904924 
L 437.962112 432.055606 
L 445.856369 421.338746 
L 453.750625 434.31233 
L 461.644881 435.377645 
L 469.539138 436.16556 
L 477.433394 431.489685 
L 485.327651 423.57709 
L 493.221907 433.071462 
L 501.116164 434.412489 
L 509.01042 434.853304 
L 516.904676 435.936278 
L 524.798933 436.201536 
L 532.693189 436.966151 
L 540.587446 431.473572 
L 548.481702 432.160026 
L 556.375958 433.174923 
L 564.270215 433.658503 
L 572.164471 434.478789 
L 580.058728 435.043395 
L 587.952984 435.917078 
L 595.847241 436.244545 
L 603.741497 433.099815 
L 611.635753 432.98671 
L 619.53001 434.34729 
L 627.424266 434.227792 
L 635.318523 435.627432 
L 643.212779 435.603148 
L 651.107036 436.68579 
L 659.001292 436.715164 
L 666.895548 433.283175 
L 674.789805 431.845484 
L 682.684061 434.281315 
L 690.578318 432.514063 
L 698.472574 435.673172 
L 706.366831 434.204968 
L 714.261087 436.56655 
L 722.155343 435.942513 
L 730.0496 433.001725 
L 737.943856 431.656499 
L 745.838113 434.248722 
L 753.732369 433.97261 
L 761.626625 434.75128 
L 769.520882 434.272513 
L 777.415138 436.377473 
L 785.309395 435.391776 
L 793.203651 434.33245 
L 801.097908 432.826853 
L 808.992164 435.506441 
L 816.88642 434.122258 
" clip-path="url(#p822d370ed7)" style="fill: none; stroke: #d62728; stroke-width: 1.6; stroke-linecap: square"/>
   </g>
   <g id="line2d_29">
    <path d="M 90.61483 386.671617 
L 98.509086 367.732 
L 106.403342 378.456464 
L 114.297599 388.794547 
L 122.191855 396.890847 
L 130.086112 403.467525 
L 137.980368 408.965816 
L 145.874625 413.367739 
L 153.768881 417.794264 
L 161.663137 399.99337 
L 169.557394 404.552505 
L 177.45165 408.308465 
L 185.345907 412.168285 
L 193.240163 414.685368 
L 201.134419 417.89614 
L 209.028676 421.260546 
L 216.922932 423.824053 
L 224.817189 416.805294 
L 232.711445 418.878328 
L 240.605702 421.702713 
L 248.499958 423.438931 
L 256.394214 425.525799 
L 264.288471 427.368526 
L 272.182727 429.234079 
L 280.076984 430.569577 
L 287.97124 421.968595 
L 295.865497 423.796215 
L 303.759753 425.593178 
L 311.654009 426.876276 
L 319.548266 428.383258 
L 327.442522 429.812387 
L 335.336779 431.175706 
L 343.231035 432.20326 
L 351.125292 426.497146 
L 359.019548 427.910615 
L 366.913804 428.826186 
L 374.808061 430.434929 
L 382.702317 431.177444 
L 390.596574 432.551894 
L 398.49083 433.318557 
L 406.385086 434.388177 
L 414.279343 428.860885 
L 422.173599 429.965418 
L 430.067856 431.16353 
L 437.962112 431.865655 
L 445.856369 432.773829 
L 453.750625 433.530278 
L 461.644881 434.457077 
L 469.539138 435.34269 
L 477.433394 430.585111 
L 485.327651 431.609551 
L 493.221907 432.300884 
L 501.116164 433.217145 
L 509.01042 433.949821 
L 516.904676 434.990625 
L 524.798933 435.431632 
L 532.693189 436.193988 
L 540.587446 431.265493 
L 548.481702 431.888292 
L 556.375958 432.941633 
L 564.270215 433.395381 
L 572.164471 434.294409 
L 580.058728 434.757562 
L 587.952984 435.739422 
L 595.847241 436.081676 
L 603.741497 432.774581 
L 611.635753 432.311422 
L 619.53001 434.024348 
L 627.424266 433.835663 
L 635.318523 435.355317 
L 643.212779 435.138037 
L 651.107036 436.51159 
L 659.001292 436.326922 
L 666.895548 433.411641 
L 674.789805 432.897312 
L 682.684061 434.662739 
L 690.578318 434.207504 
L 698.472574 436.073497 
L 706.366831 435.646882 
L 714.261087 436.741271 
L 722.155343 436.531458 
L 730.0496 434.359841 
L 737.943856 433.541093 
L 745.838113 435.245586 
L 753.732369 435.43555 
L 761.626625 436.080899 
L 769.520882 436.037398 
L 777.415138 437.548872 
L 785.309395 428.021065 
L 793.203651 424.633518 
L 801.097908 435.794245 
L 808.992164 437.310801 
L 816.88642 437.035502 
" clip-path="url(#p822d370ed7)" style="fill: none; stroke: #9467bd; stroke-width: 1.6; stroke-linecap: square"/>
   </g>
   <g id="line2d_30">
    <path d="M 90.61483 404.426063 
L 98.509086 382.233615 
L 106.403342 391.951349 
L 114.297599 400.635601 
L 122.191855 406.753021 
L 130.086112 412.961116 
L 137.980368 383.378125 
L 145.874625 420.382069 
L 153.768881 424.747516 
L 161.663137 412.919657 
L 169.557394 416.594783 
L 177.45165 420.2236 
L 185.345907 423.242328 
L 193.240163 426.05238 
L 201.134419 428.41634 
L 209.028676 430.695074 
L 216.922932 433.019663 
L 224.817189 422.738162 
L 232.711445 424.872522 
L 240.605702 427.01405 
L 248.499958 428.895717 
L 256.394214 430.562631 
L 264.288471 432.4341 
L 272.182727 433.861322 
L 280.076984 435.511677 
L 287.97124 427.515122 
L 295.865497 429.302294 
L 303.759753 430.702664 
L 311.654009 432.205426 
L 319.548266 433.367875 
L 327.442522 434.798265 
L 335.336779 435.900949 
L 343.231035 437.097749 
L 351.125292 431.139941 
L 359.019548 432.463574 
L 366.913804 433.453617 
L 374.808061 434.677079 
L 382.702317 435.678444 
L 390.596574 436.641857 
L 398.49083 437.547622 
L 406.385086 438.560553 
L 414.279343 433.202475 
L 422.173599 434.040372 
L 430.067856 435.04986 
L 437.962112 435.971456 
L 445.856369 436.771999 
L 453.750625 437.64063 
L 461.644881 438.549911 
L 469.539138 439.165011 
L 477.433394 434.303846 
L 485.327651 435.225284 
L 493.221907 435.977048 
L 501.116164 436.869753 
L 509.01042 437.485187 
L 516.904676 438.158485 
L 524.798933 438.875447 
L 532.693189 439.474955 
L 540.587446 434.257868 
L 548.481702 435.07026 
L 556.375958 435.739199 
L 564.270215 436.351021 
L 572.164471 436.881765 
L 580.058728 437.69243 
L 587.952984 438.27069 
L 595.847241 438.73051 
L 603.741497 435.922755 
L 611.635753 436.013234 
L 619.53001 437.057372 
L 627.424266 437.151609 
L 635.318523 438.222063 
L 643.212779 438.308875 
L 651.107036 439.326394 
L 659.001292 439.330351 
L 666.895548 436.248402 
L 674.789805 436.22978 
L 682.684061 437.386701 
L 690.578318 437.007631 
L 698.472574 438.721849 
L 706.366831 438.521054 
L 714.261087 439.78861 
L 722.155343 439.552779 
L 730.0496 436.993341 
L 737.943856 436.87594 
L 745.838113 438.225007 
L 753.732369 438.018907 
L 761.626625 439.19264 
L 769.520882 438.831878 
L 777.415138 440.018955 
L 785.309395 439.757632 
L 793.203651 437.489555 
L 801.097908 437.378957 
L 808.992164 438.401155 
L 816.88642 438.549101 
" clip-path="url(#p822d370ed7)" style="fill: none; stroke: #8c564b; stroke-width: 1.6; stroke-linecap: square"/>
   </g>
   <g id="line2d_31">
    <path d="M 90.61483 407.987443 
L 98.509086 385.067798 
L 106.403342 393.685113 
L 114.297599 402.982567 
L 122.191855 408.270302 
L 130.086112 414.899871 
L 137.980368 418.836564 
L 145.874625 423.676877 
L 153.768881 426.812369 
L 161.663137 413.504912 
L 169.557394 417.303442 
L 177.45165 420.748238 
L 185.345907 423.855317 
L 193.240163 426.548482 
L 201.134419 429.110443 
L 209.028676 431.092213 
L 216.922932 433.325825 
L 224.817189 422.722249 
L 232.711445 425.007801 
L 240.605702 427.317225 
L 248.499958 429.08952 
L 256.394214 430.908361 
L 264.288471 432.393265 
L 272.182727 434.221341 
L 280.076984 435.498858 
L 287.97124 428.168201 
L 295.865497 429.652654 
L 303.759753 431.218308 
L 311.654009 432.570544 
L 319.548266 433.978583 
L 327.442522 435.084259 
L 335.336779 436.391469 
L 343.231035 437.430942 
L 351.125292 431.253742 
L 359.019548 432.503046 
L 366.913804 433.563151 
L 374.808061 434.72732 
L 382.702317 435.62125 
L 390.596574 436.780568 
L 398.49083 437.71725 
L 406.385086 438.603336 
L 414.279343 433.288704 
L 422.173599 434.173412 
L 430.067856 435.059471 
L 437.962112 435.916385 
L 445.856369 436.839941 
L 453.750625 437.672713 
L 461.644881 438.555054 
L 469.539138 439.172548 
L 477.433394 434.609832 
L 485.327651 435.324395 
L 493.221907 436.221209 
L 501.116164 436.716862 
L 509.01042 437.662235 
L 516.904676 438.292642 
L 524.798933 439.130625 
L 532.693189 439.659765 
L 540.587446 435.224635 
L 548.481702 435.876027 
L 556.375958 436.631715 
L 564.270215 437.205116 
L 572.164471 437.877108 
L 580.058728 438.463839 
L 587.952984 439.108444 
L 595.847241 439.673091 
L 603.741497 435.938364 
L 611.635753 436.392034 
L 619.53001 437.1834 
L 627.424266 437.522556 
L 635.318523 438.409551 
L 643.212779 438.759619 
L 651.107036 439.436955 
L 659.001292 439.77956 
L 666.895548 436.717926 
L 674.789805 437.035652 
L 682.684061 437.912975 
L 690.578318 438.065873 
L 698.472574 438.915556 
L 706.366831 439.19134 
L 714.261087 439.872429 
L 722.155343 440.00837 
L 730.0496 437.110812 
L 737.943856 437.581728 
L 745.838113 438.087089 
L 753.732369 438.437246 
L 761.626625 439.306669 
L 769.520882 439.335244 
L 777.415138 440.125439 
L 785.309395 440.403898 
L 793.203651 437.791658 
L 801.097908 438.113685 
L 808.992164 438.60987 
L 816.88642 438.994392 
" clip-path="url(#p822d370ed7)" style="fill: none; stroke: #e377c2; stroke-width: 1.6; stroke-linecap: square"/>
   </g>
   <g id="line2d_32">
    <path d="M 90.61483 413.644656 
L 98.509086 389.672178 
L 106.403342 398.801194 
L 114.297599 406.517483 
L 122.191855 412.649779 
L 130.086112 417.989206 
L 137.980368 422.343085 
L 145.874625 426.504011 
L 153.768881 429.731524 
L 161.663137 417.286217 
L 169.557394 420.94917 
L 177.45165 423.991044 
L 185.345907 426.762405 
L 193.240163 429.581947 
L 201.134419 431.927709 
L 209.028676 433.900381 
L 216.922932 435.916425 
L 224.817189 425.581667 
L 232.711445 427.649714 
L 240.605702 429.799527 
L 248.499958 431.57916 
L 256.394214 433.310038 
L 264.288471 434.808888 
L 272.182727 436.5606 
L 280.076984 437.721133 
L 287.97124 431.080368 
L 295.865497 432.25125 
L 303.759753 433.963418 
L 311.654009 435.277203 
L 319.548266 436.465021 
L 327.442522 437.523731 
L 335.336779 438.690996 
L 343.231035 439.742489 
L 351.125292 433.429353 
L 359.019548 434.50415 
L 366.913804 435.733436 
L 374.808061 436.649501 
L 382.702317 437.61034 
L 390.596574 438.639096 
L 398.49083 439.386019 
L 406.385086 440.177813 
L 414.279343 435.6256 
L 422.173599 436.402516 
L 430.067856 437.221041 
L 437.962112 438.086301 
L 445.856369 438.77953 
L 453.750625 439.77221 
L 461.644881 440.407032 
L 469.539138 441.095344 
L 477.433394 436.605186 
L 485.327651 437.15043 
L 493.221907 438.125437 
L 501.116164 438.538715 
L 509.01042 439.478704 
L 516.904676 440.063666 
L 524.798933 440.841085 
L 532.693189 441.228875 
L 540.587446 437.513364 
L 548.481702 437.979005 
L 556.375958 438.771882 
L 564.270215 439.226633 
L 572.164471 439.956902 
L 580.058728 440.494914 
L 587.952984 441.192775 
L 595.847241 441.657946 
L 603.741497 438.045016 
L 611.635753 438.496589 
L 619.53001 439.236057 
L 627.424266 439.738141 
L 635.318523 440.370926 
L 643.212779 440.715732 
L 651.107036 441.422294 
L 659.001292 441.719058 
L 666.895548 438.564576 
L 674.789805 438.837583 
L 682.684061 439.662745 
L 690.578318 439.525202 
L 698.472574 440.841012 
L 706.366831 440.913945 
L 714.261087 441.535675 
L 722.155343 441.831899 
L 730.0496 439.194936 
L 737.943856 439.564484 
L 745.838113 440.088349 
L 753.732369 440.588361 
L 761.626625 441.089613 
L 769.520882 441.365099 
L 777.415138 441.926557 
L 785.309395 442.194545 
L 793.203651 439.767679 
L 801.097908 440.21831 
L 808.992164 440.505082 
L 816.88642 441.02025 
" clip-path="url(#p822d370ed7)" style="fill: none; stroke: #7f7f7f; stroke-width: 1.6; stroke-linecap: square"/>
   </g>
   <g id="patch_3">
    <path d="M 54.30125 462.04 
L 54.30125 25.44 
" style="fill: none; stroke: #000000; stroke-width: 0.8; stroke-linejoin: miter; stroke-linecap: square"/>
   </g>
   <g id="patch_4">
    <path d="M 853.2 462.04 
L 853.2 25.44 
" style="fill: none; stroke: #000000; stroke-width: 0.8; stroke-linejoin: miter; stroke-linecap: square"/>
   </g>
   <g id="patch_5">
    <path d="M 54.30125 462.04 
L 853.2 462.04 
" style="fill: none; stroke: #000000; stroke-width: 0.8; stroke-linejoin: miter; stroke-linecap: square"/>
   </g>
   <g id="patch_6">
    <path d="M 54.30125 25.44 
L 853.2 25.44 
" style="fill: none; stroke: #000000; stroke-width: 0.8; stroke-linejoin: miter; stroke-linecap: square"/>
   </g>
   <g id="text_15">
    <!-- mul_u52_1 sweep -->
    <g transform="translate(400.049687 19.44) scale(0.12 -0.12)">
     <defs>
      <path id="DejaVuSans-77" d="M 269 3500 
L 844 3500 
L 1563 769 
L 2278 3500 
L 2956 3500 
L 3675 769 
L 4391 3500 
L 4966 3500 
L 4050 0 
L 3372 0 
L 2619 2869 
L 1863 0 
L 1184 0 
L 269 3500 
z
" transform="scale(0.015625)"/>
      <path id="DejaVuSans-65" d="M 3597 1894 
L 3597 1613 
L 953 1613 
Q 991 1019 1311 708 
Q 1631 397 2203 397 
Q 2534 397 2845 478 
Q 3156 559 3463 722 
L 3463 178 
Q 3153 47 2828 -22 
Q 2503 -91 2169 -91 
Q 1331 -91 842 396 
Q 353 884 353 1716 
Q 353 2575 817 3079 
Q 1281 3584 2069 3584 
Q 2775 3584 3186 3129 
Q 3597 2675 3597 1894 
z
M 3022 2063 
Q 3016 2534 2758 2815 
Q 2500 3097 2075 3097 
Q 1594 3097 1305 2825 
Q 1016 2553 972 2059 
L 3022 2063 
z
" transform="scale(0.015625)"/>
      <path id="DejaVuSans-70" d="M 1159 525 
L 1159 -1331 
L 581 -1331 
L 581 3500 
L 1159 3500 
L 1159 2969 
Q 1341 3281 1617 3432 
Q 1894 3584 2278 3584 
Q 2916 3584 3314 3078 
Q 3713 2572 3713 1747 
Q 3713 922 3314 415 
Q 2916 -91 2278 -91 
Q 1894 -91 1617 61 
Q 1341 213 1159 525 
z
M 3116 1747 
Q 3116 2381 2855 2742 
Q 2594 3103 2138 3103 
Q 1681 3103 1420 2742 
Q 1159 2381 1159 1747 
Q 1159 1113 1420 752 
Q 1681 391 2138 391 
Q 2594 391 2855 752 
Q 3116 1113 3116 1747 
z
" transform="scale(0.015625)"/>
     </defs>
     <use xlink:href="#DejaVuSans-6d"/>
     <use xlink:href="#DejaVuSans-75" transform="translate(97.412109 0)"/>
     <use xlink:href="#DejaVuSans-6c" transform="translate(160.791016 0)"/>
     <use xlink:href="#DejaVuSans-5f" transform="translate(188.574219 0)"/>
     <use xlink:href="#DejaVuSans-75" transform="translate(238.574219 0)"/>
     <use xlink:href="#DejaVuSans-35" transform="translate(301.953125 0)"/>
     <use xlink:href="#DejaVuSans-32" transform="translate(365.576172 0)"/>
     <use xlink:href="#DejaVuSans-5f" transform="translate(429.199219 0)"/>
     <use xlink:href="#DejaVuSans-31" transform="translate(479.199219 0)"/>
     <use xlink:href="#DejaVuSans-20" transform="translate(542.822266 0)"/>
     <use xlink:href="#DejaVuSans-73" transform="translate(574.609375 0)"/>
     <use xlink:href="#DejaVuSans-77" transform="translate(626.708984 0)"/>
     <use xlink:href="#DejaVuSans-65" transform="translate(708.496094 0)"/>
     <use xlink:href="#DejaVuSans-65" transform="translate(770.019531 0)"/>
     <use xlink:href="#DejaVuSans-70" transform="translate(831.542969 0)"/>
    </g>
   </g>
   <g id="legend_1">
    <g id="patch_7">
     <path d="M 589.75875 59.060625 
L 846.9 59.060625 
Q 848.7 59.060625 848.7 57.260625 
L 848.7 31.74 
Q 848.7 29.94 846.9 29.94 
L 589.75875 29.94 
Q 587.95875 29.94 587.95875 31.74 
L 587.95875 57.260625 
Q 587.95875 59.060625 589.75875 59.060625 
z
" style="fill: #ffffff; opacity: 0.8; stroke: #cccccc; stroke-linejoin: miter"/>
    </g>
    <g id="line2d_33">
     <path d="M 591.55875 37.228594 
L 600.55875 37.228594 
L 609.55875 37.228594 
" style="fill: none; stroke: #1f77b4; stroke-width: 1.6; stroke-linecap: square"/>
    </g>
    <g id="text_16">
     <!-- bn=1 -->
     <g transform="translate(616.75875 40.378594) scale(0.09 -0.09)">
      <defs>
       <path id="DejaVuSans-3d" d="M 678 2906 
L 4684 2906 
L 4684 2381 
L 678 2381 
L 678 2906 
z
M 678 1631 
L 4684 1631 
L 4684 1100 
L 678 1100 
L 678 1631 
z
" transform="scale(0.015625)"/>
      </defs>
      <use xlink:href="#DejaVuSans-62"/>
      <use xlink:href="#DejaVuSans-6e" transform="translate(63.476562 0)"/>
      <use xlink:href="#DejaVuSans-3d" transform="translate(126.855469 0)"/>
      <use xlink:href="#DejaVuSans-31" transform="translate(210.644531 0)"/>
     </g>
    </g>
    <g id="line2d_34">
     <path d="M 591.55875 50.438906 
L 600.55875 50.438906 
L 609.55875 50.438906 
" style="fill: none; stroke: #ff7f0e; stroke-width: 1.6; stroke-linecap: square"/>
    </g>
    <g id="text_17">
     <!-- bn=2 -->
     <g transform="translate(616.75875 53.588906) scale(0.09 -0.09)">
      <use xlink:href="#DejaVuSans-62"/>
      <use xlink:href="#DejaVuSans-6e" transform="translate(63.476562 0)"/>
      <use xlink:href="#DejaVuSans-3d" transform="translate(126.855469 0)"/>
      <use xlink:href="#DejaVuSans-32" transform="translate(210.644531 0)"/>
     </g>
    </g>
    <g id="line2d_35">
     <path d="M 659.444062 37.228594 
L 668.444062 37.228594 
L 677.444062 37.228594 
" style="fill: none; stroke: #2ca02c; stroke-width: 1.6; stroke-linecap: square"/>
    </g>
    <g id="text_18">
     <!-- bn=3 -->
     <g transform="translate(684.644062 40.378594) scale(0.09 -0.09)">
      <use xlink:href="#DejaVuSans-62"/>
      <use xlink:href="#DejaVuSans-6e" transform="translate(63.476562 0)"/>
      <use xlink:href="#DejaVuSans-3d" transform="translate(126.855469 0)"/>
      <use xlink:href="#DejaVuSans-33" transform="translate(210.644531 0)"/>
     </g>
    </g>
    <g id="line2d_36">
     <path d="M 659.444062 50.438906 
L 668.444062 50.438906 
L 677.444062 50.438906 
" style="fill: none; stroke: #d62728; stroke-width: 1.6; stroke-linecap: square"/>
    </g>
    <g id="text_19">
     <!-- bn=4 -->
     <g transform="translate(684.644062 53.588906) scale(0.09 -0.09)">
      <use xlink:href="#DejaVuSans-62"/>
      <use xlink:href="#DejaVuSans-6e" transform="translate(63.476562 0)"/>
      <use xlink:href="#DejaVuSans-3d" transform="translate(126.855469 0)"/>
      <use xlink:href="#DejaVuSans-34" transform="translate(210.644531 0)"/>
     </g>
    </g>
    <g id="line2d_37">
     <path d="M 727.329375 37.228594 
L 736.329375 37.228594 
L 745.329375 37.228594 
" style="fill: none; stroke: #9467bd; stroke-width: 1.6; stroke-linecap: square"/>
    </g>
    <g id="text_20">
     <!-- bn=5 -->
     <g transform="translate(752.529375 40.378594) scale(0.09 -0.09)">
      <use xlink:href="#DejaVuSans-62"/>
      <use xlink:href="#DejaVuSans-6e" transform="translate(63.476562 0)"/>
      <use xlink:href="#DejaVuSans-3d" transform="translate(126.855469 0)"/>
      <use xlink:href="#DejaVuSans-35" transform="translate(210.644531 0)"/>
     </g>
    </g>
    <g id="line2d_38">
     <path d="M 727.329375 50.438906 
L 736.329375 50.438906 
L 745.329375 50.438906 
" style="fill: none; stroke: #8c564b; stroke-width: 1.6; stroke-linecap: square"/>
    </g>
    <g id="text_21">
     <!-- bn=6 -->
     <g transform="translate(752.529375 53.588906) scale(0.09 -0.09)">
      <use xlink:href="#DejaVuSans-62"/>
      <use xlink:href="#DejaVuSans-6e" transform="translate(63.476562 0)"/>
      <use xlink:href="#DejaVuSans-3d" transform="translate(126.855469 0)"/>
      <use xlink:href="#DejaVuSans-36" transform="translate(210.644531 0)"/>
     </g>
    </g>
    <g id="line2d_39">
     <path d="M 795.214687 37.228594 
L 804.214687 37.228594 
L 813.214687 37.228594 
" style="fill: none; stroke: #e377c2; stroke-width: 1.6; stroke-linecap: square"/>
    </g>
    <g id="text_22">
     <!-- bn=7 -->
     <g transform="translate(820.414687 40.378594) scale(0.09 -0.09)">
      <defs>
       <path id="DejaVuSans-37" d="M 525 4666 
L 3525 4666 
L 3525 4397 
L 1831 0 
L 1172 0 
L 2766 4134 
L 525 4134 
L 525 4666 
z
" transform="scale(0.015625)"/>
      </defs>
      <use xlink:href="#DejaVuSans-62"/>
      <use xlink:href="#DejaVuSans-6e" transform="translate(63.476562 0)"/>
      <use xlink:href="#DejaVuSans-3d" transform="translate(126.855469 0)"/>
      <use xlink:href="#DejaVuSans-37" transform="translate(210.644531 0)"/>
     </g>
    </g>
    <g id="line2d_40">
     <path d="M 795.214687 50.438906 
L 804.214687 50.438906 
L 813.214687 50.438906 
" style="fill: none; stroke: #7f7f7f; stroke-width: 1.6; stroke-linecap: square"/>
    </g>
    <g id="text_23">
     <!-- bn=8 -->
     <g transform="translate(820.414687 53.588906) scale(0.09 -0.09)">
      <use xlink:href="#DejaVuSans-62"/>
      <use xlink:href="#DejaVuSans-6e" transform="translate(63.476562 0)"/>
      <use xlink:href="#DejaVuSans-3d" transform="translate(126.855469 0)"/>
      <use xlink:href="#DejaVuSans-38" transform="translate(210.644531 0)"/>
     </g>
    </g>
   </g>
  </g>
 </g>
 <defs>
  <clipPath id="p822d370ed7">
   <rect x="54.30125" y="25.44" width="798.89875" height="436.6"/>
  </clipPath>
 </defs>
</svg>
