<?xml version="1.0" encoding="utf-8" standalone="no"?>
<!DOCTYPE svg PUBLIC "-//W3C//DTD SVG 1.1//EN"
  "http://www.w3.org/Graphics/SVG/1.1/DTD/svg11.dtd">
<svg xmlns:xlink="http://www.w3.org/1999/xlink" width="864pt" height="432pt" viewBox="0 0 864 432" xmlns="http://www.w3.org/2000/svg" version="1.1">
 <metadata>
  <rdf:RDF xmlns:dc="http://purl.org/dc/elements/1.1/" xmlns:cc="http://creativecommons.org/ns#" xmlns:rdf="http://www.w3.org/1999/02/22-rdf-syntax-ns#">
   <cc:Work>
    <dc:type rdf:resource="http://purl.org/dc/dcmitype/StillImage"/>
    <dc:date>2026-06-06T01:32:03.781102</dc:date>
    <dc:format>image/svg+xml</dc:format>
    <dc:creator>
     <cc:Agent>
      <dc:title>Matplotlib v3.10.7+dfsg1, https://matplotlib.org/</dc:title>
     </cc:Agent>
    </dc:creator>
   </cc:Work>
  </rdf:RDF>
 </metadata>
 <defs>
  <style type="text/css">*{stroke-linejoin: round; stroke-linecap: butt}</style>
 </defs>
 <g id="figure_1">
  <g id="patch_1">
   <path d="M 0 432 
L 864 432 
L 864 0 
L 0 0 
z
" style="fill: #ffffff"/>
  </g>
  <g id="axes_1">
   <g id="patch_2">
    <path d="M 38.27 390.04 
L 853.2 390.04 
L 853.2 25.44 
L 38.27 25.44 
z
" style="fill: #ffffff"/>
   </g>
   <g id="matplotlib.axis_1">
    <g id="xtick_1">
     <g id="line2d_1">
      <path d="M 134.844497 390.04 
L 134.844497 25.44 
" clip-path="url(#pbfcb68db90)" style="fill: none; stroke: #b0b0b0; stroke-opacity: 0.25; stroke-width: 0.8; stroke-linecap: square"/>
     </g>
     <g id="line2d_2">
      <defs>
       <path id="m609bfcfc35" d="M 0 0 
L 0 3.5 
" style="stroke: #000000; stroke-width: 0.8"/>
      </defs>
      <g>
       <use xlink:href="#m609bfcfc35" x="134.844497" y="390.04" style="stroke: #000000; stroke-width: 0.8"/>
      </g>
     </g>
     <g id="text_1">
      <!-- 50 -->
      <g transform="translate(128.481997 404.638438) scale(0.1 -0.1)">
       <defs>
        <path id="DejaVuSans-35" d="M 691 4666 
L 3169 4666 
L 3169 4134 
L 1269 4134 
L 1269 2991 
Q 1406 3038 1543 3061 
Q 1681 3084 1819 3084 
Q 2600 3084 3056 2656 
Q 3513 2228 3513 1497 
Q 3513 744 3044 326 
Q 2575 -91 1722 -91 
Q 1428 -91 1123 -41 
Q 819 9 494 109 
L 494 744 
Q 775 591 1075 516 
Q 1375 441 1709 441 
Q 2250 441 2565 725 
Q 2881 1009 2881 1497 
Q 2881 1984 2565 2268 
Q 2250 2553 1709 2553 
Q 1456 2553 1204 2497 
Q 953 2441 691 2322 
L 691 4666 
z
" transform="scale(0.015625)"/>
        <path id="DejaVuSans-30" d="M 2034 4250 
Q 1547 4250 1301 3770 
Q 1056 3291 1056 2328 
Q 1056 1369 1301 889 
Q 1547 409 2034 409 
Q 2525 409 2770 889 
Q 3016 1369 3016 2328 
Q 3016 3291 2770 3770 
Q 2525 4250 2034 4250 
z
M 2034 4750 
Q 2819 4750 3233 4129 
Q 3647 3509 3647 2328 
Q 3647 1150 3233 529 
Q 2819 -91 2034 -91 
Q 1250 -91 836 529 
Q 422 1150 422 2328 
Q 422 3509 836 4129 
Q 1250 4750 2034 4750 
z
" transform="scale(0.015625)"/>
       </defs>
       <use xlink:href="#DejaVuSans-35"/>
       <use xlink:href="#DejaVuSans-30" transform="translate(63.623047 0)"/>
      </g>
     </g>
    </g>
    <g id="xtick_2">
     <g id="line2d_3">
      <path d="M 300.211786 390.04 
L 300.211786 25.44 
" clip-path="url(#pbfcb68db90)" style="fill: none; stroke: #b0b0b0; stroke-opacity: 0.25; stroke-width: 0.8; stroke-linecap: square"/>
     </g>
     <g id="line2d_4">
      <g>
       <use xlink:href="#m609bfcfc35" x="300.211786" y="390.04" style="stroke: #000000; stroke-width: 0.8"/>
      </g>
     </g>
     <g id="text_2">
      <!-- 100 -->
      <g transform="translate(290.668036 404.638438) scale(0.1 -0.1)">
       <defs>
        <path id="DejaVuSans-31" d="M 794 531 
L 1825 531 
L 1825 4091 
L 703 3866 
L 703 4441 
L 1819 4666 
L 2450 4666 
L 2450 531 
L 3481 531 
L 3481 0 
L 794 0 
L 794 531 
z
" transform="scale(0.015625)"/>
       </defs>
       <use xlink:href="#DejaVuSans-31"/>
       <use xlink:href="#DejaVuSans-30" transform="translate(63.623047 0)"/>
       <use xlink:href="#DejaVuSans-30" transform="translate(127.246094 0)"/>
      </g>
     </g>
    </g>
    <g id="xtick_3">
     <g id="line2d_5">
      <path d="M 465.579075 390.04 
L 465.579075 25.44 
" clip-path="url(#pbfcb68db90)" style="fill: none; stroke: #b0b0b0; stroke-opacity: 0.25; stroke-width: 0.8; stroke-linecap: square"/>
     </g>
     <g id="line2d_6">
      <g>
       <use xlink:href="#m609bfcfc35" x="465.579075" y="390.04" style="stroke: #000000; stroke-width: 0.8"/>
      </g>
     </g>
     <g id="text_3">
      <!-- 150 -->
      <g transform="translate(456.035325 404.638438) scale(0.1 -0.1)">
       <use xlink:href="#DejaVuSans-31"/>
       <use xlink:href="#DejaVuSans-35" transform="translate(63.623047 0)"/>
       <use xlink:href="#DejaVuSans-30" transform="translate(127.246094 0)"/>
      </g>
     </g>
    </g>
    <g id="xtick_4">
     <g id="line2d_7">
      <path d="M 630.946364 390.04 
L 630.946364 25.44 
" clip-path="url(#pbfcb68db90)" style="fill: none; stroke: #b0b0b0; stroke-opacity: 0.25; stroke-width: 0.8; stroke-linecap: square"/>
     </g>
     <g id="line2d_8">
      <g>
       <use xlink:href="#m609bfcfc35" x="630.946364" y="390.04" style="stroke: #000000; stroke-width: 0.8"/>
      </g>
     </g>
     <g id="text_4">
      <!-- 200 -->
      <g transform="translate(621.402614 404.638438) scale(0.1 -0.1)">
       <defs>
        <path id="DejaVuSans-32" d="M 1228 531 
L 3431 531 
L 3431 0 
L 469 0 
L 469 531 
Q 828 903 1448 1529 
Q 2069 2156 2228 2338 
Q 2531 2678 2651 2914 
Q 2772 3150 2772 3378 
Q 2772 3750 2511 3984 
Q 2250 4219 1831 4219 
Q 1534 4219 1204 4116 
Q 875 4013 500 3803 
L 500 4441 
Q 881 4594 1212 4672 
Q 1544 4750 1819 4750 
Q 2544 4750 2975 4387 
Q 3406 4025 3406 3419 
Q 3406 3131 3298 2873 
Q 3191 2616 2906 2266 
Q 2828 2175 2409 1742 
Q 1991 1309 1228 531 
z
" transform="scale(0.015625)"/>
       </defs>
       <use xlink:href="#DejaVuSans-32"/>
       <use xlink:href="#DejaVuSans-30" transform="translate(63.623047 0)"/>
       <use xlink:href="#DejaVuSans-30" transform="translate(127.246094 0)"/>
      </g>
     </g>
    </g>
    <g id="xtick_5">
     <g id="line2d_9">
      <path d="M 796.313653 390.04 
L 796.313653 25.44 
" clip-path="url(#pbfcb68db90)" style="fill: none; stroke: #b0b0b0; stroke-opacity: 0.25; stroke-width: 0.8; stroke-linecap: square"/>
     </g>
     <g id="line2d_10">
      <g>
       <use xlink:href="#m609bfcfc35" x="796.313653" y="390.04" style="stroke: #000000; stroke-width: 0.8"/>
      </g>
     </g>
     <g id="text_5">
      <!-- 250 -->
      <g transform="translate(786.769903 404.638438) scale(0.1 -0.1)">
       <use xlink:href="#DejaVuSans-32"/>
       <use xlink:href="#DejaVuSans-35" transform="translate(63.623047 0)"/>
       <use xlink:href="#DejaVuSans-30" transform="translate(127.246094 0)"/>
      </g>
     </g>
    </g>
    <g id="text_6">
     <!-- an = bn (u52 limbs) -->
     <g transform="translate(395.752969 418.316562) scale(0.1 -0.1)">
      <defs>
       <path id="DejaVuSans-61" d="M 2194 1759 
Q 1497 1759 1228 1600 
Q 959 1441 959 1056 
Q 959 750 1161 570 
Q 1363 391 1709 391 
Q 2188 391 2477 730 
Q 2766 1069 2766 1631 
L 2766 1759 
L 2194 1759 
z
M 3341 1997 
L 3341 0 
L 2766 0 
L 2766 531 
Q 2569 213 2275 61 
Q 1981 -91 1556 -91 
Q 1019 -91 701 211 
Q 384 513 384 1019 
Q 384 1609 779 1909 
Q 1175 2209 1959 2209 
L 2766 2209 
L 2766 2266 
Q 2766 2663 2505 2880 
Q 2244 3097 1772 3097 
Q 1472 3097 1187 3025 
Q 903 2953 641 2809 
L 641 3341 
Q 956 3463 1253 3523 
Q 1550 3584 1831 3584 
Q 2591 3584 2966 3190 
Q 3341 2797 3341 1997 
z
" transform="scale(0.015625)"/>
       <path id="DejaVuSans-6e" d="M 3513 2113 
L 3513 0 
L 2938 0 
L 2938 2094 
Q 2938 2591 2744 2837 
Q 2550 3084 2163 3084 
Q 1697 3084 1428 2787 
Q 1159 2491 1159 1978 
L 1159 0 
L 581 0 
L 581 3500 
L 1159 3500 
L 1159 2956 
Q 1366 3272 1645 3428 
Q 1925 3584 2291 3584 
Q 2894 3584 3203 3211 
Q 3513 2838 3513 2113 
z
" transform="scale(0.015625)"/>
       <path id="DejaVuSans-20" transform="scale(0.015625)"/>
       <path id="DejaVuSans-3d" d="M 678 2906 
L 4684 2906 
L 4684 2381 
L 678 2381 
L 678 2906 
z
M 678 1631 
L 4684 1631 
L 4684 1100 
L 678 1100 
L 678 1631 
z
" transform="scale(0.015625)"/>
       <path id="DejaVuSans-62" d="M 3116 1747 
Q 3116 2381 2855 2742 
Q 2594 3103 2138 3103 
Q 1681 3103 1420 2742 
Q 1159 2381 1159 1747 
Q 1159 1113 1420 752 
Q 1681 391 2138 391 
Q 2594 391 2855 752 
Q 3116 1113 3116 1747 
z
M 1159 2969 
Q 1341 3281 1617 3432 
Q 1894 3584 2278 3584 
Q 2916 3584 3314 3078 
Q 3713 2572 3713 1747 
Q 3713 922 3314 415 
Q 2916 -91 2278 -91 
Q 1894 -91 1617 61 
Q 1341 213 1159 525 
L 1159 0 
L 581 0 
L 581 4863 
L 1159 4863 
L 1159 2969 
z
" transform="scale(0.015625)"/>
       <path id="DejaVuSans-28" d="M 1984 4856 
Q 1566 4138 1362 3434 
Q 1159 2731 1159 2009 
Q 1159 1288 1364 580 
Q 1569 -128 1984 -844 
L 1484 -844 
Q 1016 -109 783 600 
Q 550 1309 550 2009 
Q 550 2706 781 3412 
Q 1013 4119 1484 4856 
L 1984 4856 
z
" transform="scale(0.015625)"/>
       <path id="DejaVuSans-75" d="M 544 1381 
L 544 3500 
L 1119 3500 
L 1119 1403 
Q 1119 906 1312 657 
Q 1506 409 1894 409 
Q 2359 409 2629 706 
Q 2900 1003 2900 1516 
L 2900 3500 
L 3475 3500 
L 3475 0 
L 2900 0 
L 2900 538 
Q 2691 219 2414 64 
Q 2138 -91 1772 -91 
Q 1169 -91 856 284 
Q 544 659 544 1381 
z
M 1991 3584 
L 1991 3584 
z
" transform="scale(0.015625)"/>
       <path id="DejaVuSans-6c" d="M 603 4863 
L 1178 4863 
L 1178 0 
L 603 0 
L 603 4863 
z
" transform="scale(0.015625)"/>
       <path id="DejaVuSans-69" d="M 603 3500 
L 1178 3500 
L 1178 0 
L 603 0 
L 603 3500 
z
M 603 4863 
L 1178 4863 
L 1178 4134 
L 603 4134 
L 603 4863 
z
" transform="scale(0.015625)"/>
       <path id="DejaVuSans-6d" d="M 3328 2828 
Q 3544 3216 3844 3400 
Q 4144 3584 4550 3584 
Q 5097 3584 5394 3201 
Q 5691 2819 5691 2113 
L 5691 0 
L 5113 0 
L 5113 2094 
Q 5113 2597 4934 2840 
Q 4756 3084 4391 3084 
Q 3944 3084 3684 2787 
Q 3425 2491 3425 1978 
L 3425 0 
L 2847 0 
L 2847 2094 
Q 2847 2600 2669 2842 
Q 2491 3084 2119 3084 
Q 1678 3084 1418 2786 
Q 1159 2488 1159 1978 
L 1159 0 
L 581 0 
L 581 3500 
L 1159 3500 
L 1159 2956 
Q 1356 3278 1631 3431 
Q 1906 3584 2284 3584 
Q 2666 3584 2933 3390 
Q 3200 3197 3328 2828 
z
" transform="scale(0.015625)"/>
       <path id="DejaVuSans-73" d="M 2834 3397 
L 2834 2853 
Q 2591 2978 2328 3040 
Q 2066 3103 1784 3103 
Q 1356 3103 1142 2972 
Q 928 2841 928 2578 
Q 928 2378 1081 2264 
Q 1234 2150 1697 2047 
L 1894 2003 
Q 2506 1872 2764 1633 
Q 3022 1394 3022 966 
Q 3022 478 2636 193 
Q 2250 -91 1575 -91 
Q 1294 -91 989 -36 
Q 684 19 347 128 
L 347 722 
Q 666 556 975 473 
Q 1284 391 1588 391 
Q 1994 391 2212 530 
Q 2431 669 2431 922 
Q 2431 1156 2273 1281 
Q 2116 1406 1581 1522 
L 1381 1569 
Q 847 1681 609 1914 
Q 372 2147 372 2553 
Q 372 3047 722 3315 
Q 1072 3584 1716 3584 
Q 2034 3584 2315 3537 
Q 2597 3491 2834 3397 
z
" transform="scale(0.015625)"/>
       <path id="DejaVuSans-29" d="M 513 4856 
L 1013 4856 
Q 1481 4119 1714 3412 
Q 1947 2706 1947 2009 
Q 1947 1309 1714 600 
Q 1481 -109 1013 -844 
L 513 -844 
Q 928 -128 1133 580 
Q 1338 1288 1338 2009 
Q 1338 2731 1133 3434 
Q 928 4138 513 4856 
z
" transform="scale(0.015625)"/>
      </defs>
      <use xlink:href="#DejaVuSans-61"/>
      <use xlink:href="#DejaVuSans-6e" transform="translate(61.279297 0)"/>
      <use xlink:href="#DejaVuSans-20" transform="translate(124.658203 0)"/>
      <use xlink:href="#DejaVuSans-3d" transform="translate(156.445312 0)"/>
      <use xlink:href="#DejaVuSans-20" transform="translate(240.234375 0)"/>
      <use xlink:href="#DejaVuSans-62" transform="translate(272.021484 0)"/>
      <use xlink:href="#DejaVuSans-6e" transform="translate(335.498047 0)"/>
      <use xlink:href="#DejaVuSans-20" transform="translate(398.876953 0)"/>
      <use xlink:href="#DejaVuSans-28" transform="translate(430.664062 0)"/>
      <use xlink:href="#DejaVuSans-75" transform="translate(469.677734 0)"/>
      <use xlink:href="#DejaVuSans-35" transform="translate(533.056641 0)"/>
      <use xlink:href="#DejaVuSans-32" transform="translate(596.679688 0)"/>
      <use xlink:href="#DejaVuSans-20" transform="translate(660.302734 0)"/>
      <use xlink:href="#DejaVuSans-6c" transform="translate(692.089844 0)"/>
      <use xlink:href="#DejaVuSans-69" transform="translate(719.873047 0)"/>
      <use xlink:href="#DejaVuSans-6d" transform="translate(747.65625 0)"/>
      <use xlink:href="#DejaVuSans-62" transform="translate(845.068359 0)"/>
      <use xlink:href="#DejaVuSans-73" transform="translate(908.544922 0)"/>
      <use xlink:href="#DejaVuSans-29" transform="translate(960.644531 0)"/>
     </g>
    </g>
   </g>
   <g id="matplotlib.axis_2">
    <g id="ytick_1">
     <g id="line2d_11">
      <path d="M 38.27 373.865555 
L 853.2 373.865555 
" clip-path="url(#pbfcb68db90)" style="fill: none; stroke: #b0b0b0; stroke-opacity: 0.25; stroke-width: 0.8; stroke-linecap: square"/>
     </g>
     <g id="line2d_12">
      <defs>
       <path id="m272116a960" d="M 0 0 
L -3.5 0 
" style="stroke: #000000; stroke-width: 0.8"/>
      </defs>
      <g>
       <use xlink:href="#m272116a960" x="38.27" y="373.865555" style="stroke: #000000; stroke-width: 0.8"/>
      </g>
     </g>
     <g id="text_7">
      <!-- 1 -->
      <g transform="translate(24.9075 377.664774) scale(0.1 -0.1)">
       <use xlink:href="#DejaVuSans-31"/>
      </g>
     </g>
    </g>
    <g id="ytick_2">
     <g id="line2d_13">
      <path d="M 38.27 319.760734 
L 853.2 319.760734 
" clip-path="url(#pbfcb68db90)" style="fill: none; stroke: #b0b0b0; stroke-opacity: 0.25; stroke-width: 0.8; stroke-linecap: square"/>
     </g>
     <g id="line2d_14">
      <g>
       <use xlink:href="#m272116a960" x="38.27" y="319.760734" style="stroke: #000000; stroke-width: 0.8"/>
      </g>
     </g>
     <g id="text_8">
      <!-- 2 -->
      <g transform="translate(24.9075 323.559953) scale(0.1 -0.1)">
       <use xlink:href="#DejaVuSans-32"/>
      </g>
     </g>
    </g>
    <g id="ytick_3">
     <g id="line2d_15">
      <path d="M 38.27 265.655913 
L 853.2 265.655913 
" clip-path="url(#pbfcb68db90)" style="fill: none; stroke: #b0b0b0; stroke-opacity: 0.25; stroke-width: 0.8; stroke-linecap: square"/>
     </g>
     <g id="line2d_16">
      <g>
       <use xlink:href="#m272116a960" x="38.27" y="265.655913" style="stroke: #000000; stroke-width: 0.8"/>
      </g>
     </g>
     <g id="text_9">
      <!-- 3 -->
      <g transform="translate(24.9075 269.455131) scale(0.1 -0.1)">
       <defs>
        <path id="DejaVuSans-33" d="M 2597 2516 
Q 3050 2419 3304 2112 
Q 3559 1806 3559 1356 
Q 3559 666 3084 287 
Q 2609 -91 1734 -91 
Q 1441 -91 1130 -33 
Q 819 25 488 141 
L 488 750 
Q 750 597 1062 519 
Q 1375 441 1716 441 
Q 2309 441 2620 675 
Q 2931 909 2931 1356 
Q 2931 1769 2642 2001 
Q 2353 2234 1838 2234 
L 1294 2234 
L 1294 2753 
L 1863 2753 
Q 2328 2753 2575 2939 
Q 2822 3125 2822 3475 
Q 2822 3834 2567 4026 
Q 2313 4219 1838 4219 
Q 1578 4219 1281 4162 
Q 984 4106 628 3988 
L 628 4550 
Q 988 4650 1302 4700 
Q 1616 4750 1894 4750 
Q 2613 4750 3031 4423 
Q 3450 4097 3450 3541 
Q 3450 3153 3228 2886 
Q 3006 2619 2597 2516 
z
" transform="scale(0.015625)"/>
       </defs>
       <use xlink:href="#DejaVuSans-33"/>
      </g>
     </g>
    </g>
    <g id="ytick_4">
     <g id="line2d_17">
      <path d="M 38.27 211.551091 
L 853.2 211.551091 
" clip-path="url(#pbfcb68db90)" style="fill: none; stroke: #b0b0b0; stroke-opacity: 0.25; stroke-width: 0.8; stroke-linecap: square"/>
     </g>
     <g id="line2d_18">
      <g>
       <use xlink:href="#m272116a960" x="38.27" y="211.551091" style="stroke: #000000; stroke-width: 0.8"/>
      </g>
     </g>
     <g id="text_10">
      <!-- 4 -->
      <g transform="translate(24.9075 215.35031) scale(0.1 -0.1)">
       <defs>
        <path id="DejaVuSans-34" d="M 2419 4116 
L 825 1625 
L 2419 1625 
L 2419 4116 
z
M 2253 4666 
L 3047 4666 
L 3047 1625 
L 3713 1625 
L 3713 1100 
L 3047 1100 
L 3047 0 
L 2419 0 
L 2419 1100 
L 313 1100 
L 313 1709 
L 2253 4666 
z
" transform="scale(0.015625)"/>
       </defs>
       <use xlink:href="#DejaVuSans-34"/>
      </g>
     </g>
    </g>
    <g id="ytick_5">
     <g id="line2d_19">
      <path d="M 38.27 157.44627 
L 853.2 157.44627 
" clip-path="url(#pbfcb68db90)" style="fill: none; stroke: #b0b0b0; stroke-opacity: 0.25; stroke-width: 0.8; stroke-linecap: square"/>
     </g>
     <g id="line2d_20">
      <g>
       <use xlink:href="#m272116a960" x="38.27" y="157.44627" style="stroke: #000000; stroke-width: 0.8"/>
      </g>
     </g>
     <g id="text_11">
      <!-- 5 -->
      <g transform="translate(24.9075 161.245489) scale(0.1 -0.1)">
       <use xlink:href="#DejaVuSans-35"/>
      </g>
     </g>
    </g>
    <g id="ytick_6">
     <g id="line2d_21">
      <path d="M 38.27 103.341449 
L 853.2 103.341449 
" clip-path="url(#pbfcb68db90)" style="fill: none; stroke: #b0b0b0; stroke-opacity: 0.25; stroke-width: 0.8; stroke-linecap: square"/>
     </g>
     <g id="line2d_22">
      <g>
       <use xlink:href="#m272116a960" x="38.27" y="103.341449" style="stroke: #000000; stroke-width: 0.8"/>
      </g>
     </g>
     <g id="text_12">
      <!-- 6 -->
      <g transform="translate(24.9075 107.140667) scale(0.1 -0.1)">
       <defs>
        <path id="DejaVuSans-36" d="M 2113 2584 
Q 1688 2584 1439 2293 
Q 1191 2003 1191 1497 
Q 1191 994 1439 701 
Q 1688 409 2113 409 
Q 2538 409 2786 701 
Q 3034 994 3034 1497 
Q 3034 2003 2786 2293 
Q 2538 2584 2113 2584 
z
M 3366 4563 
L 3366 3988 
Q 3128 4100 2886 4159 
Q 2644 4219 2406 4219 
Q 1781 4219 1451 3797 
Q 1122 3375 1075 2522 
Q 1259 2794 1537 2939 
Q 1816 3084 2150 3084 
Q 2853 3084 3261 2657 
Q 3669 2231 3669 1497 
Q 3669 778 3244 343 
Q 2819 -91 2113 -91 
Q 1303 -91 875 529 
Q 447 1150 447 2328 
Q 447 3434 972 4092 
Q 1497 4750 2381 4750 
Q 2619 4750 2861 4703 
Q 3103 4656 3366 4563 
z
" transform="scale(0.015625)"/>
       </defs>
       <use xlink:href="#DejaVuSans-36"/>
      </g>
     </g>
    </g>
    <g id="ytick_7">
     <g id="line2d_23">
      <path d="M 38.27 49.236627 
L 853.2 49.236627 
" clip-path="url(#pbfcb68db90)" style="fill: none; stroke: #b0b0b0; stroke-opacity: 0.25; stroke-width: 0.8; stroke-linecap: square"/>
     </g>
     <g id="line2d_24">
      <g>
       <use xlink:href="#m272116a960" x="38.27" y="49.236627" style="stroke: #000000; stroke-width: 0.8"/>
      </g>
     </g>
     <g id="text_13">
      <!-- 7 -->
      <g transform="translate(24.9075 53.035846) scale(0.1 -0.1)">
       <defs>
        <path id="DejaVuSans-37" d="M 525 4666 
L 3525 4666 
L 3525 4397 
L 1831 0 
L 1172 0 
L 2766 4134 
L 525 4134 
L 525 4666 
z
" transform="scale(0.015625)"/>
       </defs>
       <use xlink:href="#DejaVuSans-37"/>
      </g>
     </g>
    </g>
    <g id="text_14">
     <!-- ns / limb -->
     <g transform="translate(18.827813 229.198594) rotate(-90) scale(0.1 -0.1)">
      <defs>
       <path id="DejaVuSans-2f" d="M 1625 4666 
L 2156 4666 
L 531 -594 
L 0 -594 
L 1625 4666 
z
" transform="scale(0.015625)"/>
      </defs>
      <use xlink:href="#DejaVuSans-6e"/>
      <use xlink:href="#DejaVuSans-73" transform="translate(63.378906 0)"/>
      <use xlink:href="#DejaVuSans-20" transform="translate(115.478516 0)"/>
      <use xlink:href="#DejaVuSans-2f" transform="translate(147.265625 0)"/>
      <use xlink:href="#DejaVuSans-20" transform="translate(180.957031 0)"/>
      <use xlink:href="#DejaVuSans-6c" transform="translate(212.744141 0)"/>
      <use xlink:href="#DejaVuSans-69" transform="translate(240.527344 0)"/>
      <use xlink:href="#DejaVuSans-6d" transform="translate(268.310547 0)"/>
      <use xlink:href="#DejaVuSans-62" transform="translate(365.722656 0)"/>
     </g>
    </g>
   </g>
   <g id="line2d_25">
    <path d="M 75.312273 373.467273 
L 78.619619 370.287636 
L 81.926964 368.025341 
L 85.23431 367.328752 
L 88.541656 364.563036 
L 91.849002 364.768681 
L 95.156347 363.409959 
L 98.463693 362.291361 
L 101.771039 361.516339 
L 105.078385 359.922114 
L 108.385731 357.406076 
L 111.693076 357.037574 
L 115.000422 355.166687 
L 118.307768 354.432995 
L 121.615114 352.757042 
L 124.922459 351.956356 
L 128.229805 350.522839 
L 131.537151 348.774584 
L 134.844497 346.44093 
L 138.151843 345.830452 
L 141.459188 343.89582 
L 144.766534 343.328527 
L 148.07388 341.589675 
L 157.995917 337.790145 
L 161.303263 335.835561 
L 164.610609 335.249959 
L 167.917955 332.99711 
L 171.2253 332.439563 
L 174.532646 330.225597 
L 177.839992 329.195702 
L 181.147338 327.791985 
L 184.454683 326.260872 
L 187.762029 324.17004 
L 191.069375 323.69816 
L 194.376721 321.460022 
L 197.684067 320.805619 
L 200.991412 318.808982 
L 204.298758 317.95001 
L 210.91345 314.857918 
L 214.220795 312.519355 
L 217.528141 312.057128 
L 220.835487 309.832487 
L 224.142833 309.360007 
L 227.450179 307.328636 
L 230.757524 306.418531 
L 234.06487 304.704459 
L 237.372216 303.160013 
L 240.679562 301.069922 
L 243.986907 300.409161 
L 247.294253 298.154881 
L 250.601599 297.5542 
L 253.908945 295.215814 
L 257.216291 294.641805 
L 260.523636 293.155258 
L 263.830982 291.835799 
L 267.138328 289.887883 
L 270.445674 289.213074 
L 273.753019 287.059715 
L 277.060365 286.26614 
L 280.367711 283.909383 
L 283.675057 283.429308 
L 286.982403 281.578652 
L 290.289748 280.008352 
L 293.597094 277.604661 
L 296.90444 277.532762 
L 300.211786 274.865344 
L 303.519131 274.487674 
L 306.826477 272.163949 
L 310.133823 271.260877 
L 313.441169 269.156967 
L 316.748515 267.894071 
L 320.05586 265.707604 
L 323.363206 265.400489 
L 326.670552 262.858607 
L 329.977898 262.965098 
L 333.285244 260.160249 
L 336.592589 259.527635 
L 339.899935 257.653105 
L 343.207281 256.593364 
L 346.514627 254.34968 
L 349.821972 253.804623 
L 353.129318 251.265042 
L 356.436664 251.078421 
L 359.74401 248.475674 
L 363.051356 247.867727 
L 369.666047 244.560422 
L 372.973393 242.533123 
L 376.280739 242.303495 
L 379.588084 239.514189 
L 382.89543 239.48496 
L 386.202776 236.918704 
L 389.510122 235.856888 
L 392.817468 234.481979 
L 396.124813 232.562181 
L 399.432159 230.501442 
L 402.739505 230.711556 
L 406.046851 228.029053 
L 409.354196 227.647505 
L 412.661542 224.708616 
L 415.968888 223.997908 
L 419.276234 222.474464 
L 422.58358 221.672159 
L 425.890925 219.701508 
L 429.198271 218.872758 
L 432.505617 216.068019 
L 435.812963 215.307759 
L 439.120308 212.996172 
L 442.427654 211.940625 
L 445.735 210.276921 
L 449.042346 208.782883 
L 452.349692 206.295687 
L 455.657037 206.093009 
L 458.964383 203.738459 
L 462.271729 203.403296 
L 465.579075 200.943157 
L 468.88642 200.523372 
L 472.193766 198.147397 
L 475.501112 197.328684 
L 478.808458 195.152083 
L 482.115804 194.831018 
L 485.423149 192.042141 
L 488.730495 192.336838 
L 492.037841 189.492216 
L 498.652532 187.153166 
L 501.959878 185.603461 
L 505.267224 183.376513 
L 508.57457 182.788384 
L 511.881916 180.754002 
L 515.189261 179.99292 
L 518.496607 177.420999 
L 525.111299 175.343332 
L 528.418644 173.414273 
L 531.72599 171.257756 
L 535.033336 171.291946 
L 538.340682 168.936784 
L 541.648028 168.250144 
L 544.955373 165.764456 
L 548.262719 164.210778 
L 551.570065 163.031893 
L 554.877411 162.18497 
L 558.184756 158.772151 
L 561.492102 159.044728 
L 564.799448 156.992506 
L 568.106794 156.360882 
L 571.41414 153.500398 
L 574.721485 152.389037 
L 578.028831 151.462027 
L 581.336177 149.654393 
L 584.643523 147.656319 
L 587.950869 147.283906 
L 591.258214 145.23555 
L 594.56556 144.821812 
L 597.872906 141.683621 
L 601.180252 141.074026 
L 604.487597 138.972172 
L 607.794943 138.159317 
L 611.102289 135.246947 
L 614.409635 135.231494 
L 617.716981 132.711618 
L 621.024326 132.82352 
L 624.331672 129.939491 
L 627.639018 128.931695 
L 630.946364 127.063628 
L 634.253709 126.003691 
L 637.561055 124.223325 
L 640.868401 123.600251 
L 644.175747 119.987669 
L 647.483093 120.925923 
L 650.790438 117.784654 
L 657.40513 115.824707 
L 660.712476 113.715107 
L 664.019821 110.279798 
L 667.327167 111.650668 
L 670.634513 108.194294 
L 673.941859 109.517781 
L 677.249205 105.859889 
L 680.55655 105.101088 
L 687.171242 101.45242 
L 690.478588 99.338118 
L 693.785933 99.631724 
L 697.093279 96.035761 
L 700.400625 97.021642 
L 703.707971 93.872531 
L 707.015317 92.274695 
L 710.322662 91.491145 
L 713.630008 90.070514 
L 716.937354 86.992296 
L 720.2447 87.458404 
L 723.552045 84.696825 
L 726.859391 83.844539 
L 730.166737 81.703196 
L 733.474083 81.100383 
L 736.781429 78.943195 
L 740.088774 77.780662 
L 743.39612 74.270549 
L 746.703466 75.738753 
L 750.010812 72.498534 
L 753.318157 73.350267 
L 756.625503 69.809862 
L 763.240195 67.896773 
L 766.547541 64.71081 
L 769.854886 63.4509 
L 773.162232 63.523646 
L 776.469578 60.234936 
L 779.776924 60.941662 
L 783.084269 57.479404 
L 786.391615 56.876899 
L 793.006307 52.268542 
L 796.313653 51.718435 
L 799.620998 50.046713 
L 802.928344 47.38837 
L 806.23569 48.857341 
L 809.543036 45.300946 
L 812.850381 43.926623 
L 816.157727 42.012727 
L 816.157727 42.012727 
" clip-path="url(#pbfcb68db90)" style="fill: none; stroke: #1f77b4; stroke-width: 1.6; stroke-linecap: square"/>
   </g>
   <g id="line2d_26">
    <path d="M 75.312273 331.384559 
L 78.619619 331.513557 
L 81.926964 315.66719 
L 85.23431 314.131236 
L 88.541656 316.492139 
L 91.849002 310.473078 
L 95.156347 317.643992 
L 98.463693 319.364982 
L 101.771039 321.814991 
L 105.078385 317.673231 
L 108.385731 317.626805 
L 111.693076 312.882394 
L 115.000422 312.250681 
L 118.307768 314.937863 
L 121.615114 317.404741 
L 124.922459 320.092226 
L 128.229805 333.649679 
L 131.537151 332.622245 
L 134.844497 314.563195 
L 138.151843 318.482486 
L 141.459188 315.377108 
L 144.766534 316.198346 
L 148.07388 316.43965 
L 151.381226 319.328979 
L 154.688571 317.04689 
L 157.995917 314.97329 
L 161.303263 313.236343 
L 164.610609 310.152951 
L 167.917955 312.778644 
L 171.2253 313.054598 
L 174.532646 311.230374 
L 177.839992 316.100965 
L 181.147338 324.827289 
L 184.454683 322.778258 
L 187.762029 313.494434 
L 191.069375 311.350571 
L 194.376721 308.953665 
L 197.684067 308.467097 
L 200.991412 310.047945 
L 204.298758 309.195028 
L 207.606104 305.45747 
L 210.91345 307.962626 
L 214.220795 306.49318 
L 217.528141 302.960954 
L 220.835487 302.001545 
L 224.142833 302.08394 
L 227.450179 302.620925 
L 230.757524 304.442339 
L 234.06487 307.917953 
L 237.372216 309.857681 
L 240.679562 301.491099 
L 243.986907 298.984418 
L 247.294253 297.115459 
L 250.601599 294.73459 
L 253.908945 296.17501 
L 257.216291 294.481683 
L 260.523636 295.689743 
L 263.830982 296.023911 
L 267.138328 294.015607 
L 270.445674 293.644753 
L 273.753019 293.065818 
L 277.060365 290.664446 
L 280.367711 290.67753 
L 283.675057 292.217578 
L 286.982403 294.92959 
L 290.289748 295.382322 
L 293.597094 285.929055 
L 296.90444 286.416437 
L 300.211786 284.27437 
L 303.519131 283.429646 
L 306.826477 284.125859 
L 310.133823 284.041046 
L 316.748515 280.97132 
L 320.05586 279.790517 
L 323.363206 277.613555 
L 326.670552 275.026746 
L 329.977898 275.601652 
L 333.285244 273.660802 
L 336.592589 276.033655 
L 339.899935 279.281901 
L 343.207281 277.929049 
L 346.514627 266.630699 
L 349.821972 267.48735 
L 353.129318 266.123409 
L 356.436664 264.145148 
L 359.74401 263.4154 
L 363.051356 262.808458 
L 366.358701 264.247803 
L 369.666047 265.163271 
L 372.973393 261.492502 
L 376.280739 259.522103 
L 379.588084 255.669497 
L 382.89543 258.50596 
L 386.202776 256.175692 
L 389.510122 257.925685 
L 392.817468 263.58349 
L 396.124813 263.543317 
L 399.432159 255.5053 
L 402.739505 253.753056 
L 406.046851 252.226096 
L 409.354196 253.856078 
L 412.661542 253.985555 
L 415.968888 250.515495 
L 419.276234 249.485759 
L 422.58358 250.875348 
L 429.198271 245.877971 
L 432.505617 241.468283 
L 435.812963 245.769949 
L 439.120308 245.369764 
L 442.427654 243.477768 
L 445.735 246.905403 
L 449.042346 247.144293 
L 452.349692 241.901697 
L 455.657037 238.270074 
L 458.964383 235.589949 
L 462.271729 237.426153 
L 465.579075 237.609047 
L 468.88642 236.297135 
L 472.193766 235.547218 
L 475.501112 234.136143 
L 478.808458 233.808622 
L 482.115804 230.702001 
L 485.423149 228.873083 
L 488.730495 229.71773 
L 492.037841 229.690401 
L 495.345187 228.175457 
L 498.652532 230.512983 
L 501.959878 229.864502 
L 505.267224 221.52848 
L 508.57457 219.737073 
L 511.881916 216.419751 
L 515.189261 217.894271 
L 518.496607 216.925889 
L 521.803953 216.385495 
L 525.111299 216.409186 
L 528.418644 216.985193 
L 531.72599 212.050239 
L 535.033336 213.379937 
L 538.340682 210.924568 
L 541.648028 211.469168 
L 544.955373 210.697138 
L 548.262719 210.059892 
L 551.570065 211.761004 
L 554.877411 212.949734 
L 558.184756 206.779042 
L 561.492102 205.388674 
L 564.799448 201.440704 
L 568.106794 204.254793 
L 571.41414 202.941381 
L 574.721485 202.222342 
L 578.028831 202.191312 
L 581.336177 200.382833 
L 584.643523 197.392392 
L 591.258214 195.733622 
L 594.56556 194.06504 
L 597.872906 192.855453 
L 601.180252 193.013282 
L 604.487597 194.430134 
L 607.794943 194.854052 
L 611.102289 190.810784 
L 614.409635 188.6905 
L 617.716981 188.004197 
L 621.024326 186.336484 
L 624.331672 185.907499 
L 627.639018 184.250749 
L 630.946364 179.59182 
L 634.253709 183.846279 
L 637.561055 182.376069 
L 640.868401 179.856572 
L 644.175747 177.708724 
L 647.483093 176.517253 
L 650.790438 176.681984 
L 654.097784 174.539954 
L 657.40513 178.097887 
L 660.712476 178.557109 
L 664.019821 172.665454 
L 667.327167 170.168091 
L 670.634513 165.835652 
L 673.941859 169.009395 
L 677.249205 169.769489 
L 680.55655 167.225029 
L 683.863896 164.146577 
L 687.171242 166.444521 
L 690.478588 165.701982 
L 693.785933 162.796006 
L 697.093279 158.659661 
L 700.400625 160.26417 
L 703.707971 161.351384 
L 707.015317 159.031879 
L 710.322662 161.894035 
L 713.630008 161.376649 
L 716.937354 155.217741 
L 720.2447 154.008947 
L 723.552045 150.213507 
L 726.859391 152.397916 
L 730.166737 150.262127 
L 733.474083 150.430283 
L 736.781429 148.599034 
L 740.088774 149.302219 
L 743.39612 147.980446 
L 746.703466 145.857799 
L 750.010812 142.448177 
L 753.318157 144.03008 
L 756.625503 141.106462 
L 759.932849 142.655732 
L 763.240195 143.807158 
L 766.547541 143.270452 
L 769.854886 138.74265 
L 773.162232 137.762688 
L 776.469578 134.278232 
L 783.084269 135.874118 
L 786.391615 133.413199 
L 789.698961 131.971267 
L 793.006307 131.243331 
L 799.620998 126.747022 
L 802.928344 125.565275 
L 806.23569 124.596088 
L 809.543036 122.984865 
L 812.850381 122.98559 
L 816.157727 126.638448 
L 816.157727 126.638448 
" clip-path="url(#pbfcb68db90)" style="fill: none; stroke: #ff7f0e; stroke-width: 1.8; stroke-linecap: square"/>
   </g>
   <g id="patch_3">
    <path d="M 38.27 390.04 
L 38.27 25.44 
" style="fill: none; stroke: #000000; stroke-width: 0.8; stroke-linejoin: miter; stroke-linecap: square"/>
   </g>
   <g id="patch_4">
    <path d="M 853.2 390.04 
L 853.2 25.44 
" style="fill: none; stroke: #000000; stroke-width: 0.8; stroke-linejoin: miter; stroke-linecap: square"/>
   </g>
   <g id="patch_5">
    <path d="M 38.27 390.04 
L 853.2 390.04 
" style="fill: none; stroke: #000000; stroke-width: 0.8; stroke-linejoin: miter; stroke-linecap: square"/>
   </g>
   <g id="patch_6">
    <path d="M 38.27 25.44 
L 853.2 25.44 
" style="fill: none; stroke: #000000; stroke-width: 0.8; stroke-linejoin: miter; stroke-linecap: square"/>
   </g>
   <g id="text_15">
    <!-- u52 multiplication: basecase vs one-level Karatsuba -->
    <g transform="translate(289.008438 19.44) scale(0.12 -0.12)">
     <defs>
      <path id="DejaVuSans-74" d="M 1172 4494 
L 1172 3500 
L 2356 3500 
L 2356 3053 
L 1172 3053 
L 1172 1153 
Q 1172 725 1289 603 
Q 1406 481 1766 481 
L 2356 481 
L 2356 0 
L 1766 0 
Q 1100 0 847 248 
Q 594 497 594 1153 
L 594 3053 
L 172 3053 
L 172 3500 
L 594 3500 
L 594 4494 
L 1172 4494 
z
" transform="scale(0.015625)"/>
      <path id="DejaVuSans-70" d="M 1159 525 
L 1159 -1331 
L 581 -1331 
L 581 3500 
L 1159 3500 
L 1159 2969 
Q 1341 3281 1617 3432 
Q 1894 3584 2278 3584 
Q 2916 3584 3314 3078 
Q 3713 2572 3713 1747 
Q 3713 922 3314 415 
Q 2916 -91 2278 -91 
Q 1894 -91 1617 61 
Q 1341 213 1159 525 
z
M 3116 1747 
Q 3116 2381 2855 2742 
Q 2594 3103 2138 3103 
Q 1681 3103 1420 2742 
Q 1159 2381 1159 1747 
Q 1159 1113 1420 752 
Q 1681 391 2138 391 
Q 2594 391 2855 752 
Q 3116 1113 3116 1747 
z
" transform="scale(0.015625)"/>
      <path id="DejaVuSans-63" d="M 3122 3366 
L 3122 2828 
Q 2878 2963 2633 3030 
Q 2388 3097 2138 3097 
Q 1578 3097 1268 2742 
Q 959 2388 959 1747 
Q 959 1106 1268 751 
Q 1578 397 2138 397 
Q 2388 397 2633 464 
Q 2878 531 3122 666 
L 3122 134 
Q 2881 22 2623 -34 
Q 2366 -91 2075 -91 
Q 1284 -91 818 406 
Q 353 903 353 1747 
Q 353 2603 823 3093 
Q 1294 3584 2113 3584 
Q 2378 3584 2631 3529 
Q 2884 3475 3122 3366 
z
" transform="scale(0.015625)"/>
      <path id="DejaVuSans-6f" d="M 1959 3097 
Q 1497 3097 1228 2736 
Q 959 2375 959 1747 
Q 959 1119 1226 758 
Q 1494 397 1959 397 
Q 2419 397 2687 759 
Q 2956 1122 2956 1747 
Q 2956 2369 2687 2733 
Q 2419 3097 1959 3097 
z
M 1959 3584 
Q 2709 3584 3137 3096 
Q 3566 2609 3566 1747 
Q 3566 888 3137 398 
Q 2709 -91 1959 -91 
Q 1206 -91 779 398 
Q 353 888 353 1747 
Q 353 2609 779 3096 
Q 1206 3584 1959 3584 
z
" transform="scale(0.015625)"/>
      <path id="DejaVuSans-3a" d="M 750 794 
L 1409 794 
L 1409 0 
L 750 0 
L 750 794 
z
M 750 3309 
L 1409 3309 
L 1409 2516 
L 750 2516 
L 750 3309 
z
" transform="scale(0.015625)"/>
      <path id="DejaVuSans-65" d="M 3597 1894 
L 3597 1613 
L 953 1613 
Q 991 1019 1311 708 
Q 1631 397 2203 397 
Q 2534 397 2845 478 
Q 3156 559 3463 722 
L 3463 178 
Q 3153 47 2828 -22 
Q 2503 -91 2169 -91 
Q 1331 -91 842 396 
Q 353 884 353 1716 
Q 353 2575 817 3079 
Q 1281 3584 2069 3584 
Q 2775 3584 3186 3129 
Q 3597 2675 3597 1894 
z
M 3022 2063 
Q 3016 2534 2758 2815 
Q 2500 3097 2075 3097 
Q 1594 3097 1305 2825 
Q 1016 2553 972 2059 
L 3022 2063 
z
" transform="scale(0.015625)"/>
      <path id="DejaVuSans-76" d="M 191 3500 
L 800 3500 
L 1894 563 
L 2988 3500 
L 3597 3500 
L 2284 0 
L 1503 0 
L 191 3500 
z
" transform="scale(0.015625)"/>
      <path id="DejaVuSans-2d" d="M 313 2009 
L 1997 2009 
L 1997 1497 
L 313 1497 
L 313 2009 
z
" transform="scale(0.015625)"/>
      <path id="DejaVuSans-4b" d="M 628 4666 
L 1259 4666 
L 1259 2694 
L 3353 4666 
L 4166 4666 
L 1850 2491 
L 4331 0 
L 3500 0 
L 1259 2247 
L 1259 0 
L 628 0 
L 628 4666 
z
" transform="scale(0.015625)"/>
      <path id="DejaVuSans-72" d="M 2631 2963 
Q 2534 3019 2420 3045 
Q 2306 3072 2169 3072 
Q 1681 3072 1420 2755 
Q 1159 2438 1159 1844 
L 1159 0 
L 581 0 
L 581 3500 
L 1159 3500 
L 1159 2956 
Q 1341 3275 1631 3429 
Q 1922 3584 2338 3584 
Q 2397 3584 2469 3576 
Q 2541 3569 2628 3553 
L 2631 2963 
z
" transform="scale(0.015625)"/>
     </defs>
     <use xlink:href="#DejaVuSans-75"/>
     <use xlink:href="#DejaVuSans-35" transform="translate(63.378906 0)"/>
     <use xlink:href="#DejaVuSans-32" transform="translate(127.001953 0)"/>
     <use xlink:href="#DejaVuSans-20" transform="translate(190.625 0)"/>
     <use xlink:href="#DejaVuSans-6d" transform="translate(222.412109 0)"/>
     <use xlink:href="#DejaVuSans-75" transform="translate(319.824219 0)"/>
     <use xlink:href="#DejaVuSans-6c" transform="translate(383.203125 0)"/>
     <use xlink:href="#DejaVuSans-74" transform="translate(410.986328 0)"/>
     <use xlink:href="#DejaVuSans-69" transform="translate(450.195312 0)"/>
     <use xlink:href="#DejaVuSans-70" transform="translate(477.978516 0)"/>
     <use xlink:href="#DejaVuSans-6c" transform="translate(541.455078 0)"/>
     <use xlink:href="#DejaVuSans-69" transform="translate(569.238281 0)"/>
     <use xlink:href="#DejaVuSans-63" transform="translate(597.021484 0)"/>
     <use xlink:href="#DejaVuSans-61" transform="translate(652.001953 0)"/>
     <use xlink:href="#DejaVuSans-74" transform="translate(713.28125 0)"/>
     <use xlink:href="#DejaVuSans-69" transform="translate(752.490234 0)"/>
     <use xlink:href="#DejaVuSans-6f" transform="translate(780.273438 0)"/>
     <use xlink:href="#DejaVuSans-6e" transform="translate(841.455078 0)"/>
     <use xlink:href="#DejaVuSans-3a" transform="translate(904.833984 0)"/>
     <use xlink:href="#DejaVuSans-20" transform="translate(938.525391 0)"/>
     <use xlink:href="#DejaVuSans-62" transform="translate(970.3125 0)"/>
     <use xlink:href="#DejaVuSans-61" transform="translate(1033.789062 0)"/>
     <use xlink:href="#DejaVuSans-73" transform="translate(1095.068359 0)"/>
     <use xlink:href="#DejaVuSans-65" transform="translate(1147.167969 0)"/>
     <use xlink:href="#DejaVuSans-63" transform="translate(1208.691406 0)"/>
     <use xlink:href="#DejaVuSans-61" transform="translate(1263.671875 0)"/>
     <use xlink:href="#DejaVuSans-73" transform="translate(1324.951172 0)"/>
     <use xlink:href="#DejaVuSans-65" transform="translate(1377.050781 0)"/>
     <use xlink:href="#DejaVuSans-20" transform="translate(1438.574219 0)"/>
     <use xlink:href="#DejaVuSans-76" transform="translate(1470.361328 0)"/>
     <use xlink:href="#DejaVuSans-73" transform="translate(1529.541016 0)"/>
     <use xlink:href="#DejaVuSans-20" transform="translate(1581.640625 0)"/>
     <use xlink:href="#DejaVuSans-6f" transform="translate(1613.427734 0)"/>
     <use xlink:href="#DejaVuSans-6e" transform="translate(1674.609375 0)"/>
     <use xlink:href="#DejaVuSans-65" transform="translate(1737.988281 0)"/>
     <use xlink:href="#DejaVuSans-2d" transform="translate(1799.511719 0)"/>
     <use xlink:href="#DejaVuSans-6c" transform="translate(1835.595703 0)"/>
     <use xlink:href="#DejaVuSans-65" transform="translate(1863.378906 0)"/>
     <use xlink:href="#DejaVuSans-76" transform="translate(1924.902344 0)"/>
     <use xlink:href="#DejaVuSans-65" transform="translate(1984.082031 0)"/>
     <use xlink:href="#DejaVuSans-6c" transform="translate(2045.605469 0)"/>
     <use xlink:href="#DejaVuSans-20" transform="translate(2073.388672 0)"/>
     <use xlink:href="#DejaVuSans-4b" transform="translate(2105.175781 0)"/>
     <use xlink:href="#DejaVuSans-61" transform="translate(2169.001953 0)"/>
     <use xlink:href="#DejaVuSans-72" transform="translate(2230.28125 0)"/>
     <use xlink:href="#DejaVuSans-61" transform="translate(2271.394531 0)"/>
     <use xlink:href="#DejaVuSans-74" transform="translate(2332.673828 0)"/>
     <use xlink:href="#DejaVuSans-73" transform="translate(2371.882812 0)"/>
     <use xlink:href="#DejaVuSans-75" transform="translate(2423.982422 0)"/>
     <use xlink:href="#DejaVuSans-62" transform="translate(2487.361328 0)"/>
     <use xlink:href="#DejaVuSans-61" transform="translate(2550.837891 0)"/>
    </g>
   </g>
   <g id="legend_1">
    <g id="patch_7">
     <path d="M 45.27 62.79625 
L 164.12625 62.79625 
Q 166.12625 62.79625 166.12625 60.79625 
L 166.12625 32.44 
Q 166.12625 30.44 164.12625 30.44 
L 45.27 30.44 
Q 43.27 30.44 43.27 32.44 
L 43.27 60.79625 
Q 43.27 62.79625 45.27 62.79625 
z
" style="fill: #ffffff; opacity: 0.8; stroke: #cccccc; stroke-linejoin: miter"/>
    </g>
    <g id="line2d_27">
     <path d="M 47.27 38.538437 
L 57.27 38.538437 
L 67.27 38.538437 
" style="fill: none; stroke: #1f77b4; stroke-width: 1.6; stroke-linecap: square"/>
    </g>
    <g id="text_16">
     <!-- basecase -->
     <g transform="translate(75.27 42.038437) scale(0.1 -0.1)">
      <use xlink:href="#DejaVuSans-62"/>
      <use xlink:href="#DejaVuSans-61" transform="translate(63.476562 0)"/>
      <use xlink:href="#DejaVuSans-73" transform="translate(124.755859 0)"/>
      <use xlink:href="#DejaVuSans-65" transform="translate(176.855469 0)"/>
      <use xlink:href="#DejaVuSans-63" transform="translate(238.378906 0)"/>
      <use xlink:href="#DejaVuSans-61" transform="translate(293.359375 0)"/>
      <use xlink:href="#DejaVuSans-73" transform="translate(354.638672 0)"/>
      <use xlink:href="#DejaVuSans-65" transform="translate(406.738281 0)"/>
     </g>
    </g>
    <g id="line2d_28">
     <path d="M 47.27 53.216563 
L 57.27 53.216563 
L 67.27 53.216563 
" style="fill: none; stroke: #ff7f0e; stroke-width: 1.8; stroke-linecap: square"/>
    </g>
    <g id="text_17">
     <!-- 1-level karatsuba -->
     <g transform="translate(75.27 56.716563) scale(0.1 -0.1)">
      <defs>
       <path id="DejaVuSans-6b" d="M 581 4863 
L 1159 4863 
L 1159 1991 
L 2875 3500 
L 3609 3500 
L 1753 1863 
L 3688 0 
L 2938 0 
L 1159 1709 
L 1159 0 
L 581 0 
L 581 4863 
z
" transform="scale(0.015625)"/>
      </defs>
      <use xlink:href="#DejaVuSans-31"/>
      <use xlink:href="#DejaVuSans-2d" transform="translate(63.623047 0)"/>
      <use xlink:href="#DejaVuSans-6c" transform="translate(99.707031 0)"/>
      <use xlink:href="#DejaVuSans-65" transform="translate(127.490234 0)"/>
      <use xlink:href="#DejaVuSans-76" transform="translate(189.013672 0)"/>
      <use xlink:href="#DejaVuSans-65" transform="translate(248.193359 0)"/>
      <use xlink:href="#DejaVuSans-6c" transform="translate(309.716797 0)"/>
      <use xlink:href="#DejaVuSans-20" transform="translate(337.5 0)"/>
      <use xlink:href="#DejaVuSans-6b" transform="translate(369.287109 0)"/>
      <use xlink:href="#DejaVuSans-61" transform="translate(425.447266 0)"/>
      <use xlink:href="#DejaVuSans-72" transform="translate(486.726562 0)"/>
      <use xlink:href="#DejaVuSans-61" transform="translate(527.839844 0)"/>
      <use xlink:href="#DejaVuSans-74" transform="translate(589.119141 0)"/>
      <use xlink:href="#DejaVuSans-73" transform="translate(628.328125 0)"/>
      <use xlink:href="#DejaVuSans-75" transform="translate(680.427734 0)"/>
      <use xlink:href="#DejaVuSans-62" transform="translate(743.806641 0)"/>
      <use xlink:href="#DejaVuSans-61" transform="translate(807.283203 0)"/>
     </g>
    </g>
   </g>
  </g>
 </g>
 <defs>
  <clipPath id="pbfcb68db90">
   <rect x="38.27" y="25.44" width="814.93" height="364.6"/>
  </clipPath>
 </defs>
</svg>
