<?xml version="1.0" encoding="utf-8" standalone="no"?>
<!DOCTYPE svg PUBLIC "-//W3C//DTD SVG 1.1//EN"
  "http://www.w3.org/Graphics/SVG/1.1/DTD/svg11.dtd">
<svg xmlns:xlink="http://www.w3.org/1999/xlink" width="864pt" height="504pt" viewBox="0 0 864 504" xmlns="http://www.w3.org/2000/svg" version="1.1">
 <metadata>
  <rdf:RDF xmlns:dc="http://purl.org/dc/elements/1.1/" xmlns:cc="http://creativecommons.org/ns#" xmlns:rdf="http://www.w3.org/1999/02/22-rdf-syntax-ns#">
   <cc:Work>
    <dc:type rdf:resource="http://purl.org/dc/dcmitype/StillImage"/>
    <dc:date>2026-06-04T01:43:32.673486</dc:date>
    <dc:format>image/svg+xml</dc:format>
    <dc:creator>
     <cc:Agent>
      <dc:title>Matplotlib v3.9.2, https://matplotlib.org/</dc:title>
     </cc:Agent>
    </dc:creator>
   </cc:Work>
  </rdf:RDF>
 </metadata>
 <defs>
  <style type="text/css">*{stroke-linejoin: round; stroke-linecap: butt}</style>
 </defs>
 <g id="figure_1">
  <g id="patch_1">
   <path d="M 0 504 
L 864 504 
L 864 0 
L 0 0 
z
" style="fill: #ffffff"/>
  </g>
  <g id="axes_1">
   <g id="patch_2">
    <path d="M 54.30125 462.04 
L 853.2 462.04 
L 853.2 25.44 
L 54.30125 25.44 
z
" style="fill: #ffffff"/>
   </g>
   <g id="matplotlib.axis_1">
    <g id="xtick_1">
     <g id="line2d_1">
      <path d="M 185.345907 462.04 
L 185.345907 25.44 
" clip-path="url(#pcf187f9858)" style="fill: none; stroke: #b0b0b0; stroke-opacity: 0.25; stroke-width: 0.8; stroke-linecap: square"/>
     </g>
     <g id="line2d_2">
      <defs>
       <path id="m69294ee28a" d="M 0 0 
L 0 3.5 
" style="stroke: #000000; stroke-width: 0.8"/>
      </defs>
      <g>
       <use xlink:href="#m69294ee28a" x="185.345907" y="462.04" style="stroke: #000000; stroke-width: 0.8"/>
      </g>
     </g>
     <g id="text_1">
      <!-- 20 -->
      <g transform="translate(178.983407 476.638438) scale(0.1 -0.1)">
       <defs>
        <path id="DejaVuSans-32" d="M 1228 531 
L 3431 531 
L 3431 0 
L 469 0 
L 469 531 
Q 828 903 1448 1529 
Q 2069 2156 2228 2338 
Q 2531 2678 2651 2914 
Q 2772 3150 2772 3378 
Q 2772 3750 2511 3984 
Q 2250 4219 1831 4219 
Q 1534 4219 1204 4116 
Q 875 4013 500 3803 
L 500 4441 
Q 881 4594 1212 4672 
Q 1544 4750 1819 4750 
Q 2544 4750 2975 4387 
Q 3406 4025 3406 3419 
Q 3406 3131 3298 2873 
Q 3191 2616 2906 2266 
Q 2828 2175 2409 1742 
Q 1991 1309 1228 531 
z
" transform="scale(0.015625)"/>
        <path id="DejaVuSans-30" d="M 2034 4250 
Q 1547 4250 1301 3770 
Q 1056 3291 1056 2328 
Q 1056 1369 1301 889 
Q 1547 409 2034 409 
Q 2525 409 2770 889 
Q 3016 1369 3016 2328 
Q 3016 3291 2770 3770 
Q 2525 4250 2034 4250 
z
M 2034 4750 
Q 2819 4750 3233 4129 
Q 3647 3509 3647 2328 
Q 3647 1150 3233 529 
Q 2819 -91 2034 -91 
Q 1250 -91 836 529 
Q 422 1150 422 2328 
Q 422 3509 836 4129 
Q 1250 4750 2034 4750 
z
" transform="scale(0.015625)"/>
       </defs>
       <use xlink:href="#DejaVuSans-32"/>
       <use xlink:href="#DejaVuSans-30" x="63.623047"/>
      </g>
     </g>
    </g>
    <g id="xtick_2">
     <g id="line2d_3">
      <path d="M 343.231035 462.04 
L 343.231035 25.44 
" clip-path="url(#pcf187f9858)" style="fill: none; stroke: #b0b0b0; stroke-opacity: 0.25; stroke-width: 0.8; stroke-linecap: square"/>
     </g>
     <g id="line2d_4">
      <g>
       <use xlink:href="#m69294ee28a" x="343.231035" y="462.04" style="stroke: #000000; stroke-width: 0.8"/>
      </g>
     </g>
     <g id="text_2">
      <!-- 40 -->
      <g transform="translate(336.868535 476.638438) scale(0.1 -0.1)">
       <defs>
        <path id="DejaVuSans-34" d="M 2419 4116 
L 825 1625 
L 2419 1625 
L 2419 4116 
z
M 2253 4666 
L 3047 4666 
L 3047 1625 
L 3713 1625 
L 3713 1100 
L 3047 1100 
L 3047 0 
L 2419 0 
L 2419 1100 
L 313 1100 
L 313 1709 
L 2253 4666 
z
" transform="scale(0.015625)"/>
       </defs>
       <use xlink:href="#DejaVuSans-34"/>
       <use xlink:href="#DejaVuSans-30" x="63.623047"/>
      </g>
     </g>
    </g>
    <g id="xtick_3">
     <g id="line2d_5">
      <path d="M 501.116164 462.04 
L 501.116164 25.44 
" clip-path="url(#pcf187f9858)" style="fill: none; stroke: #b0b0b0; stroke-opacity: 0.25; stroke-width: 0.8; stroke-linecap: square"/>
     </g>
     <g id="line2d_6">
      <g>
       <use xlink:href="#m69294ee28a" x="501.116164" y="462.04" style="stroke: #000000; stroke-width: 0.8"/>
      </g>
     </g>
     <g id="text_3">
      <!-- 60 -->
      <g transform="translate(494.753664 476.638438) scale(0.1 -0.1)">
       <defs>
        <path id="DejaVuSans-36" d="M 2113 2584 
Q 1688 2584 1439 2293 
Q 1191 2003 1191 1497 
Q 1191 994 1439 701 
Q 1688 409 2113 409 
Q 2538 409 2786 701 
Q 3034 994 3034 1497 
Q 3034 2003 2786 2293 
Q 2538 2584 2113 2584 
z
M 3366 4563 
L 3366 3988 
Q 3128 4100 2886 4159 
Q 2644 4219 2406 4219 
Q 1781 4219 1451 3797 
Q 1122 3375 1075 2522 
Q 1259 2794 1537 2939 
Q 1816 3084 2150 3084 
Q 2853 3084 3261 2657 
Q 3669 2231 3669 1497 
Q 3669 778 3244 343 
Q 2819 -91 2113 -91 
Q 1303 -91 875 529 
Q 447 1150 447 2328 
Q 447 3434 972 4092 
Q 1497 4750 2381 4750 
Q 2619 4750 2861 4703 
Q 3103 4656 3366 4563 
z
" transform="scale(0.015625)"/>
       </defs>
       <use xlink:href="#DejaVuSans-36"/>
       <use xlink:href="#DejaVuSans-30" x="63.623047"/>
      </g>
     </g>
    </g>
    <g id="xtick_4">
     <g id="line2d_7">
      <path d="M 659.001292 462.04 
L 659.001292 25.44 
" clip-path="url(#pcf187f9858)" style="fill: none; stroke: #b0b0b0; stroke-opacity: 0.25; stroke-width: 0.8; stroke-linecap: square"/>
     </g>
     <g id="line2d_8">
      <g>
       <use xlink:href="#m69294ee28a" x="659.001292" y="462.04" style="stroke: #000000; stroke-width: 0.8"/>
      </g>
     </g>
     <g id="text_4">
      <!-- 80 -->
      <g transform="translate(652.638792 476.638438) scale(0.1 -0.1)">
       <defs>
        <path id="DejaVuSans-38" d="M 2034 2216 
Q 1584 2216 1326 1975 
Q 1069 1734 1069 1313 
Q 1069 891 1326 650 
Q 1584 409 2034 409 
Q 2484 409 2743 651 
Q 3003 894 3003 1313 
Q 3003 1734 2745 1975 
Q 2488 2216 2034 2216 
z
M 1403 2484 
Q 997 2584 770 2862 
Q 544 3141 544 3541 
Q 544 4100 942 4425 
Q 1341 4750 2034 4750 
Q 2731 4750 3128 4425 
Q 3525 4100 3525 3541 
Q 3525 3141 3298 2862 
Q 3072 2584 2669 2484 
Q 3125 2378 3379 2068 
Q 3634 1759 3634 1313 
Q 3634 634 3220 271 
Q 2806 -91 2034 -91 
Q 1263 -91 848 271 
Q 434 634 434 1313 
Q 434 1759 690 2068 
Q 947 2378 1403 2484 
z
M 1172 3481 
Q 1172 3119 1398 2916 
Q 1625 2713 2034 2713 
Q 2441 2713 2670 2916 
Q 2900 3119 2900 3481 
Q 2900 3844 2670 4047 
Q 2441 4250 2034 4250 
Q 1625 4250 1398 4047 
Q 1172 3844 1172 3481 
z
" transform="scale(0.015625)"/>
       </defs>
       <use xlink:href="#DejaVuSans-38"/>
       <use xlink:href="#DejaVuSans-30" x="63.623047"/>
      </g>
     </g>
    </g>
    <g id="xtick_5">
     <g id="line2d_9">
      <path d="M 816.88642 462.04 
L 816.88642 25.44 
" clip-path="url(#pcf187f9858)" style="fill: none; stroke: #b0b0b0; stroke-opacity: 0.25; stroke-width: 0.8; stroke-linecap: square"/>
     </g>
     <g id="line2d_10">
      <g>
       <use xlink:href="#m69294ee28a" x="816.88642" y="462.04" style="stroke: #000000; stroke-width: 0.8"/>
      </g>
     </g>
     <g id="text_5">
      <!-- 100 -->
      <g transform="translate(807.34267 476.638438) scale(0.1 -0.1)">
       <defs>
        <path id="DejaVuSans-31" d="M 794 531 
L 1825 531 
L 1825 4091 
L 703 3866 
L 703 4441 
L 1819 4666 
L 2450 4666 
L 2450 531 
L 3481 531 
L 3481 0 
L 794 0 
L 794 531 
z
" transform="scale(0.015625)"/>
       </defs>
       <use xlink:href="#DejaVuSans-31"/>
       <use xlink:href="#DejaVuSans-30" x="63.623047"/>
       <use xlink:href="#DejaVuSans-30" x="127.246094"/>
      </g>
     </g>
    </g>
    <g id="text_6">
     <!-- an u52 limbs -->
     <g transform="translate(421.381094 490.316563) scale(0.1 -0.1)">
      <defs>
       <path id="DejaVuSans-61" d="M 2194 1759 
Q 1497 1759 1228 1600 
Q 959 1441 959 1056 
Q 959 750 1161 570 
Q 1363 391 1709 391 
Q 2188 391 2477 730 
Q 2766 1069 2766 1631 
L 2766 1759 
L 2194 1759 
z
M 3341 1997 
L 3341 0 
L 2766 0 
L 2766 531 
Q 2569 213 2275 61 
Q 1981 -91 1556 -91 
Q 1019 -91 701 211 
Q 384 513 384 1019 
Q 384 1609 779 1909 
Q 1175 2209 1959 2209 
L 2766 2209 
L 2766 2266 
Q 2766 2663 2505 2880 
Q 2244 3097 1772 3097 
Q 1472 3097 1187 3025 
Q 903 2953 641 2809 
L 641 3341 
Q 956 3463 1253 3523 
Q 1550 3584 1831 3584 
Q 2591 3584 2966 3190 
Q 3341 2797 3341 1997 
z
" transform="scale(0.015625)"/>
       <path id="DejaVuSans-6e" d="M 3513 2113 
L 3513 0 
L 2938 0 
L 2938 2094 
Q 2938 2591 2744 2837 
Q 2550 3084 2163 3084 
Q 1697 3084 1428 2787 
Q 1159 2491 1159 1978 
L 1159 0 
L 581 0 
L 581 3500 
L 1159 3500 
L 1159 2956 
Q 1366 3272 1645 3428 
Q 1925 3584 2291 3584 
Q 2894 3584 3203 3211 
Q 3513 2838 3513 2113 
z
" transform="scale(0.015625)"/>
       <path id="DejaVuSans-20" transform="scale(0.015625)"/>
       <path id="DejaVuSans-75" d="M 544 1381 
L 544 3500 
L 1119 3500 
L 1119 1403 
Q 1119 906 1312 657 
Q 1506 409 1894 409 
Q 2359 409 2629 706 
Q 2900 1003 2900 1516 
L 2900 3500 
L 3475 3500 
L 3475 0 
L 2900 0 
L 2900 538 
Q 2691 219 2414 64 
Q 2138 -91 1772 -91 
Q 1169 -91 856 284 
Q 544 659 544 1381 
z
M 1991 3584 
L 1991 3584 
z
" transform="scale(0.015625)"/>
       <path id="DejaVuSans-35" d="M 691 4666 
L 3169 4666 
L 3169 4134 
L 1269 4134 
L 1269 2991 
Q 1406 3038 1543 3061 
Q 1681 3084 1819 3084 
Q 2600 3084 3056 2656 
Q 3513 2228 3513 1497 
Q 3513 744 3044 326 
Q 2575 -91 1722 -91 
Q 1428 -91 1123 -41 
Q 819 9 494 109 
L 494 744 
Q 775 591 1075 516 
Q 1375 441 1709 441 
Q 2250 441 2565 725 
Q 2881 1009 2881 1497 
Q 2881 1984 2565 2268 
Q 2250 2553 1709 2553 
Q 1456 2553 1204 2497 
Q 953 2441 691 2322 
L 691 4666 
z
" transform="scale(0.015625)"/>
       <path id="DejaVuSans-6c" d="M 603 4863 
L 1178 4863 
L 1178 0 
L 603 0 
L 603 4863 
z
" transform="scale(0.015625)"/>
       <path id="DejaVuSans-69" d="M 603 3500 
L 1178 3500 
L 1178 0 
L 603 0 
L 603 3500 
z
M 603 4863 
L 1178 4863 
L 1178 4134 
L 603 4134 
L 603 4863 
z
" transform="scale(0.015625)"/>
       <path id="DejaVuSans-6d" d="M 3328 2828 
Q 3544 3216 3844 3400 
Q 4144 3584 4550 3584 
Q 5097 3584 5394 3201 
Q 5691 2819 5691 2113 
L 5691 0 
L 5113 0 
L 5113 2094 
Q 5113 2597 4934 2840 
Q 4756 3084 4391 3084 
Q 3944 3084 3684 2787 
Q 3425 2491 3425 1978 
L 3425 0 
L 2847 0 
L 2847 2094 
Q 2847 2600 2669 2842 
Q 2491 3084 2119 3084 
Q 1678 3084 1418 2786 
Q 1159 2488 1159 1978 
L 1159 0 
L 581 0 
L 581 3500 
L 1159 3500 
L 1159 2956 
Q 1356 3278 1631 3431 
Q 1906 3584 2284 3584 
Q 2666 3584 2933 3390 
Q 3200 3197 3328 2828 
z
" transform="scale(0.015625)"/>
       <path id="DejaVuSans-62" d="M 3116 1747 
Q 3116 2381 2855 2742 
Q 2594 3103 2138 3103 
Q 1681 3103 1420 2742 
Q 1159 2381 1159 1747 
Q 1159 1113 1420 752 
Q 1681 391 2138 391 
Q 2594 391 2855 752 
Q 3116 1113 3116 1747 
z
M 1159 2969 
Q 1341 3281 1617 3432 
Q 1894 3584 2278 3584 
Q 2916 3584 3314 3078 
Q 3713 2572 3713 1747 
Q 3713 922 3314 415 
Q 2916 -91 2278 -91 
Q 1894 -91 1617 61 
Q 1341 213 1159 525 
L 1159 0 
L 581 0 
L 581 4863 
L 1159 4863 
L 1159 2969 
z
" transform="scale(0.015625)"/>
       <path id="DejaVuSans-73" d="M 2834 3397 
L 2834 2853 
Q 2591 2978 2328 3040 
Q 2066 3103 1784 3103 
Q 1356 3103 1142 2972 
Q 928 2841 928 2578 
Q 928 2378 1081 2264 
Q 1234 2150 1697 2047 
L 1894 2003 
Q 2506 1872 2764 1633 
Q 3022 1394 3022 966 
Q 3022 478 2636 193 
Q 2250 -91 1575 -91 
Q 1294 -91 989 -36 
Q 684 19 347 128 
L 347 722 
Q 666 556 975 473 
Q 1284 391 1588 391 
Q 1994 391 2212 530 
Q 2431 669 2431 922 
Q 2431 1156 2273 1281 
Q 2116 1406 1581 1522 
L 1381 1569 
Q 847 1681 609 1914 
Q 372 2147 372 2553 
Q 372 3047 722 3315 
Q 1072 3584 1716 3584 
Q 2034 3584 2315 3537 
Q 2597 3491 2834 3397 
z
" transform="scale(0.015625)"/>
      </defs>
      <use xlink:href="#DejaVuSans-61"/>
      <use xlink:href="#DejaVuSans-6e" x="61.279297"/>
      <use xlink:href="#DejaVuSans-20" x="124.658203"/>
      <use xlink:href="#DejaVuSans-75" x="156.445312"/>
      <use xlink:href="#DejaVuSans-35" x="219.824219"/>
      <use xlink:href="#DejaVuSans-32" x="283.447266"/>
      <use xlink:href="#DejaVuSans-20" x="347.070312"/>
      <use xlink:href="#DejaVuSans-6c" x="378.857422"/>
      <use xlink:href="#DejaVuSans-69" x="406.640625"/>
      <use xlink:href="#DejaVuSans-6d" x="434.423828"/>
      <use xlink:href="#DejaVuSans-62" x="531.835938"/>
      <use xlink:href="#DejaVuSans-73" x="595.3125"/>
     </g>
    </g>
   </g>
   <g id="matplotlib.axis_2">
    <g id="ytick_1">
     <g id="line2d_11">
      <path d="M 54.30125 458.550916 
L 853.2 458.550916 
" clip-path="url(#pcf187f9858)" style="fill: none; stroke: #b0b0b0; stroke-opacity: 0.25; stroke-width: 0.8; stroke-linecap: square"/>
     </g>
     <g id="line2d_12">
      <defs>
       <path id="mad4cb69f21" d="M 0 0 
L -3.5 0 
" style="stroke: #000000; stroke-width: 0.8"/>
      </defs>
      <g>
       <use xlink:href="#mad4cb69f21" x="54.30125" y="458.550916" style="stroke: #000000; stroke-width: 0.8"/>
      </g>
     </g>
     <g id="text_7">
      <!-- 0.05 -->
      <g transform="translate(25.035625 462.350135) scale(0.1 -0.1)">
       <defs>
        <path id="DejaVuSans-2e" d="M 684 794 
L 1344 794 
L 1344 0 
L 684 0 
L 684 794 
z
" transform="scale(0.015625)"/>
       </defs>
       <use xlink:href="#DejaVuSans-30"/>
       <use xlink:href="#DejaVuSans-2e" x="63.623047"/>
       <use xlink:href="#DejaVuSans-30" x="95.410156"/>
       <use xlink:href="#DejaVuSans-35" x="159.033203"/>
      </g>
     </g>
    </g>
    <g id="ytick_2">
     <g id="line2d_13">
      <path d="M 54.30125 392.558841 
L 853.2 392.558841 
" clip-path="url(#pcf187f9858)" style="fill: none; stroke: #b0b0b0; stroke-opacity: 0.25; stroke-width: 0.8; stroke-linecap: square"/>
     </g>
     <g id="line2d_14">
      <g>
       <use xlink:href="#mad4cb69f21" x="54.30125" y="392.558841" style="stroke: #000000; stroke-width: 0.8"/>
      </g>
     </g>
     <g id="text_8">
      <!-- 0.10 -->
      <g transform="translate(25.035625 396.35806) scale(0.1 -0.1)">
       <use xlink:href="#DejaVuSans-30"/>
       <use xlink:href="#DejaVuSans-2e" x="63.623047"/>
       <use xlink:href="#DejaVuSans-31" x="95.410156"/>
       <use xlink:href="#DejaVuSans-30" x="159.033203"/>
      </g>
     </g>
    </g>
    <g id="ytick_3">
     <g id="line2d_15">
      <path d="M 54.30125 326.566765 
L 853.2 326.566765 
" clip-path="url(#pcf187f9858)" style="fill: none; stroke: #b0b0b0; stroke-opacity: 0.25; stroke-width: 0.8; stroke-linecap: square"/>
     </g>
     <g id="line2d_16">
      <g>
       <use xlink:href="#mad4cb69f21" x="54.30125" y="326.566765" style="stroke: #000000; stroke-width: 0.8"/>
      </g>
     </g>
     <g id="text_9">
      <!-- 0.15 -->
      <g transform="translate(25.035625 330.365984) scale(0.1 -0.1)">
       <use xlink:href="#DejaVuSans-30"/>
       <use xlink:href="#DejaVuSans-2e" x="63.623047"/>
       <use xlink:href="#DejaVuSans-31" x="95.410156"/>
       <use xlink:href="#DejaVuSans-35" x="159.033203"/>
      </g>
     </g>
    </g>
    <g id="ytick_4">
     <g id="line2d_17">
      <path d="M 54.30125 260.57469 
L 853.2 260.57469 
" clip-path="url(#pcf187f9858)" style="fill: none; stroke: #b0b0b0; stroke-opacity: 0.25; stroke-width: 0.8; stroke-linecap: square"/>
     </g>
     <g id="line2d_18">
      <g>
       <use xlink:href="#mad4cb69f21" x="54.30125" y="260.57469" style="stroke: #000000; stroke-width: 0.8"/>
      </g>
     </g>
     <g id="text_10">
      <!-- 0.20 -->
      <g transform="translate(25.035625 264.373909) scale(0.1 -0.1)">
       <use xlink:href="#DejaVuSans-30"/>
       <use xlink:href="#DejaVuSans-2e" x="63.623047"/>
       <use xlink:href="#DejaVuSans-32" x="95.410156"/>
       <use xlink:href="#DejaVuSans-30" x="159.033203"/>
      </g>
     </g>
    </g>
    <g id="ytick_5">
     <g id="line2d_19">
      <path d="M 54.30125 194.582615 
L 853.2 194.582615 
" clip-path="url(#pcf187f9858)" style="fill: none; stroke: #b0b0b0; stroke-opacity: 0.25; stroke-width: 0.8; stroke-linecap: square"/>
     </g>
     <g id="line2d_20">
      <g>
       <use xlink:href="#mad4cb69f21" x="54.30125" y="194.582615" style="stroke: #000000; stroke-width: 0.8"/>
      </g>
     </g>
     <g id="text_11">
      <!-- 0.25 -->
      <g transform="translate(25.035625 198.381833) scale(0.1 -0.1)">
       <use xlink:href="#DejaVuSans-30"/>
       <use xlink:href="#DejaVuSans-2e" x="63.623047"/>
       <use xlink:href="#DejaVuSans-32" x="95.410156"/>
       <use xlink:href="#DejaVuSans-35" x="159.033203"/>
      </g>
     </g>
    </g>
    <g id="ytick_6">
     <g id="line2d_21">
      <path d="M 54.30125 128.590539 
L 853.2 128.590539 
" clip-path="url(#pcf187f9858)" style="fill: none; stroke: #b0b0b0; stroke-opacity: 0.25; stroke-width: 0.8; stroke-linecap: square"/>
     </g>
     <g id="line2d_22">
      <g>
       <use xlink:href="#mad4cb69f21" x="54.30125" y="128.590539" style="stroke: #000000; stroke-width: 0.8"/>
      </g>
     </g>
     <g id="text_12">
      <!-- 0.30 -->
      <g transform="translate(25.035625 132.389758) scale(0.1 -0.1)">
       <defs>
        <path id="DejaVuSans-33" d="M 2597 2516 
Q 3050 2419 3304 2112 
Q 3559 1806 3559 1356 
Q 3559 666 3084 287 
Q 2609 -91 1734 -91 
Q 1441 -91 1130 -33 
Q 819 25 488 141 
L 488 750 
Q 750 597 1062 519 
Q 1375 441 1716 441 
Q 2309 441 2620 675 
Q 2931 909 2931 1356 
Q 2931 1769 2642 2001 
Q 2353 2234 1838 2234 
L 1294 2234 
L 1294 2753 
L 1863 2753 
Q 2328 2753 2575 2939 
Q 2822 3125 2822 3475 
Q 2822 3834 2567 4026 
Q 2313 4219 1838 4219 
Q 1578 4219 1281 4162 
Q 984 4106 628 3988 
L 628 4550 
Q 988 4650 1302 4700 
Q 1616 4750 1894 4750 
Q 2613 4750 3031 4423 
Q 3450 4097 3450 3541 
Q 3450 3153 3228 2886 
Q 3006 2619 2597 2516 
z
" transform="scale(0.015625)"/>
       </defs>
       <use xlink:href="#DejaVuSans-30"/>
       <use xlink:href="#DejaVuSans-2e" x="63.623047"/>
       <use xlink:href="#DejaVuSans-33" x="95.410156"/>
       <use xlink:href="#DejaVuSans-30" x="159.033203"/>
      </g>
     </g>
    </g>
    <g id="ytick_7">
     <g id="line2d_23">
      <path d="M 54.30125 62.598464 
L 853.2 62.598464 
" clip-path="url(#pcf187f9858)" style="fill: none; stroke: #b0b0b0; stroke-opacity: 0.25; stroke-width: 0.8; stroke-linecap: square"/>
     </g>
     <g id="line2d_24">
      <g>
       <use xlink:href="#mad4cb69f21" x="54.30125" y="62.598464" style="stroke: #000000; stroke-width: 0.8"/>
      </g>
     </g>
     <g id="text_13">
      <!-- 0.35 -->
      <g transform="translate(25.035625 66.397682) scale(0.1 -0.1)">
       <use xlink:href="#DejaVuSans-30"/>
       <use xlink:href="#DejaVuSans-2e" x="63.623047"/>
       <use xlink:href="#DejaVuSans-33" x="95.410156"/>
       <use xlink:href="#DejaVuSans-35" x="159.033203"/>
      </g>
     </g>
    </g>
    <g id="text_14">
     <!-- total_ns / (an * bn) -->
     <g transform="translate(18.677812 290.464219) rotate(-90) scale(0.1 -0.1)">
      <defs>
       <path id="DejaVuSans-74" d="M 1172 4494 
L 1172 3500 
L 2356 3500 
L 2356 3053 
L 1172 3053 
L 1172 1153 
Q 1172 725 1289 603 
Q 1406 481 1766 481 
L 2356 481 
L 2356 0 
L 1766 0 
Q 1100 0 847 248 
Q 594 497 594 1153 
L 594 3053 
L 172 3053 
L 172 3500 
L 594 3500 
L 594 4494 
L 1172 4494 
z
" transform="scale(0.015625)"/>
       <path id="DejaVuSans-6f" d="M 1959 3097 
Q 1497 3097 1228 2736 
Q 959 2375 959 1747 
Q 959 1119 1226 758 
Q 1494 397 1959 397 
Q 2419 397 2687 759 
Q 2956 1122 2956 1747 
Q 2956 2369 2687 2733 
Q 2419 3097 1959 3097 
z
M 1959 3584 
Q 2709 3584 3137 3096 
Q 3566 2609 3566 1747 
Q 3566 888 3137 398 
Q 2709 -91 1959 -91 
Q 1206 -91 779 398 
Q 353 888 353 1747 
Q 353 2609 779 3096 
Q 1206 3584 1959 3584 
z
" transform="scale(0.015625)"/>
       <path id="DejaVuSans-5f" d="M 3263 -1063 
L 3263 -1509 
L -63 -1509 
L -63 -1063 
L 3263 -1063 
z
" transform="scale(0.015625)"/>
       <path id="DejaVuSans-2f" d="M 1625 4666 
L 2156 4666 
L 531 -594 
L 0 -594 
L 1625 4666 
z
" transform="scale(0.015625)"/>
       <path id="DejaVuSans-28" d="M 1984 4856 
Q 1566 4138 1362 3434 
Q 1159 2731 1159 2009 
Q 1159 1288 1364 580 
Q 1569 -128 1984 -844 
L 1484 -844 
Q 1016 -109 783 600 
Q 550 1309 550 2009 
Q 550 2706 781 3412 
Q 1013 4119 1484 4856 
L 1984 4856 
z
" transform="scale(0.015625)"/>
       <path id="DejaVuSans-2a" d="M 3009 3897 
L 1888 3291 
L 3009 2681 
L 2828 2375 
L 1778 3009 
L 1778 1831 
L 1422 1831 
L 1422 3009 
L 372 2375 
L 191 2681 
L 1313 3291 
L 191 3897 
L 372 4206 
L 1422 3572 
L 1422 4750 
L 1778 4750 
L 1778 3572 
L 2828 4206 
L 3009 3897 
z
" transform="scale(0.015625)"/>
       <path id="DejaVuSans-29" d="M 513 4856 
L 1013 4856 
Q 1481 4119 1714 3412 
Q 1947 2706 1947 2009 
Q 1947 1309 1714 600 
Q 1481 -109 1013 -844 
L 513 -844 
Q 928 -128 1133 580 
Q 1338 1288 1338 2009 
Q 1338 2731 1133 3434 
Q 928 4138 513 4856 
z
" transform="scale(0.015625)"/>
      </defs>
      <use xlink:href="#DejaVuSans-74"/>
      <use xlink:href="#DejaVuSans-6f" x="39.208984"/>
      <use xlink:href="#DejaVuSans-74" x="100.390625"/>
      <use xlink:href="#DejaVuSans-61" x="139.599609"/>
      <use xlink:href="#DejaVuSans-6c" x="200.878906"/>
      <use xlink:href="#DejaVuSans-5f" x="228.662109"/>
      <use xlink:href="#DejaVuSans-6e" x="278.662109"/>
      <use xlink:href="#DejaVuSans-73" x="342.041016"/>
      <use xlink:href="#DejaVuSans-20" x="394.140625"/>
      <use xlink:href="#DejaVuSans-2f" x="425.927734"/>
      <use xlink:href="#DejaVuSans-20" x="459.619141"/>
      <use xlink:href="#DejaVuSans-28" x="491.40625"/>
      <use xlink:href="#DejaVuSans-61" x="530.419922"/>
      <use xlink:href="#DejaVuSans-6e" x="591.699219"/>
      <use xlink:href="#DejaVuSans-20" x="655.078125"/>
      <use xlink:href="#DejaVuSans-2a" x="686.865234"/>
      <use xlink:href="#DejaVuSans-20" x="736.865234"/>
      <use xlink:href="#DejaVuSans-62" x="768.652344"/>
      <use xlink:href="#DejaVuSans-6e" x="832.128906"/>
      <use xlink:href="#DejaVuSans-29" x="895.507812"/>
     </g>
    </g>
   </g>
   <g id="line2d_25">
    <path d="M 90.61483 45.285455 
L 98.509086 61.175696 
L 106.403342 120.554835 
L 114.297599 170.497838 
L 122.191855 200.058915 
L 130.086112 235.128584 
L 137.980368 249.05373 
L 145.874625 274.507933 
L 153.768881 289.238831 
L 161.663137 265.269261 
L 169.557394 283.812074 
L 177.45165 289.582664 
L 185.345907 303.879562 
L 193.240163 315.20071 
L 201.134419 317.781634 
L 209.028676 328.553466 
L 216.922932 330.520143 
L 224.817189 310.099197 
L 232.711445 317.9701 
L 240.605702 324.499847 
L 248.499958 318.007349 
L 256.394214 325.422401 
L 264.288471 357.512117 
L 272.182727 336.248572 
L 280.076984 364.929754 
L 287.97124 339.891838 
L 295.865497 342.747159 
L 303.759753 343.032476 
L 311.654009 354.727515 
L 319.548266 356.620861 
L 327.442522 364.060051 
L 335.336779 373.483574 
L 343.231035 372.86226 
L 351.125292 351.043792 
L 359.019548 348.575068 
L 366.913804 338.472223 
L 374.808061 361.456984 
L 382.702317 362.074052 
L 390.596574 365.013742 
L 398.49083 367.981563 
L 406.385086 362.470422 
L 414.279343 326.798782 
L 422.173599 343.492397 
L 430.067856 348.545259 
L 437.962112 357.023642 
L 445.856369 359.126395 
L 453.750625 353.939789 
L 461.644881 363.22799 
L 469.539138 359.253964 
L 477.433394 357.895156 
L 485.327651 362.764791 
L 493.221907 362.886309 
L 501.116164 371.785484 
L 509.01042 367.040755 
L 516.904676 365.628723 
L 524.798933 365.296756 
L 532.693189 367.387551 
L 540.587446 341.330359 
L 548.481702 354.062065 
L 556.375958 341.333106 
L 564.270215 355.03198 
L 572.164471 363.620211 
L 580.058728 364.564292 
L 587.952984 367.429641 
L 595.847241 371.142169 
L 603.741497 356.502473 
L 611.635753 353.374788 
L 619.53001 360.801587 
L 627.424266 365.379937 
L 635.318523 362.966212 
L 643.212779 367.548936 
L 651.107036 366.056867 
L 659.001292 370.893053 
L 666.895548 355.279176 
L 674.789805 349.512486 
L 682.684061 356.969325 
L 690.578318 359.091312 
L 698.472574 363.238886 
L 706.366831 364.276603 
L 714.261087 365.224296 
L 722.155343 367.121246 
L 730.0496 353.620474 
L 737.943856 357.70967 
L 745.838113 364.969478 
L 753.732369 362.635604 
L 761.626625 368.982447 
L 769.520882 367.063821 
L 777.415138 365.638955 
L 785.309395 371.118559 
L 793.203651 357.423485 
L 801.097908 359.016238 
L 808.992164 362.526184 
L 816.88642 360.240828 
" clip-path="url(#pcf187f9858)" style="fill: none; stroke: #1f77b4; stroke-width: 1.6; stroke-linecap: square"/>
   </g>
   <g id="line2d_26">
    <path d="M 90.61483 305.196067 
L 98.509086 280.182551 
L 106.403342 285.746991 
L 114.297599 324.264323 
L 122.191855 341.625601 
L 130.086112 355.359104 
L 137.980368 366.19159 
L 145.874625 371.745326 
L 153.768881 387.412644 
L 161.663137 366.402029 
L 169.557394 375.207852 
L 177.45165 381.982773 
L 185.345907 388.75546 
L 193.240163 395.64716 
L 201.134419 395.962828 
L 209.028676 405.0097 
L 216.922932 412.623565 
L 224.817189 387.504533 
L 232.711445 392.356625 
L 240.605702 397.33276 
L 248.499958 401.366197 
L 256.394214 406.797543 
L 264.288471 409.095303 
L 272.182727 415.06363 
L 280.076984 416.02994 
L 287.97124 399.218625 
L 295.865497 403.530133 
L 303.759753 406.139082 
L 311.654009 407.583666 
L 319.548266 411.284714 
L 327.442522 399.774479 
L 335.336779 408.3551 
L 343.231035 417.348422 
L 351.125292 400.653299 
L 359.019548 403.72904 
L 366.913804 406.102743 
L 374.808061 408.668116 
L 382.702317 412.754607 
L 390.596574 414.828454 
L 398.49083 418.362332 
L 406.385086 418.568465 
L 414.279343 402.619581 
L 422.173599 405.187392 
L 430.067856 408.109208 
L 437.962112 410.436609 
L 445.856369 412.194499 
L 453.750625 414.372659 
L 461.644881 417.98471 
L 469.539138 420.727281 
L 477.433394 407.319992 
L 485.327651 411.716358 
L 493.221907 410.772507 
L 501.116164 415.14604 
L 509.01042 417.225453 
L 516.904676 415.41864 
L 524.798933 419.565046 
L 532.693189 421.757945 
L 540.587446 405.586995 
L 548.481702 414.698099 
L 556.375958 417.213916 
L 564.270215 417.040852 
L 572.164471 419.494474 
L 580.058728 420.117039 
L 587.952984 422.339665 
L 595.847241 423.318646 
L 603.741497 417.079718 
L 611.635753 416.433109 
L 619.53001 418.673241 
L 627.424266 401.640946 
L 635.318523 423.631796 
L 643.212779 421.496523 
L 651.107036 423.936352 
L 659.001292 424.458656 
L 666.895548 419.193231 
L 674.789805 418.602124 
L 682.684061 420.934067 
L 690.578318 421.671252 
L 698.472574 423.547487 
L 706.366831 423.850695 
L 714.261087 426.57403 
L 722.155343 426.556908 
L 730.0496 420.153496 
L 737.943856 420.511633 
L 745.838113 423.628629 
L 753.732369 423.35795 
L 761.626625 424.143394 
L 769.520882 427.254457 
L 777.415138 428.001339 
L 785.309395 427.736169 
L 793.203651 422.151116 
L 801.097908 423.342141 
L 808.992164 423.352243 
L 816.88642 425.795022 
" clip-path="url(#pcf187f9858)" style="fill: none; stroke: #ff7f0e; stroke-width: 1.6; stroke-linecap: square"/>
   </g>
   <g id="line2d_27">
    <path d="M 90.61483 354.478003 
L 98.509086 311.457964 
L 106.403342 331.318743 
L 114.297599 351.026378 
L 122.191855 366.179968 
L 130.086112 377.817102 
L 137.980368 389.185429 
L 145.874625 398.903817 
L 153.768881 405.537564 
L 161.663137 374.509202 
L 169.557394 382.748095 
L 177.45165 389.903268 
L 185.345907 397.822748 
L 193.240163 404.327885 
L 201.134419 407.69739 
L 209.028676 414.327854 
L 216.922932 417.004379 
L 224.817189 388.61946 
L 232.711445 399.540921 
L 240.605702 404.998589 
L 248.499958 409.270554 
L 256.394214 413.152835 
L 264.288471 416.667936 
L 272.182727 417.10964 
L 280.076984 421.649718 
L 287.97124 404.109773 
L 295.865497 407.702003 
L 303.759753 411.326781 
L 311.654009 405.409573 
L 319.548266 415.503132 
L 327.442522 419.841904 
L 335.336779 423.151364 
L 343.231035 424.03854 
L 351.125292 408.503166 
L 359.019548 411.570251 
L 366.913804 413.940298 
L 374.808061 416.27845 
L 382.702317 420.326047 
L 390.596574 411.90477 
L 398.49083 420.566985 
L 406.385086 423.741926 
L 414.279343 411.575335 
L 422.173599 418.194462 
L 430.067856 420.707502 
L 437.962112 422.665694 
L 445.856369 425.244291 
L 453.750625 426.738865 
L 461.644881 428.433041 
L 469.539138 430.15842 
L 477.433394 419.395532 
L 485.327651 420.678958 
L 493.221907 424.292235 
L 501.116164 424.62963 
L 509.01042 426.765825 
L 516.904676 428.850617 
L 524.798933 429.613155 
L 532.693189 430.767313 
L 540.587446 422.455987 
L 548.481702 412.021847 
L 556.375958 424.15565 
L 564.270215 426.810633 
L 572.164471 428.241004 
L 580.058728 429.129096 
L 587.952984 430.318184 
L 595.847241 432.034234 
L 603.741497 424.946515 
L 611.635753 426.052139 
L 619.53001 426.887266 
L 627.424266 428.42582 
L 635.318523 419.897109 
L 643.212779 431.494736 
L 651.107036 427.574641 
L 659.001292 433.002236 
L 666.895548 425.859411 
L 674.789805 426.650285 
L 682.684061 428.033237 
L 690.578318 429.686194 
L 698.472574 430.660462 
L 706.366831 430.049216 
L 714.261087 432.381645 
L 722.155343 433.566062 
L 730.0496 426.094496 
L 737.943856 428.764934 
L 745.838113 429.320417 
L 753.732369 430.750849 
L 761.626625 431.690428 
L 769.520882 433.073654 
L 777.415138 432.59115 
L 785.309395 434.753755 
L 793.203651 428.19378 
L 801.097908 429.302092 
L 808.992164 430.287259 
L 816.88642 431.331236 
" clip-path="url(#pcf187f9858)" style="fill: none; stroke: #2ca02c; stroke-width: 1.6; stroke-linecap: square"/>
   </g>
   <g id="line2d_28">
    <path d="M 90.61483 380.512991 
L 98.509086 328.659575 
L 106.403342 349.607875 
L 114.297599 365.7875 
L 122.191855 376.744545 
L 130.086112 389.678061 
L 137.980368 399.591897 
L 145.874625 407.874746 
L 153.768881 414.880235 
L 161.663137 382.193145 
L 169.557394 391.017832 
L 177.45165 399.198808 
L 185.345907 403.393176 
L 193.240163 410.067318 
L 201.134419 416.273769 
L 209.028676 420.60899 
L 216.922932 423.710892 
L 224.817189 401.280076 
L 232.711445 405.154668 
L 240.605702 407.850047 
L 248.499958 413.616177 
L 256.394214 417.432672 
L 264.288471 421.091268 
L 272.182727 424.811135 
L 280.076984 426.175942 
L 287.97124 409.628956 
L 295.865497 411.697733 
L 303.759753 416.384193 
L 311.654009 417.310329 
L 319.548266 421.28809 
L 327.442522 423.609695 
L 335.336779 427.117271 
L 343.231035 428.909672 
L 351.125292 415.983901 
L 359.019548 416.451293 
L 366.913804 413.250745 
L 374.808061 422.349675 
L 382.702317 421.072596 
L 390.596574 427.352554 
L 398.49083 430.021824 
L 406.385086 431.306547 
L 414.279343 418.274822 
L 422.173599 419.058231 
L 430.067856 424.293895 
L 437.962112 425.817358 
L 445.856369 419.427727 
L 453.750625 427.592753 
L 461.644881 431.012535 
L 469.539138 432.072912 
L 477.433394 423.30127 
L 485.327651 423.969526 
L 493.221907 425.208503 
L 501.116164 426.787959 
L 509.01042 429.032458 
L 516.904676 430.824537 
L 524.798933 432.297674 
L 532.693189 433.640638 
L 540.587446 423.723647 
L 548.481702 425.561272 
L 556.375958 427.872206 
L 564.270215 428.112202 
L 572.164471 429.636354 
L 580.058728 432.05637 
L 587.952984 432.660317 
L 595.847241 430.773326 
L 603.741497 428.979304 
L 611.635753 425.962739 
L 619.53001 421.086096 
L 627.424266 423.200729 
L 635.318523 431.455804 
L 643.212779 431.425297 
L 651.107036 432.620088 
L 659.001292 434.831785 
L 666.895548 426.308421 
L 674.789805 430.153117 
L 682.684061 428.865833 
L 690.578318 431.464394 
L 698.472574 431.356978 
L 706.366831 432.320015 
L 714.261087 434.730815 
L 722.155343 435.178619 
L 730.0496 428.575265 
L 737.943856 429.469394 
L 745.838113 430.272934 
L 753.732369 431.337806 
L 761.626625 425.177033 
L 769.520882 433.833355 
L 777.415138 434.557862 
L 785.309395 428.327204 
L 793.203651 430.146498 
L 801.097908 430.273828 
L 808.992164 430.941529 
L 816.88642 432.34842 
" clip-path="url(#pcf187f9858)" style="fill: none; stroke: #d62728; stroke-width: 1.6; stroke-linecap: square"/>
   </g>
   <g id="line2d_29">
    <path d="M 90.61483 386.488463 
L 98.509086 332.727268 
L 106.403342 354.155242 
L 114.297599 371.079529 
L 122.191855 381.541144 
L 130.086112 392.012962 
L 137.980368 401.891716 
L 145.874625 408.78797 
L 153.768881 412.637212 
L 161.663137 385.82172 
L 169.557394 394.317082 
L 177.45165 399.418668 
L 185.345907 404.032507 
L 193.240163 411.379661 
L 201.134419 416.772343 
L 209.028676 421.30555 
L 216.922932 424.404543 
L 224.817189 401.864827 
L 232.711445 404.817719 
L 240.605702 410.068655 
L 248.499958 414.052426 
L 256.394214 419.339297 
L 264.288471 421.580879 
L 272.182727 424.384732 
L 280.076984 426.889874 
L 287.97124 403.282632 
L 295.865497 412.658703 
L 303.759753 416.360745 
L 311.654009 419.273866 
L 319.548266 421.682969 
L 327.442522 424.535726 
L 335.336779 427.485427 
L 343.231035 430.313085 
L 351.125292 417.070989 
L 359.019548 417.964459 
L 366.913804 420.127263 
L 374.808061 424.185746 
L 382.702317 425.404919 
L 390.596574 427.604723 
L 398.49083 429.56836 
L 406.385086 431.247012 
L 414.279343 419.799868 
L 422.173599 411.054663 
L 430.067856 424.561014 
L 437.962112 424.874752 
L 445.856369 427.461986 
L 453.750625 429.714752 
L 461.644881 431.208088 
L 469.539138 433.949562 
L 477.433394 422.802614 
L 485.327651 424.213326 
L 493.221907 423.919576 
L 501.116164 426.429671 
L 509.01042 428.910094 
L 516.904676 430.275722 
L 524.798933 430.281461 
L 532.693189 431.610793 
L 540.587446 426.223529 
L 548.481702 426.599063 
L 556.375958 427.966283 
L 564.270215 429.679336 
L 572.164471 430.198876 
L 580.058728 431.165745 
L 587.952984 431.794511 
L 595.847241 434.034068 
L 603.741497 425.795195 
L 611.635753 427.469334 
L 619.53001 429.022782 
L 627.424266 430.382914 
L 635.318523 431.647032 
L 643.212779 425.744065 
L 651.107036 434.382805 
L 659.001292 428.954203 
L 666.895548 427.642445 
L 674.789805 430.322295 
L 682.684061 429.826142 
L 690.578318 431.780036 
L 698.472574 429.996642 
L 706.366831 432.931325 
L 714.261087 435.685467 
L 722.155343 428.9969 
L 730.0496 427.223412 
L 737.943856 430.468873 
L 745.838113 430.226268 
L 753.732369 432.862173 
L 761.626625 433.122354 
L 769.520882 433.550039 
L 777.415138 434.474955 
L 785.309395 436.734541 
L 793.203651 428.799131 
L 801.097908 430.291301 
L 808.992164 431.265767 
L 816.88642 432.677411 
" clip-path="url(#pcf187f9858)" style="fill: none; stroke: #9467bd; stroke-width: 1.6; stroke-linecap: square"/>
   </g>
   <g id="line2d_30">
    <path d="M 90.61483 393.402835 
L 98.509086 339.267437 
L 106.403342 356.439126 
L 114.297599 372.525093 
L 122.191855 384.13236 
L 130.086112 396.581683 
L 137.980368 405.586301 
L 145.874625 414.902868 
L 153.768881 420.479535 
L 161.663137 386.282848 
L 169.557394 394.534572 
L 177.45165 399.90217 
L 185.345907 407.23362 
L 193.240163 412.206899 
L 201.134419 417.842364 
L 209.028676 422.746289 
L 216.922932 426.083987 
L 224.817189 403.409982 
L 232.711445 409.286929 
L 240.605702 411.983309 
L 248.499958 415.257146 
L 256.394214 421.737416 
L 264.288471 422.51098 
L 272.182727 427.002056 
L 280.076984 428.128145 
L 287.97124 412.173574 
L 295.865497 415.723695 
L 303.759753 418.013151 
L 311.654009 421.678973 
L 319.548266 424.79925 
L 327.442522 426.443624 
L 335.336779 428.644028 
L 343.231035 431.428509 
L 351.125292 417.582203 
L 359.019548 420.133063 
L 366.913804 421.299209 
L 374.808061 426.137676 
L 382.702317 427.388672 
L 390.596574 429.729973 
L 398.49083 431.0766 
L 406.385086 432.839839 
L 414.279343 421.752782 
L 422.173599 424.388973 
L 430.067856 425.369309 
L 437.962112 427.08141 
L 445.856369 428.551188 
L 453.750625 430.823645 
L 461.644881 432.357528 
L 469.539138 433.833744 
L 477.433394 423.889055 
L 485.327651 427.043175 
L 493.221907 428.372401 
L 501.116164 428.263823 
L 509.01042 429.537173 
L 516.904676 432.641079 
L 524.798933 432.78473 
L 532.693189 433.809757 
L 540.587446 426.111367 
L 548.481702 427.830197 
L 556.375958 428.670716 
L 564.270215 430.964719 
L 572.164471 432.205186 
L 580.058728 433.599026 
L 587.952984 434.479021 
L 595.847241 435.77788 
L 603.741497 423.366963 
L 611.635753 428.197977 
L 619.53001 430.858168 
L 627.424266 430.459536 
L 635.318523 432.131226 
L 643.212779 433.749666 
L 651.107036 435.455309 
L 659.001292 436.080626 
L 666.895548 429.983731 
L 674.789805 430.582931 
L 682.684061 432.194984 
L 690.578318 433.22476 
L 698.472574 433.892373 
L 706.366831 435.397267 
L 714.261087 436.00644 
L 722.155343 437.387787 
L 730.0496 431.755157 
L 737.943856 432.162925 
L 745.838113 432.245015 
L 753.732369 432.904618 
L 761.626625 434.680083 
L 769.520882 436.977201 
L 777.415138 436.266017 
L 785.309395 436.715377 
L 793.203651 432.114269 
L 801.097908 432.589761 
L 808.992164 433.534098 
L 816.88642 434.586752 
" clip-path="url(#pcf187f9858)" style="fill: none; stroke: #8c564b; stroke-width: 1.6; stroke-linecap: square"/>
   </g>
   <g id="line2d_31">
    <path d="M 90.61483 395.754217 
L 98.509086 338.311156 
L 106.403342 357.847162 
L 114.297599 371.520016 
L 122.191855 383.783786 
L 130.086112 394.89509 
L 137.980368 404.495065 
L 145.874625 411.075939 
L 153.768881 419.88492 
L 161.663137 386.259141 
L 169.557394 394.819451 
L 177.45165 402.410926 
L 185.345907 408.784648 
L 193.240163 414.571045 
L 201.134419 419.761928 
L 209.028676 424.441657 
L 216.922932 427.961303 
L 224.817189 406.018187 
L 232.711445 411.165196 
L 240.605702 416.050976 
L 248.499958 419.14342 
L 256.394214 423.072612 
L 264.288471 426.404969 
L 272.182727 429.482418 
L 280.076984 432.733053 
L 287.97124 413.8721 
L 295.865497 417.201171 
L 303.759753 420.525267 
L 311.654009 422.846617 
L 319.548266 425.684826 
L 327.442522 428.692254 
L 335.336779 431.311759 
L 343.231035 433.554227 
L 351.125292 420.439934 
L 359.019548 422.917562 
L 366.913804 424.477155 
L 374.808061 427.425556 
L 382.702317 429.599108 
L 390.596574 431.084929 
L 398.49083 433.198528 
L 406.385086 435.507504 
L 414.279343 423.004942 
L 422.173599 425.42871 
L 430.067856 427.466369 
L 437.962112 428.887931 
L 445.856369 431.173988 
L 453.750625 433.112873 
L 461.644881 434.328491 
L 469.539138 435.856758 
L 477.433394 426.239388 
L 485.327651 427.665252 
L 493.221907 430.193215 
L 501.116164 431.112542 
L 509.01042 432.657509 
L 516.904676 433.891337 
L 524.798933 435.369609 
L 532.693189 437.159223 
L 540.587446 427.409458 
L 548.481702 429.021709 
L 556.375958 428.946784 
L 564.270215 432.007968 
L 572.164471 432.222216 
L 580.058728 433.575241 
L 587.952984 434.699162 
L 595.847241 436.84949 
L 603.741497 429.044803 
L 611.635753 429.636829 
L 619.53001 421.128686 
L 627.424266 427.306143 
L 635.318523 427.257329 
L 643.212779 434.385954 
L 651.107036 436.196428 
L 659.001292 436.733239 
L 666.895548 429.878902 
L 674.789805 431.736834 
L 682.684061 432.770024 
L 690.578318 433.985902 
L 698.472574 435.096091 
L 706.366831 436.34517 
L 714.261087 437.459683 
L 722.155343 438.366513 
L 730.0496 432.150285 
L 737.943856 433.149295 
L 745.838113 434.63288 
L 753.732369 435.145009 
L 761.626625 436.258783 
L 769.520882 437.098055 
L 777.415138 438.23415 
L 785.309395 439.083203 
L 793.203651 432.793341 
L 801.097908 434.072276 
L 808.992164 434.633453 
L 816.88642 435.826594 
" clip-path="url(#pcf187f9858)" style="fill: none; stroke: #e377c2; stroke-width: 1.6; stroke-linecap: square"/>
   </g>
   <g id="line2d_32">
    <path d="M 90.61483 407.446112 
L 98.509086 346.556478 
L 106.403342 365.874584 
L 114.297599 379.04891 
L 122.191855 392.390739 
L 130.086112 402.747187 
L 137.980368 411.101417 
L 145.874625 418.210943 
L 153.768881 425.12895 
L 161.663137 394.211707 
L 169.557394 402.875953 
L 177.45165 408.70066 
L 185.345907 414.372998 
L 193.240163 420.072229 
L 201.134419 424.927301 
L 209.028676 429.320074 
L 216.922932 433.193438 
L 224.817189 410.980795 
L 232.711445 416.439474 
L 240.605702 419.012984 
L 248.499958 424.616077 
L 256.394214 427.468209 
L 264.288471 431.058519 
L 272.182727 432.161546 
L 280.076984 436.357135 
L 287.97124 419.14534 
L 295.865497 422.277205 
L 303.759753 425.60182 
L 311.654009 428.340087 
L 319.548266 430.889481 
L 327.442522 433.294548 
L 335.336779 435.550704 
L 343.231035 437.826035 
L 351.125292 425.282384 
L 359.019548 424.941362 
L 366.913804 430.449989 
L 374.808061 430.821302 
L 382.702317 434.638147 
L 390.596574 434.797917 
L 398.49083 437.871215 
L 406.385086 441.076703 
L 414.279343 428.054748 
L 422.173599 430.52689 
L 430.067856 431.843931 
L 437.962112 433.780519 
L 445.856369 435.669634 
L 453.750625 437.222937 
L 461.644881 438.674741 
L 469.539138 439.327591 
L 477.433394 431.160107 
L 485.327651 434.475437 
L 493.221907 431.223306 
L 501.116164 435.378967 
L 509.01042 436.29183 
L 516.904676 439.769219 
L 524.798933 439.963051 
L 532.693189 440.637891 
L 540.587446 431.520467 
L 548.481702 433.839695 
L 556.375958 435.346057 
L 564.270215 437.01806 
L 572.164471 438.069222 
L 580.058728 439.095886 
L 587.952984 440.484667 
L 595.847241 441.337502 
L 603.741497 435.14344 
L 611.635753 434.673778 
L 619.53001 435.88799 
L 627.424266 437.565377 
L 635.318523 439.997375 
L 643.212779 439.341651 
L 651.107036 441.328286 
L 659.001292 442.194545 
L 666.895548 435.441027 
L 674.789805 433.700113 
L 682.684061 433.724808 
L 690.578318 433.71717 
L 698.472574 435.320829 
L 706.366831 436.62266 
L 714.261087 437.648445 
L 722.155343 438.929101 
L 730.0496 432.109809 
L 737.943856 431.973598 
L 745.838113 434.056046 
L 753.732369 435.129789 
L 761.626625 435.887526 
L 769.520882 435.693736 
L 777.415138 437.167393 
L 785.309395 438.676941 
L 793.203651 432.62338 
L 801.097908 433.42661 
L 808.992164 434.519591 
L 816.88642 435.261034 
" clip-path="url(#pcf187f9858)" style="fill: none; stroke: #7f7f7f; stroke-width: 1.6; stroke-linecap: square"/>
   </g>
   <g id="patch_3">
    <path d="M 54.30125 462.04 
L 54.30125 25.44 
" style="fill: none; stroke: #000000; stroke-width: 0.8; stroke-linejoin: miter; stroke-linecap: square"/>
   </g>
   <g id="patch_4">
    <path d="M 853.2 462.04 
L 853.2 25.44 
" style="fill: none; stroke: #000000; stroke-width: 0.8; stroke-linejoin: miter; stroke-linecap: square"/>
   </g>
   <g id="patch_5">
    <path d="M 54.30125 462.04 
L 853.2 462.04 
" style="fill: none; stroke: #000000; stroke-width: 0.8; stroke-linejoin: miter; stroke-linecap: square"/>
   </g>
   <g id="patch_6">
    <path d="M 54.30125 25.44 
L 853.2 25.44 
" style="fill: none; stroke: #000000; stroke-width: 0.8; stroke-linejoin: miter; stroke-linecap: square"/>
   </g>
   <g id="text_15">
    <!-- mul_u52_1 sweep -->
    <g transform="translate(400.049687 19.44) scale(0.12 -0.12)">
     <defs>
      <path id="DejaVuSans-77" d="M 269 3500 
L 844 3500 
L 1563 769 
L 2278 3500 
L 2956 3500 
L 3675 769 
L 4391 3500 
L 4966 3500 
L 4050 0 
L 3372 0 
L 2619 2869 
L 1863 0 
L 1184 0 
L 269 3500 
z
" transform="scale(0.015625)"/>
      <path id="DejaVuSans-65" d="M 3597 1894 
L 3597 1613 
L 953 1613 
Q 991 1019 1311 708 
Q 1631 397 2203 397 
Q 2534 397 2845 478 
Q 3156 559 3463 722 
L 3463 178 
Q 3153 47 2828 -22 
Q 2503 -91 2169 -91 
Q 1331 -91 842 396 
Q 353 884 353 1716 
Q 353 2575 817 3079 
Q 1281 3584 2069 3584 
Q 2775 3584 3186 3129 
Q 3597 2675 3597 1894 
z
M 3022 2063 
Q 3016 2534 2758 2815 
Q 2500 3097 2075 3097 
Q 1594 3097 1305 2825 
Q 1016 2553 972 2059 
L 3022 2063 
z
" transform="scale(0.015625)"/>
      <path id="DejaVuSans-70" d="M 1159 525 
L 1159 -1331 
L 581 -1331 
L 581 3500 
L 1159 3500 
L 1159 2969 
Q 1341 3281 1617 3432 
Q 1894 3584 2278 3584 
Q 2916 3584 3314 3078 
Q 3713 2572 3713 1747 
Q 3713 922 3314 415 
Q 2916 -91 2278 -91 
Q 1894 -91 1617 61 
Q 1341 213 1159 525 
z
M 3116 1747 
Q 3116 2381 2855 2742 
Q 2594 3103 2138 3103 
Q 1681 3103 1420 2742 
Q 1159 2381 1159 1747 
Q 1159 1113 1420 752 
Q 1681 391 2138 391 
Q 2594 391 2855 752 
Q 3116 1113 3116 1747 
z
" transform="scale(0.015625)"/>
     </defs>
     <use xlink:href="#DejaVuSans-6d"/>
     <use xlink:href="#DejaVuSans-75" x="97.412109"/>
     <use xlink:href="#DejaVuSans-6c" x="160.791016"/>
     <use xlink:href="#DejaVuSans-5f" x="188.574219"/>
     <use xlink:href="#DejaVuSans-75" x="238.574219"/>
     <use xlink:href="#DejaVuSans-35" x="301.953125"/>
     <use xlink:href="#DejaVuSans-32" x="365.576172"/>
     <use xlink:href="#DejaVuSans-5f" x="429.199219"/>
     <use xlink:href="#DejaVuSans-31" x="479.199219"/>
     <use xlink:href="#DejaVuSans-20" x="542.822266"/>
     <use xlink:href="#DejaVuSans-73" x="574.609375"/>
     <use xlink:href="#DejaVuSans-77" x="626.708984"/>
     <use xlink:href="#DejaVuSans-65" x="708.496094"/>
     <use xlink:href="#DejaVuSans-65" x="770.019531"/>
     <use xlink:href="#DejaVuSans-70" x="831.542969"/>
    </g>
   </g>
   <g id="legend_1">
    <g id="patch_7">
     <path d="M 589.75875 59.060625 
L 846.9 59.060625 
Q 848.7 59.060625 848.7 57.260625 
L 848.7 31.74 
Q 848.7 29.94 846.9 29.94 
L 589.75875 29.94 
Q 587.95875 29.94 587.95875 31.74 
L 587.95875 57.260625 
Q 587.95875 59.060625 589.75875 59.060625 
z
" style="fill: #ffffff; opacity: 0.8; stroke: #cccccc; stroke-linejoin: miter"/>
    </g>
    <g id="line2d_33">
     <path d="M 591.55875 37.228594 
L 600.55875 37.228594 
L 609.55875 37.228594 
" style="fill: none; stroke: #1f77b4; stroke-width: 1.6; stroke-linecap: square"/>
    </g>
    <g id="text_16">
     <!-- bn=1 -->
     <g transform="translate(616.75875 40.378594) scale(0.09 -0.09)">
      <defs>
       <path id="DejaVuSans-3d" d="M 678 2906 
L 4684 2906 
L 4684 2381 
L 678 2381 
L 678 2906 
z
M 678 1631 
L 4684 1631 
L 4684 1100 
L 678 1100 
L 678 1631 
z
" transform="scale(0.015625)"/>
      </defs>
      <use xlink:href="#DejaVuSans-62"/>
      <use xlink:href="#DejaVuSans-6e" x="63.476562"/>
      <use xlink:href="#DejaVuSans-3d" x="126.855469"/>
      <use xlink:href="#DejaVuSans-31" x="210.644531"/>
     </g>
    </g>
    <g id="line2d_34">
     <path d="M 591.55875 50.438906 
L 600.55875 50.438906 
L 609.55875 50.438906 
" style="fill: none; stroke: #ff7f0e; stroke-width: 1.6; stroke-linecap: square"/>
    </g>
    <g id="text_17">
     <!-- bn=2 -->
     <g transform="translate(616.75875 53.588906) scale(0.09 -0.09)">
      <use xlink:href="#DejaVuSans-62"/>
      <use xlink:href="#DejaVuSans-6e" x="63.476562"/>
      <use xlink:href="#DejaVuSans-3d" x="126.855469"/>
      <use xlink:href="#DejaVuSans-32" x="210.644531"/>
     </g>
    </g>
    <g id="line2d_35">
     <path d="M 659.444062 37.228594 
L 668.444062 37.228594 
L 677.444062 37.228594 
" style="fill: none; stroke: #2ca02c; stroke-width: 1.6; stroke-linecap: square"/>
    </g>
    <g id="text_18">
     <!-- bn=3 -->
     <g transform="translate(684.644062 40.378594) scale(0.09 -0.09)">
      <use xlink:href="#DejaVuSans-62"/>
      <use xlink:href="#DejaVuSans-6e" x="63.476562"/>
      <use xlink:href="#DejaVuSans-3d" x="126.855469"/>
      <use xlink:href="#DejaVuSans-33" x="210.644531"/>
     </g>
    </g>
    <g id="line2d_36">
     <path d="M 659.444062 50.438906 
L 668.444062 50.438906 
L 677.444062 50.438906 
" style="fill: none; stroke: #d62728; stroke-width: 1.6; stroke-linecap: square"/>
    </g>
    <g id="text_19">
     <!-- bn=4 -->
     <g transform="translate(684.644062 53.588906) scale(0.09 -0.09)">
      <use xlink:href="#DejaVuSans-62"/>
      <use xlink:href="#DejaVuSans-6e" x="63.476562"/>
      <use xlink:href="#DejaVuSans-3d" x="126.855469"/>
      <use xlink:href="#DejaVuSans-34" x="210.644531"/>
     </g>
    </g>
    <g id="line2d_37">
     <path d="M 727.329375 37.228594 
L 736.329375 37.228594 
L 745.329375 37.228594 
" style="fill: none; stroke: #9467bd; stroke-width: 1.6; stroke-linecap: square"/>
    </g>
    <g id="text_20">
     <!-- bn=5 -->
     <g transform="translate(752.529375 40.378594) scale(0.09 -0.09)">
      <use xlink:href="#DejaVuSans-62"/>
      <use xlink:href="#DejaVuSans-6e" x="63.476562"/>
      <use xlink:href="#DejaVuSans-3d" x="126.855469"/>
      <use xlink:href="#DejaVuSans-35" x="210.644531"/>
     </g>
    </g>
    <g id="line2d_38">
     <path d="M 727.329375 50.438906 
L 736.329375 50.438906 
L 745.329375 50.438906 
" style="fill: none; stroke: #8c564b; stroke-width: 1.6; stroke-linecap: square"/>
    </g>
    <g id="text_21">
     <!-- bn=6 -->
     <g transform="translate(752.529375 53.588906) scale(0.09 -0.09)">
      <use xlink:href="#DejaVuSans-62"/>
      <use xlink:href="#DejaVuSans-6e" x="63.476562"/>
      <use xlink:href="#DejaVuSans-3d" x="126.855469"/>
      <use xlink:href="#DejaVuSans-36" x="210.644531"/>
     </g>
    </g>
    <g id="line2d_39">
     <path d="M 795.214687 37.228594 
L 804.214687 37.228594 
L 813.214687 37.228594 
" style="fill: none; stroke: #e377c2; stroke-width: 1.6; stroke-linecap: square"/>
    </g>
    <g id="text_22">
     <!-- bn=7 -->
     <g transform="translate(820.414687 40.378594) scale(0.09 -0.09)">
      <defs>
       <path id="DejaVuSans-37" d="M 525 4666 
L 3525 4666 
L 3525 4397 
L 1831 0 
L 1172 0 
L 2766 4134 
L 525 4134 
L 525 4666 
z
" transform="scale(0.015625)"/>
      </defs>
      <use xlink:href="#DejaVuSans-62"/>
      <use xlink:href="#DejaVuSans-6e" x="63.476562"/>
      <use xlink:href="#DejaVuSans-3d" x="126.855469"/>
      <use xlink:href="#DejaVuSans-37" x="210.644531"/>
     </g>
    </g>
    <g id="line2d_40">
     <path d="M 795.214687 50.438906 
L 804.214687 50.438906 
L 813.214687 50.438906 
" style="fill: none; stroke: #7f7f7f; stroke-width: 1.6; stroke-linecap: square"/>
    </g>
    <g id="text_23">
     <!-- bn=8 -->
     <g transform="translate(820.414687 53.588906) scale(0.09 -0.09)">
      <use xlink:href="#DejaVuSans-62"/>
      <use xlink:href="#DejaVuSans-6e" x="63.476562"/>
      <use xlink:href="#DejaVuSans-3d" x="126.855469"/>
      <use xlink:href="#DejaVuSans-38" x="210.644531"/>
     </g>
    </g>
   </g>
  </g>
 </g>
 <defs>
  <clipPath id="pcf187f9858">
   <rect x="54.30125" y="25.44" width="798.89875" height="436.6"/>
  </clipPath>
 </defs>
</svg>
