<?xml version="1.0" encoding="utf-8" standalone="no"?>
<!DOCTYPE svg PUBLIC "-//W3C//DTD SVG 1.1//EN"
  "http://www.w3.org/Graphics/SVG/1.1/DTD/svg11.dtd">
<svg xmlns:xlink="http://www.w3.org/1999/xlink" width="864pt" height="432pt" viewBox="0 0 864 432" xmlns="http://www.w3.org/2000/svg" version="1.1">
 <metadata>
  <rdf:RDF xmlns:dc="http://purl.org/dc/elements/1.1/" xmlns:cc="http://creativecommons.org/ns#" xmlns:rdf="http://www.w3.org/1999/02/22-rdf-syntax-ns#">
   <cc:Work>
    <dc:type rdf:resource="http://purl.org/dc/dcmitype/StillImage"/>
    <dc:date>2026-06-06T00:17:54.400101</dc:date>
    <dc:format>image/svg+xml</dc:format>
    <dc:creator>
     <cc:Agent>
      <dc:title>Matplotlib v3.10.7+dfsg1, https://matplotlib.org/</dc:title>
     </cc:Agent>
    </dc:creator>
   </cc:Work>
  </rdf:RDF>
 </metadata>
 <defs>
  <style type="text/css">*{stroke-linejoin: round; stroke-linecap: butt}</style>
 </defs>
 <g id="figure_1">
  <g id="patch_1">
   <path d="M 0 432 
L 864 432 
L 864 0 
L 0 0 
z
" style="fill: #ffffff"/>
  </g>
  <g id="axes_1">
   <g id="patch_2">
    <path d="M 38.27 390.04 
L 853.2 390.04 
L 853.2 25.44 
L 38.27 25.44 
z
" style="fill: #ffffff"/>
   </g>
   <g id="matplotlib.axis_1">
    <g id="xtick_1">
     <g id="line2d_1">
      <path d="M 134.844497 390.04 
L 134.844497 25.44 
" clip-path="url(#p492907ea0d)" style="fill: none; stroke: #b0b0b0; stroke-opacity: 0.25; stroke-width: 0.8; stroke-linecap: square"/>
     </g>
     <g id="line2d_2">
      <defs>
       <path id="m5c997fc490" d="M 0 0 
L 0 3.5 
" style="stroke: #000000; stroke-width: 0.8"/>
      </defs>
      <g>
       <use xlink:href="#m5c997fc490" x="134.844497" y="390.04" style="stroke: #000000; stroke-width: 0.8"/>
      </g>
     </g>
     <g id="text_1">
      <!-- 50 -->
      <g transform="translate(128.481997 404.638438) scale(0.1 -0.1)">
       <defs>
        <path id="DejaVuSans-35" d="M 691 4666 
L 3169 4666 
L 3169 4134 
L 1269 4134 
L 1269 2991 
Q 1406 3038 1543 3061 
Q 1681 3084 1819 3084 
Q 2600 3084 3056 2656 
Q 3513 2228 3513 1497 
Q 3513 744 3044 326 
Q 2575 -91 1722 -91 
Q 1428 -91 1123 -41 
Q 819 9 494 109 
L 494 744 
Q 775 591 1075 516 
Q 1375 441 1709 441 
Q 2250 441 2565 725 
Q 2881 1009 2881 1497 
Q 2881 1984 2565 2268 
Q 2250 2553 1709 2553 
Q 1456 2553 1204 2497 
Q 953 2441 691 2322 
L 691 4666 
z
" transform="scale(0.015625)"/>
        <path id="DejaVuSans-30" d="M 2034 4250 
Q 1547 4250 1301 3770 
Q 1056 3291 1056 2328 
Q 1056 1369 1301 889 
Q 1547 409 2034 409 
Q 2525 409 2770 889 
Q 3016 1369 3016 2328 
Q 3016 3291 2770 3770 
Q 2525 4250 2034 4250 
z
M 2034 4750 
Q 2819 4750 3233 4129 
Q 3647 3509 3647 2328 
Q 3647 1150 3233 529 
Q 2819 -91 2034 -91 
Q 1250 -91 836 529 
Q 422 1150 422 2328 
Q 422 3509 836 4129 
Q 1250 4750 2034 4750 
z
" transform="scale(0.015625)"/>
       </defs>
       <use xlink:href="#DejaVuSans-35"/>
       <use xlink:href="#DejaVuSans-30" transform="translate(63.623047 0)"/>
      </g>
     </g>
    </g>
    <g id="xtick_2">
     <g id="line2d_3">
      <path d="M 300.211786 390.04 
L 300.211786 25.44 
" clip-path="url(#p492907ea0d)" style="fill: none; stroke: #b0b0b0; stroke-opacity: 0.25; stroke-width: 0.8; stroke-linecap: square"/>
     </g>
     <g id="line2d_4">
      <g>
       <use xlink:href="#m5c997fc490" x="300.211786" y="390.04" style="stroke: #000000; stroke-width: 0.8"/>
      </g>
     </g>
     <g id="text_2">
      <!-- 100 -->
      <g transform="translate(290.668036 404.638438) scale(0.1 -0.1)">
       <defs>
        <path id="DejaVuSans-31" d="M 794 531 
L 1825 531 
L 1825 4091 
L 703 3866 
L 703 4441 
L 1819 4666 
L 2450 4666 
L 2450 531 
L 3481 531 
L 3481 0 
L 794 0 
L 794 531 
z
" transform="scale(0.015625)"/>
       </defs>
       <use xlink:href="#DejaVuSans-31"/>
       <use xlink:href="#DejaVuSans-30" transform="translate(63.623047 0)"/>
       <use xlink:href="#DejaVuSans-30" transform="translate(127.246094 0)"/>
      </g>
     </g>
    </g>
    <g id="xtick_3">
     <g id="line2d_5">
      <path d="M 465.579075 390.04 
L 465.579075 25.44 
" clip-path="url(#p492907ea0d)" style="fill: none; stroke: #b0b0b0; stroke-opacity: 0.25; stroke-width: 0.8; stroke-linecap: square"/>
     </g>
     <g id="line2d_6">
      <g>
       <use xlink:href="#m5c997fc490" x="465.579075" y="390.04" style="stroke: #000000; stroke-width: 0.8"/>
      </g>
     </g>
     <g id="text_3">
      <!-- 150 -->
      <g transform="translate(456.035325 404.638438) scale(0.1 -0.1)">
       <use xlink:href="#DejaVuSans-31"/>
       <use xlink:href="#DejaVuSans-35" transform="translate(63.623047 0)"/>
       <use xlink:href="#DejaVuSans-30" transform="translate(127.246094 0)"/>
      </g>
     </g>
    </g>
    <g id="xtick_4">
     <g id="line2d_7">
      <path d="M 630.946364 390.04 
L 630.946364 25.44 
" clip-path="url(#p492907ea0d)" style="fill: none; stroke: #b0b0b0; stroke-opacity: 0.25; stroke-width: 0.8; stroke-linecap: square"/>
     </g>
     <g id="line2d_8">
      <g>
       <use xlink:href="#m5c997fc490" x="630.946364" y="390.04" style="stroke: #000000; stroke-width: 0.8"/>
      </g>
     </g>
     <g id="text_4">
      <!-- 200 -->
      <g transform="translate(621.402614 404.638438) scale(0.1 -0.1)">
       <defs>
        <path id="DejaVuSans-32" d="M 1228 531 
L 3431 531 
L 3431 0 
L 469 0 
L 469 531 
Q 828 903 1448 1529 
Q 2069 2156 2228 2338 
Q 2531 2678 2651 2914 
Q 2772 3150 2772 3378 
Q 2772 3750 2511 3984 
Q 2250 4219 1831 4219 
Q 1534 4219 1204 4116 
Q 875 4013 500 3803 
L 500 4441 
Q 881 4594 1212 4672 
Q 1544 4750 1819 4750 
Q 2544 4750 2975 4387 
Q 3406 4025 3406 3419 
Q 3406 3131 3298 2873 
Q 3191 2616 2906 2266 
Q 2828 2175 2409 1742 
Q 1991 1309 1228 531 
z
" transform="scale(0.015625)"/>
       </defs>
       <use xlink:href="#DejaVuSans-32"/>
       <use xlink:href="#DejaVuSans-30" transform="translate(63.623047 0)"/>
       <use xlink:href="#DejaVuSans-30" transform="translate(127.246094 0)"/>
      </g>
     </g>
    </g>
    <g id="xtick_5">
     <g id="line2d_9">
      <path d="M 796.313653 390.04 
L 796.313653 25.44 
" clip-path="url(#p492907ea0d)" style="fill: none; stroke: #b0b0b0; stroke-opacity: 0.25; stroke-width: 0.8; stroke-linecap: square"/>
     </g>
     <g id="line2d_10">
      <g>
       <use xlink:href="#m5c997fc490" x="796.313653" y="390.04" style="stroke: #000000; stroke-width: 0.8"/>
      </g>
     </g>
     <g id="text_5">
      <!-- 250 -->
      <g transform="translate(786.769903 404.638438) scale(0.1 -0.1)">
       <use xlink:href="#DejaVuSans-32"/>
       <use xlink:href="#DejaVuSans-35" transform="translate(63.623047 0)"/>
       <use xlink:href="#DejaVuSans-30" transform="translate(127.246094 0)"/>
      </g>
     </g>
    </g>
    <g id="text_6">
     <!-- an = bn (u52 limbs) -->
     <g transform="translate(395.752969 418.316562) scale(0.1 -0.1)">
      <defs>
       <path id="DejaVuSans-61" d="M 2194 1759 
Q 1497 1759 1228 1600 
Q 959 1441 959 1056 
Q 959 750 1161 570 
Q 1363 391 1709 391 
Q 2188 391 2477 730 
Q 2766 1069 2766 1631 
L 2766 1759 
L 2194 1759 
z
M 3341 1997 
L 3341 0 
L 2766 0 
L 2766 531 
Q 2569 213 2275 61 
Q 1981 -91 1556 -91 
Q 1019 -91 701 211 
Q 384 513 384 1019 
Q 384 1609 779 1909 
Q 1175 2209 1959 2209 
L 2766 2209 
L 2766 2266 
Q 2766 2663 2505 2880 
Q 2244 3097 1772 3097 
Q 1472 3097 1187 3025 
Q 903 2953 641 2809 
L 641 3341 
Q 956 3463 1253 3523 
Q 1550 3584 1831 3584 
Q 2591 3584 2966 3190 
Q 3341 2797 3341 1997 
z
" transform="scale(0.015625)"/>
       <path id="DejaVuSans-6e" d="M 3513 2113 
L 3513 0 
L 2938 0 
L 2938 2094 
Q 2938 2591 2744 2837 
Q 2550 3084 2163 3084 
Q 1697 3084 1428 2787 
Q 1159 2491 1159 1978 
L 1159 0 
L 581 0 
L 581 3500 
L 1159 3500 
L 1159 2956 
Q 1366 3272 1645 3428 
Q 1925 3584 2291 3584 
Q 2894 3584 3203 3211 
Q 3513 2838 3513 2113 
z
" transform="scale(0.015625)"/>
       <path id="DejaVuSans-20" transform="scale(0.015625)"/>
       <path id="DejaVuSans-3d" d="M 678 2906 
L 4684 2906 
L 4684 2381 
L 678 2381 
L 678 2906 
z
M 678 1631 
L 4684 1631 
L 4684 1100 
L 678 1100 
L 678 1631 
z
" transform="scale(0.015625)"/>
       <path id="DejaVuSans-62" d="M 3116 1747 
Q 3116 2381 2855 2742 
Q 2594 3103 2138 3103 
Q 1681 3103 1420 2742 
Q 1159 2381 1159 1747 
Q 1159 1113 1420 752 
Q 1681 391 2138 391 
Q 2594 391 2855 752 
Q 3116 1113 3116 1747 
z
M 1159 2969 
Q 1341 3281 1617 3432 
Q 1894 3584 2278 3584 
Q 2916 3584 3314 3078 
Q 3713 2572 3713 1747 
Q 3713 922 3314 415 
Q 2916 -91 2278 -91 
Q 1894 -91 1617 61 
Q 1341 213 1159 525 
L 1159 0 
L 581 0 
L 581 4863 
L 1159 4863 
L 1159 2969 
z
" transform="scale(0.015625)"/>
       <path id="DejaVuSans-28" d="M 1984 4856 
Q 1566 4138 1362 3434 
Q 1159 2731 1159 2009 
Q 1159 1288 1364 580 
Q 1569 -128 1984 -844 
L 1484 -844 
Q 1016 -109 783 600 
Q 550 1309 550 2009 
Q 550 2706 781 3412 
Q 1013 4119 1484 4856 
L 1984 4856 
z
" transform="scale(0.015625)"/>
       <path id="DejaVuSans-75" d="M 544 1381 
L 544 3500 
L 1119 3500 
L 1119 1403 
Q 1119 906 1312 657 
Q 1506 409 1894 409 
Q 2359 409 2629 706 
Q 2900 1003 2900 1516 
L 2900 3500 
L 3475 3500 
L 3475 0 
L 2900 0 
L 2900 538 
Q 2691 219 2414 64 
Q 2138 -91 1772 -91 
Q 1169 -91 856 284 
Q 544 659 544 1381 
z
M 1991 3584 
L 1991 3584 
z
" transform="scale(0.015625)"/>
       <path id="DejaVuSans-6c" d="M 603 4863 
L 1178 4863 
L 1178 0 
L 603 0 
L 603 4863 
z
" transform="scale(0.015625)"/>
       <path id="DejaVuSans-69" d="M 603 3500 
L 1178 3500 
L 1178 0 
L 603 0 
L 603 3500 
z
M 603 4863 
L 1178 4863 
L 1178 4134 
L 603 4134 
L 603 4863 
z
" transform="scale(0.015625)"/>
       <path id="DejaVuSans-6d" d="M 3328 2828 
Q 3544 3216 3844 3400 
Q 4144 3584 4550 3584 
Q 5097 3584 5394 3201 
Q 5691 2819 5691 2113 
L 5691 0 
L 5113 0 
L 5113 2094 
Q 5113 2597 4934 2840 
Q 4756 3084 4391 3084 
Q 3944 3084 3684 2787 
Q 3425 2491 3425 1978 
L 3425 0 
L 2847 0 
L 2847 2094 
Q 2847 2600 2669 2842 
Q 2491 3084 2119 3084 
Q 1678 3084 1418 2786 
Q 1159 2488 1159 1978 
L 1159 0 
L 581 0 
L 581 3500 
L 1159 3500 
L 1159 2956 
Q 1356 3278 1631 3431 
Q 1906 3584 2284 3584 
Q 2666 3584 2933 3390 
Q 3200 3197 3328 2828 
z
" transform="scale(0.015625)"/>
       <path id="DejaVuSans-73" d="M 2834 3397 
L 2834 2853 
Q 2591 2978 2328 3040 
Q 2066 3103 1784 3103 
Q 1356 3103 1142 2972 
Q 928 2841 928 2578 
Q 928 2378 1081 2264 
Q 1234 2150 1697 2047 
L 1894 2003 
Q 2506 1872 2764 1633 
Q 3022 1394 3022 966 
Q 3022 478 2636 193 
Q 2250 -91 1575 -91 
Q 1294 -91 989 -36 
Q 684 19 347 128 
L 347 722 
Q 666 556 975 473 
Q 1284 391 1588 391 
Q 1994 391 2212 530 
Q 2431 669 2431 922 
Q 2431 1156 2273 1281 
Q 2116 1406 1581 1522 
L 1381 1569 
Q 847 1681 609 1914 
Q 372 2147 372 2553 
Q 372 3047 722 3315 
Q 1072 3584 1716 3584 
Q 2034 3584 2315 3537 
Q 2597 3491 2834 3397 
z
" transform="scale(0.015625)"/>
       <path id="DejaVuSans-29" d="M 513 4856 
L 1013 4856 
Q 1481 4119 1714 3412 
Q 1947 2706 1947 2009 
Q 1947 1309 1714 600 
Q 1481 -109 1013 -844 
L 513 -844 
Q 928 -128 1133 580 
Q 1338 1288 1338 2009 
Q 1338 2731 1133 3434 
Q 928 4138 513 4856 
z
" transform="scale(0.015625)"/>
      </defs>
      <use xlink:href="#DejaVuSans-61"/>
      <use xlink:href="#DejaVuSans-6e" transform="translate(61.279297 0)"/>
      <use xlink:href="#DejaVuSans-20" transform="translate(124.658203 0)"/>
      <use xlink:href="#DejaVuSans-3d" transform="translate(156.445312 0)"/>
      <use xlink:href="#DejaVuSans-20" transform="translate(240.234375 0)"/>
      <use xlink:href="#DejaVuSans-62" transform="translate(272.021484 0)"/>
      <use xlink:href="#DejaVuSans-6e" transform="translate(335.498047 0)"/>
      <use xlink:href="#DejaVuSans-20" transform="translate(398.876953 0)"/>
      <use xlink:href="#DejaVuSans-28" transform="translate(430.664062 0)"/>
      <use xlink:href="#DejaVuSans-75" transform="translate(469.677734 0)"/>
      <use xlink:href="#DejaVuSans-35" transform="translate(533.056641 0)"/>
      <use xlink:href="#DejaVuSans-32" transform="translate(596.679688 0)"/>
      <use xlink:href="#DejaVuSans-20" transform="translate(660.302734 0)"/>
      <use xlink:href="#DejaVuSans-6c" transform="translate(692.089844 0)"/>
      <use xlink:href="#DejaVuSans-69" transform="translate(719.873047 0)"/>
      <use xlink:href="#DejaVuSans-6d" transform="translate(747.65625 0)"/>
      <use xlink:href="#DejaVuSans-62" transform="translate(845.068359 0)"/>
      <use xlink:href="#DejaVuSans-73" transform="translate(908.544922 0)"/>
      <use xlink:href="#DejaVuSans-29" transform="translate(960.644531 0)"/>
     </g>
    </g>
   </g>
   <g id="matplotlib.axis_2">
    <g id="ytick_1">
     <g id="line2d_11">
      <path d="M 38.27 375.02504 
L 853.2 375.02504 
" clip-path="url(#p492907ea0d)" style="fill: none; stroke: #b0b0b0; stroke-opacity: 0.25; stroke-width: 0.8; stroke-linecap: square"/>
     </g>
     <g id="line2d_12">
      <defs>
       <path id="m459397ab57" d="M 0 0 
L -3.5 0 
" style="stroke: #000000; stroke-width: 0.8"/>
      </defs>
      <g>
       <use xlink:href="#m459397ab57" x="38.27" y="375.02504" style="stroke: #000000; stroke-width: 0.8"/>
      </g>
     </g>
     <g id="text_7">
      <!-- 1 -->
      <g transform="translate(24.9075 378.824258) scale(0.1 -0.1)">
       <use xlink:href="#DejaVuSans-31"/>
      </g>
     </g>
    </g>
    <g id="ytick_2">
     <g id="line2d_13">
      <path d="M 38.27 319.086757 
L 853.2 319.086757 
" clip-path="url(#p492907ea0d)" style="fill: none; stroke: #b0b0b0; stroke-opacity: 0.25; stroke-width: 0.8; stroke-linecap: square"/>
     </g>
     <g id="line2d_14">
      <g>
       <use xlink:href="#m459397ab57" x="38.27" y="319.086757" style="stroke: #000000; stroke-width: 0.8"/>
      </g>
     </g>
     <g id="text_8">
      <!-- 2 -->
      <g transform="translate(24.9075 322.885975) scale(0.1 -0.1)">
       <use xlink:href="#DejaVuSans-32"/>
      </g>
     </g>
    </g>
    <g id="ytick_3">
     <g id="line2d_15">
      <path d="M 38.27 263.148474 
L 853.2 263.148474 
" clip-path="url(#p492907ea0d)" style="fill: none; stroke: #b0b0b0; stroke-opacity: 0.25; stroke-width: 0.8; stroke-linecap: square"/>
     </g>
     <g id="line2d_16">
      <g>
       <use xlink:href="#m459397ab57" x="38.27" y="263.148474" style="stroke: #000000; stroke-width: 0.8"/>
      </g>
     </g>
     <g id="text_9">
      <!-- 3 -->
      <g transform="translate(24.9075 266.947692) scale(0.1 -0.1)">
       <defs>
        <path id="DejaVuSans-33" d="M 2597 2516 
Q 3050 2419 3304 2112 
Q 3559 1806 3559 1356 
Q 3559 666 3084 287 
Q 2609 -91 1734 -91 
Q 1441 -91 1130 -33 
Q 819 25 488 141 
L 488 750 
Q 750 597 1062 519 
Q 1375 441 1716 441 
Q 2309 441 2620 675 
Q 2931 909 2931 1356 
Q 2931 1769 2642 2001 
Q 2353 2234 1838 2234 
L 1294 2234 
L 1294 2753 
L 1863 2753 
Q 2328 2753 2575 2939 
Q 2822 3125 2822 3475 
Q 2822 3834 2567 4026 
Q 2313 4219 1838 4219 
Q 1578 4219 1281 4162 
Q 984 4106 628 3988 
L 628 4550 
Q 988 4650 1302 4700 
Q 1616 4750 1894 4750 
Q 2613 4750 3031 4423 
Q 3450 4097 3450 3541 
Q 3450 3153 3228 2886 
Q 3006 2619 2597 2516 
z
" transform="scale(0.015625)"/>
       </defs>
       <use xlink:href="#DejaVuSans-33"/>
      </g>
     </g>
    </g>
    <g id="ytick_4">
     <g id="line2d_17">
      <path d="M 38.27 207.210191 
L 853.2 207.210191 
" clip-path="url(#p492907ea0d)" style="fill: none; stroke: #b0b0b0; stroke-opacity: 0.25; stroke-width: 0.8; stroke-linecap: square"/>
     </g>
     <g id="line2d_18">
      <g>
       <use xlink:href="#m459397ab57" x="38.27" y="207.210191" style="stroke: #000000; stroke-width: 0.8"/>
      </g>
     </g>
     <g id="text_10">
      <!-- 4 -->
      <g transform="translate(24.9075 211.009409) scale(0.1 -0.1)">
       <defs>
        <path id="DejaVuSans-34" d="M 2419 4116 
L 825 1625 
L 2419 1625 
L 2419 4116 
z
M 2253 4666 
L 3047 4666 
L 3047 1625 
L 3713 1625 
L 3713 1100 
L 3047 1100 
L 3047 0 
L 2419 0 
L 2419 1100 
L 313 1100 
L 313 1709 
L 2253 4666 
z
" transform="scale(0.015625)"/>
       </defs>
       <use xlink:href="#DejaVuSans-34"/>
      </g>
     </g>
    </g>
    <g id="ytick_5">
     <g id="line2d_19">
      <path d="M 38.27 151.271907 
L 853.2 151.271907 
" clip-path="url(#p492907ea0d)" style="fill: none; stroke: #b0b0b0; stroke-opacity: 0.25; stroke-width: 0.8; stroke-linecap: square"/>
     </g>
     <g id="line2d_20">
      <g>
       <use xlink:href="#m459397ab57" x="38.27" y="151.271907" style="stroke: #000000; stroke-width: 0.8"/>
      </g>
     </g>
     <g id="text_11">
      <!-- 5 -->
      <g transform="translate(24.9075 155.071126) scale(0.1 -0.1)">
       <use xlink:href="#DejaVuSans-35"/>
      </g>
     </g>
    </g>
    <g id="ytick_6">
     <g id="line2d_21">
      <path d="M 38.27 95.333624 
L 853.2 95.333624 
" clip-path="url(#p492907ea0d)" style="fill: none; stroke: #b0b0b0; stroke-opacity: 0.25; stroke-width: 0.8; stroke-linecap: square"/>
     </g>
     <g id="line2d_22">
      <g>
       <use xlink:href="#m459397ab57" x="38.27" y="95.333624" style="stroke: #000000; stroke-width: 0.8"/>
      </g>
     </g>
     <g id="text_12">
      <!-- 6 -->
      <g transform="translate(24.9075 99.132843) scale(0.1 -0.1)">
       <defs>
        <path id="DejaVuSans-36" d="M 2113 2584 
Q 1688 2584 1439 2293 
Q 1191 2003 1191 1497 
Q 1191 994 1439 701 
Q 1688 409 2113 409 
Q 2538 409 2786 701 
Q 3034 994 3034 1497 
Q 3034 2003 2786 2293 
Q 2538 2584 2113 2584 
z
M 3366 4563 
L 3366 3988 
Q 3128 4100 2886 4159 
Q 2644 4219 2406 4219 
Q 1781 4219 1451 3797 
Q 1122 3375 1075 2522 
Q 1259 2794 1537 2939 
Q 1816 3084 2150 3084 
Q 2853 3084 3261 2657 
Q 3669 2231 3669 1497 
Q 3669 778 3244 343 
Q 2819 -91 2113 -91 
Q 1303 -91 875 529 
Q 447 1150 447 2328 
Q 447 3434 972 4092 
Q 1497 4750 2381 4750 
Q 2619 4750 2861 4703 
Q 3103 4656 3366 4563 
z
" transform="scale(0.015625)"/>
       </defs>
       <use xlink:href="#DejaVuSans-36"/>
      </g>
     </g>
    </g>
    <g id="ytick_7">
     <g id="line2d_23">
      <path d="M 38.27 39.395341 
L 853.2 39.395341 
" clip-path="url(#p492907ea0d)" style="fill: none; stroke: #b0b0b0; stroke-opacity: 0.25; stroke-width: 0.8; stroke-linecap: square"/>
     </g>
     <g id="line2d_24">
      <g>
       <use xlink:href="#m459397ab57" x="38.27" y="39.395341" style="stroke: #000000; stroke-width: 0.8"/>
      </g>
     </g>
     <g id="text_13">
      <!-- 7 -->
      <g transform="translate(24.9075 43.19456) scale(0.1 -0.1)">
       <defs>
        <path id="DejaVuSans-37" d="M 525 4666 
L 3525 4666 
L 3525 4397 
L 1831 0 
L 1172 0 
L 2766 4134 
L 525 4134 
L 525 4666 
z
" transform="scale(0.015625)"/>
       </defs>
       <use xlink:href="#DejaVuSans-37"/>
      </g>
     </g>
    </g>
    <g id="text_14">
     <!-- ns / limb -->
     <g transform="translate(18.827813 229.198594) rotate(-90) scale(0.1 -0.1)">
      <defs>
       <path id="DejaVuSans-2f" d="M 1625 4666 
L 2156 4666 
L 531 -594 
L 0 -594 
L 1625 4666 
z
" transform="scale(0.015625)"/>
      </defs>
      <use xlink:href="#DejaVuSans-6e"/>
      <use xlink:href="#DejaVuSans-73" transform="translate(63.378906 0)"/>
      <use xlink:href="#DejaVuSans-20" transform="translate(115.478516 0)"/>
      <use xlink:href="#DejaVuSans-2f" transform="translate(147.265625 0)"/>
      <use xlink:href="#DejaVuSans-20" transform="translate(180.957031 0)"/>
      <use xlink:href="#DejaVuSans-6c" transform="translate(212.744141 0)"/>
      <use xlink:href="#DejaVuSans-69" transform="translate(240.527344 0)"/>
      <use xlink:href="#DejaVuSans-6d" transform="translate(268.310547 0)"/>
      <use xlink:href="#DejaVuSans-62" transform="translate(365.722656 0)"/>
     </g>
    </g>
   </g>
   <g id="line2d_25">
    <path d="M 75.312273 373.467273 
L 78.619619 371.20541 
L 81.926964 369.243571 
L 85.23431 366.573599 
L 88.541656 364.62559 
L 91.849002 364.298898 
L 95.156347 362.077485 
L 101.771039 360.763847 
L 105.078385 360.077111 
L 108.385731 357.305301 
L 111.693076 357.363963 
L 115.000422 356.57626 
L 118.307768 356.44248 
L 121.615114 354.995615 
L 124.922459 354.357879 
L 128.229805 351.568999 
L 131.537151 350.170413 
L 134.844497 347.803774 
L 138.151843 347.232995 
L 141.459188 345.153636 
L 144.766534 344.180323 
L 148.07388 342.079365 
L 151.381226 341.083189 
L 154.688571 339.642781 
L 157.995917 338.572154 
L 161.303263 335.922264 
L 164.610609 335.196466 
L 167.917955 332.516065 
L 171.2253 332.519829 
L 174.532646 330.37818 
L 177.839992 329.237882 
L 181.147338 328.337834 
L 184.454683 328.195546 
L 187.762029 324.820801 
L 191.069375 326.228191 
L 194.376721 322.821967 
L 197.684067 322.999189 
L 200.991412 319.685354 
L 207.606104 318.048858 
L 210.91345 314.068415 
L 214.220795 305.781033 
L 217.528141 307.483756 
L 220.835487 306.435743 
L 224.142833 308.227239 
L 227.450179 307.436895 
L 230.757524 308.776325 
L 234.06487 306.479414 
L 237.372216 302.66963 
L 240.679562 302.970221 
L 243.986907 302.602366 
L 247.294253 300.024455 
L 250.601599 299.54065 
L 253.908945 297.111054 
L 257.216291 296.366763 
L 260.523636 294.581302 
L 263.830982 291.010379 
L 267.138328 291.25497 
L 270.445674 290.917034 
L 273.753019 288.42796 
L 277.060365 287.80085 
L 280.367711 285.585058 
L 283.675057 284.566169 
L 286.982403 282.813388 
L 290.289748 279.370721 
L 293.597094 279.489807 
L 296.90444 278.844334 
L 300.211786 276.175782 
L 303.519131 276.221509 
L 306.826477 273.412379 
L 310.133823 272.568853 
L 313.441169 270.847031 
L 316.748515 269.721651 
L 320.05586 267.671536 
L 323.363206 266.739688 
L 326.670552 262.600171 
L 329.977898 264.323362 
L 333.285244 260.012084 
L 336.592589 258.85552 
L 339.899935 259.031679 
L 343.207281 257.637119 
L 346.514627 255.545045 
L 349.821972 253.314559 
L 353.129318 250.519685 
L 356.436664 252.075034 
L 359.74401 248.03449 
L 363.051356 247.282155 
L 366.358701 246.922258 
L 369.666047 245.655536 
L 372.973393 242.961247 
L 376.280739 241.107805 
L 379.588084 238.996716 
L 382.89543 239.593117 
L 386.202776 235.647792 
L 389.510122 235.037253 
L 392.817468 235.253209 
L 396.124813 233.336404 
L 399.432159 230.526107 
L 402.739505 228.006834 
L 406.046851 224.423712 
L 409.354196 225.189531 
L 412.661542 220.940552 
L 415.968888 220.011742 
L 419.276234 219.636612 
L 422.58358 218.418375 
L 425.890925 215.881414 
L 429.198271 215.529678 
L 432.505617 215.459566 
L 435.812963 216.286852 
L 439.120308 211.985737 
L 442.427654 210.179591 
L 445.735 210.413964 
L 449.042346 207.889006 
L 452.349692 206.820805 
L 455.657037 206.810037 
L 458.964383 204.166789 
L 462.271729 203.843176 
L 465.579075 199.716178 
L 468.88642 198.953583 
L 472.193766 198.573415 
L 475.501112 195.928878 
L 478.808458 195.170026 
L 482.115804 195.178729 
L 485.423149 192.574433 
L 488.730495 191.711049 
L 492.037841 188.072823 
L 495.345187 187.846566 
L 501.959878 184.406158 
L 505.267224 182.921867 
L 508.57457 182.971313 
L 511.881916 180.172543 
L 515.189261 179.682843 
L 518.496607 176.04214 
L 521.803953 174.916187 
L 525.111299 174.920338 
L 528.418644 172.058786 
L 531.72599 171.023126 
L 535.033336 170.84549 
L 538.340682 168.278164 
L 541.648028 168.802795 
L 544.955373 164.123993 
L 548.262719 163.124545 
L 551.570065 162.88516 
L 554.877411 159.903268 
L 558.184756 159.063177 
L 561.492102 158.568921 
L 564.799448 156.350572 
L 568.106794 156.785812 
L 571.41414 152.036227 
L 574.721485 151.123337 
L 578.028831 150.396009 
L 581.336177 149.097507 
L 584.643523 146.715268 
L 587.950869 147.030004 
L 591.258214 144.375641 
L 594.56556 143.595955 
L 597.872906 139.822573 
L 604.487597 137.539358 
L 607.794943 135.759077 
L 611.102289 134.529482 
L 614.409635 134.48333 
L 617.716981 132.415331 
L 621.024326 132.371243 
L 624.331672 128.010239 
L 627.639018 127.198745 
L 634.253709 124.515676 
L 637.561055 121.817812 
L 640.868401 122.20894 
L 644.175747 120.039328 
L 647.483093 119.702653 
L 650.790438 115.654456 
L 654.097784 114.456589 
L 657.40513 115.223819 
L 660.712476 111.990645 
L 664.019821 110.455402 
L 667.327167 110.466157 
L 670.634513 108.096773 
L 673.941859 107.421014 
L 677.249205 103.608482 
L 680.55655 102.19994 
L 683.863896 100.949019 
L 687.171242 99.477086 
L 690.478588 98.201015 
L 693.785933 98.257276 
L 697.093279 95.509756 
L 700.400625 95.214197 
L 703.707971 91.668299 
L 707.015317 90.325473 
L 710.322662 90.032634 
L 713.630008 87.74928 
L 716.937354 87.329669 
L 720.2447 85.734806 
L 723.552045 83.935 
L 726.859391 82.847764 
L 730.166737 79.636996 
L 733.474083 78.577985 
L 736.781429 77.126981 
L 740.088774 74.915466 
L 743.39612 74.468705 
L 746.703466 73.806312 
L 750.010812 71.533236 
L 753.318157 71.060487 
L 756.625503 66.998445 
L 759.932849 66.428037 
L 763.240195 64.926409 
L 766.547541 63.947644 
L 769.854886 62.043872 
L 773.162232 61.164725 
L 776.469578 58.583611 
L 779.776924 58.787247 
L 783.084269 55.071634 
L 786.391615 54.755871 
L 789.698961 52.748552 
L 796.313653 51.714 
L 799.620998 48.88697 
L 802.928344 46.836374 
L 806.23569 46.840319 
L 809.543036 42.459437 
L 812.850381 42.012727 
L 816.157727 42.22565 
L 816.157727 42.22565 
" clip-path="url(#p492907ea0d)" style="fill: none; stroke: #1f77b4; stroke-width: 1.6; stroke-linecap: square"/>
   </g>
   <g id="line2d_26">
    <path d="M 75.312273 323.173419 
L 78.619619 292.394851 
L 81.926964 296.133882 
L 85.23431 296.732548 
L 88.541656 300.173378 
L 91.849002 301.967067 
L 95.156347 307.517655 
L 98.463693 308.69596 
L 101.771039 315.378689 
L 105.078385 301.079176 
L 108.385731 302.792683 
L 111.693076 304.989835 
L 115.000422 308.897454 
L 118.307768 310.067466 
L 121.615114 312.091225 
L 124.922459 313.046801 
L 128.229805 326.906463 
L 131.537151 308.021877 
L 134.844497 311.632933 
L 138.151843 312.519193 
L 141.459188 312.920854 
L 144.766534 314.528889 
L 148.07388 316.512273 
L 151.381226 316.605006 
L 154.688571 318.671073 
L 157.995917 304.537273 
L 161.303263 307.677647 
L 164.610609 305.336534 
L 167.917955 306.300686 
L 171.2253 308.318219 
L 174.532646 309.046762 
L 177.839992 309.998413 
L 181.147338 317.198637 
L 184.454683 296.137837 
L 187.762029 301.964635 
L 191.069375 279.898047 
L 194.376721 305.109063 
L 197.684067 304.771117 
L 200.991412 305.000449 
L 204.298758 305.646262 
L 207.606104 305.236807 
L 210.91345 297.303386 
L 214.220795 296.538999 
L 217.528141 295.567973 
L 220.835487 300.072996 
L 224.142833 303.519226 
L 227.450179 304.564992 
L 230.757524 301.595711 
L 234.06487 304.291341 
L 237.372216 292.063857 
L 240.679562 292.399276 
L 243.986907 293.302463 
L 247.294253 290.796407 
L 250.601599 291.799243 
L 253.908945 292.240003 
L 257.216291 292.408806 
L 260.523636 294.236516 
L 263.830982 288.368599 
L 267.138328 288.080198 
L 270.445674 288.624449 
L 273.753019 285.437547 
L 277.060365 285.190948 
L 280.367711 285.204413 
L 283.675057 285.055369 
L 286.982403 288.533159 
L 290.289748 276.43052 
L 293.597094 276.447613 
L 296.90444 277.18402 
L 300.211786 277.484499 
L 303.519131 277.23136 
L 306.826477 277.293476 
L 310.133823 277.605692 
L 313.441169 278.488277 
L 316.748515 275.638627 
L 320.05586 275.313822 
L 323.363206 276.321239 
L 326.670552 275.225293 
L 329.977898 276.074373 
L 333.285244 275.77896 
L 336.592589 275.714966 
L 339.899935 275.81765 
L 343.207281 261.231591 
L 346.514627 263.027145 
L 349.821972 264.232378 
L 353.129318 262.299199 
L 356.436664 263.66761 
L 359.74401 263.67666 
L 363.051356 263.467418 
L 366.358701 261.969369 
L 369.666047 254.942885 
L 372.973393 256.487773 
L 376.280739 257.051426 
L 379.588084 255.840221 
L 382.89543 256.069717 
L 386.202776 255.766562 
L 389.510122 255.643875 
L 392.817468 258.854293 
L 396.124813 244.566483 
L 399.432159 241.775631 
L 402.739505 242.481099 
L 406.046851 242.420912 
L 409.354196 241.39363 
L 412.661542 242.471032 
L 415.968888 242.445479 
L 419.276234 243.33991 
L 422.58358 241.251154 
L 425.890925 238.057933 
L 429.198271 243.357128 
L 432.505617 243.436347 
L 435.812963 243.899068 
L 439.120308 242.490179 
L 442.427654 242.063668 
L 445.735 242.700119 
L 449.042346 230.093041 
L 452.349692 229.879333 
L 455.657037 231.253894 
L 458.964383 230.562117 
L 462.271729 230.832084 
L 465.579075 230.707999 
L 468.88642 230.803232 
L 472.193766 229.503048 
L 475.501112 223.641979 
L 478.808458 223.955902 
L 482.115804 223.643987 
L 485.423149 223.848079 
L 488.730495 223.888828 
L 492.037841 222.65075 
L 495.345187 223.012783 
L 498.652532 223.739772 
L 501.959878 209.420003 
L 505.267224 209.12825 
L 508.57457 209.781247 
L 511.881916 207.65313 
L 515.189261 207.983506 
L 518.496607 209.653573 
L 521.803953 209.227763 
L 525.111299 209.331077 
L 528.418644 209.950149 
L 531.72599 209.579341 
L 535.033336 210.058556 
L 538.340682 208.087639 
L 541.648028 207.916017 
L 544.955373 209.011892 
L 548.262719 209.397336 
L 551.570065 207.023998 
L 554.877411 196.456118 
L 561.492102 196.473946 
L 564.799448 196.563115 
L 571.41414 195.747228 
L 574.721485 195.84342 
L 578.028831 194.822627 
L 581.336177 189.693923 
L 584.643523 190.03707 
L 587.950869 189.57927 
L 591.258214 189.64932 
L 594.56556 189.23791 
L 597.872906 188.25548 
L 601.180252 188.602953 
L 604.487597 188.825791 
L 607.794943 175.746938 
L 611.102289 173.708323 
L 614.409635 175.709218 
L 617.716981 174.475728 
L 621.024326 175.055819 
L 624.331672 174.275447 
L 627.639018 174.769084 
L 630.946364 176.669199 
L 634.253709 176.088897 
L 637.561055 174.621776 
L 640.868401 176.191844 
L 644.175747 175.471717 
L 647.483093 174.984112 
L 650.790438 174.098495 
L 654.097784 174.587714 
L 657.40513 172.467444 
L 660.712476 161.065496 
L 664.019821 160.6449 
L 667.327167 160.949682 
L 670.634513 159.268007 
L 673.941859 159.817553 
L 677.249205 160.066661 
L 680.55655 160.526277 
L 683.863896 157.591298 
L 687.171242 155.9969 
L 690.478588 155.322979 
L 693.785933 155.611065 
L 697.093279 154.016946 
L 700.400625 153.887484 
L 703.707971 153.349963 
L 707.015317 153.090344 
L 710.322662 156.433001 
L 713.630008 141.520883 
L 716.937354 141.017816 
L 720.2447 141.214529 
L 723.552045 141.239281 
L 726.859391 140.60588 
L 733.474083 140.420627 
L 736.781429 141.6537 
L 740.088774 141.07973 
L 743.39612 140.811254 
L 746.703466 141.237234 
L 750.010812 139.757069 
L 753.318157 139.960835 
L 756.625503 139.208592 
L 759.932849 139.678857 
L 763.240195 138.974808 
L 766.547541 126.329855 
L 773.162232 126.168496 
L 776.469578 125.423982 
L 779.776924 126.375633 
L 783.084269 124.796646 
L 786.391615 125.160837 
L 789.698961 123.70403 
L 793.006307 120.900149 
L 796.313653 120.898242 
L 799.620998 121.287793 
L 802.928344 120.598846 
L 806.23569 120.486629 
L 809.543036 119.640424 
L 812.850381 119.210222 
L 816.157727 121.522285 
L 816.157727 121.522285 
" clip-path="url(#p492907ea0d)" style="fill: none; stroke: #ff7f0e; stroke-width: 1.8; stroke-linecap: square"/>
   </g>
   <g id="patch_3">
    <path d="M 38.27 390.04 
L 38.27 25.44 
" style="fill: none; stroke: #000000; stroke-width: 0.8; stroke-linejoin: miter; stroke-linecap: square"/>
   </g>
   <g id="patch_4">
    <path d="M 853.2 390.04 
L 853.2 25.44 
" style="fill: none; stroke: #000000; stroke-width: 0.8; stroke-linejoin: miter; stroke-linecap: square"/>
   </g>
   <g id="patch_5">
    <path d="M 38.27 390.04 
L 853.2 390.04 
" style="fill: none; stroke: #000000; stroke-width: 0.8; stroke-linejoin: miter; stroke-linecap: square"/>
   </g>
   <g id="patch_6">
    <path d="M 38.27 25.44 
L 853.2 25.44 
" style="fill: none; stroke: #000000; stroke-width: 0.8; stroke-linejoin: miter; stroke-linecap: square"/>
   </g>
   <g id="text_15">
    <!-- u52 multiplication: basecase vs one-level Karatsuba -->
    <g transform="translate(289.008438 19.44) scale(0.12 -0.12)">
     <defs>
      <path id="DejaVuSans-74" d="M 1172 4494 
L 1172 3500 
L 2356 3500 
L 2356 3053 
L 1172 3053 
L 1172 1153 
Q 1172 725 1289 603 
Q 1406 481 1766 481 
L 2356 481 
L 2356 0 
L 1766 0 
Q 1100 0 847 248 
Q 594 497 594 1153 
L 594 3053 
L 172 3053 
L 172 3500 
L 594 3500 
L 594 4494 
L 1172 4494 
z
" transform="scale(0.015625)"/>
      <path id="DejaVuSans-70" d="M 1159 525 
L 1159 -1331 
L 581 -1331 
L 581 3500 
L 1159 3500 
L 1159 2969 
Q 1341 3281 1617 3432 
Q 1894 3584 2278 3584 
Q 2916 3584 3314 3078 
Q 3713 2572 3713 1747 
Q 3713 922 3314 415 
Q 2916 -91 2278 -91 
Q 1894 -91 1617 61 
Q 1341 213 1159 525 
z
M 3116 1747 
Q 3116 2381 2855 2742 
Q 2594 3103 2138 3103 
Q 1681 3103 1420 2742 
Q 1159 2381 1159 1747 
Q 1159 1113 1420 752 
Q 1681 391 2138 391 
Q 2594 391 2855 752 
Q 3116 1113 3116 1747 
z
" transform="scale(0.015625)"/>
      <path id="DejaVuSans-63" d="M 3122 3366 
L 3122 2828 
Q 2878 2963 2633 3030 
Q 2388 3097 2138 3097 
Q 1578 3097 1268 2742 
Q 959 2388 959 1747 
Q 959 1106 1268 751 
Q 1578 397 2138 397 
Q 2388 397 2633 464 
Q 2878 531 3122 666 
L 3122 134 
Q 2881 22 2623 -34 
Q 2366 -91 2075 -91 
Q 1284 -91 818 406 
Q 353 903 353 1747 
Q 353 2603 823 3093 
Q 1294 3584 2113 3584 
Q 2378 3584 2631 3529 
Q 2884 3475 3122 3366 
z
" transform="scale(0.015625)"/>
      <path id="DejaVuSans-6f" d="M 1959 3097 
Q 1497 3097 1228 2736 
Q 959 2375 959 1747 
Q 959 1119 1226 758 
Q 1494 397 1959 397 
Q 2419 397 2687 759 
Q 2956 1122 2956 1747 
Q 2956 2369 2687 2733 
Q 2419 3097 1959 3097 
z
M 1959 3584 
Q 2709 3584 3137 3096 
Q 3566 2609 3566 1747 
Q 3566 888 3137 398 
Q 2709 -91 1959 -91 
Q 1206 -91 779 398 
Q 353 888 353 1747 
Q 353 2609 779 3096 
Q 1206 3584 1959 3584 
z
" transform="scale(0.015625)"/>
      <path id="DejaVuSans-3a" d="M 750 794 
L 1409 794 
L 1409 0 
L 750 0 
L 750 794 
z
M 750 3309 
L 1409 3309 
L 1409 2516 
L 750 2516 
L 750 3309 
z
" transform="scale(0.015625)"/>
      <path id="DejaVuSans-65" d="M 3597 1894 
L 3597 1613 
L 953 1613 
Q 991 1019 1311 708 
Q 1631 397 2203 397 
Q 2534 397 2845 478 
Q 3156 559 3463 722 
L 3463 178 
Q 3153 47 2828 -22 
Q 2503 -91 2169 -91 
Q 1331 -91 842 396 
Q 353 884 353 1716 
Q 353 2575 817 3079 
Q 1281 3584 2069 3584 
Q 2775 3584 3186 3129 
Q 3597 2675 3597 1894 
z
M 3022 2063 
Q 3016 2534 2758 2815 
Q 2500 3097 2075 3097 
Q 1594 3097 1305 2825 
Q 1016 2553 972 2059 
L 3022 2063 
z
" transform="scale(0.015625)"/>
      <path id="DejaVuSans-76" d="M 191 3500 
L 800 3500 
L 1894 563 
L 2988 3500 
L 3597 3500 
L 2284 0 
L 1503 0 
L 191 3500 
z
" transform="scale(0.015625)"/>
      <path id="DejaVuSans-2d" d="M 313 2009 
L 1997 2009 
L 1997 1497 
L 313 1497 
L 313 2009 
z
" transform="scale(0.015625)"/>
      <path id="DejaVuSans-4b" d="M 628 4666 
L 1259 4666 
L 1259 2694 
L 3353 4666 
L 4166 4666 
L 1850 2491 
L 4331 0 
L 3500 0 
L 1259 2247 
L 1259 0 
L 628 0 
L 628 4666 
z
" transform="scale(0.015625)"/>
      <path id="DejaVuSans-72" d="M 2631 2963 
Q 2534 3019 2420 3045 
Q 2306 3072 2169 3072 
Q 1681 3072 1420 2755 
Q 1159 2438 1159 1844 
L 1159 0 
L 581 0 
L 581 3500 
L 1159 3500 
L 1159 2956 
Q 1341 3275 1631 3429 
Q 1922 3584 2338 3584 
Q 2397 3584 2469 3576 
Q 2541 3569 2628 3553 
L 2631 2963 
z
" transform="scale(0.015625)"/>
     </defs>
     <use xlink:href="#DejaVuSans-75"/>
     <use xlink:href="#DejaVuSans-35" transform="translate(63.378906 0)"/>
     <use xlink:href="#DejaVuSans-32" transform="translate(127.001953 0)"/>
     <use xlink:href="#DejaVuSans-20" transform="translate(190.625 0)"/>
     <use xlink:href="#DejaVuSans-6d" transform="translate(222.412109 0)"/>
     <use xlink:href="#DejaVuSans-75" transform="translate(319.824219 0)"/>
     <use xlink:href="#DejaVuSans-6c" transform="translate(383.203125 0)"/>
     <use xlink:href="#DejaVuSans-74" transform="translate(410.986328 0)"/>
     <use xlink:href="#DejaVuSans-69" transform="translate(450.195312 0)"/>
     <use xlink:href="#DejaVuSans-70" transform="translate(477.978516 0)"/>
     <use xlink:href="#DejaVuSans-6c" transform="translate(541.455078 0)"/>
     <use xlink:href="#DejaVuSans-69" transform="translate(569.238281 0)"/>
     <use xlink:href="#DejaVuSans-63" transform="translate(597.021484 0)"/>
     <use xlink:href="#DejaVuSans-61" transform="translate(652.001953 0)"/>
     <use xlink:href="#DejaVuSans-74" transform="translate(713.28125 0)"/>
     <use xlink:href="#DejaVuSans-69" transform="translate(752.490234 0)"/>
     <use xlink:href="#DejaVuSans-6f" transform="translate(780.273438 0)"/>
     <use xlink:href="#DejaVuSans-6e" transform="translate(841.455078 0)"/>
     <use xlink:href="#DejaVuSans-3a" transform="translate(904.833984 0)"/>
     <use xlink:href="#DejaVuSans-20" transform="translate(938.525391 0)"/>
     <use xlink:href="#DejaVuSans-62" transform="translate(970.3125 0)"/>
     <use xlink:href="#DejaVuSans-61" transform="translate(1033.789062 0)"/>
     <use xlink:href="#DejaVuSans-73" transform="translate(1095.068359 0)"/>
     <use xlink:href="#DejaVuSans-65" transform="translate(1147.167969 0)"/>
     <use xlink:href="#DejaVuSans-63" transform="translate(1208.691406 0)"/>
     <use xlink:href="#DejaVuSans-61" transform="translate(1263.671875 0)"/>
     <use xlink:href="#DejaVuSans-73" transform="translate(1324.951172 0)"/>
     <use xlink:href="#DejaVuSans-65" transform="translate(1377.050781 0)"/>
     <use xlink:href="#DejaVuSans-20" transform="translate(1438.574219 0)"/>
     <use xlink:href="#DejaVuSans-76" transform="translate(1470.361328 0)"/>
     <use xlink:href="#DejaVuSans-73" transform="translate(1529.541016 0)"/>
     <use xlink:href="#DejaVuSans-20" transform="translate(1581.640625 0)"/>
     <use xlink:href="#DejaVuSans-6f" transform="translate(1613.427734 0)"/>
     <use xlink:href="#DejaVuSans-6e" transform="translate(1674.609375 0)"/>
     <use xlink:href="#DejaVuSans-65" transform="translate(1737.988281 0)"/>
     <use xlink:href="#DejaVuSans-2d" transform="translate(1799.511719 0)"/>
     <use xlink:href="#DejaVuSans-6c" transform="translate(1835.595703 0)"/>
     <use xlink:href="#DejaVuSans-65" transform="translate(1863.378906 0)"/>
     <use xlink:href="#DejaVuSans-76" transform="translate(1924.902344 0)"/>
     <use xlink:href="#DejaVuSans-65" transform="translate(1984.082031 0)"/>
     <use xlink:href="#DejaVuSans-6c" transform="translate(2045.605469 0)"/>
     <use xlink:href="#DejaVuSans-20" transform="translate(2073.388672 0)"/>
     <use xlink:href="#DejaVuSans-4b" transform="translate(2105.175781 0)"/>
     <use xlink:href="#DejaVuSans-61" transform="translate(2169.001953 0)"/>
     <use xlink:href="#DejaVuSans-72" transform="translate(2230.28125 0)"/>
     <use xlink:href="#DejaVuSans-61" transform="translate(2271.394531 0)"/>
     <use xlink:href="#DejaVuSans-74" transform="translate(2332.673828 0)"/>
     <use xlink:href="#DejaVuSans-73" transform="translate(2371.882812 0)"/>
     <use xlink:href="#DejaVuSans-75" transform="translate(2423.982422 0)"/>
     <use xlink:href="#DejaVuSans-62" transform="translate(2487.361328 0)"/>
     <use xlink:href="#DejaVuSans-61" transform="translate(2550.837891 0)"/>
    </g>
   </g>
   <g id="legend_1">
    <g id="patch_7">
     <path d="M 45.27 62.79625 
L 164.12625 62.79625 
Q 166.12625 62.79625 166.12625 60.79625 
L 166.12625 32.44 
Q 166.12625 30.44 164.12625 30.44 
L 45.27 30.44 
Q 43.27 30.44 43.27 32.44 
L 43.27 60.79625 
Q 43.27 62.79625 45.27 62.79625 
z
" style="fill: #ffffff; opacity: 0.8; stroke: #cccccc; stroke-linejoin: miter"/>
    </g>
    <g id="line2d_27">
     <path d="M 47.27 38.538437 
L 57.27 38.538437 
L 67.27 38.538437 
" style="fill: none; stroke: #1f77b4; stroke-width: 1.6; stroke-linecap: square"/>
    </g>
    <g id="text_16">
     <!-- basecase -->
     <g transform="translate(75.27 42.038437) scale(0.1 -0.1)">
      <use xlink:href="#DejaVuSans-62"/>
      <use xlink:href="#DejaVuSans-61" transform="translate(63.476562 0)"/>
      <use xlink:href="#DejaVuSans-73" transform="translate(124.755859 0)"/>
      <use xlink:href="#DejaVuSans-65" transform="translate(176.855469 0)"/>
      <use xlink:href="#DejaVuSans-63" transform="translate(238.378906 0)"/>
      <use xlink:href="#DejaVuSans-61" transform="translate(293.359375 0)"/>
      <use xlink:href="#DejaVuSans-73" transform="translate(354.638672 0)"/>
      <use xlink:href="#DejaVuSans-65" transform="translate(406.738281 0)"/>
     </g>
    </g>
    <g id="line2d_28">
     <path d="M 47.27 53.216563 
L 57.27 53.216563 
L 67.27 53.216563 
" style="fill: none; stroke: #ff7f0e; stroke-width: 1.8; stroke-linecap: square"/>
    </g>
    <g id="text_17">
     <!-- 1-level karatsuba -->
     <g transform="translate(75.27 56.716563) scale(0.1 -0.1)">
      <defs>
       <path id="DejaVuSans-6b" d="M 581 4863 
L 1159 4863 
L 1159 1991 
L 2875 3500 
L 3609 3500 
L 1753 1863 
L 3688 0 
L 2938 0 
L 1159 1709 
L 1159 0 
L 581 0 
L 581 4863 
z
" transform="scale(0.015625)"/>
      </defs>
      <use xlink:href="#DejaVuSans-31"/>
      <use xlink:href="#DejaVuSans-2d" transform="translate(63.623047 0)"/>
      <use xlink:href="#DejaVuSans-6c" transform="translate(99.707031 0)"/>
      <use xlink:href="#DejaVuSans-65" transform="translate(127.490234 0)"/>
      <use xlink:href="#DejaVuSans-76" transform="translate(189.013672 0)"/>
      <use xlink:href="#DejaVuSans-65" transform="translate(248.193359 0)"/>
      <use xlink:href="#DejaVuSans-6c" transform="translate(309.716797 0)"/>
      <use xlink:href="#DejaVuSans-20" transform="translate(337.5 0)"/>
      <use xlink:href="#DejaVuSans-6b" transform="translate(369.287109 0)"/>
      <use xlink:href="#DejaVuSans-61" transform="translate(425.447266 0)"/>
      <use xlink:href="#DejaVuSans-72" transform="translate(486.726562 0)"/>
      <use xlink:href="#DejaVuSans-61" transform="translate(527.839844 0)"/>
      <use xlink:href="#DejaVuSans-74" transform="translate(589.119141 0)"/>
      <use xlink:href="#DejaVuSans-73" transform="translate(628.328125 0)"/>
      <use xlink:href="#DejaVuSans-75" transform="translate(680.427734 0)"/>
      <use xlink:href="#DejaVuSans-62" transform="translate(743.806641 0)"/>
      <use xlink:href="#DejaVuSans-61" transform="translate(807.283203 0)"/>
     </g>
    </g>
   </g>
  </g>
 </g>
 <defs>
  <clipPath id="p492907ea0d">
   <rect x="38.27" y="25.44" width="814.93" height="364.6"/>
  </clipPath>
 </defs>
</svg>
