<?xml version="1.0" encoding="utf-8" standalone="no"?>
<!DOCTYPE svg PUBLIC "-//W3C//DTD SVG 1.1//EN"
  "http://www.w3.org/Graphics/SVG/1.1/DTD/svg11.dtd">
<svg xmlns:xlink="http://www.w3.org/1999/xlink" width="864pt" height="504pt" viewBox="0 0 864 504" xmlns="http://www.w3.org/2000/svg" version="1.1">
 <metadata>
  <rdf:RDF xmlns:dc="http://purl.org/dc/elements/1.1/" xmlns:cc="http://creativecommons.org/ns#" xmlns:rdf="http://www.w3.org/1999/02/22-rdf-syntax-ns#">
   <cc:Work>
    <dc:type rdf:resource="http://purl.org/dc/dcmitype/StillImage"/>
    <dc:date>2026-06-04T01:43:52.023985</dc:date>
    <dc:format>image/svg+xml</dc:format>
    <dc:creator>
     <cc:Agent>
      <dc:title>Matplotlib v3.9.2, https://matplotlib.org/</dc:title>
     </cc:Agent>
    </dc:creator>
   </cc:Work>
  </rdf:RDF>
 </metadata>
 <defs>
  <style type="text/css">*{stroke-linejoin: round; stroke-linecap: butt}</style>
 </defs>
 <g id="figure_1">
  <g id="patch_1">
   <path d="M 0 504 
L 864 504 
L 864 0 
L 0 0 
z
" style="fill: #ffffff"/>
  </g>
  <g id="axes_1">
   <g id="patch_2">
    <path d="M 60.69125 462.04 
L 853.2 462.04 
L 853.2 25.44 
L 60.69125 25.44 
z
" style="fill: #ffffff"/>
   </g>
   <g id="matplotlib.axis_1">
    <g id="xtick_1">
     <g id="line2d_1">
      <path d="M 190.687745 462.04 
L 190.687745 25.44 
" clip-path="url(#pea8118795e)" style="fill: none; stroke: #b0b0b0; stroke-opacity: 0.25; stroke-width: 0.8; stroke-linecap: square"/>
     </g>
     <g id="line2d_2">
      <defs>
       <path id="m4a3c6b2f7a" d="M 0 0 
L 0 3.5 
" style="stroke: #000000; stroke-width: 0.8"/>
      </defs>
      <g>
       <use xlink:href="#m4a3c6b2f7a" x="190.687745" y="462.04" style="stroke: #000000; stroke-width: 0.8"/>
      </g>
     </g>
     <g id="text_1">
      <!-- 20 -->
      <g transform="translate(184.325245 476.638438) scale(0.1 -0.1)">
       <defs>
        <path id="DejaVuSans-32" d="M 1228 531 
L 3431 531 
L 3431 0 
L 469 0 
L 469 531 
Q 828 903 1448 1529 
Q 2069 2156 2228 2338 
Q 2531 2678 2651 2914 
Q 2772 3150 2772 3378 
Q 2772 3750 2511 3984 
Q 2250 4219 1831 4219 
Q 1534 4219 1204 4116 
Q 875 4013 500 3803 
L 500 4441 
Q 881 4594 1212 4672 
Q 1544 4750 1819 4750 
Q 2544 4750 2975 4387 
Q 3406 4025 3406 3419 
Q 3406 3131 3298 2873 
Q 3191 2616 2906 2266 
Q 2828 2175 2409 1742 
Q 1991 1309 1228 531 
z
" transform="scale(0.015625)"/>
        <path id="DejaVuSans-30" d="M 2034 4250 
Q 1547 4250 1301 3770 
Q 1056 3291 1056 2328 
Q 1056 1369 1301 889 
Q 1547 409 2034 409 
Q 2525 409 2770 889 
Q 3016 1369 3016 2328 
Q 3016 3291 2770 3770 
Q 2525 4250 2034 4250 
z
M 2034 4750 
Q 2819 4750 3233 4129 
Q 3647 3509 3647 2328 
Q 3647 1150 3233 529 
Q 2819 -91 2034 -91 
Q 1250 -91 836 529 
Q 422 1150 422 2328 
Q 422 3509 836 4129 
Q 1250 4750 2034 4750 
z
" transform="scale(0.015625)"/>
       </defs>
       <use xlink:href="#DejaVuSans-32"/>
       <use xlink:href="#DejaVuSans-30" x="63.623047"/>
      </g>
     </g>
    </g>
    <g id="xtick_2">
     <g id="line2d_3">
      <path d="M 347.310027 462.04 
L 347.310027 25.44 
" clip-path="url(#pea8118795e)" style="fill: none; stroke: #b0b0b0; stroke-opacity: 0.25; stroke-width: 0.8; stroke-linecap: square"/>
     </g>
     <g id="line2d_4">
      <g>
       <use xlink:href="#m4a3c6b2f7a" x="347.310027" y="462.04" style="stroke: #000000; stroke-width: 0.8"/>
      </g>
     </g>
     <g id="text_2">
      <!-- 40 -->
      <g transform="translate(340.947527 476.638438) scale(0.1 -0.1)">
       <defs>
        <path id="DejaVuSans-34" d="M 2419 4116 
L 825 1625 
L 2419 1625 
L 2419 4116 
z
M 2253 4666 
L 3047 4666 
L 3047 1625 
L 3713 1625 
L 3713 1100 
L 3047 1100 
L 3047 0 
L 2419 0 
L 2419 1100 
L 313 1100 
L 313 1709 
L 2253 4666 
z
" transform="scale(0.015625)"/>
       </defs>
       <use xlink:href="#DejaVuSans-34"/>
       <use xlink:href="#DejaVuSans-30" x="63.623047"/>
      </g>
     </g>
    </g>
    <g id="xtick_3">
     <g id="line2d_5">
      <path d="M 503.93231 462.04 
L 503.93231 25.44 
" clip-path="url(#pea8118795e)" style="fill: none; stroke: #b0b0b0; stroke-opacity: 0.25; stroke-width: 0.8; stroke-linecap: square"/>
     </g>
     <g id="line2d_6">
      <g>
       <use xlink:href="#m4a3c6b2f7a" x="503.93231" y="462.04" style="stroke: #000000; stroke-width: 0.8"/>
      </g>
     </g>
     <g id="text_3">
      <!-- 60 -->
      <g transform="translate(497.56981 476.638438) scale(0.1 -0.1)">
       <defs>
        <path id="DejaVuSans-36" d="M 2113 2584 
Q 1688 2584 1439 2293 
Q 1191 2003 1191 1497 
Q 1191 994 1439 701 
Q 1688 409 2113 409 
Q 2538 409 2786 701 
Q 3034 994 3034 1497 
Q 3034 2003 2786 2293 
Q 2538 2584 2113 2584 
z
M 3366 4563 
L 3366 3988 
Q 3128 4100 2886 4159 
Q 2644 4219 2406 4219 
Q 1781 4219 1451 3797 
Q 1122 3375 1075 2522 
Q 1259 2794 1537 2939 
Q 1816 3084 2150 3084 
Q 2853 3084 3261 2657 
Q 3669 2231 3669 1497 
Q 3669 778 3244 343 
Q 2819 -91 2113 -91 
Q 1303 -91 875 529 
Q 447 1150 447 2328 
Q 447 3434 972 4092 
Q 1497 4750 2381 4750 
Q 2619 4750 2861 4703 
Q 3103 4656 3366 4563 
z
" transform="scale(0.015625)"/>
       </defs>
       <use xlink:href="#DejaVuSans-36"/>
       <use xlink:href="#DejaVuSans-30" x="63.623047"/>
      </g>
     </g>
    </g>
    <g id="xtick_4">
     <g id="line2d_7">
      <path d="M 660.554592 462.04 
L 660.554592 25.44 
" clip-path="url(#pea8118795e)" style="fill: none; stroke: #b0b0b0; stroke-opacity: 0.25; stroke-width: 0.8; stroke-linecap: square"/>
     </g>
     <g id="line2d_8">
      <g>
       <use xlink:href="#m4a3c6b2f7a" x="660.554592" y="462.04" style="stroke: #000000; stroke-width: 0.8"/>
      </g>
     </g>
     <g id="text_4">
      <!-- 80 -->
      <g transform="translate(654.192092 476.638438) scale(0.1 -0.1)">
       <defs>
        <path id="DejaVuSans-38" d="M 2034 2216 
Q 1584 2216 1326 1975 
Q 1069 1734 1069 1313 
Q 1069 891 1326 650 
Q 1584 409 2034 409 
Q 2484 409 2743 651 
Q 3003 894 3003 1313 
Q 3003 1734 2745 1975 
Q 2488 2216 2034 2216 
z
M 1403 2484 
Q 997 2584 770 2862 
Q 544 3141 544 3541 
Q 544 4100 942 4425 
Q 1341 4750 2034 4750 
Q 2731 4750 3128 4425 
Q 3525 4100 3525 3541 
Q 3525 3141 3298 2862 
Q 3072 2584 2669 2484 
Q 3125 2378 3379 2068 
Q 3634 1759 3634 1313 
Q 3634 634 3220 271 
Q 2806 -91 2034 -91 
Q 1263 -91 848 271 
Q 434 634 434 1313 
Q 434 1759 690 2068 
Q 947 2378 1403 2484 
z
M 1172 3481 
Q 1172 3119 1398 2916 
Q 1625 2713 2034 2713 
Q 2441 2713 2670 2916 
Q 2900 3119 2900 3481 
Q 2900 3844 2670 4047 
Q 2441 4250 2034 4250 
Q 1625 4250 1398 4047 
Q 1172 3844 1172 3481 
z
" transform="scale(0.015625)"/>
       </defs>
       <use xlink:href="#DejaVuSans-38"/>
       <use xlink:href="#DejaVuSans-30" x="63.623047"/>
      </g>
     </g>
    </g>
    <g id="xtick_5">
     <g id="line2d_9">
      <path d="M 817.176875 462.04 
L 817.176875 25.44 
" clip-path="url(#pea8118795e)" style="fill: none; stroke: #b0b0b0; stroke-opacity: 0.25; stroke-width: 0.8; stroke-linecap: square"/>
     </g>
     <g id="line2d_10">
      <g>
       <use xlink:href="#m4a3c6b2f7a" x="817.176875" y="462.04" style="stroke: #000000; stroke-width: 0.8"/>
      </g>
     </g>
     <g id="text_5">
      <!-- 100 -->
      <g transform="translate(807.633125 476.638438) scale(0.1 -0.1)">
       <defs>
        <path id="DejaVuSans-31" d="M 794 531 
L 1825 531 
L 1825 4091 
L 703 3866 
L 703 4441 
L 1819 4666 
L 2450 4666 
L 2450 531 
L 3481 531 
L 3481 0 
L 794 0 
L 794 531 
z
" transform="scale(0.015625)"/>
       </defs>
       <use xlink:href="#DejaVuSans-31"/>
       <use xlink:href="#DejaVuSans-30" x="63.623047"/>
       <use xlink:href="#DejaVuSans-30" x="127.246094"/>
      </g>
     </g>
    </g>
    <g id="text_6">
     <!-- an u52 limbs -->
     <g transform="translate(424.576094 490.316563) scale(0.1 -0.1)">
      <defs>
       <path id="DejaVuSans-61" d="M 2194 1759 
Q 1497 1759 1228 1600 
Q 959 1441 959 1056 
Q 959 750 1161 570 
Q 1363 391 1709 391 
Q 2188 391 2477 730 
Q 2766 1069 2766 1631 
L 2766 1759 
L 2194 1759 
z
M 3341 1997 
L 3341 0 
L 2766 0 
L 2766 531 
Q 2569 213 2275 61 
Q 1981 -91 1556 -91 
Q 1019 -91 701 211 
Q 384 513 384 1019 
Q 384 1609 779 1909 
Q 1175 2209 1959 2209 
L 2766 2209 
L 2766 2266 
Q 2766 2663 2505 2880 
Q 2244 3097 1772 3097 
Q 1472 3097 1187 3025 
Q 903 2953 641 2809 
L 641 3341 
Q 956 3463 1253 3523 
Q 1550 3584 1831 3584 
Q 2591 3584 2966 3190 
Q 3341 2797 3341 1997 
z
" transform="scale(0.015625)"/>
       <path id="DejaVuSans-6e" d="M 3513 2113 
L 3513 0 
L 2938 0 
L 2938 2094 
Q 2938 2591 2744 2837 
Q 2550 3084 2163 3084 
Q 1697 3084 1428 2787 
Q 1159 2491 1159 1978 
L 1159 0 
L 581 0 
L 581 3500 
L 1159 3500 
L 1159 2956 
Q 1366 3272 1645 3428 
Q 1925 3584 2291 3584 
Q 2894 3584 3203 3211 
Q 3513 2838 3513 2113 
z
" transform="scale(0.015625)"/>
       <path id="DejaVuSans-20" transform="scale(0.015625)"/>
       <path id="DejaVuSans-75" d="M 544 1381 
L 544 3500 
L 1119 3500 
L 1119 1403 
Q 1119 906 1312 657 
Q 1506 409 1894 409 
Q 2359 409 2629 706 
Q 2900 1003 2900 1516 
L 2900 3500 
L 3475 3500 
L 3475 0 
L 2900 0 
L 2900 538 
Q 2691 219 2414 64 
Q 2138 -91 1772 -91 
Q 1169 -91 856 284 
Q 544 659 544 1381 
z
M 1991 3584 
L 1991 3584 
z
" transform="scale(0.015625)"/>
       <path id="DejaVuSans-35" d="M 691 4666 
L 3169 4666 
L 3169 4134 
L 1269 4134 
L 1269 2991 
Q 1406 3038 1543 3061 
Q 1681 3084 1819 3084 
Q 2600 3084 3056 2656 
Q 3513 2228 3513 1497 
Q 3513 744 3044 326 
Q 2575 -91 1722 -91 
Q 1428 -91 1123 -41 
Q 819 9 494 109 
L 494 744 
Q 775 591 1075 516 
Q 1375 441 1709 441 
Q 2250 441 2565 725 
Q 2881 1009 2881 1497 
Q 2881 1984 2565 2268 
Q 2250 2553 1709 2553 
Q 1456 2553 1204 2497 
Q 953 2441 691 2322 
L 691 4666 
z
" transform="scale(0.015625)"/>
       <path id="DejaVuSans-6c" d="M 603 4863 
L 1178 4863 
L 1178 0 
L 603 0 
L 603 4863 
z
" transform="scale(0.015625)"/>
       <path id="DejaVuSans-69" d="M 603 3500 
L 1178 3500 
L 1178 0 
L 603 0 
L 603 3500 
z
M 603 4863 
L 1178 4863 
L 1178 4134 
L 603 4134 
L 603 4863 
z
" transform="scale(0.015625)"/>
       <path id="DejaVuSans-6d" d="M 3328 2828 
Q 3544 3216 3844 3400 
Q 4144 3584 4550 3584 
Q 5097 3584 5394 3201 
Q 5691 2819 5691 2113 
L 5691 0 
L 5113 0 
L 5113 2094 
Q 5113 2597 4934 2840 
Q 4756 3084 4391 3084 
Q 3944 3084 3684 2787 
Q 3425 2491 3425 1978 
L 3425 0 
L 2847 0 
L 2847 2094 
Q 2847 2600 2669 2842 
Q 2491 3084 2119 3084 
Q 1678 3084 1418 2786 
Q 1159 2488 1159 1978 
L 1159 0 
L 581 0 
L 581 3500 
L 1159 3500 
L 1159 2956 
Q 1356 3278 1631 3431 
Q 1906 3584 2284 3584 
Q 2666 3584 2933 3390 
Q 3200 3197 3328 2828 
z
" transform="scale(0.015625)"/>
       <path id="DejaVuSans-62" d="M 3116 1747 
Q 3116 2381 2855 2742 
Q 2594 3103 2138 3103 
Q 1681 3103 1420 2742 
Q 1159 2381 1159 1747 
Q 1159 1113 1420 752 
Q 1681 391 2138 391 
Q 2594 391 2855 752 
Q 3116 1113 3116 1747 
z
M 1159 2969 
Q 1341 3281 1617 3432 
Q 1894 3584 2278 3584 
Q 2916 3584 3314 3078 
Q 3713 2572 3713 1747 
Q 3713 922 3314 415 
Q 2916 -91 2278 -91 
Q 1894 -91 1617 61 
Q 1341 213 1159 525 
L 1159 0 
L 581 0 
L 581 4863 
L 1159 4863 
L 1159 2969 
z
" transform="scale(0.015625)"/>
       <path id="DejaVuSans-73" d="M 2834 3397 
L 2834 2853 
Q 2591 2978 2328 3040 
Q 2066 3103 1784 3103 
Q 1356 3103 1142 2972 
Q 928 2841 928 2578 
Q 928 2378 1081 2264 
Q 1234 2150 1697 2047 
L 1894 2003 
Q 2506 1872 2764 1633 
Q 3022 1394 3022 966 
Q 3022 478 2636 193 
Q 2250 -91 1575 -91 
Q 1294 -91 989 -36 
Q 684 19 347 128 
L 347 722 
Q 666 556 975 473 
Q 1284 391 1588 391 
Q 1994 391 2212 530 
Q 2431 669 2431 922 
Q 2431 1156 2273 1281 
Q 2116 1406 1581 1522 
L 1381 1569 
Q 847 1681 609 1914 
Q 372 2147 372 2553 
Q 372 3047 722 3315 
Q 1072 3584 1716 3584 
Q 2034 3584 2315 3537 
Q 2597 3491 2834 3397 
z
" transform="scale(0.015625)"/>
      </defs>
      <use xlink:href="#DejaVuSans-61"/>
      <use xlink:href="#DejaVuSans-6e" x="61.279297"/>
      <use xlink:href="#DejaVuSans-20" x="124.658203"/>
      <use xlink:href="#DejaVuSans-75" x="156.445312"/>
      <use xlink:href="#DejaVuSans-35" x="219.824219"/>
      <use xlink:href="#DejaVuSans-32" x="283.447266"/>
      <use xlink:href="#DejaVuSans-20" x="347.070312"/>
      <use xlink:href="#DejaVuSans-6c" x="378.857422"/>
      <use xlink:href="#DejaVuSans-69" x="406.640625"/>
      <use xlink:href="#DejaVuSans-6d" x="434.423828"/>
      <use xlink:href="#DejaVuSans-62" x="531.835938"/>
      <use xlink:href="#DejaVuSans-73" x="595.3125"/>
     </g>
    </g>
   </g>
   <g id="matplotlib.axis_2">
    <g id="ytick_1">
     <g id="line2d_11">
      <path d="M 60.69125 462.04 
L 853.2 462.04 
" clip-path="url(#pea8118795e)" style="fill: none; stroke: #b0b0b0; stroke-opacity: 0.25; stroke-width: 0.8; stroke-linecap: square"/>
     </g>
     <g id="line2d_12">
      <defs>
       <path id="mfd063d4dff" d="M 0 0 
L -3.5 0 
" style="stroke: #000000; stroke-width: 0.8"/>
      </defs>
      <g>
       <use xlink:href="#mfd063d4dff" x="60.69125" y="462.04" style="stroke: #000000; stroke-width: 0.8"/>
      </g>
     </g>
     <g id="text_7">
      <!-- 0.000 -->
      <g transform="translate(25.063125 465.839219) scale(0.1 -0.1)">
       <defs>
        <path id="DejaVuSans-2e" d="M 684 794 
L 1344 794 
L 1344 0 
L 684 0 
L 684 794 
z
" transform="scale(0.015625)"/>
       </defs>
       <use xlink:href="#DejaVuSans-30"/>
       <use xlink:href="#DejaVuSans-2e" x="63.623047"/>
       <use xlink:href="#DejaVuSans-30" x="95.410156"/>
       <use xlink:href="#DejaVuSans-30" x="159.033203"/>
       <use xlink:href="#DejaVuSans-30" x="222.65625"/>
      </g>
     </g>
    </g>
    <g id="ytick_2">
     <g id="line2d_13">
      <path d="M 60.69125 407.465 
L 853.2 407.465 
" clip-path="url(#pea8118795e)" style="fill: none; stroke: #b0b0b0; stroke-opacity: 0.25; stroke-width: 0.8; stroke-linecap: square"/>
     </g>
     <g id="line2d_14">
      <g>
       <use xlink:href="#mfd063d4dff" x="60.69125" y="407.465" style="stroke: #000000; stroke-width: 0.8"/>
      </g>
     </g>
     <g id="text_8">
      <!-- 0.025 -->
      <g transform="translate(25.063125 411.264219) scale(0.1 -0.1)">
       <use xlink:href="#DejaVuSans-30"/>
       <use xlink:href="#DejaVuSans-2e" x="63.623047"/>
       <use xlink:href="#DejaVuSans-30" x="95.410156"/>
       <use xlink:href="#DejaVuSans-32" x="159.033203"/>
       <use xlink:href="#DejaVuSans-35" x="222.65625"/>
      </g>
     </g>
    </g>
    <g id="ytick_3">
     <g id="line2d_15">
      <path d="M 60.69125 352.89 
L 853.2 352.89 
" clip-path="url(#pea8118795e)" style="fill: none; stroke: #b0b0b0; stroke-opacity: 0.25; stroke-width: 0.8; stroke-linecap: square"/>
     </g>
     <g id="line2d_16">
      <g>
       <use xlink:href="#mfd063d4dff" x="60.69125" y="352.89" style="stroke: #000000; stroke-width: 0.8"/>
      </g>
     </g>
     <g id="text_9">
      <!-- 0.050 -->
      <g transform="translate(25.063125 356.689219) scale(0.1 -0.1)">
       <use xlink:href="#DejaVuSans-30"/>
       <use xlink:href="#DejaVuSans-2e" x="63.623047"/>
       <use xlink:href="#DejaVuSans-30" x="95.410156"/>
       <use xlink:href="#DejaVuSans-35" x="159.033203"/>
       <use xlink:href="#DejaVuSans-30" x="222.65625"/>
      </g>
     </g>
    </g>
    <g id="ytick_4">
     <g id="line2d_17">
      <path d="M 60.69125 298.315 
L 853.2 298.315 
" clip-path="url(#pea8118795e)" style="fill: none; stroke: #b0b0b0; stroke-opacity: 0.25; stroke-width: 0.8; stroke-linecap: square"/>
     </g>
     <g id="line2d_18">
      <g>
       <use xlink:href="#mfd063d4dff" x="60.69125" y="298.315" style="stroke: #000000; stroke-width: 0.8"/>
      </g>
     </g>
     <g id="text_10">
      <!-- 0.075 -->
      <g transform="translate(25.063125 302.114219) scale(0.1 -0.1)">
       <defs>
        <path id="DejaVuSans-37" d="M 525 4666 
L 3525 4666 
L 3525 4397 
L 1831 0 
L 1172 0 
L 2766 4134 
L 525 4134 
L 525 4666 
z
" transform="scale(0.015625)"/>
       </defs>
       <use xlink:href="#DejaVuSans-30"/>
       <use xlink:href="#DejaVuSans-2e" x="63.623047"/>
       <use xlink:href="#DejaVuSans-30" x="95.410156"/>
       <use xlink:href="#DejaVuSans-37" x="159.033203"/>
       <use xlink:href="#DejaVuSans-35" x="222.65625"/>
      </g>
     </g>
    </g>
    <g id="ytick_5">
     <g id="line2d_19">
      <path d="M 60.69125 243.74 
L 853.2 243.74 
" clip-path="url(#pea8118795e)" style="fill: none; stroke: #b0b0b0; stroke-opacity: 0.25; stroke-width: 0.8; stroke-linecap: square"/>
     </g>
     <g id="line2d_20">
      <g>
       <use xlink:href="#mfd063d4dff" x="60.69125" y="243.74" style="stroke: #000000; stroke-width: 0.8"/>
      </g>
     </g>
     <g id="text_11">
      <!-- 0.100 -->
      <g transform="translate(25.063125 247.539219) scale(0.1 -0.1)">
       <use xlink:href="#DejaVuSans-30"/>
       <use xlink:href="#DejaVuSans-2e" x="63.623047"/>
       <use xlink:href="#DejaVuSans-31" x="95.410156"/>
       <use xlink:href="#DejaVuSans-30" x="159.033203"/>
       <use xlink:href="#DejaVuSans-30" x="222.65625"/>
      </g>
     </g>
    </g>
    <g id="ytick_6">
     <g id="line2d_21">
      <path d="M 60.69125 189.165 
L 853.2 189.165 
" clip-path="url(#pea8118795e)" style="fill: none; stroke: #b0b0b0; stroke-opacity: 0.25; stroke-width: 0.8; stroke-linecap: square"/>
     </g>
     <g id="line2d_22">
      <g>
       <use xlink:href="#mfd063d4dff" x="60.69125" y="189.165" style="stroke: #000000; stroke-width: 0.8"/>
      </g>
     </g>
     <g id="text_12">
      <!-- 0.125 -->
      <g transform="translate(25.063125 192.964219) scale(0.1 -0.1)">
       <use xlink:href="#DejaVuSans-30"/>
       <use xlink:href="#DejaVuSans-2e" x="63.623047"/>
       <use xlink:href="#DejaVuSans-31" x="95.410156"/>
       <use xlink:href="#DejaVuSans-32" x="159.033203"/>
       <use xlink:href="#DejaVuSans-35" x="222.65625"/>
      </g>
     </g>
    </g>
    <g id="ytick_7">
     <g id="line2d_23">
      <path d="M 60.69125 134.59 
L 853.2 134.59 
" clip-path="url(#pea8118795e)" style="fill: none; stroke: #b0b0b0; stroke-opacity: 0.25; stroke-width: 0.8; stroke-linecap: square"/>
     </g>
     <g id="line2d_24">
      <g>
       <use xlink:href="#mfd063d4dff" x="60.69125" y="134.59" style="stroke: #000000; stroke-width: 0.8"/>
      </g>
     </g>
     <g id="text_13">
      <!-- 0.150 -->
      <g transform="translate(25.063125 138.389219) scale(0.1 -0.1)">
       <use xlink:href="#DejaVuSans-30"/>
       <use xlink:href="#DejaVuSans-2e" x="63.623047"/>
       <use xlink:href="#DejaVuSans-31" x="95.410156"/>
       <use xlink:href="#DejaVuSans-35" x="159.033203"/>
       <use xlink:href="#DejaVuSans-30" x="222.65625"/>
      </g>
     </g>
    </g>
    <g id="ytick_8">
     <g id="line2d_25">
      <path d="M 60.69125 80.015 
L 853.2 80.015 
" clip-path="url(#pea8118795e)" style="fill: none; stroke: #b0b0b0; stroke-opacity: 0.25; stroke-width: 0.8; stroke-linecap: square"/>
     </g>
     <g id="line2d_26">
      <g>
       <use xlink:href="#mfd063d4dff" x="60.69125" y="80.015" style="stroke: #000000; stroke-width: 0.8"/>
      </g>
     </g>
     <g id="text_14">
      <!-- 0.175 -->
      <g transform="translate(25.063125 83.814219) scale(0.1 -0.1)">
       <use xlink:href="#DejaVuSans-30"/>
       <use xlink:href="#DejaVuSans-2e" x="63.623047"/>
       <use xlink:href="#DejaVuSans-31" x="95.410156"/>
       <use xlink:href="#DejaVuSans-37" x="159.033203"/>
       <use xlink:href="#DejaVuSans-35" x="222.65625"/>
      </g>
     </g>
    </g>
    <g id="ytick_9">
     <g id="line2d_27">
      <path d="M 60.69125 25.44 
L 853.2 25.44 
" clip-path="url(#pea8118795e)" style="fill: none; stroke: #b0b0b0; stroke-opacity: 0.25; stroke-width: 0.8; stroke-linecap: square"/>
     </g>
     <g id="line2d_28">
      <g>
       <use xlink:href="#mfd063d4dff" x="60.69125" y="25.44" style="stroke: #000000; stroke-width: 0.8"/>
      </g>
     </g>
     <g id="text_15">
      <!-- 0.200 -->
      <g transform="translate(25.063125 29.239219) scale(0.1 -0.1)">
       <use xlink:href="#DejaVuSans-30"/>
       <use xlink:href="#DejaVuSans-2e" x="63.623047"/>
       <use xlink:href="#DejaVuSans-32" x="95.410156"/>
       <use xlink:href="#DejaVuSans-30" x="159.033203"/>
       <use xlink:href="#DejaVuSans-30" x="222.65625"/>
      </g>
     </g>
    </g>
    <g id="text_16">
     <!-- total_ns / (an * bn) -->
     <g transform="translate(18.705312 290.464219) rotate(-90) scale(0.1 -0.1)">
      <defs>
       <path id="DejaVuSans-74" d="M 1172 4494 
L 1172 3500 
L 2356 3500 
L 2356 3053 
L 1172 3053 
L 1172 1153 
Q 1172 725 1289 603 
Q 1406 481 1766 481 
L 2356 481 
L 2356 0 
L 1766 0 
Q 1100 0 847 248 
Q 594 497 594 1153 
L 594 3053 
L 172 3053 
L 172 3500 
L 594 3500 
L 594 4494 
L 1172 4494 
z
" transform="scale(0.015625)"/>
       <path id="DejaVuSans-6f" d="M 1959 3097 
Q 1497 3097 1228 2736 
Q 959 2375 959 1747 
Q 959 1119 1226 758 
Q 1494 397 1959 397 
Q 2419 397 2687 759 
Q 2956 1122 2956 1747 
Q 2956 2369 2687 2733 
Q 2419 3097 1959 3097 
z
M 1959 3584 
Q 2709 3584 3137 3096 
Q 3566 2609 3566 1747 
Q 3566 888 3137 398 
Q 2709 -91 1959 -91 
Q 1206 -91 779 398 
Q 353 888 353 1747 
Q 353 2609 779 3096 
Q 1206 3584 1959 3584 
z
" transform="scale(0.015625)"/>
       <path id="DejaVuSans-5f" d="M 3263 -1063 
L 3263 -1509 
L -63 -1509 
L -63 -1063 
L 3263 -1063 
z
" transform="scale(0.015625)"/>
       <path id="DejaVuSans-2f" d="M 1625 4666 
L 2156 4666 
L 531 -594 
L 0 -594 
L 1625 4666 
z
" transform="scale(0.015625)"/>
       <path id="DejaVuSans-28" d="M 1984 4856 
Q 1566 4138 1362 3434 
Q 1159 2731 1159 2009 
Q 1159 1288 1364 580 
Q 1569 -128 1984 -844 
L 1484 -844 
Q 1016 -109 783 600 
Q 550 1309 550 2009 
Q 550 2706 781 3412 
Q 1013 4119 1484 4856 
L 1984 4856 
z
" transform="scale(0.015625)"/>
       <path id="DejaVuSans-2a" d="M 3009 3897 
L 1888 3291 
L 3009 2681 
L 2828 2375 
L 1778 3009 
L 1778 1831 
L 1422 1831 
L 1422 3009 
L 372 2375 
L 191 2681 
L 1313 3291 
L 191 3897 
L 372 4206 
L 1422 3572 
L 1422 4750 
L 1778 4750 
L 1778 3572 
L 2828 4206 
L 3009 3897 
z
" transform="scale(0.015625)"/>
       <path id="DejaVuSans-29" d="M 513 4856 
L 1013 4856 
Q 1481 4119 1714 3412 
Q 1947 2706 1947 2009 
Q 1947 1309 1714 600 
Q 1481 -109 1013 -844 
L 513 -844 
Q 928 -128 1133 580 
Q 1338 1288 1338 2009 
Q 1338 2731 1133 3434 
Q 928 4138 513 4856 
z
" transform="scale(0.015625)"/>
      </defs>
      <use xlink:href="#DejaVuSans-74"/>
      <use xlink:href="#DejaVuSans-6f" x="39.208984"/>
      <use xlink:href="#DejaVuSans-74" x="100.390625"/>
      <use xlink:href="#DejaVuSans-61" x="139.599609"/>
      <use xlink:href="#DejaVuSans-6c" x="200.878906"/>
      <use xlink:href="#DejaVuSans-5f" x="228.662109"/>
      <use xlink:href="#DejaVuSans-6e" x="278.662109"/>
      <use xlink:href="#DejaVuSans-73" x="342.041016"/>
      <use xlink:href="#DejaVuSans-20" x="394.140625"/>
      <use xlink:href="#DejaVuSans-2f" x="425.927734"/>
      <use xlink:href="#DejaVuSans-20" x="459.619141"/>
      <use xlink:href="#DejaVuSans-28" x="491.40625"/>
      <use xlink:href="#DejaVuSans-61" x="530.419922"/>
      <use xlink:href="#DejaVuSans-6e" x="591.699219"/>
      <use xlink:href="#DejaVuSans-20" x="655.078125"/>
      <use xlink:href="#DejaVuSans-2a" x="686.865234"/>
      <use xlink:href="#DejaVuSans-20" x="736.865234"/>
      <use xlink:href="#DejaVuSans-62" x="768.652344"/>
      <use xlink:href="#DejaVuSans-6e" x="832.128906"/>
      <use xlink:href="#DejaVuSans-29" x="895.507812"/>
     </g>
    </g>
   </g>
   <g id="line2d_29">
    <path d="M 141.190259 -1 
L 143.70106 6.384488 
L 151.532174 48.485396 
L 159.363288 72.850101 
L 167.194402 33.204756 
L 175.025516 63.874319 
L 182.85663 73.418797 
L 190.687745 97.065673 
L 198.518859 115.790698 
L 206.349973 120.059511 
L 214.181087 137.875976 
L 222.012201 141.128834 
L 229.843315 107.352864 
L 237.674429 120.371233 
L 245.505543 131.171346 
L 253.336658 120.432841 
L 261.167772 132.697236 
L 268.998886 185.773192 
L 276.83 150.603578 
L 284.661114 198.041864 
L 292.492228 156.629489 
L 300.323342 161.352152 
L 308.154457 161.824062 
L 315.985571 181.167499 
L 323.816685 184.299067 
L 331.647799 196.603387 
L 339.478913 212.189767 
L 347.310027 211.162122 
L 355.141141 175.074672 
L 362.972255 170.991435 
L 370.80337 154.281466 
L 378.634484 192.29795 
L 386.465598 193.318572 
L 394.296712 198.180779 
L 402.127826 203.089514 
L 409.95894 193.974162 
L 417.790054 134.973752 
L 425.621168 162.584766 
L 433.452283 170.94213 
L 441.283397 184.965262 
L 449.114511 188.443187 
L 456.945625 179.86461 
L 464.776739 195.227169 
L 472.607853 188.654185 
L 480.438967 186.406734 
L 488.270082 194.461045 
L 496.101196 194.662034 
L 503.93231 209.38115 
L 511.763424 201.53343 
L 519.594538 199.19795 
L 527.425652 198.64888 
L 535.256766 202.107027 
L 543.08788 159.008785 
L 550.918995 180.066854 
L 558.750109 159.013328 
L 566.581223 181.67108 
L 574.412337 195.875898 
L 582.243451 197.437396 
L 590.074565 202.176643 
L 597.905679 208.317114 
L 605.736793 184.103256 
L 613.567908 178.930107 
L 621.399022 191.213931 
L 629.230136 198.786461 
L 637.06125 194.794193 
L 644.892364 202.373955 
L 652.723478 199.906093 
L 660.554592 207.905079 
L 668.385707 182.079938 
L 676.216821 172.541911 
L 684.047935 184.875422 
L 691.879049 188.38516 
L 699.710163 195.245192 
L 707.541277 196.96156 
L 715.372391 198.529033 
L 723.203505 201.666563 
L 731.03462 179.336468 
L 738.865734 186.099944 
L 746.696848 198.107568 
L 754.527962 194.247371 
L 762.359076 204.744964 
L 770.19019 201.571583 
L 778.021304 199.214873 
L 785.852418 208.278064 
L 793.683533 185.626597 
L 801.514647 188.260989 
L 809.345761 194.066392 
L 817.176875 190.286444 
" clip-path="url(#pea8118795e)" style="fill: none; stroke: #1f77b4; stroke-width: 1.6; stroke-linecap: square"/>
   </g>
   <g id="line2d_30">
    <path d="M 96.714375 99.243154 
L 104.545489 57.871137 
L 112.376603 67.074645 
L 120.207717 130.781791 
L 128.038832 159.497111 
L 135.869946 182.212138 
L 143.70106 200.128923 
L 151.532174 209.314727 
L 159.363288 235.22826 
L 167.194402 200.476987 
L 175.025516 215.041699 
L 182.85663 226.247326 
L 190.687745 237.44926 
L 198.518859 248.848039 
L 206.349973 249.370149 
L 214.181087 264.333553 
L 222.012201 276.926782 
L 229.843315 235.380243 
L 237.674429 243.405538 
L 245.505543 251.635998 
L 253.336658 258.307249 
L 261.167772 267.290621 
L 268.998886 271.091084 
L 276.83 280.962617 
L 284.661114 282.560881 
L 292.492228 254.755193 
L 300.323342 261.886369 
L 308.154457 266.201535 
L 315.985571 268.590857 
L 323.816685 274.712341 
L 331.647799 255.674568 
L 339.478913 269.866799 
L 347.310027 284.741632 
L 355.141141 257.128125 
L 362.972255 262.215358 
L 370.80337 266.141431 
L 378.634484 270.384524 
L 386.465598 277.143524 
L 394.296712 280.573639 
L 402.127826 286.418626 
L 409.95894 286.759567 
L 417.790054 260.380328 
L 425.621168 264.627453 
L 433.452283 269.460097 
L 441.283397 273.309586 
L 449.114511 276.217113 
L 456.945625 279.81976 
L 464.776739 285.794043 
L 472.607853 290.330219 
L 480.438967 268.154744 
L 488.270082 275.426273 
L 496.101196 273.865158 
L 503.93231 281.098921 
L 511.763424 284.538242 
L 519.594538 281.549798 
L 527.425652 288.407898 
L 535.256766 292.034924 
L 543.08788 265.288391 
L 550.918995 280.358033 
L 558.750109 284.51916 
L 566.581223 284.232915 
L 574.412337 288.291173 
L 582.243451 289.320887 
L 590.074565 292.997081 
L 597.905679 294.616302 
L 605.736793 284.297199 
L 613.567908 283.227717 
L 621.399022 286.932864 
L 629.230136 258.761679 
L 637.06125 295.134247 
L 644.892364 291.602535 
L 652.723478 295.637978 
L 660.554592 296.501864 
L 668.385707 287.79292 
L 676.216821 286.815238 
L 684.047935 290.672241 
L 691.879049 291.891533 
L 699.710163 294.994801 
L 707.541277 295.496304 
L 715.372391 300.000662 
L 723.203505 299.972342 
L 731.03462 289.381186 
L 738.865734 289.973541 
L 746.696848 295.12901 
L 754.527962 294.681309 
L 762.359076 295.980423 
L 770.19019 301.12608 
L 778.021304 302.361413 
L 785.852418 301.922824 
L 793.683533 292.685222 
L 801.514647 294.655161 
L 809.345761 294.67187 
L 817.176875 298.712195 
" clip-path="url(#pea8118795e)" style="fill: none; stroke: #ff7f0e; stroke-width: 1.6; stroke-linecap: square"/>
   </g>
   <g id="line2d_31">
    <path d="M 96.714375 180.754809 
L 104.545489 109.600247 
L 112.376603 142.449706 
L 120.207717 175.045869 
L 128.038832 200.109702 
L 135.869946 219.357364 
L 143.70106 238.160422 
L 151.532174 254.234504 
L 159.363288 265.206633 
L 167.194402 213.886141 
L 175.025516 227.513158 
L 182.85663 239.347719 
L 190.687745 252.446431 
L 198.518859 263.205839 
L 206.349973 268.778955 
L 214.181087 279.745653 
L 222.012201 284.172589 
L 229.843315 237.224317 
L 237.674429 255.288266 
L 245.505543 264.315174 
L 253.336658 271.380947 
L 261.167772 277.802187 
L 268.998886 283.616117 
L 276.83 284.34669 
L 284.661114 291.855918 
L 292.492228 262.845086 
L 300.323342 268.786585 
L 308.154457 274.781919 
L 315.985571 264.994937 
L 323.816685 281.689547 
L 331.647799 288.865817 
L 339.478913 294.339619 
L 347.310027 295.806997 
L 355.141141 270.111699 
L 362.972255 275.184615 
L 370.80337 279.104641 
L 378.634484 282.971913 
L 386.465598 289.666583 
L 394.296712 275.737905 
L 402.127826 290.065092 
L 409.95894 295.316401 
L 417.790054 275.193024 
L 425.621168 286.14097 
L 433.452283 290.297505 
L 441.283397 293.536328 
L 449.114511 297.801292 
L 456.945625 300.273297 
L 464.776739 303.075442 
L 472.607853 305.929195 
L 480.438967 288.127524 
L 488.270082 290.250293 
L 496.101196 296.226605 
L 503.93231 296.784652 
L 511.763424 300.317889 
L 519.594538 303.766106 
L 527.425652 305.027334 
L 535.256766 306.936296 
L 543.08788 293.189475 
L 550.918995 275.931548 
L 558.750109 296.000695 
L 566.581223 300.392 
L 574.412337 302.757815 
L 582.243451 304.226708 
L 590.074565 306.193443 
L 597.905679 309.031766 
L 605.736793 297.308775 
L 613.567908 299.137463 
L 621.399022 300.518752 
L 629.230136 303.063499 
L 637.06125 288.957125 
L 644.892364 308.139443 
L 652.723478 301.65566 
L 660.554592 310.632829 
L 668.385707 298.818692 
L 676.216821 300.126787 
L 684.047935 302.414172 
L 691.879049 305.148139 
L 699.710163 306.759567 
L 707.541277 305.748573 
L 715.372391 309.60638 
L 723.203505 311.565389 
L 731.03462 299.20752 
L 738.865734 303.624388 
L 746.696848 304.543149 
L 754.527962 306.909065 
L 762.359076 308.463116 
L 770.19019 310.750953 
L 778.021304 309.952898 
L 785.852418 313.529818 
L 793.683533 302.679708 
L 801.514647 304.51284 
L 809.345761 306.142293 
L 817.176875 307.869017 
" clip-path="url(#pea8118795e)" style="fill: none; stroke: #2ca02c; stroke-width: 1.6; stroke-linecap: square"/>
   </g>
   <g id="line2d_32">
    <path d="M 96.714375 223.816327 
L 104.545489 138.051478 
L 112.376603 172.699683 
L 120.207717 199.460565 
L 128.038832 217.583368 
L 135.869946 238.975229 
L 143.70106 255.37258 
L 151.532174 269.0723 
L 159.363288 280.659285 
L 167.194402 226.595279 
L 175.025516 241.191193 
L 182.85663 254.722415 
L 190.687745 261.659843 
L 198.518859 272.698785 
L 206.349973 282.96417 
L 214.181087 290.134568 
L 222.012201 295.265072 
L 229.843315 258.164806 
L 237.674429 264.573327 
L 245.505543 269.031448 
L 253.336658 278.568549 
L 261.167772 284.88098 
L 268.998886 290.932249 
L 276.83 297.084858 
L 284.661114 299.34223 
L 292.492228 271.973739 
L 300.323342 275.395469 
L 308.154457 283.146811 
L 315.985571 284.678626 
L 323.816685 291.257789 
L 331.647799 295.097692 
L 339.478913 300.899176 
L 347.310027 303.863782 
L 355.141141 282.484733 
L 362.972255 283.257792 
L 370.80337 277.964129 
L 378.634484 293.013637 
L 386.465598 290.901366 
L 394.296712 301.288331 
L 402.127826 305.703267 
L 409.95894 307.828182 
L 417.790054 286.273884 
L 425.621168 287.569632 
L 433.452283 296.229351 
L 441.283397 298.749138 
L 449.114511 288.180774 
L 456.945625 301.685617 
L 464.776739 307.341891 
L 472.607853 309.095739 
L 480.438967 294.587562 
L 488.270082 295.692848 
L 496.101196 297.7421 
L 503.93231 300.354498 
L 511.763424 304.066869 
L 519.594538 307.030944 
L 527.425652 309.467493 
L 535.256766 311.688737 
L 543.08788 295.286168 
L 550.918995 298.325574 
L 558.750109 302.147828 
L 566.581223 302.544779 
L 574.412337 305.065705 
L 582.243451 309.068379 
L 590.074565 310.067298 
L 597.905679 306.946241 
L 605.736793 303.978953 
L 613.567908 298.989595 
L 621.399022 290.923694 
L 629.230136 294.421268 
L 637.06125 308.075051 
L 644.892364 308.024593 
L 652.723478 310.000761 
L 660.554592 313.658877 
L 668.385707 299.561349 
L 676.216821 305.920424 
L 684.047935 303.791274 
L 691.879049 308.089258 
L 699.710163 307.911595 
L 707.541277 309.504445 
L 715.372391 313.491875 
L 723.203505 314.232537 
L 731.03462 303.310678 
L 738.865734 304.789555 
L 746.696848 306.118601 
L 754.527962 307.879884 
L 762.359076 297.690049 
L 770.19019 312.007488 
L 778.021304 313.205813 
L 785.852418 302.900389 
L 793.683533 305.909476 
L 801.514647 306.120079 
L 809.345761 307.224447 
L 817.176875 309.551425 
" clip-path="url(#pea8118795e)" style="fill: none; stroke: #d62728; stroke-width: 1.6; stroke-linecap: square"/>
   </g>
   <g id="line2d_33">
    <path d="M 96.714375 233.699678 
L 104.545489 144.779388 
L 112.376603 180.220967 
L 120.207717 208.213509 
L 128.038832 225.516879 
L 135.869946 242.837124 
L 143.70106 259.176449 
L 151.532174 270.58276 
L 159.363288 276.949355 
L 167.194402 232.596894 
L 175.025516 246.648107 
L 182.85663 255.086062 
L 190.687745 262.717288 
L 198.518859 274.869381 
L 206.349973 283.788805 
L 214.181087 291.286668 
L 222.012201 296.412361 
L 229.843315 259.131975 
L 237.674429 264.016018 
L 245.505543 272.700997 
L 253.336658 279.290098 
L 261.167772 288.034513 
L 268.998886 291.742059 
L 276.83 296.379594 
L 284.661114 300.523065 
L 292.492228 261.477006 
L 300.323342 276.9849 
L 308.154457 283.108028 
L 315.985571 287.926291 
L 323.816685 291.910914 
L 331.647799 296.629335 
L 339.478913 301.5081 
L 347.310027 306.18501 
L 355.141141 284.282761 
L 362.972255 285.76055 
L 370.80337 289.337797 
L 378.634484 296.050474 
L 386.465598 298.06697 
L 394.296712 301.705415 
L 402.127826 304.953243 
L 409.95894 307.729711 
L 417.790054 288.79629 
L 425.621168 274.331839 
L 433.452283 296.671162 
L 441.283397 297.19008 
L 449.114511 301.46933 
L 456.945625 305.195375 
L 464.776739 307.665333 
L 472.607853 312.199692 
L 480.438967 293.762792 
L 488.270082 296.09609 
L 496.101196 295.610232 
L 503.93231 299.761895 
L 511.763424 303.864481 
L 519.594538 306.123211 
L 527.425652 306.132703 
L 535.256766 308.331401 
L 543.08788 299.420938 
L 550.918995 300.042067 
L 558.750109 302.303431 
L 566.581223 305.136796 
L 574.412337 305.996108 
L 582.243451 307.595298 
L 590.074565 308.635268 
L 597.905679 312.339465 
L 605.736793 298.712481 
L 613.567908 301.481483 
L 621.399022 304.050865 
L 629.230136 306.300506 
L 637.06125 308.391339 
L 644.892364 298.627911 
L 652.723478 312.916271 
L 660.554592 303.937437 
L 668.385707 301.767807 
L 676.216821 306.200243 
L 684.047935 305.379612 
L 691.879049 308.611327 
L 699.710163 305.661616 
L 707.541277 310.515543 
L 715.372391 315.070857 
L 723.203505 304.008057 
L 731.03462 301.074731 
L 738.865734 306.44268 
L 746.696848 306.041414 
L 754.527962 310.401166 
L 762.359076 310.831501 
L 770.19019 311.538887 
L 778.021304 313.068685 
L 785.852418 316.80601 
L 793.683533 303.680949 
L 801.514647 306.148979 
L 809.345761 307.760732 
L 817.176875 310.095573 
" clip-path="url(#pea8118795e)" style="fill: none; stroke: #9467bd; stroke-width: 1.6; stroke-linecap: square"/>
   </g>
   <g id="line2d_34">
    <path d="M 96.714375 245.135954 
L 104.545489 155.596738 
L 112.376603 183.998481 
L 120.207717 210.604453 
L 128.038832 229.802715 
L 135.869946 250.393727 
L 143.70106 265.287243 
L 151.532174 280.696719 
L 159.363288 289.92045 
L 167.194402 233.359593 
L 175.025516 247.007833 
L 182.85663 255.885767 
L 190.687745 268.011886 
L 198.518859 276.237622 
L 206.349973 285.558605 
L 214.181087 293.669631 
L 222.012201 299.190139 
L 229.843315 261.687641 
L 237.674429 271.408032 
L 245.505543 275.867807 
L 253.336658 281.28269 
L 261.167772 292.000969 
L 268.998886 293.280432 
L 276.83 300.708611 
L 284.661114 302.571147 
L 292.492228 276.182504 
L 300.323342 282.054355 
L 308.154457 285.841085 
L 315.985571 291.904304 
L 323.816685 297.0652 
L 331.647799 299.784973 
L 339.478913 303.424412 
L 347.310027 308.029904 
L 355.141141 285.128303 
L 362.972255 289.347391 
L 370.80337 291.276181 
L 378.634484 299.278939 
L 386.465598 301.348069 
L 394.296712 305.220549 
L 402.127826 307.447853 
L 409.95894 310.364226 
L 417.790054 292.026384 
L 425.621168 296.386608 
L 433.452283 298.00807 
L 441.283397 300.839862 
L 449.114511 303.270855 
L 456.945625 307.029468 
L 464.776739 309.56649 
L 472.607853 312.008132 
L 480.438967 295.559751 
L 488.270082 300.776623 
L 496.101196 302.975144 
L 503.93231 302.795557 
L 511.763424 304.901661 
L 519.594538 310.035479 
L 527.425652 310.273077 
L 535.256766 311.968458 
L 543.08788 299.235425 
L 550.918995 302.078346 
L 558.750109 303.468552 
L 566.581223 307.262803 
L 574.412337 309.314519 
L 582.243451 311.619911 
L 590.074565 313.075411 
L 597.905679 315.223706 
L 605.736793 294.696217 
L 613.567908 302.68665 
L 621.399022 307.086569 
L 629.230136 306.427238 
L 637.06125 309.19219 
L 644.892364 311.869068 
L 652.723478 314.690179 
L 660.554592 315.724445 
L 668.385707 305.640262 
L 676.216821 306.631331 
L 684.047935 309.297645 
L 691.879049 311.00088 
L 699.710163 312.105103 
L 707.541277 314.594177 
L 715.372391 315.60174 
L 723.203505 317.88647 
L 731.03462 308.570177 
L 738.865734 309.24462 
L 746.696848 309.380396 
L 754.527962 310.471369 
L 762.359076 313.407965 
L 770.19019 317.207367 
L 778.021304 316.031078 
L 785.852418 316.774313 
L 793.683533 309.164143 
L 801.514647 309.9506 
L 809.345761 311.512521 
L 817.176875 313.253596 
" clip-path="url(#pea8118795e)" style="fill: none; stroke: #8c564b; stroke-width: 1.6; stroke-linecap: square"/>
   </g>
   <g id="line2d_35">
    <path d="M 96.714375 249.025108 
L 104.545489 154.015063 
L 112.376603 186.327353 
L 120.207717 208.942068 
L 128.038832 229.226178 
L 135.869946 247.604124 
L 143.70106 263.482353 
L 151.532174 274.367029 
L 159.363288 288.936965 
L 167.194402 233.320382 
L 175.025516 247.479018 
L 182.85663 260.035215 
L 190.687745 270.577265 
L 198.518859 280.147888 
L 206.349973 288.733538 
L 214.181087 296.473746 
L 222.012201 302.295194 
L 229.843315 266.001577 
L 237.674429 274.514659 
L 245.505543 282.595673 
L 253.336658 287.710534 
L 261.167772 294.209364 
L 268.998886 299.721038 
L 276.83 304.811097 
L 284.661114 310.187604 
L 292.492228 278.991842 
L 300.323342 284.498081 
L 308.154457 289.996091 
L 315.985571 293.835571 
L 323.816685 298.529932 
L 331.647799 303.504177 
L 339.478913 307.836803 
L 347.310027 311.545814 
L 355.141141 289.854952 
L 362.972255 293.952914 
L 370.80337 296.53246 
L 378.634484 301.409075 
L 386.465598 305.004101 
L 394.296712 307.461628 
L 402.127826 310.957493 
L 409.95894 314.776507 
L 417.790054 294.09744 
L 425.621168 298.106318 
L 433.452283 301.47658 
L 441.283397 303.827824 
L 449.114511 307.60893 
L 456.945625 310.815821 
L 464.776739 312.826436 
L 472.607853 315.354169 
L 480.438967 299.447169 
L 488.270082 301.80553 
L 496.101196 305.986745 
L 503.93231 307.507301 
L 511.763424 310.062655 
L 519.594538 312.103389 
L 527.425652 314.548432 
L 535.256766 317.508429 
L 543.08788 301.382449 
L 550.918995 304.04909 
L 558.750109 303.925166 
L 566.581223 308.988322 
L 574.412337 309.342686 
L 582.243451 311.580571 
L 590.074565 313.43952 
L 597.905679 316.996134 
L 605.736793 304.087289 
L 613.567908 305.066491 
L 621.399022 290.994137 
L 629.230136 301.211568 
L 637.06125 301.13083 
L 644.892364 312.921479 
L 652.723478 315.915979 
L 660.554592 316.803857 
L 668.385707 305.466877 
L 676.216821 308.539871 
L 684.047935 310.248754 
L 691.879049 312.259799 
L 699.710163 314.096036 
L 707.541277 316.161996 
L 715.372391 318.005385 
L 723.203505 319.50527 
L 731.03462 309.223713 
L 738.865734 310.876063 
L 746.696848 313.329892 
L 754.527962 314.176947 
L 762.359076 316.019113 
L 770.19019 317.407258 
L 778.021304 319.286343 
L 785.852418 320.690665 
L 793.683533 310.287319 
L 801.514647 312.402661 
L 809.345761 313.33084 
L 817.176875 315.304278 
" clip-path="url(#pea8118795e)" style="fill: none; stroke: #e377c2; stroke-width: 1.6; stroke-linecap: square"/>
   </g>
   <g id="line2d_36">
    <path d="M 96.714375 268.363345 
L 104.545489 167.652714 
L 112.376603 199.604599 
L 120.207717 221.394757 
L 128.038832 243.461962 
L 135.869946 260.591387 
L 143.70106 274.40917 
L 151.532174 286.168229 
L 159.363288 297.61052 
L 167.194402 246.473819 
L 175.025516 260.804365 
L 182.85663 270.43835 
L 190.687745 279.820321 
L 198.518859 289.246772 
L 206.349973 297.276994 
L 214.181087 304.542582 
L 222.012201 310.949073 
L 229.843315 274.209663 
L 237.674429 283.238244 
L 245.505543 287.494795 
L 253.336658 296.762234 
L 261.167772 301.479623 
L 268.998886 307.417946 
L 276.83 309.242338 
L 284.661114 316.181785 
L 292.492228 287.71371 
L 300.323342 292.893773 
L 308.154457 298.392641 
L 315.985571 302.921698 
L 323.816685 307.138361 
L 331.647799 311.116308 
L 339.478913 314.847959 
L 347.310027 318.611327 
L 355.141141 297.864298 
L 362.972255 297.300252 
L 370.80337 306.411446 
L 378.634484 307.025594 
L 386.465598 313.338602 
L 394.296712 313.602861 
L 402.127826 318.686053 
L 409.95894 323.987888 
L 417.790054 302.44975 
L 425.621168 306.53864 
L 433.452283 308.717008 
L 441.283397 311.920098 
L 449.114511 315.044669 
L 456.945625 317.613811 
L 464.776739 320.015074 
L 472.607853 321.09488 
L 480.438967 307.585972 
L 488.270082 313.069482 
L 496.101196 307.690503 
L 503.93231 314.563909 
L 511.763424 316.073773 
L 519.594538 321.825327 
L 527.425652 322.145923 
L 535.256766 323.262099 
L 543.08788 308.182003 
L 550.918995 312.017975 
L 558.750109 314.509476 
L 566.581223 317.274947 
L 574.412337 319.013555 
L 582.243451 320.711643 
L 590.074565 323.008668 
L 597.905679 324.419246 
L 605.736793 314.174351 
L 613.567908 313.397537 
L 621.399022 315.405827 
L 629.230136 318.180202 
L 637.06125 322.202694 
L 644.892364 321.118136 
L 652.723478 324.404002 
L 660.554592 325.836784 
L 668.385707 314.666556 
L 676.216821 311.787107 
L 684.047935 311.827953 
L 691.879049 311.81532 
L 699.710163 314.46775 
L 707.541277 316.620961 
L 715.372391 318.317595 
L 723.203505 320.435782 
L 731.03462 309.156767 
L 738.865734 308.931475 
L 746.696848 312.375817 
L 754.527962 314.151772 
L 762.359076 315.405059 
L 770.19019 315.084533 
L 778.021304 317.521942 
L 785.852418 320.018713 
L 793.683533 310.006205 
L 801.514647 311.334737 
L 809.345761 313.142512 
L 817.176875 314.36885 
" clip-path="url(#pea8118795e)" style="fill: none; stroke: #7f7f7f; stroke-width: 1.6; stroke-linecap: square"/>
   </g>
   <g id="patch_3">
    <path d="M 60.69125 462.04 
L 60.69125 25.44 
" style="fill: none; stroke: #000000; stroke-width: 0.8; stroke-linejoin: miter; stroke-linecap: square"/>
   </g>
   <g id="patch_4">
    <path d="M 853.2 462.04 
L 853.2 25.44 
" style="fill: none; stroke: #000000; stroke-width: 0.8; stroke-linejoin: miter; stroke-linecap: square"/>
   </g>
   <g id="patch_5">
    <path d="M 60.69125 462.04 
L 853.2 462.04 
" style="fill: none; stroke: #000000; stroke-width: 0.8; stroke-linejoin: miter; stroke-linecap: square"/>
   </g>
   <g id="patch_6">
    <path d="M 60.69125 25.44 
L 853.2 25.44 
" style="fill: none; stroke: #000000; stroke-width: 0.8; stroke-linejoin: miter; stroke-linecap: square"/>
   </g>
   <g id="text_17">
    <!-- mul_u52_1 sweep -->
    <g transform="translate(403.244687 19.44) scale(0.12 -0.12)">
     <defs>
      <path id="DejaVuSans-77" d="M 269 3500 
L 844 3500 
L 1563 769 
L 2278 3500 
L 2956 3500 
L 3675 769 
L 4391 3500 
L 4966 3500 
L 4050 0 
L 3372 0 
L 2619 2869 
L 1863 0 
L 1184 0 
L 269 3500 
z
" transform="scale(0.015625)"/>
      <path id="DejaVuSans-65" d="M 3597 1894 
L 3597 1613 
L 953 1613 
Q 991 1019 1311 708 
Q 1631 397 2203 397 
Q 2534 397 2845 478 
Q 3156 559 3463 722 
L 3463 178 
Q 3153 47 2828 -22 
Q 2503 -91 2169 -91 
Q 1331 -91 842 396 
Q 353 884 353 1716 
Q 353 2575 817 3079 
Q 1281 3584 2069 3584 
Q 2775 3584 3186 3129 
Q 3597 2675 3597 1894 
z
M 3022 2063 
Q 3016 2534 2758 2815 
Q 2500 3097 2075 3097 
Q 1594 3097 1305 2825 
Q 1016 2553 972 2059 
L 3022 2063 
z
" transform="scale(0.015625)"/>
      <path id="DejaVuSans-70" d="M 1159 525 
L 1159 -1331 
L 581 -1331 
L 581 3500 
L 1159 3500 
L 1159 2969 
Q 1341 3281 1617 3432 
Q 1894 3584 2278 3584 
Q 2916 3584 3314 3078 
Q 3713 2572 3713 1747 
Q 3713 922 3314 415 
Q 2916 -91 2278 -91 
Q 1894 -91 1617 61 
Q 1341 213 1159 525 
z
M 3116 1747 
Q 3116 2381 2855 2742 
Q 2594 3103 2138 3103 
Q 1681 3103 1420 2742 
Q 1159 2381 1159 1747 
Q 1159 1113 1420 752 
Q 1681 391 2138 391 
Q 2594 391 2855 752 
Q 3116 1113 3116 1747 
z
" transform="scale(0.015625)"/>
     </defs>
     <use xlink:href="#DejaVuSans-6d"/>
     <use xlink:href="#DejaVuSans-75" x="97.412109"/>
     <use xlink:href="#DejaVuSans-6c" x="160.791016"/>
     <use xlink:href="#DejaVuSans-5f" x="188.574219"/>
     <use xlink:href="#DejaVuSans-75" x="238.574219"/>
     <use xlink:href="#DejaVuSans-35" x="301.953125"/>
     <use xlink:href="#DejaVuSans-32" x="365.576172"/>
     <use xlink:href="#DejaVuSans-5f" x="429.199219"/>
     <use xlink:href="#DejaVuSans-31" x="479.199219"/>
     <use xlink:href="#DejaVuSans-20" x="542.822266"/>
     <use xlink:href="#DejaVuSans-73" x="574.609375"/>
     <use xlink:href="#DejaVuSans-77" x="626.708984"/>
     <use xlink:href="#DejaVuSans-65" x="708.496094"/>
     <use xlink:href="#DejaVuSans-65" x="770.019531"/>
     <use xlink:href="#DejaVuSans-70" x="831.542969"/>
    </g>
   </g>
   <g id="legend_1">
    <g id="patch_7">
     <path d="M 589.75875 59.060625 
L 846.9 59.060625 
Q 848.7 59.060625 848.7 57.260625 
L 848.7 31.74 
Q 848.7 29.94 846.9 29.94 
L 589.75875 29.94 
Q 587.95875 29.94 587.95875 31.74 
L 587.95875 57.260625 
Q 587.95875 59.060625 589.75875 59.060625 
z
" style="fill: #ffffff; opacity: 0.8; stroke: #cccccc; stroke-linejoin: miter"/>
    </g>
    <g id="line2d_37">
     <path d="M 591.55875 37.228594 
L 600.55875 37.228594 
L 609.55875 37.228594 
" style="fill: none; stroke: #1f77b4; stroke-width: 1.6; stroke-linecap: square"/>
    </g>
    <g id="text_18">
     <!-- bn=1 -->
     <g transform="translate(616.75875 40.378594) scale(0.09 -0.09)">
      <defs>
       <path id="DejaVuSans-3d" d="M 678 2906 
L 4684 2906 
L 4684 2381 
L 678 2381 
L 678 2906 
z
M 678 1631 
L 4684 1631 
L 4684 1100 
L 678 1100 
L 678 1631 
z
" transform="scale(0.015625)"/>
      </defs>
      <use xlink:href="#DejaVuSans-62"/>
      <use xlink:href="#DejaVuSans-6e" x="63.476562"/>
      <use xlink:href="#DejaVuSans-3d" x="126.855469"/>
      <use xlink:href="#DejaVuSans-31" x="210.644531"/>
     </g>
    </g>
    <g id="line2d_38">
     <path d="M 591.55875 50.438906 
L 600.55875 50.438906 
L 609.55875 50.438906 
" style="fill: none; stroke: #ff7f0e; stroke-width: 1.6; stroke-linecap: square"/>
    </g>
    <g id="text_19">
     <!-- bn=2 -->
     <g transform="translate(616.75875 53.588906) scale(0.09 -0.09)">
      <use xlink:href="#DejaVuSans-62"/>
      <use xlink:href="#DejaVuSans-6e" x="63.476562"/>
      <use xlink:href="#DejaVuSans-3d" x="126.855469"/>
      <use xlink:href="#DejaVuSans-32" x="210.644531"/>
     </g>
    </g>
    <g id="line2d_39">
     <path d="M 659.444062 37.228594 
L 668.444062 37.228594 
L 677.444062 37.228594 
" style="fill: none; stroke: #2ca02c; stroke-width: 1.6; stroke-linecap: square"/>
    </g>
    <g id="text_20">
     <!-- bn=3 -->
     <g transform="translate(684.644062 40.378594) scale(0.09 -0.09)">
      <defs>
       <path id="DejaVuSans-33" d="M 2597 2516 
Q 3050 2419 3304 2112 
Q 3559 1806 3559 1356 
Q 3559 666 3084 287 
Q 2609 -91 1734 -91 
Q 1441 -91 1130 -33 
Q 819 25 488 141 
L 488 750 
Q 750 597 1062 519 
Q 1375 441 1716 441 
Q 2309 441 2620 675 
Q 2931 909 2931 1356 
Q 2931 1769 2642 2001 
Q 2353 2234 1838 2234 
L 1294 2234 
L 1294 2753 
L 1863 2753 
Q 2328 2753 2575 2939 
Q 2822 3125 2822 3475 
Q 2822 3834 2567 4026 
Q 2313 4219 1838 4219 
Q 1578 4219 1281 4162 
Q 984 4106 628 3988 
L 628 4550 
Q 988 4650 1302 4700 
Q 1616 4750 1894 4750 
Q 2613 4750 3031 4423 
Q 3450 4097 3450 3541 
Q 3450 3153 3228 2886 
Q 3006 2619 2597 2516 
z
" transform="scale(0.015625)"/>
      </defs>
      <use xlink:href="#DejaVuSans-62"/>
      <use xlink:href="#DejaVuSans-6e" x="63.476562"/>
      <use xlink:href="#DejaVuSans-3d" x="126.855469"/>
      <use xlink:href="#DejaVuSans-33" x="210.644531"/>
     </g>
    </g>
    <g id="line2d_40">
     <path d="M 659.444062 50.438906 
L 668.444062 50.438906 
L 677.444062 50.438906 
" style="fill: none; stroke: #d62728; stroke-width: 1.6; stroke-linecap: square"/>
    </g>
    <g id="text_21">
     <!-- bn=4 -->
     <g transform="translate(684.644062 53.588906) scale(0.09 -0.09)">
      <use xlink:href="#DejaVuSans-62"/>
      <use xlink:href="#DejaVuSans-6e" x="63.476562"/>
      <use xlink:href="#DejaVuSans-3d" x="126.855469"/>
      <use xlink:href="#DejaVuSans-34" x="210.644531"/>
     </g>
    </g>
    <g id="line2d_41">
     <path d="M 727.329375 37.228594 
L 736.329375 37.228594 
L 745.329375 37.228594 
" style="fill: none; stroke: #9467bd; stroke-width: 1.6; stroke-linecap: square"/>
    </g>
    <g id="text_22">
     <!-- bn=5 -->
     <g transform="translate(752.529375 40.378594) scale(0.09 -0.09)">
      <use xlink:href="#DejaVuSans-62"/>
      <use xlink:href="#DejaVuSans-6e" x="63.476562"/>
      <use xlink:href="#DejaVuSans-3d" x="126.855469"/>
      <use xlink:href="#DejaVuSans-35" x="210.644531"/>
     </g>
    </g>
    <g id="line2d_42">
     <path d="M 727.329375 50.438906 
L 736.329375 50.438906 
L 745.329375 50.438906 
" style="fill: none; stroke: #8c564b; stroke-width: 1.6; stroke-linecap: square"/>
    </g>
    <g id="text_23">
     <!-- bn=6 -->
     <g transform="translate(752.529375 53.588906) scale(0.09 -0.09)">
      <use xlink:href="#DejaVuSans-62"/>
      <use xlink:href="#DejaVuSans-6e" x="63.476562"/>
      <use xlink:href="#DejaVuSans-3d" x="126.855469"/>
      <use xlink:href="#DejaVuSans-36" x="210.644531"/>
     </g>
    </g>
    <g id="line2d_43">
     <path d="M 795.214687 37.228594 
L 804.214687 37.228594 
L 813.214687 37.228594 
" style="fill: none; stroke: #e377c2; stroke-width: 1.6; stroke-linecap: square"/>
    </g>
    <g id="text_24">
     <!-- bn=7 -->
     <g transform="translate(820.414687 40.378594) scale(0.09 -0.09)">
      <use xlink:href="#DejaVuSans-62"/>
      <use xlink:href="#DejaVuSans-6e" x="63.476562"/>
      <use xlink:href="#DejaVuSans-3d" x="126.855469"/>
      <use xlink:href="#DejaVuSans-37" x="210.644531"/>
     </g>
    </g>
    <g id="line2d_44">
     <path d="M 795.214687 50.438906 
L 804.214687 50.438906 
L 813.214687 50.438906 
" style="fill: none; stroke: #7f7f7f; stroke-width: 1.6; stroke-linecap: square"/>
    </g>
    <g id="text_25">
     <!-- bn=8 -->
     <g transform="translate(820.414687 53.588906) scale(0.09 -0.09)">
      <use xlink:href="#DejaVuSans-62"/>
      <use xlink:href="#DejaVuSans-6e" x="63.476562"/>
      <use xlink:href="#DejaVuSans-3d" x="126.855469"/>
      <use xlink:href="#DejaVuSans-38" x="210.644531"/>
     </g>
    </g>
   </g>
  </g>
 </g>
 <defs>
  <clipPath id="pea8118795e">
   <rect x="60.69125" y="25.44" width="792.50875" height="436.6"/>
  </clipPath>
 </defs>
</svg>
