<svg xmlns="http://www.w3.org/2000/svg" width="1320" height="980" viewBox="0 0 1320 980">
<rect width="100%" height="100%" fill="white"/>
<text x="660.0" y="32" text-anchor="middle" font-family="Arial" font-size="22" fill="#111">mul.h u52 basecase sweep</text>
<text x="660.0" y="55" text-anchor="middle" font-family="Arial" font-size="13" fill="#444">y = ns per u52 digit product; lower is better</text>
<rect x="60.0" y="76.0" width="375.0" height="247.3" fill="#fff" stroke="#bbb"/>
<text x="247.5" y="66.0" text-anchor="middle" font-family="Arial" font-size="15" fill="#111">an=1bn</text>
<line x1="60.0" y1="76.0" x2="60.0" y2="323.3" stroke="#eeeeee"/>
<text x="60.0" y="341.3" text-anchor="middle" font-family="Arial" font-size="11" fill="#444">8</text>
<line x1="153.8" y1="76.0" x2="153.8" y2="323.3" stroke="#eeeeee"/>
<text x="153.8" y="341.3" text-anchor="middle" font-family="Arial" font-size="11" fill="#444">56</text>
<line x1="247.5" y1="76.0" x2="247.5" y2="323.3" stroke="#eeeeee"/>
<text x="247.5" y="341.3" text-anchor="middle" font-family="Arial" font-size="11" fill="#444">104</text>
<line x1="341.2" y1="76.0" x2="341.2" y2="323.3" stroke="#eeeeee"/>
<text x="341.2" y="341.3" text-anchor="middle" font-family="Arial" font-size="11" fill="#444">152</text>
<line x1="435.0" y1="76.0" x2="435.0" y2="323.3" stroke="#eeeeee"/>
<text x="435.0" y="341.3" text-anchor="middle" font-family="Arial" font-size="11" fill="#444">200</text>
<line x1="60.0" y1="323.3" x2="435.0" y2="323.3" stroke="#eeeeee"/>
<text x="52.0" y="327.3" text-anchor="end" font-family="Arial" font-size="11" fill="#444">0.00</text>
<line x1="60.0" y1="261.5" x2="435.0" y2="261.5" stroke="#eeeeee"/>
<text x="52.0" y="265.5" text-anchor="end" font-family="Arial" font-size="11" fill="#444">0.87</text>
<line x1="60.0" y1="199.7" x2="435.0" y2="199.7" stroke="#eeeeee"/>
<text x="52.0" y="203.7" text-anchor="end" font-family="Arial" font-size="11" fill="#444">1.73</text>
<line x1="60.0" y1="137.8" x2="435.0" y2="137.8" stroke="#eeeeee"/>
<text x="52.0" y="141.8" text-anchor="end" font-family="Arial" font-size="11" fill="#444">2.60</text>
<line x1="60.0" y1="76.0" x2="435.0" y2="76.0" stroke="#eeeeee"/>
<text x="52.0" y="80.0" text-anchor="end" font-family="Arial" font-size="11" fill="#444">3.47</text>
<polyline points="60.00,313.41 63.91,312.30 67.81,315.56 71.72,315.52 75.62,316.71 79.53,316.58 83.44,317.66 87.34,317.47 91.25,317.82 95.16,317.90 99.06,318.29 102.97,318.20 106.88,318.52 110.78,318.47 114.69,318.69 118.59,318.60 122.50,318.77 126.41,318.74 130.31,318.69 134.22,318.66 138.12,318.72 142.03,318.81 145.94,318.84 149.84,318.74 153.75,318.84 157.66,318.96 161.56,319.03 165.47,319.16 169.38,318.98 173.28,318.99 177.19,318.99 181.09,319.04 185.00,319.05 188.91,319.10 192.81,319.13 196.72,319.08 200.62,319.06 204.53,319.16 208.44,319.16 212.34,319.13 216.25,319.17 220.16,319.22 224.06,319.22 227.97,319.21 231.88,319.27 235.78,319.29 239.69,319.29 243.59,319.28 247.50,319.28 251.41,319.30 255.31,319.29 259.22,319.36 263.12,319.35 267.03,319.34 270.94,319.36 274.84,319.35 278.75,319.39 282.66,319.42 286.56,319.43 290.47,319.37 294.38,319.44 298.28,319.48 302.19,319.45 306.09,319.60 310.00,319.65 313.91,319.68 317.81,319.68 321.72,319.65 325.62,319.66 329.53,319.67 333.44,319.67 337.34,319.66 341.25,319.70 345.16,319.68 349.06,319.55 352.97,319.49 356.88,319.51 360.78,319.50 364.69,319.50 368.59,319.51 372.50,319.62 376.41,319.67 380.31,319.67 384.22,319.67 388.12,319.64 392.03,319.50 395.94,319.54 399.84,319.49 403.75,319.53 407.66,319.57 411.56,319.50 415.47,319.55 419.38,319.55 423.28,319.61 427.19,319.62 431.09,319.62 435.00,319.72" fill="none" stroke="#0b6cff" stroke-width="1.8"/>
<polyline points="60.00,303.83 63.91,301.96 67.81,305.47 71.72,309.73 75.62,312.15 79.53,311.40 83.44,312.60 87.34,314.02 91.25,315.07 95.16,314.45 99.06,314.99 102.97,315.71 106.88,316.22 110.78,315.91 114.69,316.24 118.59,316.61 122.50,317.06 126.41,316.76 130.31,316.83 134.22,317.09 138.12,317.41 142.03,317.28 145.94,317.40 149.84,317.67 153.75,317.75 157.66,317.65 161.56,317.86 165.47,318.05 169.38,318.01 173.28,317.95 177.19,318.05 181.09,318.18 185.00,318.30 188.91,318.20 192.81,318.31 196.72,318.35 200.62,318.41 204.53,318.39 208.44,318.45 212.34,318.52 216.25,318.56 220.16,318.52 224.06,318.57 227.97,318.59 231.88,318.64 235.78,318.64 239.69,318.66 243.59,318.72 247.50,318.75 251.41,318.76 255.31,318.76 259.22,318.80 263.12,318.81 267.03,318.82 270.94,318.83 274.84,318.89 278.75,318.92 282.66,318.83 286.56,318.92 290.47,318.96 294.38,318.91 298.28,318.92 302.19,318.98 306.09,319.13 310.00,319.18 313.91,319.18 317.81,319.16 321.72,319.22 325.62,319.21 329.53,319.19 333.44,319.22 337.34,319.24 341.25,319.25 345.16,319.19 349.06,319.10 352.97,319.10 356.88,319.12 360.78,319.09 364.69,319.14 368.59,319.15 372.50,319.27 376.41,319.24 380.31,319.28 384.22,319.29 388.12,319.24 392.03,319.18 395.94,319.23 399.84,319.22 403.75,319.22 407.66,319.21 411.56,319.23 415.47,319.25 419.38,319.24 423.28,319.22 427.19,319.28 431.09,319.33 435.00,319.39" fill="none" stroke="#d14a00" stroke-width="1.8"/>
<polyline points="60.00,287.20 63.91,287.60 67.81,295.88 71.72,302.76 75.62,306.45 79.53,306.12 83.44,308.06 87.34,310.19 91.25,311.64 95.16,310.99 99.06,311.85 102.97,312.87 106.88,313.45 110.78,313.41 114.69,313.83 118.59,314.47 122.50,315.05 126.41,314.76 130.31,314.98 134.22,315.44 138.12,315.63 142.03,315.57 145.94,315.88 149.84,316.20 153.75,316.46 157.66,316.23 161.56,316.50 165.47,316.81 169.38,316.83 173.28,316.80 177.19,316.88 181.09,317.03 185.00,317.12 188.91,317.11 192.81,317.24 196.72,317.39 200.62,317.38 204.53,317.34 208.44,317.46 212.34,317.55 216.25,317.69 220.16,317.56 224.06,317.68 227.97,317.74 231.88,317.82 235.78,317.79 239.69,317.84 243.59,317.91 247.50,318.02 251.41,317.97 255.31,318.01 259.22,318.11 263.12,318.10 267.03,318.10 270.94,318.14 274.84,318.22 278.75,318.25 282.66,318.22 286.56,318.26 290.47,318.30 294.38,318.33 298.28,318.34 302.19,318.47 306.09,318.53 310.00,318.62 313.91,318.62 317.81,318.63 321.72,318.67 325.62,318.68 329.53,318.64 333.44,318.71 337.34,318.73 341.25,318.74 345.16,318.55 349.06,318.61 352.97,318.63 356.88,318.67 360.78,318.67 364.69,318.68 368.59,318.70 372.50,318.82 376.41,318.84 380.31,318.84 384.22,318.86 388.12,318.82 392.03,318.79 395.94,318.82 399.84,318.83 403.75,318.85 407.66,318.83 411.56,318.86 415.47,318.87 419.38,318.89 423.28,318.88 427.19,318.92 431.09,318.99 435.00,319.04" fill="none" stroke="#179b52" stroke-width="1.8"/>
<rect x="485.0" y="76.0" width="375.0" height="247.3" fill="#fff" stroke="#bbb"/>
<text x="672.5" y="66.0" text-anchor="middle" font-family="Arial" font-size="15" fill="#111">an=2bn</text>
<line x1="485.0" y1="76.0" x2="485.0" y2="323.3" stroke="#eeeeee"/>
<text x="485.0" y="341.3" text-anchor="middle" font-family="Arial" font-size="11" fill="#444">8</text>
<line x1="578.8" y1="76.0" x2="578.8" y2="323.3" stroke="#eeeeee"/>
<text x="578.8" y="341.3" text-anchor="middle" font-family="Arial" font-size="11" fill="#444">56</text>
<line x1="672.5" y1="76.0" x2="672.5" y2="323.3" stroke="#eeeeee"/>
<text x="672.5" y="341.3" text-anchor="middle" font-family="Arial" font-size="11" fill="#444">104</text>
<line x1="766.2" y1="76.0" x2="766.2" y2="323.3" stroke="#eeeeee"/>
<text x="766.2" y="341.3" text-anchor="middle" font-family="Arial" font-size="11" fill="#444">152</text>
<line x1="860.0" y1="76.0" x2="860.0" y2="323.3" stroke="#eeeeee"/>
<text x="860.0" y="341.3" text-anchor="middle" font-family="Arial" font-size="11" fill="#444">200</text>
<line x1="485.0" y1="323.3" x2="860.0" y2="323.3" stroke="#eeeeee"/>
<line x1="485.0" y1="261.5" x2="860.0" y2="261.5" stroke="#eeeeee"/>
<line x1="485.0" y1="199.7" x2="860.0" y2="199.7" stroke="#eeeeee"/>
<line x1="485.0" y1="137.8" x2="860.0" y2="137.8" stroke="#eeeeee"/>
<line x1="485.0" y1="76.0" x2="860.0" y2="76.0" stroke="#eeeeee"/>
<polyline points="485.00,305.98 488.91,307.18 492.81,308.76 496.72,313.24 500.62,314.86 504.53,314.10 508.44,315.61 512.34,315.87 516.25,316.44 520.16,316.48 524.06,316.73 527.97,317.21 531.88,317.53 535.78,317.08 539.69,317.38 543.59,317.65 547.50,317.95 551.41,318.01 555.31,317.97 559.22,318.08 563.12,318.26 567.03,318.20 570.94,318.37 574.84,318.41 578.75,318.54 582.66,318.43 586.56,318.47 590.47,318.56 594.38,318.63 598.28,318.56 602.19,318.72 606.09,318.68 610.00,318.75 613.91,318.74 617.81,318.71 621.72,318.75 625.62,318.79 629.53,318.85 633.44,318.82 637.34,318.82 641.25,318.82 645.16,318.80 649.06,318.97 652.97,319.14 656.88,319.20 660.78,319.21 664.69,319.20 668.59,319.22 672.50,319.05 676.41,319.01 680.31,319.08 684.22,319.05 688.12,319.06 692.03,319.04 695.94,319.12 699.84,319.08 703.75,319.12 707.66,319.18 711.56,319.18 715.47,319.22 719.38,319.22 723.28,319.12 727.19,319.19 731.09,319.24 735.00,319.40 738.91,319.41 742.81,319.38 746.72,319.39 750.62,319.39 754.53,319.37 758.44,319.42 762.34,319.42 766.25,319.43 770.16,319.41 774.06,319.41 777.97,319.43 781.88,319.44 785.78,319.47 789.69,319.47 793.59,319.49 797.50,319.47 801.41,319.45 805.31,319.50 809.22,319.48 813.12,319.51 817.03,319.48 820.94,319.56 824.84,319.55 828.75,319.56 832.66,319.56 836.56,319.54 840.47,319.54 844.38,319.57 848.28,319.55 852.19,319.53 856.09,319.56 860.00,319.58" fill="none" stroke="#0b6cff" stroke-width="1.8"/>
<polyline points="485.00,287.88 488.91,288.32 492.81,298.42 496.72,304.76 500.62,308.77 504.53,304.81 508.44,308.42 512.34,309.35 516.25,311.01 520.16,310.30 524.06,311.80 527.97,313.47 531.88,314.30 535.78,313.46 539.69,314.23 543.59,314.44 547.50,315.11 551.41,314.85 555.31,315.32 559.22,316.06 563.12,316.10 567.03,315.46 570.94,315.94 574.84,316.08 578.75,316.27 582.66,316.24 586.56,316.38 590.47,316.80 594.38,316.94 598.28,316.78 602.19,317.01 606.09,317.09 610.00,317.32 613.91,317.14 617.81,317.38 621.72,317.56 625.62,317.64 629.53,317.37 633.44,317.57 637.34,317.77 641.25,317.76 645.16,317.72 649.06,317.93 652.97,318.15 656.88,318.11 660.78,318.07 664.69,318.18 668.59,318.15 672.50,318.20 676.41,318.15 680.31,318.20 684.22,318.33 688.12,318.32 692.03,318.22 695.94,318.31 699.84,318.36 703.75,318.35 707.66,318.38 711.56,318.40 715.47,318.51 719.38,318.48 723.28,318.45 727.19,318.50 731.09,318.53 735.00,318.63 738.91,318.66 742.81,318.69 746.72,318.76 750.62,318.74 754.53,318.70 758.44,318.76 762.34,318.76 766.25,318.83 770.16,318.82 774.06,318.86 777.97,318.86 781.88,318.85 785.78,318.83 789.69,318.87 793.59,318.89 797.50,318.93 801.41,318.92 805.31,318.94 809.22,318.98 813.12,318.96 817.03,318.91 820.94,318.74 824.84,319.01 828.75,319.04 832.66,318.99 836.56,319.03 840.47,319.07 844.38,319.06 848.28,319.01 852.19,319.06 856.09,319.06 860.00,319.09" fill="none" stroke="#d14a00" stroke-width="1.8"/>
<polyline points="485.00,258.99 488.91,266.62 492.81,280.59 496.72,290.81 500.62,298.63 504.53,296.46 508.44,300.73 512.34,302.23 516.25,305.20 520.16,304.97 524.06,307.59 527.97,308.94 531.88,310.13 535.78,309.43 539.69,310.55 543.59,311.00 547.50,311.82 551.41,311.72 555.31,312.38 559.22,313.08 563.12,313.45 567.03,312.77 570.94,313.32 574.84,313.63 578.75,314.13 582.66,313.96 586.56,314.42 590.47,314.85 594.38,314.97 598.28,314.96 602.19,315.29 606.09,315.43 610.00,315.61 613.91,315.58 617.81,315.79 621.72,315.98 625.62,316.27 629.53,315.85 633.44,316.16 637.34,316.29 641.25,316.41 645.16,316.50 649.06,316.51 652.97,316.76 656.88,316.87 660.78,316.81 664.69,316.94 668.59,316.99 672.50,316.98 676.41,317.01 680.31,317.13 684.22,317.19 688.12,317.23 692.03,317.21 695.94,317.30 699.84,317.34 703.75,317.42 707.66,317.41 711.56,317.49 715.47,317.54 719.38,317.57 723.28,317.54 727.19,317.60 731.09,317.70 735.00,317.82 738.91,317.81 742.81,317.90 746.72,317.94 750.62,317.98 754.53,317.91 758.44,317.97 762.34,318.00 766.25,318.09 770.16,318.06 774.06,318.09 777.97,318.17 781.88,318.16 785.78,318.08 789.69,318.18 793.59,318.23 797.50,318.25 801.41,318.23 805.31,318.28 809.22,318.32 813.12,318.29 817.03,318.22 820.94,318.34 824.84,318.36 828.75,318.40 832.66,318.40 836.56,318.42 840.47,318.47 844.38,318.46 848.28,318.43 852.19,318.48 856.09,318.48 860.00,318.51" fill="none" stroke="#179b52" stroke-width="1.8"/>
<rect x="910.0" y="76.0" width="375.0" height="247.3" fill="#fff" stroke="#bbb"/>
<text x="1097.5" y="66.0" text-anchor="middle" font-family="Arial" font-size="15" fill="#111">an=4bn</text>
<line x1="910.0" y1="76.0" x2="910.0" y2="323.3" stroke="#eeeeee"/>
<text x="910.0" y="341.3" text-anchor="middle" font-family="Arial" font-size="11" fill="#444">8</text>
<line x1="1003.8" y1="76.0" x2="1003.8" y2="323.3" stroke="#eeeeee"/>
<text x="1003.8" y="341.3" text-anchor="middle" font-family="Arial" font-size="11" fill="#444">56</text>
<line x1="1097.5" y1="76.0" x2="1097.5" y2="323.3" stroke="#eeeeee"/>
<text x="1097.5" y="341.3" text-anchor="middle" font-family="Arial" font-size="11" fill="#444">104</text>
<line x1="1191.2" y1="76.0" x2="1191.2" y2="323.3" stroke="#eeeeee"/>
<text x="1191.2" y="341.3" text-anchor="middle" font-family="Arial" font-size="11" fill="#444">152</text>
<line x1="1285.0" y1="76.0" x2="1285.0" y2="323.3" stroke="#eeeeee"/>
<text x="1285.0" y="341.3" text-anchor="middle" font-family="Arial" font-size="11" fill="#444">200</text>
<line x1="910.0" y1="323.3" x2="1285.0" y2="323.3" stroke="#eeeeee"/>
<line x1="910.0" y1="261.5" x2="1285.0" y2="261.5" stroke="#eeeeee"/>
<line x1="910.0" y1="199.7" x2="1285.0" y2="199.7" stroke="#eeeeee"/>
<line x1="910.0" y1="137.8" x2="1285.0" y2="137.8" stroke="#eeeeee"/>
<line x1="910.0" y1="76.0" x2="1285.0" y2="76.0" stroke="#eeeeee"/>
<polyline points="910.00,297.47 913.91,302.02 917.81,301.34 921.72,307.90 925.62,309.66 929.53,311.07 933.44,311.28 937.34,312.98 941.25,313.82 945.16,314.67 949.06,314.63 952.97,315.05 956.88,315.32 960.78,315.31 964.69,315.62 968.59,316.09 972.50,316.27 976.41,315.59 980.31,316.70 984.22,316.74 988.12,317.12 992.03,317.11 995.94,317.02 999.84,317.46 1003.75,317.63 1007.66,317.51 1011.56,317.49 1015.47,317.96 1019.38,317.87 1023.28,317.86 1027.19,317.99 1031.09,317.02 1035.00,318.13 1038.91,318.26 1042.81,317.96 1046.72,318.22 1050.62,318.29 1054.53,318.36 1058.44,318.37 1062.34,318.48 1066.25,318.56 1070.16,318.54 1074.06,318.52 1077.97,318.66 1081.88,318.56 1085.78,318.57 1089.69,318.75 1093.59,318.70 1097.50,318.76 1101.41,318.84 1105.31,318.85 1109.22,318.83 1113.12,318.87 1117.03,318.84 1120.94,318.84 1124.84,318.86 1128.75,318.90 1132.66,318.94 1136.56,318.97 1140.47,318.98 1144.38,318.86 1148.28,318.64 1152.19,318.90 1156.09,318.93 1160.00,318.97 1163.91,318.94 1167.81,318.98 1171.72,319.03 1175.62,319.06 1179.53,319.03 1183.44,319.00 1187.34,319.07 1191.25,319.10 1195.16,319.09 1199.06,319.10 1202.97,319.10 1206.88,319.10 1210.78,319.11 1214.69,318.82 1218.59,319.15 1222.50,319.19 1226.41,319.21 1230.31,319.21 1234.22,319.23 1238.12,319.25 1242.03,319.25 1245.94,319.24 1249.84,319.28 1253.75,319.28 1257.66,319.24 1261.56,319.07 1265.47,319.08 1269.38,319.13 1273.28,319.13 1277.19,319.20 1281.09,319.21 1285.00,319.14" fill="none" stroke="#0b6cff" stroke-width="1.8"/>
<polyline points="910.00,254.33 913.91,274.72 917.81,283.02 921.72,292.29 925.62,296.47 929.53,296.17 933.44,299.30 937.34,304.42 941.25,306.15 945.16,305.82 949.06,306.99 952.97,309.04 956.88,307.90 960.78,308.91 964.69,310.07 968.59,310.07 972.50,311.38 976.41,311.83 980.31,311.91 984.22,313.11 988.12,313.45 992.03,313.50 995.94,313.62 999.84,314.45 1003.75,314.38 1007.66,314.17 1011.56,314.56 1015.47,315.31 1019.38,315.06 1023.28,314.98 1027.19,315.17 1031.09,315.36 1035.00,315.58 1038.91,315.64 1042.81,315.80 1046.72,316.06 1050.62,316.13 1054.53,316.23 1058.44,316.33 1062.34,316.66 1066.25,316.77 1070.16,316.69 1074.06,316.79 1077.97,316.68 1081.88,316.65 1085.78,316.40 1089.69,316.70 1093.59,316.63 1097.50,316.91 1101.41,317.03 1105.31,317.07 1109.22,317.17 1113.12,317.26 1117.03,317.37 1120.94,317.32 1124.84,317.44 1128.75,317.57 1132.66,317.54 1136.56,317.49 1140.47,317.42 1144.38,317.40 1148.28,317.46 1152.19,317.59 1156.09,317.68 1160.00,317.69 1163.91,317.81 1167.81,317.77 1171.72,317.73 1175.62,317.93 1179.53,317.88 1183.44,317.90 1187.34,318.02 1191.25,318.07 1195.16,318.09 1199.06,318.14 1202.97,318.13 1206.88,318.17 1210.78,318.01 1214.69,317.85 1218.59,318.22 1222.50,318.25 1226.41,318.28 1230.31,318.31 1234.22,318.35 1238.12,318.36 1242.03,318.41 1245.94,318.39 1249.84,318.47 1253.75,318.48 1257.66,318.41 1261.56,318.38 1265.47,318.41 1269.38,318.38 1273.28,318.30 1277.19,318.32 1281.09,318.43 1285.00,318.43" fill="none" stroke="#d14a00" stroke-width="1.8"/>
<polyline points="910.00,196.46 913.91,243.01 917.81,256.00 921.72,271.27 925.62,276.42 929.53,281.51 933.44,285.92 937.34,292.87 941.25,295.13 945.16,296.17 949.06,297.59 952.97,301.33 956.88,301.49 960.78,302.75 964.69,303.47 968.59,305.14 972.50,297.89 976.41,306.31 980.31,305.23 984.22,308.51 988.12,308.86 992.03,309.63 995.94,309.20 999.84,310.60 1003.75,310.43 1007.66,310.49 1011.56,310.85 1015.47,311.98 1019.38,312.25 1023.28,311.84 1027.19,307.71 1031.09,312.45 1035.00,312.63 1038.91,307.97 1042.81,313.03 1046.72,313.31 1050.62,313.68 1054.53,313.61 1058.44,313.60 1062.34,314.23 1066.25,314.31 1070.16,314.28 1074.06,314.38 1077.97,314.33 1081.88,314.46 1085.78,314.44 1089.69,314.54 1093.59,314.82 1097.50,314.92 1101.41,315.02 1105.31,315.23 1109.22,315.36 1113.12,315.41 1117.03,315.52 1120.94,315.58 1124.84,315.75 1128.75,315.83 1132.66,315.79 1136.56,315.85 1140.47,315.79 1144.38,315.79 1148.28,316.03 1152.19,316.03 1156.09,316.21 1160.00,316.23 1163.91,316.28 1167.81,316.27 1171.72,316.45 1175.62,316.59 1179.53,316.56 1183.44,316.48 1187.34,316.65 1191.25,316.72 1195.16,316.77 1199.06,316.81 1202.97,316.97 1206.88,317.04 1210.78,316.92 1214.69,316.92 1218.59,317.11 1222.50,317.15 1226.41,317.15 1230.31,317.20 1234.22,317.27 1238.12,317.30 1242.03,317.35 1245.94,317.34 1249.84,317.44 1253.75,317.48 1257.66,317.40 1261.56,317.40 1265.47,317.43 1269.38,317.47 1273.28,317.45 1277.19,317.46 1281.09,317.55 1285.00,317.55" fill="none" stroke="#179b52" stroke-width="1.8"/>
<rect x="60.0" y="379.3" width="375.0" height="247.3" fill="#fff" stroke="#bbb"/>
<text x="247.5" y="369.3" text-anchor="middle" font-family="Arial" font-size="15" fill="#111">an=8bn</text>
<line x1="60.0" y1="379.3" x2="60.0" y2="626.7" stroke="#eeeeee"/>
<text x="60.0" y="644.7" text-anchor="middle" font-family="Arial" font-size="11" fill="#444">8</text>
<line x1="153.8" y1="379.3" x2="153.8" y2="626.7" stroke="#eeeeee"/>
<text x="153.8" y="644.7" text-anchor="middle" font-family="Arial" font-size="11" fill="#444">56</text>
<line x1="247.5" y1="379.3" x2="247.5" y2="626.7" stroke="#eeeeee"/>
<text x="247.5" y="644.7" text-anchor="middle" font-family="Arial" font-size="11" fill="#444">104</text>
<line x1="341.2" y1="379.3" x2="341.2" y2="626.7" stroke="#eeeeee"/>
<text x="341.2" y="644.7" text-anchor="middle" font-family="Arial" font-size="11" fill="#444">152</text>
<line x1="435.0" y1="379.3" x2="435.0" y2="626.7" stroke="#eeeeee"/>
<text x="435.0" y="644.7" text-anchor="middle" font-family="Arial" font-size="11" fill="#444">200</text>
<line x1="60.0" y1="626.7" x2="435.0" y2="626.7" stroke="#eeeeee"/>
<text x="52.0" y="630.7" text-anchor="end" font-family="Arial" font-size="11" fill="#444">0.00</text>
<line x1="60.0" y1="564.8" x2="435.0" y2="564.8" stroke="#eeeeee"/>
<text x="52.0" y="568.8" text-anchor="end" font-family="Arial" font-size="11" fill="#444">0.87</text>
<line x1="60.0" y1="503.0" x2="435.0" y2="503.0" stroke="#eeeeee"/>
<text x="52.0" y="507.0" text-anchor="end" font-family="Arial" font-size="11" fill="#444">1.73</text>
<line x1="60.0" y1="441.2" x2="435.0" y2="441.2" stroke="#eeeeee"/>
<text x="52.0" y="445.2" text-anchor="end" font-family="Arial" font-size="11" fill="#444">2.60</text>
<line x1="60.0" y1="379.3" x2="435.0" y2="379.3" stroke="#eeeeee"/>
<text x="52.0" y="383.3" text-anchor="end" font-family="Arial" font-size="11" fill="#444">3.47</text>
<polyline points="60.00,579.07 63.91,567.30 67.81,601.36 71.72,600.70 75.62,604.01 79.53,601.48 83.44,609.09 87.34,608.46 91.25,610.09 95.16,610.95 99.06,614.92 102.97,613.86 106.88,614.44 110.78,614.28 114.69,615.77 118.59,616.04 122.50,616.46 126.41,615.60 130.31,617.19 134.22,617.22 138.12,617.78 142.03,617.17 145.94,618.17 149.84,618.39 153.75,618.55 157.66,618.50 161.56,619.12 165.47,619.19 169.38,619.04 173.28,619.11 177.19,619.39 181.09,619.39 185.00,619.50 188.91,619.16 192.81,619.78 196.72,619.50 200.62,619.76 204.53,619.82 208.44,620.36 212.34,620.15 216.25,620.28 220.16,620.34 224.06,620.75 227.97,620.45 231.88,620.59 235.78,620.58 239.69,620.70 243.59,620.62 247.50,620.76 251.41,620.64 255.31,620.83 259.22,620.80 263.12,620.94 267.03,620.82 270.94,620.97 274.84,620.96 278.75,620.98 282.66,620.90 286.56,620.99 290.47,621.08 294.38,621.04 298.28,621.05 302.19,621.35 306.09,621.24 310.00,621.26 313.91,621.24 317.81,621.47 321.72,621.38 325.62,621.47 329.53,621.59 333.44,621.77 337.34,621.70 341.25,621.74 345.16,621.73 349.06,621.78 352.97,621.77 356.88,621.77 360.78,621.76 364.69,621.81 368.59,621.83 372.50,621.88 376.41,621.77 380.31,621.95 384.22,621.96 388.12,621.93 392.03,621.93 395.94,622.01 399.84,621.99 403.75,622.03 407.66,622.03 411.56,622.12 415.47,622.13 419.38,621.81 423.28,622.04 427.19,622.14 431.09,622.20 435.00,621.87" fill="none" stroke="#0b6cff" stroke-width="1.8"/>
<polyline points="60.00,494.80 63.91,490.08 67.81,567.54 71.72,567.66 75.62,574.73 79.53,572.44 83.44,588.37 87.34,591.81 91.25,594.86 95.16,592.81 99.06,599.62 102.97,600.82 106.88,603.15 110.78,601.93 114.69,605.65 118.59,606.68 122.50,607.26 126.41,605.47 130.31,609.18 134.22,609.80 138.12,611.11 142.03,609.56 145.94,612.09 149.84,612.83 153.75,613.08 157.66,611.89 161.56,613.95 165.47,614.62 169.38,614.90 173.28,613.94 177.19,614.77 181.09,615.15 185.00,614.94 188.91,614.66 192.81,615.92 196.72,615.78 200.62,616.28 204.53,616.01 208.44,616.97 212.34,616.86 216.25,617.00 220.16,616.96 224.06,617.49 227.97,617.62 231.88,617.70 235.78,617.61 239.69,618.13 243.59,618.04 247.50,618.29 251.41,617.85 255.31,618.39 259.22,618.57 263.12,618.67 267.03,618.30 270.94,618.84 274.84,618.86 278.75,619.03 282.66,618.75 286.56,619.05 290.47,619.12 294.38,619.19 298.28,618.92 302.19,619.01 306.09,619.09 310.00,618.92 313.91,618.69 317.81,619.28 321.72,619.20 325.62,619.37 329.53,619.54 333.44,619.78 337.34,619.80 341.25,619.81 345.16,619.79 349.06,620.04 352.97,620.09 356.88,620.10 360.78,620.08 364.69,620.27 368.59,620.31 372.50,620.32 376.41,620.24 380.31,620.50 384.22,620.51 388.12,620.58 392.03,620.44 395.94,620.59 399.84,620.63 403.75,620.66 407.66,620.53 411.56,620.48 415.47,620.31 419.38,620.45 423.28,620.40 427.19,620.45 431.09,620.50 435.00,620.33" fill="none" stroke="#d14a00" stroke-width="1.8"/>
<polyline points="60.00,386.54 63.91,401.33 67.81,529.60 71.72,530.94 75.62,537.43 79.53,538.21 83.44,565.52 87.34,570.82 91.25,574.14 95.16,572.53 99.06,584.21 102.97,586.99 106.88,588.63 110.78,587.73 114.69,593.58 118.59,595.64 122.50,596.51 126.41,594.37 130.31,600.18 134.22,601.21 138.12,602.32 142.03,600.40 145.94,604.69 149.84,605.41 153.75,605.71 157.66,604.52 161.56,607.85 165.47,608.57 169.38,608.96 173.28,607.73 177.19,609.43 181.09,609.68 185.00,609.59 188.91,609.06 192.81,610.82 196.72,610.65 200.62,611.53 204.53,611.17 208.44,612.55 212.34,612.39 216.25,612.89 220.16,612.38 224.06,613.42 227.97,613.55 231.88,613.74 235.78,613.51 239.69,614.19 243.59,614.23 247.50,614.57 251.41,614.02 255.31,615.07 259.22,615.23 263.12,615.42 267.03,615.09 270.94,615.49 274.84,615.72 278.75,615.91 282.66,615.58 286.56,616.11 290.47,616.27 294.38,616.39 298.28,616.11 302.19,616.47 306.09,616.49 310.00,616.39 313.91,616.17 317.81,616.71 321.72,616.89 325.62,616.91 329.53,617.14 333.44,617.44 337.34,617.49 341.25,617.49 345.16,617.52 349.06,617.86 352.97,617.91 356.88,617.94 360.78,617.94 364.69,618.20 368.59,618.29 372.50,618.33 376.41,618.19 380.31,618.53 384.22,618.56 388.12,618.71 392.03,618.53 395.94,618.75 399.84,618.68 403.75,618.82 407.66,618.71 411.56,618.84 415.47,618.72 419.38,618.75 423.28,618.73 427.19,618.81 431.09,618.87 435.00,618.69" fill="none" stroke="#179b52" stroke-width="1.8"/>
<rect x="485.0" y="379.3" width="375.0" height="247.3" fill="#fff" stroke="#bbb"/>
<text x="672.5" y="369.3" text-anchor="middle" font-family="Arial" font-size="15" fill="#111">bn=4</text>
<line x1="485.0" y1="379.3" x2="485.0" y2="626.7" stroke="#eeeeee"/>
<text x="485.0" y="644.7" text-anchor="middle" font-family="Arial" font-size="11" fill="#444">8</text>
<line x1="578.8" y1="379.3" x2="578.8" y2="626.7" stroke="#eeeeee"/>
<text x="578.8" y="644.7" text-anchor="middle" font-family="Arial" font-size="11" fill="#444">56</text>
<line x1="672.5" y1="379.3" x2="672.5" y2="626.7" stroke="#eeeeee"/>
<text x="672.5" y="644.7" text-anchor="middle" font-family="Arial" font-size="11" fill="#444">104</text>
<line x1="766.2" y1="379.3" x2="766.2" y2="626.7" stroke="#eeeeee"/>
<text x="766.2" y="644.7" text-anchor="middle" font-family="Arial" font-size="11" fill="#444">152</text>
<line x1="860.0" y1="379.3" x2="860.0" y2="626.7" stroke="#eeeeee"/>
<text x="860.0" y="644.7" text-anchor="middle" font-family="Arial" font-size="11" fill="#444">200</text>
<line x1="485.0" y1="626.7" x2="860.0" y2="626.7" stroke="#eeeeee"/>
<line x1="485.0" y1="564.8" x2="860.0" y2="564.8" stroke="#eeeeee"/>
<line x1="485.0" y1="503.0" x2="860.0" y2="503.0" stroke="#eeeeee"/>
<line x1="485.0" y1="441.2" x2="860.0" y2="441.2" stroke="#eeeeee"/>
<line x1="485.0" y1="379.3" x2="860.0" y2="379.3" stroke="#eeeeee"/>
<polyline points="485.00,611.85 488.91,610.68 492.81,613.33 496.72,610.68 500.62,613.31 504.53,613.24 508.44,614.59 512.34,613.22 516.25,614.34 520.16,614.22 524.06,615.17 527.97,613.90 531.88,614.37 535.78,614.56 539.69,615.14 543.59,613.88 547.50,614.69 551.41,614.81 555.31,615.29 559.22,614.45 563.12,614.99 567.03,614.87 570.94,615.10 574.84,614.18 578.75,615.09 582.66,615.05 586.56,615.20 590.47,614.75 594.38,615.07 598.28,614.83 602.19,615.25 606.09,614.68 610.00,615.08 613.91,614.88 617.81,614.79 621.72,614.28 625.62,614.97 629.53,614.40 633.44,614.98 637.34,614.50 641.25,614.39 645.16,613.93 649.06,614.50 652.97,614.09 656.88,614.50 660.78,614.13 664.69,614.67 668.59,614.16 672.50,614.27 676.41,614.25 680.31,614.48 684.22,613.89 688.12,614.21 692.03,614.41 695.94,614.61 699.84,614.11 703.75,614.55 707.66,614.67 711.56,614.84 715.47,614.54 719.38,614.58 723.28,614.34 727.19,614.72 731.09,614.19 735.00,614.44 738.91,614.57 742.81,614.54 746.72,613.89 750.62,614.15 754.53,614.63 758.44,614.87 762.34,613.94 766.25,614.12 770.16,614.58 774.06,614.77 777.97,614.18 781.88,614.39 785.78,614.51 789.69,614.62 793.59,613.99 797.50,614.18 801.41,614.06 805.31,614.26 809.22,614.18 813.12,614.07 817.03,614.09 820.94,614.08 824.84,613.70 828.75,614.12 832.66,614.07 836.56,614.07 840.47,614.00 844.38,614.13 848.28,613.97 852.19,614.05 856.09,613.86 860.00,613.93" fill="none" stroke="#0b6cff" stroke-width="1.8"/>
<polyline points="485.00,590.55 488.91,589.45 492.81,589.78 496.72,594.88 500.62,599.40 504.53,596.61 508.44,597.14 512.34,599.48 516.25,601.97 520.16,600.82 524.06,599.24 527.97,601.24 531.88,602.87 535.78,601.71 539.69,600.27 543.59,602.07 547.50,603.75 551.41,603.20 555.31,602.46 559.22,602.77 563.12,604.32 567.03,603.61 570.94,602.86 574.84,603.99 578.75,604.45 582.66,604.14 586.56,603.54 590.47,604.23 594.38,604.68 598.28,603.96 602.19,603.68 606.09,604.45 610.00,605.02 613.91,604.51 617.81,604.18 621.72,604.53 625.62,604.83 629.53,604.45 633.44,604.34 637.34,604.07 641.25,604.39 645.16,604.05 649.06,603.78 652.97,604.00 656.88,604.82 660.78,604.36 664.69,604.10 668.59,604.64 672.50,604.98 676.41,604.65 680.31,604.36 684.22,604.68 688.12,604.75 692.03,604.66 695.94,604.53 699.84,604.85 703.75,605.58 707.66,604.91 711.56,604.83 715.47,605.12 719.38,605.56 723.28,605.11 727.19,604.86 731.09,605.12 735.00,605.49 738.91,605.14 742.81,605.03 746.72,605.38 750.62,605.60 754.53,604.87 758.44,604.97 762.34,605.43 766.25,605.48 770.16,604.99 774.06,604.92 777.97,605.31 781.88,605.65 785.78,605.04 789.69,604.86 793.59,605.20 797.50,605.40 801.41,605.15 805.31,605.26 809.22,605.14 813.12,605.40 817.03,604.67 820.94,604.84 824.84,605.09 828.75,605.27 832.66,604.81 836.56,604.70 840.47,605.22 844.38,605.43 848.28,605.15 852.19,605.01 856.09,605.20 860.00,605.47" fill="none" stroke="#d14a00" stroke-width="1.8"/>
<polyline points="485.00,560.99 488.91,564.84 492.81,567.53 496.72,573.56 500.62,579.75 504.53,579.07 508.44,579.56 512.34,583.66 516.25,586.70 520.16,584.17 524.06,583.79 527.97,586.91 531.88,588.33 535.78,587.54 539.69,586.60 543.59,587.92 547.50,590.42 551.41,589.82 555.31,589.27 559.22,589.89 563.12,591.48 567.03,590.93 570.94,590.67 574.84,591.37 578.75,592.60 582.66,591.92 586.56,591.56 590.47,592.43 594.38,593.22 598.28,592.25 602.19,592.23 606.09,592.80 610.00,593.59 613.91,592.82 617.81,592.71 621.72,593.33 625.62,593.86 629.53,592.61 633.44,592.20 637.34,593.03 641.25,592.52 645.16,591.84 649.06,591.77 652.97,592.37 656.88,592.45 660.78,592.59 664.69,592.19 668.59,592.97 672.50,593.41 676.41,593.09 680.31,592.83 684.22,593.26 688.12,593.77 692.03,593.61 695.94,593.27 699.84,594.00 703.75,594.47 707.66,594.02 711.56,594.09 715.47,594.20 719.38,594.56 723.28,594.40 727.19,594.12 731.09,594.40 735.00,595.06 738.91,594.57 742.81,594.63 746.72,594.85 750.62,595.36 754.53,594.97 758.44,594.87 762.34,595.05 766.25,595.11 770.16,594.88 774.06,594.65 777.97,595.17 781.88,595.73 785.78,595.18 789.69,594.98 793.59,595.18 797.50,595.55 801.41,595.16 805.31,595.43 809.22,595.27 813.12,595.62 817.03,595.16 820.94,595.10 824.84,595.23 828.75,595.64 832.66,595.51 836.56,595.30 840.47,595.51 844.38,595.91 848.28,595.76 852.19,595.63 856.09,595.83 860.00,596.07" fill="none" stroke="#179b52" stroke-width="1.8"/>
<rect x="910.0" y="379.3" width="375.0" height="247.3" fill="#fff" stroke="#bbb"/>
<text x="1097.5" y="369.3" text-anchor="middle" font-family="Arial" font-size="15" fill="#111">bn=6</text>
<line x1="910.0" y1="379.3" x2="910.0" y2="626.7" stroke="#eeeeee"/>
<text x="910.0" y="644.7" text-anchor="middle" font-family="Arial" font-size="11" fill="#444">8</text>
<line x1="1003.8" y1="379.3" x2="1003.8" y2="626.7" stroke="#eeeeee"/>
<text x="1003.8" y="644.7" text-anchor="middle" font-family="Arial" font-size="11" fill="#444">56</text>
<line x1="1097.5" y1="379.3" x2="1097.5" y2="626.7" stroke="#eeeeee"/>
<text x="1097.5" y="644.7" text-anchor="middle" font-family="Arial" font-size="11" fill="#444">104</text>
<line x1="1191.2" y1="379.3" x2="1191.2" y2="626.7" stroke="#eeeeee"/>
<text x="1191.2" y="644.7" text-anchor="middle" font-family="Arial" font-size="11" fill="#444">152</text>
<line x1="1285.0" y1="379.3" x2="1285.0" y2="626.7" stroke="#eeeeee"/>
<text x="1285.0" y="644.7" text-anchor="middle" font-family="Arial" font-size="11" fill="#444">200</text>
<line x1="910.0" y1="626.7" x2="1285.0" y2="626.7" stroke="#eeeeee"/>
<line x1="910.0" y1="564.8" x2="1285.0" y2="564.8" stroke="#eeeeee"/>
<line x1="910.0" y1="503.0" x2="1285.0" y2="503.0" stroke="#eeeeee"/>
<line x1="910.0" y1="441.2" x2="1285.0" y2="441.2" stroke="#eeeeee"/>
<line x1="910.0" y1="379.3" x2="1285.0" y2="379.3" stroke="#eeeeee"/>
<polyline points="910.00,614.98 913.91,613.58 917.81,614.11 921.72,613.37 925.62,616.15 929.53,615.84 933.44,616.21 937.34,616.21 941.25,617.10 945.16,616.86 949.06,616.95 952.97,616.95 956.88,617.58 960.78,617.30 964.69,617.04 968.59,617.23 972.50,617.67 976.41,617.31 980.31,617.39 984.22,617.33 988.12,617.76 992.03,617.47 995.94,617.40 999.84,617.48 1003.75,617.69 1007.66,617.63 1011.56,617.46 1015.47,617.56 1019.38,617.80 1023.28,616.77 1027.19,617.47 1031.09,617.47 1035.00,617.91 1038.91,617.45 1042.81,617.55 1046.72,617.45 1050.62,617.75 1054.53,617.60 1058.44,615.15 1062.34,614.90 1066.25,617.55 1070.16,617.63 1074.06,617.48 1077.97,617.50 1081.88,617.66 1085.78,617.48 1089.69,617.56 1093.59,617.53 1097.50,617.73 1101.41,617.61 1105.31,617.50 1109.22,617.47 1113.12,617.64 1117.03,617.62 1120.94,617.51 1124.84,617.52 1128.75,617.65 1132.66,617.60 1136.56,617.63 1140.47,617.56 1144.38,617.73 1148.28,617.61 1152.19,617.55 1156.09,617.55 1160.00,617.67 1163.91,617.52 1167.81,617.53 1171.72,617.45 1175.62,617.61 1179.53,617.48 1183.44,617.47 1187.34,617.45 1191.25,617.65 1195.16,617.54 1199.06,617.71 1202.97,617.49 1206.88,617.55 1210.78,617.55 1214.69,615.69 1218.59,614.97 1222.50,616.25 1226.41,616.74 1230.31,617.23 1234.22,616.03 1238.12,617.28 1242.03,617.23 1245.94,616.23 1249.84,617.51 1253.75,616.43 1257.66,616.85 1261.56,617.20 1265.47,617.42 1269.38,617.50 1273.28,617.43 1277.19,615.88 1281.09,617.38 1285.00,617.43" fill="none" stroke="#0b6cff" stroke-width="1.8"/>
<polyline points="910.00,601.85 913.91,596.61 917.81,601.67 921.72,605.22 925.62,607.67 929.53,603.22 933.44,606.14 937.34,608.04 941.25,609.62 945.16,606.80 949.06,607.70 952.97,609.49 956.88,609.65 960.78,608.01 964.69,609.18 968.59,610.16 972.50,610.96 976.41,608.80 980.31,609.66 984.22,610.48 988.12,611.12 992.03,609.59 995.94,610.26 999.84,610.79 1003.75,611.45 1007.66,609.95 1011.56,610.26 1015.47,611.02 1019.38,611.49 1023.28,610.11 1027.19,610.78 1031.09,611.22 1035.00,611.53 1038.91,610.52 1042.81,610.99 1046.72,611.36 1050.62,611.56 1054.53,610.50 1058.44,607.35 1062.34,611.11 1066.25,611.23 1070.16,610.89 1074.06,611.13 1077.97,611.65 1081.88,611.81 1085.78,610.89 1089.69,611.29 1093.59,611.60 1097.50,611.83 1101.41,611.08 1105.31,611.44 1109.22,611.59 1113.12,612.04 1117.03,611.31 1120.94,611.62 1124.84,611.72 1128.75,612.08 1132.66,611.13 1136.56,611.65 1140.47,611.91 1144.38,612.18 1148.28,611.60 1152.19,611.78 1156.09,612.01 1160.00,612.20 1163.91,611.69 1167.81,611.73 1171.72,611.93 1175.62,612.27 1179.53,611.54 1183.44,611.88 1187.34,612.01 1191.25,612.24 1195.16,611.67 1199.06,611.93 1202.97,612.04 1206.88,612.19 1210.78,611.51 1214.69,607.84 1218.59,610.16 1222.50,611.03 1226.41,608.37 1230.31,608.32 1234.22,608.55 1238.12,611.79 1242.03,611.66 1245.94,608.53 1249.84,611.97 1253.75,612.07 1257.66,611.36 1261.56,611.64 1265.47,611.79 1269.38,612.18 1273.28,608.01 1277.19,609.89 1281.09,611.88 1285.00,611.85" fill="none" stroke="#d14a00" stroke-width="1.8"/>
<polyline points="910.00,580.13 913.91,578.16 917.81,584.18 921.72,591.09 925.62,593.68 929.53,590.19 933.44,594.04 937.34,597.39 941.25,598.63 945.16,595.58 949.06,596.91 952.97,599.06 956.88,600.09 960.78,597.69 964.69,599.10 968.59,598.77 972.50,601.41 976.41,599.55 980.31,600.50 984.22,601.39 988.12,602.14 992.03,600.52 995.94,601.26 999.84,602.26 1003.75,602.68 1007.66,601.36 1011.56,602.09 1015.47,602.83 1019.38,603.24 1023.28,601.99 1027.19,602.73 1031.09,603.28 1035.00,603.55 1038.91,601.69 1042.81,603.02 1046.72,603.60 1050.62,603.84 1054.53,601.50 1058.44,594.91 1062.34,603.17 1066.25,603.57 1070.16,602.73 1074.06,603.15 1077.97,603.65 1081.88,603.98 1085.78,603.07 1089.69,603.49 1093.59,603.78 1097.50,604.10 1101.41,603.30 1105.31,603.80 1109.22,604.02 1113.12,604.53 1117.03,603.52 1120.94,604.01 1124.84,604.32 1128.75,604.56 1132.66,603.78 1136.56,604.41 1140.47,604.68 1144.38,604.90 1148.28,604.42 1152.19,604.47 1156.09,604.88 1160.00,605.14 1163.91,604.51 1167.81,604.87 1171.72,604.87 1175.62,605.32 1179.53,604.53 1183.44,605.07 1187.34,605.13 1191.25,605.44 1195.16,605.00 1199.06,605.10 1202.97,605.26 1206.88,605.43 1210.78,604.31 1214.69,598.34 1218.59,601.74 1222.50,604.81 1226.41,603.96 1230.31,595.76 1234.22,604.39 1238.12,605.28 1242.03,605.05 1245.94,604.90 1249.84,604.94 1253.75,605.57 1257.66,604.78 1261.56,605.23 1265.47,605.42 1269.38,605.72 1273.28,597.32 1277.19,605.46 1281.09,605.50 1285.00,605.58" fill="none" stroke="#179b52" stroke-width="1.8"/>
<rect x="60.0" y="682.7" width="375.0" height="247.3" fill="#fff" stroke="#bbb"/>
<text x="247.5" y="672.7" text-anchor="middle" font-family="Arial" font-size="15" fill="#111">bn=8</text>
<line x1="60.0" y1="682.7" x2="60.0" y2="930.0" stroke="#eeeeee"/>
<text x="60.0" y="948.0" text-anchor="middle" font-family="Arial" font-size="11" fill="#444">8</text>
<line x1="153.8" y1="682.7" x2="153.8" y2="930.0" stroke="#eeeeee"/>
<text x="153.8" y="948.0" text-anchor="middle" font-family="Arial" font-size="11" fill="#444">56</text>
<line x1="247.5" y1="682.7" x2="247.5" y2="930.0" stroke="#eeeeee"/>
<text x="247.5" y="948.0" text-anchor="middle" font-family="Arial" font-size="11" fill="#444">104</text>
<line x1="341.2" y1="682.7" x2="341.2" y2="930.0" stroke="#eeeeee"/>
<text x="341.2" y="948.0" text-anchor="middle" font-family="Arial" font-size="11" fill="#444">152</text>
<line x1="435.0" y1="682.7" x2="435.0" y2="930.0" stroke="#eeeeee"/>
<text x="435.0" y="948.0" text-anchor="middle" font-family="Arial" font-size="11" fill="#444">200</text>
<line x1="60.0" y1="930.0" x2="435.0" y2="930.0" stroke="#eeeeee"/>
<text x="52.0" y="934.0" text-anchor="end" font-family="Arial" font-size="11" fill="#444">0.00</text>
<line x1="60.0" y1="868.2" x2="435.0" y2="868.2" stroke="#eeeeee"/>
<text x="52.0" y="872.2" text-anchor="end" font-family="Arial" font-size="11" fill="#444">0.87</text>
<line x1="60.0" y1="806.3" x2="435.0" y2="806.3" stroke="#eeeeee"/>
<text x="52.0" y="810.3" text-anchor="end" font-family="Arial" font-size="11" fill="#444">1.73</text>
<line x1="60.0" y1="744.5" x2="435.0" y2="744.5" stroke="#eeeeee"/>
<text x="52.0" y="748.5" text-anchor="end" font-family="Arial" font-size="11" fill="#444">2.60</text>
<line x1="60.0" y1="682.7" x2="435.0" y2="682.7" stroke="#eeeeee"/>
<text x="52.0" y="686.7" text-anchor="end" font-family="Arial" font-size="11" fill="#444">3.47</text>
<polyline points="60.00,920.26 63.91,918.59 67.81,920.10 71.72,920.32 75.62,921.31 79.53,920.98 83.44,921.45 87.34,921.74 91.25,922.05 95.16,921.83 99.06,921.84 102.97,921.80 106.88,922.39 110.78,922.41 114.69,922.33 118.59,922.34 122.50,922.70 126.41,922.52 130.31,922.48 134.22,922.45 138.12,922.57 142.03,922.56 145.94,922.60 149.84,922.27 153.75,922.71 157.66,922.73 161.56,922.50 165.47,922.53 169.38,922.57 173.28,922.55 177.19,922.61 181.09,922.58 185.00,922.74 188.91,922.71 192.81,922.40 196.72,922.56 200.62,922.60 204.53,922.62 208.44,922.49 212.34,922.50 216.25,922.59 220.16,922.59 224.06,922.48 227.97,922.56 231.88,922.59 235.78,922.59 239.69,922.48 243.59,922.43 247.50,922.58 251.41,922.47 255.31,922.44 259.22,922.45 263.12,922.51 267.03,922.44 270.94,922.39 274.84,922.45 278.75,922.54 282.66,922.53 286.56,922.52 290.47,922.51 294.38,922.59 298.28,922.36 302.19,922.44 306.09,922.40 310.00,922.43 313.91,922.38 317.81,922.36 321.72,922.12 325.62,922.26 329.53,921.83 333.44,922.32 337.34,922.45 341.25,922.53 345.16,922.54 349.06,922.59 352.97,922.57 356.88,922.50 360.78,922.48 364.69,922.39 368.59,922.52 372.50,922.53 376.41,922.47 380.31,922.44 384.22,922.39 388.12,922.50 392.03,922.46 395.94,922.45 399.84,922.45 403.75,922.58 407.66,922.51 411.56,922.54 415.47,922.54 419.38,922.55 423.28,922.45 427.19,922.49 431.09,922.11 435.00,922.52" fill="none" stroke="#0b6cff" stroke-width="1.8"/>
<polyline points="60.00,910.55 63.91,907.40 67.81,910.84 71.72,913.04 75.62,915.42 79.53,912.45 83.44,914.09 87.34,915.18 91.25,916.66 95.16,913.88 99.06,914.72 102.97,915.86 106.88,917.64 110.78,915.84 114.69,916.56 118.59,917.17 122.50,918.14 126.41,916.00 130.31,917.01 134.22,917.50 138.12,918.41 142.03,916.94 145.94,917.34 149.84,917.57 153.75,918.38 157.66,917.25 161.56,917.67 165.47,918.01 169.38,918.59 173.28,917.60 177.19,917.96 181.09,918.06 185.00,918.75 188.91,917.71 192.81,918.13 196.72,918.23 200.62,918.62 204.53,917.80 208.44,918.28 212.34,918.36 216.25,918.82 220.16,917.99 224.06,918.27 227.97,918.41 231.88,918.87 235.78,918.10 239.69,918.32 243.59,918.54 247.50,918.80 251.41,918.13 255.31,918.22 259.22,918.42 263.12,918.49 267.03,918.19 270.94,918.24 274.84,918.51 278.75,918.79 282.66,918.40 286.56,918.46 290.47,918.69 294.38,918.90 298.28,918.43 302.19,918.62 306.09,918.77 310.00,918.96 313.91,918.53 317.81,918.64 321.72,918.67 325.62,918.67 329.53,918.41 333.44,918.52 337.34,918.88 341.25,919.19 345.16,918.79 349.06,918.93 352.97,918.94 356.88,919.09 360.78,918.70 364.69,918.79 368.59,918.93 372.50,919.16 376.41,918.85 380.31,918.88 384.22,918.84 388.12,919.07 392.03,918.87 395.94,918.78 399.84,918.98 403.75,919.04 407.66,918.80 411.56,918.83 415.47,918.87 419.38,919.14 423.28,918.69 427.19,918.95 431.09,918.93 435.00,919.10" fill="none" stroke="#d14a00" stroke-width="1.8"/>
<polyline points="60.00,894.08 63.91,891.99 67.81,897.59 71.72,901.21 75.62,905.20 79.53,901.20 83.44,903.98 87.34,906.15 91.25,908.55 95.16,905.39 99.06,906.69 102.97,907.97 106.88,910.71 110.78,908.33 114.69,909.31 118.59,910.30 122.50,911.58 126.41,909.27 130.31,909.97 134.22,910.78 138.12,911.76 142.03,910.31 145.94,910.92 149.84,911.32 153.75,910.98 157.66,910.90 161.56,911.39 165.47,911.86 169.38,912.39 173.28,911.47 177.19,912.00 181.09,912.30 185.00,913.17 188.91,911.65 192.81,912.30 196.72,912.59 200.62,913.19 204.53,911.80 208.44,912.47 212.34,912.39 216.25,912.96 220.16,912.06 224.06,912.37 227.97,912.65 231.88,912.80 235.78,912.15 239.69,912.42 243.59,912.55 247.50,913.09 251.41,912.28 255.31,912.38 259.22,912.58 263.12,913.14 267.03,912.40 270.94,912.70 274.84,912.81 278.75,913.35 282.66,912.82 286.56,912.86 290.47,913.21 294.38,913.67 298.28,912.89 302.19,913.19 306.09,913.24 310.00,913.65 313.91,913.06 317.81,912.17 321.72,913.32 325.62,913.63 329.53,913.18 333.44,913.14 337.34,913.70 341.25,914.06 345.16,913.63 349.06,913.78 352.97,913.76 356.88,914.12 360.78,913.60 364.69,913.60 368.59,913.86 372.50,914.18 376.41,913.83 380.31,913.90 384.22,913.94 388.12,914.30 392.03,913.87 395.94,913.98 399.84,913.74 403.75,914.42 407.66,914.14 411.56,914.12 415.47,914.23 419.38,914.35 423.28,913.59 427.19,914.20 431.09,914.17 435.00,913.13" fill="none" stroke="#179b52" stroke-width="1.8"/>
<rect x="485.0" y="682.7" width="375.0" height="247.3" fill="#fff" stroke="#bbb"/>
<text x="672.5" y="672.7" text-anchor="middle" font-family="Arial" font-size="15" fill="#111">bn=10</text>
<line x1="485.0" y1="682.7" x2="485.0" y2="930.0" stroke="#eeeeee"/>
<text x="485.0" y="948.0" text-anchor="middle" font-family="Arial" font-size="11" fill="#444">8</text>
<line x1="578.8" y1="682.7" x2="578.8" y2="930.0" stroke="#eeeeee"/>
<text x="578.8" y="948.0" text-anchor="middle" font-family="Arial" font-size="11" fill="#444">56</text>
<line x1="672.5" y1="682.7" x2="672.5" y2="930.0" stroke="#eeeeee"/>
<text x="672.5" y="948.0" text-anchor="middle" font-family="Arial" font-size="11" fill="#444">104</text>
<line x1="766.2" y1="682.7" x2="766.2" y2="930.0" stroke="#eeeeee"/>
<text x="766.2" y="948.0" text-anchor="middle" font-family="Arial" font-size="11" fill="#444">152</text>
<line x1="860.0" y1="682.7" x2="860.0" y2="930.0" stroke="#eeeeee"/>
<text x="860.0" y="948.0" text-anchor="middle" font-family="Arial" font-size="11" fill="#444">200</text>
<line x1="485.0" y1="930.0" x2="860.0" y2="930.0" stroke="#eeeeee"/>
<line x1="485.0" y1="868.2" x2="860.0" y2="868.2" stroke="#eeeeee"/>
<line x1="485.0" y1="806.3" x2="860.0" y2="806.3" stroke="#eeeeee"/>
<line x1="485.0" y1="744.5" x2="860.0" y2="744.5" stroke="#eeeeee"/>
<line x1="485.0" y1="682.7" x2="860.0" y2="682.7" stroke="#eeeeee"/>
<polyline points="485.00,919.21 488.91,919.08 492.81,920.79 496.72,921.28 500.62,921.73 504.53,921.53 508.44,922.20 512.34,922.22 516.25,922.53 520.16,922.37 524.06,922.81 527.97,922.20 531.88,922.73 535.78,922.33 539.69,923.00 543.59,922.80 547.50,922.84 551.41,922.91 555.31,922.93 559.22,922.81 563.12,922.97 567.03,922.31 570.94,923.19 574.84,922.68 578.75,923.19 582.66,923.05 586.56,923.26 590.47,922.94 594.38,923.19 598.28,923.17 602.19,923.37 606.09,923.13 610.00,923.21 613.91,923.09 617.81,923.35 621.72,923.18 625.62,923.22 629.53,923.07 633.44,923.38 637.34,923.17 641.25,923.27 645.16,923.21 649.06,923.46 652.97,923.20 656.88,923.32 660.78,923.22 664.69,923.40 668.59,923.05 672.50,923.32 676.41,923.28 680.31,923.42 684.22,923.03 688.12,923.16 692.03,922.83 695.94,922.98 699.84,922.83 703.75,922.92 707.66,923.14 711.56,923.05 715.47,922.83 719.38,923.24 723.28,923.22 727.19,923.35 731.09,923.07 735.00,923.07 738.91,923.28 742.81,923.37 746.72,923.13 750.62,923.12 754.53,923.20 758.44,923.31 762.34,923.18 766.25,923.25 770.16,923.21 774.06,923.28 777.97,923.15 781.88,923.17 785.78,923.13 789.69,923.22 793.59,923.18 797.50,923.32 801.41,923.14 805.31,923.28 809.22,923.12 813.12,923.30 817.03,923.27 820.94,923.31 824.84,923.28 828.75,923.26 832.66,923.21 836.56,923.28 840.47,923.23 844.38,923.30 848.28,923.19 852.19,923.23 856.09,923.17 860.00,923.19" fill="none" stroke="#0b6cff" stroke-width="1.8"/>
<polyline points="485.00,907.37 488.91,908.92 492.81,912.01 496.72,912.10 500.62,913.68 504.53,913.66 508.44,915.37 512.34,914.96 516.25,915.40 520.16,915.88 524.06,916.78 527.97,916.45 531.88,917.16 535.78,917.28 539.69,917.85 543.59,917.54 547.50,918.16 551.41,917.95 555.31,918.49 559.22,918.08 563.12,918.50 567.03,918.38 570.94,918.85 574.84,918.50 578.75,918.73 582.66,918.71 586.56,919.12 590.47,919.08 594.38,919.30 598.28,919.16 602.19,919.45 606.09,919.34 610.00,919.41 613.91,919.28 617.81,919.38 621.72,919.30 625.62,919.59 629.53,919.58 633.44,919.79 637.34,919.57 641.25,919.57 645.16,919.70 649.06,919.91 652.97,919.85 656.88,920.01 660.78,919.83 664.69,919.87 668.59,919.96 672.50,920.01 676.41,919.95 680.31,919.91 684.22,919.73 688.12,919.87 692.03,919.70 695.94,919.88 699.84,919.82 703.75,919.98 707.66,919.98 711.56,920.17 715.47,919.99 719.38,920.15 723.28,920.13 727.19,920.21 731.09,920.10 735.00,920.22 738.91,920.15 742.81,920.28 746.72,920.16 750.62,920.30 754.53,920.12 758.44,920.33 762.34,920.17 766.25,920.35 770.16,920.21 774.06,920.21 777.97,920.19 781.88,920.35 785.78,920.28 789.69,920.43 793.59,920.35 797.50,920.31 801.41,920.22 805.31,920.53 809.22,920.43 813.12,920.56 817.03,920.43 820.94,920.53 824.84,920.40 828.75,920.49 832.66,920.35 836.56,920.49 840.47,920.52 844.38,920.56 848.28,920.51 852.19,920.59 856.09,920.44 860.00,920.50" fill="none" stroke="#d14a00" stroke-width="1.8"/>
<polyline points="485.00,891.39 488.91,894.25 492.81,899.73 496.72,902.21 500.62,904.92 504.53,905.59 508.44,907.35 512.34,907.84 516.25,909.03 520.16,909.29 524.06,910.46 527.97,909.94 531.88,911.40 535.78,911.35 539.69,912.16 543.59,911.82 547.50,912.52 551.41,912.35 555.31,912.93 559.22,912.71 563.12,913.11 567.03,912.97 570.94,913.00 574.84,913.35 578.75,913.73 582.66,913.68 586.56,914.26 590.47,914.06 594.38,914.39 598.28,914.42 602.19,914.58 606.09,914.51 610.00,914.61 613.91,914.61 617.81,914.61 621.72,914.51 625.62,914.86 629.53,914.57 633.44,914.83 637.34,914.64 641.25,914.90 645.16,914.86 649.06,915.19 652.97,915.10 656.88,915.24 660.78,915.13 664.69,915.30 668.59,915.17 672.50,915.31 676.41,915.30 680.31,915.03 684.22,914.63 688.12,915.16 692.03,915.15 695.94,915.43 699.84,915.28 703.75,915.49 707.66,915.55 711.56,915.77 715.47,915.64 719.38,915.85 723.28,915.85 727.19,915.93 731.09,915.80 735.00,915.96 738.91,915.86 742.81,916.04 746.72,915.90 750.62,916.09 754.53,915.93 758.44,916.16 762.34,916.10 766.25,916.22 770.16,915.85 774.06,916.27 777.97,916.21 781.88,916.13 785.78,916.26 789.69,916.48 793.59,916.30 797.50,916.04 801.41,916.31 805.31,916.50 809.22,916.43 813.12,916.55 817.03,916.53 820.94,916.60 824.84,916.38 828.75,916.64 832.66,916.53 836.56,916.62 840.47,916.65 844.38,916.67 848.28,916.61 852.19,916.71 856.09,916.72 860.00,916.77" fill="none" stroke="#179b52" stroke-width="1.8"/>
<rect x="910.0" y="682.7" width="375.0" height="247.3" fill="#fff" stroke="#bbb"/>
<text x="1097.5" y="672.7" text-anchor="middle" font-family="Arial" font-size="15" fill="#111">bn=12</text>
<line x1="910.0" y1="682.7" x2="910.0" y2="930.0" stroke="#eeeeee"/>
<text x="910.0" y="948.0" text-anchor="middle" font-family="Arial" font-size="11" fill="#444">8</text>
<line x1="1003.8" y1="682.7" x2="1003.8" y2="930.0" stroke="#eeeeee"/>
<text x="1003.8" y="948.0" text-anchor="middle" font-family="Arial" font-size="11" fill="#444">56</text>
<line x1="1097.5" y1="682.7" x2="1097.5" y2="930.0" stroke="#eeeeee"/>
<text x="1097.5" y="948.0" text-anchor="middle" font-family="Arial" font-size="11" fill="#444">104</text>
<line x1="1191.2" y1="682.7" x2="1191.2" y2="930.0" stroke="#eeeeee"/>
<text x="1191.2" y="948.0" text-anchor="middle" font-family="Arial" font-size="11" fill="#444">152</text>
<line x1="1285.0" y1="682.7" x2="1285.0" y2="930.0" stroke="#eeeeee"/>
<text x="1285.0" y="948.0" text-anchor="middle" font-family="Arial" font-size="11" fill="#444">200</text>
<line x1="910.0" y1="930.0" x2="1285.0" y2="930.0" stroke="#eeeeee"/>
<line x1="910.0" y1="868.2" x2="1285.0" y2="868.2" stroke="#eeeeee"/>
<line x1="910.0" y1="806.3" x2="1285.0" y2="806.3" stroke="#eeeeee"/>
<line x1="910.0" y1="744.5" x2="1285.0" y2="744.5" stroke="#eeeeee"/>
<line x1="910.0" y1="682.7" x2="1285.0" y2="682.7" stroke="#eeeeee"/>
<polyline points="910.00,920.25 913.91,920.90 917.81,922.18 921.72,921.67 925.62,922.58 929.53,922.59 933.44,921.49 937.34,922.78 941.25,923.36 945.16,923.47 949.06,923.71 952.97,923.31 956.88,923.69 960.78,923.64 964.69,923.96 968.59,923.27 972.50,923.76 976.41,923.78 980.31,924.03 984.22,923.58 988.12,923.88 992.03,923.78 995.94,924.10 999.84,923.76 1003.75,923.94 1007.66,923.82 1011.56,924.06 1015.47,923.73 1019.38,923.70 1023.28,923.55 1027.19,924.08 1031.09,923.77 1035.00,923.91 1038.91,923.86 1042.81,924.05 1046.72,923.74 1050.62,923.86 1054.53,923.92 1058.44,924.04 1062.34,923.78 1066.25,923.84 1070.16,923.97 1074.06,923.99 1077.97,923.80 1081.88,923.92 1085.78,923.94 1089.69,924.02 1093.59,923.80 1097.50,923.89 1101.41,923.97 1105.31,924.06 1109.22,923.87 1113.12,923.71 1117.03,923.90 1120.94,923.95 1124.84,923.77 1128.75,923.78 1132.66,923.85 1136.56,923.90 1140.47,923.73 1144.38,923.80 1148.28,923.84 1152.19,923.96 1156.09,923.65 1160.00,923.72 1163.91,923.84 1167.81,923.91 1171.72,923.63 1175.62,923.72 1179.53,923.77 1183.44,923.79 1187.34,923.72 1191.25,923.75 1195.16,923.59 1199.06,923.74 1202.97,923.55 1206.88,923.65 1210.78,923.81 1214.69,923.68 1218.59,923.76 1222.50,923.54 1226.41,923.72 1230.31,923.89 1234.22,923.69 1238.12,923.02 1242.03,923.53 1245.94,923.52 1249.84,923.43 1253.75,923.47 1257.66,923.79 1261.56,923.78 1265.47,923.13 1269.38,923.84 1273.28,923.73 1277.19,923.82 1281.09,923.70 1285.00,923.79" fill="none" stroke="#0b6cff" stroke-width="1.8"/>
<polyline points="910.00,910.87 913.91,911.59 917.81,912.20 921.72,914.53 925.62,916.25 929.53,916.11 933.44,915.99 937.34,917.33 941.25,918.07 945.16,918.15 949.06,917.76 952.97,918.52 956.88,919.22 960.78,919.09 964.69,918.92 968.59,919.37 972.50,919.61 976.41,919.71 980.31,919.48 984.22,919.87 988.12,919.97 992.03,919.77 995.94,919.85 999.84,920.24 1003.75,920.44 1007.66,920.33 1011.56,920.21 1015.47,920.41 1019.38,920.56 1023.28,920.21 1027.19,920.42 1031.09,920.65 1035.00,920.72 1038.91,920.68 1042.81,920.43 1046.72,920.81 1050.62,920.91 1054.53,920.78 1058.44,920.64 1062.34,920.95 1066.25,921.08 1070.16,920.96 1074.06,920.86 1077.97,921.02 1081.88,921.15 1085.78,921.04 1089.69,920.89 1093.59,921.07 1097.50,921.21 1101.41,920.99 1105.31,920.63 1109.22,921.12 1113.12,920.85 1117.03,920.99 1120.94,920.90 1124.84,920.95 1128.75,921.20 1132.66,921.08 1136.56,920.93 1140.47,921.06 1144.38,921.25 1148.28,921.12 1152.19,921.14 1156.09,921.13 1160.00,921.29 1163.91,921.16 1167.81,921.11 1171.72,921.08 1175.62,921.28 1179.53,921.22 1183.44,921.11 1187.34,921.15 1191.25,921.38 1195.16,921.36 1199.06,921.42 1202.97,921.45 1206.88,921.53 1210.78,921.42 1214.69,921.36 1218.59,921.43 1222.50,921.56 1226.41,921.47 1230.31,921.34 1234.22,921.42 1238.12,921.57 1242.03,921.39 1245.94,921.27 1249.84,921.46 1253.75,921.52 1257.66,921.33 1261.56,921.13 1265.47,921.45 1269.38,921.57 1273.28,921.53 1277.19,921.48 1281.09,921.38 1285.00,921.30" fill="none" stroke="#d14a00" stroke-width="1.8"/>
<polyline points="910.00,898.05 913.91,900.49 917.81,902.64 921.72,906.45 925.62,908.68 929.53,909.05 933.44,909.66 937.34,911.47 941.25,912.36 945.16,912.54 949.06,912.32 952.97,913.19 956.88,914.22 960.78,913.86 964.69,913.95 968.59,914.34 972.50,915.04 976.41,914.85 980.31,914.82 984.22,915.32 988.12,915.64 992.03,915.39 995.94,915.43 999.84,915.79 1003.75,916.26 1007.66,915.99 1011.56,915.97 1015.47,916.22 1019.38,916.52 1023.28,916.43 1027.19,916.32 1031.09,916.58 1035.00,916.72 1038.91,916.56 1042.81,916.53 1046.72,916.82 1050.62,917.00 1054.53,916.60 1058.44,916.86 1062.34,917.08 1066.25,916.98 1070.16,916.87 1074.06,916.71 1077.97,916.73 1081.88,917.13 1085.78,917.06 1089.69,916.99 1093.59,917.19 1097.50,917.17 1101.41,917.09 1105.31,916.91 1109.22,917.12 1113.12,917.11 1117.03,917.01 1120.94,917.08 1124.84,917.30 1128.75,917.34 1132.66,917.25 1136.56,917.32 1140.47,917.41 1144.38,917.54 1148.28,917.40 1152.19,917.47 1156.09,917.54 1160.00,917.74 1163.91,917.39 1167.81,917.50 1171.72,917.65 1175.62,917.74 1179.53,917.72 1183.44,917.62 1187.34,917.73 1191.25,917.90 1195.16,917.92 1199.06,917.94 1202.97,917.88 1206.88,918.08 1210.78,917.98 1214.69,917.96 1218.59,918.06 1222.50,918.12 1226.41,918.13 1230.31,917.75 1234.22,918.04 1238.12,918.08 1242.03,918.14 1245.94,917.16 1249.84,918.13 1253.75,918.09 1257.66,918.09 1261.56,917.69 1265.47,918.31 1269.38,917.15 1273.28,918.25 1277.19,918.08 1281.09,917.90 1285.00,918.35" fill="none" stroke="#179b52" stroke-width="1.8"/>
<line x1="930" y1="34" x2="958" y2="34" stroke="#0b6cff" stroke-width="3"/>
<text x="965" y="39" font-family="Arial" font-size="13" fill="#111">mul.h u52</text>
<line x1="1058" y1="34" x2="1086" y2="34" stroke="#d14a00" stroke-width="3"/>
<text x="1093" y="39" font-family="Arial" font-size="13" fill="#111">ref predecoded</text>
<line x1="1186" y1="34" x2="1214" y2="34" stroke="#179b52" stroke-width="3"/>
<text x="1221" y="39" font-family="Arial" font-size="13" fill="#111">ref full u64</text>
<text x="660.0" y="965" text-anchor="middle" font-family="Arial" font-size="14" fill="#111">an52 digits</text>
</svg>