<?xml version="1.0" encoding="utf-8" standalone="no"?>
<!DOCTYPE svg PUBLIC "-//W3C//DTD SVG 1.1//EN"
  "http://www.w3.org/Graphics/SVG/1.1/DTD/svg11.dtd">
<svg xmlns:xlink="http://www.w3.org/1999/xlink" width="864pt" height="504pt" viewBox="0 0 864 504" xmlns="http://www.w3.org/2000/svg" version="1.1">
 <metadata>
  <rdf:RDF xmlns:dc="http://purl.org/dc/elements/1.1/" xmlns:cc="http://creativecommons.org/ns#" xmlns:rdf="http://www.w3.org/1999/02/22-rdf-syntax-ns#">
   <cc:Work>
    <dc:type rdf:resource="http://purl.org/dc/dcmitype/StillImage"/>
    <dc:date>2026-06-04T10:53:42.061026</dc:date>
    <dc:format>image/svg+xml</dc:format>
    <dc:creator>
     <cc:Agent>
      <dc:title>Matplotlib v3.10.7+dfsg1, https://matplotlib.org/</dc:title>
     </cc:Agent>
    </dc:creator>
   </cc:Work>
  </rdf:RDF>
 </metadata>
 <defs>
  <style type="text/css">*{stroke-linejoin: round; stroke-linecap: butt}</style>
 </defs>
 <g id="figure_1">
  <g id="patch_1">
   <path d="M 0 504 
L 864 504 
L 864 0 
L 0 0 
z
" style="fill: #ffffff"/>
  </g>
  <g id="axes_1">
   <g id="patch_2">
    <path d="M 60.69125 462.04 
L 853.2 462.04 
L 853.2 25.44 
L 60.69125 25.44 
z
" style="fill: #ffffff"/>
   </g>
   <g id="matplotlib.axis_1">
    <g id="xtick_1">
     <g id="line2d_1">
      <path d="M 82.011059 462.04 
L 82.011059 25.44 
" clip-path="url(#p0fe817f427)" style="fill: none; stroke: #b0b0b0; stroke-opacity: 0.25; stroke-width: 0.8; stroke-linecap: square"/>
     </g>
     <g id="line2d_2">
      <defs>
       <path id="mff22ca484f" d="M 0 0 
L 0 3.5 
" style="stroke: #000000; stroke-width: 0.8"/>
      </defs>
      <g>
       <use xlink:href="#mff22ca484f" x="82.011059" y="462.04" style="stroke: #000000; stroke-width: 0.8"/>
      </g>
     </g>
     <g id="text_1">
      <!-- 0 -->
      <g transform="translate(78.829809 476.638438) scale(0.1 -0.1)">
       <defs>
        <path id="DejaVuSans-30" d="M 2034 4250 
Q 1547 4250 1301 3770 
Q 1056 3291 1056 2328 
Q 1056 1369 1301 889 
Q 1547 409 2034 409 
Q 2525 409 2770 889 
Q 3016 1369 3016 2328 
Q 3016 3291 2770 3770 
Q 2525 4250 2034 4250 
z
M 2034 4750 
Q 2819 4750 3233 4129 
Q 3647 3509 3647 2328 
Q 3647 1150 3233 529 
Q 2819 -91 2034 -91 
Q 1250 -91 836 529 
Q 422 1150 422 2328 
Q 422 3509 836 4129 
Q 1250 4750 2034 4750 
z
" transform="scale(0.015625)"/>
       </defs>
       <use xlink:href="#DejaVuSans-30"/>
      </g>
     </g>
    </g>
    <g id="xtick_2">
     <g id="line2d_3">
      <path d="M 173.906786 462.04 
L 173.906786 25.44 
" clip-path="url(#p0fe817f427)" style="fill: none; stroke: #b0b0b0; stroke-opacity: 0.25; stroke-width: 0.8; stroke-linecap: square"/>
     </g>
     <g id="line2d_4">
      <g>
       <use xlink:href="#mff22ca484f" x="173.906786" y="462.04" style="stroke: #000000; stroke-width: 0.8"/>
      </g>
     </g>
     <g id="text_2">
      <!-- 50 -->
      <g transform="translate(167.544286 476.638438) scale(0.1 -0.1)">
       <defs>
        <path id="DejaVuSans-35" d="M 691 4666 
L 3169 4666 
L 3169 4134 
L 1269 4134 
L 1269 2991 
Q 1406 3038 1543 3061 
Q 1681 3084 1819 3084 
Q 2600 3084 3056 2656 
Q 3513 2228 3513 1497 
Q 3513 744 3044 326 
Q 2575 -91 1722 -91 
Q 1428 -91 1123 -41 
Q 819 9 494 109 
L 494 744 
Q 775 591 1075 516 
Q 1375 441 1709 441 
Q 2250 441 2565 725 
Q 2881 1009 2881 1497 
Q 2881 1984 2565 2268 
Q 2250 2553 1709 2553 
Q 1456 2553 1204 2497 
Q 953 2441 691 2322 
L 691 4666 
z
" transform="scale(0.015625)"/>
       </defs>
       <use xlink:href="#DejaVuSans-35"/>
       <use xlink:href="#DejaVuSans-30" transform="translate(63.623047 0)"/>
      </g>
     </g>
    </g>
    <g id="xtick_3">
     <g id="line2d_5">
      <path d="M 265.802513 462.04 
L 265.802513 25.44 
" clip-path="url(#p0fe817f427)" style="fill: none; stroke: #b0b0b0; stroke-opacity: 0.25; stroke-width: 0.8; stroke-linecap: square"/>
     </g>
     <g id="line2d_6">
      <g>
       <use xlink:href="#mff22ca484f" x="265.802513" y="462.04" style="stroke: #000000; stroke-width: 0.8"/>
      </g>
     </g>
     <g id="text_3">
      <!-- 100 -->
      <g transform="translate(256.258763 476.638438) scale(0.1 -0.1)">
       <defs>
        <path id="DejaVuSans-31" d="M 794 531 
L 1825 531 
L 1825 4091 
L 703 3866 
L 703 4441 
L 1819 4666 
L 2450 4666 
L 2450 531 
L 3481 531 
L 3481 0 
L 794 0 
L 794 531 
z
" transform="scale(0.015625)"/>
       </defs>
       <use xlink:href="#DejaVuSans-31"/>
       <use xlink:href="#DejaVuSans-30" transform="translate(63.623047 0)"/>
       <use xlink:href="#DejaVuSans-30" transform="translate(127.246094 0)"/>
      </g>
     </g>
    </g>
    <g id="xtick_4">
     <g id="line2d_7">
      <path d="M 357.69824 462.04 
L 357.69824 25.44 
" clip-path="url(#p0fe817f427)" style="fill: none; stroke: #b0b0b0; stroke-opacity: 0.25; stroke-width: 0.8; stroke-linecap: square"/>
     </g>
     <g id="line2d_8">
      <g>
       <use xlink:href="#mff22ca484f" x="357.69824" y="462.04" style="stroke: #000000; stroke-width: 0.8"/>
      </g>
     </g>
     <g id="text_4">
      <!-- 150 -->
      <g transform="translate(348.15449 476.638438) scale(0.1 -0.1)">
       <use xlink:href="#DejaVuSans-31"/>
       <use xlink:href="#DejaVuSans-35" transform="translate(63.623047 0)"/>
       <use xlink:href="#DejaVuSans-30" transform="translate(127.246094 0)"/>
      </g>
     </g>
    </g>
    <g id="xtick_5">
     <g id="line2d_9">
      <path d="M 449.593967 462.04 
L 449.593967 25.44 
" clip-path="url(#p0fe817f427)" style="fill: none; stroke: #b0b0b0; stroke-opacity: 0.25; stroke-width: 0.8; stroke-linecap: square"/>
     </g>
     <g id="line2d_10">
      <g>
       <use xlink:href="#mff22ca484f" x="449.593967" y="462.04" style="stroke: #000000; stroke-width: 0.8"/>
      </g>
     </g>
     <g id="text_5">
      <!-- 200 -->
      <g transform="translate(440.050217 476.638438) scale(0.1 -0.1)">
       <defs>
        <path id="DejaVuSans-32" d="M 1228 531 
L 3431 531 
L 3431 0 
L 469 0 
L 469 531 
Q 828 903 1448 1529 
Q 2069 2156 2228 2338 
Q 2531 2678 2651 2914 
Q 2772 3150 2772 3378 
Q 2772 3750 2511 3984 
Q 2250 4219 1831 4219 
Q 1534 4219 1204 4116 
Q 875 4013 500 3803 
L 500 4441 
Q 881 4594 1212 4672 
Q 1544 4750 1819 4750 
Q 2544 4750 2975 4387 
Q 3406 4025 3406 3419 
Q 3406 3131 3298 2873 
Q 3191 2616 2906 2266 
Q 2828 2175 2409 1742 
Q 1991 1309 1228 531 
z
" transform="scale(0.015625)"/>
       </defs>
       <use xlink:href="#DejaVuSans-32"/>
       <use xlink:href="#DejaVuSans-30" transform="translate(63.623047 0)"/>
       <use xlink:href="#DejaVuSans-30" transform="translate(127.246094 0)"/>
      </g>
     </g>
    </g>
    <g id="xtick_6">
     <g id="line2d_11">
      <path d="M 541.489694 462.04 
L 541.489694 25.44 
" clip-path="url(#p0fe817f427)" style="fill: none; stroke: #b0b0b0; stroke-opacity: 0.25; stroke-width: 0.8; stroke-linecap: square"/>
     </g>
     <g id="line2d_12">
      <g>
       <use xlink:href="#mff22ca484f" x="541.489694" y="462.04" style="stroke: #000000; stroke-width: 0.8"/>
      </g>
     </g>
     <g id="text_6">
      <!-- 250 -->
      <g transform="translate(531.945944 476.638438) scale(0.1 -0.1)">
       <use xlink:href="#DejaVuSans-32"/>
       <use xlink:href="#DejaVuSans-35" transform="translate(63.623047 0)"/>
       <use xlink:href="#DejaVuSans-30" transform="translate(127.246094 0)"/>
      </g>
     </g>
    </g>
    <g id="xtick_7">
     <g id="line2d_13">
      <path d="M 633.385421 462.04 
L 633.385421 25.44 
" clip-path="url(#p0fe817f427)" style="fill: none; stroke: #b0b0b0; stroke-opacity: 0.25; stroke-width: 0.8; stroke-linecap: square"/>
     </g>
     <g id="line2d_14">
      <g>
       <use xlink:href="#mff22ca484f" x="633.385421" y="462.04" style="stroke: #000000; stroke-width: 0.8"/>
      </g>
     </g>
     <g id="text_7">
      <!-- 300 -->
      <g transform="translate(623.841671 476.638438) scale(0.1 -0.1)">
       <defs>
        <path id="DejaVuSans-33" d="M 2597 2516 
Q 3050 2419 3304 2112 
Q 3559 1806 3559 1356 
Q 3559 666 3084 287 
Q 2609 -91 1734 -91 
Q 1441 -91 1130 -33 
Q 819 25 488 141 
L 488 750 
Q 750 597 1062 519 
Q 1375 441 1716 441 
Q 2309 441 2620 675 
Q 2931 909 2931 1356 
Q 2931 1769 2642 2001 
Q 2353 2234 1838 2234 
L 1294 2234 
L 1294 2753 
L 1863 2753 
Q 2328 2753 2575 2939 
Q 2822 3125 2822 3475 
Q 2822 3834 2567 4026 
Q 2313 4219 1838 4219 
Q 1578 4219 1281 4162 
Q 984 4106 628 3988 
L 628 4550 
Q 988 4650 1302 4700 
Q 1616 4750 1894 4750 
Q 2613 4750 3031 4423 
Q 3450 4097 3450 3541 
Q 3450 3153 3228 2886 
Q 3006 2619 2597 2516 
z
" transform="scale(0.015625)"/>
       </defs>
       <use xlink:href="#DejaVuSans-33"/>
       <use xlink:href="#DejaVuSans-30" transform="translate(63.623047 0)"/>
       <use xlink:href="#DejaVuSans-30" transform="translate(127.246094 0)"/>
      </g>
     </g>
    </g>
    <g id="xtick_8">
     <g id="line2d_15">
      <path d="M 725.281148 462.04 
L 725.281148 25.44 
" clip-path="url(#p0fe817f427)" style="fill: none; stroke: #b0b0b0; stroke-opacity: 0.25; stroke-width: 0.8; stroke-linecap: square"/>
     </g>
     <g id="line2d_16">
      <g>
       <use xlink:href="#mff22ca484f" x="725.281148" y="462.04" style="stroke: #000000; stroke-width: 0.8"/>
      </g>
     </g>
     <g id="text_8">
      <!-- 350 -->
      <g transform="translate(715.737398 476.638438) scale(0.1 -0.1)">
       <use xlink:href="#DejaVuSans-33"/>
       <use xlink:href="#DejaVuSans-35" transform="translate(63.623047 0)"/>
       <use xlink:href="#DejaVuSans-30" transform="translate(127.246094 0)"/>
      </g>
     </g>
    </g>
    <g id="xtick_9">
     <g id="line2d_17">
      <path d="M 817.176875 462.04 
L 817.176875 25.44 
" clip-path="url(#p0fe817f427)" style="fill: none; stroke: #b0b0b0; stroke-opacity: 0.25; stroke-width: 0.8; stroke-linecap: square"/>
     </g>
     <g id="line2d_18">
      <g>
       <use xlink:href="#mff22ca484f" x="817.176875" y="462.04" style="stroke: #000000; stroke-width: 0.8"/>
      </g>
     </g>
     <g id="text_9">
      <!-- 400 -->
      <g transform="translate(807.633125 476.638438) scale(0.1 -0.1)">
       <defs>
        <path id="DejaVuSans-34" d="M 2419 4116 
L 825 1625 
L 2419 1625 
L 2419 4116 
z
M 2253 4666 
L 3047 4666 
L 3047 1625 
L 3713 1625 
L 3713 1100 
L 3047 1100 
L 3047 0 
L 2419 0 
L 2419 1100 
L 313 1100 
L 313 1709 
L 2253 4666 
z
" transform="scale(0.015625)"/>
       </defs>
       <use xlink:href="#DejaVuSans-34"/>
       <use xlink:href="#DejaVuSans-30" transform="translate(63.623047 0)"/>
       <use xlink:href="#DejaVuSans-30" transform="translate(127.246094 0)"/>
      </g>
     </g>
    </g>
    <g id="text_10">
     <!-- an u52 limbs -->
     <g transform="translate(424.576094 490.316563) scale(0.1 -0.1)">
      <defs>
       <path id="DejaVuSans-61" d="M 2194 1759 
Q 1497 1759 1228 1600 
Q 959 1441 959 1056 
Q 959 750 1161 570 
Q 1363 391 1709 391 
Q 2188 391 2477 730 
Q 2766 1069 2766 1631 
L 2766 1759 
L 2194 1759 
z
M 3341 1997 
L 3341 0 
L 2766 0 
L 2766 531 
Q 2569 213 2275 61 
Q 1981 -91 1556 -91 
Q 1019 -91 701 211 
Q 384 513 384 1019 
Q 384 1609 779 1909 
Q 1175 2209 1959 2209 
L 2766 2209 
L 2766 2266 
Q 2766 2663 2505 2880 
Q 2244 3097 1772 3097 
Q 1472 3097 1187 3025 
Q 903 2953 641 2809 
L 641 3341 
Q 956 3463 1253 3523 
Q 1550 3584 1831 3584 
Q 2591 3584 2966 3190 
Q 3341 2797 3341 1997 
z
" transform="scale(0.015625)"/>
       <path id="DejaVuSans-6e" d="M 3513 2113 
L 3513 0 
L 2938 0 
L 2938 2094 
Q 2938 2591 2744 2837 
Q 2550 3084 2163 3084 
Q 1697 3084 1428 2787 
Q 1159 2491 1159 1978 
L 1159 0 
L 581 0 
L 581 3500 
L 1159 3500 
L 1159 2956 
Q 1366 3272 1645 3428 
Q 1925 3584 2291 3584 
Q 2894 3584 3203 3211 
Q 3513 2838 3513 2113 
z
" transform="scale(0.015625)"/>
       <path id="DejaVuSans-20" transform="scale(0.015625)"/>
       <path id="DejaVuSans-75" d="M 544 1381 
L 544 3500 
L 1119 3500 
L 1119 1403 
Q 1119 906 1312 657 
Q 1506 409 1894 409 
Q 2359 409 2629 706 
Q 2900 1003 2900 1516 
L 2900 3500 
L 3475 3500 
L 3475 0 
L 2900 0 
L 2900 538 
Q 2691 219 2414 64 
Q 2138 -91 1772 -91 
Q 1169 -91 856 284 
Q 544 659 544 1381 
z
M 1991 3584 
L 1991 3584 
z
" transform="scale(0.015625)"/>
       <path id="DejaVuSans-6c" d="M 603 4863 
L 1178 4863 
L 1178 0 
L 603 0 
L 603 4863 
z
" transform="scale(0.015625)"/>
       <path id="DejaVuSans-69" d="M 603 3500 
L 1178 3500 
L 1178 0 
L 603 0 
L 603 3500 
z
M 603 4863 
L 1178 4863 
L 1178 4134 
L 603 4134 
L 603 4863 
z
" transform="scale(0.015625)"/>
       <path id="DejaVuSans-6d" d="M 3328 2828 
Q 3544 3216 3844 3400 
Q 4144 3584 4550 3584 
Q 5097 3584 5394 3201 
Q 5691 2819 5691 2113 
L 5691 0 
L 5113 0 
L 5113 2094 
Q 5113 2597 4934 2840 
Q 4756 3084 4391 3084 
Q 3944 3084 3684 2787 
Q 3425 2491 3425 1978 
L 3425 0 
L 2847 0 
L 2847 2094 
Q 2847 2600 2669 2842 
Q 2491 3084 2119 3084 
Q 1678 3084 1418 2786 
Q 1159 2488 1159 1978 
L 1159 0 
L 581 0 
L 581 3500 
L 1159 3500 
L 1159 2956 
Q 1356 3278 1631 3431 
Q 1906 3584 2284 3584 
Q 2666 3584 2933 3390 
Q 3200 3197 3328 2828 
z
" transform="scale(0.015625)"/>
       <path id="DejaVuSans-62" d="M 3116 1747 
Q 3116 2381 2855 2742 
Q 2594 3103 2138 3103 
Q 1681 3103 1420 2742 
Q 1159 2381 1159 1747 
Q 1159 1113 1420 752 
Q 1681 391 2138 391 
Q 2594 391 2855 752 
Q 3116 1113 3116 1747 
z
M 1159 2969 
Q 1341 3281 1617 3432 
Q 1894 3584 2278 3584 
Q 2916 3584 3314 3078 
Q 3713 2572 3713 1747 
Q 3713 922 3314 415 
Q 2916 -91 2278 -91 
Q 1894 -91 1617 61 
Q 1341 213 1159 525 
L 1159 0 
L 581 0 
L 581 4863 
L 1159 4863 
L 1159 2969 
z
" transform="scale(0.015625)"/>
       <path id="DejaVuSans-73" d="M 2834 3397 
L 2834 2853 
Q 2591 2978 2328 3040 
Q 2066 3103 1784 3103 
Q 1356 3103 1142 2972 
Q 928 2841 928 2578 
Q 928 2378 1081 2264 
Q 1234 2150 1697 2047 
L 1894 2003 
Q 2506 1872 2764 1633 
Q 3022 1394 3022 966 
Q 3022 478 2636 193 
Q 2250 -91 1575 -91 
Q 1294 -91 989 -36 
Q 684 19 347 128 
L 347 722 
Q 666 556 975 473 
Q 1284 391 1588 391 
Q 1994 391 2212 530 
Q 2431 669 2431 922 
Q 2431 1156 2273 1281 
Q 2116 1406 1581 1522 
L 1381 1569 
Q 847 1681 609 1914 
Q 372 2147 372 2553 
Q 372 3047 722 3315 
Q 1072 3584 1716 3584 
Q 2034 3584 2315 3537 
Q 2597 3491 2834 3397 
z
" transform="scale(0.015625)"/>
      </defs>
      <use xlink:href="#DejaVuSans-61"/>
      <use xlink:href="#DejaVuSans-6e" transform="translate(61.279297 0)"/>
      <use xlink:href="#DejaVuSans-20" transform="translate(124.658203 0)"/>
      <use xlink:href="#DejaVuSans-75" transform="translate(156.445312 0)"/>
      <use xlink:href="#DejaVuSans-35" transform="translate(219.824219 0)"/>
      <use xlink:href="#DejaVuSans-32" transform="translate(283.447266 0)"/>
      <use xlink:href="#DejaVuSans-20" transform="translate(347.070312 0)"/>
      <use xlink:href="#DejaVuSans-6c" transform="translate(378.857422 0)"/>
      <use xlink:href="#DejaVuSans-69" transform="translate(406.640625 0)"/>
      <use xlink:href="#DejaVuSans-6d" transform="translate(434.423828 0)"/>
      <use xlink:href="#DejaVuSans-62" transform="translate(531.835938 0)"/>
      <use xlink:href="#DejaVuSans-73" transform="translate(595.3125 0)"/>
     </g>
    </g>
   </g>
   <g id="matplotlib.axis_2">
    <g id="ytick_1">
     <g id="line2d_19">
      <path d="M 60.69125 462.04 
L 853.2 462.04 
" clip-path="url(#p0fe817f427)" style="fill: none; stroke: #b0b0b0; stroke-opacity: 0.25; stroke-width: 0.8; stroke-linecap: square"/>
     </g>
     <g id="line2d_20">
      <defs>
       <path id="m6c4dd8cb2f" d="M 0 0 
L -3.5 0 
" style="stroke: #000000; stroke-width: 0.8"/>
      </defs>
      <g>
       <use xlink:href="#m6c4dd8cb2f" x="60.69125" y="462.04" style="stroke: #000000; stroke-width: 0.8"/>
      </g>
     </g>
     <g id="text_11">
      <!-- 0.000 -->
      <g transform="translate(25.063125 465.839219) scale(0.1 -0.1)">
       <defs>
        <path id="DejaVuSans-2e" d="M 684 794 
L 1344 794 
L 1344 0 
L 684 0 
L 684 794 
z
" transform="scale(0.015625)"/>
       </defs>
       <use xlink:href="#DejaVuSans-30"/>
       <use xlink:href="#DejaVuSans-2e" transform="translate(63.623047 0)"/>
       <use xlink:href="#DejaVuSans-30" transform="translate(95.410156 0)"/>
       <use xlink:href="#DejaVuSans-30" transform="translate(159.033203 0)"/>
       <use xlink:href="#DejaVuSans-30" transform="translate(222.65625 0)"/>
      </g>
     </g>
    </g>
    <g id="ytick_2">
     <g id="line2d_21">
      <path d="M 60.69125 407.465 
L 853.2 407.465 
" clip-path="url(#p0fe817f427)" style="fill: none; stroke: #b0b0b0; stroke-opacity: 0.25; stroke-width: 0.8; stroke-linecap: square"/>
     </g>
     <g id="line2d_22">
      <g>
       <use xlink:href="#m6c4dd8cb2f" x="60.69125" y="407.465" style="stroke: #000000; stroke-width: 0.8"/>
      </g>
     </g>
     <g id="text_12">
      <!-- 0.025 -->
      <g transform="translate(25.063125 411.264219) scale(0.1 -0.1)">
       <use xlink:href="#DejaVuSans-30"/>
       <use xlink:href="#DejaVuSans-2e" transform="translate(63.623047 0)"/>
       <use xlink:href="#DejaVuSans-30" transform="translate(95.410156 0)"/>
       <use xlink:href="#DejaVuSans-32" transform="translate(159.033203 0)"/>
       <use xlink:href="#DejaVuSans-35" transform="translate(222.65625 0)"/>
      </g>
     </g>
    </g>
    <g id="ytick_3">
     <g id="line2d_23">
      <path d="M 60.69125 352.89 
L 853.2 352.89 
" clip-path="url(#p0fe817f427)" style="fill: none; stroke: #b0b0b0; stroke-opacity: 0.25; stroke-width: 0.8; stroke-linecap: square"/>
     </g>
     <g id="line2d_24">
      <g>
       <use xlink:href="#m6c4dd8cb2f" x="60.69125" y="352.89" style="stroke: #000000; stroke-width: 0.8"/>
      </g>
     </g>
     <g id="text_13">
      <!-- 0.050 -->
      <g transform="translate(25.063125 356.689219) scale(0.1 -0.1)">
       <use xlink:href="#DejaVuSans-30"/>
       <use xlink:href="#DejaVuSans-2e" transform="translate(63.623047 0)"/>
       <use xlink:href="#DejaVuSans-30" transform="translate(95.410156 0)"/>
       <use xlink:href="#DejaVuSans-35" transform="translate(159.033203 0)"/>
       <use xlink:href="#DejaVuSans-30" transform="translate(222.65625 0)"/>
      </g>
     </g>
    </g>
    <g id="ytick_4">
     <g id="line2d_25">
      <path d="M 60.69125 298.315 
L 853.2 298.315 
" clip-path="url(#p0fe817f427)" style="fill: none; stroke: #b0b0b0; stroke-opacity: 0.25; stroke-width: 0.8; stroke-linecap: square"/>
     </g>
     <g id="line2d_26">
      <g>
       <use xlink:href="#m6c4dd8cb2f" x="60.69125" y="298.315" style="stroke: #000000; stroke-width: 0.8"/>
      </g>
     </g>
     <g id="text_14">
      <!-- 0.075 -->
      <g transform="translate(25.063125 302.114219) scale(0.1 -0.1)">
       <defs>
        <path id="DejaVuSans-37" d="M 525 4666 
L 3525 4666 
L 3525 4397 
L 1831 0 
L 1172 0 
L 2766 4134 
L 525 4134 
L 525 4666 
z
" transform="scale(0.015625)"/>
       </defs>
       <use xlink:href="#DejaVuSans-30"/>
       <use xlink:href="#DejaVuSans-2e" transform="translate(63.623047 0)"/>
       <use xlink:href="#DejaVuSans-30" transform="translate(95.410156 0)"/>
       <use xlink:href="#DejaVuSans-37" transform="translate(159.033203 0)"/>
       <use xlink:href="#DejaVuSans-35" transform="translate(222.65625 0)"/>
      </g>
     </g>
    </g>
    <g id="ytick_5">
     <g id="line2d_27">
      <path d="M 60.69125 243.74 
L 853.2 243.74 
" clip-path="url(#p0fe817f427)" style="fill: none; stroke: #b0b0b0; stroke-opacity: 0.25; stroke-width: 0.8; stroke-linecap: square"/>
     </g>
     <g id="line2d_28">
      <g>
       <use xlink:href="#m6c4dd8cb2f" x="60.69125" y="243.74" style="stroke: #000000; stroke-width: 0.8"/>
      </g>
     </g>
     <g id="text_15">
      <!-- 0.100 -->
      <g transform="translate(25.063125 247.539219) scale(0.1 -0.1)">
       <use xlink:href="#DejaVuSans-30"/>
       <use xlink:href="#DejaVuSans-2e" transform="translate(63.623047 0)"/>
       <use xlink:href="#DejaVuSans-31" transform="translate(95.410156 0)"/>
       <use xlink:href="#DejaVuSans-30" transform="translate(159.033203 0)"/>
       <use xlink:href="#DejaVuSans-30" transform="translate(222.65625 0)"/>
      </g>
     </g>
    </g>
    <g id="ytick_6">
     <g id="line2d_29">
      <path d="M 60.69125 189.165 
L 853.2 189.165 
" clip-path="url(#p0fe817f427)" style="fill: none; stroke: #b0b0b0; stroke-opacity: 0.25; stroke-width: 0.8; stroke-linecap: square"/>
     </g>
     <g id="line2d_30">
      <g>
       <use xlink:href="#m6c4dd8cb2f" x="60.69125" y="189.165" style="stroke: #000000; stroke-width: 0.8"/>
      </g>
     </g>
     <g id="text_16">
      <!-- 0.125 -->
      <g transform="translate(25.063125 192.964219) scale(0.1 -0.1)">
       <use xlink:href="#DejaVuSans-30"/>
       <use xlink:href="#DejaVuSans-2e" transform="translate(63.623047 0)"/>
       <use xlink:href="#DejaVuSans-31" transform="translate(95.410156 0)"/>
       <use xlink:href="#DejaVuSans-32" transform="translate(159.033203 0)"/>
       <use xlink:href="#DejaVuSans-35" transform="translate(222.65625 0)"/>
      </g>
     </g>
    </g>
    <g id="ytick_7">
     <g id="line2d_31">
      <path d="M 60.69125 134.59 
L 853.2 134.59 
" clip-path="url(#p0fe817f427)" style="fill: none; stroke: #b0b0b0; stroke-opacity: 0.25; stroke-width: 0.8; stroke-linecap: square"/>
     </g>
     <g id="line2d_32">
      <g>
       <use xlink:href="#m6c4dd8cb2f" x="60.69125" y="134.59" style="stroke: #000000; stroke-width: 0.8"/>
      </g>
     </g>
     <g id="text_17">
      <!-- 0.150 -->
      <g transform="translate(25.063125 138.389219) scale(0.1 -0.1)">
       <use xlink:href="#DejaVuSans-30"/>
       <use xlink:href="#DejaVuSans-2e" transform="translate(63.623047 0)"/>
       <use xlink:href="#DejaVuSans-31" transform="translate(95.410156 0)"/>
       <use xlink:href="#DejaVuSans-35" transform="translate(159.033203 0)"/>
       <use xlink:href="#DejaVuSans-30" transform="translate(222.65625 0)"/>
      </g>
     </g>
    </g>
    <g id="ytick_8">
     <g id="line2d_33">
      <path d="M 60.69125 80.015 
L 853.2 80.015 
" clip-path="url(#p0fe817f427)" style="fill: none; stroke: #b0b0b0; stroke-opacity: 0.25; stroke-width: 0.8; stroke-linecap: square"/>
     </g>
     <g id="line2d_34">
      <g>
       <use xlink:href="#m6c4dd8cb2f" x="60.69125" y="80.015" style="stroke: #000000; stroke-width: 0.8"/>
      </g>
     </g>
     <g id="text_18">
      <!-- 0.175 -->
      <g transform="translate(25.063125 83.814219) scale(0.1 -0.1)">
       <use xlink:href="#DejaVuSans-30"/>
       <use xlink:href="#DejaVuSans-2e" transform="translate(63.623047 0)"/>
       <use xlink:href="#DejaVuSans-31" transform="translate(95.410156 0)"/>
       <use xlink:href="#DejaVuSans-37" transform="translate(159.033203 0)"/>
       <use xlink:href="#DejaVuSans-35" transform="translate(222.65625 0)"/>
      </g>
     </g>
    </g>
    <g id="ytick_9">
     <g id="line2d_35">
      <path d="M 60.69125 25.44 
L 853.2 25.44 
" clip-path="url(#p0fe817f427)" style="fill: none; stroke: #b0b0b0; stroke-opacity: 0.25; stroke-width: 0.8; stroke-linecap: square"/>
     </g>
     <g id="line2d_36">
      <g>
       <use xlink:href="#m6c4dd8cb2f" x="60.69125" y="25.44" style="stroke: #000000; stroke-width: 0.8"/>
      </g>
     </g>
     <g id="text_19">
      <!-- 0.200 -->
      <g transform="translate(25.063125 29.239219) scale(0.1 -0.1)">
       <use xlink:href="#DejaVuSans-30"/>
       <use xlink:href="#DejaVuSans-2e" transform="translate(63.623047 0)"/>
       <use xlink:href="#DejaVuSans-32" transform="translate(95.410156 0)"/>
       <use xlink:href="#DejaVuSans-30" transform="translate(159.033203 0)"/>
       <use xlink:href="#DejaVuSans-30" transform="translate(222.65625 0)"/>
      </g>
     </g>
    </g>
    <g id="text_20">
     <!-- total_ns / (an * bn) -->
     <g transform="translate(18.705312 290.464219) rotate(-90) scale(0.1 -0.1)">
      <defs>
       <path id="DejaVuSans-74" d="M 1172 4494 
L 1172 3500 
L 2356 3500 
L 2356 3053 
L 1172 3053 
L 1172 1153 
Q 1172 725 1289 603 
Q 1406 481 1766 481 
L 2356 481 
L 2356 0 
L 1766 0 
Q 1100 0 847 248 
Q 594 497 594 1153 
L 594 3053 
L 172 3053 
L 172 3500 
L 594 3500 
L 594 4494 
L 1172 4494 
z
" transform="scale(0.015625)"/>
       <path id="DejaVuSans-6f" d="M 1959 3097 
Q 1497 3097 1228 2736 
Q 959 2375 959 1747 
Q 959 1119 1226 758 
Q 1494 397 1959 397 
Q 2419 397 2687 759 
Q 2956 1122 2956 1747 
Q 2956 2369 2687 2733 
Q 2419 3097 1959 3097 
z
M 1959 3584 
Q 2709 3584 3137 3096 
Q 3566 2609 3566 1747 
Q 3566 888 3137 398 
Q 2709 -91 1959 -91 
Q 1206 -91 779 398 
Q 353 888 353 1747 
Q 353 2609 779 3096 
Q 1206 3584 1959 3584 
z
" transform="scale(0.015625)"/>
       <path id="DejaVuSans-5f" d="M 3263 -1063 
L 3263 -1509 
L -63 -1509 
L -63 -1063 
L 3263 -1063 
z
" transform="scale(0.015625)"/>
       <path id="DejaVuSans-2f" d="M 1625 4666 
L 2156 4666 
L 531 -594 
L 0 -594 
L 1625 4666 
z
" transform="scale(0.015625)"/>
       <path id="DejaVuSans-28" d="M 1984 4856 
Q 1566 4138 1362 3434 
Q 1159 2731 1159 2009 
Q 1159 1288 1364 580 
Q 1569 -128 1984 -844 
L 1484 -844 
Q 1016 -109 783 600 
Q 550 1309 550 2009 
Q 550 2706 781 3412 
Q 1013 4119 1484 4856 
L 1984 4856 
z
" transform="scale(0.015625)"/>
       <path id="DejaVuSans-2a" d="M 3009 3897 
L 1888 3291 
L 3009 2681 
L 2828 2375 
L 1778 3009 
L 1778 1831 
L 1422 1831 
L 1422 3009 
L 372 2375 
L 191 2681 
L 1313 3291 
L 191 3897 
L 372 4206 
L 1422 3572 
L 1422 4750 
L 1778 4750 
L 1778 3572 
L 2828 4206 
L 3009 3897 
z
" transform="scale(0.015625)"/>
       <path id="DejaVuSans-29" d="M 513 4856 
L 1013 4856 
Q 1481 4119 1714 3412 
Q 1947 2706 1947 2009 
Q 1947 1309 1714 600 
Q 1481 -109 1013 -844 
L 513 -844 
Q 928 -128 1133 580 
Q 1338 1288 1338 2009 
Q 1338 2731 1133 3434 
Q 928 4138 513 4856 
z
" transform="scale(0.015625)"/>
      </defs>
      <use xlink:href="#DejaVuSans-74"/>
      <use xlink:href="#DejaVuSans-6f" transform="translate(39.208984 0)"/>
      <use xlink:href="#DejaVuSans-74" transform="translate(100.390625 0)"/>
      <use xlink:href="#DejaVuSans-61" transform="translate(139.599609 0)"/>
      <use xlink:href="#DejaVuSans-6c" transform="translate(200.878906 0)"/>
      <use xlink:href="#DejaVuSans-5f" transform="translate(228.662109 0)"/>
      <use xlink:href="#DejaVuSans-6e" transform="translate(278.662109 0)"/>
      <use xlink:href="#DejaVuSans-73" transform="translate(342.041016 0)"/>
      <use xlink:href="#DejaVuSans-20" transform="translate(394.140625 0)"/>
      <use xlink:href="#DejaVuSans-2f" transform="translate(425.927734 0)"/>
      <use xlink:href="#DejaVuSans-20" transform="translate(459.619141 0)"/>
      <use xlink:href="#DejaVuSans-28" transform="translate(491.40625 0)"/>
      <use xlink:href="#DejaVuSans-61" transform="translate(530.419922 0)"/>
      <use xlink:href="#DejaVuSans-6e" transform="translate(591.699219 0)"/>
      <use xlink:href="#DejaVuSans-20" transform="translate(655.078125 0)"/>
      <use xlink:href="#DejaVuSans-2a" transform="translate(686.865234 0)"/>
      <use xlink:href="#DejaVuSans-20" transform="translate(736.865234 0)"/>
      <use xlink:href="#DejaVuSans-62" transform="translate(768.652344 0)"/>
      <use xlink:href="#DejaVuSans-6e" transform="translate(832.128906 0)"/>
      <use xlink:href="#DejaVuSans-29" transform="translate(895.507812 0)"/>
     </g>
    </g>
   </g>
   <g id="line2d_37">
    <path d="M 99.781453 -1 
L 111.417691 183.400321 
L 126.121008 234.683497 
L 140.824324 273.545556 
L 155.52764 282.133375 
L 170.230957 310.620375 
L 184.934273 316.967233 
L 199.637589 317.42868 
L 214.340906 328.548 
L 229.044222 335.076015 
L 243.747538 341.006667 
L 258.450855 346.826272 
L 273.154171 348.703301 
L 287.857487 350.51845 
L 302.560804 353.824968 
L 317.26412 363.969958 
L 331.967436 300.615524 
L 346.670753 360.132423 
L 361.374069 357.765792 
L 376.077385 361.618075 
L 390.780702 358.985988 
L 405.484018 360.270439 
L 420.187334 362.404872 
L 434.890651 368.628618 
L 449.593967 363.964562 
L 464.297283 365.543921 
L 479.000599 367.34125 
L 493.703916 368.972163 
L 508.407232 367.365126 
L 523.110548 367.299913 
L 537.813865 367.854432 
L 552.517181 370.095199 
L 567.220497 369.478394 
L 581.923814 371.466444 
L 596.62713 369.815491 
L 611.330446 371.876193 
L 626.033763 371.539437 
L 640.737079 370.933704 
L 655.440395 371.407965 
L 670.143712 371.666332 
L 684.847028 371.792451 
L 699.550344 370.738867 
L 714.253661 371.771616 
L 728.956977 372.984238 
L 743.660293 371.726533 
L 758.36361 371.257269 
L 773.066926 371.854981 
L 787.770242 373.826819 
L 802.473559 373.158293 
L 817.176875 373.609632 
" clip-path="url(#p0fe817f427)" style="fill: none; stroke: #1f77b4; stroke-width: 1.6; stroke-linecap: square"/>
   </g>
   <g id="line2d_38">
    <path d="M 96.714375 211.607 
L 111.417691 282.14334 
L 126.121008 310.808342 
L 140.824324 338.574626 
L 155.52764 345.430412 
L 170.230957 359.132354 
L 184.934273 356.677669 
L 199.637589 367.684276 
L 214.340906 363.27555 
L 229.044222 368.044032 
L 243.747538 369.21891 
L 258.450855 374.343168 
L 273.154171 372.224399 
L 287.857487 374.343946 
L 302.560804 373.793814 
L 317.26412 375.912708 
L 331.967436 375.41849 
L 346.670753 377.301384 
L 361.374069 376.477739 
L 376.077385 378.679547 
L 390.780702 376.828162 
L 405.484018 378.61228 
L 420.187334 378.15253 
L 434.890651 379.378806 
L 449.593967 379.033383 
L 464.297283 380.441429 
L 479.000599 379.876691 
L 493.703916 380.966294 
L 508.407232 380.415462 
L 523.110548 381.381228 
L 537.813865 380.897805 
L 552.517181 380.564465 
L 567.220497 380.116402 
L 581.923814 381.108956 
L 596.62713 380.491507 
L 611.330446 381.624822 
L 626.033763 381.423724 
L 640.737079 382.037093 
L 655.440395 381.670762 
L 670.143712 381.968355 
L 684.847028 381.446041 
L 699.550344 382.406315 
L 714.253661 381.405331 
L 728.956977 382.054817 
L 743.660293 381.642441 
L 758.36361 382.861684 
L 773.066926 382.514295 
L 787.770242 383.017026 
L 802.473559 381.829638 
L 817.176875 382.306388 
" clip-path="url(#p0fe817f427)" style="fill: none; stroke: #ff7f0e; stroke-width: 1.6; stroke-linecap: square"/>
   </g>
   <g id="line2d_39">
    <path d="M 96.714375 227.423795 
L 111.417691 313.048082 
L 126.121008 330.051537 
L 140.824324 368.207412 
L 155.52764 370.159571 
L 170.230957 373.128204 
L 184.934273 374.639947 
L 199.637589 380.382733 
L 214.340906 377.78026 
L 229.044222 379.556565 
L 243.747538 381.205104 
L 258.450855 384.549433 
L 273.154171 385.222483 
L 287.857487 385.301656 
L 302.560804 385.209335 
L 317.26412 386.302954 
L 331.967436 384.841316 
L 346.670753 386.420847 
L 361.374069 386.454762 
L 376.077385 386.980241 
L 390.780702 387.659117 
L 405.484018 387.463057 
L 420.187334 385.865457 
L 434.890651 388.416801 
L 449.593967 387.426339 
L 464.297283 388.113218 
L 479.000599 388.42511 
L 493.703916 388.95316 
L 508.407232 388.717848 
L 523.110548 388.843344 
L 537.813865 388.845521 
L 552.517181 389.31225 
L 567.220497 387.589171 
L 581.923814 388.314689 
L 596.62713 388.62297 
L 611.330446 389.143491 
L 626.033763 389.32809 
L 640.737079 389.292538 
L 655.440395 389.293686 
L 670.143712 389.320926 
L 684.847028 388.80877 
L 699.550344 389.486201 
L 714.253661 389.365734 
L 728.956977 389.68772 
L 743.660293 389.663024 
L 758.36361 389.874399 
L 773.066926 389.78823 
L 787.770242 389.97628 
L 802.473559 389.380683 
L 817.176875 389.71859 
" clip-path="url(#p0fe817f427)" style="fill: none; stroke: #2ca02c; stroke-width: 1.6; stroke-linecap: square"/>
   </g>
   <g id="line2d_40">
    <path d="M 96.714375 266.805801 
L 111.417691 334.25417 
L 126.121008 348.635082 
L 140.824324 373.115163 
L 155.52764 375.73391 
L 170.230957 377.024458 
L 184.934273 378.77826 
L 199.637589 382.237689 
L 214.340906 382.199578 
L 229.044222 383.153711 
L 243.747538 383.933301 
L 258.450855 385.203967 
L 273.154171 384.945355 
L 287.857487 385.364216 
L 302.560804 385.262674 
L 317.26412 386.4089 
L 331.967436 386.297654 
L 346.670753 386.435179 
L 361.374069 386.840158 
L 376.077385 387.367743 
L 390.780702 387.353637 
L 405.484018 387.265212 
L 420.187334 387.23618 
L 434.890651 387.887151 
L 449.593967 387.768468 
L 464.297283 387.928888 
L 479.000599 387.844547 
L 493.703916 388.049918 
L 508.407232 388.223077 
L 523.110548 388.39431 
L 537.813865 388.38534 
L 552.517181 388.750298 
L 567.220497 388.387621 
L 581.923814 388.630849 
L 596.62713 388.519616 
L 611.330446 388.557491 
L 626.033763 388.798305 
L 640.737079 388.846405 
L 655.440395 388.764021 
L 670.143712 389.057647 
L 684.847028 388.680394 
L 699.550344 388.717252 
L 714.253661 388.750351 
L 728.956977 388.850212 
L 743.660293 389.012592 
L 758.36361 387.048089 
L 773.066926 386.2512 
L 787.770242 386.297857 
L 802.473559 386.077106 
L 817.176875 386.222675 
" clip-path="url(#p0fe817f427)" style="fill: none; stroke: #d62728; stroke-width: 1.6; stroke-linecap: square"/>
   </g>
   <g id="line2d_41">
    <path d="M 96.714375 287.188889 
L 111.417691 346.028569 
L 126.121008 348.412975 
L 140.824324 373.10603 
L 155.52764 375.087004 
L 170.230957 376.749762 
L 184.934273 378.698338 
L 199.637589 381.292819 
L 214.340906 381.036956 
L 229.044222 380.157277 
L 243.747538 378.320588 
L 258.450855 383.922971 
L 273.154171 383.722445 
L 287.857487 383.884507 
L 302.560804 384.375392 
L 317.26412 385.283469 
L 331.967436 383.866665 
L 346.670753 385.27649 
L 361.374069 385.602379 
L 376.077385 386.130253 
L 390.780702 386.160479 
L 405.484018 386.048847 
L 420.187334 386.089226 
L 434.890651 386.559204 
L 449.593967 386.552181 
L 464.297283 386.72201 
L 479.000599 386.698606 
L 493.703916 387.016402 
L 508.407232 387.117966 
L 523.110548 387.0341 
L 537.813865 387.080249 
L 552.517181 387.323031 
L 567.220497 386.909909 
L 581.923814 386.930366 
L 596.62713 386.073626 
L 611.330446 387.633831 
L 626.033763 387.558234 
L 640.737079 387.279113 
L 655.440395 387.422892 
L 670.143712 387.712018 
L 684.847028 387.299664 
L 699.550344 387.47652 
L 714.253661 386.771939 
L 728.956977 387.862931 
L 743.660293 387.7234 
L 758.36361 387.935362 
L 773.066926 387.449344 
L 787.770242 387.8191 
L 802.473559 387.798416 
L 817.176875 388.024359 
" clip-path="url(#p0fe817f427)" style="fill: none; stroke: #9467bd; stroke-width: 1.6; stroke-linecap: square"/>
   </g>
   <g id="line2d_42">
    <path d="M 96.714375 320.077017 
L 111.417691 358.819403 
L 126.121008 366.775698 
L 140.824324 374.959473 
L 155.52764 372.706918 
L 170.230957 379.253953 
L 184.934273 381.489452 
L 199.637589 382.152388 
L 214.340906 382.745645 
L 229.044222 383.524478 
L 243.747538 384.238897 
L 258.450855 385.038873 
L 273.154171 385.357154 
L 287.857487 385.609913 
L 302.560804 385.795699 
L 317.26412 386.030961 
L 331.967436 386.401436 
L 346.670753 386.655234 
L 361.374069 386.870967 
L 376.077385 386.769499 
L 390.780702 386.883084 
L 405.484018 386.892633 
L 420.187334 387.46834 
L 434.890651 387.505667 
L 449.593967 387.765501 
L 464.297283 387.995148 
L 479.000599 387.447215 
L 493.703916 387.617701 
L 508.407232 387.673974 
L 523.110548 388.001857 
L 537.813865 388.268807 
L 552.517181 388.24119 
L 567.220497 387.928861 
L 581.923814 388.121732 
L 596.62713 388.562464 
L 611.330446 387.920075 
L 626.033763 388.506955 
L 640.737079 387.778451 
L 655.440395 388.43325 
L 670.143712 388.571897 
L 684.847028 388.752612 
L 699.550344 388.443329 
L 714.253661 388.608311 
L 728.956977 388.3111 
L 743.660293 388.636328 
L 758.36361 387.359546 
L 773.066926 387.316844 
L 787.770242 386.515854 
L 802.473559 388.066757 
L 817.176875 387.620174 
" clip-path="url(#p0fe817f427)" style="fill: none; stroke: #8c564b; stroke-width: 1.6; stroke-linecap: square"/>
   </g>
   <g id="line2d_43">
    <path d="M 96.714375 325.516354 
L 111.417691 350.072035 
L 126.121008 362.806216 
L 140.824324 374.62345 
L 155.52764 381.384723 
L 170.230957 382.644251 
L 184.934273 383.992447 
L 199.637589 384.68682 
L 214.340906 385.101872 
L 229.044222 385.924915 
L 243.747538 386.694713 
L 258.450855 387.111679 
L 273.154171 387.289031 
L 287.857487 387.720407 
L 302.560804 388.107016 
L 317.26412 388.294942 
L 331.967436 388.623049 
L 346.670753 388.697203 
L 361.374069 388.863166 
L 376.077385 388.996174 
L 390.780702 389.193255 
L 405.484018 389.378325 
L 420.187334 389.431189 
L 434.890651 389.550481 
L 449.593967 389.699135 
L 464.297283 389.839565 
L 479.000599 389.812081 
L 493.703916 389.908155 
L 508.407232 389.893306 
L 523.110548 389.979698 
L 537.813865 390.059941 
L 552.517181 390.023828 
L 567.220497 390.161001 
L 581.923814 390.152099 
L 596.62713 390.108714 
L 611.330446 390.378792 
L 626.033763 390.433933 
L 640.737079 390.363385 
L 655.440395 390.499117 
L 670.143712 390.56273 
L 684.847028 390.428569 
L 699.550344 390.458221 
L 714.253661 390.62281 
L 728.956977 390.742249 
L 743.660293 390.647825 
L 758.36361 390.641931 
L 773.066926 390.800764 
L 787.770242 390.808472 
L 802.473559 390.742397 
L 817.176875 390.907746 
" clip-path="url(#p0fe817f427)" style="fill: none; stroke: #e377c2; stroke-width: 1.6; stroke-linecap: square"/>
   </g>
   <g id="line2d_44">
    <path d="M 96.714375 340.382045 
L 111.417691 368.481047 
L 126.121008 375.874248 
L 140.824324 381.56617 
L 155.52764 384.244944 
L 170.230957 386.032481 
L 184.934273 385.892572 
L 199.637589 386.396802 
L 214.340906 388.233316 
L 229.044222 387.598731 
L 243.747538 388.461273 
L 258.450855 388.575569 
L 273.154171 388.871273 
L 287.857487 389.31375 
L 302.560804 389.507836 
L 317.26412 389.727306 
L 331.967436 389.919587 
L 346.670753 389.616578 
L 361.374069 390.095068 
L 376.077385 389.721727 
L 390.780702 390.353312 
L 405.484018 390.552393 
L 420.187334 390.699999 
L 434.890651 390.467728 
L 449.593967 390.709268 
L 464.297283 390.883404 
L 479.000599 391.13778 
L 493.703916 390.694572 
L 508.407232 391.261281 
L 523.110548 391.1687 
L 537.813865 390.838772 
L 552.517181 391.224489 
L 567.220497 391.148308 
L 581.923814 391.288282 
L 596.62713 391.448595 
L 611.330446 391.326688 
L 626.033763 391.623576 
L 640.737079 391.517235 
L 655.440395 391.417863 
L 670.143712 391.561729 
L 684.847028 391.559566 
L 699.550344 391.719292 
L 714.253661 391.456245 
L 728.956977 391.645458 
L 743.660293 391.769586 
L 758.36361 391.686887 
L 773.066926 391.689343 
L 787.770242 391.818941 
L 802.473559 391.845408 
L 817.176875 391.846076 
" clip-path="url(#p0fe817f427)" style="fill: none; stroke: #7f7f7f; stroke-width: 1.6; stroke-linecap: square"/>
   </g>
   <g id="patch_3">
    <path d="M 60.69125 462.04 
L 60.69125 25.44 
" style="fill: none; stroke: #000000; stroke-width: 0.8; stroke-linejoin: miter; stroke-linecap: square"/>
   </g>
   <g id="patch_4">
    <path d="M 853.2 462.04 
L 853.2 25.44 
" style="fill: none; stroke: #000000; stroke-width: 0.8; stroke-linejoin: miter; stroke-linecap: square"/>
   </g>
   <g id="patch_5">
    <path d="M 60.69125 462.04 
L 853.2 462.04 
" style="fill: none; stroke: #000000; stroke-width: 0.8; stroke-linejoin: miter; stroke-linecap: square"/>
   </g>
   <g id="patch_6">
    <path d="M 60.69125 25.44 
L 853.2 25.44 
" style="fill: none; stroke: #000000; stroke-width: 0.8; stroke-linejoin: miter; stroke-linecap: square"/>
   </g>
   <g id="text_21">
    <!-- mul_u52_1 sweep -->
    <g transform="translate(403.244688 19.44) scale(0.12 -0.12)">
     <defs>
      <path id="DejaVuSans-77" d="M 269 3500 
L 844 3500 
L 1563 769 
L 2278 3500 
L 2956 3500 
L 3675 769 
L 4391 3500 
L 4966 3500 
L 4050 0 
L 3372 0 
L 2619 2869 
L 1863 0 
L 1184 0 
L 269 3500 
z
" transform="scale(0.015625)"/>
      <path id="DejaVuSans-65" d="M 3597 1894 
L 3597 1613 
L 953 1613 
Q 991 1019 1311 708 
Q 1631 397 2203 397 
Q 2534 397 2845 478 
Q 3156 559 3463 722 
L 3463 178 
Q 3153 47 2828 -22 
Q 2503 -91 2169 -91 
Q 1331 -91 842 396 
Q 353 884 353 1716 
Q 353 2575 817 3079 
Q 1281 3584 2069 3584 
Q 2775 3584 3186 3129 
Q 3597 2675 3597 1894 
z
M 3022 2063 
Q 3016 2534 2758 2815 
Q 2500 3097 2075 3097 
Q 1594 3097 1305 2825 
Q 1016 2553 972 2059 
L 3022 2063 
z
" transform="scale(0.015625)"/>
      <path id="DejaVuSans-70" d="M 1159 525 
L 1159 -1331 
L 581 -1331 
L 581 3500 
L 1159 3500 
L 1159 2969 
Q 1341 3281 1617 3432 
Q 1894 3584 2278 3584 
Q 2916 3584 3314 3078 
Q 3713 2572 3713 1747 
Q 3713 922 3314 415 
Q 2916 -91 2278 -91 
Q 1894 -91 1617 61 
Q 1341 213 1159 525 
z
M 3116 1747 
Q 3116 2381 2855 2742 
Q 2594 3103 2138 3103 
Q 1681 3103 1420 2742 
Q 1159 2381 1159 1747 
Q 1159 1113 1420 752 
Q 1681 391 2138 391 
Q 2594 391 2855 752 
Q 3116 1113 3116 1747 
z
" transform="scale(0.015625)"/>
     </defs>
     <use xlink:href="#DejaVuSans-6d"/>
     <use xlink:href="#DejaVuSans-75" transform="translate(97.412109 0)"/>
     <use xlink:href="#DejaVuSans-6c" transform="translate(160.791016 0)"/>
     <use xlink:href="#DejaVuSans-5f" transform="translate(188.574219 0)"/>
     <use xlink:href="#DejaVuSans-75" transform="translate(238.574219 0)"/>
     <use xlink:href="#DejaVuSans-35" transform="translate(301.953125 0)"/>
     <use xlink:href="#DejaVuSans-32" transform="translate(365.576172 0)"/>
     <use xlink:href="#DejaVuSans-5f" transform="translate(429.199219 0)"/>
     <use xlink:href="#DejaVuSans-31" transform="translate(479.199219 0)"/>
     <use xlink:href="#DejaVuSans-20" transform="translate(542.822266 0)"/>
     <use xlink:href="#DejaVuSans-73" transform="translate(574.609375 0)"/>
     <use xlink:href="#DejaVuSans-77" transform="translate(626.708984 0)"/>
     <use xlink:href="#DejaVuSans-65" transform="translate(708.496094 0)"/>
     <use xlink:href="#DejaVuSans-65" transform="translate(770.019531 0)"/>
     <use xlink:href="#DejaVuSans-70" transform="translate(831.542969 0)"/>
    </g>
   </g>
   <g id="legend_1">
    <g id="patch_7">
     <path d="M 589.75875 59.060625 
L 846.9 59.060625 
Q 848.7 59.060625 848.7 57.260625 
L 848.7 31.74 
Q 848.7 29.94 846.9 29.94 
L 589.75875 29.94 
Q 587.95875 29.94 587.95875 31.74 
L 587.95875 57.260625 
Q 587.95875 59.060625 589.75875 59.060625 
z
" style="fill: #ffffff; opacity: 0.8; stroke: #cccccc; stroke-linejoin: miter"/>
    </g>
    <g id="line2d_45">
     <path d="M 591.55875 37.228594 
L 600.55875 37.228594 
L 609.55875 37.228594 
" style="fill: none; stroke: #1f77b4; stroke-width: 1.6; stroke-linecap: square"/>
    </g>
    <g id="text_22">
     <!-- bn=1 -->
     <g transform="translate(616.75875 40.378594) scale(0.09 -0.09)">
      <defs>
       <path id="DejaVuSans-3d" d="M 678 2906 
L 4684 2906 
L 4684 2381 
L 678 2381 
L 678 2906 
z
M 678 1631 
L 4684 1631 
L 4684 1100 
L 678 1100 
L 678 1631 
z
" transform="scale(0.015625)"/>
      </defs>
      <use xlink:href="#DejaVuSans-62"/>
      <use xlink:href="#DejaVuSans-6e" transform="translate(63.476562 0)"/>
      <use xlink:href="#DejaVuSans-3d" transform="translate(126.855469 0)"/>
      <use xlink:href="#DejaVuSans-31" transform="translate(210.644531 0)"/>
     </g>
    </g>
    <g id="line2d_46">
     <path d="M 591.55875 50.438906 
L 600.55875 50.438906 
L 609.55875 50.438906 
" style="fill: none; stroke: #ff7f0e; stroke-width: 1.6; stroke-linecap: square"/>
    </g>
    <g id="text_23">
     <!-- bn=2 -->
     <g transform="translate(616.75875 53.588906) scale(0.09 -0.09)">
      <use xlink:href="#DejaVuSans-62"/>
      <use xlink:href="#DejaVuSans-6e" transform="translate(63.476562 0)"/>
      <use xlink:href="#DejaVuSans-3d" transform="translate(126.855469 0)"/>
      <use xlink:href="#DejaVuSans-32" transform="translate(210.644531 0)"/>
     </g>
    </g>
    <g id="line2d_47">
     <path d="M 659.444062 37.228594 
L 668.444062 37.228594 
L 677.444062 37.228594 
" style="fill: none; stroke: #2ca02c; stroke-width: 1.6; stroke-linecap: square"/>
    </g>
    <g id="text_24">
     <!-- bn=3 -->
     <g transform="translate(684.644063 40.378594) scale(0.09 -0.09)">
      <use xlink:href="#DejaVuSans-62"/>
      <use xlink:href="#DejaVuSans-6e" transform="translate(63.476562 0)"/>
      <use xlink:href="#DejaVuSans-3d" transform="translate(126.855469 0)"/>
      <use xlink:href="#DejaVuSans-33" transform="translate(210.644531 0)"/>
     </g>
    </g>
    <g id="line2d_48">
     <path d="M 659.444062 50.438906 
L 668.444062 50.438906 
L 677.444062 50.438906 
" style="fill: none; stroke: #d62728; stroke-width: 1.6; stroke-linecap: square"/>
    </g>
    <g id="text_25">
     <!-- bn=4 -->
     <g transform="translate(684.644063 53.588906) scale(0.09 -0.09)">
      <use xlink:href="#DejaVuSans-62"/>
      <use xlink:href="#DejaVuSans-6e" transform="translate(63.476562 0)"/>
      <use xlink:href="#DejaVuSans-3d" transform="translate(126.855469 0)"/>
      <use xlink:href="#DejaVuSans-34" transform="translate(210.644531 0)"/>
     </g>
    </g>
    <g id="line2d_49">
     <path d="M 727.329375 37.228594 
L 736.329375 37.228594 
L 745.329375 37.228594 
" style="fill: none; stroke: #9467bd; stroke-width: 1.6; stroke-linecap: square"/>
    </g>
    <g id="text_26">
     <!-- bn=5 -->
     <g transform="translate(752.529375 40.378594) scale(0.09 -0.09)">
      <use xlink:href="#DejaVuSans-62"/>
      <use xlink:href="#DejaVuSans-6e" transform="translate(63.476562 0)"/>
      <use xlink:href="#DejaVuSans-3d" transform="translate(126.855469 0)"/>
      <use xlink:href="#DejaVuSans-35" transform="translate(210.644531 0)"/>
     </g>
    </g>
    <g id="line2d_50">
     <path d="M 727.329375 50.438906 
L 736.329375 50.438906 
L 745.329375 50.438906 
" style="fill: none; stroke: #8c564b; stroke-width: 1.6; stroke-linecap: square"/>
    </g>
    <g id="text_27">
     <!-- bn=6 -->
     <g transform="translate(752.529375 53.588906) scale(0.09 -0.09)">
      <defs>
       <path id="DejaVuSans-36" d="M 2113 2584 
Q 1688 2584 1439 2293 
Q 1191 2003 1191 1497 
Q 1191 994 1439 701 
Q 1688 409 2113 409 
Q 2538 409 2786 701 
Q 3034 994 3034 1497 
Q 3034 2003 2786 2293 
Q 2538 2584 2113 2584 
z
M 3366 4563 
L 3366 3988 
Q 3128 4100 2886 4159 
Q 2644 4219 2406 4219 
Q 1781 4219 1451 3797 
Q 1122 3375 1075 2522 
Q 1259 2794 1537 2939 
Q 1816 3084 2150 3084 
Q 2853 3084 3261 2657 
Q 3669 2231 3669 1497 
Q 3669 778 3244 343 
Q 2819 -91 2113 -91 
Q 1303 -91 875 529 
Q 447 1150 447 2328 
Q 447 3434 972 4092 
Q 1497 4750 2381 4750 
Q 2619 4750 2861 4703 
Q 3103 4656 3366 4563 
z
" transform="scale(0.015625)"/>
      </defs>
      <use xlink:href="#DejaVuSans-62"/>
      <use xlink:href="#DejaVuSans-6e" transform="translate(63.476562 0)"/>
      <use xlink:href="#DejaVuSans-3d" transform="translate(126.855469 0)"/>
      <use xlink:href="#DejaVuSans-36" transform="translate(210.644531 0)"/>
     </g>
    </g>
    <g id="line2d_51">
     <path d="M 795.214688 37.228594 
L 804.214688 37.228594 
L 813.214688 37.228594 
" style="fill: none; stroke: #e377c2; stroke-width: 1.6; stroke-linecap: square"/>
    </g>
    <g id="text_28">
     <!-- bn=7 -->
     <g transform="translate(820.414688 40.378594) scale(0.09 -0.09)">
      <use xlink:href="#DejaVuSans-62"/>
      <use xlink:href="#DejaVuSans-6e" transform="translate(63.476562 0)"/>
      <use xlink:href="#DejaVuSans-3d" transform="translate(126.855469 0)"/>
      <use xlink:href="#DejaVuSans-37" transform="translate(210.644531 0)"/>
     </g>
    </g>
    <g id="line2d_52">
     <path d="M 795.214688 50.438906 
L 804.214688 50.438906 
L 813.214688 50.438906 
" style="fill: none; stroke: #7f7f7f; stroke-width: 1.6; stroke-linecap: square"/>
    </g>
    <g id="text_29">
     <!-- bn=8 -->
     <g transform="translate(820.414688 53.588906) scale(0.09 -0.09)">
      <defs>
       <path id="DejaVuSans-38" d="M 2034 2216 
Q 1584 2216 1326 1975 
Q 1069 1734 1069 1313 
Q 1069 891 1326 650 
Q 1584 409 2034 409 
Q 2484 409 2743 651 
Q 3003 894 3003 1313 
Q 3003 1734 2745 1975 
Q 2488 2216 2034 2216 
z
M 1403 2484 
Q 997 2584 770 2862 
Q 544 3141 544 3541 
Q 544 4100 942 4425 
Q 1341 4750 2034 4750 
Q 2731 4750 3128 4425 
Q 3525 4100 3525 3541 
Q 3525 3141 3298 2862 
Q 3072 2584 2669 2484 
Q 3125 2378 3379 2068 
Q 3634 1759 3634 1313 
Q 3634 634 3220 271 
Q 2806 -91 2034 -91 
Q 1263 -91 848 271 
Q 434 634 434 1313 
Q 434 1759 690 2068 
Q 947 2378 1403 2484 
z
M 1172 3481 
Q 1172 3119 1398 2916 
Q 1625 2713 2034 2713 
Q 2441 2713 2670 2916 
Q 2900 3119 2900 3481 
Q 2900 3844 2670 4047 
Q 2441 4250 2034 4250 
Q 1625 4250 1398 4047 
Q 1172 3844 1172 3481 
z
" transform="scale(0.015625)"/>
      </defs>
      <use xlink:href="#DejaVuSans-62"/>
      <use xlink:href="#DejaVuSans-6e" transform="translate(63.476562 0)"/>
      <use xlink:href="#DejaVuSans-3d" transform="translate(126.855469 0)"/>
      <use xlink:href="#DejaVuSans-38" transform="translate(210.644531 0)"/>
     </g>
    </g>
   </g>
  </g>
 </g>
 <defs>
  <clipPath id="p0fe817f427">
   <rect x="60.69125" y="25.44" width="792.50875" height="436.6"/>
  </clipPath>
 </defs>
</svg>
