<?xml version="1.0" encoding="utf-8" standalone="no"?>
<!DOCTYPE svg PUBLIC "-//W3C//DTD SVG 1.1//EN"
  "http://www.w3.org/Graphics/SVG/1.1/DTD/svg11.dtd">
<svg xmlns:xlink="http://www.w3.org/1999/xlink" width="864pt" height="432pt" viewBox="0 0 864 432" xmlns="http://www.w3.org/2000/svg" version="1.1">
 <metadata>
  <rdf:RDF xmlns:dc="http://purl.org/dc/elements/1.1/" xmlns:cc="http://creativecommons.org/ns#" xmlns:rdf="http://www.w3.org/1999/02/22-rdf-syntax-ns#">
   <cc:Work>
    <dc:type rdf:resource="http://purl.org/dc/dcmitype/StillImage"/>
    <dc:date>2026-06-06T01:22:49.598115</dc:date>
    <dc:format>image/svg+xml</dc:format>
    <dc:creator>
     <cc:Agent>
      <dc:title>Matplotlib v3.10.7+dfsg1, https://matplotlib.org/</dc:title>
     </cc:Agent>
    </dc:creator>
   </cc:Work>
  </rdf:RDF>
 </metadata>
 <defs>
  <style type="text/css">*{stroke-linejoin: round; stroke-linecap: butt}</style>
 </defs>
 <g id="figure_1">
  <g id="patch_1">
   <path d="M 0 432 
L 864 432 
L 864 0 
L 0 0 
z
" style="fill: #ffffff"/>
  </g>
  <g id="axes_1">
   <g id="patch_2">
    <path d="M 38.27 390.04 
L 853.2 390.04 
L 853.2 25.44 
L 38.27 25.44 
z
" style="fill: #ffffff"/>
   </g>
   <g id="matplotlib.axis_1">
    <g id="xtick_1">
     <g id="line2d_1">
      <path d="M 134.844497 390.04 
L 134.844497 25.44 
" clip-path="url(#p0dfb8d4d8d)" style="fill: none; stroke: #b0b0b0; stroke-opacity: 0.25; stroke-width: 0.8; stroke-linecap: square"/>
     </g>
     <g id="line2d_2">
      <defs>
       <path id="mc8d6302744" d="M 0 0 
L 0 3.5 
" style="stroke: #000000; stroke-width: 0.8"/>
      </defs>
      <g>
       <use xlink:href="#mc8d6302744" x="134.844497" y="390.04" style="stroke: #000000; stroke-width: 0.8"/>
      </g>
     </g>
     <g id="text_1">
      <!-- 50 -->
      <g transform="translate(128.481997 404.638438) scale(0.1 -0.1)">
       <defs>
        <path id="DejaVuSans-35" d="M 691 4666 
L 3169 4666 
L 3169 4134 
L 1269 4134 
L 1269 2991 
Q 1406 3038 1543 3061 
Q 1681 3084 1819 3084 
Q 2600 3084 3056 2656 
Q 3513 2228 3513 1497 
Q 3513 744 3044 326 
Q 2575 -91 1722 -91 
Q 1428 -91 1123 -41 
Q 819 9 494 109 
L 494 744 
Q 775 591 1075 516 
Q 1375 441 1709 441 
Q 2250 441 2565 725 
Q 2881 1009 2881 1497 
Q 2881 1984 2565 2268 
Q 2250 2553 1709 2553 
Q 1456 2553 1204 2497 
Q 953 2441 691 2322 
L 691 4666 
z
" transform="scale(0.015625)"/>
        <path id="DejaVuSans-30" d="M 2034 4250 
Q 1547 4250 1301 3770 
Q 1056 3291 1056 2328 
Q 1056 1369 1301 889 
Q 1547 409 2034 409 
Q 2525 409 2770 889 
Q 3016 1369 3016 2328 
Q 3016 3291 2770 3770 
Q 2525 4250 2034 4250 
z
M 2034 4750 
Q 2819 4750 3233 4129 
Q 3647 3509 3647 2328 
Q 3647 1150 3233 529 
Q 2819 -91 2034 -91 
Q 1250 -91 836 529 
Q 422 1150 422 2328 
Q 422 3509 836 4129 
Q 1250 4750 2034 4750 
z
" transform="scale(0.015625)"/>
       </defs>
       <use xlink:href="#DejaVuSans-35"/>
       <use xlink:href="#DejaVuSans-30" transform="translate(63.623047 0)"/>
      </g>
     </g>
    </g>
    <g id="xtick_2">
     <g id="line2d_3">
      <path d="M 300.211786 390.04 
L 300.211786 25.44 
" clip-path="url(#p0dfb8d4d8d)" style="fill: none; stroke: #b0b0b0; stroke-opacity: 0.25; stroke-width: 0.8; stroke-linecap: square"/>
     </g>
     <g id="line2d_4">
      <g>
       <use xlink:href="#mc8d6302744" x="300.211786" y="390.04" style="stroke: #000000; stroke-width: 0.8"/>
      </g>
     </g>
     <g id="text_2">
      <!-- 100 -->
      <g transform="translate(290.668036 404.638438) scale(0.1 -0.1)">
       <defs>
        <path id="DejaVuSans-31" d="M 794 531 
L 1825 531 
L 1825 4091 
L 703 3866 
L 703 4441 
L 1819 4666 
L 2450 4666 
L 2450 531 
L 3481 531 
L 3481 0 
L 794 0 
L 794 531 
z
" transform="scale(0.015625)"/>
       </defs>
       <use xlink:href="#DejaVuSans-31"/>
       <use xlink:href="#DejaVuSans-30" transform="translate(63.623047 0)"/>
       <use xlink:href="#DejaVuSans-30" transform="translate(127.246094 0)"/>
      </g>
     </g>
    </g>
    <g id="xtick_3">
     <g id="line2d_5">
      <path d="M 465.579075 390.04 
L 465.579075 25.44 
" clip-path="url(#p0dfb8d4d8d)" style="fill: none; stroke: #b0b0b0; stroke-opacity: 0.25; stroke-width: 0.8; stroke-linecap: square"/>
     </g>
     <g id="line2d_6">
      <g>
       <use xlink:href="#mc8d6302744" x="465.579075" y="390.04" style="stroke: #000000; stroke-width: 0.8"/>
      </g>
     </g>
     <g id="text_3">
      <!-- 150 -->
      <g transform="translate(456.035325 404.638438) scale(0.1 -0.1)">
       <use xlink:href="#DejaVuSans-31"/>
       <use xlink:href="#DejaVuSans-35" transform="translate(63.623047 0)"/>
       <use xlink:href="#DejaVuSans-30" transform="translate(127.246094 0)"/>
      </g>
     </g>
    </g>
    <g id="xtick_4">
     <g id="line2d_7">
      <path d="M 630.946364 390.04 
L 630.946364 25.44 
" clip-path="url(#p0dfb8d4d8d)" style="fill: none; stroke: #b0b0b0; stroke-opacity: 0.25; stroke-width: 0.8; stroke-linecap: square"/>
     </g>
     <g id="line2d_8">
      <g>
       <use xlink:href="#mc8d6302744" x="630.946364" y="390.04" style="stroke: #000000; stroke-width: 0.8"/>
      </g>
     </g>
     <g id="text_4">
      <!-- 200 -->
      <g transform="translate(621.402614 404.638438) scale(0.1 -0.1)">
       <defs>
        <path id="DejaVuSans-32" d="M 1228 531 
L 3431 531 
L 3431 0 
L 469 0 
L 469 531 
Q 828 903 1448 1529 
Q 2069 2156 2228 2338 
Q 2531 2678 2651 2914 
Q 2772 3150 2772 3378 
Q 2772 3750 2511 3984 
Q 2250 4219 1831 4219 
Q 1534 4219 1204 4116 
Q 875 4013 500 3803 
L 500 4441 
Q 881 4594 1212 4672 
Q 1544 4750 1819 4750 
Q 2544 4750 2975 4387 
Q 3406 4025 3406 3419 
Q 3406 3131 3298 2873 
Q 3191 2616 2906 2266 
Q 2828 2175 2409 1742 
Q 1991 1309 1228 531 
z
" transform="scale(0.015625)"/>
       </defs>
       <use xlink:href="#DejaVuSans-32"/>
       <use xlink:href="#DejaVuSans-30" transform="translate(63.623047 0)"/>
       <use xlink:href="#DejaVuSans-30" transform="translate(127.246094 0)"/>
      </g>
     </g>
    </g>
    <g id="xtick_5">
     <g id="line2d_9">
      <path d="M 796.313653 390.04 
L 796.313653 25.44 
" clip-path="url(#p0dfb8d4d8d)" style="fill: none; stroke: #b0b0b0; stroke-opacity: 0.25; stroke-width: 0.8; stroke-linecap: square"/>
     </g>
     <g id="line2d_10">
      <g>
       <use xlink:href="#mc8d6302744" x="796.313653" y="390.04" style="stroke: #000000; stroke-width: 0.8"/>
      </g>
     </g>
     <g id="text_5">
      <!-- 250 -->
      <g transform="translate(786.769903 404.638438) scale(0.1 -0.1)">
       <use xlink:href="#DejaVuSans-32"/>
       <use xlink:href="#DejaVuSans-35" transform="translate(63.623047 0)"/>
       <use xlink:href="#DejaVuSans-30" transform="translate(127.246094 0)"/>
      </g>
     </g>
    </g>
    <g id="text_6">
     <!-- an = bn (u52 limbs) -->
     <g transform="translate(395.752969 418.316562) scale(0.1 -0.1)">
      <defs>
       <path id="DejaVuSans-61" d="M 2194 1759 
Q 1497 1759 1228 1600 
Q 959 1441 959 1056 
Q 959 750 1161 570 
Q 1363 391 1709 391 
Q 2188 391 2477 730 
Q 2766 1069 2766 1631 
L 2766 1759 
L 2194 1759 
z
M 3341 1997 
L 3341 0 
L 2766 0 
L 2766 531 
Q 2569 213 2275 61 
Q 1981 -91 1556 -91 
Q 1019 -91 701 211 
Q 384 513 384 1019 
Q 384 1609 779 1909 
Q 1175 2209 1959 2209 
L 2766 2209 
L 2766 2266 
Q 2766 2663 2505 2880 
Q 2244 3097 1772 3097 
Q 1472 3097 1187 3025 
Q 903 2953 641 2809 
L 641 3341 
Q 956 3463 1253 3523 
Q 1550 3584 1831 3584 
Q 2591 3584 2966 3190 
Q 3341 2797 3341 1997 
z
" transform="scale(0.015625)"/>
       <path id="DejaVuSans-6e" d="M 3513 2113 
L 3513 0 
L 2938 0 
L 2938 2094 
Q 2938 2591 2744 2837 
Q 2550 3084 2163 3084 
Q 1697 3084 1428 2787 
Q 1159 2491 1159 1978 
L 1159 0 
L 581 0 
L 581 3500 
L 1159 3500 
L 1159 2956 
Q 1366 3272 1645 3428 
Q 1925 3584 2291 3584 
Q 2894 3584 3203 3211 
Q 3513 2838 3513 2113 
z
" transform="scale(0.015625)"/>
       <path id="DejaVuSans-20" transform="scale(0.015625)"/>
       <path id="DejaVuSans-3d" d="M 678 2906 
L 4684 2906 
L 4684 2381 
L 678 2381 
L 678 2906 
z
M 678 1631 
L 4684 1631 
L 4684 1100 
L 678 1100 
L 678 1631 
z
" transform="scale(0.015625)"/>
       <path id="DejaVuSans-62" d="M 3116 1747 
Q 3116 2381 2855 2742 
Q 2594 3103 2138 3103 
Q 1681 3103 1420 2742 
Q 1159 2381 1159 1747 
Q 1159 1113 1420 752 
Q 1681 391 2138 391 
Q 2594 391 2855 752 
Q 3116 1113 3116 1747 
z
M 1159 2969 
Q 1341 3281 1617 3432 
Q 1894 3584 2278 3584 
Q 2916 3584 3314 3078 
Q 3713 2572 3713 1747 
Q 3713 922 3314 415 
Q 2916 -91 2278 -91 
Q 1894 -91 1617 61 
Q 1341 213 1159 525 
L 1159 0 
L 581 0 
L 581 4863 
L 1159 4863 
L 1159 2969 
z
" transform="scale(0.015625)"/>
       <path id="DejaVuSans-28" d="M 1984 4856 
Q 1566 4138 1362 3434 
Q 1159 2731 1159 2009 
Q 1159 1288 1364 580 
Q 1569 -128 1984 -844 
L 1484 -844 
Q 1016 -109 783 600 
Q 550 1309 550 2009 
Q 550 2706 781 3412 
Q 1013 4119 1484 4856 
L 1984 4856 
z
" transform="scale(0.015625)"/>
       <path id="DejaVuSans-75" d="M 544 1381 
L 544 3500 
L 1119 3500 
L 1119 1403 
Q 1119 906 1312 657 
Q 1506 409 1894 409 
Q 2359 409 2629 706 
Q 2900 1003 2900 1516 
L 2900 3500 
L 3475 3500 
L 3475 0 
L 2900 0 
L 2900 538 
Q 2691 219 2414 64 
Q 2138 -91 1772 -91 
Q 1169 -91 856 284 
Q 544 659 544 1381 
z
M 1991 3584 
L 1991 3584 
z
" transform="scale(0.015625)"/>
       <path id="DejaVuSans-6c" d="M 603 4863 
L 1178 4863 
L 1178 0 
L 603 0 
L 603 4863 
z
" transform="scale(0.015625)"/>
       <path id="DejaVuSans-69" d="M 603 3500 
L 1178 3500 
L 1178 0 
L 603 0 
L 603 3500 
z
M 603 4863 
L 1178 4863 
L 1178 4134 
L 603 4134 
L 603 4863 
z
" transform="scale(0.015625)"/>
       <path id="DejaVuSans-6d" d="M 3328 2828 
Q 3544 3216 3844 3400 
Q 4144 3584 4550 3584 
Q 5097 3584 5394 3201 
Q 5691 2819 5691 2113 
L 5691 0 
L 5113 0 
L 5113 2094 
Q 5113 2597 4934 2840 
Q 4756 3084 4391 3084 
Q 3944 3084 3684 2787 
Q 3425 2491 3425 1978 
L 3425 0 
L 2847 0 
L 2847 2094 
Q 2847 2600 2669 2842 
Q 2491 3084 2119 3084 
Q 1678 3084 1418 2786 
Q 1159 2488 1159 1978 
L 1159 0 
L 581 0 
L 581 3500 
L 1159 3500 
L 1159 2956 
Q 1356 3278 1631 3431 
Q 1906 3584 2284 3584 
Q 2666 3584 2933 3390 
Q 3200 3197 3328 2828 
z
" transform="scale(0.015625)"/>
       <path id="DejaVuSans-73" d="M 2834 3397 
L 2834 2853 
Q 2591 2978 2328 3040 
Q 2066 3103 1784 3103 
Q 1356 3103 1142 2972 
Q 928 2841 928 2578 
Q 928 2378 1081 2264 
Q 1234 2150 1697 2047 
L 1894 2003 
Q 2506 1872 2764 1633 
Q 3022 1394 3022 966 
Q 3022 478 2636 193 
Q 2250 -91 1575 -91 
Q 1294 -91 989 -36 
Q 684 19 347 128 
L 347 722 
Q 666 556 975 473 
Q 1284 391 1588 391 
Q 1994 391 2212 530 
Q 2431 669 2431 922 
Q 2431 1156 2273 1281 
Q 2116 1406 1581 1522 
L 1381 1569 
Q 847 1681 609 1914 
Q 372 2147 372 2553 
Q 372 3047 722 3315 
Q 1072 3584 1716 3584 
Q 2034 3584 2315 3537 
Q 2597 3491 2834 3397 
z
" transform="scale(0.015625)"/>
       <path id="DejaVuSans-29" d="M 513 4856 
L 1013 4856 
Q 1481 4119 1714 3412 
Q 1947 2706 1947 2009 
Q 1947 1309 1714 600 
Q 1481 -109 1013 -844 
L 513 -844 
Q 928 -128 1133 580 
Q 1338 1288 1338 2009 
Q 1338 2731 1133 3434 
Q 928 4138 513 4856 
z
" transform="scale(0.015625)"/>
      </defs>
      <use xlink:href="#DejaVuSans-61"/>
      <use xlink:href="#DejaVuSans-6e" transform="translate(61.279297 0)"/>
      <use xlink:href="#DejaVuSans-20" transform="translate(124.658203 0)"/>
      <use xlink:href="#DejaVuSans-3d" transform="translate(156.445312 0)"/>
      <use xlink:href="#DejaVuSans-20" transform="translate(240.234375 0)"/>
      <use xlink:href="#DejaVuSans-62" transform="translate(272.021484 0)"/>
      <use xlink:href="#DejaVuSans-6e" transform="translate(335.498047 0)"/>
      <use xlink:href="#DejaVuSans-20" transform="translate(398.876953 0)"/>
      <use xlink:href="#DejaVuSans-28" transform="translate(430.664062 0)"/>
      <use xlink:href="#DejaVuSans-75" transform="translate(469.677734 0)"/>
      <use xlink:href="#DejaVuSans-35" transform="translate(533.056641 0)"/>
      <use xlink:href="#DejaVuSans-32" transform="translate(596.679688 0)"/>
      <use xlink:href="#DejaVuSans-20" transform="translate(660.302734 0)"/>
      <use xlink:href="#DejaVuSans-6c" transform="translate(692.089844 0)"/>
      <use xlink:href="#DejaVuSans-69" transform="translate(719.873047 0)"/>
      <use xlink:href="#DejaVuSans-6d" transform="translate(747.65625 0)"/>
      <use xlink:href="#DejaVuSans-62" transform="translate(845.068359 0)"/>
      <use xlink:href="#DejaVuSans-73" transform="translate(908.544922 0)"/>
      <use xlink:href="#DejaVuSans-29" transform="translate(960.644531 0)"/>
     </g>
    </g>
   </g>
   <g id="matplotlib.axis_2">
    <g id="ytick_1">
     <g id="line2d_11">
      <path d="M 38.27 376.159518 
L 853.2 376.159518 
" clip-path="url(#p0dfb8d4d8d)" style="fill: none; stroke: #b0b0b0; stroke-opacity: 0.25; stroke-width: 0.8; stroke-linecap: square"/>
     </g>
     <g id="line2d_12">
      <defs>
       <path id="md0f235271e" d="M 0 0 
L -3.5 0 
" style="stroke: #000000; stroke-width: 0.8"/>
      </defs>
      <g>
       <use xlink:href="#md0f235271e" x="38.27" y="376.159518" style="stroke: #000000; stroke-width: 0.8"/>
      </g>
     </g>
     <g id="text_7">
      <!-- 1 -->
      <g transform="translate(24.9075 379.958737) scale(0.1 -0.1)">
       <use xlink:href="#DejaVuSans-31"/>
      </g>
     </g>
    </g>
    <g id="ytick_2">
     <g id="line2d_13">
      <path d="M 38.27 320.124483 
L 853.2 320.124483 
" clip-path="url(#p0dfb8d4d8d)" style="fill: none; stroke: #b0b0b0; stroke-opacity: 0.25; stroke-width: 0.8; stroke-linecap: square"/>
     </g>
     <g id="line2d_14">
      <g>
       <use xlink:href="#md0f235271e" x="38.27" y="320.124483" style="stroke: #000000; stroke-width: 0.8"/>
      </g>
     </g>
     <g id="text_8">
      <!-- 2 -->
      <g transform="translate(24.9075 323.923702) scale(0.1 -0.1)">
       <use xlink:href="#DejaVuSans-32"/>
      </g>
     </g>
    </g>
    <g id="ytick_3">
     <g id="line2d_15">
      <path d="M 38.27 264.089447 
L 853.2 264.089447 
" clip-path="url(#p0dfb8d4d8d)" style="fill: none; stroke: #b0b0b0; stroke-opacity: 0.25; stroke-width: 0.8; stroke-linecap: square"/>
     </g>
     <g id="line2d_16">
      <g>
       <use xlink:href="#md0f235271e" x="38.27" y="264.089447" style="stroke: #000000; stroke-width: 0.8"/>
      </g>
     </g>
     <g id="text_9">
      <!-- 3 -->
      <g transform="translate(24.9075 267.888666) scale(0.1 -0.1)">
       <defs>
        <path id="DejaVuSans-33" d="M 2597 2516 
Q 3050 2419 3304 2112 
Q 3559 1806 3559 1356 
Q 3559 666 3084 287 
Q 2609 -91 1734 -91 
Q 1441 -91 1130 -33 
Q 819 25 488 141 
L 488 750 
Q 750 597 1062 519 
Q 1375 441 1716 441 
Q 2309 441 2620 675 
Q 2931 909 2931 1356 
Q 2931 1769 2642 2001 
Q 2353 2234 1838 2234 
L 1294 2234 
L 1294 2753 
L 1863 2753 
Q 2328 2753 2575 2939 
Q 2822 3125 2822 3475 
Q 2822 3834 2567 4026 
Q 2313 4219 1838 4219 
Q 1578 4219 1281 4162 
Q 984 4106 628 3988 
L 628 4550 
Q 988 4650 1302 4700 
Q 1616 4750 1894 4750 
Q 2613 4750 3031 4423 
Q 3450 4097 3450 3541 
Q 3450 3153 3228 2886 
Q 3006 2619 2597 2516 
z
" transform="scale(0.015625)"/>
       </defs>
       <use xlink:href="#DejaVuSans-33"/>
      </g>
     </g>
    </g>
    <g id="ytick_4">
     <g id="line2d_17">
      <path d="M 38.27 208.054412 
L 853.2 208.054412 
" clip-path="url(#p0dfb8d4d8d)" style="fill: none; stroke: #b0b0b0; stroke-opacity: 0.25; stroke-width: 0.8; stroke-linecap: square"/>
     </g>
     <g id="line2d_18">
      <g>
       <use xlink:href="#md0f235271e" x="38.27" y="208.054412" style="stroke: #000000; stroke-width: 0.8"/>
      </g>
     </g>
     <g id="text_10">
      <!-- 4 -->
      <g transform="translate(24.9075 211.853631) scale(0.1 -0.1)">
       <defs>
        <path id="DejaVuSans-34" d="M 2419 4116 
L 825 1625 
L 2419 1625 
L 2419 4116 
z
M 2253 4666 
L 3047 4666 
L 3047 1625 
L 3713 1625 
L 3713 1100 
L 3047 1100 
L 3047 0 
L 2419 0 
L 2419 1100 
L 313 1100 
L 313 1709 
L 2253 4666 
z
" transform="scale(0.015625)"/>
       </defs>
       <use xlink:href="#DejaVuSans-34"/>
      </g>
     </g>
    </g>
    <g id="ytick_5">
     <g id="line2d_19">
      <path d="M 38.27 152.019377 
L 853.2 152.019377 
" clip-path="url(#p0dfb8d4d8d)" style="fill: none; stroke: #b0b0b0; stroke-opacity: 0.25; stroke-width: 0.8; stroke-linecap: square"/>
     </g>
     <g id="line2d_20">
      <g>
       <use xlink:href="#md0f235271e" x="38.27" y="152.019377" style="stroke: #000000; stroke-width: 0.8"/>
      </g>
     </g>
     <g id="text_11">
      <!-- 5 -->
      <g transform="translate(24.9075 155.818595) scale(0.1 -0.1)">
       <use xlink:href="#DejaVuSans-35"/>
      </g>
     </g>
    </g>
    <g id="ytick_6">
     <g id="line2d_21">
      <path d="M 38.27 95.984341 
L 853.2 95.984341 
" clip-path="url(#p0dfb8d4d8d)" style="fill: none; stroke: #b0b0b0; stroke-opacity: 0.25; stroke-width: 0.8; stroke-linecap: square"/>
     </g>
     <g id="line2d_22">
      <g>
       <use xlink:href="#md0f235271e" x="38.27" y="95.984341" style="stroke: #000000; stroke-width: 0.8"/>
      </g>
     </g>
     <g id="text_12">
      <!-- 6 -->
      <g transform="translate(24.9075 99.78356) scale(0.1 -0.1)">
       <defs>
        <path id="DejaVuSans-36" d="M 2113 2584 
Q 1688 2584 1439 2293 
Q 1191 2003 1191 1497 
Q 1191 994 1439 701 
Q 1688 409 2113 409 
Q 2538 409 2786 701 
Q 3034 994 3034 1497 
Q 3034 2003 2786 2293 
Q 2538 2584 2113 2584 
z
M 3366 4563 
L 3366 3988 
Q 3128 4100 2886 4159 
Q 2644 4219 2406 4219 
Q 1781 4219 1451 3797 
Q 1122 3375 1075 2522 
Q 1259 2794 1537 2939 
Q 1816 3084 2150 3084 
Q 2853 3084 3261 2657 
Q 3669 2231 3669 1497 
Q 3669 778 3244 343 
Q 2819 -91 2113 -91 
Q 1303 -91 875 529 
Q 447 1150 447 2328 
Q 447 3434 972 4092 
Q 1497 4750 2381 4750 
Q 2619 4750 2861 4703 
Q 3103 4656 3366 4563 
z
" transform="scale(0.015625)"/>
       </defs>
       <use xlink:href="#DejaVuSans-36"/>
      </g>
     </g>
    </g>
    <g id="ytick_7">
     <g id="line2d_23">
      <path d="M 38.27 39.949306 
L 853.2 39.949306 
" clip-path="url(#p0dfb8d4d8d)" style="fill: none; stroke: #b0b0b0; stroke-opacity: 0.25; stroke-width: 0.8; stroke-linecap: square"/>
     </g>
     <g id="line2d_24">
      <g>
       <use xlink:href="#md0f235271e" x="38.27" y="39.949306" style="stroke: #000000; stroke-width: 0.8"/>
      </g>
     </g>
     <g id="text_13">
      <!-- 7 -->
      <g transform="translate(24.9075 43.748524) scale(0.1 -0.1)">
       <defs>
        <path id="DejaVuSans-37" d="M 525 4666 
L 3525 4666 
L 3525 4397 
L 1831 0 
L 1172 0 
L 2766 4134 
L 525 4134 
L 525 4666 
z
" transform="scale(0.015625)"/>
       </defs>
       <use xlink:href="#DejaVuSans-37"/>
      </g>
     </g>
    </g>
    <g id="text_14">
     <!-- ns / limb -->
     <g transform="translate(18.827813 229.198594) rotate(-90) scale(0.1 -0.1)">
      <defs>
       <path id="DejaVuSans-2f" d="M 1625 4666 
L 2156 4666 
L 531 -594 
L 0 -594 
L 1625 4666 
z
" transform="scale(0.015625)"/>
      </defs>
      <use xlink:href="#DejaVuSans-6e"/>
      <use xlink:href="#DejaVuSans-73" transform="translate(63.378906 0)"/>
      <use xlink:href="#DejaVuSans-20" transform="translate(115.478516 0)"/>
      <use xlink:href="#DejaVuSans-2f" transform="translate(147.265625 0)"/>
      <use xlink:href="#DejaVuSans-20" transform="translate(180.957031 0)"/>
      <use xlink:href="#DejaVuSans-6c" transform="translate(212.744141 0)"/>
      <use xlink:href="#DejaVuSans-69" transform="translate(240.527344 0)"/>
      <use xlink:href="#DejaVuSans-6d" transform="translate(268.310547 0)"/>
      <use xlink:href="#DejaVuSans-62" transform="translate(365.722656 0)"/>
     </g>
    </g>
   </g>
   <g id="line2d_25">
    <path d="M 75.312273 373.467273 
L 78.619619 371.529472 
L 81.926964 371.400515 
L 85.23431 371.014003 
L 88.541656 368.56016 
L 91.849002 368.537153 
L 95.156347 366.598362 
L 98.463693 365.853639 
L 101.771039 362.251834 
L 105.078385 362.950406 
L 108.385731 353.347103 
L 111.693076 359.810048 
L 115.000422 356.794061 
L 118.307768 354.939358 
L 121.615114 355.739863 
L 124.922459 354.38547 
L 128.229805 353.561337 
L 131.537151 351.728854 
L 134.844497 350.253032 
L 138.151843 349.346713 
L 141.459188 346.402912 
L 144.766534 346.335153 
L 148.07388 344.288174 
L 151.381226 343.305455 
L 154.688571 341.969752 
L 157.995917 340.776886 
L 161.303263 338.750829 
L 164.610609 338.105478 
L 167.917955 335.784678 
L 171.2253 334.996313 
L 174.532646 324.743954 
L 177.839992 332.257685 
L 181.147338 331.488359 
L 184.454683 329.217341 
L 187.762029 327.262954 
L 191.069375 326.745819 
L 194.376721 324.285995 
L 197.684067 323.990331 
L 200.991412 321.386924 
L 204.298758 320.520584 
L 207.606104 318.889864 
L 210.91345 314.418413 
L 214.220795 315.151963 
L 217.528141 314.969822 
L 220.835487 313.0465 
L 224.142833 309.183818 
L 227.450179 310.476036 
L 230.757524 309.19615 
L 234.06487 306.910221 
L 240.679562 301.133458 
L 243.986907 300.527379 
L 247.294253 298.092863 
L 250.601599 297.108628 
L 253.908945 294.678288 
L 257.216291 293.757515 
L 260.523636 292.133808 
L 263.830982 290.795409 
L 267.138328 288.282543 
L 270.445674 287.818515 
L 273.753019 285.679256 
L 277.060365 285.368441 
L 280.367711 282.383996 
L 283.675057 281.937378 
L 286.982403 279.869366 
L 290.289748 278.882522 
L 293.597094 276.712039 
L 296.90444 276.28108 
L 300.211786 273.696102 
L 303.519131 272.898631 
L 306.826477 270.659632 
L 310.133823 269.574573 
L 313.441169 267.578913 
L 316.748515 266.573839 
L 320.05586 264.388143 
L 323.363206 263.320556 
L 326.670552 260.600503 
L 329.977898 260.331017 
L 333.285244 258.066607 
L 336.592589 256.705405 
L 339.899935 255.221708 
L 343.207281 254.739076 
L 346.514627 252.132273 
L 349.821972 251.45749 
L 353.129318 248.775496 
L 356.436664 248.660753 
L 359.74401 245.904686 
L 363.051356 245.258115 
L 366.358701 243.489804 
L 369.666047 242.109918 
L 372.973393 239.489282 
L 376.280739 239.409694 
L 379.588084 236.51914 
L 382.89543 235.865773 
L 386.202776 232.973167 
L 389.510122 232.938308 
L 396.124813 229.198187 
L 399.432159 226.902511 
L 402.739505 226.260863 
L 406.046851 224.155033 
L 409.354196 223.84531 
L 412.661542 221.222612 
L 415.968888 219.933941 
L 419.276234 218.453423 
L 422.58358 217.727099 
L 425.890925 214.995923 
L 429.198271 214.48103 
L 432.505617 216.507686 
L 435.812963 217.39644 
L 439.120308 215.240954 
L 442.427654 214.076549 
L 445.735 211.865739 
L 449.042346 210.350128 
L 452.349692 208.500194 
L 455.657037 207.488433 
L 458.964383 205.267853 
L 462.271729 204.783954 
L 465.579075 202.014165 
L 468.88642 200.900274 
L 472.193766 199.241723 
L 475.501112 198.526513 
L 478.808458 195.779966 
L 482.115804 195.95805 
L 485.423149 193.504009 
L 488.730495 192.445767 
L 492.037841 190.153796 
L 495.345187 189.402756 
L 498.652532 187.379819 
L 501.959878 186.967899 
L 505.267224 183.667805 
L 508.57457 183.930457 
L 511.881916 181.141672 
L 515.189261 181.418717 
L 518.496607 178.179974 
L 521.803953 177.206459 
L 528.418644 173.153054 
L 531.72599 171.908629 
L 535.033336 171.59887 
L 538.340682 169.121005 
L 541.648028 168.250947 
L 544.955373 165.776541 
L 548.262719 165.136959 
L 551.570065 163.60137 
L 554.877411 161.012827 
L 558.184756 159.600294 
L 561.492102 159.6676 
L 564.799448 156.387752 
L 568.106794 156.870893 
L 571.41414 154.237479 
L 574.721485 153.213714 
L 578.028831 150.906842 
L 581.336177 149.453041 
L 584.643523 147.112169 
L 587.950869 147.321792 
L 591.258214 144.995228 
L 594.56556 144.566836 
L 597.872906 141.577705 
L 601.180252 140.999976 
L 604.487597 139.630924 
L 607.794943 137.164777 
L 611.102289 135.934577 
L 614.409635 135.699113 
L 617.716981 132.88797 
L 621.024326 132.495563 
L 624.331672 129.519456 
L 627.639018 129.258343 
L 630.946364 127.656615 
L 634.253709 124.730621 
L 637.561055 123.726089 
L 640.868401 123.789082 
L 644.175747 121.162793 
L 647.483093 120.331506 
L 650.790438 116.703426 
L 654.097784 116.416392 
L 657.40513 114.164157 
L 660.712476 112.290278 
L 664.019821 112.031927 
L 667.327167 110.581267 
L 670.634513 108.750041 
L 673.941859 108.822927 
L 677.249205 104.869211 
L 680.55655 103.73542 
L 683.863896 102.413348 
L 687.171242 100.589662 
L 690.478588 98.326543 
L 693.785933 98.422192 
L 697.093279 95.851608 
L 700.400625 95.996394 
L 703.707971 92.504463 
L 707.015317 91.741329 
L 710.322662 91.494215 
L 713.630008 89.146668 
L 716.937354 85.691987 
L 720.2447 86.481523 
L 723.552045 84.421338 
L 726.859391 84.310451 
L 730.166737 81.054815 
L 733.474083 80.361053 
L 736.781429 77.925468 
L 740.088774 76.57833 
L 743.39612 73.890755 
L 746.703466 75.032234 
L 750.010812 72.903685 
L 753.318157 72.703622 
L 756.625503 68.837667 
L 759.932849 68.479696 
L 763.240195 65.376176 
L 766.547541 64.374536 
L 769.854886 62.462611 
L 773.162232 62.789631 
L 776.469578 60.061655 
L 779.776924 60.008399 
L 783.084269 56.606561 
L 786.391615 55.814009 
L 789.698961 53.383613 
L 793.006307 51.514519 
L 796.313653 50.625731 
L 799.620998 51.334403 
L 802.928344 48.075346 
L 806.23569 47.995407 
L 809.543036 44.795584 
L 812.850381 44.155748 
L 816.157727 42.012727 
L 816.157727 42.012727 
" clip-path="url(#p0dfb8d4d8d)" style="fill: none; stroke: #1f77b4; stroke-width: 1.6; stroke-linecap: square"/>
   </g>
   <g id="line2d_26">
    <path d="M 75.312273 332.055685 
L 78.619619 309.980602 
L 81.926964 313.394363 
L 85.23431 318.400737 
L 88.541656 320.876182 
L 91.849002 325.346038 
L 95.156347 323.147833 
L 98.463693 328.458092 
L 101.771039 331.312123 
L 105.078385 328.323076 
L 108.385731 331.081792 
L 111.693076 331.186906 
L 115.000422 334.607041 
L 118.307768 333.544154 
L 121.615114 335.778519 
L 124.922459 337.078599 
L 128.229805 335.199176 
L 131.537151 318.403364 
L 134.844497 321.863304 
L 138.151843 321.890944 
L 141.459188 322.819495 
L 144.766534 323.528676 
L 148.07388 325.671249 
L 151.381226 325.029262 
L 154.688571 328.930594 
L 157.995917 325.48458 
L 161.303263 326.913421 
L 164.610609 327.536773 
L 167.917955 327.486474 
L 171.2253 328.387659 
L 174.532646 328.987771 
L 177.839992 329.232921 
L 181.147338 327.776762 
L 184.454683 307.657235 
L 191.069375 310.135182 
L 194.376721 311.102292 
L 197.684067 311.080327 
L 200.991412 312.003245 
L 204.298758 312.366635 
L 207.606104 313.275376 
L 210.91345 305.00341 
L 214.220795 313.524002 
L 217.528141 311.30444 
L 220.835487 315.388058 
L 224.142833 316.08431 
L 227.450179 315.504457 
L 230.757524 315.170884 
L 234.06487 309.616117 
L 237.372216 297.558045 
L 240.679562 297.00758 
L 247.294253 298.20089 
L 250.601599 297.808817 
L 253.908945 298.20454 
L 257.216291 298.247691 
L 260.523636 298.987609 
L 263.830982 297.16215 
L 267.138328 296.54253 
L 270.445674 295.615069 
L 273.753019 297.686106 
L 277.060365 297.034752 
L 280.367711 297.286004 
L 283.675057 297.371058 
L 286.982403 293.660915 
L 290.289748 281.441734 
L 293.597094 281.001229 
L 296.90444 279.622612 
L 300.211786 282.254737 
L 303.519131 282.491388 
L 306.826477 281.894297 
L 310.133823 282.646897 
L 313.441169 282.795011 
L 316.748515 281.742928 
L 320.05586 281.717336 
L 323.363206 280.514624 
L 326.670552 280.587359 
L 329.977898 281.459626 
L 333.285244 281.008772 
L 336.592589 281.088944 
L 339.899935 279.9025 
L 343.207281 265.574668 
L 346.514627 265.777659 
L 349.821972 263.02053 
L 353.129318 265.838109 
L 356.436664 265.798747 
L 359.74401 265.598897 
L 363.051356 265.749043 
L 366.358701 265.677196 
L 369.666047 264.53422 
L 372.973393 263.974397 
L 376.280739 264.742549 
L 379.588084 264.25288 
L 382.89543 263.63534 
L 386.202776 263.661537 
L 389.510122 263.282194 
L 392.817468 261.142341 
L 396.124813 247.807687 
L 399.432159 244.830896 
L 402.739505 247.905647 
L 406.046851 245.899336 
L 409.354196 248.075518 
L 412.661542 247.750926 
L 415.968888 247.970809 
L 419.276234 247.785013 
L 422.58358 246.790293 
L 425.890925 245.920894 
L 429.198271 249.412944 
L 432.505617 251.675195 
L 435.812963 251.807605 
L 439.120308 251.266693 
L 442.427654 251.334283 
L 445.735 249.058973 
L 449.042346 236.996238 
L 452.349692 235.961378 
L 455.657037 236.522901 
L 458.964383 236.446904 
L 462.271729 236.568254 
L 465.579075 236.236017 
L 468.88642 236.442762 
L 472.193766 236.257037 
L 475.501112 235.200535 
L 478.808458 235.026867 
L 482.115804 235.393956 
L 485.423149 234.490457 
L 488.730495 234.688637 
L 492.037841 233.827911 
L 495.345187 234.024402 
L 498.652532 231.701934 
L 501.959878 218.973718 
L 505.267224 218.879465 
L 508.57457 219.379987 
L 511.881916 218.856837 
L 518.496607 218.015867 
L 521.803953 218.503452 
L 525.111299 218.679252 
L 528.418644 217.146671 
L 531.72599 217.357533 
L 535.033336 216.896893 
L 541.648028 216.419007 
L 544.955373 216.65843 
L 548.262719 216.576598 
L 551.570065 214.218716 
L 554.877411 201.701296 
L 558.184756 201.293206 
L 561.492102 202.499088 
L 564.799448 201.395962 
L 568.106794 201.551267 
L 571.41414 200.500304 
L 574.721485 200.512944 
L 578.028831 200.837286 
L 581.336177 199.573895 
L 584.643523 200.145624 
L 591.258214 199.406707 
L 594.56556 199.420619 
L 597.872906 198.146979 
L 601.180252 198.805573 
L 604.487597 195.11084 
L 607.794943 183.278276 
L 611.102289 182.797771 
L 614.409635 182.961235 
L 621.024326 182.280861 
L 624.331672 183.71993 
L 627.639018 183.437273 
L 630.946364 182.56574 
L 634.253709 182.552231 
L 637.561055 181.20618 
L 640.868401 182.148958 
L 644.175747 180.415581 
L 647.483093 180.508878 
L 650.790438 181.054116 
L 654.097784 180.83459 
L 657.40513 178.967379 
L 660.712476 166.438767 
L 664.019821 166.482455 
L 667.327167 165.924309 
L 670.634513 165.798968 
L 673.941859 164.842175 
L 677.249205 165.091751 
L 680.55655 165.723243 
L 683.863896 164.368266 
L 687.171242 163.54342 
L 690.478588 163.717975 
L 693.785933 164.531664 
L 697.093279 164.075046 
L 700.400625 162.413948 
L 703.707971 163.09602 
L 707.015317 163.396139 
L 710.322662 159.085568 
L 713.630008 148.759668 
L 716.937354 147.99749 
L 720.2447 149.497815 
L 723.552045 147.579629 
L 730.166737 147.296778 
L 733.474083 148.079203 
L 736.781429 146.688349 
L 740.088774 146.522269 
L 743.39612 146.559022 
L 746.703466 146.888051 
L 750.010812 145.866192 
L 756.625503 144.556345 
L 759.932849 145.773174 
L 763.240195 142.962069 
L 766.547541 130.784477 
L 769.854886 130.848634 
L 773.162232 131.323309 
L 776.469578 130.851941 
L 779.776924 129.656904 
L 783.084269 130.275162 
L 786.391615 129.752104 
L 789.698961 130.178028 
L 793.006307 129.729938 
L 796.313653 129.140672 
L 799.620998 129.056414 
L 802.928344 127.903654 
L 806.23569 128.687294 
L 809.543036 126.869996 
L 812.850381 127.96212 
L 816.157727 127.040121 
L 816.157727 127.040121 
" clip-path="url(#p0dfb8d4d8d)" style="fill: none; stroke: #ff7f0e; stroke-width: 1.8; stroke-linecap: square"/>
   </g>
   <g id="patch_3">
    <path d="M 38.27 390.04 
L 38.27 25.44 
" style="fill: none; stroke: #000000; stroke-width: 0.8; stroke-linejoin: miter; stroke-linecap: square"/>
   </g>
   <g id="patch_4">
    <path d="M 853.2 390.04 
L 853.2 25.44 
" style="fill: none; stroke: #000000; stroke-width: 0.8; stroke-linejoin: miter; stroke-linecap: square"/>
   </g>
   <g id="patch_5">
    <path d="M 38.27 390.04 
L 853.2 390.04 
" style="fill: none; stroke: #000000; stroke-width: 0.8; stroke-linejoin: miter; stroke-linecap: square"/>
   </g>
   <g id="patch_6">
    <path d="M 38.27 25.44 
L 853.2 25.44 
" style="fill: none; stroke: #000000; stroke-width: 0.8; stroke-linejoin: miter; stroke-linecap: square"/>
   </g>
   <g id="text_15">
    <!-- u52 multiplication: basecase vs one-level Karatsuba -->
    <g transform="translate(289.008438 19.44) scale(0.12 -0.12)">
     <defs>
      <path id="DejaVuSans-74" d="M 1172 4494 
L 1172 3500 
L 2356 3500 
L 2356 3053 
L 1172 3053 
L 1172 1153 
Q 1172 725 1289 603 
Q 1406 481 1766 481 
L 2356 481 
L 2356 0 
L 1766 0 
Q 1100 0 847 248 
Q 594 497 594 1153 
L 594 3053 
L 172 3053 
L 172 3500 
L 594 3500 
L 594 4494 
L 1172 4494 
z
" transform="scale(0.015625)"/>
      <path id="DejaVuSans-70" d="M 1159 525 
L 1159 -1331 
L 581 -1331 
L 581 3500 
L 1159 3500 
L 1159 2969 
Q 1341 3281 1617 3432 
Q 1894 3584 2278 3584 
Q 2916 3584 3314 3078 
Q 3713 2572 3713 1747 
Q 3713 922 3314 415 
Q 2916 -91 2278 -91 
Q 1894 -91 1617 61 
Q 1341 213 1159 525 
z
M 3116 1747 
Q 3116 2381 2855 2742 
Q 2594 3103 2138 3103 
Q 1681 3103 1420 2742 
Q 1159 2381 1159 1747 
Q 1159 1113 1420 752 
Q 1681 391 2138 391 
Q 2594 391 2855 752 
Q 3116 1113 3116 1747 
z
" transform="scale(0.015625)"/>
      <path id="DejaVuSans-63" d="M 3122 3366 
L 3122 2828 
Q 2878 2963 2633 3030 
Q 2388 3097 2138 3097 
Q 1578 3097 1268 2742 
Q 959 2388 959 1747 
Q 959 1106 1268 751 
Q 1578 397 2138 397 
Q 2388 397 2633 464 
Q 2878 531 3122 666 
L 3122 134 
Q 2881 22 2623 -34 
Q 2366 -91 2075 -91 
Q 1284 -91 818 406 
Q 353 903 353 1747 
Q 353 2603 823 3093 
Q 1294 3584 2113 3584 
Q 2378 3584 2631 3529 
Q 2884 3475 3122 3366 
z
" transform="scale(0.015625)"/>
      <path id="DejaVuSans-6f" d="M 1959 3097 
Q 1497 3097 1228 2736 
Q 959 2375 959 1747 
Q 959 1119 1226 758 
Q 1494 397 1959 397 
Q 2419 397 2687 759 
Q 2956 1122 2956 1747 
Q 2956 2369 2687 2733 
Q 2419 3097 1959 3097 
z
M 1959 3584 
Q 2709 3584 3137 3096 
Q 3566 2609 3566 1747 
Q 3566 888 3137 398 
Q 2709 -91 1959 -91 
Q 1206 -91 779 398 
Q 353 888 353 1747 
Q 353 2609 779 3096 
Q 1206 3584 1959 3584 
z
" transform="scale(0.015625)"/>
      <path id="DejaVuSans-3a" d="M 750 794 
L 1409 794 
L 1409 0 
L 750 0 
L 750 794 
z
M 750 3309 
L 1409 3309 
L 1409 2516 
L 750 2516 
L 750 3309 
z
" transform="scale(0.015625)"/>
      <path id="DejaVuSans-65" d="M 3597 1894 
L 3597 1613 
L 953 1613 
Q 991 1019 1311 708 
Q 1631 397 2203 397 
Q 2534 397 2845 478 
Q 3156 559 3463 722 
L 3463 178 
Q 3153 47 2828 -22 
Q 2503 -91 2169 -91 
Q 1331 -91 842 396 
Q 353 884 353 1716 
Q 353 2575 817 3079 
Q 1281 3584 2069 3584 
Q 2775 3584 3186 3129 
Q 3597 2675 3597 1894 
z
M 3022 2063 
Q 3016 2534 2758 2815 
Q 2500 3097 2075 3097 
Q 1594 3097 1305 2825 
Q 1016 2553 972 2059 
L 3022 2063 
z
" transform="scale(0.015625)"/>
      <path id="DejaVuSans-76" d="M 191 3500 
L 800 3500 
L 1894 563 
L 2988 3500 
L 3597 3500 
L 2284 0 
L 1503 0 
L 191 3500 
z
" transform="scale(0.015625)"/>
      <path id="DejaVuSans-2d" d="M 313 2009 
L 1997 2009 
L 1997 1497 
L 313 1497 
L 313 2009 
z
" transform="scale(0.015625)"/>
      <path id="DejaVuSans-4b" d="M 628 4666 
L 1259 4666 
L 1259 2694 
L 3353 4666 
L 4166 4666 
L 1850 2491 
L 4331 0 
L 3500 0 
L 1259 2247 
L 1259 0 
L 628 0 
L 628 4666 
z
" transform="scale(0.015625)"/>
      <path id="DejaVuSans-72" d="M 2631 2963 
Q 2534 3019 2420 3045 
Q 2306 3072 2169 3072 
Q 1681 3072 1420 2755 
Q 1159 2438 1159 1844 
L 1159 0 
L 581 0 
L 581 3500 
L 1159 3500 
L 1159 2956 
Q 1341 3275 1631 3429 
Q 1922 3584 2338 3584 
Q 2397 3584 2469 3576 
Q 2541 3569 2628 3553 
L 2631 2963 
z
" transform="scale(0.015625)"/>
     </defs>
     <use xlink:href="#DejaVuSans-75"/>
     <use xlink:href="#DejaVuSans-35" transform="translate(63.378906 0)"/>
     <use xlink:href="#DejaVuSans-32" transform="translate(127.001953 0)"/>
     <use xlink:href="#DejaVuSans-20" transform="translate(190.625 0)"/>
     <use xlink:href="#DejaVuSans-6d" transform="translate(222.412109 0)"/>
     <use xlink:href="#DejaVuSans-75" transform="translate(319.824219 0)"/>
     <use xlink:href="#DejaVuSans-6c" transform="translate(383.203125 0)"/>
     <use xlink:href="#DejaVuSans-74" transform="translate(410.986328 0)"/>
     <use xlink:href="#DejaVuSans-69" transform="translate(450.195312 0)"/>
     <use xlink:href="#DejaVuSans-70" transform="translate(477.978516 0)"/>
     <use xlink:href="#DejaVuSans-6c" transform="translate(541.455078 0)"/>
     <use xlink:href="#DejaVuSans-69" transform="translate(569.238281 0)"/>
     <use xlink:href="#DejaVuSans-63" transform="translate(597.021484 0)"/>
     <use xlink:href="#DejaVuSans-61" transform="translate(652.001953 0)"/>
     <use xlink:href="#DejaVuSans-74" transform="translate(713.28125 0)"/>
     <use xlink:href="#DejaVuSans-69" transform="translate(752.490234 0)"/>
     <use xlink:href="#DejaVuSans-6f" transform="translate(780.273438 0)"/>
     <use xlink:href="#DejaVuSans-6e" transform="translate(841.455078 0)"/>
     <use xlink:href="#DejaVuSans-3a" transform="translate(904.833984 0)"/>
     <use xlink:href="#DejaVuSans-20" transform="translate(938.525391 0)"/>
     <use xlink:href="#DejaVuSans-62" transform="translate(970.3125 0)"/>
     <use xlink:href="#DejaVuSans-61" transform="translate(1033.789062 0)"/>
     <use xlink:href="#DejaVuSans-73" transform="translate(1095.068359 0)"/>
     <use xlink:href="#DejaVuSans-65" transform="translate(1147.167969 0)"/>
     <use xlink:href="#DejaVuSans-63" transform="translate(1208.691406 0)"/>
     <use xlink:href="#DejaVuSans-61" transform="translate(1263.671875 0)"/>
     <use xlink:href="#DejaVuSans-73" transform="translate(1324.951172 0)"/>
     <use xlink:href="#DejaVuSans-65" transform="translate(1377.050781 0)"/>
     <use xlink:href="#DejaVuSans-20" transform="translate(1438.574219 0)"/>
     <use xlink:href="#DejaVuSans-76" transform="translate(1470.361328 0)"/>
     <use xlink:href="#DejaVuSans-73" transform="translate(1529.541016 0)"/>
     <use xlink:href="#DejaVuSans-20" transform="translate(1581.640625 0)"/>
     <use xlink:href="#DejaVuSans-6f" transform="translate(1613.427734 0)"/>
     <use xlink:href="#DejaVuSans-6e" transform="translate(1674.609375 0)"/>
     <use xlink:href="#DejaVuSans-65" transform="translate(1737.988281 0)"/>
     <use xlink:href="#DejaVuSans-2d" transform="translate(1799.511719 0)"/>
     <use xlink:href="#DejaVuSans-6c" transform="translate(1835.595703 0)"/>
     <use xlink:href="#DejaVuSans-65" transform="translate(1863.378906 0)"/>
     <use xlink:href="#DejaVuSans-76" transform="translate(1924.902344 0)"/>
     <use xlink:href="#DejaVuSans-65" transform="translate(1984.082031 0)"/>
     <use xlink:href="#DejaVuSans-6c" transform="translate(2045.605469 0)"/>
     <use xlink:href="#DejaVuSans-20" transform="translate(2073.388672 0)"/>
     <use xlink:href="#DejaVuSans-4b" transform="translate(2105.175781 0)"/>
     <use xlink:href="#DejaVuSans-61" transform="translate(2169.001953 0)"/>
     <use xlink:href="#DejaVuSans-72" transform="translate(2230.28125 0)"/>
     <use xlink:href="#DejaVuSans-61" transform="translate(2271.394531 0)"/>
     <use xlink:href="#DejaVuSans-74" transform="translate(2332.673828 0)"/>
     <use xlink:href="#DejaVuSans-73" transform="translate(2371.882812 0)"/>
     <use xlink:href="#DejaVuSans-75" transform="translate(2423.982422 0)"/>
     <use xlink:href="#DejaVuSans-62" transform="translate(2487.361328 0)"/>
     <use xlink:href="#DejaVuSans-61" transform="translate(2550.837891 0)"/>
    </g>
   </g>
   <g id="legend_1">
    <g id="patch_7">
     <path d="M 45.27 62.79625 
L 164.12625 62.79625 
Q 166.12625 62.79625 166.12625 60.79625 
L 166.12625 32.44 
Q 166.12625 30.44 164.12625 30.44 
L 45.27 30.44 
Q 43.27 30.44 43.27 32.44 
L 43.27 60.79625 
Q 43.27 62.79625 45.27 62.79625 
z
" style="fill: #ffffff; opacity: 0.8; stroke: #cccccc; stroke-linejoin: miter"/>
    </g>
    <g id="line2d_27">
     <path d="M 47.27 38.538437 
L 57.27 38.538437 
L 67.27 38.538437 
" style="fill: none; stroke: #1f77b4; stroke-width: 1.6; stroke-linecap: square"/>
    </g>
    <g id="text_16">
     <!-- basecase -->
     <g transform="translate(75.27 42.038437) scale(0.1 -0.1)">
      <use xlink:href="#DejaVuSans-62"/>
      <use xlink:href="#DejaVuSans-61" transform="translate(63.476562 0)"/>
      <use xlink:href="#DejaVuSans-73" transform="translate(124.755859 0)"/>
      <use xlink:href="#DejaVuSans-65" transform="translate(176.855469 0)"/>
      <use xlink:href="#DejaVuSans-63" transform="translate(238.378906 0)"/>
      <use xlink:href="#DejaVuSans-61" transform="translate(293.359375 0)"/>
      <use xlink:href="#DejaVuSans-73" transform="translate(354.638672 0)"/>
      <use xlink:href="#DejaVuSans-65" transform="translate(406.738281 0)"/>
     </g>
    </g>
    <g id="line2d_28">
     <path d="M 47.27 53.216563 
L 57.27 53.216563 
L 67.27 53.216563 
" style="fill: none; stroke: #ff7f0e; stroke-width: 1.8; stroke-linecap: square"/>
    </g>
    <g id="text_17">
     <!-- 1-level karatsuba -->
     <g transform="translate(75.27 56.716563) scale(0.1 -0.1)">
      <defs>
       <path id="DejaVuSans-6b" d="M 581 4863 
L 1159 4863 
L 1159 1991 
L 2875 3500 
L 3609 3500 
L 1753 1863 
L 3688 0 
L 2938 0 
L 1159 1709 
L 1159 0 
L 581 0 
L 581 4863 
z
" transform="scale(0.015625)"/>
      </defs>
      <use xlink:href="#DejaVuSans-31"/>
      <use xlink:href="#DejaVuSans-2d" transform="translate(63.623047 0)"/>
      <use xlink:href="#DejaVuSans-6c" transform="translate(99.707031 0)"/>
      <use xlink:href="#DejaVuSans-65" transform="translate(127.490234 0)"/>
      <use xlink:href="#DejaVuSans-76" transform="translate(189.013672 0)"/>
      <use xlink:href="#DejaVuSans-65" transform="translate(248.193359 0)"/>
      <use xlink:href="#DejaVuSans-6c" transform="translate(309.716797 0)"/>
      <use xlink:href="#DejaVuSans-20" transform="translate(337.5 0)"/>
      <use xlink:href="#DejaVuSans-6b" transform="translate(369.287109 0)"/>
      <use xlink:href="#DejaVuSans-61" transform="translate(425.447266 0)"/>
      <use xlink:href="#DejaVuSans-72" transform="translate(486.726562 0)"/>
      <use xlink:href="#DejaVuSans-61" transform="translate(527.839844 0)"/>
      <use xlink:href="#DejaVuSans-74" transform="translate(589.119141 0)"/>
      <use xlink:href="#DejaVuSans-73" transform="translate(628.328125 0)"/>
      <use xlink:href="#DejaVuSans-75" transform="translate(680.427734 0)"/>
      <use xlink:href="#DejaVuSans-62" transform="translate(743.806641 0)"/>
      <use xlink:href="#DejaVuSans-61" transform="translate(807.283203 0)"/>
     </g>
    </g>
   </g>
  </g>
 </g>
 <defs>
  <clipPath id="p0dfb8d4d8d">
   <rect x="38.27" y="25.44" width="814.93" height="364.6"/>
  </clipPath>
 </defs>
</svg>
