<?xml version="1.0" encoding="utf-8" standalone="no"?>
<!DOCTYPE svg PUBLIC "-//W3C//DTD SVG 1.1//EN"
  "http://www.w3.org/Graphics/SVG/1.1/DTD/svg11.dtd">
<svg xmlns:xlink="http://www.w3.org/1999/xlink" width="1008pt" height="360pt" viewBox="0 0 1008 360" xmlns="http://www.w3.org/2000/svg" version="1.1">
 <metadata>
  <rdf:RDF xmlns:dc="http://purl.org/dc/elements/1.1/" xmlns:cc="http://creativecommons.org/ns#" xmlns:rdf="http://www.w3.org/1999/02/22-rdf-syntax-ns#">
   <cc:Work>
    <dc:type rdf:resource="http://purl.org/dc/dcmitype/StillImage"/>
    <dc:date>2026-06-04T10:37:51.174236</dc:date>
    <dc:format>image/svg+xml</dc:format>
    <dc:creator>
     <cc:Agent>
      <dc:title>Matplotlib v3.10.7+dfsg1, https://matplotlib.org/</dc:title>
     </cc:Agent>
    </dc:creator>
   </cc:Work>
  </rdf:RDF>
 </metadata>
 <defs>
  <style type="text/css">*{stroke-linejoin: round; stroke-linecap: butt}</style>
 </defs>
 <g id="figure_1">
  <g id="patch_1">
   <path d="M 0 360 
L 1008 360 
L 1008 0 
L 0 0 
z
" style="fill: #ffffff"/>
  </g>
  <g id="axes_1">
   <g id="patch_2">
    <path d="M 47.91125 318.04 
L 498.6 318.04 
L 498.6 47.90625 
L 47.91125 47.90625 
z
" style="fill: #ffffff"/>
   </g>
   <g id="matplotlib.axis_1">
    <g id="xtick_1">
     <g id="line2d_1">
      <path d="M 121.838456 318.04 
L 121.838456 47.90625 
" clip-path="url(#p4798fd99f8)" style="fill: none; stroke: #b0b0b0; stroke-opacity: 0.25; stroke-width: 0.8; stroke-linecap: square"/>
     </g>
     <g id="line2d_2">
      <defs>
       <path id="ma2c1b4a321" d="M 0 0 
L 0 3.5 
" style="stroke: #000000; stroke-width: 0.8"/>
      </defs>
      <g>
       <use xlink:href="#ma2c1b4a321" x="121.838456" y="318.04" style="stroke: #000000; stroke-width: 0.8"/>
      </g>
     </g>
     <g id="text_1">
      <!-- 20 -->
      <g transform="translate(115.475956 332.638438) scale(0.1 -0.1)">
       <defs>
        <path id="DejaVuSans-32" d="M 1228 531 
L 3431 531 
L 3431 0 
L 469 0 
L 469 531 
Q 828 903 1448 1529 
Q 2069 2156 2228 2338 
Q 2531 2678 2651 2914 
Q 2772 3150 2772 3378 
Q 2772 3750 2511 3984 
Q 2250 4219 1831 4219 
Q 1534 4219 1204 4116 
Q 875 4013 500 3803 
L 500 4441 
Q 881 4594 1212 4672 
Q 1544 4750 1819 4750 
Q 2544 4750 2975 4387 
Q 3406 4025 3406 3419 
Q 3406 3131 3298 2873 
Q 3191 2616 2906 2266 
Q 2828 2175 2409 1742 
Q 1991 1309 1228 531 
z
" transform="scale(0.015625)"/>
        <path id="DejaVuSans-30" d="M 2034 4250 
Q 1547 4250 1301 3770 
Q 1056 3291 1056 2328 
Q 1056 1369 1301 889 
Q 1547 409 2034 409 
Q 2525 409 2770 889 
Q 3016 1369 3016 2328 
Q 3016 3291 2770 3770 
Q 2525 4250 2034 4250 
z
M 2034 4750 
Q 2819 4750 3233 4129 
Q 3647 3509 3647 2328 
Q 3647 1150 3233 529 
Q 2819 -91 2034 -91 
Q 1250 -91 836 529 
Q 422 1150 422 2328 
Q 422 3509 836 4129 
Q 1250 4750 2034 4750 
z
" transform="scale(0.015625)"/>
       </defs>
       <use xlink:href="#DejaVuSans-32"/>
       <use xlink:href="#DejaVuSans-30" transform="translate(63.623047 0)"/>
      </g>
     </g>
    </g>
    <g id="xtick_2">
     <g id="line2d_3">
      <path d="M 210.907379 318.04 
L 210.907379 47.90625 
" clip-path="url(#p4798fd99f8)" style="fill: none; stroke: #b0b0b0; stroke-opacity: 0.25; stroke-width: 0.8; stroke-linecap: square"/>
     </g>
     <g id="line2d_4">
      <g>
       <use xlink:href="#ma2c1b4a321" x="210.907379" y="318.04" style="stroke: #000000; stroke-width: 0.8"/>
      </g>
     </g>
     <g id="text_2">
      <!-- 40 -->
      <g transform="translate(204.544879 332.638438) scale(0.1 -0.1)">
       <defs>
        <path id="DejaVuSans-34" d="M 2419 4116 
L 825 1625 
L 2419 1625 
L 2419 4116 
z
M 2253 4666 
L 3047 4666 
L 3047 1625 
L 3713 1625 
L 3713 1100 
L 3047 1100 
L 3047 0 
L 2419 0 
L 2419 1100 
L 313 1100 
L 313 1709 
L 2253 4666 
z
" transform="scale(0.015625)"/>
       </defs>
       <use xlink:href="#DejaVuSans-34"/>
       <use xlink:href="#DejaVuSans-30" transform="translate(63.623047 0)"/>
      </g>
     </g>
    </g>
    <g id="xtick_3">
     <g id="line2d_5">
      <path d="M 299.976302 318.04 
L 299.976302 47.90625 
" clip-path="url(#p4798fd99f8)" style="fill: none; stroke: #b0b0b0; stroke-opacity: 0.25; stroke-width: 0.8; stroke-linecap: square"/>
     </g>
     <g id="line2d_6">
      <g>
       <use xlink:href="#ma2c1b4a321" x="299.976302" y="318.04" style="stroke: #000000; stroke-width: 0.8"/>
      </g>
     </g>
     <g id="text_3">
      <!-- 60 -->
      <g transform="translate(293.613802 332.638438) scale(0.1 -0.1)">
       <defs>
        <path id="DejaVuSans-36" d="M 2113 2584 
Q 1688 2584 1439 2293 
Q 1191 2003 1191 1497 
Q 1191 994 1439 701 
Q 1688 409 2113 409 
Q 2538 409 2786 701 
Q 3034 994 3034 1497 
Q 3034 2003 2786 2293 
Q 2538 2584 2113 2584 
z
M 3366 4563 
L 3366 3988 
Q 3128 4100 2886 4159 
Q 2644 4219 2406 4219 
Q 1781 4219 1451 3797 
Q 1122 3375 1075 2522 
Q 1259 2794 1537 2939 
Q 1816 3084 2150 3084 
Q 2853 3084 3261 2657 
Q 3669 2231 3669 1497 
Q 3669 778 3244 343 
Q 2819 -91 2113 -91 
Q 1303 -91 875 529 
Q 447 1150 447 2328 
Q 447 3434 972 4092 
Q 1497 4750 2381 4750 
Q 2619 4750 2861 4703 
Q 3103 4656 3366 4563 
z
" transform="scale(0.015625)"/>
       </defs>
       <use xlink:href="#DejaVuSans-36"/>
       <use xlink:href="#DejaVuSans-30" transform="translate(63.623047 0)"/>
      </g>
     </g>
    </g>
    <g id="xtick_4">
     <g id="line2d_7">
      <path d="M 389.045225 318.04 
L 389.045225 47.90625 
" clip-path="url(#p4798fd99f8)" style="fill: none; stroke: #b0b0b0; stroke-opacity: 0.25; stroke-width: 0.8; stroke-linecap: square"/>
     </g>
     <g id="line2d_8">
      <g>
       <use xlink:href="#ma2c1b4a321" x="389.045225" y="318.04" style="stroke: #000000; stroke-width: 0.8"/>
      </g>
     </g>
     <g id="text_4">
      <!-- 80 -->
      <g transform="translate(382.682725 332.638438) scale(0.1 -0.1)">
       <defs>
        <path id="DejaVuSans-38" d="M 2034 2216 
Q 1584 2216 1326 1975 
Q 1069 1734 1069 1313 
Q 1069 891 1326 650 
Q 1584 409 2034 409 
Q 2484 409 2743 651 
Q 3003 894 3003 1313 
Q 3003 1734 2745 1975 
Q 2488 2216 2034 2216 
z
M 1403 2484 
Q 997 2584 770 2862 
Q 544 3141 544 3541 
Q 544 4100 942 4425 
Q 1341 4750 2034 4750 
Q 2731 4750 3128 4425 
Q 3525 4100 3525 3541 
Q 3525 3141 3298 2862 
Q 3072 2584 2669 2484 
Q 3125 2378 3379 2068 
Q 3634 1759 3634 1313 
Q 3634 634 3220 271 
Q 2806 -91 2034 -91 
Q 1263 -91 848 271 
Q 434 634 434 1313 
Q 434 1759 690 2068 
Q 947 2378 1403 2484 
z
M 1172 3481 
Q 1172 3119 1398 2916 
Q 1625 2713 2034 2713 
Q 2441 2713 2670 2916 
Q 2900 3119 2900 3481 
Q 2900 3844 2670 4047 
Q 2441 4250 2034 4250 
Q 1625 4250 1398 4047 
Q 1172 3844 1172 3481 
z
" transform="scale(0.015625)"/>
       </defs>
       <use xlink:href="#DejaVuSans-38"/>
       <use xlink:href="#DejaVuSans-30" transform="translate(63.623047 0)"/>
      </g>
     </g>
    </g>
    <g id="xtick_5">
     <g id="line2d_9">
      <path d="M 478.114148 318.04 
L 478.114148 47.90625 
" clip-path="url(#p4798fd99f8)" style="fill: none; stroke: #b0b0b0; stroke-opacity: 0.25; stroke-width: 0.8; stroke-linecap: square"/>
     </g>
     <g id="line2d_10">
      <g>
       <use xlink:href="#ma2c1b4a321" x="478.114148" y="318.04" style="stroke: #000000; stroke-width: 0.8"/>
      </g>
     </g>
     <g id="text_5">
      <!-- 100 -->
      <g transform="translate(468.570398 332.638438) scale(0.1 -0.1)">
       <defs>
        <path id="DejaVuSans-31" d="M 794 531 
L 1825 531 
L 1825 4091 
L 703 3866 
L 703 4441 
L 1819 4666 
L 2450 4666 
L 2450 531 
L 3481 531 
L 3481 0 
L 794 0 
L 794 531 
z
" transform="scale(0.015625)"/>
       </defs>
       <use xlink:href="#DejaVuSans-31"/>
       <use xlink:href="#DejaVuSans-30" transform="translate(63.623047 0)"/>
       <use xlink:href="#DejaVuSans-30" transform="translate(127.246094 0)"/>
      </g>
     </g>
    </g>
    <g id="text_6">
     <!-- an u52 limbs -->
     <g transform="translate(240.886094 346.316563) scale(0.1 -0.1)">
      <defs>
       <path id="DejaVuSans-61" d="M 2194 1759 
Q 1497 1759 1228 1600 
Q 959 1441 959 1056 
Q 959 750 1161 570 
Q 1363 391 1709 391 
Q 2188 391 2477 730 
Q 2766 1069 2766 1631 
L 2766 1759 
L 2194 1759 
z
M 3341 1997 
L 3341 0 
L 2766 0 
L 2766 531 
Q 2569 213 2275 61 
Q 1981 -91 1556 -91 
Q 1019 -91 701 211 
Q 384 513 384 1019 
Q 384 1609 779 1909 
Q 1175 2209 1959 2209 
L 2766 2209 
L 2766 2266 
Q 2766 2663 2505 2880 
Q 2244 3097 1772 3097 
Q 1472 3097 1187 3025 
Q 903 2953 641 2809 
L 641 3341 
Q 956 3463 1253 3523 
Q 1550 3584 1831 3584 
Q 2591 3584 2966 3190 
Q 3341 2797 3341 1997 
z
" transform="scale(0.015625)"/>
       <path id="DejaVuSans-6e" d="M 3513 2113 
L 3513 0 
L 2938 0 
L 2938 2094 
Q 2938 2591 2744 2837 
Q 2550 3084 2163 3084 
Q 1697 3084 1428 2787 
Q 1159 2491 1159 1978 
L 1159 0 
L 581 0 
L 581 3500 
L 1159 3500 
L 1159 2956 
Q 1366 3272 1645 3428 
Q 1925 3584 2291 3584 
Q 2894 3584 3203 3211 
Q 3513 2838 3513 2113 
z
" transform="scale(0.015625)"/>
       <path id="DejaVuSans-20" transform="scale(0.015625)"/>
       <path id="DejaVuSans-75" d="M 544 1381 
L 544 3500 
L 1119 3500 
L 1119 1403 
Q 1119 906 1312 657 
Q 1506 409 1894 409 
Q 2359 409 2629 706 
Q 2900 1003 2900 1516 
L 2900 3500 
L 3475 3500 
L 3475 0 
L 2900 0 
L 2900 538 
Q 2691 219 2414 64 
Q 2138 -91 1772 -91 
Q 1169 -91 856 284 
Q 544 659 544 1381 
z
M 1991 3584 
L 1991 3584 
z
" transform="scale(0.015625)"/>
       <path id="DejaVuSans-35" d="M 691 4666 
L 3169 4666 
L 3169 4134 
L 1269 4134 
L 1269 2991 
Q 1406 3038 1543 3061 
Q 1681 3084 1819 3084 
Q 2600 3084 3056 2656 
Q 3513 2228 3513 1497 
Q 3513 744 3044 326 
Q 2575 -91 1722 -91 
Q 1428 -91 1123 -41 
Q 819 9 494 109 
L 494 744 
Q 775 591 1075 516 
Q 1375 441 1709 441 
Q 2250 441 2565 725 
Q 2881 1009 2881 1497 
Q 2881 1984 2565 2268 
Q 2250 2553 1709 2553 
Q 1456 2553 1204 2497 
Q 953 2441 691 2322 
L 691 4666 
z
" transform="scale(0.015625)"/>
       <path id="DejaVuSans-6c" d="M 603 4863 
L 1178 4863 
L 1178 0 
L 603 0 
L 603 4863 
z
" transform="scale(0.015625)"/>
       <path id="DejaVuSans-69" d="M 603 3500 
L 1178 3500 
L 1178 0 
L 603 0 
L 603 3500 
z
M 603 4863 
L 1178 4863 
L 1178 4134 
L 603 4134 
L 603 4863 
z
" transform="scale(0.015625)"/>
       <path id="DejaVuSans-6d" d="M 3328 2828 
Q 3544 3216 3844 3400 
Q 4144 3584 4550 3584 
Q 5097 3584 5394 3201 
Q 5691 2819 5691 2113 
L 5691 0 
L 5113 0 
L 5113 2094 
Q 5113 2597 4934 2840 
Q 4756 3084 4391 3084 
Q 3944 3084 3684 2787 
Q 3425 2491 3425 1978 
L 3425 0 
L 2847 0 
L 2847 2094 
Q 2847 2600 2669 2842 
Q 2491 3084 2119 3084 
Q 1678 3084 1418 2786 
Q 1159 2488 1159 1978 
L 1159 0 
L 581 0 
L 581 3500 
L 1159 3500 
L 1159 2956 
Q 1356 3278 1631 3431 
Q 1906 3584 2284 3584 
Q 2666 3584 2933 3390 
Q 3200 3197 3328 2828 
z
" transform="scale(0.015625)"/>
       <path id="DejaVuSans-62" d="M 3116 1747 
Q 3116 2381 2855 2742 
Q 2594 3103 2138 3103 
Q 1681 3103 1420 2742 
Q 1159 2381 1159 1747 
Q 1159 1113 1420 752 
Q 1681 391 2138 391 
Q 2594 391 2855 752 
Q 3116 1113 3116 1747 
z
M 1159 2969 
Q 1341 3281 1617 3432 
Q 1894 3584 2278 3584 
Q 2916 3584 3314 3078 
Q 3713 2572 3713 1747 
Q 3713 922 3314 415 
Q 2916 -91 2278 -91 
Q 1894 -91 1617 61 
Q 1341 213 1159 525 
L 1159 0 
L 581 0 
L 581 4863 
L 1159 4863 
L 1159 2969 
z
" transform="scale(0.015625)"/>
       <path id="DejaVuSans-73" d="M 2834 3397 
L 2834 2853 
Q 2591 2978 2328 3040 
Q 2066 3103 1784 3103 
Q 1356 3103 1142 2972 
Q 928 2841 928 2578 
Q 928 2378 1081 2264 
Q 1234 2150 1697 2047 
L 1894 2003 
Q 2506 1872 2764 1633 
Q 3022 1394 3022 966 
Q 3022 478 2636 193 
Q 2250 -91 1575 -91 
Q 1294 -91 989 -36 
Q 684 19 347 128 
L 347 722 
Q 666 556 975 473 
Q 1284 391 1588 391 
Q 1994 391 2212 530 
Q 2431 669 2431 922 
Q 2431 1156 2273 1281 
Q 2116 1406 1581 1522 
L 1381 1569 
Q 847 1681 609 1914 
Q 372 2147 372 2553 
Q 372 3047 722 3315 
Q 1072 3584 1716 3584 
Q 2034 3584 2315 3537 
Q 2597 3491 2834 3397 
z
" transform="scale(0.015625)"/>
      </defs>
      <use xlink:href="#DejaVuSans-61"/>
      <use xlink:href="#DejaVuSans-6e" transform="translate(61.279297 0)"/>
      <use xlink:href="#DejaVuSans-20" transform="translate(124.658203 0)"/>
      <use xlink:href="#DejaVuSans-75" transform="translate(156.445312 0)"/>
      <use xlink:href="#DejaVuSans-35" transform="translate(219.824219 0)"/>
      <use xlink:href="#DejaVuSans-32" transform="translate(283.447266 0)"/>
      <use xlink:href="#DejaVuSans-20" transform="translate(347.070312 0)"/>
      <use xlink:href="#DejaVuSans-6c" transform="translate(378.857422 0)"/>
      <use xlink:href="#DejaVuSans-69" transform="translate(406.640625 0)"/>
      <use xlink:href="#DejaVuSans-6d" transform="translate(434.423828 0)"/>
      <use xlink:href="#DejaVuSans-62" transform="translate(531.835938 0)"/>
      <use xlink:href="#DejaVuSans-73" transform="translate(595.3125 0)"/>
     </g>
    </g>
   </g>
   <g id="matplotlib.axis_2">
    <g id="ytick_1">
     <g id="line2d_11">
      <path d="M 47.91125 295.396161 
L 498.6 295.396161 
" clip-path="url(#p4798fd99f8)" style="fill: none; stroke: #b0b0b0; stroke-opacity: 0.25; stroke-width: 0.8; stroke-linecap: square"/>
     </g>
     <g id="line2d_12">
      <defs>
       <path id="m2ba880b7b3" d="M 0 0 
L -3.5 0 
" style="stroke: #000000; stroke-width: 0.8"/>
      </defs>
      <g>
       <use xlink:href="#m2ba880b7b3" x="47.91125" y="295.396161" style="stroke: #000000; stroke-width: 0.8"/>
      </g>
     </g>
     <g id="text_7">
      <!-- 0.1 -->
      <g transform="translate(25.008125 299.19538) scale(0.1 -0.1)">
       <defs>
        <path id="DejaVuSans-2e" d="M 684 794 
L 1344 794 
L 1344 0 
L 684 0 
L 684 794 
z
" transform="scale(0.015625)"/>
       </defs>
       <use xlink:href="#DejaVuSans-30"/>
       <use xlink:href="#DejaVuSans-2e" transform="translate(63.623047 0)"/>
       <use xlink:href="#DejaVuSans-31" transform="translate(95.410156 0)"/>
      </g>
     </g>
    </g>
    <g id="ytick_2">
     <g id="line2d_13">
      <path d="M 47.91125 253.528556 
L 498.6 253.528556 
" clip-path="url(#p4798fd99f8)" style="fill: none; stroke: #b0b0b0; stroke-opacity: 0.25; stroke-width: 0.8; stroke-linecap: square"/>
     </g>
     <g id="line2d_14">
      <g>
       <use xlink:href="#m2ba880b7b3" x="47.91125" y="253.528556" style="stroke: #000000; stroke-width: 0.8"/>
      </g>
     </g>
     <g id="text_8">
      <!-- 0.2 -->
      <g transform="translate(25.008125 257.327774) scale(0.1 -0.1)">
       <use xlink:href="#DejaVuSans-30"/>
       <use xlink:href="#DejaVuSans-2e" transform="translate(63.623047 0)"/>
       <use xlink:href="#DejaVuSans-32" transform="translate(95.410156 0)"/>
      </g>
     </g>
    </g>
    <g id="ytick_3">
     <g id="line2d_15">
      <path d="M 47.91125 211.66095 
L 498.6 211.66095 
" clip-path="url(#p4798fd99f8)" style="fill: none; stroke: #b0b0b0; stroke-opacity: 0.25; stroke-width: 0.8; stroke-linecap: square"/>
     </g>
     <g id="line2d_16">
      <g>
       <use xlink:href="#m2ba880b7b3" x="47.91125" y="211.66095" style="stroke: #000000; stroke-width: 0.8"/>
      </g>
     </g>
     <g id="text_9">
      <!-- 0.3 -->
      <g transform="translate(25.008125 215.460169) scale(0.1 -0.1)">
       <defs>
        <path id="DejaVuSans-33" d="M 2597 2516 
Q 3050 2419 3304 2112 
Q 3559 1806 3559 1356 
Q 3559 666 3084 287 
Q 2609 -91 1734 -91 
Q 1441 -91 1130 -33 
Q 819 25 488 141 
L 488 750 
Q 750 597 1062 519 
Q 1375 441 1716 441 
Q 2309 441 2620 675 
Q 2931 909 2931 1356 
Q 2931 1769 2642 2001 
Q 2353 2234 1838 2234 
L 1294 2234 
L 1294 2753 
L 1863 2753 
Q 2328 2753 2575 2939 
Q 2822 3125 2822 3475 
Q 2822 3834 2567 4026 
Q 2313 4219 1838 4219 
Q 1578 4219 1281 4162 
Q 984 4106 628 3988 
L 628 4550 
Q 988 4650 1302 4700 
Q 1616 4750 1894 4750 
Q 2613 4750 3031 4423 
Q 3450 4097 3450 3541 
Q 3450 3153 3228 2886 
Q 3006 2619 2597 2516 
z
" transform="scale(0.015625)"/>
       </defs>
       <use xlink:href="#DejaVuSans-30"/>
       <use xlink:href="#DejaVuSans-2e" transform="translate(63.623047 0)"/>
       <use xlink:href="#DejaVuSans-33" transform="translate(95.410156 0)"/>
      </g>
     </g>
    </g>
    <g id="ytick_4">
     <g id="line2d_17">
      <path d="M 47.91125 169.793345 
L 498.6 169.793345 
" clip-path="url(#p4798fd99f8)" style="fill: none; stroke: #b0b0b0; stroke-opacity: 0.25; stroke-width: 0.8; stroke-linecap: square"/>
     </g>
     <g id="line2d_18">
      <g>
       <use xlink:href="#m2ba880b7b3" x="47.91125" y="169.793345" style="stroke: #000000; stroke-width: 0.8"/>
      </g>
     </g>
     <g id="text_10">
      <!-- 0.4 -->
      <g transform="translate(25.008125 173.592563) scale(0.1 -0.1)">
       <use xlink:href="#DejaVuSans-30"/>
       <use xlink:href="#DejaVuSans-2e" transform="translate(63.623047 0)"/>
       <use xlink:href="#DejaVuSans-34" transform="translate(95.410156 0)"/>
      </g>
     </g>
    </g>
    <g id="ytick_5">
     <g id="line2d_19">
      <path d="M 47.91125 127.925739 
L 498.6 127.925739 
" clip-path="url(#p4798fd99f8)" style="fill: none; stroke: #b0b0b0; stroke-opacity: 0.25; stroke-width: 0.8; stroke-linecap: square"/>
     </g>
     <g id="line2d_20">
      <g>
       <use xlink:href="#m2ba880b7b3" x="47.91125" y="127.925739" style="stroke: #000000; stroke-width: 0.8"/>
      </g>
     </g>
     <g id="text_11">
      <!-- 0.5 -->
      <g transform="translate(25.008125 131.724958) scale(0.1 -0.1)">
       <use xlink:href="#DejaVuSans-30"/>
       <use xlink:href="#DejaVuSans-2e" transform="translate(63.623047 0)"/>
       <use xlink:href="#DejaVuSans-35" transform="translate(95.410156 0)"/>
      </g>
     </g>
    </g>
    <g id="ytick_6">
     <g id="line2d_21">
      <path d="M 47.91125 86.058134 
L 498.6 86.058134 
" clip-path="url(#p4798fd99f8)" style="fill: none; stroke: #b0b0b0; stroke-opacity: 0.25; stroke-width: 0.8; stroke-linecap: square"/>
     </g>
     <g id="line2d_22">
      <g>
       <use xlink:href="#m2ba880b7b3" x="47.91125" y="86.058134" style="stroke: #000000; stroke-width: 0.8"/>
      </g>
     </g>
     <g id="text_12">
      <!-- 0.6 -->
      <g transform="translate(25.008125 89.857353) scale(0.1 -0.1)">
       <use xlink:href="#DejaVuSans-30"/>
       <use xlink:href="#DejaVuSans-2e" transform="translate(63.623047 0)"/>
       <use xlink:href="#DejaVuSans-36" transform="translate(95.410156 0)"/>
      </g>
     </g>
    </g>
    <g id="text_13">
     <!-- total_ns / (an * bn) -->
     <g transform="translate(18.650312 229.697344) rotate(-90) scale(0.1 -0.1)">
      <defs>
       <path id="DejaVuSans-74" d="M 1172 4494 
L 1172 3500 
L 2356 3500 
L 2356 3053 
L 1172 3053 
L 1172 1153 
Q 1172 725 1289 603 
Q 1406 481 1766 481 
L 2356 481 
L 2356 0 
L 1766 0 
Q 1100 0 847 248 
Q 594 497 594 1153 
L 594 3053 
L 172 3053 
L 172 3500 
L 594 3500 
L 594 4494 
L 1172 4494 
z
" transform="scale(0.015625)"/>
       <path id="DejaVuSans-6f" d="M 1959 3097 
Q 1497 3097 1228 2736 
Q 959 2375 959 1747 
Q 959 1119 1226 758 
Q 1494 397 1959 397 
Q 2419 397 2687 759 
Q 2956 1122 2956 1747 
Q 2956 2369 2687 2733 
Q 2419 3097 1959 3097 
z
M 1959 3584 
Q 2709 3584 3137 3096 
Q 3566 2609 3566 1747 
Q 3566 888 3137 398 
Q 2709 -91 1959 -91 
Q 1206 -91 779 398 
Q 353 888 353 1747 
Q 353 2609 779 3096 
Q 1206 3584 1959 3584 
z
" transform="scale(0.015625)"/>
       <path id="DejaVuSans-5f" d="M 3263 -1063 
L 3263 -1509 
L -63 -1509 
L -63 -1063 
L 3263 -1063 
z
" transform="scale(0.015625)"/>
       <path id="DejaVuSans-2f" d="M 1625 4666 
L 2156 4666 
L 531 -594 
L 0 -594 
L 1625 4666 
z
" transform="scale(0.015625)"/>
       <path id="DejaVuSans-28" d="M 1984 4856 
Q 1566 4138 1362 3434 
Q 1159 2731 1159 2009 
Q 1159 1288 1364 580 
Q 1569 -128 1984 -844 
L 1484 -844 
Q 1016 -109 783 600 
Q 550 1309 550 2009 
Q 550 2706 781 3412 
Q 1013 4119 1484 4856 
L 1984 4856 
z
" transform="scale(0.015625)"/>
       <path id="DejaVuSans-2a" d="M 3009 3897 
L 1888 3291 
L 3009 2681 
L 2828 2375 
L 1778 3009 
L 1778 1831 
L 1422 1831 
L 1422 3009 
L 372 2375 
L 191 2681 
L 1313 3291 
L 191 3897 
L 372 4206 
L 1422 3572 
L 1422 4750 
L 1778 4750 
L 1778 3572 
L 2828 4206 
L 3009 3897 
z
" transform="scale(0.015625)"/>
       <path id="DejaVuSans-29" d="M 513 4856 
L 1013 4856 
Q 1481 4119 1714 3412 
Q 1947 2706 1947 2009 
Q 1947 1309 1714 600 
Q 1481 -109 1013 -844 
L 513 -844 
Q 928 -128 1133 580 
Q 1338 1288 1338 2009 
Q 1338 2731 1133 3434 
Q 928 4138 513 4856 
z
" transform="scale(0.015625)"/>
      </defs>
      <use xlink:href="#DejaVuSans-74"/>
      <use xlink:href="#DejaVuSans-6f" transform="translate(39.208984 0)"/>
      <use xlink:href="#DejaVuSans-74" transform="translate(100.390625 0)"/>
      <use xlink:href="#DejaVuSans-61" transform="translate(139.599609 0)"/>
      <use xlink:href="#DejaVuSans-6c" transform="translate(200.878906 0)"/>
      <use xlink:href="#DejaVuSans-5f" transform="translate(228.662109 0)"/>
      <use xlink:href="#DejaVuSans-6e" transform="translate(278.662109 0)"/>
      <use xlink:href="#DejaVuSans-73" transform="translate(342.041016 0)"/>
      <use xlink:href="#DejaVuSans-20" transform="translate(394.140625 0)"/>
      <use xlink:href="#DejaVuSans-2f" transform="translate(425.927734 0)"/>
      <use xlink:href="#DejaVuSans-20" transform="translate(459.619141 0)"/>
      <use xlink:href="#DejaVuSans-28" transform="translate(491.40625 0)"/>
      <use xlink:href="#DejaVuSans-61" transform="translate(530.419922 0)"/>
      <use xlink:href="#DejaVuSans-6e" transform="translate(591.699219 0)"/>
      <use xlink:href="#DejaVuSans-20" transform="translate(655.078125 0)"/>
      <use xlink:href="#DejaVuSans-2a" transform="translate(686.865234 0)"/>
      <use xlink:href="#DejaVuSans-20" transform="translate(736.865234 0)"/>
      <use xlink:href="#DejaVuSans-62" transform="translate(768.652344 0)"/>
      <use xlink:href="#DejaVuSans-6e" transform="translate(832.128906 0)"/>
      <use xlink:href="#DejaVuSans-29" transform="translate(895.507812 0)"/>
     </g>
    </g>
   </g>
   <g id="line2d_23">
    <path d="M 68.397102 60.185057 
L 72.850548 103.756031 
L 77.303995 129.329739 
L 81.757441 150.620661 
L 86.210887 174.644173 
L 90.664333 182.854459 
L 95.117779 191.90543 
L 99.571225 205.078228 
L 104.024671 213.543577 
L 108.478118 178.100171 
L 112.931564 186.574537 
L 117.38501 192.850625 
L 121.838456 198.351346 
L 126.291902 113.893723 
L 130.745348 205.88271 
L 135.198794 211.429408 
L 139.652241 217.853824 
L 144.105687 233.884044 
L 148.559133 237.54107 
L 153.012579 236.846013 
L 157.466025 170.240276 
L 161.919471 242.136259 
L 166.372917 252.378327 
L 170.826364 255.119031 
L 175.27981 258.286578 
L 179.733256 235.743094 
L 184.186702 241.303643 
L 188.640148 244.003519 
L 193.093594 245.144649 
L 197.547041 248.474068 
L 202.000487 251.135862 
L 206.453933 253.076314 
L 210.907379 254.890047 
L 215.360825 261.572334 
L 219.814271 263.830016 
L 224.267717 264.490104 
L 228.721164 265.789407 
L 233.17461 269.658641 
L 237.628056 266.593951 
L 242.081502 268.997921 
L 246.534948 273.967191 
L 250.988394 262.614619 
L 255.44184 262.852862 
L 259.895287 264.674585 
L 264.348733 265.861942 
L 268.802179 267.032583 
L 273.255625 269.458873 
L 277.709071 268.688268 
L 282.162517 270.588664 
L 286.615963 273.434463 
L 291.06941 274.03903 
L 295.522856 278.054457 
L 299.976302 278.981272 
L 304.429748 280.000956 
L 308.883194 277.260373 
L 313.33664 278.708739 
L 317.790086 280.353074 
L 322.243533 272.294322 
L 326.696979 274.650618 
L 331.150425 272.567366 
L 335.603871 274.610682 
L 340.057317 276.226738 
L 344.510763 276.610113 
L 348.964209 279.162255 
L 353.417656 278.243383 
L 357.871102 283.264007 
L 362.324548 283.764268 
L 366.777994 282.29731 
L 371.23144 283.242895 
L 375.684886 286.148218 
L 380.138333 287.100284 
L 384.591779 284.186829 
L 389.045225 285.97356 
L 393.498671 278.173929 
L 397.952117 281.361623 
L 402.405563 281.755098 
L 406.859009 282.811426 
L 411.312456 280.833038 
L 415.765902 284.112257 
L 420.219348 284.434257 
L 424.672794 281.793444 
L 429.12624 279.506582 
L 433.579686 284.819286 
L 438.033132 282.79511 
L 442.486579 282.891793 
L 446.940025 284.431556 
L 451.393471 287.530361 
L 455.846917 290.105424 
L 460.300363 287.902278 
L 464.753809 283.073024 
L 469.207255 285.061252 
L 473.660702 285.194044 
L 478.114148 285.533951 
" clip-path="url(#p4798fd99f8)" style="fill: none; stroke-dasharray: 6.66,2.88; stroke-dashoffset: 0; stroke: #1f77b4; stroke-width: 1.8"/>
   </g>
   <g id="line2d_24">
    <path d="M 68.397102 174.918642 
L 72.850548 173.841484 
L 77.303995 193.495252 
L 81.757441 205.563879 
L 86.210887 220.541556 
L 90.664333 228.629093 
L 95.117779 236.089837 
L 99.571225 243.540464 
L 104.024671 248.383161 
L 108.478118 244.03463 
L 112.931564 249.207763 
L 117.38501 253.635506 
L 121.838456 204.865909 
L 126.291902 258.64196 
L 130.745348 263.02912 
L 135.198794 262.154848 
L 139.652241 268.128084 
L 144.105687 276.595474 
L 148.559133 279.4738 
L 153.012579 261.409783 
L 157.466025 238.933357 
L 161.919471 287.224084 
L 166.372917 288.522968 
L 170.826364 289.293155 
L 175.27981 290.448728 
L 179.733256 282.561195 
L 184.186702 284.084608 
L 188.640148 284.556812 
L 193.093594 286.845443 
L 197.547041 288.208591 
L 202.000487 288.799879 
L 206.453933 290.542308 
L 210.907379 291.844989 
L 215.360825 287.749683 
L 219.814271 289.100468 
L 224.267717 290.313968 
L 228.721164 290.110934 
L 233.17461 292.463287 
L 237.628056 293.879242 
L 242.081502 294.391396 
L 246.534948 296.121271 
L 250.988394 293.014947 
L 255.44184 293.885157 
L 259.895287 294.903382 
L 264.348733 295.588105 
L 268.802179 295.347837 
L 273.255625 297.178121 
L 277.709071 296.036688 
L 282.162517 298.427692 
L 286.615963 302.180762 
L 291.06941 302.536879 
L 295.522856 303.085568 
L 299.976302 303.555498 
L 304.429748 304.055279 
L 308.883194 304.467732 
L 313.33664 304.888617 
L 317.790086 305.761193 
L 322.243533 301.383853 
L 326.696979 301.766181 
L 331.150425 302.382733 
L 335.603871 302.786224 
L 340.057317 303.366216 
L 344.510763 303.770292 
L 348.964209 304.276174 
L 353.417656 304.769882 
L 357.871102 302.527724 
L 362.324548 302.56678 
L 366.777994 303.399826 
L 371.23144 303.814278 
L 375.684886 304.128813 
L 380.138333 304.624961 
L 384.591779 305.172766 
L 389.045225 305.596229 
L 393.498671 299.667769 
L 397.952117 299.890683 
L 402.405563 299.997771 
L 406.859009 299.434637 
L 411.312456 300.981357 
L 415.765902 300.412083 
L 420.219348 302.990618 
L 424.672794 299.984532 
L 429.12624 293.831025 
L 433.579686 295.655121 
L 438.033132 295.222369 
L 442.486579 297.363971 
L 446.940025 298.308549 
L 451.393471 297.342176 
L 455.846917 297.944792 
L 460.300363 300.426396 
L 464.753809 289.282202 
L 469.207255 293.548204 
L 473.660702 292.743755 
L 478.114148 289.479773 
" clip-path="url(#p4798fd99f8)" style="fill: none; stroke: #ff7f0e; stroke-width: 1.8; stroke-linecap: square"/>
   </g>
   <g id="patch_3">
    <path d="M 47.91125 318.04 
L 47.91125 47.90625 
" style="fill: none; stroke: #000000; stroke-width: 0.8; stroke-linejoin: miter; stroke-linecap: square"/>
   </g>
   <g id="patch_4">
    <path d="M 498.6 318.04 
L 498.6 47.90625 
" style="fill: none; stroke: #000000; stroke-width: 0.8; stroke-linejoin: miter; stroke-linecap: square"/>
   </g>
   <g id="patch_5">
    <path d="M 47.91125 318.04 
L 498.6 318.04 
" style="fill: none; stroke: #000000; stroke-width: 0.8; stroke-linejoin: miter; stroke-linecap: square"/>
   </g>
   <g id="patch_6">
    <path d="M 47.91125 47.90625 
L 498.6 47.90625 
" style="fill: none; stroke: #000000; stroke-width: 0.8; stroke-linejoin: miter; stroke-linecap: square"/>
   </g>
   <g id="text_14">
    <!-- bn=1 -->
    <g transform="translate(256.79875 41.90625) scale(0.12 -0.12)">
     <defs>
      <path id="DejaVuSans-3d" d="M 678 2906 
L 4684 2906 
L 4684 2381 
L 678 2381 
L 678 2906 
z
M 678 1631 
L 4684 1631 
L 4684 1100 
L 678 1100 
L 678 1631 
z
" transform="scale(0.015625)"/>
     </defs>
     <use xlink:href="#DejaVuSans-62"/>
     <use xlink:href="#DejaVuSans-6e" transform="translate(63.476562 0)"/>
     <use xlink:href="#DejaVuSans-3d" transform="translate(126.855469 0)"/>
     <use xlink:href="#DejaVuSans-31" transform="translate(210.644531 0)"/>
    </g>
   </g>
   <g id="legend_1">
    <g id="patch_7">
     <path d="M 422.220313 85.2625 
L 491.6 85.2625 
Q 493.6 85.2625 493.6 83.2625 
L 493.6 54.90625 
Q 493.6 52.90625 491.6 52.90625 
L 422.220313 52.90625 
Q 420.220313 52.90625 420.220313 54.90625 
L 420.220313 83.2625 
Q 420.220313 85.2625 422.220313 85.2625 
z
" style="fill: #ffffff; opacity: 0.8; stroke: #cccccc; stroke-linejoin: miter"/>
    </g>
    <g id="line2d_25">
     <path d="M 424.220313 61.004687 
L 434.220313 61.004687 
L 444.220313 61.004687 
" style="fill: none; stroke-dasharray: 6.66,2.88; stroke-dashoffset: 0; stroke: #1f77b4; stroke-width: 1.8"/>
    </g>
    <g id="text_15">
     <!-- generic -->
     <g transform="translate(452.220313 64.504687) scale(0.1 -0.1)">
      <defs>
       <path id="DejaVuSans-67" d="M 2906 1791 
Q 2906 2416 2648 2759 
Q 2391 3103 1925 3103 
Q 1463 3103 1205 2759 
Q 947 2416 947 1791 
Q 947 1169 1205 825 
Q 1463 481 1925 481 
Q 2391 481 2648 825 
Q 2906 1169 2906 1791 
z
M 3481 434 
Q 3481 -459 3084 -895 
Q 2688 -1331 1869 -1331 
Q 1566 -1331 1297 -1286 
Q 1028 -1241 775 -1147 
L 775 -588 
Q 1028 -725 1275 -790 
Q 1522 -856 1778 -856 
Q 2344 -856 2625 -561 
Q 2906 -266 2906 331 
L 2906 616 
Q 2728 306 2450 153 
Q 2172 0 1784 0 
Q 1141 0 747 490 
Q 353 981 353 1791 
Q 353 2603 747 3093 
Q 1141 3584 1784 3584 
Q 2172 3584 2450 3431 
Q 2728 3278 2906 2969 
L 2906 3500 
L 3481 3500 
L 3481 434 
z
" transform="scale(0.015625)"/>
       <path id="DejaVuSans-65" d="M 3597 1894 
L 3597 1613 
L 953 1613 
Q 991 1019 1311 708 
Q 1631 397 2203 397 
Q 2534 397 2845 478 
Q 3156 559 3463 722 
L 3463 178 
Q 3153 47 2828 -22 
Q 2503 -91 2169 -91 
Q 1331 -91 842 396 
Q 353 884 353 1716 
Q 353 2575 817 3079 
Q 1281 3584 2069 3584 
Q 2775 3584 3186 3129 
Q 3597 2675 3597 1894 
z
M 3022 2063 
Q 3016 2534 2758 2815 
Q 2500 3097 2075 3097 
Q 1594 3097 1305 2825 
Q 1016 2553 972 2059 
L 3022 2063 
z
" transform="scale(0.015625)"/>
       <path id="DejaVuSans-72" d="M 2631 2963 
Q 2534 3019 2420 3045 
Q 2306 3072 2169 3072 
Q 1681 3072 1420 2755 
Q 1159 2438 1159 1844 
L 1159 0 
L 581 0 
L 581 3500 
L 1159 3500 
L 1159 2956 
Q 1341 3275 1631 3429 
Q 1922 3584 2338 3584 
Q 2397 3584 2469 3576 
Q 2541 3569 2628 3553 
L 2631 2963 
z
" transform="scale(0.015625)"/>
       <path id="DejaVuSans-63" d="M 3122 3366 
L 3122 2828 
Q 2878 2963 2633 3030 
Q 2388 3097 2138 3097 
Q 1578 3097 1268 2742 
Q 959 2388 959 1747 
Q 959 1106 1268 751 
Q 1578 397 2138 397 
Q 2388 397 2633 464 
Q 2878 531 3122 666 
L 3122 134 
Q 2881 22 2623 -34 
Q 2366 -91 2075 -91 
Q 1284 -91 818 406 
Q 353 903 353 1747 
Q 353 2603 823 3093 
Q 1294 3584 2113 3584 
Q 2378 3584 2631 3529 
Q 2884 3475 3122 3366 
z
" transform="scale(0.015625)"/>
      </defs>
      <use xlink:href="#DejaVuSans-67"/>
      <use xlink:href="#DejaVuSans-65" transform="translate(63.476562 0)"/>
      <use xlink:href="#DejaVuSans-6e" transform="translate(125 0)"/>
      <use xlink:href="#DejaVuSans-65" transform="translate(188.378906 0)"/>
      <use xlink:href="#DejaVuSans-72" transform="translate(249.902344 0)"/>
      <use xlink:href="#DejaVuSans-69" transform="translate(291.015625 0)"/>
      <use xlink:href="#DejaVuSans-63" transform="translate(318.798828 0)"/>
     </g>
    </g>
    <g id="line2d_26">
     <path d="M 424.220313 75.682813 
L 434.220313 75.682813 
L 444.220313 75.682813 
" style="fill: none; stroke: #ff7f0e; stroke-width: 1.8; stroke-linecap: square"/>
    </g>
    <g id="text_16">
     <!-- special -->
     <g transform="translate(452.220313 79.182813) scale(0.1 -0.1)">
      <defs>
       <path id="DejaVuSans-70" d="M 1159 525 
L 1159 -1331 
L 581 -1331 
L 581 3500 
L 1159 3500 
L 1159 2969 
Q 1341 3281 1617 3432 
Q 1894 3584 2278 3584 
Q 2916 3584 3314 3078 
Q 3713 2572 3713 1747 
Q 3713 922 3314 415 
Q 2916 -91 2278 -91 
Q 1894 -91 1617 61 
Q 1341 213 1159 525 
z
M 3116 1747 
Q 3116 2381 2855 2742 
Q 2594 3103 2138 3103 
Q 1681 3103 1420 2742 
Q 1159 2381 1159 1747 
Q 1159 1113 1420 752 
Q 1681 391 2138 391 
Q 2594 391 2855 752 
Q 3116 1113 3116 1747 
z
" transform="scale(0.015625)"/>
      </defs>
      <use xlink:href="#DejaVuSans-73"/>
      <use xlink:href="#DejaVuSans-70" transform="translate(52.099609 0)"/>
      <use xlink:href="#DejaVuSans-65" transform="translate(115.576172 0)"/>
      <use xlink:href="#DejaVuSans-63" transform="translate(177.099609 0)"/>
      <use xlink:href="#DejaVuSans-69" transform="translate(232.080078 0)"/>
      <use xlink:href="#DejaVuSans-61" transform="translate(259.863281 0)"/>
      <use xlink:href="#DejaVuSans-6c" transform="translate(321.142578 0)"/>
     </g>
    </g>
   </g>
  </g>
  <g id="axes_2">
   <g id="patch_8">
    <path d="M 546.51125 318.04 
L 997.2 318.04 
L 997.2 47.90625 
L 546.51125 47.90625 
z
" style="fill: #ffffff"/>
   </g>
   <g id="matplotlib.axis_3">
    <g id="xtick_6">
     <g id="line2d_27">
      <path d="M 620.438456 318.04 
L 620.438456 47.90625 
" clip-path="url(#pdb88c8e1fc)" style="fill: none; stroke: #b0b0b0; stroke-opacity: 0.25; stroke-width: 0.8; stroke-linecap: square"/>
     </g>
     <g id="line2d_28">
      <g>
       <use xlink:href="#ma2c1b4a321" x="620.438456" y="318.04" style="stroke: #000000; stroke-width: 0.8"/>
      </g>
     </g>
     <g id="text_17">
      <!-- 20 -->
      <g transform="translate(614.075956 332.638438) scale(0.1 -0.1)">
       <use xlink:href="#DejaVuSans-32"/>
       <use xlink:href="#DejaVuSans-30" transform="translate(63.623047 0)"/>
      </g>
     </g>
    </g>
    <g id="xtick_7">
     <g id="line2d_29">
      <path d="M 709.507379 318.04 
L 709.507379 47.90625 
" clip-path="url(#pdb88c8e1fc)" style="fill: none; stroke: #b0b0b0; stroke-opacity: 0.25; stroke-width: 0.8; stroke-linecap: square"/>
     </g>
     <g id="line2d_30">
      <g>
       <use xlink:href="#ma2c1b4a321" x="709.507379" y="318.04" style="stroke: #000000; stroke-width: 0.8"/>
      </g>
     </g>
     <g id="text_18">
      <!-- 40 -->
      <g transform="translate(703.144879 332.638438) scale(0.1 -0.1)">
       <use xlink:href="#DejaVuSans-34"/>
       <use xlink:href="#DejaVuSans-30" transform="translate(63.623047 0)"/>
      </g>
     </g>
    </g>
    <g id="xtick_8">
     <g id="line2d_31">
      <path d="M 798.576302 318.04 
L 798.576302 47.90625 
" clip-path="url(#pdb88c8e1fc)" style="fill: none; stroke: #b0b0b0; stroke-opacity: 0.25; stroke-width: 0.8; stroke-linecap: square"/>
     </g>
     <g id="line2d_32">
      <g>
       <use xlink:href="#ma2c1b4a321" x="798.576302" y="318.04" style="stroke: #000000; stroke-width: 0.8"/>
      </g>
     </g>
     <g id="text_19">
      <!-- 60 -->
      <g transform="translate(792.213802 332.638438) scale(0.1 -0.1)">
       <use xlink:href="#DejaVuSans-36"/>
       <use xlink:href="#DejaVuSans-30" transform="translate(63.623047 0)"/>
      </g>
     </g>
    </g>
    <g id="xtick_9">
     <g id="line2d_33">
      <path d="M 887.645225 318.04 
L 887.645225 47.90625 
" clip-path="url(#pdb88c8e1fc)" style="fill: none; stroke: #b0b0b0; stroke-opacity: 0.25; stroke-width: 0.8; stroke-linecap: square"/>
     </g>
     <g id="line2d_34">
      <g>
       <use xlink:href="#ma2c1b4a321" x="887.645225" y="318.04" style="stroke: #000000; stroke-width: 0.8"/>
      </g>
     </g>
     <g id="text_20">
      <!-- 80 -->
      <g transform="translate(881.282725 332.638438) scale(0.1 -0.1)">
       <use xlink:href="#DejaVuSans-38"/>
       <use xlink:href="#DejaVuSans-30" transform="translate(63.623047 0)"/>
      </g>
     </g>
    </g>
    <g id="xtick_10">
     <g id="line2d_35">
      <path d="M 976.714148 318.04 
L 976.714148 47.90625 
" clip-path="url(#pdb88c8e1fc)" style="fill: none; stroke: #b0b0b0; stroke-opacity: 0.25; stroke-width: 0.8; stroke-linecap: square"/>
     </g>
     <g id="line2d_36">
      <g>
       <use xlink:href="#ma2c1b4a321" x="976.714148" y="318.04" style="stroke: #000000; stroke-width: 0.8"/>
      </g>
     </g>
     <g id="text_21">
      <!-- 100 -->
      <g transform="translate(967.170398 332.638438) scale(0.1 -0.1)">
       <use xlink:href="#DejaVuSans-31"/>
       <use xlink:href="#DejaVuSans-30" transform="translate(63.623047 0)"/>
       <use xlink:href="#DejaVuSans-30" transform="translate(127.246094 0)"/>
      </g>
     </g>
    </g>
    <g id="text_22">
     <!-- an u52 limbs -->
     <g transform="translate(739.486094 346.316563) scale(0.1 -0.1)">
      <use xlink:href="#DejaVuSans-61"/>
      <use xlink:href="#DejaVuSans-6e" transform="translate(61.279297 0)"/>
      <use xlink:href="#DejaVuSans-20" transform="translate(124.658203 0)"/>
      <use xlink:href="#DejaVuSans-75" transform="translate(156.445312 0)"/>
      <use xlink:href="#DejaVuSans-35" transform="translate(219.824219 0)"/>
      <use xlink:href="#DejaVuSans-32" transform="translate(283.447266 0)"/>
      <use xlink:href="#DejaVuSans-20" transform="translate(347.070312 0)"/>
      <use xlink:href="#DejaVuSans-6c" transform="translate(378.857422 0)"/>
      <use xlink:href="#DejaVuSans-69" transform="translate(406.640625 0)"/>
      <use xlink:href="#DejaVuSans-6d" transform="translate(434.423828 0)"/>
      <use xlink:href="#DejaVuSans-62" transform="translate(531.835938 0)"/>
      <use xlink:href="#DejaVuSans-73" transform="translate(595.3125 0)"/>
     </g>
    </g>
   </g>
   <g id="matplotlib.axis_4">
    <g id="ytick_7">
     <g id="line2d_37">
      <path d="M 546.51125 283.773419 
L 997.2 283.773419 
" clip-path="url(#pdb88c8e1fc)" style="fill: none; stroke: #b0b0b0; stroke-opacity: 0.25; stroke-width: 0.8; stroke-linecap: square"/>
     </g>
     <g id="line2d_38">
      <g>
       <use xlink:href="#m2ba880b7b3" x="546.51125" y="283.773419" style="stroke: #000000; stroke-width: 0.8"/>
      </g>
     </g>
     <g id="text_23">
      <!-- 0.1 -->
      <g transform="translate(523.608125 287.572638) scale(0.1 -0.1)">
       <use xlink:href="#DejaVuSans-30"/>
       <use xlink:href="#DejaVuSans-2e" transform="translate(63.623047 0)"/>
       <use xlink:href="#DejaVuSans-31" transform="translate(95.410156 0)"/>
      </g>
     </g>
    </g>
    <g id="ytick_8">
     <g id="line2d_39">
      <path d="M 546.51125 237.179553 
L 997.2 237.179553 
" clip-path="url(#pdb88c8e1fc)" style="fill: none; stroke: #b0b0b0; stroke-opacity: 0.25; stroke-width: 0.8; stroke-linecap: square"/>
     </g>
     <g id="line2d_40">
      <g>
       <use xlink:href="#m2ba880b7b3" x="546.51125" y="237.179553" style="stroke: #000000; stroke-width: 0.8"/>
      </g>
     </g>
     <g id="text_24">
      <!-- 0.2 -->
      <g transform="translate(523.608125 240.978772) scale(0.1 -0.1)">
       <use xlink:href="#DejaVuSans-30"/>
       <use xlink:href="#DejaVuSans-2e" transform="translate(63.623047 0)"/>
       <use xlink:href="#DejaVuSans-32" transform="translate(95.410156 0)"/>
      </g>
     </g>
    </g>
    <g id="ytick_9">
     <g id="line2d_41">
      <path d="M 546.51125 190.585688 
L 997.2 190.585688 
" clip-path="url(#pdb88c8e1fc)" style="fill: none; stroke: #b0b0b0; stroke-opacity: 0.25; stroke-width: 0.8; stroke-linecap: square"/>
     </g>
     <g id="line2d_42">
      <g>
       <use xlink:href="#m2ba880b7b3" x="546.51125" y="190.585688" style="stroke: #000000; stroke-width: 0.8"/>
      </g>
     </g>
     <g id="text_25">
      <!-- 0.3 -->
      <g transform="translate(523.608125 194.384907) scale(0.1 -0.1)">
       <use xlink:href="#DejaVuSans-30"/>
       <use xlink:href="#DejaVuSans-2e" transform="translate(63.623047 0)"/>
       <use xlink:href="#DejaVuSans-33" transform="translate(95.410156 0)"/>
      </g>
     </g>
    </g>
    <g id="ytick_10">
     <g id="line2d_43">
      <path d="M 546.51125 143.991822 
L 997.2 143.991822 
" clip-path="url(#pdb88c8e1fc)" style="fill: none; stroke: #b0b0b0; stroke-opacity: 0.25; stroke-width: 0.8; stroke-linecap: square"/>
     </g>
     <g id="line2d_44">
      <g>
       <use xlink:href="#m2ba880b7b3" x="546.51125" y="143.991822" style="stroke: #000000; stroke-width: 0.8"/>
      </g>
     </g>
     <g id="text_26">
      <!-- 0.4 -->
      <g transform="translate(523.608125 147.791041) scale(0.1 -0.1)">
       <use xlink:href="#DejaVuSans-30"/>
       <use xlink:href="#DejaVuSans-2e" transform="translate(63.623047 0)"/>
       <use xlink:href="#DejaVuSans-34" transform="translate(95.410156 0)"/>
      </g>
     </g>
    </g>
    <g id="ytick_11">
     <g id="line2d_45">
      <path d="M 546.51125 97.397957 
L 997.2 97.397957 
" clip-path="url(#pdb88c8e1fc)" style="fill: none; stroke: #b0b0b0; stroke-opacity: 0.25; stroke-width: 0.8; stroke-linecap: square"/>
     </g>
     <g id="line2d_46">
      <g>
       <use xlink:href="#m2ba880b7b3" x="546.51125" y="97.397957" style="stroke: #000000; stroke-width: 0.8"/>
      </g>
     </g>
     <g id="text_27">
      <!-- 0.5 -->
      <g transform="translate(523.608125 101.197175) scale(0.1 -0.1)">
       <use xlink:href="#DejaVuSans-30"/>
       <use xlink:href="#DejaVuSans-2e" transform="translate(63.623047 0)"/>
       <use xlink:href="#DejaVuSans-35" transform="translate(95.410156 0)"/>
      </g>
     </g>
    </g>
    <g id="ytick_12">
     <g id="line2d_47">
      <path d="M 546.51125 50.804091 
L 997.2 50.804091 
" clip-path="url(#pdb88c8e1fc)" style="fill: none; stroke: #b0b0b0; stroke-opacity: 0.25; stroke-width: 0.8; stroke-linecap: square"/>
     </g>
     <g id="line2d_48">
      <g>
       <use xlink:href="#m2ba880b7b3" x="546.51125" y="50.804091" style="stroke: #000000; stroke-width: 0.8"/>
      </g>
     </g>
     <g id="text_28">
      <!-- 0.6 -->
      <g transform="translate(523.608125 54.60331) scale(0.1 -0.1)">
       <use xlink:href="#DejaVuSans-30"/>
       <use xlink:href="#DejaVuSans-2e" transform="translate(63.623047 0)"/>
       <use xlink:href="#DejaVuSans-36" transform="translate(95.410156 0)"/>
      </g>
     </g>
    </g>
    <g id="text_29">
     <!-- total_ns / (an * bn) -->
     <g transform="translate(517.250313 229.697344) rotate(-90) scale(0.1 -0.1)">
      <use xlink:href="#DejaVuSans-74"/>
      <use xlink:href="#DejaVuSans-6f" transform="translate(39.208984 0)"/>
      <use xlink:href="#DejaVuSans-74" transform="translate(100.390625 0)"/>
      <use xlink:href="#DejaVuSans-61" transform="translate(139.599609 0)"/>
      <use xlink:href="#DejaVuSans-6c" transform="translate(200.878906 0)"/>
      <use xlink:href="#DejaVuSans-5f" transform="translate(228.662109 0)"/>
      <use xlink:href="#DejaVuSans-6e" transform="translate(278.662109 0)"/>
      <use xlink:href="#DejaVuSans-73" transform="translate(342.041016 0)"/>
      <use xlink:href="#DejaVuSans-20" transform="translate(394.140625 0)"/>
      <use xlink:href="#DejaVuSans-2f" transform="translate(425.927734 0)"/>
      <use xlink:href="#DejaVuSans-20" transform="translate(459.619141 0)"/>
      <use xlink:href="#DejaVuSans-28" transform="translate(491.40625 0)"/>
      <use xlink:href="#DejaVuSans-61" transform="translate(530.419922 0)"/>
      <use xlink:href="#DejaVuSans-6e" transform="translate(591.699219 0)"/>
      <use xlink:href="#DejaVuSans-20" transform="translate(655.078125 0)"/>
      <use xlink:href="#DejaVuSans-2a" transform="translate(686.865234 0)"/>
      <use xlink:href="#DejaVuSans-20" transform="translate(736.865234 0)"/>
      <use xlink:href="#DejaVuSans-62" transform="translate(768.652344 0)"/>
      <use xlink:href="#DejaVuSans-6e" transform="translate(832.128906 0)"/>
      <use xlink:href="#DejaVuSans-29" transform="translate(895.507812 0)"/>
     </g>
    </g>
   </g>
   <g id="line2d_49">
    <path d="M 566.997102 60.185057 
L 571.450548 192.6652 
L 575.903995 206.611363 
L 580.357441 141.687403 
L 584.810887 227.924602 
L 589.264333 234.262421 
L 593.717779 241.404496 
L 598.171225 247.488804 
L 602.624671 252.933899 
L 607.078118 228.904937 
L 611.531564 232.520194 
L 615.98501 238.268774 
L 620.438456 244.162548 
L 624.891902 246.289938 
L 629.345348 249.400836 
L 633.798794 253.589993 
L 638.252241 256.697574 
L 642.705687 266.446006 
L 647.159133 268.995737 
L 651.612579 270.932461 
L 656.066025 272.142826 
L 660.519471 275.244022 
L 664.972917 277.106449 
L 669.426364 279.562419 
L 673.87981 280.728857 
L 678.333256 267.326453 
L 682.786702 268.444867 
L 687.240148 270.214632 
L 691.693594 271.29719 
L 696.147041 273.362142 
L 700.600487 273.047927 
L 705.053933 276.5028 
L 709.507379 277.569494 
L 713.960825 281.450114 
L 718.414271 283.75059 
L 722.867717 283.810912 
L 727.321164 285.998982 
L 731.77461 287.460864 
L 736.228056 287.809279 
L 740.681502 289.62085 
L 745.134948 290.707262 
L 749.588394 279.122537 
L 754.04184 281.285458 
L 758.495287 283.009193 
L 762.948733 282.653374 
L 767.402179 282.529175 
L 771.855625 283.875371 
L 776.309071 284.374803 
L 780.762517 285.84108 
L 785.215963 288.599271 
L 789.66941 290.721471 
L 794.122856 289.497179 
L 798.576302 288.607197 
L 803.029748 292.337296 
L 807.483194 292.423683 
L 811.93664 292.026716 
L 816.390086 292.451993 
L 820.843533 285.635404 
L 825.296979 287.107862 
L 829.750425 288.515117 
L 834.203871 284.50585 
L 838.657317 286.97105 
L 843.110763 289.390422 
L 847.564209 288.20402 
L 852.017656 290.161324 
L 856.471102 293.487197 
L 860.924548 293.628322 
L 865.377994 291.797571 
L 869.83144 293.590486 
L 874.284886 295.327385 
L 878.738333 294.606532 
L 883.191779 295.164237 
L 887.645225 296.635964 
L 892.098671 289.586128 
L 896.552117 289.722194 
L 901.005563 290.17189 
L 905.459009 291.171891 
L 909.912456 292.918518 
L 914.365902 293.026826 
L 918.819348 293.951006 
L 923.272794 294.503486 
L 927.72624 295.556004 
L 932.179686 295.066729 
L 936.633132 296.051434 
L 941.086579 297.99478 
L 945.540025 298.384355 
L 949.993471 297.26516 
L 954.446917 298.609398 
L 958.900363 298.041765 
L 963.353809 294.810164 
L 967.807255 294.445993 
L 972.260702 294.929441 
L 976.714148 295.186313 
" clip-path="url(#pdb88c8e1fc)" style="fill: none; stroke-dasharray: 6.66,2.88; stroke-dashoffset: 0; stroke: #1f77b4; stroke-width: 1.8"/>
   </g>
   <g id="line2d_50">
    <path d="M 566.997102 241.069334 
L 571.450548 241.502533 
L 575.903995 208.991027 
L 580.357441 257.09266 
L 584.810887 239.440284 
L 589.264333 269.296812 
L 593.717779 272.760809 
L 598.171225 275.635551 
L 602.624671 279.618215 
L 607.078118 268.820719 
L 611.531564 273.798402 
L 615.98501 277.425692 
L 620.438456 280.083146 
L 624.891902 280.764341 
L 629.345348 283.142523 
L 633.798794 285.110466 
L 638.252241 288.126659 
L 642.705687 286.19715 
L 647.159133 287.919631 
L 651.612579 289.45749 
L 656.066025 290.946419 
L 660.519471 292.5428 
L 664.972917 293.778615 
L 669.426364 295.14123 
L 673.87981 296.298928 
L 678.333256 289.024335 
L 682.786702 295.21301 
L 687.240148 295.312693 
L 691.693594 296.396497 
L 696.147041 296.970829 
L 700.600487 298.31524 
L 705.053933 298.95285 
L 709.507379 299.701172 
L 713.960825 297.728926 
L 718.414271 298.534327 
L 722.867717 299.346711 
L 727.321164 300.317559 
L 731.77461 301.165621 
L 736.228056 300.954555 
L 740.681502 302.54105 
L 745.134948 303.088365 
L 749.588394 299.405449 
L 754.04184 302.031325 
L 758.495287 302.182186 
L 762.948733 302.248171 
L 767.402179 303.391645 
L 771.855625 303.611746 
L 776.309071 303.754927 
L 780.762517 304.642588 
L 785.215963 301.727032 
L 789.66941 302.213392 
L 794.122856 302.495672 
L 798.576302 303.389175 
L 803.029748 303.572367 
L 807.483194 304.577904 
L 811.93664 305.003942 
L 816.390086 304.882926 
L 820.843533 302.784918 
L 825.296979 303.246322 
L 829.750425 303.682842 
L 834.203871 303.910845 
L 838.657317 304.246196 
L 843.110763 304.889015 
L 847.564209 305.330843 
L 852.017656 305.761193 
L 856.471102 302.712263 
L 860.924548 303.211348 
L 865.377994 303.465697 
L 869.83144 304.011423 
L 874.284886 304.248005 
L 878.738333 304.944447 
L 883.191779 304.658137 
L 887.645225 305.19321 
L 892.098671 302.100036 
L 896.552117 302.583185 
L 901.005563 302.429508 
L 905.459009 301.417404 
L 909.912456 302.98358 
L 914.365902 303.796938 
L 918.819348 304.199202 
L 923.272794 303.674475 
L 927.72624 301.342661 
L 932.179686 300.532735 
L 936.633132 300.692298 
L 941.086579 302.227229 
L 945.540025 302.59755 
L 949.993471 302.478988 
L 954.446917 303.580837 
L 958.900363 303.609538 
L 963.353809 299.973017 
L 967.807255 299.103935 
L 972.260702 300.840167 
L 976.714148 300.09105 
" clip-path="url(#pdb88c8e1fc)" style="fill: none; stroke: #ff7f0e; stroke-width: 1.8; stroke-linecap: square"/>
   </g>
   <g id="patch_9">
    <path d="M 546.51125 318.04 
L 546.51125 47.90625 
" style="fill: none; stroke: #000000; stroke-width: 0.8; stroke-linejoin: miter; stroke-linecap: square"/>
   </g>
   <g id="patch_10">
    <path d="M 997.2 318.04 
L 997.2 47.90625 
" style="fill: none; stroke: #000000; stroke-width: 0.8; stroke-linejoin: miter; stroke-linecap: square"/>
   </g>
   <g id="patch_11">
    <path d="M 546.51125 318.04 
L 997.2 318.04 
" style="fill: none; stroke: #000000; stroke-width: 0.8; stroke-linejoin: miter; stroke-linecap: square"/>
   </g>
   <g id="patch_12">
    <path d="M 546.51125 47.90625 
L 997.2 47.90625 
" style="fill: none; stroke: #000000; stroke-width: 0.8; stroke-linejoin: miter; stroke-linecap: square"/>
   </g>
   <g id="text_30">
    <!-- bn=2 -->
    <g transform="translate(755.39875 41.90625) scale(0.12 -0.12)">
     <use xlink:href="#DejaVuSans-62"/>
     <use xlink:href="#DejaVuSans-6e" transform="translate(63.476562 0)"/>
     <use xlink:href="#DejaVuSans-3d" transform="translate(126.855469 0)"/>
     <use xlink:href="#DejaVuSans-32" transform="translate(210.644531 0)"/>
    </g>
   </g>
   <g id="legend_2">
    <g id="patch_13">
     <path d="M 920.820313 85.2625 
L 990.2 85.2625 
Q 992.2 85.2625 992.2 83.2625 
L 992.2 54.90625 
Q 992.2 52.90625 990.2 52.90625 
L 920.820313 52.90625 
Q 918.820313 52.90625 918.820313 54.90625 
L 918.820313 83.2625 
Q 918.820313 85.2625 920.820313 85.2625 
z
" style="fill: #ffffff; opacity: 0.8; stroke: #cccccc; stroke-linejoin: miter"/>
    </g>
    <g id="line2d_51">
     <path d="M 922.820313 61.004687 
L 932.820313 61.004687 
L 942.820313 61.004687 
" style="fill: none; stroke-dasharray: 6.66,2.88; stroke-dashoffset: 0; stroke: #1f77b4; stroke-width: 1.8"/>
    </g>
    <g id="text_31">
     <!-- generic -->
     <g transform="translate(950.820313 64.504687) scale(0.1 -0.1)">
      <use xlink:href="#DejaVuSans-67"/>
      <use xlink:href="#DejaVuSans-65" transform="translate(63.476562 0)"/>
      <use xlink:href="#DejaVuSans-6e" transform="translate(125 0)"/>
      <use xlink:href="#DejaVuSans-65" transform="translate(188.378906 0)"/>
      <use xlink:href="#DejaVuSans-72" transform="translate(249.902344 0)"/>
      <use xlink:href="#DejaVuSans-69" transform="translate(291.015625 0)"/>
      <use xlink:href="#DejaVuSans-63" transform="translate(318.798828 0)"/>
     </g>
    </g>
    <g id="line2d_52">
     <path d="M 922.820313 75.682813 
L 932.820313 75.682813 
L 942.820313 75.682813 
" style="fill: none; stroke: #ff7f0e; stroke-width: 1.8; stroke-linecap: square"/>
    </g>
    <g id="text_32">
     <!-- special -->
     <g transform="translate(950.820313 79.182813) scale(0.1 -0.1)">
      <use xlink:href="#DejaVuSans-73"/>
      <use xlink:href="#DejaVuSans-70" transform="translate(52.099609 0)"/>
      <use xlink:href="#DejaVuSans-65" transform="translate(115.576172 0)"/>
      <use xlink:href="#DejaVuSans-63" transform="translate(177.099609 0)"/>
      <use xlink:href="#DejaVuSans-69" transform="translate(232.080078 0)"/>
      <use xlink:href="#DejaVuSans-61" transform="translate(259.863281 0)"/>
      <use xlink:href="#DejaVuSans-6c" transform="translate(321.142578 0)"/>
     </g>
    </g>
   </g>
  </g>
  <g id="text_33">
   <!-- mul_u52_1 generic vs bn=1/2 special cases -->
   <g transform="translate(372.64125 16.318125) scale(0.12 -0.12)">
    <defs>
     <path id="DejaVuSans-76" d="M 191 3500 
L 800 3500 
L 1894 563 
L 2988 3500 
L 3597 3500 
L 2284 0 
L 1503 0 
L 191 3500 
z
" transform="scale(0.015625)"/>
    </defs>
    <use xlink:href="#DejaVuSans-6d"/>
    <use xlink:href="#DejaVuSans-75" transform="translate(97.412109 0)"/>
    <use xlink:href="#DejaVuSans-6c" transform="translate(160.791016 0)"/>
    <use xlink:href="#DejaVuSans-5f" transform="translate(188.574219 0)"/>
    <use xlink:href="#DejaVuSans-75" transform="translate(238.574219 0)"/>
    <use xlink:href="#DejaVuSans-35" transform="translate(301.953125 0)"/>
    <use xlink:href="#DejaVuSans-32" transform="translate(365.576172 0)"/>
    <use xlink:href="#DejaVuSans-5f" transform="translate(429.199219 0)"/>
    <use xlink:href="#DejaVuSans-31" transform="translate(479.199219 0)"/>
    <use xlink:href="#DejaVuSans-20" transform="translate(542.822266 0)"/>
    <use xlink:href="#DejaVuSans-67" transform="translate(574.609375 0)"/>
    <use xlink:href="#DejaVuSans-65" transform="translate(638.085938 0)"/>
    <use xlink:href="#DejaVuSans-6e" transform="translate(699.609375 0)"/>
    <use xlink:href="#DejaVuSans-65" transform="translate(762.988281 0)"/>
    <use xlink:href="#DejaVuSans-72" transform="translate(824.511719 0)"/>
    <use xlink:href="#DejaVuSans-69" transform="translate(865.625 0)"/>
    <use xlink:href="#DejaVuSans-63" transform="translate(893.408203 0)"/>
    <use xlink:href="#DejaVuSans-20" transform="translate(948.388672 0)"/>
    <use xlink:href="#DejaVuSans-76" transform="translate(980.175781 0)"/>
    <use xlink:href="#DejaVuSans-73" transform="translate(1039.355469 0)"/>
    <use xlink:href="#DejaVuSans-20" transform="translate(1091.455078 0)"/>
    <use xlink:href="#DejaVuSans-62" transform="translate(1123.242188 0)"/>
    <use xlink:href="#DejaVuSans-6e" transform="translate(1186.71875 0)"/>
    <use xlink:href="#DejaVuSans-3d" transform="translate(1250.097656 0)"/>
    <use xlink:href="#DejaVuSans-31" transform="translate(1333.886719 0)"/>
    <use xlink:href="#DejaVuSans-2f" transform="translate(1397.509766 0)"/>
    <use xlink:href="#DejaVuSans-32" transform="translate(1431.201172 0)"/>
    <use xlink:href="#DejaVuSans-20" transform="translate(1494.824219 0)"/>
    <use xlink:href="#DejaVuSans-73" transform="translate(1526.611328 0)"/>
    <use xlink:href="#DejaVuSans-70" transform="translate(1578.710938 0)"/>
    <use xlink:href="#DejaVuSans-65" transform="translate(1642.1875 0)"/>
    <use xlink:href="#DejaVuSans-63" transform="translate(1703.710938 0)"/>
    <use xlink:href="#DejaVuSans-69" transform="translate(1758.691406 0)"/>
    <use xlink:href="#DejaVuSans-61" transform="translate(1786.474609 0)"/>
    <use xlink:href="#DejaVuSans-6c" transform="translate(1847.753906 0)"/>
    <use xlink:href="#DejaVuSans-20" transform="translate(1875.537109 0)"/>
    <use xlink:href="#DejaVuSans-63" transform="translate(1907.324219 0)"/>
    <use xlink:href="#DejaVuSans-61" transform="translate(1962.304688 0)"/>
    <use xlink:href="#DejaVuSans-73" transform="translate(2023.583984 0)"/>
    <use xlink:href="#DejaVuSans-65" transform="translate(2075.683594 0)"/>
    <use xlink:href="#DejaVuSans-73" transform="translate(2137.207031 0)"/>
   </g>
  </g>
 </g>
 <defs>
  <clipPath id="p4798fd99f8">
   <rect x="47.91125" y="47.90625" width="450.68875" height="270.13375"/>
  </clipPath>
  <clipPath id="pdb88c8e1fc">
   <rect x="546.51125" y="47.90625" width="450.68875" height="270.13375"/>
  </clipPath>
 </defs>
</svg>
