<?xml version="1.0" encoding="utf-8" standalone="no"?>
<!DOCTYPE svg PUBLIC "-//W3C//DTD SVG 1.1//EN"
  "http://www.w3.org/Graphics/SVG/1.1/DTD/svg11.dtd">
<svg xmlns:xlink="http://www.w3.org/1999/xlink" width="864pt" height="504pt" viewBox="0 0 864 504" xmlns="http://www.w3.org/2000/svg" version="1.1">
 <metadata>
  <rdf:RDF xmlns:dc="http://purl.org/dc/elements/1.1/" xmlns:cc="http://creativecommons.org/ns#" xmlns:rdf="http://www.w3.org/1999/02/22-rdf-syntax-ns#">
   <cc:Work>
    <dc:type rdf:resource="http://purl.org/dc/dcmitype/StillImage"/>
    <dc:date>2026-06-04T10:53:42.059198</dc:date>
    <dc:format>image/svg+xml</dc:format>
    <dc:creator>
     <cc:Agent>
      <dc:title>Matplotlib v3.10.7+dfsg1, https://matplotlib.org/</dc:title>
     </cc:Agent>
    </dc:creator>
   </cc:Work>
  </rdf:RDF>
 </metadata>
 <defs>
  <style type="text/css">*{stroke-linejoin: round; stroke-linecap: butt}</style>
 </defs>
 <g id="figure_1">
  <g id="patch_1">
   <path d="M 0 504 
L 864 504 
L 864 0 
L 0 0 
z
" style="fill: #ffffff"/>
  </g>
  <g id="axes_1">
   <g id="patch_2">
    <path d="M 60.69125 462.04 
L 853.2 462.04 
L 853.2 25.44 
L 60.69125 25.44 
z
" style="fill: #ffffff"/>
   </g>
   <g id="matplotlib.axis_1">
    <g id="xtick_1">
     <g id="line2d_1">
      <path d="M 82.011059 462.04 
L 82.011059 25.44 
" clip-path="url(#pc263c8a704)" style="fill: none; stroke: #b0b0b0; stroke-opacity: 0.25; stroke-width: 0.8; stroke-linecap: square"/>
     </g>
     <g id="line2d_2">
      <defs>
       <path id="mb0b6321406" d="M 0 0 
L 0 3.5 
" style="stroke: #000000; stroke-width: 0.8"/>
      </defs>
      <g>
       <use xlink:href="#mb0b6321406" x="82.011059" y="462.04" style="stroke: #000000; stroke-width: 0.8"/>
      </g>
     </g>
     <g id="text_1">
      <!-- 0 -->
      <g transform="translate(78.829809 476.638438) scale(0.1 -0.1)">
       <defs>
        <path id="DejaVuSans-30" d="M 2034 4250 
Q 1547 4250 1301 3770 
Q 1056 3291 1056 2328 
Q 1056 1369 1301 889 
Q 1547 409 2034 409 
Q 2525 409 2770 889 
Q 3016 1369 3016 2328 
Q 3016 3291 2770 3770 
Q 2525 4250 2034 4250 
z
M 2034 4750 
Q 2819 4750 3233 4129 
Q 3647 3509 3647 2328 
Q 3647 1150 3233 529 
Q 2819 -91 2034 -91 
Q 1250 -91 836 529 
Q 422 1150 422 2328 
Q 422 3509 836 4129 
Q 1250 4750 2034 4750 
z
" transform="scale(0.015625)"/>
       </defs>
       <use xlink:href="#DejaVuSans-30"/>
      </g>
     </g>
    </g>
    <g id="xtick_2">
     <g id="line2d_3">
      <path d="M 173.906786 462.04 
L 173.906786 25.44 
" clip-path="url(#pc263c8a704)" style="fill: none; stroke: #b0b0b0; stroke-opacity: 0.25; stroke-width: 0.8; stroke-linecap: square"/>
     </g>
     <g id="line2d_4">
      <g>
       <use xlink:href="#mb0b6321406" x="173.906786" y="462.04" style="stroke: #000000; stroke-width: 0.8"/>
      </g>
     </g>
     <g id="text_2">
      <!-- 50 -->
      <g transform="translate(167.544286 476.638438) scale(0.1 -0.1)">
       <defs>
        <path id="DejaVuSans-35" d="M 691 4666 
L 3169 4666 
L 3169 4134 
L 1269 4134 
L 1269 2991 
Q 1406 3038 1543 3061 
Q 1681 3084 1819 3084 
Q 2600 3084 3056 2656 
Q 3513 2228 3513 1497 
Q 3513 744 3044 326 
Q 2575 -91 1722 -91 
Q 1428 -91 1123 -41 
Q 819 9 494 109 
L 494 744 
Q 775 591 1075 516 
Q 1375 441 1709 441 
Q 2250 441 2565 725 
Q 2881 1009 2881 1497 
Q 2881 1984 2565 2268 
Q 2250 2553 1709 2553 
Q 1456 2553 1204 2497 
Q 953 2441 691 2322 
L 691 4666 
z
" transform="scale(0.015625)"/>
       </defs>
       <use xlink:href="#DejaVuSans-35"/>
       <use xlink:href="#DejaVuSans-30" transform="translate(63.623047 0)"/>
      </g>
     </g>
    </g>
    <g id="xtick_3">
     <g id="line2d_5">
      <path d="M 265.802513 462.04 
L 265.802513 25.44 
" clip-path="url(#pc263c8a704)" style="fill: none; stroke: #b0b0b0; stroke-opacity: 0.25; stroke-width: 0.8; stroke-linecap: square"/>
     </g>
     <g id="line2d_6">
      <g>
       <use xlink:href="#mb0b6321406" x="265.802513" y="462.04" style="stroke: #000000; stroke-width: 0.8"/>
      </g>
     </g>
     <g id="text_3">
      <!-- 100 -->
      <g transform="translate(256.258763 476.638438) scale(0.1 -0.1)">
       <defs>
        <path id="DejaVuSans-31" d="M 794 531 
L 1825 531 
L 1825 4091 
L 703 3866 
L 703 4441 
L 1819 4666 
L 2450 4666 
L 2450 531 
L 3481 531 
L 3481 0 
L 794 0 
L 794 531 
z
" transform="scale(0.015625)"/>
       </defs>
       <use xlink:href="#DejaVuSans-31"/>
       <use xlink:href="#DejaVuSans-30" transform="translate(63.623047 0)"/>
       <use xlink:href="#DejaVuSans-30" transform="translate(127.246094 0)"/>
      </g>
     </g>
    </g>
    <g id="xtick_4">
     <g id="line2d_7">
      <path d="M 357.69824 462.04 
L 357.69824 25.44 
" clip-path="url(#pc263c8a704)" style="fill: none; stroke: #b0b0b0; stroke-opacity: 0.25; stroke-width: 0.8; stroke-linecap: square"/>
     </g>
     <g id="line2d_8">
      <g>
       <use xlink:href="#mb0b6321406" x="357.69824" y="462.04" style="stroke: #000000; stroke-width: 0.8"/>
      </g>
     </g>
     <g id="text_4">
      <!-- 150 -->
      <g transform="translate(348.15449 476.638438) scale(0.1 -0.1)">
       <use xlink:href="#DejaVuSans-31"/>
       <use xlink:href="#DejaVuSans-35" transform="translate(63.623047 0)"/>
       <use xlink:href="#DejaVuSans-30" transform="translate(127.246094 0)"/>
      </g>
     </g>
    </g>
    <g id="xtick_5">
     <g id="line2d_9">
      <path d="M 449.593967 462.04 
L 449.593967 25.44 
" clip-path="url(#pc263c8a704)" style="fill: none; stroke: #b0b0b0; stroke-opacity: 0.25; stroke-width: 0.8; stroke-linecap: square"/>
     </g>
     <g id="line2d_10">
      <g>
       <use xlink:href="#mb0b6321406" x="449.593967" y="462.04" style="stroke: #000000; stroke-width: 0.8"/>
      </g>
     </g>
     <g id="text_5">
      <!-- 200 -->
      <g transform="translate(440.050217 476.638438) scale(0.1 -0.1)">
       <defs>
        <path id="DejaVuSans-32" d="M 1228 531 
L 3431 531 
L 3431 0 
L 469 0 
L 469 531 
Q 828 903 1448 1529 
Q 2069 2156 2228 2338 
Q 2531 2678 2651 2914 
Q 2772 3150 2772 3378 
Q 2772 3750 2511 3984 
Q 2250 4219 1831 4219 
Q 1534 4219 1204 4116 
Q 875 4013 500 3803 
L 500 4441 
Q 881 4594 1212 4672 
Q 1544 4750 1819 4750 
Q 2544 4750 2975 4387 
Q 3406 4025 3406 3419 
Q 3406 3131 3298 2873 
Q 3191 2616 2906 2266 
Q 2828 2175 2409 1742 
Q 1991 1309 1228 531 
z
" transform="scale(0.015625)"/>
       </defs>
       <use xlink:href="#DejaVuSans-32"/>
       <use xlink:href="#DejaVuSans-30" transform="translate(63.623047 0)"/>
       <use xlink:href="#DejaVuSans-30" transform="translate(127.246094 0)"/>
      </g>
     </g>
    </g>
    <g id="xtick_6">
     <g id="line2d_11">
      <path d="M 541.489694 462.04 
L 541.489694 25.44 
" clip-path="url(#pc263c8a704)" style="fill: none; stroke: #b0b0b0; stroke-opacity: 0.25; stroke-width: 0.8; stroke-linecap: square"/>
     </g>
     <g id="line2d_12">
      <g>
       <use xlink:href="#mb0b6321406" x="541.489694" y="462.04" style="stroke: #000000; stroke-width: 0.8"/>
      </g>
     </g>
     <g id="text_6">
      <!-- 250 -->
      <g transform="translate(531.945944 476.638438) scale(0.1 -0.1)">
       <use xlink:href="#DejaVuSans-32"/>
       <use xlink:href="#DejaVuSans-35" transform="translate(63.623047 0)"/>
       <use xlink:href="#DejaVuSans-30" transform="translate(127.246094 0)"/>
      </g>
     </g>
    </g>
    <g id="xtick_7">
     <g id="line2d_13">
      <path d="M 633.385421 462.04 
L 633.385421 25.44 
" clip-path="url(#pc263c8a704)" style="fill: none; stroke: #b0b0b0; stroke-opacity: 0.25; stroke-width: 0.8; stroke-linecap: square"/>
     </g>
     <g id="line2d_14">
      <g>
       <use xlink:href="#mb0b6321406" x="633.385421" y="462.04" style="stroke: #000000; stroke-width: 0.8"/>
      </g>
     </g>
     <g id="text_7">
      <!-- 300 -->
      <g transform="translate(623.841671 476.638438) scale(0.1 -0.1)">
       <defs>
        <path id="DejaVuSans-33" d="M 2597 2516 
Q 3050 2419 3304 2112 
Q 3559 1806 3559 1356 
Q 3559 666 3084 287 
Q 2609 -91 1734 -91 
Q 1441 -91 1130 -33 
Q 819 25 488 141 
L 488 750 
Q 750 597 1062 519 
Q 1375 441 1716 441 
Q 2309 441 2620 675 
Q 2931 909 2931 1356 
Q 2931 1769 2642 2001 
Q 2353 2234 1838 2234 
L 1294 2234 
L 1294 2753 
L 1863 2753 
Q 2328 2753 2575 2939 
Q 2822 3125 2822 3475 
Q 2822 3834 2567 4026 
Q 2313 4219 1838 4219 
Q 1578 4219 1281 4162 
Q 984 4106 628 3988 
L 628 4550 
Q 988 4650 1302 4700 
Q 1616 4750 1894 4750 
Q 2613 4750 3031 4423 
Q 3450 4097 3450 3541 
Q 3450 3153 3228 2886 
Q 3006 2619 2597 2516 
z
" transform="scale(0.015625)"/>
       </defs>
       <use xlink:href="#DejaVuSans-33"/>
       <use xlink:href="#DejaVuSans-30" transform="translate(63.623047 0)"/>
       <use xlink:href="#DejaVuSans-30" transform="translate(127.246094 0)"/>
      </g>
     </g>
    </g>
    <g id="xtick_8">
     <g id="line2d_15">
      <path d="M 725.281148 462.04 
L 725.281148 25.44 
" clip-path="url(#pc263c8a704)" style="fill: none; stroke: #b0b0b0; stroke-opacity: 0.25; stroke-width: 0.8; stroke-linecap: square"/>
     </g>
     <g id="line2d_16">
      <g>
       <use xlink:href="#mb0b6321406" x="725.281148" y="462.04" style="stroke: #000000; stroke-width: 0.8"/>
      </g>
     </g>
     <g id="text_8">
      <!-- 350 -->
      <g transform="translate(715.737398 476.638438) scale(0.1 -0.1)">
       <use xlink:href="#DejaVuSans-33"/>
       <use xlink:href="#DejaVuSans-35" transform="translate(63.623047 0)"/>
       <use xlink:href="#DejaVuSans-30" transform="translate(127.246094 0)"/>
      </g>
     </g>
    </g>
    <g id="xtick_9">
     <g id="line2d_17">
      <path d="M 817.176875 462.04 
L 817.176875 25.44 
" clip-path="url(#pc263c8a704)" style="fill: none; stroke: #b0b0b0; stroke-opacity: 0.25; stroke-width: 0.8; stroke-linecap: square"/>
     </g>
     <g id="line2d_18">
      <g>
       <use xlink:href="#mb0b6321406" x="817.176875" y="462.04" style="stroke: #000000; stroke-width: 0.8"/>
      </g>
     </g>
     <g id="text_9">
      <!-- 400 -->
      <g transform="translate(807.633125 476.638438) scale(0.1 -0.1)">
       <defs>
        <path id="DejaVuSans-34" d="M 2419 4116 
L 825 1625 
L 2419 1625 
L 2419 4116 
z
M 2253 4666 
L 3047 4666 
L 3047 1625 
L 3713 1625 
L 3713 1100 
L 3047 1100 
L 3047 0 
L 2419 0 
L 2419 1100 
L 313 1100 
L 313 1709 
L 2253 4666 
z
" transform="scale(0.015625)"/>
       </defs>
       <use xlink:href="#DejaVuSans-34"/>
       <use xlink:href="#DejaVuSans-30" transform="translate(63.623047 0)"/>
       <use xlink:href="#DejaVuSans-30" transform="translate(127.246094 0)"/>
      </g>
     </g>
    </g>
    <g id="text_10">
     <!-- an u52 limbs -->
     <g transform="translate(424.576094 490.316563) scale(0.1 -0.1)">
      <defs>
       <path id="DejaVuSans-61" d="M 2194 1759 
Q 1497 1759 1228 1600 
Q 959 1441 959 1056 
Q 959 750 1161 570 
Q 1363 391 1709 391 
Q 2188 391 2477 730 
Q 2766 1069 2766 1631 
L 2766 1759 
L 2194 1759 
z
M 3341 1997 
L 3341 0 
L 2766 0 
L 2766 531 
Q 2569 213 2275 61 
Q 1981 -91 1556 -91 
Q 1019 -91 701 211 
Q 384 513 384 1019 
Q 384 1609 779 1909 
Q 1175 2209 1959 2209 
L 2766 2209 
L 2766 2266 
Q 2766 2663 2505 2880 
Q 2244 3097 1772 3097 
Q 1472 3097 1187 3025 
Q 903 2953 641 2809 
L 641 3341 
Q 956 3463 1253 3523 
Q 1550 3584 1831 3584 
Q 2591 3584 2966 3190 
Q 3341 2797 3341 1997 
z
" transform="scale(0.015625)"/>
       <path id="DejaVuSans-6e" d="M 3513 2113 
L 3513 0 
L 2938 0 
L 2938 2094 
Q 2938 2591 2744 2837 
Q 2550 3084 2163 3084 
Q 1697 3084 1428 2787 
Q 1159 2491 1159 1978 
L 1159 0 
L 581 0 
L 581 3500 
L 1159 3500 
L 1159 2956 
Q 1366 3272 1645 3428 
Q 1925 3584 2291 3584 
Q 2894 3584 3203 3211 
Q 3513 2838 3513 2113 
z
" transform="scale(0.015625)"/>
       <path id="DejaVuSans-20" transform="scale(0.015625)"/>
       <path id="DejaVuSans-75" d="M 544 1381 
L 544 3500 
L 1119 3500 
L 1119 1403 
Q 1119 906 1312 657 
Q 1506 409 1894 409 
Q 2359 409 2629 706 
Q 2900 1003 2900 1516 
L 2900 3500 
L 3475 3500 
L 3475 0 
L 2900 0 
L 2900 538 
Q 2691 219 2414 64 
Q 2138 -91 1772 -91 
Q 1169 -91 856 284 
Q 544 659 544 1381 
z
M 1991 3584 
L 1991 3584 
z
" transform="scale(0.015625)"/>
       <path id="DejaVuSans-6c" d="M 603 4863 
L 1178 4863 
L 1178 0 
L 603 0 
L 603 4863 
z
" transform="scale(0.015625)"/>
       <path id="DejaVuSans-69" d="M 603 3500 
L 1178 3500 
L 1178 0 
L 603 0 
L 603 3500 
z
M 603 4863 
L 1178 4863 
L 1178 4134 
L 603 4134 
L 603 4863 
z
" transform="scale(0.015625)"/>
       <path id="DejaVuSans-6d" d="M 3328 2828 
Q 3544 3216 3844 3400 
Q 4144 3584 4550 3584 
Q 5097 3584 5394 3201 
Q 5691 2819 5691 2113 
L 5691 0 
L 5113 0 
L 5113 2094 
Q 5113 2597 4934 2840 
Q 4756 3084 4391 3084 
Q 3944 3084 3684 2787 
Q 3425 2491 3425 1978 
L 3425 0 
L 2847 0 
L 2847 2094 
Q 2847 2600 2669 2842 
Q 2491 3084 2119 3084 
Q 1678 3084 1418 2786 
Q 1159 2488 1159 1978 
L 1159 0 
L 581 0 
L 581 3500 
L 1159 3500 
L 1159 2956 
Q 1356 3278 1631 3431 
Q 1906 3584 2284 3584 
Q 2666 3584 2933 3390 
Q 3200 3197 3328 2828 
z
" transform="scale(0.015625)"/>
       <path id="DejaVuSans-62" d="M 3116 1747 
Q 3116 2381 2855 2742 
Q 2594 3103 2138 3103 
Q 1681 3103 1420 2742 
Q 1159 2381 1159 1747 
Q 1159 1113 1420 752 
Q 1681 391 2138 391 
Q 2594 391 2855 752 
Q 3116 1113 3116 1747 
z
M 1159 2969 
Q 1341 3281 1617 3432 
Q 1894 3584 2278 3584 
Q 2916 3584 3314 3078 
Q 3713 2572 3713 1747 
Q 3713 922 3314 415 
Q 2916 -91 2278 -91 
Q 1894 -91 1617 61 
Q 1341 213 1159 525 
L 1159 0 
L 581 0 
L 581 4863 
L 1159 4863 
L 1159 2969 
z
" transform="scale(0.015625)"/>
       <path id="DejaVuSans-73" d="M 2834 3397 
L 2834 2853 
Q 2591 2978 2328 3040 
Q 2066 3103 1784 3103 
Q 1356 3103 1142 2972 
Q 928 2841 928 2578 
Q 928 2378 1081 2264 
Q 1234 2150 1697 2047 
L 1894 2003 
Q 2506 1872 2764 1633 
Q 3022 1394 3022 966 
Q 3022 478 2636 193 
Q 2250 -91 1575 -91 
Q 1294 -91 989 -36 
Q 684 19 347 128 
L 347 722 
Q 666 556 975 473 
Q 1284 391 1588 391 
Q 1994 391 2212 530 
Q 2431 669 2431 922 
Q 2431 1156 2273 1281 
Q 2116 1406 1581 1522 
L 1381 1569 
Q 847 1681 609 1914 
Q 372 2147 372 2553 
Q 372 3047 722 3315 
Q 1072 3584 1716 3584 
Q 2034 3584 2315 3537 
Q 2597 3491 2834 3397 
z
" transform="scale(0.015625)"/>
      </defs>
      <use xlink:href="#DejaVuSans-61"/>
      <use xlink:href="#DejaVuSans-6e" transform="translate(61.279297 0)"/>
      <use xlink:href="#DejaVuSans-20" transform="translate(124.658203 0)"/>
      <use xlink:href="#DejaVuSans-75" transform="translate(156.445312 0)"/>
      <use xlink:href="#DejaVuSans-35" transform="translate(219.824219 0)"/>
      <use xlink:href="#DejaVuSans-32" transform="translate(283.447266 0)"/>
      <use xlink:href="#DejaVuSans-20" transform="translate(347.070312 0)"/>
      <use xlink:href="#DejaVuSans-6c" transform="translate(378.857422 0)"/>
      <use xlink:href="#DejaVuSans-69" transform="translate(406.640625 0)"/>
      <use xlink:href="#DejaVuSans-6d" transform="translate(434.423828 0)"/>
      <use xlink:href="#DejaVuSans-62" transform="translate(531.835938 0)"/>
      <use xlink:href="#DejaVuSans-73" transform="translate(595.3125 0)"/>
     </g>
    </g>
   </g>
   <g id="matplotlib.axis_2">
    <g id="ytick_1">
     <g id="line2d_19">
      <path d="M 60.69125 456.23756 
L 853.2 456.23756 
" clip-path="url(#pc263c8a704)" style="fill: none; stroke: #b0b0b0; stroke-opacity: 0.25; stroke-width: 0.8; stroke-linecap: square"/>
     </g>
     <g id="line2d_20">
      <defs>
       <path id="m840fac135c" d="M 0 0 
L -3.5 0 
" style="stroke: #000000; stroke-width: 0.8"/>
      </defs>
      <g>
       <use xlink:href="#m840fac135c" x="60.69125" y="456.23756" style="stroke: #000000; stroke-width: 0.8"/>
      </g>
     </g>
     <g id="text_11">
      <!-- 0.025 -->
      <g transform="translate(25.063125 460.036779) scale(0.1 -0.1)">
       <defs>
        <path id="DejaVuSans-2e" d="M 684 794 
L 1344 794 
L 1344 0 
L 684 0 
L 684 794 
z
" transform="scale(0.015625)"/>
       </defs>
       <use xlink:href="#DejaVuSans-30"/>
       <use xlink:href="#DejaVuSans-2e" transform="translate(63.623047 0)"/>
       <use xlink:href="#DejaVuSans-30" transform="translate(95.410156 0)"/>
       <use xlink:href="#DejaVuSans-32" transform="translate(159.033203 0)"/>
       <use xlink:href="#DejaVuSans-35" transform="translate(222.65625 0)"/>
      </g>
     </g>
    </g>
    <g id="ytick_2">
     <g id="line2d_21">
      <path d="M 60.69125 407.169037 
L 853.2 407.169037 
" clip-path="url(#pc263c8a704)" style="fill: none; stroke: #b0b0b0; stroke-opacity: 0.25; stroke-width: 0.8; stroke-linecap: square"/>
     </g>
     <g id="line2d_22">
      <g>
       <use xlink:href="#m840fac135c" x="60.69125" y="407.169037" style="stroke: #000000; stroke-width: 0.8"/>
      </g>
     </g>
     <g id="text_12">
      <!-- 0.050 -->
      <g transform="translate(25.063125 410.968256) scale(0.1 -0.1)">
       <use xlink:href="#DejaVuSans-30"/>
       <use xlink:href="#DejaVuSans-2e" transform="translate(63.623047 0)"/>
       <use xlink:href="#DejaVuSans-30" transform="translate(95.410156 0)"/>
       <use xlink:href="#DejaVuSans-35" transform="translate(159.033203 0)"/>
       <use xlink:href="#DejaVuSans-30" transform="translate(222.65625 0)"/>
      </g>
     </g>
    </g>
    <g id="ytick_3">
     <g id="line2d_23">
      <path d="M 60.69125 358.100513 
L 853.2 358.100513 
" clip-path="url(#pc263c8a704)" style="fill: none; stroke: #b0b0b0; stroke-opacity: 0.25; stroke-width: 0.8; stroke-linecap: square"/>
     </g>
     <g id="line2d_24">
      <g>
       <use xlink:href="#m840fac135c" x="60.69125" y="358.100513" style="stroke: #000000; stroke-width: 0.8"/>
      </g>
     </g>
     <g id="text_13">
      <!-- 0.075 -->
      <g transform="translate(25.063125 361.899732) scale(0.1 -0.1)">
       <defs>
        <path id="DejaVuSans-37" d="M 525 4666 
L 3525 4666 
L 3525 4397 
L 1831 0 
L 1172 0 
L 2766 4134 
L 525 4134 
L 525 4666 
z
" transform="scale(0.015625)"/>
       </defs>
       <use xlink:href="#DejaVuSans-30"/>
       <use xlink:href="#DejaVuSans-2e" transform="translate(63.623047 0)"/>
       <use xlink:href="#DejaVuSans-30" transform="translate(95.410156 0)"/>
       <use xlink:href="#DejaVuSans-37" transform="translate(159.033203 0)"/>
       <use xlink:href="#DejaVuSans-35" transform="translate(222.65625 0)"/>
      </g>
     </g>
    </g>
    <g id="ytick_4">
     <g id="line2d_25">
      <path d="M 60.69125 309.03199 
L 853.2 309.03199 
" clip-path="url(#pc263c8a704)" style="fill: none; stroke: #b0b0b0; stroke-opacity: 0.25; stroke-width: 0.8; stroke-linecap: square"/>
     </g>
     <g id="line2d_26">
      <g>
       <use xlink:href="#m840fac135c" x="60.69125" y="309.03199" style="stroke: #000000; stroke-width: 0.8"/>
      </g>
     </g>
     <g id="text_14">
      <!-- 0.100 -->
      <g transform="translate(25.063125 312.831208) scale(0.1 -0.1)">
       <use xlink:href="#DejaVuSans-30"/>
       <use xlink:href="#DejaVuSans-2e" transform="translate(63.623047 0)"/>
       <use xlink:href="#DejaVuSans-31" transform="translate(95.410156 0)"/>
       <use xlink:href="#DejaVuSans-30" transform="translate(159.033203 0)"/>
       <use xlink:href="#DejaVuSans-30" transform="translate(222.65625 0)"/>
      </g>
     </g>
    </g>
    <g id="ytick_5">
     <g id="line2d_27">
      <path d="M 60.69125 259.963466 
L 853.2 259.963466 
" clip-path="url(#pc263c8a704)" style="fill: none; stroke: #b0b0b0; stroke-opacity: 0.25; stroke-width: 0.8; stroke-linecap: square"/>
     </g>
     <g id="line2d_28">
      <g>
       <use xlink:href="#m840fac135c" x="60.69125" y="259.963466" style="stroke: #000000; stroke-width: 0.8"/>
      </g>
     </g>
     <g id="text_15">
      <!-- 0.125 -->
      <g transform="translate(25.063125 263.762685) scale(0.1 -0.1)">
       <use xlink:href="#DejaVuSans-30"/>
       <use xlink:href="#DejaVuSans-2e" transform="translate(63.623047 0)"/>
       <use xlink:href="#DejaVuSans-31" transform="translate(95.410156 0)"/>
       <use xlink:href="#DejaVuSans-32" transform="translate(159.033203 0)"/>
       <use xlink:href="#DejaVuSans-35" transform="translate(222.65625 0)"/>
      </g>
     </g>
    </g>
    <g id="ytick_6">
     <g id="line2d_29">
      <path d="M 60.69125 210.894943 
L 853.2 210.894943 
" clip-path="url(#pc263c8a704)" style="fill: none; stroke: #b0b0b0; stroke-opacity: 0.25; stroke-width: 0.8; stroke-linecap: square"/>
     </g>
     <g id="line2d_30">
      <g>
       <use xlink:href="#m840fac135c" x="60.69125" y="210.894943" style="stroke: #000000; stroke-width: 0.8"/>
      </g>
     </g>
     <g id="text_16">
      <!-- 0.150 -->
      <g transform="translate(25.063125 214.694161) scale(0.1 -0.1)">
       <use xlink:href="#DejaVuSans-30"/>
       <use xlink:href="#DejaVuSans-2e" transform="translate(63.623047 0)"/>
       <use xlink:href="#DejaVuSans-31" transform="translate(95.410156 0)"/>
       <use xlink:href="#DejaVuSans-35" transform="translate(159.033203 0)"/>
       <use xlink:href="#DejaVuSans-30" transform="translate(222.65625 0)"/>
      </g>
     </g>
    </g>
    <g id="ytick_7">
     <g id="line2d_31">
      <path d="M 60.69125 161.826419 
L 853.2 161.826419 
" clip-path="url(#pc263c8a704)" style="fill: none; stroke: #b0b0b0; stroke-opacity: 0.25; stroke-width: 0.8; stroke-linecap: square"/>
     </g>
     <g id="line2d_32">
      <g>
       <use xlink:href="#m840fac135c" x="60.69125" y="161.826419" style="stroke: #000000; stroke-width: 0.8"/>
      </g>
     </g>
     <g id="text_17">
      <!-- 0.175 -->
      <g transform="translate(25.063125 165.625638) scale(0.1 -0.1)">
       <use xlink:href="#DejaVuSans-30"/>
       <use xlink:href="#DejaVuSans-2e" transform="translate(63.623047 0)"/>
       <use xlink:href="#DejaVuSans-31" transform="translate(95.410156 0)"/>
       <use xlink:href="#DejaVuSans-37" transform="translate(159.033203 0)"/>
       <use xlink:href="#DejaVuSans-35" transform="translate(222.65625 0)"/>
      </g>
     </g>
    </g>
    <g id="ytick_8">
     <g id="line2d_33">
      <path d="M 60.69125 112.757895 
L 853.2 112.757895 
" clip-path="url(#pc263c8a704)" style="fill: none; stroke: #b0b0b0; stroke-opacity: 0.25; stroke-width: 0.8; stroke-linecap: square"/>
     </g>
     <g id="line2d_34">
      <g>
       <use xlink:href="#m840fac135c" x="60.69125" y="112.757895" style="stroke: #000000; stroke-width: 0.8"/>
      </g>
     </g>
     <g id="text_18">
      <!-- 0.200 -->
      <g transform="translate(25.063125 116.557114) scale(0.1 -0.1)">
       <use xlink:href="#DejaVuSans-30"/>
       <use xlink:href="#DejaVuSans-2e" transform="translate(63.623047 0)"/>
       <use xlink:href="#DejaVuSans-32" transform="translate(95.410156 0)"/>
       <use xlink:href="#DejaVuSans-30" transform="translate(159.033203 0)"/>
       <use xlink:href="#DejaVuSans-30" transform="translate(222.65625 0)"/>
      </g>
     </g>
    </g>
    <g id="ytick_9">
     <g id="line2d_35">
      <path d="M 60.69125 63.689372 
L 853.2 63.689372 
" clip-path="url(#pc263c8a704)" style="fill: none; stroke: #b0b0b0; stroke-opacity: 0.25; stroke-width: 0.8; stroke-linecap: square"/>
     </g>
     <g id="line2d_36">
      <g>
       <use xlink:href="#m840fac135c" x="60.69125" y="63.689372" style="stroke: #000000; stroke-width: 0.8"/>
      </g>
     </g>
     <g id="text_19">
      <!-- 0.225 -->
      <g transform="translate(25.063125 67.48859) scale(0.1 -0.1)">
       <use xlink:href="#DejaVuSans-30"/>
       <use xlink:href="#DejaVuSans-2e" transform="translate(63.623047 0)"/>
       <use xlink:href="#DejaVuSans-32" transform="translate(95.410156 0)"/>
       <use xlink:href="#DejaVuSans-32" transform="translate(159.033203 0)"/>
       <use xlink:href="#DejaVuSans-35" transform="translate(222.65625 0)"/>
      </g>
     </g>
    </g>
    <g id="text_20">
     <!-- total_ns / (an * bn) -->
     <g transform="translate(18.705312 290.464219) rotate(-90) scale(0.1 -0.1)">
      <defs>
       <path id="DejaVuSans-74" d="M 1172 4494 
L 1172 3500 
L 2356 3500 
L 2356 3053 
L 1172 3053 
L 1172 1153 
Q 1172 725 1289 603 
Q 1406 481 1766 481 
L 2356 481 
L 2356 0 
L 1766 0 
Q 1100 0 847 248 
Q 594 497 594 1153 
L 594 3053 
L 172 3053 
L 172 3500 
L 594 3500 
L 594 4494 
L 1172 4494 
z
" transform="scale(0.015625)"/>
       <path id="DejaVuSans-6f" d="M 1959 3097 
Q 1497 3097 1228 2736 
Q 959 2375 959 1747 
Q 959 1119 1226 758 
Q 1494 397 1959 397 
Q 2419 397 2687 759 
Q 2956 1122 2956 1747 
Q 2956 2369 2687 2733 
Q 2419 3097 1959 3097 
z
M 1959 3584 
Q 2709 3584 3137 3096 
Q 3566 2609 3566 1747 
Q 3566 888 3137 398 
Q 2709 -91 1959 -91 
Q 1206 -91 779 398 
Q 353 888 353 1747 
Q 353 2609 779 3096 
Q 1206 3584 1959 3584 
z
" transform="scale(0.015625)"/>
       <path id="DejaVuSans-5f" d="M 3263 -1063 
L 3263 -1509 
L -63 -1509 
L -63 -1063 
L 3263 -1063 
z
" transform="scale(0.015625)"/>
       <path id="DejaVuSans-2f" d="M 1625 4666 
L 2156 4666 
L 531 -594 
L 0 -594 
L 1625 4666 
z
" transform="scale(0.015625)"/>
       <path id="DejaVuSans-28" d="M 1984 4856 
Q 1566 4138 1362 3434 
Q 1159 2731 1159 2009 
Q 1159 1288 1364 580 
Q 1569 -128 1984 -844 
L 1484 -844 
Q 1016 -109 783 600 
Q 550 1309 550 2009 
Q 550 2706 781 3412 
Q 1013 4119 1484 4856 
L 1984 4856 
z
" transform="scale(0.015625)"/>
       <path id="DejaVuSans-2a" d="M 3009 3897 
L 1888 3291 
L 3009 2681 
L 2828 2375 
L 1778 3009 
L 1778 1831 
L 1422 1831 
L 1422 3009 
L 372 2375 
L 191 2681 
L 1313 3291 
L 191 3897 
L 372 4206 
L 1422 3572 
L 1422 4750 
L 1778 4750 
L 1778 3572 
L 2828 4206 
L 3009 3897 
z
" transform="scale(0.015625)"/>
       <path id="DejaVuSans-29" d="M 513 4856 
L 1013 4856 
Q 1481 4119 1714 3412 
Q 1947 2706 1947 2009 
Q 1947 1309 1714 600 
Q 1481 -109 1013 -844 
L 513 -844 
Q 928 -128 1133 580 
Q 1338 1288 1338 2009 
Q 1338 2731 1133 3434 
Q 928 4138 513 4856 
z
" transform="scale(0.015625)"/>
      </defs>
      <use xlink:href="#DejaVuSans-74"/>
      <use xlink:href="#DejaVuSans-6f" transform="translate(39.208984 0)"/>
      <use xlink:href="#DejaVuSans-74" transform="translate(100.390625 0)"/>
      <use xlink:href="#DejaVuSans-61" transform="translate(139.599609 0)"/>
      <use xlink:href="#DejaVuSans-6c" transform="translate(200.878906 0)"/>
      <use xlink:href="#DejaVuSans-5f" transform="translate(228.662109 0)"/>
      <use xlink:href="#DejaVuSans-6e" transform="translate(278.662109 0)"/>
      <use xlink:href="#DejaVuSans-73" transform="translate(342.041016 0)"/>
      <use xlink:href="#DejaVuSans-20" transform="translate(394.140625 0)"/>
      <use xlink:href="#DejaVuSans-2f" transform="translate(425.927734 0)"/>
      <use xlink:href="#DejaVuSans-20" transform="translate(459.619141 0)"/>
      <use xlink:href="#DejaVuSans-28" transform="translate(491.40625 0)"/>
      <use xlink:href="#DejaVuSans-61" transform="translate(530.419922 0)"/>
      <use xlink:href="#DejaVuSans-6e" transform="translate(591.699219 0)"/>
      <use xlink:href="#DejaVuSans-20" transform="translate(655.078125 0)"/>
      <use xlink:href="#DejaVuSans-2a" transform="translate(686.865234 0)"/>
      <use xlink:href="#DejaVuSans-20" transform="translate(736.865234 0)"/>
      <use xlink:href="#DejaVuSans-62" transform="translate(768.652344 0)"/>
      <use xlink:href="#DejaVuSans-6e" transform="translate(832.128906 0)"/>
      <use xlink:href="#DejaVuSans-29" transform="translate(895.507812 0)"/>
     </g>
    </g>
   </g>
   <g id="line2d_37">
    <path d="M 96.714375 45.285455 
L 111.417691 254.780429 
L 126.121008 300.889264 
L 140.824324 335.830242 
L 155.52764 343.551572 
L 170.230957 369.164307 
L 184.934273 374.870784 
L 199.637589 375.285672 
L 214.340906 385.283082 
L 229.044222 391.152437 
L 243.747538 396.484701 
L 258.450855 401.717123 
L 273.154171 403.404765 
L 287.857487 405.03677 
L 302.560804 408.009669 
L 317.26412 417.131056 
L 331.967436 360.16892 
L 346.670753 413.680718 
L 361.374069 411.552874 
L 376.077385 415.016472 
L 390.780702 412.649956 
L 405.484018 413.804809 
L 420.187334 415.723883 
L 434.890651 421.319669 
L 449.593967 417.126204 
L 464.297283 418.54621 
L 479.000599 420.162193 
L 493.703916 421.628551 
L 508.407232 420.18366 
L 523.110548 420.125027 
L 537.813865 420.623597 
L 552.517181 422.638276 
L 567.220497 422.083705 
L 581.923814 423.871165 
L 596.62713 422.38679 
L 611.330446 424.239572 
L 626.033763 423.936794 
L 640.737079 423.392178 
L 655.440395 423.818587 
L 670.143712 424.050886 
L 684.847028 424.164279 
L 699.550344 423.217 
L 714.253661 424.145547 
L 728.956977 425.235818 
L 743.660293 424.105012 
L 758.36361 423.683096 
L 773.066926 424.2205 
L 787.770242 425.993385 
L 802.473559 425.392311 
L 817.176875 425.798112 
" clip-path="url(#pc263c8a704)" style="fill: none; stroke: #1f77b4; stroke-width: 1.6; stroke-linecap: square"/>
   </g>
   <g id="line2d_38">
    <path d="M 96.714375 280.141126 
L 111.417691 343.560532 
L 126.121008 369.333309 
L 140.824324 394.298047 
L 155.52764 400.462102 
L 170.230957 412.781553 
L 184.934273 410.57454 
L 199.637589 420.470609 
L 214.340906 416.506712 
L 229.044222 420.794067 
L 243.747538 421.850402 
L 258.450855 426.457636 
L 273.154171 424.552645 
L 287.857487 426.458335 
L 302.560804 425.96371 
L 317.26412 427.868813 
L 331.967436 427.424461 
L 346.670753 429.117376 
L 361.374069 428.376834 
L 376.077385 430.356485 
L 390.780702 428.691901 
L 405.484018 430.296006 
L 420.187334 429.882642 
L 434.890651 430.985191 
L 449.593967 430.67462 
L 464.297283 431.940598 
L 479.000599 431.432841 
L 493.703916 432.412506 
L 508.407232 431.917251 
L 523.110548 432.785574 
L 537.813865 432.350927 
L 552.517181 432.05122 
L 567.220497 431.648365 
L 581.923814 432.540773 
L 596.62713 431.985623 
L 611.330446 433.00459 
L 626.033763 432.823782 
L 640.737079 433.375263 
L 655.440395 433.045894 
L 670.143712 433.313461 
L 684.847028 432.843847 
L 699.550344 433.707232 
L 714.253661 432.807244 
L 728.956977 433.391199 
L 743.660293 433.020431 
L 758.36361 434.116655 
L 773.066926 433.804317 
L 787.770242 434.256324 
L 802.473559 433.18874 
L 817.176875 433.617387 
" clip-path="url(#pc263c8a704)" style="fill: none; stroke: #ff7f0e; stroke-width: 1.6; stroke-linecap: square"/>
   </g>
   <g id="line2d_39">
    <path d="M 96.714375 294.362048 
L 111.417691 371.347066 
L 126.121008 386.634916 
L 140.824324 420.940962 
L 155.52764 422.696153 
L 170.230957 425.365259 
L 184.934273 426.724471 
L 199.637589 431.887824 
L 214.340906 429.547934 
L 229.044222 431.145015 
L 243.747538 432.62722 
L 258.450855 435.634115 
L 273.154171 436.239256 
L 287.857487 436.31044 
L 302.560804 436.227434 
L 317.26412 437.21071 
L 331.967436 435.896547 
L 346.670753 437.316708 
L 361.374069 437.347201 
L 376.077385 437.819661 
L 390.780702 438.43004 
L 405.484018 438.253762 
L 420.187334 436.817356 
L 434.890651 439.111276 
L 449.593967 438.220749 
L 464.297283 438.838323 
L 479.000599 439.118746 
L 493.703916 439.593517 
L 508.407232 439.381947 
L 523.110548 439.494782 
L 537.813865 439.496738 
L 552.517181 439.916376 
L 567.220497 438.367152 
L 581.923814 439.019467 
L 596.62713 439.296643 
L 611.330446 439.764645 
L 626.033763 439.930618 
L 640.737079 439.898653 
L 655.440395 439.899685 
L 670.143712 439.924176 
L 684.847028 439.463696 
L 699.550344 440.072775 
L 714.253661 439.964463 
L 728.956977 440.253962 
L 743.660293 440.231757 
L 758.36361 440.421806 
L 773.066926 440.34433 
L 787.770242 440.513407 
L 802.473559 439.977904 
L 817.176875 440.281717 
" clip-path="url(#pc263c8a704)" style="fill: none; stroke: #2ca02c; stroke-width: 1.6; stroke-linecap: square"/>
   </g>
   <g id="line2d_40">
    <path d="M 96.714375 329.770511 
L 111.417691 390.413514 
L 126.121008 403.343429 
L 140.824324 425.353533 
L 155.52764 427.708055 
L 170.230957 428.86839 
L 184.934273 430.445239 
L 199.637589 433.55562 
L 214.340906 433.521354 
L 229.044222 434.379217 
L 243.747538 435.080149 
L 258.450855 436.222608 
L 273.154171 435.99009 
L 287.857487 436.366689 
L 302.560804 436.275392 
L 317.26412 437.305966 
L 331.967436 437.205945 
L 346.670753 437.329594 
L 361.374069 437.693712 
L 376.077385 438.168065 
L 390.780702 438.155382 
L 405.484018 438.075879 
L 420.187334 438.049776 
L 434.890651 438.635066 
L 449.593967 438.528357 
L 464.297283 438.672591 
L 479.000599 438.596761 
L 493.703916 438.78141 
L 508.407232 438.937098 
L 523.110548 439.091054 
L 537.813865 439.082989 
L 552.517181 439.411124 
L 567.220497 439.08504 
L 581.923814 439.303726 
L 596.62713 439.203717 
L 611.330446 439.23777 
L 626.033763 439.454286 
L 640.737079 439.497533 
L 655.440395 439.423461 
L 670.143712 439.687462 
L 684.847028 439.348273 
L 699.550344 439.381412 
L 714.253661 439.411171 
L 728.956977 439.500956 
L 743.660293 439.646953 
L 758.36361 437.880663 
L 773.066926 437.164178 
L 787.770242 437.206127 
L 802.473559 437.007649 
L 817.176875 437.138531 
" clip-path="url(#pc263c8a704)" style="fill: none; stroke: #d62728; stroke-width: 1.6; stroke-linecap: square"/>
   </g>
   <g id="line2d_41">
    <path d="M 96.714375 348.096998 
L 111.417691 400.999907 
L 126.121008 403.143732 
L 140.824324 425.345321 
L 155.52764 427.12642 
L 170.230957 428.621411 
L 184.934273 430.373381 
L 199.637589 432.706085 
L 214.340906 432.476038 
L 229.044222 431.685116 
L 243.747538 430.033744 
L 258.450855 435.070862 
L 273.154171 434.890568 
L 287.857487 435.036278 
L 302.560804 435.477634 
L 317.26412 436.294089 
L 331.967436 435.020237 
L 346.670753 436.287814 
L 361.374069 436.580822 
L 376.077385 437.055434 
L 390.780702 437.08261 
L 405.484018 436.982242 
L 420.187334 437.018546 
L 434.890651 437.441105 
L 449.593967 437.434791 
L 464.297283 437.587484 
L 479.000599 437.566442 
L 493.703916 437.852173 
L 508.407232 437.94349 
L 523.110548 437.868085 
L 537.813865 437.909578 
L 552.517181 438.127864 
L 567.220497 437.756425 
L 581.923814 437.774818 
L 596.62713 437.004521 
L 611.330446 438.407305 
L 626.033763 438.339336 
L 640.737079 438.088378 
L 655.440395 438.21765 
L 670.143712 438.477603 
L 684.847028 438.106855 
L 699.550344 438.265866 
L 714.253661 437.632376 
L 728.956977 438.613289 
L 743.660293 438.487837 
L 758.36361 438.678413 
L 773.066926 438.241432 
L 787.770242 438.573881 
L 802.473559 438.555284 
L 817.176875 438.75843 
" clip-path="url(#pc263c8a704)" style="fill: none; stroke: #9467bd; stroke-width: 1.6; stroke-linecap: square"/>
   </g>
   <g id="line2d_42">
    <path d="M 96.714375 377.666799 
L 111.417691 412.500179 
L 126.121008 419.653704 
L 140.824324 427.011757 
L 155.52764 424.986479 
L 170.230957 430.872936 
L 184.934273 432.882878 
L 199.637589 433.478926 
L 214.340906 434.012324 
L 229.044222 434.712575 
L 243.747538 435.354911 
L 258.450855 436.074172 
L 273.154171 436.360339 
L 287.857487 436.587595 
L 302.560804 436.754636 
L 317.26412 436.966161 
L 331.967436 437.299256 
L 346.670753 437.527446 
L 361.374069 437.721412 
L 376.077385 437.630182 
L 390.780702 437.732307 
L 405.484018 437.740892 
L 420.187334 438.258512 
L 434.890651 438.292073 
L 449.593967 438.52569 
L 464.297283 438.732166 
L 479.000599 438.239518 
L 493.703916 438.392803 
L 508.407232 438.443398 
L 523.110548 438.738198 
L 537.813865 438.978214 
L 552.517181 438.953383 
L 567.220497 438.672568 
L 581.923814 438.845978 
L 596.62713 439.242242 
L 611.330446 438.664668 
L 626.033763 439.192333 
L 640.737079 438.537333 
L 655.440395 439.126065 
L 670.143712 439.250723 
L 684.847028 439.413204 
L 699.550344 439.135127 
L 714.253661 439.283463 
L 728.956977 439.01624 
L 743.660293 439.308653 
L 758.36361 438.160695 
L 773.066926 438.122302 
L 787.770242 437.402129 
L 802.473559 438.79655 
L 817.176875 438.395026 
" clip-path="url(#pc263c8a704)" style="fill: none; stroke: #8c564b; stroke-width: 1.6; stroke-linecap: square"/>
   </g>
   <g id="line2d_43">
    <path d="M 96.714375 382.557321 
L 111.417691 404.635397 
L 126.121008 416.084733 
L 140.824324 426.709638 
L 155.52764 432.788716 
L 170.230957 433.921161 
L 184.934273 435.133328 
L 199.637589 435.75764 
L 214.340906 436.130814 
L 229.044222 436.870815 
L 243.747538 437.562942 
L 258.450855 437.937837 
L 273.154171 438.097294 
L 287.857487 438.485146 
L 302.560804 438.832747 
L 317.26412 439.001712 
L 331.967436 439.296714 
L 346.670753 439.363386 
L 361.374069 439.512603 
L 376.077385 439.632191 
L 390.780702 439.809387 
L 405.484018 439.975785 
L 420.187334 440.023314 
L 434.890651 440.13057 
L 449.593967 440.264225 
L 464.297283 440.390486 
L 479.000599 440.365775 
L 493.703916 440.452156 
L 508.407232 440.438805 
L 523.110548 440.51648 
L 537.813865 440.588627 
L 552.517181 440.556157 
L 567.220497 440.67949 
L 581.923814 440.671486 
L 596.62713 440.632478 
L 611.330446 440.875307 
L 626.033763 440.924884 
L 640.737079 440.861454 
L 655.440395 440.983491 
L 670.143712 441.040685 
L 684.847028 440.920061 
L 699.550344 440.946721 
L 714.253661 441.094704 
L 728.956977 441.202091 
L 743.660293 441.117195 
L 758.36361 441.111896 
L 773.066926 441.254703 
L 787.770242 441.261633 
L 802.473559 441.202225 
L 817.176875 441.350891 
" clip-path="url(#pc263c8a704)" style="fill: none; stroke: #e377c2; stroke-width: 1.6; stroke-linecap: square"/>
   </g>
   <g id="line2d_44">
    <path d="M 96.714375 395.923102 
L 111.417691 421.186988 
L 126.121008 427.834234 
L 140.824324 432.951855 
L 155.52764 435.360348 
L 170.230957 436.967527 
L 184.934273 436.841735 
L 199.637589 437.295089 
L 214.340906 438.946303 
L 229.044222 438.375746 
L 243.747538 439.151261 
L 258.450855 439.254024 
L 273.154171 439.519893 
L 287.857487 439.917725 
L 302.560804 440.092228 
L 317.26412 440.289554 
L 331.967436 440.462434 
L 346.670753 440.189998 
L 361.374069 440.620209 
L 376.077385 440.284537 
L 390.780702 440.852398 
L 405.484018 441.031392 
L 420.187334 441.164104 
L 434.890651 440.955269 
L 449.593967 441.172438 
L 464.297283 441.329004 
L 479.000599 441.557715 
L 493.703916 441.159225 
L 508.407232 441.668755 
L 523.110548 441.585515 
L 537.813865 441.288876 
L 552.517181 441.635675 
L 567.220497 441.567181 
L 581.923814 441.693032 
L 596.62713 441.83717 
L 611.330446 441.727562 
L 626.033763 441.994495 
L 640.737079 441.898884 
L 655.440395 441.809538 
L 670.143712 441.938889 
L 684.847028 441.936944 
L 699.550344 442.080553 
L 714.253661 441.844047 
L 728.956977 442.01417 
L 743.660293 442.125773 
L 758.36361 442.051418 
L 773.066926 442.053627 
L 787.770242 442.170149 
L 802.473559 442.193945 
L 817.176875 442.194545 
" clip-path="url(#pc263c8a704)" style="fill: none; stroke: #7f7f7f; stroke-width: 1.6; stroke-linecap: square"/>
   </g>
   <g id="patch_3">
    <path d="M 60.69125 462.04 
L 60.69125 25.44 
" style="fill: none; stroke: #000000; stroke-width: 0.8; stroke-linejoin: miter; stroke-linecap: square"/>
   </g>
   <g id="patch_4">
    <path d="M 853.2 462.04 
L 853.2 25.44 
" style="fill: none; stroke: #000000; stroke-width: 0.8; stroke-linejoin: miter; stroke-linecap: square"/>
   </g>
   <g id="patch_5">
    <path d="M 60.69125 462.04 
L 853.2 462.04 
" style="fill: none; stroke: #000000; stroke-width: 0.8; stroke-linejoin: miter; stroke-linecap: square"/>
   </g>
   <g id="patch_6">
    <path d="M 60.69125 25.44 
L 853.2 25.44 
" style="fill: none; stroke: #000000; stroke-width: 0.8; stroke-linejoin: miter; stroke-linecap: square"/>
   </g>
   <g id="text_21">
    <!-- mul_u52_1 sweep -->
    <g transform="translate(403.244688 19.44) scale(0.12 -0.12)">
     <defs>
      <path id="DejaVuSans-77" d="M 269 3500 
L 844 3500 
L 1563 769 
L 2278 3500 
L 2956 3500 
L 3675 769 
L 4391 3500 
L 4966 3500 
L 4050 0 
L 3372 0 
L 2619 2869 
L 1863 0 
L 1184 0 
L 269 3500 
z
" transform="scale(0.015625)"/>
      <path id="DejaVuSans-65" d="M 3597 1894 
L 3597 1613 
L 953 1613 
Q 991 1019 1311 708 
Q 1631 397 2203 397 
Q 2534 397 2845 478 
Q 3156 559 3463 722 
L 3463 178 
Q 3153 47 2828 -22 
Q 2503 -91 2169 -91 
Q 1331 -91 842 396 
Q 353 884 353 1716 
Q 353 2575 817 3079 
Q 1281 3584 2069 3584 
Q 2775 3584 3186 3129 
Q 3597 2675 3597 1894 
z
M 3022 2063 
Q 3016 2534 2758 2815 
Q 2500 3097 2075 3097 
Q 1594 3097 1305 2825 
Q 1016 2553 972 2059 
L 3022 2063 
z
" transform="scale(0.015625)"/>
      <path id="DejaVuSans-70" d="M 1159 525 
L 1159 -1331 
L 581 -1331 
L 581 3500 
L 1159 3500 
L 1159 2969 
Q 1341 3281 1617 3432 
Q 1894 3584 2278 3584 
Q 2916 3584 3314 3078 
Q 3713 2572 3713 1747 
Q 3713 922 3314 415 
Q 2916 -91 2278 -91 
Q 1894 -91 1617 61 
Q 1341 213 1159 525 
z
M 3116 1747 
Q 3116 2381 2855 2742 
Q 2594 3103 2138 3103 
Q 1681 3103 1420 2742 
Q 1159 2381 1159 1747 
Q 1159 1113 1420 752 
Q 1681 391 2138 391 
Q 2594 391 2855 752 
Q 3116 1113 3116 1747 
z
" transform="scale(0.015625)"/>
     </defs>
     <use xlink:href="#DejaVuSans-6d"/>
     <use xlink:href="#DejaVuSans-75" transform="translate(97.412109 0)"/>
     <use xlink:href="#DejaVuSans-6c" transform="translate(160.791016 0)"/>
     <use xlink:href="#DejaVuSans-5f" transform="translate(188.574219 0)"/>
     <use xlink:href="#DejaVuSans-75" transform="translate(238.574219 0)"/>
     <use xlink:href="#DejaVuSans-35" transform="translate(301.953125 0)"/>
     <use xlink:href="#DejaVuSans-32" transform="translate(365.576172 0)"/>
     <use xlink:href="#DejaVuSans-5f" transform="translate(429.199219 0)"/>
     <use xlink:href="#DejaVuSans-31" transform="translate(479.199219 0)"/>
     <use xlink:href="#DejaVuSans-20" transform="translate(542.822266 0)"/>
     <use xlink:href="#DejaVuSans-73" transform="translate(574.609375 0)"/>
     <use xlink:href="#DejaVuSans-77" transform="translate(626.708984 0)"/>
     <use xlink:href="#DejaVuSans-65" transform="translate(708.496094 0)"/>
     <use xlink:href="#DejaVuSans-65" transform="translate(770.019531 0)"/>
     <use xlink:href="#DejaVuSans-70" transform="translate(831.542969 0)"/>
    </g>
   </g>
   <g id="legend_1">
    <g id="patch_7">
     <path d="M 589.75875 59.060625 
L 846.9 59.060625 
Q 848.7 59.060625 848.7 57.260625 
L 848.7 31.74 
Q 848.7 29.94 846.9 29.94 
L 589.75875 29.94 
Q 587.95875 29.94 587.95875 31.74 
L 587.95875 57.260625 
Q 587.95875 59.060625 589.75875 59.060625 
z
" style="fill: #ffffff; opacity: 0.8; stroke: #cccccc; stroke-linejoin: miter"/>
    </g>
    <g id="line2d_45">
     <path d="M 591.55875 37.228594 
L 600.55875 37.228594 
L 609.55875 37.228594 
" style="fill: none; stroke: #1f77b4; stroke-width: 1.6; stroke-linecap: square"/>
    </g>
    <g id="text_22">
     <!-- bn=1 -->
     <g transform="translate(616.75875 40.378594) scale(0.09 -0.09)">
      <defs>
       <path id="DejaVuSans-3d" d="M 678 2906 
L 4684 2906 
L 4684 2381 
L 678 2381 
L 678 2906 
z
M 678 1631 
L 4684 1631 
L 4684 1100 
L 678 1100 
L 678 1631 
z
" transform="scale(0.015625)"/>
      </defs>
      <use xlink:href="#DejaVuSans-62"/>
      <use xlink:href="#DejaVuSans-6e" transform="translate(63.476562 0)"/>
      <use xlink:href="#DejaVuSans-3d" transform="translate(126.855469 0)"/>
      <use xlink:href="#DejaVuSans-31" transform="translate(210.644531 0)"/>
     </g>
    </g>
    <g id="line2d_46">
     <path d="M 591.55875 50.438906 
L 600.55875 50.438906 
L 609.55875 50.438906 
" style="fill: none; stroke: #ff7f0e; stroke-width: 1.6; stroke-linecap: square"/>
    </g>
    <g id="text_23">
     <!-- bn=2 -->
     <g transform="translate(616.75875 53.588906) scale(0.09 -0.09)">
      <use xlink:href="#DejaVuSans-62"/>
      <use xlink:href="#DejaVuSans-6e" transform="translate(63.476562 0)"/>
      <use xlink:href="#DejaVuSans-3d" transform="translate(126.855469 0)"/>
      <use xlink:href="#DejaVuSans-32" transform="translate(210.644531 0)"/>
     </g>
    </g>
    <g id="line2d_47">
     <path d="M 659.444062 37.228594 
L 668.444062 37.228594 
L 677.444062 37.228594 
" style="fill: none; stroke: #2ca02c; stroke-width: 1.6; stroke-linecap: square"/>
    </g>
    <g id="text_24">
     <!-- bn=3 -->
     <g transform="translate(684.644063 40.378594) scale(0.09 -0.09)">
      <use xlink:href="#DejaVuSans-62"/>
      <use xlink:href="#DejaVuSans-6e" transform="translate(63.476562 0)"/>
      <use xlink:href="#DejaVuSans-3d" transform="translate(126.855469 0)"/>
      <use xlink:href="#DejaVuSans-33" transform="translate(210.644531 0)"/>
     </g>
    </g>
    <g id="line2d_48">
     <path d="M 659.444062 50.438906 
L 668.444062 50.438906 
L 677.444062 50.438906 
" style="fill: none; stroke: #d62728; stroke-width: 1.6; stroke-linecap: square"/>
    </g>
    <g id="text_25">
     <!-- bn=4 -->
     <g transform="translate(684.644063 53.588906) scale(0.09 -0.09)">
      <use xlink:href="#DejaVuSans-62"/>
      <use xlink:href="#DejaVuSans-6e" transform="translate(63.476562 0)"/>
      <use xlink:href="#DejaVuSans-3d" transform="translate(126.855469 0)"/>
      <use xlink:href="#DejaVuSans-34" transform="translate(210.644531 0)"/>
     </g>
    </g>
    <g id="line2d_49">
     <path d="M 727.329375 37.228594 
L 736.329375 37.228594 
L 745.329375 37.228594 
" style="fill: none; stroke: #9467bd; stroke-width: 1.6; stroke-linecap: square"/>
    </g>
    <g id="text_26">
     <!-- bn=5 -->
     <g transform="translate(752.529375 40.378594) scale(0.09 -0.09)">
      <use xlink:href="#DejaVuSans-62"/>
      <use xlink:href="#DejaVuSans-6e" transform="translate(63.476562 0)"/>
      <use xlink:href="#DejaVuSans-3d" transform="translate(126.855469 0)"/>
      <use xlink:href="#DejaVuSans-35" transform="translate(210.644531 0)"/>
     </g>
    </g>
    <g id="line2d_50">
     <path d="M 727.329375 50.438906 
L 736.329375 50.438906 
L 745.329375 50.438906 
" style="fill: none; stroke: #8c564b; stroke-width: 1.6; stroke-linecap: square"/>
    </g>
    <g id="text_27">
     <!-- bn=6 -->
     <g transform="translate(752.529375 53.588906) scale(0.09 -0.09)">
      <defs>
       <path id="DejaVuSans-36" d="M 2113 2584 
Q 1688 2584 1439 2293 
Q 1191 2003 1191 1497 
Q 1191 994 1439 701 
Q 1688 409 2113 409 
Q 2538 409 2786 701 
Q 3034 994 3034 1497 
Q 3034 2003 2786 2293 
Q 2538 2584 2113 2584 
z
M 3366 4563 
L 3366 3988 
Q 3128 4100 2886 4159 
Q 2644 4219 2406 4219 
Q 1781 4219 1451 3797 
Q 1122 3375 1075 2522 
Q 1259 2794 1537 2939 
Q 1816 3084 2150 3084 
Q 2853 3084 3261 2657 
Q 3669 2231 3669 1497 
Q 3669 778 3244 343 
Q 2819 -91 2113 -91 
Q 1303 -91 875 529 
Q 447 1150 447 2328 
Q 447 3434 972 4092 
Q 1497 4750 2381 4750 
Q 2619 4750 2861 4703 
Q 3103 4656 3366 4563 
z
" transform="scale(0.015625)"/>
      </defs>
      <use xlink:href="#DejaVuSans-62"/>
      <use xlink:href="#DejaVuSans-6e" transform="translate(63.476562 0)"/>
      <use xlink:href="#DejaVuSans-3d" transform="translate(126.855469 0)"/>
      <use xlink:href="#DejaVuSans-36" transform="translate(210.644531 0)"/>
     </g>
    </g>
    <g id="line2d_51">
     <path d="M 795.214688 37.228594 
L 804.214688 37.228594 
L 813.214688 37.228594 
" style="fill: none; stroke: #e377c2; stroke-width: 1.6; stroke-linecap: square"/>
    </g>
    <g id="text_28">
     <!-- bn=7 -->
     <g transform="translate(820.414688 40.378594) scale(0.09 -0.09)">
      <use xlink:href="#DejaVuSans-62"/>
      <use xlink:href="#DejaVuSans-6e" transform="translate(63.476562 0)"/>
      <use xlink:href="#DejaVuSans-3d" transform="translate(126.855469 0)"/>
      <use xlink:href="#DejaVuSans-37" transform="translate(210.644531 0)"/>
     </g>
    </g>
    <g id="line2d_52">
     <path d="M 795.214688 50.438906 
L 804.214688 50.438906 
L 813.214688 50.438906 
" style="fill: none; stroke: #7f7f7f; stroke-width: 1.6; stroke-linecap: square"/>
    </g>
    <g id="text_29">
     <!-- bn=8 -->
     <g transform="translate(820.414688 53.588906) scale(0.09 -0.09)">
      <defs>
       <path id="DejaVuSans-38" d="M 2034 2216 
Q 1584 2216 1326 1975 
Q 1069 1734 1069 1313 
Q 1069 891 1326 650 
Q 1584 409 2034 409 
Q 2484 409 2743 651 
Q 3003 894 3003 1313 
Q 3003 1734 2745 1975 
Q 2488 2216 2034 2216 
z
M 1403 2484 
Q 997 2584 770 2862 
Q 544 3141 544 3541 
Q 544 4100 942 4425 
Q 1341 4750 2034 4750 
Q 2731 4750 3128 4425 
Q 3525 4100 3525 3541 
Q 3525 3141 3298 2862 
Q 3072 2584 2669 2484 
Q 3125 2378 3379 2068 
Q 3634 1759 3634 1313 
Q 3634 634 3220 271 
Q 2806 -91 2034 -91 
Q 1263 -91 848 271 
Q 434 634 434 1313 
Q 434 1759 690 2068 
Q 947 2378 1403 2484 
z
M 1172 3481 
Q 1172 3119 1398 2916 
Q 1625 2713 2034 2713 
Q 2441 2713 2670 2916 
Q 2900 3119 2900 3481 
Q 2900 3844 2670 4047 
Q 2441 4250 2034 4250 
Q 1625 4250 1398 4047 
Q 1172 3844 1172 3481 
z
" transform="scale(0.015625)"/>
      </defs>
      <use xlink:href="#DejaVuSans-62"/>
      <use xlink:href="#DejaVuSans-6e" transform="translate(63.476562 0)"/>
      <use xlink:href="#DejaVuSans-3d" transform="translate(126.855469 0)"/>
      <use xlink:href="#DejaVuSans-38" transform="translate(210.644531 0)"/>
     </g>
    </g>
   </g>
  </g>
 </g>
 <defs>
  <clipPath id="pc263c8a704">
   <rect x="60.69125" y="25.44" width="792.50875" height="436.6"/>
  </clipPath>
 </defs>
</svg>
