<?xml version="1.0" encoding="utf-8" standalone="no"?>
<!DOCTYPE svg PUBLIC "-//W3C//DTD SVG 1.1//EN"
  "http://www.w3.org/Graphics/SVG/1.1/DTD/svg11.dtd">
<svg xmlns:xlink="http://www.w3.org/1999/xlink" width="792pt" height="432pt" viewBox="0 0 792 432" xmlns="http://www.w3.org/2000/svg" version="1.1">
 <metadata>
  <rdf:RDF xmlns:dc="http://purl.org/dc/elements/1.1/" xmlns:cc="http://creativecommons.org/ns#" xmlns:rdf="http://www.w3.org/1999/02/22-rdf-syntax-ns#">
   <cc:Work>
    <dc:type rdf:resource="http://purl.org/dc/dcmitype/StillImage"/>
    <dc:date>2026-06-13T04:58:57.576698</dc:date>
    <dc:format>image/svg+xml</dc:format>
    <dc:creator>
     <cc:Agent>
      <dc:title>Matplotlib v3.10.7+dfsg1, https://matplotlib.org/</dc:title>
     </cc:Agent>
    </dc:creator>
   </cc:Work>
  </rdf:RDF>
 </metadata>
 <defs>
  <style type="text/css">*{stroke-linejoin: round; stroke-linecap: butt}</style>
 </defs>
 <g id="figure_1">
  <g id="patch_1">
   <path d="M 0 432 
L 792 432 
L 792 0 
L 0 0 
z
" style="fill: #ffffff"/>
  </g>
  <g id="axes_1">
   <g id="patch_2">
    <path d="M 44.66 386.728 
L 781.2 386.728 
L 781.2 25.44 
L 44.66 25.44 
z
" style="fill: #ffffff"/>
   </g>
   <g id="matplotlib.axis_1">
    <g id="xtick_1">
     <g id="line2d_1">
      <path d="M 145.518396 386.728 
L 145.518396 25.44 
" clip-path="url(#p0b3b02cdd5)" style="fill: none; stroke: #b0b0b0; stroke-opacity: 0.25; stroke-width: 0.8; stroke-linecap: square"/>
     </g>
     <g id="line2d_2">
      <defs>
       <path id="md85a196cd6" d="M 0 0 
L 0 3.5 
" style="stroke: #000000; stroke-width: 0.8"/>
      </defs>
      <g>
       <use xlink:href="#md85a196cd6" x="145.518396" y="386.728" style="stroke: #000000; stroke-width: 0.8"/>
      </g>
     </g>
     <g id="text_1">
      <!-- $\mathdefault{2^{12}}$ -->
      <g transform="translate(137.668396 401.326437) scale(0.1 -0.1)">
       <defs>
        <path id="DejaVuSans-32" d="M 1228 531 
L 3431 531 
L 3431 0 
L 469 0 
L 469 531 
Q 828 903 1448 1529 
Q 2069 2156 2228 2338 
Q 2531 2678 2651 2914 
Q 2772 3150 2772 3378 
Q 2772 3750 2511 3984 
Q 2250 4219 1831 4219 
Q 1534 4219 1204 4116 
Q 875 4013 500 3803 
L 500 4441 
Q 881 4594 1212 4672 
Q 1544 4750 1819 4750 
Q 2544 4750 2975 4387 
Q 3406 4025 3406 3419 
Q 3406 3131 3298 2873 
Q 3191 2616 2906 2266 
Q 2828 2175 2409 1742 
Q 1991 1309 1228 531 
z
" transform="scale(0.015625)"/>
        <path id="DejaVuSans-31" d="M 794 531 
L 1825 531 
L 1825 4091 
L 703 3866 
L 703 4441 
L 1819 4666 
L 2450 4666 
L 2450 531 
L 3481 531 
L 3481 0 
L 794 0 
L 794 531 
z
" transform="scale(0.015625)"/>
       </defs>
       <use xlink:href="#DejaVuSans-32" transform="translate(0 0.765625)"/>
       <use xlink:href="#DejaVuSans-31" transform="translate(64.580078 39.046875) scale(0.7)"/>
       <use xlink:href="#DejaVuSans-32" transform="translate(109.116211 39.046875) scale(0.7)"/>
      </g>
     </g>
    </g>
    <g id="xtick_2">
     <g id="line2d_3">
      <path d="M 280.277008 386.728 
L 280.277008 25.44 
" clip-path="url(#p0b3b02cdd5)" style="fill: none; stroke: #b0b0b0; stroke-opacity: 0.25; stroke-width: 0.8; stroke-linecap: square"/>
     </g>
     <g id="line2d_4">
      <g>
       <use xlink:href="#md85a196cd6" x="280.277008" y="386.728" style="stroke: #000000; stroke-width: 0.8"/>
      </g>
     </g>
     <g id="text_2">
      <!-- $\mathdefault{2^{14}}$ -->
      <g transform="translate(272.427008 401.326437) scale(0.1 -0.1)">
       <defs>
        <path id="DejaVuSans-34" d="M 2419 4116 
L 825 1625 
L 2419 1625 
L 2419 4116 
z
M 2253 4666 
L 3047 4666 
L 3047 1625 
L 3713 1625 
L 3713 1100 
L 3047 1100 
L 3047 0 
L 2419 0 
L 2419 1100 
L 313 1100 
L 313 1709 
L 2253 4666 
z
" transform="scale(0.015625)"/>
       </defs>
       <use xlink:href="#DejaVuSans-32" transform="translate(0 0.684375)"/>
       <use xlink:href="#DejaVuSans-31" transform="translate(64.580078 38.965625) scale(0.7)"/>
       <use xlink:href="#DejaVuSans-34" transform="translate(109.116211 38.965625) scale(0.7)"/>
      </g>
     </g>
    </g>
    <g id="xtick_3">
     <g id="line2d_5">
      <path d="M 415.035619 386.728 
L 415.035619 25.44 
" clip-path="url(#p0b3b02cdd5)" style="fill: none; stroke: #b0b0b0; stroke-opacity: 0.25; stroke-width: 0.8; stroke-linecap: square"/>
     </g>
     <g id="line2d_6">
      <g>
       <use xlink:href="#md85a196cd6" x="415.035619" y="386.728" style="stroke: #000000; stroke-width: 0.8"/>
      </g>
     </g>
     <g id="text_3">
      <!-- $\mathdefault{2^{16}}$ -->
      <g transform="translate(407.185619 401.326437) scale(0.1 -0.1)">
       <defs>
        <path id="DejaVuSans-36" d="M 2113 2584 
Q 1688 2584 1439 2293 
Q 1191 2003 1191 1497 
Q 1191 994 1439 701 
Q 1688 409 2113 409 
Q 2538 409 2786 701 
Q 3034 994 3034 1497 
Q 3034 2003 2786 2293 
Q 2538 2584 2113 2584 
z
M 3366 4563 
L 3366 3988 
Q 3128 4100 2886 4159 
Q 2644 4219 2406 4219 
Q 1781 4219 1451 3797 
Q 1122 3375 1075 2522 
Q 1259 2794 1537 2939 
Q 1816 3084 2150 3084 
Q 2853 3084 3261 2657 
Q 3669 2231 3669 1497 
Q 3669 778 3244 343 
Q 2819 -91 2113 -91 
Q 1303 -91 875 529 
Q 447 1150 447 2328 
Q 447 3434 972 4092 
Q 1497 4750 2381 4750 
Q 2619 4750 2861 4703 
Q 3103 4656 3366 4563 
z
" transform="scale(0.015625)"/>
       </defs>
       <use xlink:href="#DejaVuSans-32" transform="translate(0 0.765625)"/>
       <use xlink:href="#DejaVuSans-31" transform="translate(64.580078 39.046875) scale(0.7)"/>
       <use xlink:href="#DejaVuSans-36" transform="translate(109.116211 39.046875) scale(0.7)"/>
      </g>
     </g>
    </g>
    <g id="xtick_4">
     <g id="line2d_7">
      <path d="M 549.79423 386.728 
L 549.79423 25.44 
" clip-path="url(#p0b3b02cdd5)" style="fill: none; stroke: #b0b0b0; stroke-opacity: 0.25; stroke-width: 0.8; stroke-linecap: square"/>
     </g>
     <g id="line2d_8">
      <g>
       <use xlink:href="#md85a196cd6" x="549.79423" y="386.728" style="stroke: #000000; stroke-width: 0.8"/>
      </g>
     </g>
     <g id="text_4">
      <!-- $\mathdefault{2^{18}}$ -->
      <g transform="translate(541.94423 401.326437) scale(0.1 -0.1)">
       <defs>
        <path id="DejaVuSans-38" d="M 2034 2216 
Q 1584 2216 1326 1975 
Q 1069 1734 1069 1313 
Q 1069 891 1326 650 
Q 1584 409 2034 409 
Q 2484 409 2743 651 
Q 3003 894 3003 1313 
Q 3003 1734 2745 1975 
Q 2488 2216 2034 2216 
z
M 1403 2484 
Q 997 2584 770 2862 
Q 544 3141 544 3541 
Q 544 4100 942 4425 
Q 1341 4750 2034 4750 
Q 2731 4750 3128 4425 
Q 3525 4100 3525 3541 
Q 3525 3141 3298 2862 
Q 3072 2584 2669 2484 
Q 3125 2378 3379 2068 
Q 3634 1759 3634 1313 
Q 3634 634 3220 271 
Q 2806 -91 2034 -91 
Q 1263 -91 848 271 
Q 434 634 434 1313 
Q 434 1759 690 2068 
Q 947 2378 1403 2484 
z
M 1172 3481 
Q 1172 3119 1398 2916 
Q 1625 2713 2034 2713 
Q 2441 2713 2670 2916 
Q 2900 3119 2900 3481 
Q 2900 3844 2670 4047 
Q 2441 4250 2034 4250 
Q 1625 4250 1398 4047 
Q 1172 3844 1172 3481 
z
" transform="scale(0.015625)"/>
       </defs>
       <use xlink:href="#DejaVuSans-32" transform="translate(0 0.765625)"/>
       <use xlink:href="#DejaVuSans-31" transform="translate(64.580078 39.046875) scale(0.7)"/>
       <use xlink:href="#DejaVuSans-38" transform="translate(109.116211 39.046875) scale(0.7)"/>
      </g>
     </g>
    </g>
    <g id="xtick_5">
     <g id="line2d_9">
      <path d="M 684.552841 386.728 
L 684.552841 25.44 
" clip-path="url(#p0b3b02cdd5)" style="fill: none; stroke: #b0b0b0; stroke-opacity: 0.25; stroke-width: 0.8; stroke-linecap: square"/>
     </g>
     <g id="line2d_10">
      <g>
       <use xlink:href="#md85a196cd6" x="684.552841" y="386.728" style="stroke: #000000; stroke-width: 0.8"/>
      </g>
     </g>
     <g id="text_5">
      <!-- $\mathdefault{2^{20}}$ -->
      <g transform="translate(676.702841 401.326437) scale(0.1 -0.1)">
       <defs>
        <path id="DejaVuSans-30" d="M 2034 4250 
Q 1547 4250 1301 3770 
Q 1056 3291 1056 2328 
Q 1056 1369 1301 889 
Q 1547 409 2034 409 
Q 2525 409 2770 889 
Q 3016 1369 3016 2328 
Q 3016 3291 2770 3770 
Q 2525 4250 2034 4250 
z
M 2034 4750 
Q 2819 4750 3233 4129 
Q 3647 3509 3647 2328 
Q 3647 1150 3233 529 
Q 2819 -91 2034 -91 
Q 1250 -91 836 529 
Q 422 1150 422 2328 
Q 422 3509 836 4129 
Q 1250 4750 2034 4750 
z
" transform="scale(0.015625)"/>
       </defs>
       <use xlink:href="#DejaVuSans-32" transform="translate(0 0.765625)"/>
       <use xlink:href="#DejaVuSans-32" transform="translate(64.580078 39.046875) scale(0.7)"/>
       <use xlink:href="#DejaVuSans-30" transform="translate(109.116211 39.046875) scale(0.7)"/>
      </g>
     </g>
    </g>
    <g id="text_6">
     <!-- limbs per operand (balanced) -->
     <g transform="translate(338.894844 415.004563) scale(0.1 -0.1)">
      <defs>
       <path id="DejaVuSans-6c" d="M 603 4863 
L 1178 4863 
L 1178 0 
L 603 0 
L 603 4863 
z
" transform="scale(0.015625)"/>
       <path id="DejaVuSans-69" d="M 603 3500 
L 1178 3500 
L 1178 0 
L 603 0 
L 603 3500 
z
M 603 4863 
L 1178 4863 
L 1178 4134 
L 603 4134 
L 603 4863 
z
" transform="scale(0.015625)"/>
       <path id="DejaVuSans-6d" d="M 3328 2828 
Q 3544 3216 3844 3400 
Q 4144 3584 4550 3584 
Q 5097 3584 5394 3201 
Q 5691 2819 5691 2113 
L 5691 0 
L 5113 0 
L 5113 2094 
Q 5113 2597 4934 2840 
Q 4756 3084 4391 3084 
Q 3944 3084 3684 2787 
Q 3425 2491 3425 1978 
L 3425 0 
L 2847 0 
L 2847 2094 
Q 2847 2600 2669 2842 
Q 2491 3084 2119 3084 
Q 1678 3084 1418 2786 
Q 1159 2488 1159 1978 
L 1159 0 
L 581 0 
L 581 3500 
L 1159 3500 
L 1159 2956 
Q 1356 3278 1631 3431 
Q 1906 3584 2284 3584 
Q 2666 3584 2933 3390 
Q 3200 3197 3328 2828 
z
" transform="scale(0.015625)"/>
       <path id="DejaVuSans-62" d="M 3116 1747 
Q 3116 2381 2855 2742 
Q 2594 3103 2138 3103 
Q 1681 3103 1420 2742 
Q 1159 2381 1159 1747 
Q 1159 1113 1420 752 
Q 1681 391 2138 391 
Q 2594 391 2855 752 
Q 3116 1113 3116 1747 
z
M 1159 2969 
Q 1341 3281 1617 3432 
Q 1894 3584 2278 3584 
Q 2916 3584 3314 3078 
Q 3713 2572 3713 1747 
Q 3713 922 3314 415 
Q 2916 -91 2278 -91 
Q 1894 -91 1617 61 
Q 1341 213 1159 525 
L 1159 0 
L 581 0 
L 581 4863 
L 1159 4863 
L 1159 2969 
z
" transform="scale(0.015625)"/>
       <path id="DejaVuSans-73" d="M 2834 3397 
L 2834 2853 
Q 2591 2978 2328 3040 
Q 2066 3103 1784 3103 
Q 1356 3103 1142 2972 
Q 928 2841 928 2578 
Q 928 2378 1081 2264 
Q 1234 2150 1697 2047 
L 1894 2003 
Q 2506 1872 2764 1633 
Q 3022 1394 3022 966 
Q 3022 478 2636 193 
Q 2250 -91 1575 -91 
Q 1294 -91 989 -36 
Q 684 19 347 128 
L 347 722 
Q 666 556 975 473 
Q 1284 391 1588 391 
Q 1994 391 2212 530 
Q 2431 669 2431 922 
Q 2431 1156 2273 1281 
Q 2116 1406 1581 1522 
L 1381 1569 
Q 847 1681 609 1914 
Q 372 2147 372 2553 
Q 372 3047 722 3315 
Q 1072 3584 1716 3584 
Q 2034 3584 2315 3537 
Q 2597 3491 2834 3397 
z
" transform="scale(0.015625)"/>
       <path id="DejaVuSans-20" transform="scale(0.015625)"/>
       <path id="DejaVuSans-70" d="M 1159 525 
L 1159 -1331 
L 581 -1331 
L 581 3500 
L 1159 3500 
L 1159 2969 
Q 1341 3281 1617 3432 
Q 1894 3584 2278 3584 
Q 2916 3584 3314 3078 
Q 3713 2572 3713 1747 
Q 3713 922 3314 415 
Q 2916 -91 2278 -91 
Q 1894 -91 1617 61 
Q 1341 213 1159 525 
z
M 3116 1747 
Q 3116 2381 2855 2742 
Q 2594 3103 2138 3103 
Q 1681 3103 1420 2742 
Q 1159 2381 1159 1747 
Q 1159 1113 1420 752 
Q 1681 391 2138 391 
Q 2594 391 2855 752 
Q 3116 1113 3116 1747 
z
" transform="scale(0.015625)"/>
       <path id="DejaVuSans-65" d="M 3597 1894 
L 3597 1613 
L 953 1613 
Q 991 1019 1311 708 
Q 1631 397 2203 397 
Q 2534 397 2845 478 
Q 3156 559 3463 722 
L 3463 178 
Q 3153 47 2828 -22 
Q 2503 -91 2169 -91 
Q 1331 -91 842 396 
Q 353 884 353 1716 
Q 353 2575 817 3079 
Q 1281 3584 2069 3584 
Q 2775 3584 3186 3129 
Q 3597 2675 3597 1894 
z
M 3022 2063 
Q 3016 2534 2758 2815 
Q 2500 3097 2075 3097 
Q 1594 3097 1305 2825 
Q 1016 2553 972 2059 
L 3022 2063 
z
" transform="scale(0.015625)"/>
       <path id="DejaVuSans-72" d="M 2631 2963 
Q 2534 3019 2420 3045 
Q 2306 3072 2169 3072 
Q 1681 3072 1420 2755 
Q 1159 2438 1159 1844 
L 1159 0 
L 581 0 
L 581 3500 
L 1159 3500 
L 1159 2956 
Q 1341 3275 1631 3429 
Q 1922 3584 2338 3584 
Q 2397 3584 2469 3576 
Q 2541 3569 2628 3553 
L 2631 2963 
z
" transform="scale(0.015625)"/>
       <path id="DejaVuSans-6f" d="M 1959 3097 
Q 1497 3097 1228 2736 
Q 959 2375 959 1747 
Q 959 1119 1226 758 
Q 1494 397 1959 397 
Q 2419 397 2687 759 
Q 2956 1122 2956 1747 
Q 2956 2369 2687 2733 
Q 2419 3097 1959 3097 
z
M 1959 3584 
Q 2709 3584 3137 3096 
Q 3566 2609 3566 1747 
Q 3566 888 3137 398 
Q 2709 -91 1959 -91 
Q 1206 -91 779 398 
Q 353 888 353 1747 
Q 353 2609 779 3096 
Q 1206 3584 1959 3584 
z
" transform="scale(0.015625)"/>
       <path id="DejaVuSans-61" d="M 2194 1759 
Q 1497 1759 1228 1600 
Q 959 1441 959 1056 
Q 959 750 1161 570 
Q 1363 391 1709 391 
Q 2188 391 2477 730 
Q 2766 1069 2766 1631 
L 2766 1759 
L 2194 1759 
z
M 3341 1997 
L 3341 0 
L 2766 0 
L 2766 531 
Q 2569 213 2275 61 
Q 1981 -91 1556 -91 
Q 1019 -91 701 211 
Q 384 513 384 1019 
Q 384 1609 779 1909 
Q 1175 2209 1959 2209 
L 2766 2209 
L 2766 2266 
Q 2766 2663 2505 2880 
Q 2244 3097 1772 3097 
Q 1472 3097 1187 3025 
Q 903 2953 641 2809 
L 641 3341 
Q 956 3463 1253 3523 
Q 1550 3584 1831 3584 
Q 2591 3584 2966 3190 
Q 3341 2797 3341 1997 
z
" transform="scale(0.015625)"/>
       <path id="DejaVuSans-6e" d="M 3513 2113 
L 3513 0 
L 2938 0 
L 2938 2094 
Q 2938 2591 2744 2837 
Q 2550 3084 2163 3084 
Q 1697 3084 1428 2787 
Q 1159 2491 1159 1978 
L 1159 0 
L 581 0 
L 581 3500 
L 1159 3500 
L 1159 2956 
Q 1366 3272 1645 3428 
Q 1925 3584 2291 3584 
Q 2894 3584 3203 3211 
Q 3513 2838 3513 2113 
z
" transform="scale(0.015625)"/>
       <path id="DejaVuSans-64" d="M 2906 2969 
L 2906 4863 
L 3481 4863 
L 3481 0 
L 2906 0 
L 2906 525 
Q 2725 213 2448 61 
Q 2172 -91 1784 -91 
Q 1150 -91 751 415 
Q 353 922 353 1747 
Q 353 2572 751 3078 
Q 1150 3584 1784 3584 
Q 2172 3584 2448 3432 
Q 2725 3281 2906 2969 
z
M 947 1747 
Q 947 1113 1208 752 
Q 1469 391 1925 391 
Q 2381 391 2643 752 
Q 2906 1113 2906 1747 
Q 2906 2381 2643 2742 
Q 2381 3103 1925 3103 
Q 1469 3103 1208 2742 
Q 947 2381 947 1747 
z
" transform="scale(0.015625)"/>
       <path id="DejaVuSans-28" d="M 1984 4856 
Q 1566 4138 1362 3434 
Q 1159 2731 1159 2009 
Q 1159 1288 1364 580 
Q 1569 -128 1984 -844 
L 1484 -844 
Q 1016 -109 783 600 
Q 550 1309 550 2009 
Q 550 2706 781 3412 
Q 1013 4119 1484 4856 
L 1984 4856 
z
" transform="scale(0.015625)"/>
       <path id="DejaVuSans-63" d="M 3122 3366 
L 3122 2828 
Q 2878 2963 2633 3030 
Q 2388 3097 2138 3097 
Q 1578 3097 1268 2742 
Q 959 2388 959 1747 
Q 959 1106 1268 751 
Q 1578 397 2138 397 
Q 2388 397 2633 464 
Q 2878 531 3122 666 
L 3122 134 
Q 2881 22 2623 -34 
Q 2366 -91 2075 -91 
Q 1284 -91 818 406 
Q 353 903 353 1747 
Q 353 2603 823 3093 
Q 1294 3584 2113 3584 
Q 2378 3584 2631 3529 
Q 2884 3475 3122 3366 
z
" transform="scale(0.015625)"/>
       <path id="DejaVuSans-29" d="M 513 4856 
L 1013 4856 
Q 1481 4119 1714 3412 
Q 1947 2706 1947 2009 
Q 1947 1309 1714 600 
Q 1481 -109 1013 -844 
L 513 -844 
Q 928 -128 1133 580 
Q 1338 1288 1338 2009 
Q 1338 2731 1133 3434 
Q 928 4138 513 4856 
z
" transform="scale(0.015625)"/>
      </defs>
      <use xlink:href="#DejaVuSans-6c"/>
      <use xlink:href="#DejaVuSans-69" transform="translate(27.783203 0)"/>
      <use xlink:href="#DejaVuSans-6d" transform="translate(55.566406 0)"/>
      <use xlink:href="#DejaVuSans-62" transform="translate(152.978516 0)"/>
      <use xlink:href="#DejaVuSans-73" transform="translate(216.455078 0)"/>
      <use xlink:href="#DejaVuSans-20" transform="translate(268.554688 0)"/>
      <use xlink:href="#DejaVuSans-70" transform="translate(300.341797 0)"/>
      <use xlink:href="#DejaVuSans-65" transform="translate(363.818359 0)"/>
      <use xlink:href="#DejaVuSans-72" transform="translate(425.341797 0)"/>
      <use xlink:href="#DejaVuSans-20" transform="translate(466.455078 0)"/>
      <use xlink:href="#DejaVuSans-6f" transform="translate(498.242188 0)"/>
      <use xlink:href="#DejaVuSans-70" transform="translate(559.423828 0)"/>
      <use xlink:href="#DejaVuSans-65" transform="translate(622.900391 0)"/>
      <use xlink:href="#DejaVuSans-72" transform="translate(684.423828 0)"/>
      <use xlink:href="#DejaVuSans-61" transform="translate(725.537109 0)"/>
      <use xlink:href="#DejaVuSans-6e" transform="translate(786.816406 0)"/>
      <use xlink:href="#DejaVuSans-64" transform="translate(850.195312 0)"/>
      <use xlink:href="#DejaVuSans-20" transform="translate(913.671875 0)"/>
      <use xlink:href="#DejaVuSans-28" transform="translate(945.458984 0)"/>
      <use xlink:href="#DejaVuSans-62" transform="translate(984.472656 0)"/>
      <use xlink:href="#DejaVuSans-61" transform="translate(1047.949219 0)"/>
      <use xlink:href="#DejaVuSans-6c" transform="translate(1109.228516 0)"/>
      <use xlink:href="#DejaVuSans-61" transform="translate(1137.011719 0)"/>
      <use xlink:href="#DejaVuSans-6e" transform="translate(1198.291016 0)"/>
      <use xlink:href="#DejaVuSans-63" transform="translate(1261.669922 0)"/>
      <use xlink:href="#DejaVuSans-65" transform="translate(1316.650391 0)"/>
      <use xlink:href="#DejaVuSans-64" transform="translate(1378.173828 0)"/>
      <use xlink:href="#DejaVuSans-29" transform="translate(1441.650391 0)"/>
     </g>
    </g>
   </g>
   <g id="matplotlib.axis_2">
    <g id="ytick_1">
     <g id="line2d_11">
      <path d="M 44.66 351.520842 
L 781.2 351.520842 
" clip-path="url(#p0b3b02cdd5)" style="fill: none; stroke: #b0b0b0; stroke-opacity: 0.25; stroke-width: 0.8; stroke-linecap: square"/>
     </g>
     <g id="line2d_12">
      <defs>
       <path id="m893830d3c2" d="M 0 0 
L -3.5 0 
" style="stroke: #000000; stroke-width: 0.8"/>
      </defs>
      <g>
       <use xlink:href="#m893830d3c2" x="44.66" y="351.520842" style="stroke: #000000; stroke-width: 0.8"/>
      </g>
     </g>
     <g id="text_7">
      <!-- 15 -->
      <g transform="translate(24.935 355.320061) scale(0.1 -0.1)">
       <defs>
        <path id="DejaVuSans-35" d="M 691 4666 
L 3169 4666 
L 3169 4134 
L 1269 4134 
L 1269 2991 
Q 1406 3038 1543 3061 
Q 1681 3084 1819 3084 
Q 2600 3084 3056 2656 
Q 3513 2228 3513 1497 
Q 3513 744 3044 326 
Q 2575 -91 1722 -91 
Q 1428 -91 1123 -41 
Q 819 9 494 109 
L 494 744 
Q 775 591 1075 516 
Q 1375 441 1709 441 
Q 2250 441 2565 725 
Q 2881 1009 2881 1497 
Q 2881 1984 2565 2268 
Q 2250 2553 1709 2553 
Q 1456 2553 1204 2497 
Q 953 2441 691 2322 
L 691 4666 
z
" transform="scale(0.015625)"/>
       </defs>
       <use xlink:href="#DejaVuSans-31"/>
       <use xlink:href="#DejaVuSans-35" transform="translate(63.623047 0)"/>
      </g>
     </g>
    </g>
    <g id="ytick_2">
     <g id="line2d_13">
      <path d="M 44.66 307.126608 
L 781.2 307.126608 
" clip-path="url(#p0b3b02cdd5)" style="fill: none; stroke: #b0b0b0; stroke-opacity: 0.25; stroke-width: 0.8; stroke-linecap: square"/>
     </g>
     <g id="line2d_14">
      <g>
       <use xlink:href="#m893830d3c2" x="44.66" y="307.126608" style="stroke: #000000; stroke-width: 0.8"/>
      </g>
     </g>
     <g id="text_8">
      <!-- 20 -->
      <g transform="translate(24.935 310.925827) scale(0.1 -0.1)">
       <use xlink:href="#DejaVuSans-32"/>
       <use xlink:href="#DejaVuSans-30" transform="translate(63.623047 0)"/>
      </g>
     </g>
    </g>
    <g id="ytick_3">
     <g id="line2d_15">
      <path d="M 44.66 262.732374 
L 781.2 262.732374 
" clip-path="url(#p0b3b02cdd5)" style="fill: none; stroke: #b0b0b0; stroke-opacity: 0.25; stroke-width: 0.8; stroke-linecap: square"/>
     </g>
     <g id="line2d_16">
      <g>
       <use xlink:href="#m893830d3c2" x="44.66" y="262.732374" style="stroke: #000000; stroke-width: 0.8"/>
      </g>
     </g>
     <g id="text_9">
      <!-- 25 -->
      <g transform="translate(24.935 266.531593) scale(0.1 -0.1)">
       <use xlink:href="#DejaVuSans-32"/>
       <use xlink:href="#DejaVuSans-35" transform="translate(63.623047 0)"/>
      </g>
     </g>
    </g>
    <g id="ytick_4">
     <g id="line2d_17">
      <path d="M 44.66 218.33814 
L 781.2 218.33814 
" clip-path="url(#p0b3b02cdd5)" style="fill: none; stroke: #b0b0b0; stroke-opacity: 0.25; stroke-width: 0.8; stroke-linecap: square"/>
     </g>
     <g id="line2d_18">
      <g>
       <use xlink:href="#m893830d3c2" x="44.66" y="218.33814" style="stroke: #000000; stroke-width: 0.8"/>
      </g>
     </g>
     <g id="text_10">
      <!-- 30 -->
      <g transform="translate(24.935 222.137359) scale(0.1 -0.1)">
       <defs>
        <path id="DejaVuSans-33" d="M 2597 2516 
Q 3050 2419 3304 2112 
Q 3559 1806 3559 1356 
Q 3559 666 3084 287 
Q 2609 -91 1734 -91 
Q 1441 -91 1130 -33 
Q 819 25 488 141 
L 488 750 
Q 750 597 1062 519 
Q 1375 441 1716 441 
Q 2309 441 2620 675 
Q 2931 909 2931 1356 
Q 2931 1769 2642 2001 
Q 2353 2234 1838 2234 
L 1294 2234 
L 1294 2753 
L 1863 2753 
Q 2328 2753 2575 2939 
Q 2822 3125 2822 3475 
Q 2822 3834 2567 4026 
Q 2313 4219 1838 4219 
Q 1578 4219 1281 4162 
Q 984 4106 628 3988 
L 628 4550 
Q 988 4650 1302 4700 
Q 1616 4750 1894 4750 
Q 2613 4750 3031 4423 
Q 3450 4097 3450 3541 
Q 3450 3153 3228 2886 
Q 3006 2619 2597 2516 
z
" transform="scale(0.015625)"/>
       </defs>
       <use xlink:href="#DejaVuSans-33"/>
       <use xlink:href="#DejaVuSans-30" transform="translate(63.623047 0)"/>
      </g>
     </g>
    </g>
    <g id="ytick_5">
     <g id="line2d_19">
      <path d="M 44.66 173.943906 
L 781.2 173.943906 
" clip-path="url(#p0b3b02cdd5)" style="fill: none; stroke: #b0b0b0; stroke-opacity: 0.25; stroke-width: 0.8; stroke-linecap: square"/>
     </g>
     <g id="line2d_20">
      <g>
       <use xlink:href="#m893830d3c2" x="44.66" y="173.943906" style="stroke: #000000; stroke-width: 0.8"/>
      </g>
     </g>
     <g id="text_11">
      <!-- 35 -->
      <g transform="translate(24.935 177.743125) scale(0.1 -0.1)">
       <use xlink:href="#DejaVuSans-33"/>
       <use xlink:href="#DejaVuSans-35" transform="translate(63.623047 0)"/>
      </g>
     </g>
    </g>
    <g id="ytick_6">
     <g id="line2d_21">
      <path d="M 44.66 129.549673 
L 781.2 129.549673 
" clip-path="url(#p0b3b02cdd5)" style="fill: none; stroke: #b0b0b0; stroke-opacity: 0.25; stroke-width: 0.8; stroke-linecap: square"/>
     </g>
     <g id="line2d_22">
      <g>
       <use xlink:href="#m893830d3c2" x="44.66" y="129.549673" style="stroke: #000000; stroke-width: 0.8"/>
      </g>
     </g>
     <g id="text_12">
      <!-- 40 -->
      <g transform="translate(24.935 133.348891) scale(0.1 -0.1)">
       <use xlink:href="#DejaVuSans-34"/>
       <use xlink:href="#DejaVuSans-30" transform="translate(63.623047 0)"/>
      </g>
     </g>
    </g>
    <g id="ytick_7">
     <g id="line2d_23">
      <path d="M 44.66 85.155439 
L 781.2 85.155439 
" clip-path="url(#p0b3b02cdd5)" style="fill: none; stroke: #b0b0b0; stroke-opacity: 0.25; stroke-width: 0.8; stroke-linecap: square"/>
     </g>
     <g id="line2d_24">
      <g>
       <use xlink:href="#m893830d3c2" x="44.66" y="85.155439" style="stroke: #000000; stroke-width: 0.8"/>
      </g>
     </g>
     <g id="text_13">
      <!-- 45 -->
      <g transform="translate(24.935 88.954657) scale(0.1 -0.1)">
       <use xlink:href="#DejaVuSans-34"/>
       <use xlink:href="#DejaVuSans-35" transform="translate(63.623047 0)"/>
      </g>
     </g>
    </g>
    <g id="ytick_8">
     <g id="line2d_25">
      <path d="M 44.66 40.761205 
L 781.2 40.761205 
" clip-path="url(#p0b3b02cdd5)" style="fill: none; stroke: #b0b0b0; stroke-opacity: 0.25; stroke-width: 0.8; stroke-linecap: square"/>
     </g>
     <g id="line2d_26">
      <g>
       <use xlink:href="#m893830d3c2" x="44.66" y="40.761205" style="stroke: #000000; stroke-width: 0.8"/>
      </g>
     </g>
     <g id="text_14">
      <!-- 50 -->
      <g transform="translate(24.935 44.560424) scale(0.1 -0.1)">
       <use xlink:href="#DejaVuSans-35"/>
       <use xlink:href="#DejaVuSans-30" transform="translate(63.623047 0)"/>
      </g>
     </g>
    </g>
    <g id="text_15">
     <!-- ns / limb -->
     <g transform="translate(18.855313 227.542594) rotate(-90) scale(0.1 -0.1)">
      <defs>
       <path id="DejaVuSans-2f" d="M 1625 4666 
L 2156 4666 
L 531 -594 
L 0 -594 
L 1625 4666 
z
" transform="scale(0.015625)"/>
      </defs>
      <use xlink:href="#DejaVuSans-6e"/>
      <use xlink:href="#DejaVuSans-73" transform="translate(63.378906 0)"/>
      <use xlink:href="#DejaVuSans-20" transform="translate(115.478516 0)"/>
      <use xlink:href="#DejaVuSans-2f" transform="translate(147.265625 0)"/>
      <use xlink:href="#DejaVuSans-20" transform="translate(180.957031 0)"/>
      <use xlink:href="#DejaVuSans-6c" transform="translate(212.744141 0)"/>
      <use xlink:href="#DejaVuSans-69" transform="translate(240.527344 0)"/>
      <use xlink:href="#DejaVuSans-6d" transform="translate(268.310547 0)"/>
      <use xlink:href="#DejaVuSans-62" transform="translate(365.722656 0)"/>
     </g>
    </g>
   </g>
   <g id="line2d_27">
    <path d="M 78.139091 300.801318 
L 82.319717 285.788076 
L 86.545841 297.688394 
L 90.762743 305.083586 
L 94.964112 312.756685 
L 99.182709 293.208128 
L 103.372381 294.001009 
L 107.599473 299.049521 
L 111.81836 303.092948 
L 116.022595 305.581689 
L 120.237375 304.038545 
L 124.453987 304.415896 
L 128.664772 303.49516 
L 132.863034 318.352134 
L 137.094726 315.356411 
L 141.298688 312.671448 
L 149.721753 283.746829 
L 153.925146 246.224822 
L 158.142049 287.300143 
L 162.343417 295.259142 
L 166.562015 289.394663 
L 170.769992 294.19368 
L 174.996304 298.258416 
L 179.197665 300.36803 
L 183.417972 301.603078 
L 187.61668 298.90302 
L 191.833293 300.066149 
L 196.044078 297.964526 
L 200.255854 305.005452 
L 204.474032 302.752888 
L 208.677994 306.941928 
L 212.897702 307.294418 
L 217.101058 281.251873 
L 221.315334 284.192547 
L 225.521355 285.347685 
L 229.732702 292.771289 
L 233.950876 294.143071 
L 238.158448 291.472313 
L 242.37561 294.848051 
L 246.585362 297.695497 
L 250.797277 299.718986 
L 255.003681 292.916902 
L 259.219967 297.992938 
L 263.430439 296.938131 
L 267.641917 298.61357 
L 271.853338 300.696547 
L 276.063495 301.571114 
L 280.277008 303.607033 
L 284.486046 278.217971 
L 288.69464 281.625672 
L 292.905871 282.140645 
L 297.116998 286.887277 
L 301.330182 287.310798 
L 305.542329 284.501531 
L 309.754915 288.615988 
L 313.964668 291.34801 
L 318.176583 292.852086 
L 322.386834 291.068326 
L 326.599272 294.009 
L 330.809745 295.086892 
L 335.021222 292.320243 
L 339.232643 294.971467 
L 343.442801 297.328801 
L 347.656313 286.918353 
L 351.865351 260.722203 
L 356.076666 264.158317 
L 360.287781 264.928113 
L 364.498798 267.387554 
L 368.711876 270.323788 
L 372.921635 271.257843 
L 377.134221 274.283754 
L 381.343973 275.689275 
L 385.555889 278.57934 
L 389.768063 276.511457 
L 393.978578 279.819715 
L 402.400528 281.482723 
L 406.611949 283.840945 
L 410.823655 284.93837 
L 415.035619 289.955806 
L 419.246077 260.028765 
L 423.457332 262.096649 
L 427.668389 264.742545 
L 431.879351 266.631964 
L 436.091182 269.432352 
L 440.302084 270.029898 
L 444.513527 273.184553 
L 452.936199 276.530102 
L 457.147369 270.916007 
L 461.358804 272.585231 
L 465.569238 275.00738 
L 469.780678 275.176966 
L 473.992063 276.909229 
L 478.202961 277.537851 
L 482.414924 278.640604 
L 486.626093 228.651809 
L 490.837317 234.241043 
L 495.048346 237.68426 
L 499.25928 238.939729 
L 503.470487 243.414667 
L 507.681961 240.45002 
L 511.892832 241.694835 
L 516.104157 243.959829 
L 520.315504 244.935614 
L 528.73811 248.575053 
L 532.948985 250.096 
L 537.160406 250.959911 
L 541.371773 247.600156 
L 545.582654 254.718327 
L 549.79423 247.279629 
L 554.005399 192.602803 
L 558.216623 197.870623 
L 562.427652 200.7891 
L 566.638897 203.941978 
L 570.850091 209.148534 
L 575.061267 209.189377 
L 579.272411 213.434353 
L 583.483725 216.135298 
L 587.695061 219.645995 
L 591.90622 201.249024 
L 596.117415 206.57722 
L 600.328511 207.909047 
L 604.539712 210.910097 
L 608.751079 212.682315 
L 612.962153 215.519994 
L 617.173535 225.026576 
L 621.384704 196.267991 
L 625.595928 197.187839 
L 629.80712 198.932533 
L 634.018359 199.841727 
L 638.229546 204.718877 
L 642.440715 199.968694 
L 646.651854 200.937376 
L 650.863162 203.436772 
L 655.074366 203.1562 
L 659.285526 200.126738 
L 663.496721 204.821872 
L 667.707926 208.040454 
L 671.919123 200.551147 
L 676.130384 206.85424 
L 680.341555 208.685058 
L 684.552841 210.074598 
L 688.76401 175.132784 
L 692.975234 179.15135 
L 697.186426 178.73582 
L 701.397664 181.614342 
L 705.608852 186.979829 
L 709.820021 183.058931 
L 714.031228 184.549689 
L 718.242467 186.449762 
L 722.453672 187.486811 
L 726.664891 186.525232 
L 730.876084 188.580685 
L 735.087287 193.276707 
L 739.298481 191.199945 
L 743.50969 192.813232 
L 747.720909 195.351694 
L 747.720909 195.351694 
" clip-path="url(#p0b3b02cdd5)" style="fill: none; stroke: #1f77b4; stroke-opacity: 0.65; stroke-linecap: square"/>
   </g>
   <g id="line2d_28">
    <path d="M 78.139091 339.032744 
L 82.319717 338.191029 
L 86.545841 340.272231 
L 90.762743 343.52988 
L 94.964112 343.272393 
L 99.182709 342.169641 
L 103.372381 343.621332 
L 107.599473 346.261013 
L 111.81836 313.507835 
L 116.022595 315.712453 
L 120.237375 317.177463 
L 124.453987 320.320574 
L 128.664772 320.548761 
L 132.863034 321.970264 
L 137.094726 324.161564 
L 141.298688 325.392172 
L 145.518396 327.268272 
L 149.721753 325.680734 
L 153.925146 327.071162 
L 158.142049 329.736591 
L 162.343417 331.728117 
L 166.562015 332.085934 
L 170.769992 333.385798 
L 174.996304 335.341807 
L 179.197665 312.185775 
L 183.417972 313.70317 
L 187.61668 316.408555 
L 191.833293 319.372314 
L 196.044078 319.93612 
L 200.255854 321.197805 
L 204.474032 322.297006 
L 208.677994 323.932489 
L 212.897702 326.563292 
L 217.101058 322.024425 
L 221.315334 323.393543 
L 225.521355 322.251724 
L 229.732702 327.163502 
L 233.950876 324.149133 
L 238.158448 329.155915 
L 242.37561 331.039118 
L 246.585362 306.278678 
L 250.797277 309.061309 
L 255.003681 311.403549 
L 259.219967 312.843698 
L 263.430439 315.013688 
L 267.641917 314.344223 
L 271.853338 316.121768 
L 276.063495 317.652481 
L 280.277008 319.486851 
L 284.486046 318.962111 
L 288.69464 320.806247 
L 292.905871 322.376028 
L 297.116998 324.405732 
L 301.330182 323.825055 
L 309.754915 326.254308 
L 313.964668 288.425981 
L 322.386834 294.331302 
L 326.599272 295.477561 
L 330.809745 297.990275 
L 335.021222 299.72165 
L 339.232643 302.210391 
L 343.442801 302.916259 
L 347.656313 305.277144 
L 351.865351 304.948627 
L 356.076666 307.662891 
L 360.287781 308.509932 
L 364.498798 310.588471 
L 368.711876 312.04105 
L 372.921635 313.068332 
L 377.134221 314.761529 
L 381.343973 287.714785 
L 385.555889 289.780893 
L 389.768063 292.758858 
L 393.978578 295.071798 
L 398.18905 296.973647 
L 402.400528 298.223788 
L 406.611949 299.987127 
L 410.823655 300.225968 
L 415.035619 303.305153 
L 419.246077 296.96832 
L 423.457332 299.665713 
L 427.668389 300.358263 
L 431.879351 303.481842 
L 440.302084 304.750629 
L 444.513527 306.387888 
L 448.724327 247.682729 
L 452.936199 251.149919 
L 457.147369 252.82003 
L 461.358804 252.419594 
L 465.569238 254.220224 
L 469.780678 253.641323 
L 473.992063 254.335649 
L 478.202961 253.445988 
L 482.414924 254.479486 
L 486.626093 256.389326 
L 490.837317 260.243634 
L 495.048346 260.079375 
L 499.25928 262.506852 
L 503.470487 260.486026 
L 507.681961 263.574089 
L 511.892832 263.330809 
L 516.104157 165.618212 
L 520.315504 172.988543 
L 524.526674 176.572045 
L 528.73811 182.560827 
L 532.948985 186.75697 
L 537.160406 191.720246 
L 541.371773 191.937777 
L 545.582654 198.594249 
L 549.79423 200.411749 
L 554.005399 204.223438 
L 558.216623 206.984759 
L 562.427652 213.698055 
L 566.638897 213.278086 
L 570.850091 215.649626 
L 575.061267 214.44299 
L 579.272411 220.467288 
L 583.483725 149.993217 
L 587.695061 153.337879 
L 591.90622 160.005005 
L 596.117415 165.027769 
L 600.328511 170.480268 
L 604.539712 174.02648 
L 608.751079 173.971431 
L 617.173535 186.32901 
L 621.384704 186.285504 
L 625.595928 184.306409 
L 629.80712 187.648406 
L 634.018359 193.233201 
L 638.229546 196.331031 
L 642.440715 202.736231 
L 646.651854 204.527982 
L 650.863162 117.666224 
L 655.074366 127.098223 
L 659.285526 134.006854 
L 663.496721 133.00532 
L 667.707926 138.532402 
L 671.919123 137.759054 
L 676.130384 142.569614 
L 680.341555 149.250946 
L 684.552841 153.871498 
L 688.76401 148.133987 
L 692.975234 158.188393 
L 697.186426 161.725725 
L 701.397664 167.029949 
L 705.608852 168.249014 
L 709.820021 170.035438 
L 714.031228 174.136577 
L 718.242467 41.862182 
L 722.453672 54.437293 
L 726.664891 66.520515 
L 730.876084 74.81691 
L 735.087287 88.775345 
L 739.298481 92.945739 
L 743.50969 101.064556 
L 747.720909 105.966568 
L 747.720909 105.966568 
" clip-path="url(#p0b3b02cdd5)" style="fill: none; stroke: #ff7f0e; stroke-opacity: 0.65; stroke-linecap: square"/>
   </g>
   <g id="line2d_29">
    <path d="M 78.139091 339.964135 
L 82.319717 338.738854 
L 86.545841 340.622058 
L 90.762743 343.431325 
L 94.964112 343.616005 
L 99.182709 342.335675 
L 103.372381 343.810452 
L 107.599473 346.299192 
L 111.81836 313.273434 
L 116.022595 315.228556 
L 120.237375 318.024505 
L 124.453987 320.5825 
L 128.664772 320.224683 
L 132.863034 322.14429 
L 137.094726 324.645461 
L 141.298688 325.825459 
L 145.518396 327.437858 
L 149.721753 326.565067 
L 153.925146 328.025638 
L 158.142049 329.673552 
L 162.343417 331.612692 
L 166.562015 332.359403 
L 170.769992 333.231306 
L 174.996304 335.604621 
L 179.197665 306.913516 
L 183.417972 314.538669 
L 187.61668 316.633189 
L 191.833293 319.651997 
L 196.044078 320.618016 
L 204.474032 323.250594 
L 208.677994 324.006184 
L 212.897702 326.411463 
L 217.101058 322.18602 
L 221.315334 324.117169 
L 225.521355 326.274729 
L 229.732702 326.931764 
L 233.950876 328.48201 
L 238.158448 329.234049 
L 242.37561 330.940563 
L 246.585362 306.048716 
L 250.797277 309.156313 
L 255.003681 312.052592 
L 259.219967 313.021275 
L 263.430439 315.106916 
L 267.641917 314.290062 
L 271.853338 316.113777 
L 276.063495 317.711969 
L 280.277008 319.699055 
L 284.486046 319.412268 
L 288.69464 321.453515 
L 292.905871 323.256809 
L 297.116998 324.266334 
L 301.330182 323.51252 
L 309.754915 326.170847 
L 313.964668 288.861045 
L 318.176583 291.231697 
L 322.386834 294.069376 
L 326.599272 295.9144 
L 330.809745 298.177618 
L 335.021222 300.043064 
L 339.232643 302.335582 
L 343.442801 303.128463 
L 347.656313 305.408551 
L 351.865351 305.945722 
L 356.076666 307.844907 
L 364.498798 311.137183 
L 368.711876 312.588875 
L 372.921635 313.329371 
L 377.134221 315.297811 
L 381.343973 287.838201 
L 385.555889 289.8537 
L 389.768063 293.329768 
L 393.978578 295.190774 
L 398.18905 297.221367 
L 402.400528 297.726573 
L 406.611949 300.035961 
L 410.823655 300.259708 
L 415.035619 302.308058 
L 419.246077 297.68573 
L 423.457332 299.897451 
L 427.668389 301.323394 
L 436.091182 304.915775 
L 440.302084 305.796557 
L 444.513527 306.92417 
L 448.724327 275.189396 
L 452.936199 276.73254 
L 457.147369 270.566181 
L 461.358804 272.737059 
L 465.569238 274.296184 
L 469.780678 275.081962 
L 473.992063 276.720997 
L 478.202961 277.103676 
L 482.414924 279.262123 
L 486.626093 254.136763 
L 490.837317 255.044181 
L 495.048346 259.771279 
L 499.25928 262.605407 
L 503.470487 260.545514 
L 507.681961 263.480861 
L 511.892832 264.595156 
L 516.104157 244.495223 
L 520.315504 244.814861 
L 524.526674 245.762234 
L 528.73811 247.410148 
L 532.948985 251.576103 
L 537.160406 249.966368 
L 541.371773 252.090189 
L 545.582654 250.835607 
L 549.79423 246.216831 
L 554.005399 205.940607 
L 558.216623 205.375912 
L 562.427652 208.573185 
L 566.638897 215.09381 
L 570.850091 215.636307 
L 575.061267 214.900251 
L 579.272411 218.814047 
L 583.483725 217.002762 
L 587.695061 221.135865 
L 591.90622 201.105187 
L 596.117415 207.42071 
L 600.328511 207.209394 
L 604.539712 211.548486 
L 608.751079 213.946663 
L 612.962153 215.81566 
L 617.173535 224.425478 
L 621.384704 195.477774 
L 625.595928 197.03246 
L 629.80712 197.308592 
L 634.018359 200.280342 
L 638.229546 202.861423 
L 642.440715 200.845924 
L 646.651854 201.629039 
L 650.863162 200.296324 
L 655.074366 204.346854 
L 659.285526 197.390277 
L 663.496721 203.852302 
L 667.707926 206.85424 
L 671.919123 199.650832 
L 676.130384 206.458243 
L 680.341555 206.895083 
L 684.552841 208.477293 
L 688.76401 176.111233 
L 692.975234 177.995324 
L 697.186426 180.307376 
L 701.397664 183.444273 
L 705.608852 184.739696 
L 709.820021 183.284453 
L 714.031228 186.075963 
L 718.242467 187.627985 
L 722.453672 188.531852 
L 726.664891 184.778763 
L 730.876084 188.481242 
L 735.087287 193.371711 
L 739.298481 190.569547 
L 743.50969 193.330868 
L 747.720909 191.275415 
L 747.720909 191.275415 
" clip-path="url(#p0b3b02cdd5)" style="fill: none; stroke: #000000; stroke-width: 2; stroke-linecap: square"/>
   </g>
   <g id="line2d_30">
    <path d="M 78.139091 365.614236 
L 82.319717 365.048653 
L 86.545841 366.382256 
L 90.762743 368.0426 
L 94.964112 368.367566 
L 99.182709 367.653707 
L 103.372381 368.904736 
L 107.599473 370.305818 
L 111.81836 348.356421 
L 116.022595 350.168594 
L 120.237375 352.149464 
L 124.453987 353.408485 
L 128.664772 354.03178 
L 132.863034 355.708994 
L 137.094726 356.57113 
L 141.298688 357.145591 
L 145.518396 358.071655 
L 149.721753 357.46523 
L 153.925146 358.641677 
L 162.343417 360.801013 
L 166.562015 361.332856 
L 170.769992 361.546836 
L 174.996304 362.927497 
L 179.197665 350.280467 
L 183.417972 351.073348 
L 187.61668 352.72215 
L 191.833293 354.523668 
L 196.044078 354.992471 
L 204.474032 356.305653 
L 208.677994 357.413733 
L 212.897702 358.758878 
L 217.101058 355.328979 
L 225.521355 357.324944 
L 229.732702 358.884958 
L 233.950876 358.337133 
L 238.158448 360.05519 
L 242.37561 361.099342 
L 246.585362 345.657252 
L 255.003681 348.684051 
L 259.219967 349.339309 
L 263.430439 351.365462 
L 267.641917 350.450053 
L 271.853338 351.665567 
L 276.063495 352.370548 
L 280.277008 353.990049 
L 284.486046 353.925234 
L 292.905871 355.845728 
L 297.116998 357.031054 
L 301.330182 356.216864 
L 305.542329 357.32672 
L 309.754915 358.240353 
L 313.964668 330.446899 
L 322.386834 334.709634 
L 326.599272 335.562891 
L 330.809745 337.346651 
L 335.021222 338.663384 
L 339.232643 340.539484 
L 343.442801 340.890199 
L 347.656313 342.412921 
L 351.865351 342.960746 
L 356.076666 344.737403 
L 360.287781 345.289667 
L 364.498798 347.02193 
L 368.711876 347.813924 
L 372.921635 348.392824 
L 377.134221 349.850731 
L 381.343973 332.827318 
L 385.555889 334.187557 
L 389.768063 336.132025 
L 393.978578 337.364409 
L 398.18905 339.045174 
L 402.400528 339.742164 
L 406.611949 340.834262 
L 410.823655 341.806496 
L 415.035619 343.233326 
L 419.246077 338.949283 
L 423.457332 339.996099 
L 427.668389 341.492185 
L 431.879351 342.787608 
L 436.091182 343.532544 
L 440.302084 344.638848 
L 444.513527 345.889877 
L 448.724327 319.221373 
L 452.936199 320.304593 
L 457.147369 315.666283 
L 461.358804 316.867591 
L 465.569238 318.768552 
L 469.780678 318.514617 
L 473.992063 320.198046 
L 478.202961 320.901251 
L 482.414924 324.040811 
L 490.837317 328.537059 
L 495.048346 327.616323 
L 499.25928 327.94928 
L 503.470487 326.260523 
L 507.681961 326.506467 
L 511.892832 327.279815 
L 516.104157 307.548353 
L 520.315504 310.721653 
L 524.526674 311.059049 
L 528.73811 312.215963 
L 532.948985 312.849025 
L 537.160406 312.42284 
L 541.371773 312.811734 
L 545.582654 315.16818 
L 549.79423 306.861131 
L 554.005399 286.905035 
L 558.216623 285.917707 
L 562.427652 291.173096 
L 566.638897 289.753369 
L 570.850091 292.15776 
L 575.061267 289.293444 
L 579.272411 296.447131 
L 583.483725 291.791952 
L 587.695061 293.071394 
L 591.90622 285.661108 
L 596.117415 287.977599 
L 600.328511 287.206028 
L 608.751079 288.57337 
L 612.962153 290.442367 
L 617.173535 292.96396 
L 621.384704 272.746826 
L 625.595928 274.001407 
L 629.80712 271.344856 
L 634.018359 274.111504 
L 638.229546 277.039748 
L 642.440715 275.692827 
L 646.651854 275.193836 
L 655.074366 280.141129 
L 659.285526 275.627123 
L 663.496721 277.883238 
L 667.707926 279.772657 
L 671.919123 279.033937 
L 676.130384 279.514283 
L 680.341555 281.855634 
L 684.552841 285.931025 
L 688.76401 252.368096 
L 692.975234 255.548499 
L 697.186426 257.537361 
L 701.397664 260.586357 
L 705.608852 261.933278 
L 709.820021 257.115616 
L 718.242467 260.197464 
L 722.453672 262.881539 
L 726.664891 261.05516 
L 730.876084 265.683703 
L 735.087287 268.965325 
L 739.298481 266.018435 
L 743.50969 268.066785 
L 747.720909 270.721561 
L 747.720909 270.721561 
" clip-path="url(#p0b3b02cdd5)" style="fill: none; stroke-dasharray: 5.92,2.56; stroke-dashoffset: 0; stroke: #d62728; stroke-width: 1.6"/>
   </g>
   <g id="patch_3">
    <path d="M 44.66 386.728 
L 44.66 25.44 
" style="fill: none; stroke: #000000; stroke-width: 0.8; stroke-linejoin: miter; stroke-linecap: square"/>
   </g>
   <g id="patch_4">
    <path d="M 781.2 386.728 
L 781.2 25.44 
" style="fill: none; stroke: #000000; stroke-width: 0.8; stroke-linejoin: miter; stroke-linecap: square"/>
   </g>
   <g id="patch_5">
    <path d="M 44.66 386.728 
L 781.2 386.728 
" style="fill: none; stroke: #000000; stroke-width: 0.8; stroke-linejoin: miter; stroke-linecap: square"/>
   </g>
   <g id="patch_6">
    <path d="M 44.66 25.44 
L 781.2 25.44 
" style="fill: none; stroke: #000000; stroke-width: 0.8; stroke-linejoin: miter; stroke-linecap: square"/>
   </g>
   <g id="text_16">
    <!-- Combined NTT dispatch: mul + sqr, 1/16-octave sweep (GMP-verified, Zen5) -->
    <g transform="translate(183.15625 19.44) scale(0.12 -0.12)">
     <defs>
      <path id="DejaVuSans-43" d="M 4122 4306 
L 4122 3641 
Q 3803 3938 3442 4084 
Q 3081 4231 2675 4231 
Q 1875 4231 1450 3742 
Q 1025 3253 1025 2328 
Q 1025 1406 1450 917 
Q 1875 428 2675 428 
Q 3081 428 3442 575 
Q 3803 722 4122 1019 
L 4122 359 
Q 3791 134 3420 21 
Q 3050 -91 2638 -91 
Q 1578 -91 968 557 
Q 359 1206 359 2328 
Q 359 3453 968 4101 
Q 1578 4750 2638 4750 
Q 3056 4750 3426 4639 
Q 3797 4528 4122 4306 
z
" transform="scale(0.015625)"/>
      <path id="DejaVuSans-4e" d="M 628 4666 
L 1478 4666 
L 3547 763 
L 3547 4666 
L 4159 4666 
L 4159 0 
L 3309 0 
L 1241 3903 
L 1241 0 
L 628 0 
L 628 4666 
z
" transform="scale(0.015625)"/>
      <path id="DejaVuSans-54" d="M -19 4666 
L 3928 4666 
L 3928 4134 
L 2272 4134 
L 2272 0 
L 1638 0 
L 1638 4134 
L -19 4134 
L -19 4666 
z
" transform="scale(0.015625)"/>
      <path id="DejaVuSans-74" d="M 1172 4494 
L 1172 3500 
L 2356 3500 
L 2356 3053 
L 1172 3053 
L 1172 1153 
Q 1172 725 1289 603 
Q 1406 481 1766 481 
L 2356 481 
L 2356 0 
L 1766 0 
Q 1100 0 847 248 
Q 594 497 594 1153 
L 594 3053 
L 172 3053 
L 172 3500 
L 594 3500 
L 594 4494 
L 1172 4494 
z
" transform="scale(0.015625)"/>
      <path id="DejaVuSans-68" d="M 3513 2113 
L 3513 0 
L 2938 0 
L 2938 2094 
Q 2938 2591 2744 2837 
Q 2550 3084 2163 3084 
Q 1697 3084 1428 2787 
Q 1159 2491 1159 1978 
L 1159 0 
L 581 0 
L 581 4863 
L 1159 4863 
L 1159 2956 
Q 1366 3272 1645 3428 
Q 1925 3584 2291 3584 
Q 2894 3584 3203 3211 
Q 3513 2838 3513 2113 
z
" transform="scale(0.015625)"/>
      <path id="DejaVuSans-3a" d="M 750 794 
L 1409 794 
L 1409 0 
L 750 0 
L 750 794 
z
M 750 3309 
L 1409 3309 
L 1409 2516 
L 750 2516 
L 750 3309 
z
" transform="scale(0.015625)"/>
      <path id="DejaVuSans-75" d="M 544 1381 
L 544 3500 
L 1119 3500 
L 1119 1403 
Q 1119 906 1312 657 
Q 1506 409 1894 409 
Q 2359 409 2629 706 
Q 2900 1003 2900 1516 
L 2900 3500 
L 3475 3500 
L 3475 0 
L 2900 0 
L 2900 538 
Q 2691 219 2414 64 
Q 2138 -91 1772 -91 
Q 1169 -91 856 284 
Q 544 659 544 1381 
z
M 1991 3584 
L 1991 3584 
z
" transform="scale(0.015625)"/>
      <path id="DejaVuSans-2b" d="M 2944 4013 
L 2944 2272 
L 4684 2272 
L 4684 1741 
L 2944 1741 
L 2944 0 
L 2419 0 
L 2419 1741 
L 678 1741 
L 678 2272 
L 2419 2272 
L 2419 4013 
L 2944 4013 
z
" transform="scale(0.015625)"/>
      <path id="DejaVuSans-71" d="M 947 1747 
Q 947 1113 1208 752 
Q 1469 391 1925 391 
Q 2381 391 2643 752 
Q 2906 1113 2906 1747 
Q 2906 2381 2643 2742 
Q 2381 3103 1925 3103 
Q 1469 3103 1208 2742 
Q 947 2381 947 1747 
z
M 2906 525 
Q 2725 213 2448 61 
Q 2172 -91 1784 -91 
Q 1150 -91 751 415 
Q 353 922 353 1747 
Q 353 2572 751 3078 
Q 1150 3584 1784 3584 
Q 2172 3584 2448 3432 
Q 2725 3281 2906 2969 
L 2906 3500 
L 3481 3500 
L 3481 -1331 
L 2906 -1331 
L 2906 525 
z
" transform="scale(0.015625)"/>
      <path id="DejaVuSans-2c" d="M 750 794 
L 1409 794 
L 1409 256 
L 897 -744 
L 494 -744 
L 750 256 
L 750 794 
z
" transform="scale(0.015625)"/>
      <path id="DejaVuSans-2d" d="M 313 2009 
L 1997 2009 
L 1997 1497 
L 313 1497 
L 313 2009 
z
" transform="scale(0.015625)"/>
      <path id="DejaVuSans-76" d="M 191 3500 
L 800 3500 
L 1894 563 
L 2988 3500 
L 3597 3500 
L 2284 0 
L 1503 0 
L 191 3500 
z
" transform="scale(0.015625)"/>
      <path id="DejaVuSans-77" d="M 269 3500 
L 844 3500 
L 1563 769 
L 2278 3500 
L 2956 3500 
L 3675 769 
L 4391 3500 
L 4966 3500 
L 4050 0 
L 3372 0 
L 2619 2869 
L 1863 0 
L 1184 0 
L 269 3500 
z
" transform="scale(0.015625)"/>
      <path id="DejaVuSans-47" d="M 3809 666 
L 3809 1919 
L 2778 1919 
L 2778 2438 
L 4434 2438 
L 4434 434 
Q 4069 175 3628 42 
Q 3188 -91 2688 -91 
Q 1594 -91 976 548 
Q 359 1188 359 2328 
Q 359 3472 976 4111 
Q 1594 4750 2688 4750 
Q 3144 4750 3555 4637 
Q 3966 4525 4313 4306 
L 4313 3634 
Q 3963 3931 3569 4081 
Q 3175 4231 2741 4231 
Q 1884 4231 1454 3753 
Q 1025 3275 1025 2328 
Q 1025 1384 1454 906 
Q 1884 428 2741 428 
Q 3075 428 3337 486 
Q 3600 544 3809 666 
z
" transform="scale(0.015625)"/>
      <path id="DejaVuSans-4d" d="M 628 4666 
L 1569 4666 
L 2759 1491 
L 3956 4666 
L 4897 4666 
L 4897 0 
L 4281 0 
L 4281 4097 
L 3078 897 
L 2444 897 
L 1241 4097 
L 1241 0 
L 628 0 
L 628 4666 
z
" transform="scale(0.015625)"/>
      <path id="DejaVuSans-50" d="M 1259 4147 
L 1259 2394 
L 2053 2394 
Q 2494 2394 2734 2622 
Q 2975 2850 2975 3272 
Q 2975 3691 2734 3919 
Q 2494 4147 2053 4147 
L 1259 4147 
z
M 628 4666 
L 2053 4666 
Q 2838 4666 3239 4311 
Q 3641 3956 3641 3272 
Q 3641 2581 3239 2228 
Q 2838 1875 2053 1875 
L 1259 1875 
L 1259 0 
L 628 0 
L 628 4666 
z
" transform="scale(0.015625)"/>
      <path id="DejaVuSans-66" d="M 2375 4863 
L 2375 4384 
L 1825 4384 
Q 1516 4384 1395 4259 
Q 1275 4134 1275 3809 
L 1275 3500 
L 2222 3500 
L 2222 3053 
L 1275 3053 
L 1275 0 
L 697 0 
L 697 3053 
L 147 3053 
L 147 3500 
L 697 3500 
L 697 3744 
Q 697 4328 969 4595 
Q 1241 4863 1831 4863 
L 2375 4863 
z
" transform="scale(0.015625)"/>
      <path id="DejaVuSans-5a" d="M 359 4666 
L 4025 4666 
L 4025 4184 
L 1075 531 
L 4097 531 
L 4097 0 
L 288 0 
L 288 481 
L 3238 4134 
L 359 4134 
L 359 4666 
z
" transform="scale(0.015625)"/>
     </defs>
     <use xlink:href="#DejaVuSans-43"/>
     <use xlink:href="#DejaVuSans-6f" transform="translate(69.824219 0)"/>
     <use xlink:href="#DejaVuSans-6d" transform="translate(131.005859 0)"/>
     <use xlink:href="#DejaVuSans-62" transform="translate(228.417969 0)"/>
     <use xlink:href="#DejaVuSans-69" transform="translate(291.894531 0)"/>
     <use xlink:href="#DejaVuSans-6e" transform="translate(319.677734 0)"/>
     <use xlink:href="#DejaVuSans-65" transform="translate(383.056641 0)"/>
     <use xlink:href="#DejaVuSans-64" transform="translate(444.580078 0)"/>
     <use xlink:href="#DejaVuSans-20" transform="translate(508.056641 0)"/>
     <use xlink:href="#DejaVuSans-4e" transform="translate(539.84375 0)"/>
     <use xlink:href="#DejaVuSans-54" transform="translate(614.648438 0)"/>
     <use xlink:href="#DejaVuSans-54" transform="translate(673.982422 0)"/>
     <use xlink:href="#DejaVuSans-20" transform="translate(735.066406 0)"/>
     <use xlink:href="#DejaVuSans-64" transform="translate(766.853516 0)"/>
     <use xlink:href="#DejaVuSans-69" transform="translate(830.330078 0)"/>
     <use xlink:href="#DejaVuSans-73" transform="translate(858.113281 0)"/>
     <use xlink:href="#DejaVuSans-70" transform="translate(910.212891 0)"/>
     <use xlink:href="#DejaVuSans-61" transform="translate(973.689453 0)"/>
     <use xlink:href="#DejaVuSans-74" transform="translate(1034.96875 0)"/>
     <use xlink:href="#DejaVuSans-63" transform="translate(1074.177734 0)"/>
     <use xlink:href="#DejaVuSans-68" transform="translate(1129.158203 0)"/>
     <use xlink:href="#DejaVuSans-3a" transform="translate(1192.537109 0)"/>
     <use xlink:href="#DejaVuSans-20" transform="translate(1226.228516 0)"/>
     <use xlink:href="#DejaVuSans-6d" transform="translate(1258.015625 0)"/>
     <use xlink:href="#DejaVuSans-75" transform="translate(1355.427734 0)"/>
     <use xlink:href="#DejaVuSans-6c" transform="translate(1418.806641 0)"/>
     <use xlink:href="#DejaVuSans-20" transform="translate(1446.589844 0)"/>
     <use xlink:href="#DejaVuSans-2b" transform="translate(1478.376953 0)"/>
     <use xlink:href="#DejaVuSans-20" transform="translate(1562.166016 0)"/>
     <use xlink:href="#DejaVuSans-73" transform="translate(1593.953125 0)"/>
     <use xlink:href="#DejaVuSans-71" transform="translate(1646.052734 0)"/>
     <use xlink:href="#DejaVuSans-72" transform="translate(1709.529297 0)"/>
     <use xlink:href="#DejaVuSans-2c" transform="translate(1750.642578 0)"/>
     <use xlink:href="#DejaVuSans-20" transform="translate(1782.429688 0)"/>
     <use xlink:href="#DejaVuSans-31" transform="translate(1814.216797 0)"/>
     <use xlink:href="#DejaVuSans-2f" transform="translate(1877.839844 0)"/>
     <use xlink:href="#DejaVuSans-31" transform="translate(1911.53125 0)"/>
     <use xlink:href="#DejaVuSans-36" transform="translate(1975.154297 0)"/>
     <use xlink:href="#DejaVuSans-2d" transform="translate(2038.777344 0)"/>
     <use xlink:href="#DejaVuSans-6f" transform="translate(2076.736328 0)"/>
     <use xlink:href="#DejaVuSans-63" transform="translate(2137.917969 0)"/>
     <use xlink:href="#DejaVuSans-74" transform="translate(2192.898438 0)"/>
     <use xlink:href="#DejaVuSans-61" transform="translate(2232.107422 0)"/>
     <use xlink:href="#DejaVuSans-76" transform="translate(2293.386719 0)"/>
     <use xlink:href="#DejaVuSans-65" transform="translate(2352.566406 0)"/>
     <use xlink:href="#DejaVuSans-20" transform="translate(2414.089844 0)"/>
     <use xlink:href="#DejaVuSans-73" transform="translate(2445.876953 0)"/>
     <use xlink:href="#DejaVuSans-77" transform="translate(2497.976562 0)"/>
     <use xlink:href="#DejaVuSans-65" transform="translate(2579.763672 0)"/>
     <use xlink:href="#DejaVuSans-65" transform="translate(2641.287109 0)"/>
     <use xlink:href="#DejaVuSans-70" transform="translate(2702.810547 0)"/>
     <use xlink:href="#DejaVuSans-20" transform="translate(2766.287109 0)"/>
     <use xlink:href="#DejaVuSans-28" transform="translate(2798.074219 0)"/>
     <use xlink:href="#DejaVuSans-47" transform="translate(2837.087891 0)"/>
     <use xlink:href="#DejaVuSans-4d" transform="translate(2914.578125 0)"/>
     <use xlink:href="#DejaVuSans-50" transform="translate(3000.857422 0)"/>
     <use xlink:href="#DejaVuSans-2d" transform="translate(3058.910156 0)"/>
     <use xlink:href="#DejaVuSans-76" transform="translate(3092.369141 0)"/>
     <use xlink:href="#DejaVuSans-65" transform="translate(3151.548828 0)"/>
     <use xlink:href="#DejaVuSans-72" transform="translate(3213.072266 0)"/>
     <use xlink:href="#DejaVuSans-69" transform="translate(3254.185547 0)"/>
     <use xlink:href="#DejaVuSans-66" transform="translate(3281.96875 0)"/>
     <use xlink:href="#DejaVuSans-69" transform="translate(3317.173828 0)"/>
     <use xlink:href="#DejaVuSans-65" transform="translate(3344.957031 0)"/>
     <use xlink:href="#DejaVuSans-64" transform="translate(3406.480469 0)"/>
     <use xlink:href="#DejaVuSans-2c" transform="translate(3469.957031 0)"/>
     <use xlink:href="#DejaVuSans-20" transform="translate(3501.744141 0)"/>
     <use xlink:href="#DejaVuSans-5a" transform="translate(3533.53125 0)"/>
     <use xlink:href="#DejaVuSans-65" transform="translate(3602.037109 0)"/>
     <use xlink:href="#DejaVuSans-6e" transform="translate(3663.560547 0)"/>
     <use xlink:href="#DejaVuSans-35" transform="translate(3726.939453 0)"/>
     <use xlink:href="#DejaVuSans-29" transform="translate(3790.5625 0)"/>
    </g>
   </g>
   <g id="legend_1">
    <g id="patch_7">
     <path d="M 51.66 93.265 
L 227.677188 93.265 
Q 229.677188 93.265 229.677188 91.265 
L 229.677188 32.44 
Q 229.677188 30.44 227.677188 30.44 
L 51.66 30.44 
Q 49.66 30.44 49.66 32.44 
L 49.66 91.265 
Q 49.66 93.265 51.66 93.265 
z
" style="fill: #ffffff; opacity: 0.8; stroke: #cccccc; stroke-linejoin: miter"/>
    </g>
    <g id="line2d_31">
     <path d="M 53.66 38.538437 
L 63.66 38.538437 
L 73.66 38.538437 
" style="fill: none; stroke: #1f77b4; stroke-opacity: 0.65; stroke-linecap: square"/>
    </g>
    <g id="text_17">
     <!-- p30_mul (5x30-bit, AVX-512) -->
     <g transform="translate(81.66 42.038437) scale(0.1 -0.1)">
      <defs>
       <path id="DejaVuSans-5f" d="M 3263 -1063 
L 3263 -1509 
L -63 -1509 
L -63 -1063 
L 3263 -1063 
z
" transform="scale(0.015625)"/>
       <path id="DejaVuSans-78" d="M 3513 3500 
L 2247 1797 
L 3578 0 
L 2900 0 
L 1881 1375 
L 863 0 
L 184 0 
L 1544 1831 
L 300 3500 
L 978 3500 
L 1906 2253 
L 2834 3500 
L 3513 3500 
z
" transform="scale(0.015625)"/>
       <path id="DejaVuSans-41" d="M 2188 4044 
L 1331 1722 
L 3047 1722 
L 2188 4044 
z
M 1831 4666 
L 2547 4666 
L 4325 0 
L 3669 0 
L 3244 1197 
L 1141 1197 
L 716 0 
L 50 0 
L 1831 4666 
z
" transform="scale(0.015625)"/>
       <path id="DejaVuSans-56" d="M 1831 0 
L 50 4666 
L 709 4666 
L 2188 738 
L 3669 4666 
L 4325 4666 
L 2547 0 
L 1831 0 
z
" transform="scale(0.015625)"/>
       <path id="DejaVuSans-58" d="M 403 4666 
L 1081 4666 
L 2241 2931 
L 3406 4666 
L 4084 4666 
L 2584 2425 
L 4184 0 
L 3506 0 
L 2194 1984 
L 872 0 
L 191 0 
L 1856 2491 
L 403 4666 
z
" transform="scale(0.015625)"/>
      </defs>
      <use xlink:href="#DejaVuSans-70"/>
      <use xlink:href="#DejaVuSans-33" transform="translate(63.476562 0)"/>
      <use xlink:href="#DejaVuSans-30" transform="translate(127.099609 0)"/>
      <use xlink:href="#DejaVuSans-5f" transform="translate(190.722656 0)"/>
      <use xlink:href="#DejaVuSans-6d" transform="translate(240.722656 0)"/>
      <use xlink:href="#DejaVuSans-75" transform="translate(338.134766 0)"/>
      <use xlink:href="#DejaVuSans-6c" transform="translate(401.513672 0)"/>
      <use xlink:href="#DejaVuSans-20" transform="translate(429.296875 0)"/>
      <use xlink:href="#DejaVuSans-28" transform="translate(461.083984 0)"/>
      <use xlink:href="#DejaVuSans-35" transform="translate(500.097656 0)"/>
      <use xlink:href="#DejaVuSans-78" transform="translate(563.720703 0)"/>
      <use xlink:href="#DejaVuSans-33" transform="translate(622.900391 0)"/>
      <use xlink:href="#DejaVuSans-30" transform="translate(686.523438 0)"/>
      <use xlink:href="#DejaVuSans-2d" transform="translate(750.146484 0)"/>
      <use xlink:href="#DejaVuSans-62" transform="translate(786.230469 0)"/>
      <use xlink:href="#DejaVuSans-69" transform="translate(849.707031 0)"/>
      <use xlink:href="#DejaVuSans-74" transform="translate(877.490234 0)"/>
      <use xlink:href="#DejaVuSans-2c" transform="translate(916.699219 0)"/>
      <use xlink:href="#DejaVuSans-20" transform="translate(948.486328 0)"/>
      <use xlink:href="#DejaVuSans-41" transform="translate(980.273438 0)"/>
      <use xlink:href="#DejaVuSans-56" transform="translate(1042.306641 0)"/>
      <use xlink:href="#DejaVuSans-58" transform="translate(1110.714844 0)"/>
      <use xlink:href="#DejaVuSans-2d" transform="translate(1174.220703 0)"/>
      <use xlink:href="#DejaVuSans-35" transform="translate(1210.304688 0)"/>
      <use xlink:href="#DejaVuSans-31" transform="translate(1273.927734 0)"/>
      <use xlink:href="#DejaVuSans-32" transform="translate(1337.550781 0)"/>
      <use xlink:href="#DejaVuSans-29" transform="translate(1401.173828 0)"/>
     </g>
    </g>
    <g id="line2d_32">
     <path d="M 53.66 53.494687 
L 63.66 53.494687 
L 73.66 53.494687 
" style="fill: none; stroke: #ff7f0e; stroke-opacity: 0.65; stroke-linecap: square"/>
    </g>
    <g id="text_18">
     <!-- p50_mul (4x50-bit, IFMA52) -->
     <g transform="translate(81.66 56.994687) scale(0.1 -0.1)">
      <defs>
       <path id="DejaVuSans-49" d="M 628 4666 
L 1259 4666 
L 1259 0 
L 628 0 
L 628 4666 
z
" transform="scale(0.015625)"/>
       <path id="DejaVuSans-46" d="M 628 4666 
L 3309 4666 
L 3309 4134 
L 1259 4134 
L 1259 2759 
L 3109 2759 
L 3109 2228 
L 1259 2228 
L 1259 0 
L 628 0 
L 628 4666 
z
" transform="scale(0.015625)"/>
      </defs>
      <use xlink:href="#DejaVuSans-70"/>
      <use xlink:href="#DejaVuSans-35" transform="translate(63.476562 0)"/>
      <use xlink:href="#DejaVuSans-30" transform="translate(127.099609 0)"/>
      <use xlink:href="#DejaVuSans-5f" transform="translate(190.722656 0)"/>
      <use xlink:href="#DejaVuSans-6d" transform="translate(240.722656 0)"/>
      <use xlink:href="#DejaVuSans-75" transform="translate(338.134766 0)"/>
      <use xlink:href="#DejaVuSans-6c" transform="translate(401.513672 0)"/>
      <use xlink:href="#DejaVuSans-20" transform="translate(429.296875 0)"/>
      <use xlink:href="#DejaVuSans-28" transform="translate(461.083984 0)"/>
      <use xlink:href="#DejaVuSans-34" transform="translate(500.097656 0)"/>
      <use xlink:href="#DejaVuSans-78" transform="translate(563.720703 0)"/>
      <use xlink:href="#DejaVuSans-35" transform="translate(622.900391 0)"/>
      <use xlink:href="#DejaVuSans-30" transform="translate(686.523438 0)"/>
      <use xlink:href="#DejaVuSans-2d" transform="translate(750.146484 0)"/>
      <use xlink:href="#DejaVuSans-62" transform="translate(786.230469 0)"/>
      <use xlink:href="#DejaVuSans-69" transform="translate(849.707031 0)"/>
      <use xlink:href="#DejaVuSans-74" transform="translate(877.490234 0)"/>
      <use xlink:href="#DejaVuSans-2c" transform="translate(916.699219 0)"/>
      <use xlink:href="#DejaVuSans-20" transform="translate(948.486328 0)"/>
      <use xlink:href="#DejaVuSans-49" transform="translate(980.273438 0)"/>
      <use xlink:href="#DejaVuSans-46" transform="translate(1009.765625 0)"/>
      <use xlink:href="#DejaVuSans-4d" transform="translate(1067.285156 0)"/>
      <use xlink:href="#DejaVuSans-41" transform="translate(1153.564453 0)"/>
      <use xlink:href="#DejaVuSans-35" transform="translate(1221.972656 0)"/>
      <use xlink:href="#DejaVuSans-32" transform="translate(1285.595703 0)"/>
      <use xlink:href="#DejaVuSans-29" transform="translate(1349.21875 0)"/>
     </g>
    </g>
    <g id="line2d_33">
     <path d="M 53.66 68.450938 
L 63.66 68.450938 
L 73.66 68.450938 
" style="fill: none; stroke: #000000; stroke-width: 2; stroke-linecap: square"/>
    </g>
    <g id="text_19">
     <!-- nt_mul (fill-aware dispatch) -->
     <g transform="translate(81.66 71.950938) scale(0.1 -0.1)">
      <use xlink:href="#DejaVuSans-6e"/>
      <use xlink:href="#DejaVuSans-74" transform="translate(63.378906 0)"/>
      <use xlink:href="#DejaVuSans-5f" transform="translate(102.587891 0)"/>
      <use xlink:href="#DejaVuSans-6d" transform="translate(152.587891 0)"/>
      <use xlink:href="#DejaVuSans-75" transform="translate(250 0)"/>
      <use xlink:href="#DejaVuSans-6c" transform="translate(313.378906 0)"/>
      <use xlink:href="#DejaVuSans-20" transform="translate(341.162109 0)"/>
      <use xlink:href="#DejaVuSans-28" transform="translate(372.949219 0)"/>
      <use xlink:href="#DejaVuSans-66" transform="translate(411.962891 0)"/>
      <use xlink:href="#DejaVuSans-69" transform="translate(447.167969 0)"/>
      <use xlink:href="#DejaVuSans-6c" transform="translate(474.951172 0)"/>
      <use xlink:href="#DejaVuSans-6c" transform="translate(502.734375 0)"/>
      <use xlink:href="#DejaVuSans-2d" transform="translate(530.517578 0)"/>
      <use xlink:href="#DejaVuSans-61" transform="translate(566.601562 0)"/>
      <use xlink:href="#DejaVuSans-77" transform="translate(627.880859 0)"/>
      <use xlink:href="#DejaVuSans-61" transform="translate(709.667969 0)"/>
      <use xlink:href="#DejaVuSans-72" transform="translate(770.947266 0)"/>
      <use xlink:href="#DejaVuSans-65" transform="translate(809.810547 0)"/>
      <use xlink:href="#DejaVuSans-20" transform="translate(871.333984 0)"/>
      <use xlink:href="#DejaVuSans-64" transform="translate(903.121094 0)"/>
      <use xlink:href="#DejaVuSans-69" transform="translate(966.597656 0)"/>
      <use xlink:href="#DejaVuSans-73" transform="translate(994.380859 0)"/>
      <use xlink:href="#DejaVuSans-70" transform="translate(1046.480469 0)"/>
      <use xlink:href="#DejaVuSans-61" transform="translate(1109.957031 0)"/>
      <use xlink:href="#DejaVuSans-74" transform="translate(1171.236328 0)"/>
      <use xlink:href="#DejaVuSans-63" transform="translate(1210.445312 0)"/>
      <use xlink:href="#DejaVuSans-68" transform="translate(1265.425781 0)"/>
      <use xlink:href="#DejaVuSans-29" transform="translate(1328.804688 0)"/>
     </g>
    </g>
    <g id="line2d_34">
     <path d="M 53.66 83.407187 
L 63.66 83.407187 
L 73.66 83.407187 
" style="fill: none; stroke-dasharray: 5.92,2.56; stroke-dashoffset: 0; stroke: #d62728; stroke-width: 1.6"/>
    </g>
    <g id="text_20">
     <!-- nt_sqr -->
     <g transform="translate(81.66 86.907187) scale(0.1 -0.1)">
      <use xlink:href="#DejaVuSans-6e"/>
      <use xlink:href="#DejaVuSans-74" transform="translate(63.378906 0)"/>
      <use xlink:href="#DejaVuSans-5f" transform="translate(102.587891 0)"/>
      <use xlink:href="#DejaVuSans-73" transform="translate(152.587891 0)"/>
      <use xlink:href="#DejaVuSans-71" transform="translate(204.6875 0)"/>
      <use xlink:href="#DejaVuSans-72" transform="translate(268.164062 0)"/>
     </g>
    </g>
   </g>
  </g>
 </g>
 <defs>
  <clipPath id="p0b3b02cdd5">
   <rect x="44.66" y="25.44" width="736.54" height="361.288"/>
  </clipPath>
 </defs>
</svg>
