<?xml version="1.0" encoding="utf-8" standalone="no"?>
<!DOCTYPE svg PUBLIC "-//W3C//DTD SVG 1.1//EN"
  "http://www.w3.org/Graphics/SVG/1.1/DTD/svg11.dtd">
<svg xmlns:xlink="http://www.w3.org/1999/xlink" width="936pt" height="468pt" viewBox="0 0 936 468" xmlns="http://www.w3.org/2000/svg" version="1.1">
 <metadata>
  <rdf:RDF xmlns:dc="http://purl.org/dc/elements/1.1/" xmlns:cc="http://creativecommons.org/ns#" xmlns:rdf="http://www.w3.org/1999/02/22-rdf-syntax-ns#">
   <cc:Work>
    <dc:type rdf:resource="http://purl.org/dc/dcmitype/StillImage"/>
    <dc:date>2026-06-13T00:54:55.890616</dc:date>
    <dc:format>image/svg+xml</dc:format>
    <dc:creator>
     <cc:Agent>
      <dc:title>Matplotlib v3.10.7+dfsg1, https://matplotlib.org/</dc:title>
     </cc:Agent>
    </dc:creator>
   </cc:Work>
  </rdf:RDF>
 </metadata>
 <defs>
  <style type="text/css">*{stroke-linejoin: round; stroke-linecap: butt}</style>
 </defs>
 <g id="figure_1">
  <g id="patch_1">
   <path d="M 0 468 
L 936 468 
L 936 0 
L 0 0 
z
" style="fill: #ffffff"/>
  </g>
  <g id="axes_1">
   <g id="patch_2">
    <path d="M 44.66 422.728 
L 925.2 422.728 
L 925.2 25.44 
L 44.66 25.44 
z
" style="fill: #ffffff"/>
   </g>
   <g id="matplotlib.axis_1">
    <g id="xtick_1">
     <g id="line2d_1">
      <path d="M 138.050606 422.728 
L 138.050606 25.44 
" clip-path="url(#p7ebb1b23d3)" style="fill: none; stroke: #b0b0b0; stroke-opacity: 0.3; stroke-width: 0.8; stroke-linecap: square"/>
     </g>
     <g id="line2d_2">
      <defs>
       <path id="md063192aec" d="M 0 0 
L 0 3.5 
" style="stroke: #000000; stroke-width: 0.8"/>
      </defs>
      <g>
       <use xlink:href="#md063192aec" x="138.050606" y="422.728" style="stroke: #000000; stroke-width: 0.8"/>
      </g>
     </g>
     <g id="text_1">
      <!-- $\mathdefault{2^{8}}$ -->
      <g transform="translate(132.450606 437.326437) scale(0.1 -0.1)">
       <defs>
        <path id="DejaVuSans-32" d="M 1228 531 
L 3431 531 
L 3431 0 
L 469 0 
L 469 531 
Q 828 903 1448 1529 
Q 2069 2156 2228 2338 
Q 2531 2678 2651 2914 
Q 2772 3150 2772 3378 
Q 2772 3750 2511 3984 
Q 2250 4219 1831 4219 
Q 1534 4219 1204 4116 
Q 875 4013 500 3803 
L 500 4441 
Q 881 4594 1212 4672 
Q 1544 4750 1819 4750 
Q 2544 4750 2975 4387 
Q 3406 4025 3406 3419 
Q 3406 3131 3298 2873 
Q 3191 2616 2906 2266 
Q 2828 2175 2409 1742 
Q 1991 1309 1228 531 
z
" transform="scale(0.015625)"/>
        <path id="DejaVuSans-38" d="M 2034 2216 
Q 1584 2216 1326 1975 
Q 1069 1734 1069 1313 
Q 1069 891 1326 650 
Q 1584 409 2034 409 
Q 2484 409 2743 651 
Q 3003 894 3003 1313 
Q 3003 1734 2745 1975 
Q 2488 2216 2034 2216 
z
M 1403 2484 
Q 997 2584 770 2862 
Q 544 3141 544 3541 
Q 544 4100 942 4425 
Q 1341 4750 2034 4750 
Q 2731 4750 3128 4425 
Q 3525 4100 3525 3541 
Q 3525 3141 3298 2862 
Q 3072 2584 2669 2484 
Q 3125 2378 3379 2068 
Q 3634 1759 3634 1313 
Q 3634 634 3220 271 
Q 2806 -91 2034 -91 
Q 1263 -91 848 271 
Q 434 634 434 1313 
Q 434 1759 690 2068 
Q 947 2378 1403 2484 
z
M 1172 3481 
Q 1172 3119 1398 2916 
Q 1625 2713 2034 2713 
Q 2441 2713 2670 2916 
Q 2900 3119 2900 3481 
Q 2900 3844 2670 4047 
Q 2441 4250 2034 4250 
Q 1625 4250 1398 4047 
Q 1172 3844 1172 3481 
z
" transform="scale(0.015625)"/>
       </defs>
       <use xlink:href="#DejaVuSans-32" transform="translate(0 0.765625)"/>
       <use xlink:href="#DejaVuSans-38" transform="translate(64.580078 39.046875) scale(0.7)"/>
      </g>
     </g>
    </g>
    <g id="xtick_2">
     <g id="line2d_3">
      <path d="M 244.782727 422.728 
L 244.782727 25.44 
" clip-path="url(#p7ebb1b23d3)" style="fill: none; stroke: #b0b0b0; stroke-opacity: 0.3; stroke-width: 0.8; stroke-linecap: square"/>
     </g>
     <g id="line2d_4">
      <g>
       <use xlink:href="#md063192aec" x="244.782727" y="422.728" style="stroke: #000000; stroke-width: 0.8"/>
      </g>
     </g>
     <g id="text_2">
      <!-- $\mathdefault{2^{10}}$ -->
      <g transform="translate(236.932727 437.326437) scale(0.1 -0.1)">
       <defs>
        <path id="DejaVuSans-31" d="M 794 531 
L 1825 531 
L 1825 4091 
L 703 3866 
L 703 4441 
L 1819 4666 
L 2450 4666 
L 2450 531 
L 3481 531 
L 3481 0 
L 794 0 
L 794 531 
z
" transform="scale(0.015625)"/>
        <path id="DejaVuSans-30" d="M 2034 4250 
Q 1547 4250 1301 3770 
Q 1056 3291 1056 2328 
Q 1056 1369 1301 889 
Q 1547 409 2034 409 
Q 2525 409 2770 889 
Q 3016 1369 3016 2328 
Q 3016 3291 2770 3770 
Q 2525 4250 2034 4250 
z
M 2034 4750 
Q 2819 4750 3233 4129 
Q 3647 3509 3647 2328 
Q 3647 1150 3233 529 
Q 2819 -91 2034 -91 
Q 1250 -91 836 529 
Q 422 1150 422 2328 
Q 422 3509 836 4129 
Q 1250 4750 2034 4750 
z
" transform="scale(0.015625)"/>
       </defs>
       <use xlink:href="#DejaVuSans-32" transform="translate(0 0.765625)"/>
       <use xlink:href="#DejaVuSans-31" transform="translate(64.580078 39.046875) scale(0.7)"/>
       <use xlink:href="#DejaVuSans-30" transform="translate(109.116211 39.046875) scale(0.7)"/>
      </g>
     </g>
    </g>
    <g id="xtick_3">
     <g id="line2d_5">
      <path d="M 351.514848 422.728 
L 351.514848 25.44 
" clip-path="url(#p7ebb1b23d3)" style="fill: none; stroke: #b0b0b0; stroke-opacity: 0.3; stroke-width: 0.8; stroke-linecap: square"/>
     </g>
     <g id="line2d_6">
      <g>
       <use xlink:href="#md063192aec" x="351.514848" y="422.728" style="stroke: #000000; stroke-width: 0.8"/>
      </g>
     </g>
     <g id="text_3">
      <!-- $\mathdefault{2^{12}}$ -->
      <g transform="translate(343.664848 437.326437) scale(0.1 -0.1)">
       <use xlink:href="#DejaVuSans-32" transform="translate(0 0.765625)"/>
       <use xlink:href="#DejaVuSans-31" transform="translate(64.580078 39.046875) scale(0.7)"/>
       <use xlink:href="#DejaVuSans-32" transform="translate(109.116211 39.046875) scale(0.7)"/>
      </g>
     </g>
    </g>
    <g id="xtick_4">
     <g id="line2d_7">
      <path d="M 458.24697 422.728 
L 458.24697 25.44 
" clip-path="url(#p7ebb1b23d3)" style="fill: none; stroke: #b0b0b0; stroke-opacity: 0.3; stroke-width: 0.8; stroke-linecap: square"/>
     </g>
     <g id="line2d_8">
      <g>
       <use xlink:href="#md063192aec" x="458.24697" y="422.728" style="stroke: #000000; stroke-width: 0.8"/>
      </g>
     </g>
     <g id="text_4">
      <!-- $\mathdefault{2^{14}}$ -->
      <g transform="translate(450.39697 437.326437) scale(0.1 -0.1)">
       <defs>
        <path id="DejaVuSans-34" d="M 2419 4116 
L 825 1625 
L 2419 1625 
L 2419 4116 
z
M 2253 4666 
L 3047 4666 
L 3047 1625 
L 3713 1625 
L 3713 1100 
L 3047 1100 
L 3047 0 
L 2419 0 
L 2419 1100 
L 313 1100 
L 313 1709 
L 2253 4666 
z
" transform="scale(0.015625)"/>
       </defs>
       <use xlink:href="#DejaVuSans-32" transform="translate(0 0.684375)"/>
       <use xlink:href="#DejaVuSans-31" transform="translate(64.580078 38.965625) scale(0.7)"/>
       <use xlink:href="#DejaVuSans-34" transform="translate(109.116211 38.965625) scale(0.7)"/>
      </g>
     </g>
    </g>
    <g id="xtick_5">
     <g id="line2d_9">
      <path d="M 564.979091 422.728 
L 564.979091 25.44 
" clip-path="url(#p7ebb1b23d3)" style="fill: none; stroke: #b0b0b0; stroke-opacity: 0.3; stroke-width: 0.8; stroke-linecap: square"/>
     </g>
     <g id="line2d_10">
      <g>
       <use xlink:href="#md063192aec" x="564.979091" y="422.728" style="stroke: #000000; stroke-width: 0.8"/>
      </g>
     </g>
     <g id="text_5">
      <!-- $\mathdefault{2^{16}}$ -->
      <g transform="translate(557.129091 437.326437) scale(0.1 -0.1)">
       <defs>
        <path id="DejaVuSans-36" d="M 2113 2584 
Q 1688 2584 1439 2293 
Q 1191 2003 1191 1497 
Q 1191 994 1439 701 
Q 1688 409 2113 409 
Q 2538 409 2786 701 
Q 3034 994 3034 1497 
Q 3034 2003 2786 2293 
Q 2538 2584 2113 2584 
z
M 3366 4563 
L 3366 3988 
Q 3128 4100 2886 4159 
Q 2644 4219 2406 4219 
Q 1781 4219 1451 3797 
Q 1122 3375 1075 2522 
Q 1259 2794 1537 2939 
Q 1816 3084 2150 3084 
Q 2853 3084 3261 2657 
Q 3669 2231 3669 1497 
Q 3669 778 3244 343 
Q 2819 -91 2113 -91 
Q 1303 -91 875 529 
Q 447 1150 447 2328 
Q 447 3434 972 4092 
Q 1497 4750 2381 4750 
Q 2619 4750 2861 4703 
Q 3103 4656 3366 4563 
z
" transform="scale(0.015625)"/>
       </defs>
       <use xlink:href="#DejaVuSans-32" transform="translate(0 0.765625)"/>
       <use xlink:href="#DejaVuSans-31" transform="translate(64.580078 39.046875) scale(0.7)"/>
       <use xlink:href="#DejaVuSans-36" transform="translate(109.116211 39.046875) scale(0.7)"/>
      </g>
     </g>
    </g>
    <g id="xtick_6">
     <g id="line2d_11">
      <path d="M 671.711212 422.728 
L 671.711212 25.44 
" clip-path="url(#p7ebb1b23d3)" style="fill: none; stroke: #b0b0b0; stroke-opacity: 0.3; stroke-width: 0.8; stroke-linecap: square"/>
     </g>
     <g id="line2d_12">
      <g>
       <use xlink:href="#md063192aec" x="671.711212" y="422.728" style="stroke: #000000; stroke-width: 0.8"/>
      </g>
     </g>
     <g id="text_6">
      <!-- $\mathdefault{2^{18}}$ -->
      <g transform="translate(663.861212 437.326437) scale(0.1 -0.1)">
       <use xlink:href="#DejaVuSans-32" transform="translate(0 0.765625)"/>
       <use xlink:href="#DejaVuSans-31" transform="translate(64.580078 39.046875) scale(0.7)"/>
       <use xlink:href="#DejaVuSans-38" transform="translate(109.116211 39.046875) scale(0.7)"/>
      </g>
     </g>
    </g>
    <g id="xtick_7">
     <g id="line2d_13">
      <path d="M 778.443333 422.728 
L 778.443333 25.44 
" clip-path="url(#p7ebb1b23d3)" style="fill: none; stroke: #b0b0b0; stroke-opacity: 0.3; stroke-width: 0.8; stroke-linecap: square"/>
     </g>
     <g id="line2d_14">
      <g>
       <use xlink:href="#md063192aec" x="778.443333" y="422.728" style="stroke: #000000; stroke-width: 0.8"/>
      </g>
     </g>
     <g id="text_7">
      <!-- $\mathdefault{2^{20}}$ -->
      <g transform="translate(770.593333 437.326437) scale(0.1 -0.1)">
       <use xlink:href="#DejaVuSans-32" transform="translate(0 0.765625)"/>
       <use xlink:href="#DejaVuSans-32" transform="translate(64.580078 39.046875) scale(0.7)"/>
       <use xlink:href="#DejaVuSans-30" transform="translate(109.116211 39.046875) scale(0.7)"/>
      </g>
     </g>
    </g>
    <g id="xtick_8">
     <g id="line2d_15">
      <path d="M 885.175455 422.728 
L 885.175455 25.44 
" clip-path="url(#p7ebb1b23d3)" style="fill: none; stroke: #b0b0b0; stroke-opacity: 0.3; stroke-width: 0.8; stroke-linecap: square"/>
     </g>
     <g id="line2d_16">
      <g>
       <use xlink:href="#md063192aec" x="885.175455" y="422.728" style="stroke: #000000; stroke-width: 0.8"/>
      </g>
     </g>
     <g id="text_8">
      <!-- $\mathdefault{2^{22}}$ -->
      <g transform="translate(877.325455 437.326437) scale(0.1 -0.1)">
       <use xlink:href="#DejaVuSans-32" transform="translate(0 0.765625)"/>
       <use xlink:href="#DejaVuSans-32" transform="translate(64.580078 39.046875) scale(0.7)"/>
       <use xlink:href="#DejaVuSans-32" transform="translate(109.116211 39.046875) scale(0.7)"/>
      </g>
     </g>
    </g>
    <g id="text_9">
     <!-- n (u64 limbs, balanced an = bn = n) -->
     <g transform="translate(393.615156 451.004563) scale(0.1 -0.1)">
      <defs>
       <path id="DejaVuSans-6e" d="M 3513 2113 
L 3513 0 
L 2938 0 
L 2938 2094 
Q 2938 2591 2744 2837 
Q 2550 3084 2163 3084 
Q 1697 3084 1428 2787 
Q 1159 2491 1159 1978 
L 1159 0 
L 581 0 
L 581 3500 
L 1159 3500 
L 1159 2956 
Q 1366 3272 1645 3428 
Q 1925 3584 2291 3584 
Q 2894 3584 3203 3211 
Q 3513 2838 3513 2113 
z
" transform="scale(0.015625)"/>
       <path id="DejaVuSans-20" transform="scale(0.015625)"/>
       <path id="DejaVuSans-28" d="M 1984 4856 
Q 1566 4138 1362 3434 
Q 1159 2731 1159 2009 
Q 1159 1288 1364 580 
Q 1569 -128 1984 -844 
L 1484 -844 
Q 1016 -109 783 600 
Q 550 1309 550 2009 
Q 550 2706 781 3412 
Q 1013 4119 1484 4856 
L 1984 4856 
z
" transform="scale(0.015625)"/>
       <path id="DejaVuSans-75" d="M 544 1381 
L 544 3500 
L 1119 3500 
L 1119 1403 
Q 1119 906 1312 657 
Q 1506 409 1894 409 
Q 2359 409 2629 706 
Q 2900 1003 2900 1516 
L 2900 3500 
L 3475 3500 
L 3475 0 
L 2900 0 
L 2900 538 
Q 2691 219 2414 64 
Q 2138 -91 1772 -91 
Q 1169 -91 856 284 
Q 544 659 544 1381 
z
M 1991 3584 
L 1991 3584 
z
" transform="scale(0.015625)"/>
       <path id="DejaVuSans-6c" d="M 603 4863 
L 1178 4863 
L 1178 0 
L 603 0 
L 603 4863 
z
" transform="scale(0.015625)"/>
       <path id="DejaVuSans-69" d="M 603 3500 
L 1178 3500 
L 1178 0 
L 603 0 
L 603 3500 
z
M 603 4863 
L 1178 4863 
L 1178 4134 
L 603 4134 
L 603 4863 
z
" transform="scale(0.015625)"/>
       <path id="DejaVuSans-6d" d="M 3328 2828 
Q 3544 3216 3844 3400 
Q 4144 3584 4550 3584 
Q 5097 3584 5394 3201 
Q 5691 2819 5691 2113 
L 5691 0 
L 5113 0 
L 5113 2094 
Q 5113 2597 4934 2840 
Q 4756 3084 4391 3084 
Q 3944 3084 3684 2787 
Q 3425 2491 3425 1978 
L 3425 0 
L 2847 0 
L 2847 2094 
Q 2847 2600 2669 2842 
Q 2491 3084 2119 3084 
Q 1678 3084 1418 2786 
Q 1159 2488 1159 1978 
L 1159 0 
L 581 0 
L 581 3500 
L 1159 3500 
L 1159 2956 
Q 1356 3278 1631 3431 
Q 1906 3584 2284 3584 
Q 2666 3584 2933 3390 
Q 3200 3197 3328 2828 
z
" transform="scale(0.015625)"/>
       <path id="DejaVuSans-62" d="M 3116 1747 
Q 3116 2381 2855 2742 
Q 2594 3103 2138 3103 
Q 1681 3103 1420 2742 
Q 1159 2381 1159 1747 
Q 1159 1113 1420 752 
Q 1681 391 2138 391 
Q 2594 391 2855 752 
Q 3116 1113 3116 1747 
z
M 1159 2969 
Q 1341 3281 1617 3432 
Q 1894 3584 2278 3584 
Q 2916 3584 3314 3078 
Q 3713 2572 3713 1747 
Q 3713 922 3314 415 
Q 2916 -91 2278 -91 
Q 1894 -91 1617 61 
Q 1341 213 1159 525 
L 1159 0 
L 581 0 
L 581 4863 
L 1159 4863 
L 1159 2969 
z
" transform="scale(0.015625)"/>
       <path id="DejaVuSans-73" d="M 2834 3397 
L 2834 2853 
Q 2591 2978 2328 3040 
Q 2066 3103 1784 3103 
Q 1356 3103 1142 2972 
Q 928 2841 928 2578 
Q 928 2378 1081 2264 
Q 1234 2150 1697 2047 
L 1894 2003 
Q 2506 1872 2764 1633 
Q 3022 1394 3022 966 
Q 3022 478 2636 193 
Q 2250 -91 1575 -91 
Q 1294 -91 989 -36 
Q 684 19 347 128 
L 347 722 
Q 666 556 975 473 
Q 1284 391 1588 391 
Q 1994 391 2212 530 
Q 2431 669 2431 922 
Q 2431 1156 2273 1281 
Q 2116 1406 1581 1522 
L 1381 1569 
Q 847 1681 609 1914 
Q 372 2147 372 2553 
Q 372 3047 722 3315 
Q 1072 3584 1716 3584 
Q 2034 3584 2315 3537 
Q 2597 3491 2834 3397 
z
" transform="scale(0.015625)"/>
       <path id="DejaVuSans-2c" d="M 750 794 
L 1409 794 
L 1409 256 
L 897 -744 
L 494 -744 
L 750 256 
L 750 794 
z
" transform="scale(0.015625)"/>
       <path id="DejaVuSans-61" d="M 2194 1759 
Q 1497 1759 1228 1600 
Q 959 1441 959 1056 
Q 959 750 1161 570 
Q 1363 391 1709 391 
Q 2188 391 2477 730 
Q 2766 1069 2766 1631 
L 2766 1759 
L 2194 1759 
z
M 3341 1997 
L 3341 0 
L 2766 0 
L 2766 531 
Q 2569 213 2275 61 
Q 1981 -91 1556 -91 
Q 1019 -91 701 211 
Q 384 513 384 1019 
Q 384 1609 779 1909 
Q 1175 2209 1959 2209 
L 2766 2209 
L 2766 2266 
Q 2766 2663 2505 2880 
Q 2244 3097 1772 3097 
Q 1472 3097 1187 3025 
Q 903 2953 641 2809 
L 641 3341 
Q 956 3463 1253 3523 
Q 1550 3584 1831 3584 
Q 2591 3584 2966 3190 
Q 3341 2797 3341 1997 
z
" transform="scale(0.015625)"/>
       <path id="DejaVuSans-63" d="M 3122 3366 
L 3122 2828 
Q 2878 2963 2633 3030 
Q 2388 3097 2138 3097 
Q 1578 3097 1268 2742 
Q 959 2388 959 1747 
Q 959 1106 1268 751 
Q 1578 397 2138 397 
Q 2388 397 2633 464 
Q 2878 531 3122 666 
L 3122 134 
Q 2881 22 2623 -34 
Q 2366 -91 2075 -91 
Q 1284 -91 818 406 
Q 353 903 353 1747 
Q 353 2603 823 3093 
Q 1294 3584 2113 3584 
Q 2378 3584 2631 3529 
Q 2884 3475 3122 3366 
z
" transform="scale(0.015625)"/>
       <path id="DejaVuSans-65" d="M 3597 1894 
L 3597 1613 
L 953 1613 
Q 991 1019 1311 708 
Q 1631 397 2203 397 
Q 2534 397 2845 478 
Q 3156 559 3463 722 
L 3463 178 
Q 3153 47 2828 -22 
Q 2503 -91 2169 -91 
Q 1331 -91 842 396 
Q 353 884 353 1716 
Q 353 2575 817 3079 
Q 1281 3584 2069 3584 
Q 2775 3584 3186 3129 
Q 3597 2675 3597 1894 
z
M 3022 2063 
Q 3016 2534 2758 2815 
Q 2500 3097 2075 3097 
Q 1594 3097 1305 2825 
Q 1016 2553 972 2059 
L 3022 2063 
z
" transform="scale(0.015625)"/>
       <path id="DejaVuSans-64" d="M 2906 2969 
L 2906 4863 
L 3481 4863 
L 3481 0 
L 2906 0 
L 2906 525 
Q 2725 213 2448 61 
Q 2172 -91 1784 -91 
Q 1150 -91 751 415 
Q 353 922 353 1747 
Q 353 2572 751 3078 
Q 1150 3584 1784 3584 
Q 2172 3584 2448 3432 
Q 2725 3281 2906 2969 
z
M 947 1747 
Q 947 1113 1208 752 
Q 1469 391 1925 391 
Q 2381 391 2643 752 
Q 2906 1113 2906 1747 
Q 2906 2381 2643 2742 
Q 2381 3103 1925 3103 
Q 1469 3103 1208 2742 
Q 947 2381 947 1747 
z
" transform="scale(0.015625)"/>
       <path id="DejaVuSans-3d" d="M 678 2906 
L 4684 2906 
L 4684 2381 
L 678 2381 
L 678 2906 
z
M 678 1631 
L 4684 1631 
L 4684 1100 
L 678 1100 
L 678 1631 
z
" transform="scale(0.015625)"/>
       <path id="DejaVuSans-29" d="M 513 4856 
L 1013 4856 
Q 1481 4119 1714 3412 
Q 1947 2706 1947 2009 
Q 1947 1309 1714 600 
Q 1481 -109 1013 -844 
L 513 -844 
Q 928 -128 1133 580 
Q 1338 1288 1338 2009 
Q 1338 2731 1133 3434 
Q 928 4138 513 4856 
z
" transform="scale(0.015625)"/>
      </defs>
      <use xlink:href="#DejaVuSans-6e"/>
      <use xlink:href="#DejaVuSans-20" transform="translate(63.378906 0)"/>
      <use xlink:href="#DejaVuSans-28" transform="translate(95.166016 0)"/>
      <use xlink:href="#DejaVuSans-75" transform="translate(134.179688 0)"/>
      <use xlink:href="#DejaVuSans-36" transform="translate(197.558594 0)"/>
      <use xlink:href="#DejaVuSans-34" transform="translate(261.181641 0)"/>
      <use xlink:href="#DejaVuSans-20" transform="translate(324.804688 0)"/>
      <use xlink:href="#DejaVuSans-6c" transform="translate(356.591797 0)"/>
      <use xlink:href="#DejaVuSans-69" transform="translate(384.375 0)"/>
      <use xlink:href="#DejaVuSans-6d" transform="translate(412.158203 0)"/>
      <use xlink:href="#DejaVuSans-62" transform="translate(509.570312 0)"/>
      <use xlink:href="#DejaVuSans-73" transform="translate(573.046875 0)"/>
      <use xlink:href="#DejaVuSans-2c" transform="translate(625.146484 0)"/>
      <use xlink:href="#DejaVuSans-20" transform="translate(656.933594 0)"/>
      <use xlink:href="#DejaVuSans-62" transform="translate(688.720703 0)"/>
      <use xlink:href="#DejaVuSans-61" transform="translate(752.197266 0)"/>
      <use xlink:href="#DejaVuSans-6c" transform="translate(813.476562 0)"/>
      <use xlink:href="#DejaVuSans-61" transform="translate(841.259766 0)"/>
      <use xlink:href="#DejaVuSans-6e" transform="translate(902.539062 0)"/>
      <use xlink:href="#DejaVuSans-63" transform="translate(965.917969 0)"/>
      <use xlink:href="#DejaVuSans-65" transform="translate(1020.898438 0)"/>
      <use xlink:href="#DejaVuSans-64" transform="translate(1082.421875 0)"/>
      <use xlink:href="#DejaVuSans-20" transform="translate(1145.898438 0)"/>
      <use xlink:href="#DejaVuSans-61" transform="translate(1177.685547 0)"/>
      <use xlink:href="#DejaVuSans-6e" transform="translate(1238.964844 0)"/>
      <use xlink:href="#DejaVuSans-20" transform="translate(1302.34375 0)"/>
      <use xlink:href="#DejaVuSans-3d" transform="translate(1334.130859 0)"/>
      <use xlink:href="#DejaVuSans-20" transform="translate(1417.919922 0)"/>
      <use xlink:href="#DejaVuSans-62" transform="translate(1449.707031 0)"/>
      <use xlink:href="#DejaVuSans-6e" transform="translate(1513.183594 0)"/>
      <use xlink:href="#DejaVuSans-20" transform="translate(1576.5625 0)"/>
      <use xlink:href="#DejaVuSans-3d" transform="translate(1608.349609 0)"/>
      <use xlink:href="#DejaVuSans-20" transform="translate(1692.138672 0)"/>
      <use xlink:href="#DejaVuSans-6e" transform="translate(1723.925781 0)"/>
      <use xlink:href="#DejaVuSans-29" transform="translate(1787.304688 0)"/>
     </g>
    </g>
   </g>
   <g id="matplotlib.axis_2">
    <g id="ytick_1">
     <g id="line2d_17">
      <path d="M 44.66 422.728 
L 925.2 422.728 
" clip-path="url(#p7ebb1b23d3)" style="fill: none; stroke: #b0b0b0; stroke-opacity: 0.3; stroke-width: 0.8; stroke-linecap: square"/>
     </g>
     <g id="line2d_18">
      <defs>
       <path id="mc700fa7e76" d="M 0 0 
L -3.5 0 
" style="stroke: #000000; stroke-width: 0.8"/>
      </defs>
      <g>
       <use xlink:href="#mc700fa7e76" x="44.66" y="422.728" style="stroke: #000000; stroke-width: 0.8"/>
      </g>
     </g>
     <g id="text_10">
      <!-- 0 -->
      <g transform="translate(31.2975 426.527219) scale(0.1 -0.1)">
       <use xlink:href="#DejaVuSans-30"/>
      </g>
     </g>
    </g>
    <g id="ytick_2">
     <g id="line2d_19">
      <path d="M 44.66 337.977828 
L 925.2 337.977828 
" clip-path="url(#p7ebb1b23d3)" style="fill: none; stroke: #b0b0b0; stroke-opacity: 0.3; stroke-width: 0.8; stroke-linecap: square"/>
     </g>
     <g id="line2d_20">
      <g>
       <use xlink:href="#mc700fa7e76" x="44.66" y="337.977828" style="stroke: #000000; stroke-width: 0.8"/>
      </g>
     </g>
     <g id="text_11">
      <!-- 20 -->
      <g transform="translate(24.935 341.777047) scale(0.1 -0.1)">
       <use xlink:href="#DejaVuSans-32"/>
       <use xlink:href="#DejaVuSans-30" transform="translate(63.623047 0)"/>
      </g>
     </g>
    </g>
    <g id="ytick_3">
     <g id="line2d_21">
      <path d="M 44.66 253.227656 
L 925.2 253.227656 
" clip-path="url(#p7ebb1b23d3)" style="fill: none; stroke: #b0b0b0; stroke-opacity: 0.3; stroke-width: 0.8; stroke-linecap: square"/>
     </g>
     <g id="line2d_22">
      <g>
       <use xlink:href="#mc700fa7e76" x="44.66" y="253.227656" style="stroke: #000000; stroke-width: 0.8"/>
      </g>
     </g>
     <g id="text_12">
      <!-- 40 -->
      <g transform="translate(24.935 257.026875) scale(0.1 -0.1)">
       <use xlink:href="#DejaVuSans-34"/>
       <use xlink:href="#DejaVuSans-30" transform="translate(63.623047 0)"/>
      </g>
     </g>
    </g>
    <g id="ytick_4">
     <g id="line2d_23">
      <path d="M 44.66 168.477484 
L 925.2 168.477484 
" clip-path="url(#p7ebb1b23d3)" style="fill: none; stroke: #b0b0b0; stroke-opacity: 0.3; stroke-width: 0.8; stroke-linecap: square"/>
     </g>
     <g id="line2d_24">
      <g>
       <use xlink:href="#mc700fa7e76" x="44.66" y="168.477484" style="stroke: #000000; stroke-width: 0.8"/>
      </g>
     </g>
     <g id="text_13">
      <!-- 60 -->
      <g transform="translate(24.935 172.276703) scale(0.1 -0.1)">
       <use xlink:href="#DejaVuSans-36"/>
       <use xlink:href="#DejaVuSans-30" transform="translate(63.623047 0)"/>
      </g>
     </g>
    </g>
    <g id="ytick_5">
     <g id="line2d_25">
      <path d="M 44.66 83.727312 
L 925.2 83.727312 
" clip-path="url(#p7ebb1b23d3)" style="fill: none; stroke: #b0b0b0; stroke-opacity: 0.3; stroke-width: 0.8; stroke-linecap: square"/>
     </g>
     <g id="line2d_26">
      <g>
       <use xlink:href="#mc700fa7e76" x="44.66" y="83.727312" style="stroke: #000000; stroke-width: 0.8"/>
      </g>
     </g>
     <g id="text_14">
      <!-- 80 -->
      <g transform="translate(24.935 87.526531) scale(0.1 -0.1)">
       <use xlink:href="#DejaVuSans-38"/>
       <use xlink:href="#DejaVuSans-30" transform="translate(63.623047 0)"/>
      </g>
     </g>
    </g>
    <g id="text_15">
     <!-- ns / input limb -->
     <g transform="translate(18.855312 259.992594) rotate(-90) scale(0.1 -0.1)">
      <defs>
       <path id="DejaVuSans-2f" d="M 1625 4666 
L 2156 4666 
L 531 -594 
L 0 -594 
L 1625 4666 
z
" transform="scale(0.015625)"/>
       <path id="DejaVuSans-70" d="M 1159 525 
L 1159 -1331 
L 581 -1331 
L 581 3500 
L 1159 3500 
L 1159 2969 
Q 1341 3281 1617 3432 
Q 1894 3584 2278 3584 
Q 2916 3584 3314 3078 
Q 3713 2572 3713 1747 
Q 3713 922 3314 415 
Q 2916 -91 2278 -91 
Q 1894 -91 1617 61 
Q 1341 213 1159 525 
z
M 3116 1747 
Q 3116 2381 2855 2742 
Q 2594 3103 2138 3103 
Q 1681 3103 1420 2742 
Q 1159 2381 1159 1747 
Q 1159 1113 1420 752 
Q 1681 391 2138 391 
Q 2594 391 2855 752 
Q 3116 1113 3116 1747 
z
" transform="scale(0.015625)"/>
       <path id="DejaVuSans-74" d="M 1172 4494 
L 1172 3500 
L 2356 3500 
L 2356 3053 
L 1172 3053 
L 1172 1153 
Q 1172 725 1289 603 
Q 1406 481 1766 481 
L 2356 481 
L 2356 0 
L 1766 0 
Q 1100 0 847 248 
Q 594 497 594 1153 
L 594 3053 
L 172 3053 
L 172 3500 
L 594 3500 
L 594 4494 
L 1172 4494 
z
" transform="scale(0.015625)"/>
      </defs>
      <use xlink:href="#DejaVuSans-6e"/>
      <use xlink:href="#DejaVuSans-73" transform="translate(63.378906 0)"/>
      <use xlink:href="#DejaVuSans-20" transform="translate(115.478516 0)"/>
      <use xlink:href="#DejaVuSans-2f" transform="translate(147.265625 0)"/>
      <use xlink:href="#DejaVuSans-20" transform="translate(180.957031 0)"/>
      <use xlink:href="#DejaVuSans-69" transform="translate(212.744141 0)"/>
      <use xlink:href="#DejaVuSans-6e" transform="translate(240.527344 0)"/>
      <use xlink:href="#DejaVuSans-70" transform="translate(303.90625 0)"/>
      <use xlink:href="#DejaVuSans-75" transform="translate(367.382812 0)"/>
      <use xlink:href="#DejaVuSans-74" transform="translate(430.761719 0)"/>
      <use xlink:href="#DejaVuSans-20" transform="translate(469.970703 0)"/>
      <use xlink:href="#DejaVuSans-6c" transform="translate(501.757812 0)"/>
      <use xlink:href="#DejaVuSans-69" transform="translate(529.541016 0)"/>
      <use xlink:href="#DejaVuSans-6d" transform="translate(557.324219 0)"/>
      <use xlink:href="#DejaVuSans-62" transform="translate(654.736328 0)"/>
     </g>
    </g>
   </g>
   <g id="line2d_27">
    <path d="M 84.684545 369.337934 
L 88.211465 350.965792 
L 91.583871 353.633727 
L 97.91546 357.987344 
L 101.381876 360.172203 
L 104.698922 351.910756 
L 107.878942 354.281219 
L 114.689209 358.854762 
L 117.881001 352.111614 
L 121.320374 354.760057 
L 124.61265 357.069923 
L 131.460802 361.531172 
L 138.050606 365.259332 
L 141.289709 347.994027 
L 148.180795 353.344729 
L 154.747937 358.02082 
L 158.064983 349.706828 
L 161.467199 352.334931 
L 164.725412 354.470212 
L 168.055269 356.893219 
L 171.442222 349.908957 
L 178.157552 354.851587 
L 181.478902 357.327564 
L 191.416667 363.567719 
L 194.799812 346.629126 
L 198.040532 349.211887 
L 208.113997 356.536421 
L 211.431044 343.81203 
L 214.722241 346.540562 
L 221.42133 351.787445 
L 224.808283 342.823843 
L 231.434244 348.271584 
L 241.479866 355.944441 
L 244.782727 358.146674 
L 248.093885 340.797043 
L 251.47555 343.844235 
L 258.140168 349.197903 
L 261.480058 351.863296 
L 264.797104 342.388227 
L 274.787391 350.384406 
L 278.125599 341.701751 
L 284.800305 347.291872 
L 288.125431 349.940315 
L 294.806675 354.862181 
L 298.148788 357.238152 
L 301.495948 338.520229 
L 304.80714 341.581829 
L 311.474616 347.208817 
L 314.815849 348.84619 
L 318.163165 334.61706 
L 324.823594 340.688139 
L 328.178907 343.570492 
L 331.49166 335.256924 
L 334.83132 338.546502 
L 338.166365 341.605135 
L 341.512898 341.405125 
L 348.172736 346.974059 
L 351.514848 349.688607 
L 354.84401 330.329549 
L 364.856485 340.091497 
L 368.197046 343.065381 
L 371.529226 331.558003 
L 378.202946 338.173601 
L 381.532241 341.006375 
L 384.86991 327.861624 
L 391.543603 334.709014 
L 394.878959 335.782375 
L 398.209156 339.005848 
L 401.548611 342.033124 
L 404.880909 344.876916 
L 408.21907 325.61532 
L 414.887404 332.700859 
L 418.222545 335.695082 
L 421.555539 338.94398 
L 424.895286 319.922228 
L 428.228134 323.64615 
L 431.562361 328.641325 
L 434.898301 332.934345 
L 438.23597 325.947117 
L 441.569277 331.536391 
L 444.904075 334.729354 
L 448.239668 328.886253 
L 451.575217 332.399995 
L 454.909765 335.435323 
L 458.24697 338.847789 
L 461.580631 319.034046 
L 464.91825 322.629572 
L 468.253465 326.397565 
L 471.588606 329.637987 
L 474.925383 333.065708 
L 478.257723 320.748966 
L 481.594195 324.371612 
L 484.928422 327.807384 
L 488.264362 331.046535 
L 491.602031 318.073826 
L 498.270136 325.821687 
L 501.605729 323.167312 
L 504.941277 326.881912 
L 508.278279 330.230815 
L 511.61303 333.790322 
L 514.948942 297.77277 
L 518.284311 301.303462 
L 521.619526 305.184596 
L 528.289552 311.686206 
L 531.625596 289.950329 
L 538.296144 298.291018 
L 541.632013 302.097148 
L 544.966568 297.324018 
L 548.302858 301.029719 
L 551.637593 304.431591 
L 554.973127 302.888714 
L 561.643113 310.176805 
L 564.979091 313.418923 
L 568.315002 285.603493 
L 574.985586 294.110292 
L 578.320727 298.080837 
L 581.655613 301.85222 
L 584.991656 285.77596 
L 591.662204 293.991641 
L 594.997279 297.679545 
L 598.332628 284.538607 
L 601.668189 288.862985 
L 605.003654 289.891428 
L 608.339188 279.851923 
L 611.67468 282.004153 
L 615.009787 295.067545 
L 618.345152 298.664766 
L 618.345152 298.664766 
" clip-path="url(#p7ebb1b23d3)" style="fill: none; stroke: #7f7f7f; stroke-opacity: 0.7; stroke-width: 0.9; stroke-linecap: square"/>
   </g>
   <g id="line2d_28">
    <path d="M 564.979091 233.436372 
L 568.315002 231.30321 
L 571.650371 235.625893 
L 574.985586 217.506306 
L 578.320727 218.194901 
L 581.655613 219.149612 
L 584.991656 109.349408 
L 588.326316 114.418316 
L 591.662204 115.72135 
L 594.997279 217.079165 
L 598.332628 218.620771 
L 601.668189 219.720404 
L 605.003654 221.835769 
L 608.339188 225.560539 
L 611.67468 223.689255 
L 615.009787 223.130751 
L 618.345152 220.711981 
L 621.6805 224.304541 
L 625.015893 226.763144 
L 628.351131 207.016777 
L 631.686788 207.464258 
L 635.022146 207.199838 
L 638.357264 93.360864 
L 641.69281 97.056819 
L 645.028265 98.990818 
L 648.363737 198.156147 
L 651.69907 197.193809 
L 655.034249 199.16764 
L 658.369714 200.396941 
L 661.704914 199.060007 
L 665.04042 200.846117 
L 668.375847 201.398265 
L 671.711212 203.385232 
L 675.046561 205.499749 
L 678.381954 207.812158 
L 681.71745 185.790673 
L 685.052848 188.050113 
L 688.388207 188.400555 
L 691.723551 81.158534 
L 695.058871 84.308698 
L 698.394325 86.025737 
L 701.729599 179.089477 
L 705.06494 180.632778 
L 708.40031 183.396481 
L 711.735775 184.135078 
L 715.071142 186.178405 
L 718.406481 188.913717 
L 721.741908 188.945074 
L 725.077273 190.45278 
L 728.412622 189.027282 
L 731.748014 193.528364 
L 735.083381 165.539619 
L 738.418785 175.11427 
L 741.754149 177.750424 
L 745.089498 73.097098 
L 748.424932 75.153985 
L 751.760282 76.867633 
L 755.095659 166.152363 
L 758.431096 164.415408 
L 761.766462 167.256658 
L 765.101836 168.347393 
L 768.437203 168.889794 
L 771.772541 170.104264 
L 775.107969 169.741109 
L 778.443333 169.372022 
L 781.778682 169.836453 
L 785.114075 160.248666 
L 788.449442 160.917769 
L 791.784846 161.283466 
L 795.12021 163.740373 
L 798.455616 59.614193 
L 801.790992 61.772356 
L 805.126343 61.483782 
L 808.46172 159.74186 
L 811.797109 161.900023 
L 815.132522 164.753138 
L 818.467896 166.65366 
L 821.803263 163.995471 
L 825.138642 164.359473 
L 828.474029 165.523517 
L 831.809394 165.616742 
L 835.144778 161.644925 
L 838.480136 145.883512 
L 841.815535 148.290841 
L 845.150907 149.527346 
L 848.4863 153.706377 
L 851.821676 42.847219 
L 855.157053 46.038487 
L 858.492429 48.587348 
L 861.827805 142.643513 
L 865.163193 145.774608 
L 868.49856 148.848497 
L 871.833935 150.476971 
L 875.169324 144.744893 
L 878.504702 147.369183 
L 881.840071 144.64955 
L 885.175455 144.109267 
" clip-path="url(#p7ebb1b23d3)" style="fill: none; stroke: #9467bd; stroke-opacity: 0.8; stroke-width: 0.9; stroke-linecap: square"/>
   </g>
   <g id="line2d_29">
    <path d="M 84.684545 386.802402 
L 88.211465 376.894683 
L 91.583871 379.088865 
L 94.814734 380.857178 
L 97.91546 382.332678 
L 101.381876 384.209047 
L 104.698922 383.187384 
L 107.878942 384.812468 
L 114.689209 388.023652 
L 117.881001 379.213024 
L 124.61265 382.921692 
L 128.112842 386.638411 
L 134.669222 389.558054 
L 138.050606 390.991603 
L 141.289709 374.46532 
L 144.674472 376.703995 
L 151.281521 380.518601 
L 154.747937 382.435649 
L 158.064983 381.294488 
L 161.467199 383.056021 
L 164.725412 384.920525 
L 168.055269 386.555355 
L 171.442222 377.390048 
L 174.686435 379.467698 
L 178.157552 381.4178 
L 181.478902 384.188707 
L 188.035283 387.43591 
L 191.416667 388.858441 
L 194.799812 372.391059 
L 201.414909 376.609075 
L 208.113997 380.558433 
L 211.431044 379.564737 
L 214.722241 381.408477 
L 221.42133 384.848063 
L 224.808283 375.534443 
L 231.434244 379.446935 
L 234.75937 381.673322 
L 238.110974 383.443329 
L 241.479866 384.870098 
L 244.782727 386.766383 
L 248.093885 370.092634 
L 261.480058 378.426119 
L 264.797104 376.445931 
L 271.457533 380.287233 
L 274.787391 382.088598 
L 278.125599 373.119911 
L 281.46526 375.324686 
L 284.800305 377.153171 
L 288.125431 378.510445 
L 294.806675 382.299625 
L 298.148788 383.998019 
L 301.495948 367.466227 
L 308.14703 372.035532 
L 314.815849 376.212444 
L 318.163165 373.47459 
L 321.509892 375.777676 
L 324.823594 377.875243 
L 328.178907 379.707541 
L 331.49166 371.121925 
L 334.83132 373.024567 
L 338.166365 375.454778 
L 341.512898 375.678518 
L 348.172736 379.638046 
L 351.514848 381.403392 
L 354.84401 364.086814 
L 358.190438 366.713221 
L 361.513091 369.044699 
L 368.197046 373.500439 
L 371.529226 369.395988 
L 381.532241 376.061589 
L 384.86991 365.227127 
L 391.543603 370.206623 
L 394.878959 367.118327 
L 404.880909 373.826303 
L 408.21907 359.614971 
L 411.54788 362.390115 
L 414.887404 365.013557 
L 418.222545 363.502885 
L 421.555539 370.500707 
L 424.895286 365.997506 
L 428.228134 367.25647 
L 431.562361 370.661308 
L 434.898301 373.194491 
L 438.23597 363.428305 
L 444.904075 368.474754 
L 448.239668 367.975999 
L 451.575217 370.301544 
L 458.24697 374.693298 
L 461.580631 356.717786 
L 464.91825 359.242917 
L 468.253465 362.12739 
L 471.588606 364.832615 
L 474.925383 367.254351 
L 478.257723 362.134593 
L 481.594195 364.883041 
L 484.928422 367.332745 
L 488.264362 369.610406 
L 491.602031 356.117755 
L 498.270136 361.667196 
L 501.605729 363.979605 
L 504.941277 366.746698 
L 508.278279 369.023935 
L 511.61303 371.438043 
L 514.948942 303.201019 
L 521.619526 318.300109 
L 524.954666 325.156822 
L 528.289552 331.065604 
L 531.625596 330.303276 
L 534.960255 334.995046 
L 538.296144 338.25708 
L 541.632013 342.405177 
L 544.966568 319.726879 
L 548.302858 323.888536 
L 551.637593 327.828571 
L 554.973127 329.675701 
L 558.308619 333.105117 
L 561.643113 337.425681 
L 564.979091 341.030105 
L 568.315002 298.638069 
L 571.650371 313.826572 
L 574.985586 318.638686 
L 578.320727 321.092204 
L 581.655613 327.050988 
L 584.991656 322.517278 
L 588.326316 325.933134 
L 591.662204 331.486812 
L 594.997279 333.675909 
L 598.332628 305.834207 
L 601.668189 308.830973 
L 605.003654 314.132943 
L 608.339188 297.544368 
L 611.67468 306.544837 
L 615.009787 309.600928 
L 618.345152 316.527136 
L 618.345152 316.527136 
" clip-path="url(#p7ebb1b23d3)" style="fill: none; stroke: #1f77b4; stroke-linecap: square"/>
   </g>
   <g id="line2d_30">
    <path d="M 298.148788 334.314078 
L 301.495948 327.495927 
L 304.80714 333.180121 
L 308.14703 336.348506 
L 311.474616 339.660966 
L 314.815849 330.150726 
L 318.163165 331.16688 
L 321.509892 333.151729 
L 324.823594 335.346759 
L 328.178907 335.995098 
L 331.49166 335.259043 
L 334.83132 335.620926 
L 338.166365 335.837039 
L 341.512898 342.672564 
L 344.843096 341.667851 
L 348.172736 339.953355 
L 351.514848 333.480136 
L 354.84401 326.141195 
L 358.190438 323.745308 
L 361.513091 327.634493 
L 364.856485 331.073232 
L 368.197046 328.343005 
L 371.529226 331.131709 
L 374.862074 332.511442 
L 381.532241 334.340351 
L 384.86991 333.705148 
L 388.209052 333.934821 
L 391.543603 332.839849 
L 394.878959 336.42351 
L 398.209156 335.308621 
L 401.548611 337.362118 
L 404.880909 337.996049 
L 408.21907 325.322932 
L 411.54788 326.628085 
L 414.887404 327.334478 
L 418.222545 330.796946 
L 421.555539 331.107979 
L 424.895286 330.352431 
L 428.228134 331.935565 
L 431.562361 333.231395 
L 434.898301 334.264499 
L 438.23597 331.013906 
L 441.569277 333.714471 
L 444.904075 333.178002 
L 448.239668 333.951347 
L 451.575217 334.883599 
L 454.909765 335.420915 
L 458.24697 336.574365 
L 461.580631 324.374578 
L 464.91825 325.86491 
L 468.253465 326.478077 
L 471.588606 328.291731 
L 474.925383 328.520556 
L 478.257723 327.683225 
L 481.594195 329.367634 
L 484.928422 330.783386 
L 488.264362 331.694027 
L 491.602031 330.777453 
L 494.935338 332.053367 
L 498.270136 332.666535 
L 501.605729 331.127472 
L 508.278279 333.77422 
L 511.61303 328.759128 
L 514.948942 315.907188 
L 518.284311 317.327177 
L 521.619526 317.648804 
L 524.954666 318.950567 
L 528.289552 320.086219 
L 531.625596 320.771848 
L 534.960255 322.30964 
L 538.296144 323.144853 
L 541.632013 324.341949 
L 544.966568 323.508431 
L 548.302858 324.707222 
L 551.637593 325.383952 
L 554.973127 325.833552 
L 558.308619 326.962848 
L 561.643113 327.26583 
L 564.979091 329.61002 
L 568.315002 314.433383 
L 571.650371 315.851677 
L 574.985586 317.648381 
L 578.320727 318.212393 
L 581.655613 319.040402 
L 584.991656 319.092947 
L 588.326316 320.660825 
L 591.662204 322.074882 
L 594.997279 323.12197 
L 598.332628 320.436661 
L 601.668189 320.673962 
L 605.003654 322.320658 
L 608.339188 322.378711 
L 611.67468 323.389781 
L 615.009787 322.074882 
L 618.345152 325.94627 
L 621.6805 303.435353 
L 625.015893 304.695588 
L 628.351131 304.676519 
L 631.686788 305.679961 
L 635.022146 307.485564 
L 638.357264 307.012234 
L 641.69281 307.574975 
L 645.028265 307.582603 
L 648.363737 309.523382 
L 651.69907 307.469461 
L 655.034249 310.091208 
L 658.369714 307.69193 
L 661.704914 310.095869 
L 665.04042 311.09126 
L 668.375847 311.582387 
L 671.711212 308.903858 
L 675.046561 284.088584 
L 678.381954 286.8222 
L 681.71745 287.236629 
L 685.052848 289.538867 
L 688.388207 291.189801 
L 691.723551 293.050067 
L 695.058871 293.511108 
L 698.394325 293.41873 
L 701.729599 296.836705 
L 705.06494 287.154845 
L 708.40031 288.411266 
L 711.735775 289.223173 
L 715.071142 291.133865 
L 718.406481 294.217924 
L 721.741908 295.028136 
L 725.077273 298.962663 
L 728.412622 284.408516 
L 731.748014 284.440297 
L 735.083381 285.203896 
L 738.418785 286.486166 
L 741.754149 287.94853 
L 745.089498 285.072109 
L 748.424932 285.93529 
L 751.760282 286.396755 
L 755.095659 287.895138 
L 758.431096 284.538183 
L 761.766462 284.165706 
L 765.101836 285.699684 
L 768.437203 284.993716 
L 771.772541 288.328635 
L 775.107969 288.005313 
L 778.443333 289.580395 
L 781.778682 272.408315 
L 785.114075 274.039332 
L 788.449442 274.277056 
L 791.784846 274.931328 
L 795.12021 276.456407 
L 798.455616 274.494864 
L 801.790992 276.345808 
L 805.126343 277.141188 
L 808.46172 277.530192 
L 811.797109 275.07625 
L 815.132522 279.648946 
L 818.467896 278.476851 
L 821.803263 278.889584 
L 825.138642 280.696458 
L 828.474029 280.972744 
L 831.809394 282.804619 
L 831.809394 282.804619 
" clip-path="url(#p7ebb1b23d3)" style="fill: none; stroke: #d62728; stroke-width: 1.4; stroke-linecap: square"/>
    <defs>
     <path id="mdc73cf2365" d="M 0 0.75 
C 0.198902 0.75 0.389685 0.670975 0.53033 0.53033 
C 0.670975 0.389685 0.75 0.198902 0.75 0 
C 0.75 -0.198902 0.670975 -0.389685 0.53033 -0.53033 
C 0.389685 -0.670975 0.198902 -0.75 0 -0.75 
C -0.198902 -0.75 -0.389685 -0.670975 -0.53033 -0.53033 
C -0.670975 -0.389685 -0.75 -0.198902 -0.75 0 
C -0.75 0.198902 -0.670975 0.389685 -0.53033 0.53033 
C -0.389685 0.670975 -0.198902 0.75 0 0.75 
z
" style="stroke: #d62728"/>
    </defs>
    <g clip-path="url(#p7ebb1b23d3)">
     <use xlink:href="#mdc73cf2365" x="298.148788" y="334.314078" style="fill: #d62728; stroke: #d62728"/>
     <use xlink:href="#mdc73cf2365" x="301.495948" y="327.495927" style="fill: #d62728; stroke: #d62728"/>
     <use xlink:href="#mdc73cf2365" x="304.80714" y="333.180121" style="fill: #d62728; stroke: #d62728"/>
     <use xlink:href="#mdc73cf2365" x="308.14703" y="336.348506" style="fill: #d62728; stroke: #d62728"/>
     <use xlink:href="#mdc73cf2365" x="311.474616" y="339.660966" style="fill: #d62728; stroke: #d62728"/>
     <use xlink:href="#mdc73cf2365" x="314.815849" y="330.150726" style="fill: #d62728; stroke: #d62728"/>
     <use xlink:href="#mdc73cf2365" x="318.163165" y="331.16688" style="fill: #d62728; stroke: #d62728"/>
     <use xlink:href="#mdc73cf2365" x="321.509892" y="333.151729" style="fill: #d62728; stroke: #d62728"/>
     <use xlink:href="#mdc73cf2365" x="324.823594" y="335.346759" style="fill: #d62728; stroke: #d62728"/>
     <use xlink:href="#mdc73cf2365" x="328.178907" y="335.995098" style="fill: #d62728; stroke: #d62728"/>
     <use xlink:href="#mdc73cf2365" x="331.49166" y="335.259043" style="fill: #d62728; stroke: #d62728"/>
     <use xlink:href="#mdc73cf2365" x="334.83132" y="335.620926" style="fill: #d62728; stroke: #d62728"/>
     <use xlink:href="#mdc73cf2365" x="338.166365" y="335.837039" style="fill: #d62728; stroke: #d62728"/>
     <use xlink:href="#mdc73cf2365" x="341.512898" y="342.672564" style="fill: #d62728; stroke: #d62728"/>
     <use xlink:href="#mdc73cf2365" x="344.843096" y="341.667851" style="fill: #d62728; stroke: #d62728"/>
     <use xlink:href="#mdc73cf2365" x="348.172736" y="339.953355" style="fill: #d62728; stroke: #d62728"/>
     <use xlink:href="#mdc73cf2365" x="351.514848" y="333.480136" style="fill: #d62728; stroke: #d62728"/>
     <use xlink:href="#mdc73cf2365" x="354.84401" y="326.141195" style="fill: #d62728; stroke: #d62728"/>
     <use xlink:href="#mdc73cf2365" x="358.190438" y="323.745308" style="fill: #d62728; stroke: #d62728"/>
     <use xlink:href="#mdc73cf2365" x="361.513091" y="327.634493" style="fill: #d62728; stroke: #d62728"/>
     <use xlink:href="#mdc73cf2365" x="364.856485" y="331.073232" style="fill: #d62728; stroke: #d62728"/>
     <use xlink:href="#mdc73cf2365" x="368.197046" y="328.343005" style="fill: #d62728; stroke: #d62728"/>
     <use xlink:href="#mdc73cf2365" x="371.529226" y="331.131709" style="fill: #d62728; stroke: #d62728"/>
     <use xlink:href="#mdc73cf2365" x="374.862074" y="332.511442" style="fill: #d62728; stroke: #d62728"/>
     <use xlink:href="#mdc73cf2365" x="378.202946" y="333.377589" style="fill: #d62728; stroke: #d62728"/>
     <use xlink:href="#mdc73cf2365" x="381.532241" y="334.340351" style="fill: #d62728; stroke: #d62728"/>
     <use xlink:href="#mdc73cf2365" x="384.86991" y="333.705148" style="fill: #d62728; stroke: #d62728"/>
     <use xlink:href="#mdc73cf2365" x="388.209052" y="333.934821" style="fill: #d62728; stroke: #d62728"/>
     <use xlink:href="#mdc73cf2365" x="391.543603" y="332.839849" style="fill: #d62728; stroke: #d62728"/>
     <use xlink:href="#mdc73cf2365" x="394.878959" y="336.42351" style="fill: #d62728; stroke: #d62728"/>
     <use xlink:href="#mdc73cf2365" x="398.209156" y="335.308621" style="fill: #d62728; stroke: #d62728"/>
     <use xlink:href="#mdc73cf2365" x="401.548611" y="337.362118" style="fill: #d62728; stroke: #d62728"/>
     <use xlink:href="#mdc73cf2365" x="404.880909" y="337.996049" style="fill: #d62728; stroke: #d62728"/>
     <use xlink:href="#mdc73cf2365" x="408.21907" y="325.322932" style="fill: #d62728; stroke: #d62728"/>
     <use xlink:href="#mdc73cf2365" x="411.54788" y="326.628085" style="fill: #d62728; stroke: #d62728"/>
     <use xlink:href="#mdc73cf2365" x="414.887404" y="327.334478" style="fill: #d62728; stroke: #d62728"/>
     <use xlink:href="#mdc73cf2365" x="418.222545" y="330.796946" style="fill: #d62728; stroke: #d62728"/>
     <use xlink:href="#mdc73cf2365" x="421.555539" y="331.107979" style="fill: #d62728; stroke: #d62728"/>
     <use xlink:href="#mdc73cf2365" x="424.895286" y="330.352431" style="fill: #d62728; stroke: #d62728"/>
     <use xlink:href="#mdc73cf2365" x="428.228134" y="331.935565" style="fill: #d62728; stroke: #d62728"/>
     <use xlink:href="#mdc73cf2365" x="431.562361" y="333.231395" style="fill: #d62728; stroke: #d62728"/>
     <use xlink:href="#mdc73cf2365" x="434.898301" y="334.264499" style="fill: #d62728; stroke: #d62728"/>
     <use xlink:href="#mdc73cf2365" x="438.23597" y="331.013906" style="fill: #d62728; stroke: #d62728"/>
     <use xlink:href="#mdc73cf2365" x="441.569277" y="333.714471" style="fill: #d62728; stroke: #d62728"/>
     <use xlink:href="#mdc73cf2365" x="444.904075" y="333.178002" style="fill: #d62728; stroke: #d62728"/>
     <use xlink:href="#mdc73cf2365" x="448.239668" y="333.951347" style="fill: #d62728; stroke: #d62728"/>
     <use xlink:href="#mdc73cf2365" x="451.575217" y="334.883599" style="fill: #d62728; stroke: #d62728"/>
     <use xlink:href="#mdc73cf2365" x="454.909765" y="335.420915" style="fill: #d62728; stroke: #d62728"/>
     <use xlink:href="#mdc73cf2365" x="458.24697" y="336.574365" style="fill: #d62728; stroke: #d62728"/>
     <use xlink:href="#mdc73cf2365" x="461.580631" y="324.374578" style="fill: #d62728; stroke: #d62728"/>
     <use xlink:href="#mdc73cf2365" x="464.91825" y="325.86491" style="fill: #d62728; stroke: #d62728"/>
     <use xlink:href="#mdc73cf2365" x="468.253465" y="326.478077" style="fill: #d62728; stroke: #d62728"/>
     <use xlink:href="#mdc73cf2365" x="471.588606" y="328.291731" style="fill: #d62728; stroke: #d62728"/>
     <use xlink:href="#mdc73cf2365" x="474.925383" y="328.520556" style="fill: #d62728; stroke: #d62728"/>
     <use xlink:href="#mdc73cf2365" x="478.257723" y="327.683225" style="fill: #d62728; stroke: #d62728"/>
     <use xlink:href="#mdc73cf2365" x="481.594195" y="329.367634" style="fill: #d62728; stroke: #d62728"/>
     <use xlink:href="#mdc73cf2365" x="484.928422" y="330.783386" style="fill: #d62728; stroke: #d62728"/>
     <use xlink:href="#mdc73cf2365" x="488.264362" y="331.694027" style="fill: #d62728; stroke: #d62728"/>
     <use xlink:href="#mdc73cf2365" x="491.602031" y="330.777453" style="fill: #d62728; stroke: #d62728"/>
     <use xlink:href="#mdc73cf2365" x="494.935338" y="332.053367" style="fill: #d62728; stroke: #d62728"/>
     <use xlink:href="#mdc73cf2365" x="498.270136" y="332.666535" style="fill: #d62728; stroke: #d62728"/>
     <use xlink:href="#mdc73cf2365" x="501.605729" y="331.127472" style="fill: #d62728; stroke: #d62728"/>
     <use xlink:href="#mdc73cf2365" x="504.941277" y="332.414403" style="fill: #d62728; stroke: #d62728"/>
     <use xlink:href="#mdc73cf2365" x="508.278279" y="333.77422" style="fill: #d62728; stroke: #d62728"/>
     <use xlink:href="#mdc73cf2365" x="511.61303" y="328.759128" style="fill: #d62728; stroke: #d62728"/>
     <use xlink:href="#mdc73cf2365" x="514.948942" y="315.907188" style="fill: #d62728; stroke: #d62728"/>
     <use xlink:href="#mdc73cf2365" x="518.284311" y="317.327177" style="fill: #d62728; stroke: #d62728"/>
     <use xlink:href="#mdc73cf2365" x="521.619526" y="317.648804" style="fill: #d62728; stroke: #d62728"/>
     <use xlink:href="#mdc73cf2365" x="524.954666" y="318.950567" style="fill: #d62728; stroke: #d62728"/>
     <use xlink:href="#mdc73cf2365" x="528.289552" y="320.086219" style="fill: #d62728; stroke: #d62728"/>
     <use xlink:href="#mdc73cf2365" x="531.625596" y="320.771848" style="fill: #d62728; stroke: #d62728"/>
     <use xlink:href="#mdc73cf2365" x="534.960255" y="322.30964" style="fill: #d62728; stroke: #d62728"/>
     <use xlink:href="#mdc73cf2365" x="538.296144" y="323.144853" style="fill: #d62728; stroke: #d62728"/>
     <use xlink:href="#mdc73cf2365" x="541.632013" y="324.341949" style="fill: #d62728; stroke: #d62728"/>
     <use xlink:href="#mdc73cf2365" x="544.966568" y="323.508431" style="fill: #d62728; stroke: #d62728"/>
     <use xlink:href="#mdc73cf2365" x="548.302858" y="324.707222" style="fill: #d62728; stroke: #d62728"/>
     <use xlink:href="#mdc73cf2365" x="551.637593" y="325.383952" style="fill: #d62728; stroke: #d62728"/>
     <use xlink:href="#mdc73cf2365" x="554.973127" y="325.833552" style="fill: #d62728; stroke: #d62728"/>
     <use xlink:href="#mdc73cf2365" x="558.308619" y="326.962848" style="fill: #d62728; stroke: #d62728"/>
     <use xlink:href="#mdc73cf2365" x="561.643113" y="327.26583" style="fill: #d62728; stroke: #d62728"/>
     <use xlink:href="#mdc73cf2365" x="564.979091" y="329.61002" style="fill: #d62728; stroke: #d62728"/>
     <use xlink:href="#mdc73cf2365" x="568.315002" y="314.433383" style="fill: #d62728; stroke: #d62728"/>
     <use xlink:href="#mdc73cf2365" x="571.650371" y="315.851677" style="fill: #d62728; stroke: #d62728"/>
     <use xlink:href="#mdc73cf2365" x="574.985586" y="317.648381" style="fill: #d62728; stroke: #d62728"/>
     <use xlink:href="#mdc73cf2365" x="578.320727" y="318.212393" style="fill: #d62728; stroke: #d62728"/>
     <use xlink:href="#mdc73cf2365" x="581.655613" y="319.040402" style="fill: #d62728; stroke: #d62728"/>
     <use xlink:href="#mdc73cf2365" x="584.991656" y="319.092947" style="fill: #d62728; stroke: #d62728"/>
     <use xlink:href="#mdc73cf2365" x="588.326316" y="320.660825" style="fill: #d62728; stroke: #d62728"/>
     <use xlink:href="#mdc73cf2365" x="591.662204" y="322.074882" style="fill: #d62728; stroke: #d62728"/>
     <use xlink:href="#mdc73cf2365" x="594.997279" y="323.12197" style="fill: #d62728; stroke: #d62728"/>
     <use xlink:href="#mdc73cf2365" x="598.332628" y="320.436661" style="fill: #d62728; stroke: #d62728"/>
     <use xlink:href="#mdc73cf2365" x="601.668189" y="320.673962" style="fill: #d62728; stroke: #d62728"/>
     <use xlink:href="#mdc73cf2365" x="605.003654" y="322.320658" style="fill: #d62728; stroke: #d62728"/>
     <use xlink:href="#mdc73cf2365" x="608.339188" y="322.378711" style="fill: #d62728; stroke: #d62728"/>
     <use xlink:href="#mdc73cf2365" x="611.67468" y="323.389781" style="fill: #d62728; stroke: #d62728"/>
     <use xlink:href="#mdc73cf2365" x="615.009787" y="322.074882" style="fill: #d62728; stroke: #d62728"/>
     <use xlink:href="#mdc73cf2365" x="618.345152" y="325.94627" style="fill: #d62728; stroke: #d62728"/>
     <use xlink:href="#mdc73cf2365" x="621.6805" y="303.435353" style="fill: #d62728; stroke: #d62728"/>
     <use xlink:href="#mdc73cf2365" x="625.015893" y="304.695588" style="fill: #d62728; stroke: #d62728"/>
     <use xlink:href="#mdc73cf2365" x="628.351131" y="304.676519" style="fill: #d62728; stroke: #d62728"/>
     <use xlink:href="#mdc73cf2365" x="631.686788" y="305.679961" style="fill: #d62728; stroke: #d62728"/>
     <use xlink:href="#mdc73cf2365" x="635.022146" y="307.485564" style="fill: #d62728; stroke: #d62728"/>
     <use xlink:href="#mdc73cf2365" x="638.357264" y="307.012234" style="fill: #d62728; stroke: #d62728"/>
     <use xlink:href="#mdc73cf2365" x="641.69281" y="307.574975" style="fill: #d62728; stroke: #d62728"/>
     <use xlink:href="#mdc73cf2365" x="645.028265" y="307.582603" style="fill: #d62728; stroke: #d62728"/>
     <use xlink:href="#mdc73cf2365" x="648.363737" y="309.523382" style="fill: #d62728; stroke: #d62728"/>
     <use xlink:href="#mdc73cf2365" x="651.69907" y="307.469461" style="fill: #d62728; stroke: #d62728"/>
     <use xlink:href="#mdc73cf2365" x="655.034249" y="310.091208" style="fill: #d62728; stroke: #d62728"/>
     <use xlink:href="#mdc73cf2365" x="658.369714" y="307.69193" style="fill: #d62728; stroke: #d62728"/>
     <use xlink:href="#mdc73cf2365" x="661.704914" y="310.095869" style="fill: #d62728; stroke: #d62728"/>
     <use xlink:href="#mdc73cf2365" x="665.04042" y="311.09126" style="fill: #d62728; stroke: #d62728"/>
     <use xlink:href="#mdc73cf2365" x="668.375847" y="311.582387" style="fill: #d62728; stroke: #d62728"/>
     <use xlink:href="#mdc73cf2365" x="671.711212" y="308.903858" style="fill: #d62728; stroke: #d62728"/>
     <use xlink:href="#mdc73cf2365" x="675.046561" y="284.088584" style="fill: #d62728; stroke: #d62728"/>
     <use xlink:href="#mdc73cf2365" x="678.381954" y="286.8222" style="fill: #d62728; stroke: #d62728"/>
     <use xlink:href="#mdc73cf2365" x="681.71745" y="287.236629" style="fill: #d62728; stroke: #d62728"/>
     <use xlink:href="#mdc73cf2365" x="685.052848" y="289.538867" style="fill: #d62728; stroke: #d62728"/>
     <use xlink:href="#mdc73cf2365" x="688.388207" y="291.189801" style="fill: #d62728; stroke: #d62728"/>
     <use xlink:href="#mdc73cf2365" x="691.723551" y="293.050067" style="fill: #d62728; stroke: #d62728"/>
     <use xlink:href="#mdc73cf2365" x="695.058871" y="293.511108" style="fill: #d62728; stroke: #d62728"/>
     <use xlink:href="#mdc73cf2365" x="698.394325" y="293.41873" style="fill: #d62728; stroke: #d62728"/>
     <use xlink:href="#mdc73cf2365" x="701.729599" y="296.836705" style="fill: #d62728; stroke: #d62728"/>
     <use xlink:href="#mdc73cf2365" x="705.06494" y="287.154845" style="fill: #d62728; stroke: #d62728"/>
     <use xlink:href="#mdc73cf2365" x="708.40031" y="288.411266" style="fill: #d62728; stroke: #d62728"/>
     <use xlink:href="#mdc73cf2365" x="711.735775" y="289.223173" style="fill: #d62728; stroke: #d62728"/>
     <use xlink:href="#mdc73cf2365" x="715.071142" y="291.133865" style="fill: #d62728; stroke: #d62728"/>
     <use xlink:href="#mdc73cf2365" x="718.406481" y="294.217924" style="fill: #d62728; stroke: #d62728"/>
     <use xlink:href="#mdc73cf2365" x="721.741908" y="295.028136" style="fill: #d62728; stroke: #d62728"/>
     <use xlink:href="#mdc73cf2365" x="725.077273" y="298.962663" style="fill: #d62728; stroke: #d62728"/>
     <use xlink:href="#mdc73cf2365" x="728.412622" y="284.408516" style="fill: #d62728; stroke: #d62728"/>
     <use xlink:href="#mdc73cf2365" x="731.748014" y="284.440297" style="fill: #d62728; stroke: #d62728"/>
     <use xlink:href="#mdc73cf2365" x="735.083381" y="285.203896" style="fill: #d62728; stroke: #d62728"/>
     <use xlink:href="#mdc73cf2365" x="738.418785" y="286.486166" style="fill: #d62728; stroke: #d62728"/>
     <use xlink:href="#mdc73cf2365" x="741.754149" y="287.94853" style="fill: #d62728; stroke: #d62728"/>
     <use xlink:href="#mdc73cf2365" x="745.089498" y="285.072109" style="fill: #d62728; stroke: #d62728"/>
     <use xlink:href="#mdc73cf2365" x="748.424932" y="285.93529" style="fill: #d62728; stroke: #d62728"/>
     <use xlink:href="#mdc73cf2365" x="751.760282" y="286.396755" style="fill: #d62728; stroke: #d62728"/>
     <use xlink:href="#mdc73cf2365" x="755.095659" y="287.895138" style="fill: #d62728; stroke: #d62728"/>
     <use xlink:href="#mdc73cf2365" x="758.431096" y="284.538183" style="fill: #d62728; stroke: #d62728"/>
     <use xlink:href="#mdc73cf2365" x="761.766462" y="284.165706" style="fill: #d62728; stroke: #d62728"/>
     <use xlink:href="#mdc73cf2365" x="765.101836" y="285.699684" style="fill: #d62728; stroke: #d62728"/>
     <use xlink:href="#mdc73cf2365" x="768.437203" y="284.993716" style="fill: #d62728; stroke: #d62728"/>
     <use xlink:href="#mdc73cf2365" x="771.772541" y="288.328635" style="fill: #d62728; stroke: #d62728"/>
     <use xlink:href="#mdc73cf2365" x="775.107969" y="288.005313" style="fill: #d62728; stroke: #d62728"/>
     <use xlink:href="#mdc73cf2365" x="778.443333" y="289.580395" style="fill: #d62728; stroke: #d62728"/>
     <use xlink:href="#mdc73cf2365" x="781.778682" y="272.408315" style="fill: #d62728; stroke: #d62728"/>
     <use xlink:href="#mdc73cf2365" x="785.114075" y="274.039332" style="fill: #d62728; stroke: #d62728"/>
     <use xlink:href="#mdc73cf2365" x="788.449442" y="274.277056" style="fill: #d62728; stroke: #d62728"/>
     <use xlink:href="#mdc73cf2365" x="791.784846" y="274.931328" style="fill: #d62728; stroke: #d62728"/>
     <use xlink:href="#mdc73cf2365" x="795.12021" y="276.456407" style="fill: #d62728; stroke: #d62728"/>
     <use xlink:href="#mdc73cf2365" x="798.455616" y="274.494864" style="fill: #d62728; stroke: #d62728"/>
     <use xlink:href="#mdc73cf2365" x="801.790992" y="276.345808" style="fill: #d62728; stroke: #d62728"/>
     <use xlink:href="#mdc73cf2365" x="805.126343" y="277.141188" style="fill: #d62728; stroke: #d62728"/>
     <use xlink:href="#mdc73cf2365" x="808.46172" y="277.530192" style="fill: #d62728; stroke: #d62728"/>
     <use xlink:href="#mdc73cf2365" x="811.797109" y="275.07625" style="fill: #d62728; stroke: #d62728"/>
     <use xlink:href="#mdc73cf2365" x="815.132522" y="279.648946" style="fill: #d62728; stroke: #d62728"/>
     <use xlink:href="#mdc73cf2365" x="818.467896" y="278.476851" style="fill: #d62728; stroke: #d62728"/>
     <use xlink:href="#mdc73cf2365" x="821.803263" y="278.889584" style="fill: #d62728; stroke: #d62728"/>
     <use xlink:href="#mdc73cf2365" x="825.138642" y="280.696458" style="fill: #d62728; stroke: #d62728"/>
     <use xlink:href="#mdc73cf2365" x="828.474029" y="280.972744" style="fill: #d62728; stroke: #d62728"/>
     <use xlink:href="#mdc73cf2365" x="831.809394" y="282.804619" style="fill: #d62728; stroke: #d62728"/>
    </g>
   </g>
   <g id="line2d_31">
    <path d="M 298.148788 422.728 
L 298.148788 25.44 
" clip-path="url(#p7ebb1b23d3)" style="fill: none; stroke-dasharray: 0.5,0.825; stroke-dashoffset: 0; stroke: #808080; stroke-width: 0.5"/>
   </g>
   <g id="line2d_32">
    <path d="M 351.514848 422.728 
L 351.514848 25.44 
" clip-path="url(#p7ebb1b23d3)" style="fill: none; stroke-dasharray: 0.5,0.825; stroke-dashoffset: 0; stroke: #808080; stroke-width: 0.5"/>
   </g>
   <g id="line2d_33">
    <path d="M 404.880909 422.728 
L 404.880909 25.44 
" clip-path="url(#p7ebb1b23d3)" style="fill: none; stroke-dasharray: 0.5,0.825; stroke-dashoffset: 0; stroke: #808080; stroke-width: 0.5"/>
   </g>
   <g id="line2d_34">
    <path d="M 458.24697 422.728 
L 458.24697 25.44 
" clip-path="url(#p7ebb1b23d3)" style="fill: none; stroke-dasharray: 0.5,0.825; stroke-dashoffset: 0; stroke: #808080; stroke-width: 0.5"/>
   </g>
   <g id="line2d_35">
    <path d="M 511.61303 422.728 
L 511.61303 25.44 
" clip-path="url(#p7ebb1b23d3)" style="fill: none; stroke-dasharray: 0.5,0.825; stroke-dashoffset: 0; stroke: #808080; stroke-width: 0.5"/>
   </g>
   <g id="line2d_36">
    <path d="M 564.979091 422.728 
L 564.979091 25.44 
" clip-path="url(#p7ebb1b23d3)" style="fill: none; stroke-dasharray: 0.5,0.825; stroke-dashoffset: 0; stroke: #808080; stroke-width: 0.5"/>
   </g>
   <g id="line2d_37">
    <path d="M 618.345152 422.728 
L 618.345152 25.44 
" clip-path="url(#p7ebb1b23d3)" style="fill: none; stroke-dasharray: 0.5,0.825; stroke-dashoffset: 0; stroke: #808080; stroke-width: 0.5"/>
   </g>
   <g id="line2d_38">
    <path d="M 671.711212 422.728 
L 671.711212 25.44 
" clip-path="url(#p7ebb1b23d3)" style="fill: none; stroke-dasharray: 0.5,0.825; stroke-dashoffset: 0; stroke: #808080; stroke-width: 0.5"/>
   </g>
   <g id="line2d_39">
    <path d="M 725.077273 422.728 
L 725.077273 25.44 
" clip-path="url(#p7ebb1b23d3)" style="fill: none; stroke-dasharray: 0.5,0.825; stroke-dashoffset: 0; stroke: #808080; stroke-width: 0.5"/>
   </g>
   <g id="line2d_40">
    <path d="M 778.443333 422.728 
L 778.443333 25.44 
" clip-path="url(#p7ebb1b23d3)" style="fill: none; stroke-dasharray: 0.5,0.825; stroke-dashoffset: 0; stroke: #808080; stroke-width: 0.5"/>
   </g>
   <g id="line2d_41">
    <path d="M 831.809394 422.728 
L 831.809394 25.44 
" clip-path="url(#p7ebb1b23d3)" style="fill: none; stroke-dasharray: 0.5,0.825; stroke-dashoffset: 0; stroke: #808080; stroke-width: 0.5"/>
   </g>
   <g id="patch_3">
    <path d="M 44.66 422.728 
L 44.66 25.44 
" style="fill: none; stroke: #000000; stroke-width: 0.8; stroke-linejoin: miter; stroke-linecap: square"/>
   </g>
   <g id="patch_4">
    <path d="M 925.2 422.728 
L 925.2 25.44 
" style="fill: none; stroke: #000000; stroke-width: 0.8; stroke-linejoin: miter; stroke-linecap: square"/>
   </g>
   <g id="patch_5">
    <path d="M 44.66 422.728 
L 925.2 422.728 
" style="fill: none; stroke: #000000; stroke-width: 0.8; stroke-linejoin: miter; stroke-linecap: square"/>
   </g>
   <g id="patch_6">
    <path d="M 44.66 25.44 
L 925.2 25.44 
" style="fill: none; stroke: #000000; stroke-width: 0.8; stroke-linejoin: miter; stroke-linecap: square"/>
   </g>
   <g id="text_16">
    <!-- p30 5-prime truncated NTT, stage 1 — 1/16-octave grid (solo process, median of 7, all points GMP-verified) -->
    <g transform="translate(163.23625 19.44) scale(0.12 -0.12)">
     <defs>
      <path id="DejaVuSans-33" d="M 2597 2516 
Q 3050 2419 3304 2112 
Q 3559 1806 3559 1356 
Q 3559 666 3084 287 
Q 2609 -91 1734 -91 
Q 1441 -91 1130 -33 
Q 819 25 488 141 
L 488 750 
Q 750 597 1062 519 
Q 1375 441 1716 441 
Q 2309 441 2620 675 
Q 2931 909 2931 1356 
Q 2931 1769 2642 2001 
Q 2353 2234 1838 2234 
L 1294 2234 
L 1294 2753 
L 1863 2753 
Q 2328 2753 2575 2939 
Q 2822 3125 2822 3475 
Q 2822 3834 2567 4026 
Q 2313 4219 1838 4219 
Q 1578 4219 1281 4162 
Q 984 4106 628 3988 
L 628 4550 
Q 988 4650 1302 4700 
Q 1616 4750 1894 4750 
Q 2613 4750 3031 4423 
Q 3450 4097 3450 3541 
Q 3450 3153 3228 2886 
Q 3006 2619 2597 2516 
z
" transform="scale(0.015625)"/>
      <path id="DejaVuSans-35" d="M 691 4666 
L 3169 4666 
L 3169 4134 
L 1269 4134 
L 1269 2991 
Q 1406 3038 1543 3061 
Q 1681 3084 1819 3084 
Q 2600 3084 3056 2656 
Q 3513 2228 3513 1497 
Q 3513 744 3044 326 
Q 2575 -91 1722 -91 
Q 1428 -91 1123 -41 
Q 819 9 494 109 
L 494 744 
Q 775 591 1075 516 
Q 1375 441 1709 441 
Q 2250 441 2565 725 
Q 2881 1009 2881 1497 
Q 2881 1984 2565 2268 
Q 2250 2553 1709 2553 
Q 1456 2553 1204 2497 
Q 953 2441 691 2322 
L 691 4666 
z
" transform="scale(0.015625)"/>
      <path id="DejaVuSans-2d" d="M 313 2009 
L 1997 2009 
L 1997 1497 
L 313 1497 
L 313 2009 
z
" transform="scale(0.015625)"/>
      <path id="DejaVuSans-72" d="M 2631 2963 
Q 2534 3019 2420 3045 
Q 2306 3072 2169 3072 
Q 1681 3072 1420 2755 
Q 1159 2438 1159 1844 
L 1159 0 
L 581 0 
L 581 3500 
L 1159 3500 
L 1159 2956 
Q 1341 3275 1631 3429 
Q 1922 3584 2338 3584 
Q 2397 3584 2469 3576 
Q 2541 3569 2628 3553 
L 2631 2963 
z
" transform="scale(0.015625)"/>
      <path id="DejaVuSans-4e" d="M 628 4666 
L 1478 4666 
L 3547 763 
L 3547 4666 
L 4159 4666 
L 4159 0 
L 3309 0 
L 1241 3903 
L 1241 0 
L 628 0 
L 628 4666 
z
" transform="scale(0.015625)"/>
      <path id="DejaVuSans-54" d="M -19 4666 
L 3928 4666 
L 3928 4134 
L 2272 4134 
L 2272 0 
L 1638 0 
L 1638 4134 
L -19 4134 
L -19 4666 
z
" transform="scale(0.015625)"/>
      <path id="DejaVuSans-67" d="M 2906 1791 
Q 2906 2416 2648 2759 
Q 2391 3103 1925 3103 
Q 1463 3103 1205 2759 
Q 947 2416 947 1791 
Q 947 1169 1205 825 
Q 1463 481 1925 481 
Q 2391 481 2648 825 
Q 2906 1169 2906 1791 
z
M 3481 434 
Q 3481 -459 3084 -895 
Q 2688 -1331 1869 -1331 
Q 1566 -1331 1297 -1286 
Q 1028 -1241 775 -1147 
L 775 -588 
Q 1028 -725 1275 -790 
Q 1522 -856 1778 -856 
Q 2344 -856 2625 -561 
Q 2906 -266 2906 331 
L 2906 616 
Q 2728 306 2450 153 
Q 2172 0 1784 0 
Q 1141 0 747 490 
Q 353 981 353 1791 
Q 353 2603 747 3093 
Q 1141 3584 1784 3584 
Q 2172 3584 2450 3431 
Q 2728 3278 2906 2969 
L 2906 3500 
L 3481 3500 
L 3481 434 
z
" transform="scale(0.015625)"/>
      <path id="DejaVuSans-2014" d="M 313 1978 
L 6088 1978 
L 6088 1528 
L 313 1528 
L 313 1978 
z
" transform="scale(0.015625)"/>
      <path id="DejaVuSans-6f" d="M 1959 3097 
Q 1497 3097 1228 2736 
Q 959 2375 959 1747 
Q 959 1119 1226 758 
Q 1494 397 1959 397 
Q 2419 397 2687 759 
Q 2956 1122 2956 1747 
Q 2956 2369 2687 2733 
Q 2419 3097 1959 3097 
z
M 1959 3584 
Q 2709 3584 3137 3096 
Q 3566 2609 3566 1747 
Q 3566 888 3137 398 
Q 2709 -91 1959 -91 
Q 1206 -91 779 398 
Q 353 888 353 1747 
Q 353 2609 779 3096 
Q 1206 3584 1959 3584 
z
" transform="scale(0.015625)"/>
      <path id="DejaVuSans-76" d="M 191 3500 
L 800 3500 
L 1894 563 
L 2988 3500 
L 3597 3500 
L 2284 0 
L 1503 0 
L 191 3500 
z
" transform="scale(0.015625)"/>
      <path id="DejaVuSans-66" d="M 2375 4863 
L 2375 4384 
L 1825 4384 
Q 1516 4384 1395 4259 
Q 1275 4134 1275 3809 
L 1275 3500 
L 2222 3500 
L 2222 3053 
L 1275 3053 
L 1275 0 
L 697 0 
L 697 3053 
L 147 3053 
L 147 3500 
L 697 3500 
L 697 3744 
Q 697 4328 969 4595 
Q 1241 4863 1831 4863 
L 2375 4863 
z
" transform="scale(0.015625)"/>
      <path id="DejaVuSans-37" d="M 525 4666 
L 3525 4666 
L 3525 4397 
L 1831 0 
L 1172 0 
L 2766 4134 
L 525 4134 
L 525 4666 
z
" transform="scale(0.015625)"/>
      <path id="DejaVuSans-47" d="M 3809 666 
L 3809 1919 
L 2778 1919 
L 2778 2438 
L 4434 2438 
L 4434 434 
Q 4069 175 3628 42 
Q 3188 -91 2688 -91 
Q 1594 -91 976 548 
Q 359 1188 359 2328 
Q 359 3472 976 4111 
Q 1594 4750 2688 4750 
Q 3144 4750 3555 4637 
Q 3966 4525 4313 4306 
L 4313 3634 
Q 3963 3931 3569 4081 
Q 3175 4231 2741 4231 
Q 1884 4231 1454 3753 
Q 1025 3275 1025 2328 
Q 1025 1384 1454 906 
Q 1884 428 2741 428 
Q 3075 428 3337 486 
Q 3600 544 3809 666 
z
" transform="scale(0.015625)"/>
      <path id="DejaVuSans-4d" d="M 628 4666 
L 1569 4666 
L 2759 1491 
L 3956 4666 
L 4897 4666 
L 4897 0 
L 4281 0 
L 4281 4097 
L 3078 897 
L 2444 897 
L 1241 4097 
L 1241 0 
L 628 0 
L 628 4666 
z
" transform="scale(0.015625)"/>
      <path id="DejaVuSans-50" d="M 1259 4147 
L 1259 2394 
L 2053 2394 
Q 2494 2394 2734 2622 
Q 2975 2850 2975 3272 
Q 2975 3691 2734 3919 
Q 2494 4147 2053 4147 
L 1259 4147 
z
M 628 4666 
L 2053 4666 
Q 2838 4666 3239 4311 
Q 3641 3956 3641 3272 
Q 3641 2581 3239 2228 
Q 2838 1875 2053 1875 
L 1259 1875 
L 1259 0 
L 628 0 
L 628 4666 
z
" transform="scale(0.015625)"/>
     </defs>
     <use xlink:href="#DejaVuSans-70"/>
     <use xlink:href="#DejaVuSans-33" transform="translate(63.476562 0)"/>
     <use xlink:href="#DejaVuSans-30" transform="translate(127.099609 0)"/>
     <use xlink:href="#DejaVuSans-20" transform="translate(190.722656 0)"/>
     <use xlink:href="#DejaVuSans-35" transform="translate(222.509766 0)"/>
     <use xlink:href="#DejaVuSans-2d" transform="translate(286.132812 0)"/>
     <use xlink:href="#DejaVuSans-70" transform="translate(322.216797 0)"/>
     <use xlink:href="#DejaVuSans-72" transform="translate(385.693359 0)"/>
     <use xlink:href="#DejaVuSans-69" transform="translate(426.806641 0)"/>
     <use xlink:href="#DejaVuSans-6d" transform="translate(454.589844 0)"/>
     <use xlink:href="#DejaVuSans-65" transform="translate(552.001953 0)"/>
     <use xlink:href="#DejaVuSans-20" transform="translate(613.525391 0)"/>
     <use xlink:href="#DejaVuSans-74" transform="translate(645.3125 0)"/>
     <use xlink:href="#DejaVuSans-72" transform="translate(684.521484 0)"/>
     <use xlink:href="#DejaVuSans-75" transform="translate(725.634766 0)"/>
     <use xlink:href="#DejaVuSans-6e" transform="translate(789.013672 0)"/>
     <use xlink:href="#DejaVuSans-63" transform="translate(852.392578 0)"/>
     <use xlink:href="#DejaVuSans-61" transform="translate(907.373047 0)"/>
     <use xlink:href="#DejaVuSans-74" transform="translate(968.652344 0)"/>
     <use xlink:href="#DejaVuSans-65" transform="translate(1007.861328 0)"/>
     <use xlink:href="#DejaVuSans-64" transform="translate(1069.384766 0)"/>
     <use xlink:href="#DejaVuSans-20" transform="translate(1132.861328 0)"/>
     <use xlink:href="#DejaVuSans-4e" transform="translate(1164.648438 0)"/>
     <use xlink:href="#DejaVuSans-54" transform="translate(1239.453125 0)"/>
     <use xlink:href="#DejaVuSans-54" transform="translate(1298.787109 0)"/>
     <use xlink:href="#DejaVuSans-2c" transform="translate(1359.871094 0)"/>
     <use xlink:href="#DejaVuSans-20" transform="translate(1391.658203 0)"/>
     <use xlink:href="#DejaVuSans-73" transform="translate(1423.445312 0)"/>
     <use xlink:href="#DejaVuSans-74" transform="translate(1475.544922 0)"/>
     <use xlink:href="#DejaVuSans-61" transform="translate(1514.753906 0)"/>
     <use xlink:href="#DejaVuSans-67" transform="translate(1576.033203 0)"/>
     <use xlink:href="#DejaVuSans-65" transform="translate(1639.509766 0)"/>
     <use xlink:href="#DejaVuSans-20" transform="translate(1701.033203 0)"/>
     <use xlink:href="#DejaVuSans-31" transform="translate(1732.820312 0)"/>
     <use xlink:href="#DejaVuSans-20" transform="translate(1796.443359 0)"/>
     <use xlink:href="#DejaVuSans-2014" transform="translate(1828.230469 0)"/>
     <use xlink:href="#DejaVuSans-20" transform="translate(1928.230469 0)"/>
     <use xlink:href="#DejaVuSans-31" transform="translate(1960.017578 0)"/>
     <use xlink:href="#DejaVuSans-2f" transform="translate(2023.640625 0)"/>
     <use xlink:href="#DejaVuSans-31" transform="translate(2057.332031 0)"/>
     <use xlink:href="#DejaVuSans-36" transform="translate(2120.955078 0)"/>
     <use xlink:href="#DejaVuSans-2d" transform="translate(2184.578125 0)"/>
     <use xlink:href="#DejaVuSans-6f" transform="translate(2222.537109 0)"/>
     <use xlink:href="#DejaVuSans-63" transform="translate(2283.71875 0)"/>
     <use xlink:href="#DejaVuSans-74" transform="translate(2338.699219 0)"/>
     <use xlink:href="#DejaVuSans-61" transform="translate(2377.908203 0)"/>
     <use xlink:href="#DejaVuSans-76" transform="translate(2439.1875 0)"/>
     <use xlink:href="#DejaVuSans-65" transform="translate(2498.367188 0)"/>
     <use xlink:href="#DejaVuSans-20" transform="translate(2559.890625 0)"/>
     <use xlink:href="#DejaVuSans-67" transform="translate(2591.677734 0)"/>
     <use xlink:href="#DejaVuSans-72" transform="translate(2655.154297 0)"/>
     <use xlink:href="#DejaVuSans-69" transform="translate(2696.267578 0)"/>
     <use xlink:href="#DejaVuSans-64" transform="translate(2724.050781 0)"/>
     <use xlink:href="#DejaVuSans-20" transform="translate(2787.527344 0)"/>
     <use xlink:href="#DejaVuSans-28" transform="translate(2819.314453 0)"/>
     <use xlink:href="#DejaVuSans-73" transform="translate(2858.328125 0)"/>
     <use xlink:href="#DejaVuSans-6f" transform="translate(2910.427734 0)"/>
     <use xlink:href="#DejaVuSans-6c" transform="translate(2971.609375 0)"/>
     <use xlink:href="#DejaVuSans-6f" transform="translate(2999.392578 0)"/>
     <use xlink:href="#DejaVuSans-20" transform="translate(3060.574219 0)"/>
     <use xlink:href="#DejaVuSans-70" transform="translate(3092.361328 0)"/>
     <use xlink:href="#DejaVuSans-72" transform="translate(3155.837891 0)"/>
     <use xlink:href="#DejaVuSans-6f" transform="translate(3194.701172 0)"/>
     <use xlink:href="#DejaVuSans-63" transform="translate(3255.882812 0)"/>
     <use xlink:href="#DejaVuSans-65" transform="translate(3310.863281 0)"/>
     <use xlink:href="#DejaVuSans-73" transform="translate(3372.386719 0)"/>
     <use xlink:href="#DejaVuSans-73" transform="translate(3424.486328 0)"/>
     <use xlink:href="#DejaVuSans-2c" transform="translate(3476.585938 0)"/>
     <use xlink:href="#DejaVuSans-20" transform="translate(3508.373047 0)"/>
     <use xlink:href="#DejaVuSans-6d" transform="translate(3540.160156 0)"/>
     <use xlink:href="#DejaVuSans-65" transform="translate(3637.572266 0)"/>
     <use xlink:href="#DejaVuSans-64" transform="translate(3699.095703 0)"/>
     <use xlink:href="#DejaVuSans-69" transform="translate(3762.572266 0)"/>
     <use xlink:href="#DejaVuSans-61" transform="translate(3790.355469 0)"/>
     <use xlink:href="#DejaVuSans-6e" transform="translate(3851.634766 0)"/>
     <use xlink:href="#DejaVuSans-20" transform="translate(3915.013672 0)"/>
     <use xlink:href="#DejaVuSans-6f" transform="translate(3946.800781 0)"/>
     <use xlink:href="#DejaVuSans-66" transform="translate(4007.982422 0)"/>
     <use xlink:href="#DejaVuSans-20" transform="translate(4043.1875 0)"/>
     <use xlink:href="#DejaVuSans-37" transform="translate(4074.974609 0)"/>
     <use xlink:href="#DejaVuSans-2c" transform="translate(4138.597656 0)"/>
     <use xlink:href="#DejaVuSans-20" transform="translate(4170.384766 0)"/>
     <use xlink:href="#DejaVuSans-61" transform="translate(4202.171875 0)"/>
     <use xlink:href="#DejaVuSans-6c" transform="translate(4263.451172 0)"/>
     <use xlink:href="#DejaVuSans-6c" transform="translate(4291.234375 0)"/>
     <use xlink:href="#DejaVuSans-20" transform="translate(4319.017578 0)"/>
     <use xlink:href="#DejaVuSans-70" transform="translate(4350.804688 0)"/>
     <use xlink:href="#DejaVuSans-6f" transform="translate(4414.28125 0)"/>
     <use xlink:href="#DejaVuSans-69" transform="translate(4475.462891 0)"/>
     <use xlink:href="#DejaVuSans-6e" transform="translate(4503.246094 0)"/>
     <use xlink:href="#DejaVuSans-74" transform="translate(4566.625 0)"/>
     <use xlink:href="#DejaVuSans-73" transform="translate(4605.833984 0)"/>
     <use xlink:href="#DejaVuSans-20" transform="translate(4657.933594 0)"/>
     <use xlink:href="#DejaVuSans-47" transform="translate(4689.720703 0)"/>
     <use xlink:href="#DejaVuSans-4d" transform="translate(4767.210938 0)"/>
     <use xlink:href="#DejaVuSans-50" transform="translate(4853.490234 0)"/>
     <use xlink:href="#DejaVuSans-2d" transform="translate(4911.542969 0)"/>
     <use xlink:href="#DejaVuSans-76" transform="translate(4945.001953 0)"/>
     <use xlink:href="#DejaVuSans-65" transform="translate(5004.181641 0)"/>
     <use xlink:href="#DejaVuSans-72" transform="translate(5065.705078 0)"/>
     <use xlink:href="#DejaVuSans-69" transform="translate(5106.818359 0)"/>
     <use xlink:href="#DejaVuSans-66" transform="translate(5134.601562 0)"/>
     <use xlink:href="#DejaVuSans-69" transform="translate(5169.806641 0)"/>
     <use xlink:href="#DejaVuSans-65" transform="translate(5197.589844 0)"/>
     <use xlink:href="#DejaVuSans-64" transform="translate(5259.113281 0)"/>
     <use xlink:href="#DejaVuSans-29" transform="translate(5322.589844 0)"/>
    </g>
   </g>
   <g id="legend_1">
    <g id="patch_7">
     <path d="M 51.66 92.70875 
L 235.0725 92.70875 
Q 237.0725 92.70875 237.0725 90.70875 
L 237.0725 32.44 
Q 237.0725 30.44 235.0725 30.44 
L 51.66 30.44 
Q 49.66 30.44 49.66 32.44 
L 49.66 90.70875 
Q 49.66 92.70875 51.66 92.70875 
z
" style="fill: #ffffff; opacity: 0.8; stroke: #cccccc; stroke-linejoin: miter"/>
    </g>
    <g id="line2d_42">
     <path d="M 53.66 38.538437 
L 63.66 38.538437 
L 73.66 38.538437 
" style="fill: none; stroke: #7f7f7f; stroke-opacity: 0.7; stroke-width: 0.9; stroke-linecap: square"/>
    </g>
    <g id="text_17">
     <!-- int_fft reference (AVX2) -->
     <g transform="translate(81.66 42.038437) scale(0.1 -0.1)">
      <defs>
       <path id="DejaVuSans-5f" d="M 3263 -1063 
L 3263 -1509 
L -63 -1509 
L -63 -1063 
L 3263 -1063 
z
" transform="scale(0.015625)"/>
       <path id="DejaVuSans-41" d="M 2188 4044 
L 1331 1722 
L 3047 1722 
L 2188 4044 
z
M 1831 4666 
L 2547 4666 
L 4325 0 
L 3669 0 
L 3244 1197 
L 1141 1197 
L 716 0 
L 50 0 
L 1831 4666 
z
" transform="scale(0.015625)"/>
       <path id="DejaVuSans-56" d="M 1831 0 
L 50 4666 
L 709 4666 
L 2188 738 
L 3669 4666 
L 4325 4666 
L 2547 0 
L 1831 0 
z
" transform="scale(0.015625)"/>
       <path id="DejaVuSans-58" d="M 403 4666 
L 1081 4666 
L 2241 2931 
L 3406 4666 
L 4084 4666 
L 2584 2425 
L 4184 0 
L 3506 0 
L 2194 1984 
L 872 0 
L 191 0 
L 1856 2491 
L 403 4666 
z
" transform="scale(0.015625)"/>
      </defs>
      <use xlink:href="#DejaVuSans-69"/>
      <use xlink:href="#DejaVuSans-6e" transform="translate(27.783203 0)"/>
      <use xlink:href="#DejaVuSans-74" transform="translate(91.162109 0)"/>
      <use xlink:href="#DejaVuSans-5f" transform="translate(130.371094 0)"/>
      <use xlink:href="#DejaVuSans-66" transform="translate(180.371094 0)"/>
      <use xlink:href="#DejaVuSans-66" transform="translate(215.576172 0)"/>
      <use xlink:href="#DejaVuSans-74" transform="translate(249.03125 0)"/>
      <use xlink:href="#DejaVuSans-20" transform="translate(288.240234 0)"/>
      <use xlink:href="#DejaVuSans-72" transform="translate(320.027344 0)"/>
      <use xlink:href="#DejaVuSans-65" transform="translate(358.890625 0)"/>
      <use xlink:href="#DejaVuSans-66" transform="translate(420.414062 0)"/>
      <use xlink:href="#DejaVuSans-65" transform="translate(455.619141 0)"/>
      <use xlink:href="#DejaVuSans-72" transform="translate(517.142578 0)"/>
      <use xlink:href="#DejaVuSans-65" transform="translate(556.005859 0)"/>
      <use xlink:href="#DejaVuSans-6e" transform="translate(617.529297 0)"/>
      <use xlink:href="#DejaVuSans-63" transform="translate(680.908203 0)"/>
      <use xlink:href="#DejaVuSans-65" transform="translate(735.888672 0)"/>
      <use xlink:href="#DejaVuSans-20" transform="translate(797.412109 0)"/>
      <use xlink:href="#DejaVuSans-28" transform="translate(829.199219 0)"/>
      <use xlink:href="#DejaVuSans-41" transform="translate(868.212891 0)"/>
      <use xlink:href="#DejaVuSans-56" transform="translate(930.246094 0)"/>
      <use xlink:href="#DejaVuSans-58" transform="translate(998.654297 0)"/>
      <use xlink:href="#DejaVuSans-32" transform="translate(1067.160156 0)"/>
      <use xlink:href="#DejaVuSans-29" transform="translate(1130.783203 0)"/>
     </g>
    </g>
    <g id="line2d_43">
     <path d="M 53.66 53.494687 
L 63.66 53.494687 
L 73.66 53.494687 
" style="fill: none; stroke: #9467bd; stroke-opacity: 0.8; stroke-width: 0.9; stroke-linecap: square"/>
    </g>
    <g id="text_18">
     <!-- FLINT fft_small (1 thread) -->
     <g transform="translate(81.66 56.994687) scale(0.1 -0.1)">
      <defs>
       <path id="DejaVuSans-46" d="M 628 4666 
L 3309 4666 
L 3309 4134 
L 1259 4134 
L 1259 2759 
L 3109 2759 
L 3109 2228 
L 1259 2228 
L 1259 0 
L 628 0 
L 628 4666 
z
" transform="scale(0.015625)"/>
       <path id="DejaVuSans-4c" d="M 628 4666 
L 1259 4666 
L 1259 531 
L 3531 531 
L 3531 0 
L 628 0 
L 628 4666 
z
" transform="scale(0.015625)"/>
       <path id="DejaVuSans-49" d="M 628 4666 
L 1259 4666 
L 1259 0 
L 628 0 
L 628 4666 
z
" transform="scale(0.015625)"/>
       <path id="DejaVuSans-68" d="M 3513 2113 
L 3513 0 
L 2938 0 
L 2938 2094 
Q 2938 2591 2744 2837 
Q 2550 3084 2163 3084 
Q 1697 3084 1428 2787 
Q 1159 2491 1159 1978 
L 1159 0 
L 581 0 
L 581 4863 
L 1159 4863 
L 1159 2956 
Q 1366 3272 1645 3428 
Q 1925 3584 2291 3584 
Q 2894 3584 3203 3211 
Q 3513 2838 3513 2113 
z
" transform="scale(0.015625)"/>
      </defs>
      <use xlink:href="#DejaVuSans-46"/>
      <use xlink:href="#DejaVuSans-4c" transform="translate(57.519531 0)"/>
      <use xlink:href="#DejaVuSans-49" transform="translate(113.232422 0)"/>
      <use xlink:href="#DejaVuSans-4e" transform="translate(142.724609 0)"/>
      <use xlink:href="#DejaVuSans-54" transform="translate(217.529297 0)"/>
      <use xlink:href="#DejaVuSans-20" transform="translate(278.613281 0)"/>
      <use xlink:href="#DejaVuSans-66" transform="translate(310.400391 0)"/>
      <use xlink:href="#DejaVuSans-66" transform="translate(345.605469 0)"/>
      <use xlink:href="#DejaVuSans-74" transform="translate(379.060547 0)"/>
      <use xlink:href="#DejaVuSans-5f" transform="translate(418.269531 0)"/>
      <use xlink:href="#DejaVuSans-73" transform="translate(468.269531 0)"/>
      <use xlink:href="#DejaVuSans-6d" transform="translate(520.369141 0)"/>
      <use xlink:href="#DejaVuSans-61" transform="translate(617.78125 0)"/>
      <use xlink:href="#DejaVuSans-6c" transform="translate(679.060547 0)"/>
      <use xlink:href="#DejaVuSans-6c" transform="translate(706.84375 0)"/>
      <use xlink:href="#DejaVuSans-20" transform="translate(734.626953 0)"/>
      <use xlink:href="#DejaVuSans-28" transform="translate(766.414062 0)"/>
      <use xlink:href="#DejaVuSans-31" transform="translate(805.427734 0)"/>
      <use xlink:href="#DejaVuSans-20" transform="translate(869.050781 0)"/>
      <use xlink:href="#DejaVuSans-74" transform="translate(900.837891 0)"/>
      <use xlink:href="#DejaVuSans-68" transform="translate(940.046875 0)"/>
      <use xlink:href="#DejaVuSans-72" transform="translate(1003.425781 0)"/>
      <use xlink:href="#DejaVuSans-65" transform="translate(1042.289062 0)"/>
      <use xlink:href="#DejaVuSans-61" transform="translate(1103.8125 0)"/>
      <use xlink:href="#DejaVuSans-64" transform="translate(1165.091797 0)"/>
      <use xlink:href="#DejaVuSans-29" transform="translate(1228.568359 0)"/>
     </g>
    </g>
    <g id="line2d_44">
     <path d="M 53.66 68.450938 
L 63.66 68.450938 
L 73.66 68.450938 
" style="fill: none; stroke: #1f77b4; stroke-linecap: square"/>
    </g>
    <g id="text_19">
     <!-- fft16/pq16 (caps at n = 2^17) -->
     <g transform="translate(81.66 71.950938) scale(0.1 -0.1)">
      <defs>
       <path id="DejaVuSans-71" d="M 947 1747 
Q 947 1113 1208 752 
Q 1469 391 1925 391 
Q 2381 391 2643 752 
Q 2906 1113 2906 1747 
Q 2906 2381 2643 2742 
Q 2381 3103 1925 3103 
Q 1469 3103 1208 2742 
Q 947 2381 947 1747 
z
M 2906 525 
Q 2725 213 2448 61 
Q 2172 -91 1784 -91 
Q 1150 -91 751 415 
Q 353 922 353 1747 
Q 353 2572 751 3078 
Q 1150 3584 1784 3584 
Q 2172 3584 2448 3432 
Q 2725 3281 2906 2969 
L 2906 3500 
L 3481 3500 
L 3481 -1331 
L 2906 -1331 
L 2906 525 
z
" transform="scale(0.015625)"/>
       <path id="DejaVuSans-5e" d="M 2988 4666 
L 4684 2925 
L 4056 2925 
L 2681 4159 
L 1306 2925 
L 678 2925 
L 2375 4666 
L 2988 4666 
z
" transform="scale(0.015625)"/>
      </defs>
      <use xlink:href="#DejaVuSans-66"/>
      <use xlink:href="#DejaVuSans-66" transform="translate(35.205078 0)"/>
      <use xlink:href="#DejaVuSans-74" transform="translate(68.660156 0)"/>
      <use xlink:href="#DejaVuSans-31" transform="translate(107.869141 0)"/>
      <use xlink:href="#DejaVuSans-36" transform="translate(171.492188 0)"/>
      <use xlink:href="#DejaVuSans-2f" transform="translate(235.115234 0)"/>
      <use xlink:href="#DejaVuSans-70" transform="translate(268.806641 0)"/>
      <use xlink:href="#DejaVuSans-71" transform="translate(332.283203 0)"/>
      <use xlink:href="#DejaVuSans-31" transform="translate(395.759766 0)"/>
      <use xlink:href="#DejaVuSans-36" transform="translate(459.382812 0)"/>
      <use xlink:href="#DejaVuSans-20" transform="translate(523.005859 0)"/>
      <use xlink:href="#DejaVuSans-28" transform="translate(554.792969 0)"/>
      <use xlink:href="#DejaVuSans-63" transform="translate(593.806641 0)"/>
      <use xlink:href="#DejaVuSans-61" transform="translate(648.787109 0)"/>
      <use xlink:href="#DejaVuSans-70" transform="translate(710.066406 0)"/>
      <use xlink:href="#DejaVuSans-73" transform="translate(773.542969 0)"/>
      <use xlink:href="#DejaVuSans-20" transform="translate(825.642578 0)"/>
      <use xlink:href="#DejaVuSans-61" transform="translate(857.429688 0)"/>
      <use xlink:href="#DejaVuSans-74" transform="translate(918.708984 0)"/>
      <use xlink:href="#DejaVuSans-20" transform="translate(957.917969 0)"/>
      <use xlink:href="#DejaVuSans-6e" transform="translate(989.705078 0)"/>
      <use xlink:href="#DejaVuSans-20" transform="translate(1053.083984 0)"/>
      <use xlink:href="#DejaVuSans-3d" transform="translate(1084.871094 0)"/>
      <use xlink:href="#DejaVuSans-20" transform="translate(1168.660156 0)"/>
      <use xlink:href="#DejaVuSans-32" transform="translate(1200.447266 0)"/>
      <use xlink:href="#DejaVuSans-5e" transform="translate(1264.070312 0)"/>
      <use xlink:href="#DejaVuSans-31" transform="translate(1347.859375 0)"/>
      <use xlink:href="#DejaVuSans-37" transform="translate(1411.482422 0)"/>
      <use xlink:href="#DejaVuSans-29" transform="translate(1475.105469 0)"/>
     </g>
    </g>
    <g id="line2d_45">
     <path d="M 53.66 83.129062 
L 63.66 83.129062 
L 73.66 83.129062 
" style="fill: none; stroke: #d62728; stroke-width: 1.4; stroke-linecap: square"/>
     <g>
      <use xlink:href="#mdc73cf2365" x="63.66" y="83.129062" style="fill: #d62728; stroke: #d62728"/>
     </g>
    </g>
    <g id="text_20">
     <!-- p30 truncated NTT (stage 1) -->
     <g transform="translate(81.66 86.629062) scale(0.1 -0.1)">
      <use xlink:href="#DejaVuSans-70"/>
      <use xlink:href="#DejaVuSans-33" transform="translate(63.476562 0)"/>
      <use xlink:href="#DejaVuSans-30" transform="translate(127.099609 0)"/>
      <use xlink:href="#DejaVuSans-20" transform="translate(190.722656 0)"/>
      <use xlink:href="#DejaVuSans-74" transform="translate(222.509766 0)"/>
      <use xlink:href="#DejaVuSans-72" transform="translate(261.71875 0)"/>
      <use xlink:href="#DejaVuSans-75" transform="translate(302.832031 0)"/>
      <use xlink:href="#DejaVuSans-6e" transform="translate(366.210938 0)"/>
      <use xlink:href="#DejaVuSans-63" transform="translate(429.589844 0)"/>
      <use xlink:href="#DejaVuSans-61" transform="translate(484.570312 0)"/>
      <use xlink:href="#DejaVuSans-74" transform="translate(545.849609 0)"/>
      <use xlink:href="#DejaVuSans-65" transform="translate(585.058594 0)"/>
      <use xlink:href="#DejaVuSans-64" transform="translate(646.582031 0)"/>
      <use xlink:href="#DejaVuSans-20" transform="translate(710.058594 0)"/>
      <use xlink:href="#DejaVuSans-4e" transform="translate(741.845703 0)"/>
      <use xlink:href="#DejaVuSans-54" transform="translate(816.650391 0)"/>
      <use xlink:href="#DejaVuSans-54" transform="translate(875.984375 0)"/>
      <use xlink:href="#DejaVuSans-20" transform="translate(937.068359 0)"/>
      <use xlink:href="#DejaVuSans-28" transform="translate(968.855469 0)"/>
      <use xlink:href="#DejaVuSans-73" transform="translate(1007.869141 0)"/>
      <use xlink:href="#DejaVuSans-74" transform="translate(1059.96875 0)"/>
      <use xlink:href="#DejaVuSans-61" transform="translate(1099.177734 0)"/>
      <use xlink:href="#DejaVuSans-67" transform="translate(1160.457031 0)"/>
      <use xlink:href="#DejaVuSans-65" transform="translate(1223.933594 0)"/>
      <use xlink:href="#DejaVuSans-20" transform="translate(1285.457031 0)"/>
      <use xlink:href="#DejaVuSans-31" transform="translate(1317.244141 0)"/>
      <use xlink:href="#DejaVuSans-29" transform="translate(1380.867188 0)"/>
     </g>
    </g>
   </g>
  </g>
 </g>
 <defs>
  <clipPath id="p7ebb1b23d3">
   <rect x="44.66" y="25.44" width="880.54" height="397.288"/>
  </clipPath>
 </defs>
</svg>
