<?xml version="1.0" encoding="utf-8" standalone="no"?>
<!DOCTYPE svg PUBLIC "-//W3C//DTD SVG 1.1//EN"
  "http://www.w3.org/Graphics/SVG/1.1/DTD/svg11.dtd">
<svg xmlns:xlink="http://www.w3.org/1999/xlink" width="936pt" height="468pt" viewBox="0 0 936 468" xmlns="http://www.w3.org/2000/svg" version="1.1">
 <metadata>
  <rdf:RDF xmlns:dc="http://purl.org/dc/elements/1.1/" xmlns:cc="http://creativecommons.org/ns#" xmlns:rdf="http://www.w3.org/1999/02/22-rdf-syntax-ns#">
   <cc:Work>
    <dc:type rdf:resource="http://purl.org/dc/dcmitype/StillImage"/>
    <dc:date>2026-06-12T23:59:38.873106</dc:date>
    <dc:format>image/svg+xml</dc:format>
    <dc:creator>
     <cc:Agent>
      <dc:title>Matplotlib v3.10.7+dfsg1, https://matplotlib.org/</dc:title>
     </cc:Agent>
    </dc:creator>
   </cc:Work>
  </rdf:RDF>
 </metadata>
 <defs>
  <style type="text/css">*{stroke-linejoin: round; stroke-linecap: butt}</style>
 </defs>
 <g id="figure_1">
  <g id="patch_1">
   <path d="M 0 468 
L 936 468 
L 936 0 
L 0 0 
z
" style="fill: #ffffff"/>
  </g>
  <g id="axes_1">
   <g id="patch_2">
    <path d="M 44.66 422.728 
L 925.2 422.728 
L 925.2 25.44 
L 44.66 25.44 
z
" style="fill: #ffffff"/>
   </g>
   <g id="matplotlib.axis_1">
    <g id="xtick_1">
     <g id="line2d_1">
      <path d="M 138.050606 422.728 
L 138.050606 25.44 
" clip-path="url(#p3e03bee8f0)" style="fill: none; stroke: #b0b0b0; stroke-opacity: 0.3; stroke-width: 0.8; stroke-linecap: square"/>
     </g>
     <g id="line2d_2">
      <defs>
       <path id="mabfc481008" d="M 0 0 
L 0 3.5 
" style="stroke: #000000; stroke-width: 0.8"/>
      </defs>
      <g>
       <use xlink:href="#mabfc481008" x="138.050606" y="422.728" style="stroke: #000000; stroke-width: 0.8"/>
      </g>
     </g>
     <g id="text_1">
      <!-- $\mathdefault{2^{8}}$ -->
      <g transform="translate(132.450606 437.326437) scale(0.1 -0.1)">
       <defs>
        <path id="DejaVuSans-32" d="M 1228 531 
L 3431 531 
L 3431 0 
L 469 0 
L 469 531 
Q 828 903 1448 1529 
Q 2069 2156 2228 2338 
Q 2531 2678 2651 2914 
Q 2772 3150 2772 3378 
Q 2772 3750 2511 3984 
Q 2250 4219 1831 4219 
Q 1534 4219 1204 4116 
Q 875 4013 500 3803 
L 500 4441 
Q 881 4594 1212 4672 
Q 1544 4750 1819 4750 
Q 2544 4750 2975 4387 
Q 3406 4025 3406 3419 
Q 3406 3131 3298 2873 
Q 3191 2616 2906 2266 
Q 2828 2175 2409 1742 
Q 1991 1309 1228 531 
z
" transform="scale(0.015625)"/>
        <path id="DejaVuSans-38" d="M 2034 2216 
Q 1584 2216 1326 1975 
Q 1069 1734 1069 1313 
Q 1069 891 1326 650 
Q 1584 409 2034 409 
Q 2484 409 2743 651 
Q 3003 894 3003 1313 
Q 3003 1734 2745 1975 
Q 2488 2216 2034 2216 
z
M 1403 2484 
Q 997 2584 770 2862 
Q 544 3141 544 3541 
Q 544 4100 942 4425 
Q 1341 4750 2034 4750 
Q 2731 4750 3128 4425 
Q 3525 4100 3525 3541 
Q 3525 3141 3298 2862 
Q 3072 2584 2669 2484 
Q 3125 2378 3379 2068 
Q 3634 1759 3634 1313 
Q 3634 634 3220 271 
Q 2806 -91 2034 -91 
Q 1263 -91 848 271 
Q 434 634 434 1313 
Q 434 1759 690 2068 
Q 947 2378 1403 2484 
z
M 1172 3481 
Q 1172 3119 1398 2916 
Q 1625 2713 2034 2713 
Q 2441 2713 2670 2916 
Q 2900 3119 2900 3481 
Q 2900 3844 2670 4047 
Q 2441 4250 2034 4250 
Q 1625 4250 1398 4047 
Q 1172 3844 1172 3481 
z
" transform="scale(0.015625)"/>
       </defs>
       <use xlink:href="#DejaVuSans-32" transform="translate(0 0.765625)"/>
       <use xlink:href="#DejaVuSans-38" transform="translate(64.580078 39.046875) scale(0.7)"/>
      </g>
     </g>
    </g>
    <g id="xtick_2">
     <g id="line2d_3">
      <path d="M 244.782727 422.728 
L 244.782727 25.44 
" clip-path="url(#p3e03bee8f0)" style="fill: none; stroke: #b0b0b0; stroke-opacity: 0.3; stroke-width: 0.8; stroke-linecap: square"/>
     </g>
     <g id="line2d_4">
      <g>
       <use xlink:href="#mabfc481008" x="244.782727" y="422.728" style="stroke: #000000; stroke-width: 0.8"/>
      </g>
     </g>
     <g id="text_2">
      <!-- $\mathdefault{2^{10}}$ -->
      <g transform="translate(236.932727 437.326437) scale(0.1 -0.1)">
       <defs>
        <path id="DejaVuSans-31" d="M 794 531 
L 1825 531 
L 1825 4091 
L 703 3866 
L 703 4441 
L 1819 4666 
L 2450 4666 
L 2450 531 
L 3481 531 
L 3481 0 
L 794 0 
L 794 531 
z
" transform="scale(0.015625)"/>
        <path id="DejaVuSans-30" d="M 2034 4250 
Q 1547 4250 1301 3770 
Q 1056 3291 1056 2328 
Q 1056 1369 1301 889 
Q 1547 409 2034 409 
Q 2525 409 2770 889 
Q 3016 1369 3016 2328 
Q 3016 3291 2770 3770 
Q 2525 4250 2034 4250 
z
M 2034 4750 
Q 2819 4750 3233 4129 
Q 3647 3509 3647 2328 
Q 3647 1150 3233 529 
Q 2819 -91 2034 -91 
Q 1250 -91 836 529 
Q 422 1150 422 2328 
Q 422 3509 836 4129 
Q 1250 4750 2034 4750 
z
" transform="scale(0.015625)"/>
       </defs>
       <use xlink:href="#DejaVuSans-32" transform="translate(0 0.765625)"/>
       <use xlink:href="#DejaVuSans-31" transform="translate(64.580078 39.046875) scale(0.7)"/>
       <use xlink:href="#DejaVuSans-30" transform="translate(109.116211 39.046875) scale(0.7)"/>
      </g>
     </g>
    </g>
    <g id="xtick_3">
     <g id="line2d_5">
      <path d="M 351.514848 422.728 
L 351.514848 25.44 
" clip-path="url(#p3e03bee8f0)" style="fill: none; stroke: #b0b0b0; stroke-opacity: 0.3; stroke-width: 0.8; stroke-linecap: square"/>
     </g>
     <g id="line2d_6">
      <g>
       <use xlink:href="#mabfc481008" x="351.514848" y="422.728" style="stroke: #000000; stroke-width: 0.8"/>
      </g>
     </g>
     <g id="text_3">
      <!-- $\mathdefault{2^{12}}$ -->
      <g transform="translate(343.664848 437.326437) scale(0.1 -0.1)">
       <use xlink:href="#DejaVuSans-32" transform="translate(0 0.765625)"/>
       <use xlink:href="#DejaVuSans-31" transform="translate(64.580078 39.046875) scale(0.7)"/>
       <use xlink:href="#DejaVuSans-32" transform="translate(109.116211 39.046875) scale(0.7)"/>
      </g>
     </g>
    </g>
    <g id="xtick_4">
     <g id="line2d_7">
      <path d="M 458.24697 422.728 
L 458.24697 25.44 
" clip-path="url(#p3e03bee8f0)" style="fill: none; stroke: #b0b0b0; stroke-opacity: 0.3; stroke-width: 0.8; stroke-linecap: square"/>
     </g>
     <g id="line2d_8">
      <g>
       <use xlink:href="#mabfc481008" x="458.24697" y="422.728" style="stroke: #000000; stroke-width: 0.8"/>
      </g>
     </g>
     <g id="text_4">
      <!-- $\mathdefault{2^{14}}$ -->
      <g transform="translate(450.39697 437.326437) scale(0.1 -0.1)">
       <defs>
        <path id="DejaVuSans-34" d="M 2419 4116 
L 825 1625 
L 2419 1625 
L 2419 4116 
z
M 2253 4666 
L 3047 4666 
L 3047 1625 
L 3713 1625 
L 3713 1100 
L 3047 1100 
L 3047 0 
L 2419 0 
L 2419 1100 
L 313 1100 
L 313 1709 
L 2253 4666 
z
" transform="scale(0.015625)"/>
       </defs>
       <use xlink:href="#DejaVuSans-32" transform="translate(0 0.684375)"/>
       <use xlink:href="#DejaVuSans-31" transform="translate(64.580078 38.965625) scale(0.7)"/>
       <use xlink:href="#DejaVuSans-34" transform="translate(109.116211 38.965625) scale(0.7)"/>
      </g>
     </g>
    </g>
    <g id="xtick_5">
     <g id="line2d_9">
      <path d="M 564.979091 422.728 
L 564.979091 25.44 
" clip-path="url(#p3e03bee8f0)" style="fill: none; stroke: #b0b0b0; stroke-opacity: 0.3; stroke-width: 0.8; stroke-linecap: square"/>
     </g>
     <g id="line2d_10">
      <g>
       <use xlink:href="#mabfc481008" x="564.979091" y="422.728" style="stroke: #000000; stroke-width: 0.8"/>
      </g>
     </g>
     <g id="text_5">
      <!-- $\mathdefault{2^{16}}$ -->
      <g transform="translate(557.129091 437.326437) scale(0.1 -0.1)">
       <defs>
        <path id="DejaVuSans-36" d="M 2113 2584 
Q 1688 2584 1439 2293 
Q 1191 2003 1191 1497 
Q 1191 994 1439 701 
Q 1688 409 2113 409 
Q 2538 409 2786 701 
Q 3034 994 3034 1497 
Q 3034 2003 2786 2293 
Q 2538 2584 2113 2584 
z
M 3366 4563 
L 3366 3988 
Q 3128 4100 2886 4159 
Q 2644 4219 2406 4219 
Q 1781 4219 1451 3797 
Q 1122 3375 1075 2522 
Q 1259 2794 1537 2939 
Q 1816 3084 2150 3084 
Q 2853 3084 3261 2657 
Q 3669 2231 3669 1497 
Q 3669 778 3244 343 
Q 2819 -91 2113 -91 
Q 1303 -91 875 529 
Q 447 1150 447 2328 
Q 447 3434 972 4092 
Q 1497 4750 2381 4750 
Q 2619 4750 2861 4703 
Q 3103 4656 3366 4563 
z
" transform="scale(0.015625)"/>
       </defs>
       <use xlink:href="#DejaVuSans-32" transform="translate(0 0.765625)"/>
       <use xlink:href="#DejaVuSans-31" transform="translate(64.580078 39.046875) scale(0.7)"/>
       <use xlink:href="#DejaVuSans-36" transform="translate(109.116211 39.046875) scale(0.7)"/>
      </g>
     </g>
    </g>
    <g id="xtick_6">
     <g id="line2d_11">
      <path d="M 671.711212 422.728 
L 671.711212 25.44 
" clip-path="url(#p3e03bee8f0)" style="fill: none; stroke: #b0b0b0; stroke-opacity: 0.3; stroke-width: 0.8; stroke-linecap: square"/>
     </g>
     <g id="line2d_12">
      <g>
       <use xlink:href="#mabfc481008" x="671.711212" y="422.728" style="stroke: #000000; stroke-width: 0.8"/>
      </g>
     </g>
     <g id="text_6">
      <!-- $\mathdefault{2^{18}}$ -->
      <g transform="translate(663.861212 437.326437) scale(0.1 -0.1)">
       <use xlink:href="#DejaVuSans-32" transform="translate(0 0.765625)"/>
       <use xlink:href="#DejaVuSans-31" transform="translate(64.580078 39.046875) scale(0.7)"/>
       <use xlink:href="#DejaVuSans-38" transform="translate(109.116211 39.046875) scale(0.7)"/>
      </g>
     </g>
    </g>
    <g id="xtick_7">
     <g id="line2d_13">
      <path d="M 778.443333 422.728 
L 778.443333 25.44 
" clip-path="url(#p3e03bee8f0)" style="fill: none; stroke: #b0b0b0; stroke-opacity: 0.3; stroke-width: 0.8; stroke-linecap: square"/>
     </g>
     <g id="line2d_14">
      <g>
       <use xlink:href="#mabfc481008" x="778.443333" y="422.728" style="stroke: #000000; stroke-width: 0.8"/>
      </g>
     </g>
     <g id="text_7">
      <!-- $\mathdefault{2^{20}}$ -->
      <g transform="translate(770.593333 437.326437) scale(0.1 -0.1)">
       <use xlink:href="#DejaVuSans-32" transform="translate(0 0.765625)"/>
       <use xlink:href="#DejaVuSans-32" transform="translate(64.580078 39.046875) scale(0.7)"/>
       <use xlink:href="#DejaVuSans-30" transform="translate(109.116211 39.046875) scale(0.7)"/>
      </g>
     </g>
    </g>
    <g id="xtick_8">
     <g id="line2d_15">
      <path d="M 885.175455 422.728 
L 885.175455 25.44 
" clip-path="url(#p3e03bee8f0)" style="fill: none; stroke: #b0b0b0; stroke-opacity: 0.3; stroke-width: 0.8; stroke-linecap: square"/>
     </g>
     <g id="line2d_16">
      <g>
       <use xlink:href="#mabfc481008" x="885.175455" y="422.728" style="stroke: #000000; stroke-width: 0.8"/>
      </g>
     </g>
     <g id="text_8">
      <!-- $\mathdefault{2^{22}}$ -->
      <g transform="translate(877.325455 437.326437) scale(0.1 -0.1)">
       <use xlink:href="#DejaVuSans-32" transform="translate(0 0.765625)"/>
       <use xlink:href="#DejaVuSans-32" transform="translate(64.580078 39.046875) scale(0.7)"/>
       <use xlink:href="#DejaVuSans-32" transform="translate(109.116211 39.046875) scale(0.7)"/>
      </g>
     </g>
    </g>
    <g id="text_9">
     <!-- n (u64 limbs, balanced an = bn = n) -->
     <g transform="translate(393.615156 451.004563) scale(0.1 -0.1)">
      <defs>
       <path id="DejaVuSans-6e" d="M 3513 2113 
L 3513 0 
L 2938 0 
L 2938 2094 
Q 2938 2591 2744 2837 
Q 2550 3084 2163 3084 
Q 1697 3084 1428 2787 
Q 1159 2491 1159 1978 
L 1159 0 
L 581 0 
L 581 3500 
L 1159 3500 
L 1159 2956 
Q 1366 3272 1645 3428 
Q 1925 3584 2291 3584 
Q 2894 3584 3203 3211 
Q 3513 2838 3513 2113 
z
" transform="scale(0.015625)"/>
       <path id="DejaVuSans-20" transform="scale(0.015625)"/>
       <path id="DejaVuSans-28" d="M 1984 4856 
Q 1566 4138 1362 3434 
Q 1159 2731 1159 2009 
Q 1159 1288 1364 580 
Q 1569 -128 1984 -844 
L 1484 -844 
Q 1016 -109 783 600 
Q 550 1309 550 2009 
Q 550 2706 781 3412 
Q 1013 4119 1484 4856 
L 1984 4856 
z
" transform="scale(0.015625)"/>
       <path id="DejaVuSans-75" d="M 544 1381 
L 544 3500 
L 1119 3500 
L 1119 1403 
Q 1119 906 1312 657 
Q 1506 409 1894 409 
Q 2359 409 2629 706 
Q 2900 1003 2900 1516 
L 2900 3500 
L 3475 3500 
L 3475 0 
L 2900 0 
L 2900 538 
Q 2691 219 2414 64 
Q 2138 -91 1772 -91 
Q 1169 -91 856 284 
Q 544 659 544 1381 
z
M 1991 3584 
L 1991 3584 
z
" transform="scale(0.015625)"/>
       <path id="DejaVuSans-6c" d="M 603 4863 
L 1178 4863 
L 1178 0 
L 603 0 
L 603 4863 
z
" transform="scale(0.015625)"/>
       <path id="DejaVuSans-69" d="M 603 3500 
L 1178 3500 
L 1178 0 
L 603 0 
L 603 3500 
z
M 603 4863 
L 1178 4863 
L 1178 4134 
L 603 4134 
L 603 4863 
z
" transform="scale(0.015625)"/>
       <path id="DejaVuSans-6d" d="M 3328 2828 
Q 3544 3216 3844 3400 
Q 4144 3584 4550 3584 
Q 5097 3584 5394 3201 
Q 5691 2819 5691 2113 
L 5691 0 
L 5113 0 
L 5113 2094 
Q 5113 2597 4934 2840 
Q 4756 3084 4391 3084 
Q 3944 3084 3684 2787 
Q 3425 2491 3425 1978 
L 3425 0 
L 2847 0 
L 2847 2094 
Q 2847 2600 2669 2842 
Q 2491 3084 2119 3084 
Q 1678 3084 1418 2786 
Q 1159 2488 1159 1978 
L 1159 0 
L 581 0 
L 581 3500 
L 1159 3500 
L 1159 2956 
Q 1356 3278 1631 3431 
Q 1906 3584 2284 3584 
Q 2666 3584 2933 3390 
Q 3200 3197 3328 2828 
z
" transform="scale(0.015625)"/>
       <path id="DejaVuSans-62" d="M 3116 1747 
Q 3116 2381 2855 2742 
Q 2594 3103 2138 3103 
Q 1681 3103 1420 2742 
Q 1159 2381 1159 1747 
Q 1159 1113 1420 752 
Q 1681 391 2138 391 
Q 2594 391 2855 752 
Q 3116 1113 3116 1747 
z
M 1159 2969 
Q 1341 3281 1617 3432 
Q 1894 3584 2278 3584 
Q 2916 3584 3314 3078 
Q 3713 2572 3713 1747 
Q 3713 922 3314 415 
Q 2916 -91 2278 -91 
Q 1894 -91 1617 61 
Q 1341 213 1159 525 
L 1159 0 
L 581 0 
L 581 4863 
L 1159 4863 
L 1159 2969 
z
" transform="scale(0.015625)"/>
       <path id="DejaVuSans-73" d="M 2834 3397 
L 2834 2853 
Q 2591 2978 2328 3040 
Q 2066 3103 1784 3103 
Q 1356 3103 1142 2972 
Q 928 2841 928 2578 
Q 928 2378 1081 2264 
Q 1234 2150 1697 2047 
L 1894 2003 
Q 2506 1872 2764 1633 
Q 3022 1394 3022 966 
Q 3022 478 2636 193 
Q 2250 -91 1575 -91 
Q 1294 -91 989 -36 
Q 684 19 347 128 
L 347 722 
Q 666 556 975 473 
Q 1284 391 1588 391 
Q 1994 391 2212 530 
Q 2431 669 2431 922 
Q 2431 1156 2273 1281 
Q 2116 1406 1581 1522 
L 1381 1569 
Q 847 1681 609 1914 
Q 372 2147 372 2553 
Q 372 3047 722 3315 
Q 1072 3584 1716 3584 
Q 2034 3584 2315 3537 
Q 2597 3491 2834 3397 
z
" transform="scale(0.015625)"/>
       <path id="DejaVuSans-2c" d="M 750 794 
L 1409 794 
L 1409 256 
L 897 -744 
L 494 -744 
L 750 256 
L 750 794 
z
" transform="scale(0.015625)"/>
       <path id="DejaVuSans-61" d="M 2194 1759 
Q 1497 1759 1228 1600 
Q 959 1441 959 1056 
Q 959 750 1161 570 
Q 1363 391 1709 391 
Q 2188 391 2477 730 
Q 2766 1069 2766 1631 
L 2766 1759 
L 2194 1759 
z
M 3341 1997 
L 3341 0 
L 2766 0 
L 2766 531 
Q 2569 213 2275 61 
Q 1981 -91 1556 -91 
Q 1019 -91 701 211 
Q 384 513 384 1019 
Q 384 1609 779 1909 
Q 1175 2209 1959 2209 
L 2766 2209 
L 2766 2266 
Q 2766 2663 2505 2880 
Q 2244 3097 1772 3097 
Q 1472 3097 1187 3025 
Q 903 2953 641 2809 
L 641 3341 
Q 956 3463 1253 3523 
Q 1550 3584 1831 3584 
Q 2591 3584 2966 3190 
Q 3341 2797 3341 1997 
z
" transform="scale(0.015625)"/>
       <path id="DejaVuSans-63" d="M 3122 3366 
L 3122 2828 
Q 2878 2963 2633 3030 
Q 2388 3097 2138 3097 
Q 1578 3097 1268 2742 
Q 959 2388 959 1747 
Q 959 1106 1268 751 
Q 1578 397 2138 397 
Q 2388 397 2633 464 
Q 2878 531 3122 666 
L 3122 134 
Q 2881 22 2623 -34 
Q 2366 -91 2075 -91 
Q 1284 -91 818 406 
Q 353 903 353 1747 
Q 353 2603 823 3093 
Q 1294 3584 2113 3584 
Q 2378 3584 2631 3529 
Q 2884 3475 3122 3366 
z
" transform="scale(0.015625)"/>
       <path id="DejaVuSans-65" d="M 3597 1894 
L 3597 1613 
L 953 1613 
Q 991 1019 1311 708 
Q 1631 397 2203 397 
Q 2534 397 2845 478 
Q 3156 559 3463 722 
L 3463 178 
Q 3153 47 2828 -22 
Q 2503 -91 2169 -91 
Q 1331 -91 842 396 
Q 353 884 353 1716 
Q 353 2575 817 3079 
Q 1281 3584 2069 3584 
Q 2775 3584 3186 3129 
Q 3597 2675 3597 1894 
z
M 3022 2063 
Q 3016 2534 2758 2815 
Q 2500 3097 2075 3097 
Q 1594 3097 1305 2825 
Q 1016 2553 972 2059 
L 3022 2063 
z
" transform="scale(0.015625)"/>
       <path id="DejaVuSans-64" d="M 2906 2969 
L 2906 4863 
L 3481 4863 
L 3481 0 
L 2906 0 
L 2906 525 
Q 2725 213 2448 61 
Q 2172 -91 1784 -91 
Q 1150 -91 751 415 
Q 353 922 353 1747 
Q 353 2572 751 3078 
Q 1150 3584 1784 3584 
Q 2172 3584 2448 3432 
Q 2725 3281 2906 2969 
z
M 947 1747 
Q 947 1113 1208 752 
Q 1469 391 1925 391 
Q 2381 391 2643 752 
Q 2906 1113 2906 1747 
Q 2906 2381 2643 2742 
Q 2381 3103 1925 3103 
Q 1469 3103 1208 2742 
Q 947 2381 947 1747 
z
" transform="scale(0.015625)"/>
       <path id="DejaVuSans-3d" d="M 678 2906 
L 4684 2906 
L 4684 2381 
L 678 2381 
L 678 2906 
z
M 678 1631 
L 4684 1631 
L 4684 1100 
L 678 1100 
L 678 1631 
z
" transform="scale(0.015625)"/>
       <path id="DejaVuSans-29" d="M 513 4856 
L 1013 4856 
Q 1481 4119 1714 3412 
Q 1947 2706 1947 2009 
Q 1947 1309 1714 600 
Q 1481 -109 1013 -844 
L 513 -844 
Q 928 -128 1133 580 
Q 1338 1288 1338 2009 
Q 1338 2731 1133 3434 
Q 928 4138 513 4856 
z
" transform="scale(0.015625)"/>
      </defs>
      <use xlink:href="#DejaVuSans-6e"/>
      <use xlink:href="#DejaVuSans-20" transform="translate(63.378906 0)"/>
      <use xlink:href="#DejaVuSans-28" transform="translate(95.166016 0)"/>
      <use xlink:href="#DejaVuSans-75" transform="translate(134.179688 0)"/>
      <use xlink:href="#DejaVuSans-36" transform="translate(197.558594 0)"/>
      <use xlink:href="#DejaVuSans-34" transform="translate(261.181641 0)"/>
      <use xlink:href="#DejaVuSans-20" transform="translate(324.804688 0)"/>
      <use xlink:href="#DejaVuSans-6c" transform="translate(356.591797 0)"/>
      <use xlink:href="#DejaVuSans-69" transform="translate(384.375 0)"/>
      <use xlink:href="#DejaVuSans-6d" transform="translate(412.158203 0)"/>
      <use xlink:href="#DejaVuSans-62" transform="translate(509.570312 0)"/>
      <use xlink:href="#DejaVuSans-73" transform="translate(573.046875 0)"/>
      <use xlink:href="#DejaVuSans-2c" transform="translate(625.146484 0)"/>
      <use xlink:href="#DejaVuSans-20" transform="translate(656.933594 0)"/>
      <use xlink:href="#DejaVuSans-62" transform="translate(688.720703 0)"/>
      <use xlink:href="#DejaVuSans-61" transform="translate(752.197266 0)"/>
      <use xlink:href="#DejaVuSans-6c" transform="translate(813.476562 0)"/>
      <use xlink:href="#DejaVuSans-61" transform="translate(841.259766 0)"/>
      <use xlink:href="#DejaVuSans-6e" transform="translate(902.539062 0)"/>
      <use xlink:href="#DejaVuSans-63" transform="translate(965.917969 0)"/>
      <use xlink:href="#DejaVuSans-65" transform="translate(1020.898438 0)"/>
      <use xlink:href="#DejaVuSans-64" transform="translate(1082.421875 0)"/>
      <use xlink:href="#DejaVuSans-20" transform="translate(1145.898438 0)"/>
      <use xlink:href="#DejaVuSans-61" transform="translate(1177.685547 0)"/>
      <use xlink:href="#DejaVuSans-6e" transform="translate(1238.964844 0)"/>
      <use xlink:href="#DejaVuSans-20" transform="translate(1302.34375 0)"/>
      <use xlink:href="#DejaVuSans-3d" transform="translate(1334.130859 0)"/>
      <use xlink:href="#DejaVuSans-20" transform="translate(1417.919922 0)"/>
      <use xlink:href="#DejaVuSans-62" transform="translate(1449.707031 0)"/>
      <use xlink:href="#DejaVuSans-6e" transform="translate(1513.183594 0)"/>
      <use xlink:href="#DejaVuSans-20" transform="translate(1576.5625 0)"/>
      <use xlink:href="#DejaVuSans-3d" transform="translate(1608.349609 0)"/>
      <use xlink:href="#DejaVuSans-20" transform="translate(1692.138672 0)"/>
      <use xlink:href="#DejaVuSans-6e" transform="translate(1723.925781 0)"/>
      <use xlink:href="#DejaVuSans-29" transform="translate(1787.304688 0)"/>
     </g>
    </g>
   </g>
   <g id="matplotlib.axis_2">
    <g id="ytick_1">
     <g id="line2d_17">
      <path d="M 44.66 422.728 
L 925.2 422.728 
" clip-path="url(#p3e03bee8f0)" style="fill: none; stroke: #b0b0b0; stroke-opacity: 0.3; stroke-width: 0.8; stroke-linecap: square"/>
     </g>
     <g id="line2d_18">
      <defs>
       <path id="me407011295" d="M 0 0 
L -3.5 0 
" style="stroke: #000000; stroke-width: 0.8"/>
      </defs>
      <g>
       <use xlink:href="#me407011295" x="44.66" y="422.728" style="stroke: #000000; stroke-width: 0.8"/>
      </g>
     </g>
     <g id="text_10">
      <!-- 0 -->
      <g transform="translate(31.2975 426.527219) scale(0.1 -0.1)">
       <use xlink:href="#DejaVuSans-30"/>
      </g>
     </g>
    </g>
    <g id="ytick_2">
     <g id="line2d_19">
      <path d="M 44.66 337.977828 
L 925.2 337.977828 
" clip-path="url(#p3e03bee8f0)" style="fill: none; stroke: #b0b0b0; stroke-opacity: 0.3; stroke-width: 0.8; stroke-linecap: square"/>
     </g>
     <g id="line2d_20">
      <g>
       <use xlink:href="#me407011295" x="44.66" y="337.977828" style="stroke: #000000; stroke-width: 0.8"/>
      </g>
     </g>
     <g id="text_11">
      <!-- 20 -->
      <g transform="translate(24.935 341.777047) scale(0.1 -0.1)">
       <use xlink:href="#DejaVuSans-32"/>
       <use xlink:href="#DejaVuSans-30" transform="translate(63.623047 0)"/>
      </g>
     </g>
    </g>
    <g id="ytick_3">
     <g id="line2d_21">
      <path d="M 44.66 253.227656 
L 925.2 253.227656 
" clip-path="url(#p3e03bee8f0)" style="fill: none; stroke: #b0b0b0; stroke-opacity: 0.3; stroke-width: 0.8; stroke-linecap: square"/>
     </g>
     <g id="line2d_22">
      <g>
       <use xlink:href="#me407011295" x="44.66" y="253.227656" style="stroke: #000000; stroke-width: 0.8"/>
      </g>
     </g>
     <g id="text_12">
      <!-- 40 -->
      <g transform="translate(24.935 257.026875) scale(0.1 -0.1)">
       <use xlink:href="#DejaVuSans-34"/>
       <use xlink:href="#DejaVuSans-30" transform="translate(63.623047 0)"/>
      </g>
     </g>
    </g>
    <g id="ytick_4">
     <g id="line2d_23">
      <path d="M 44.66 168.477484 
L 925.2 168.477484 
" clip-path="url(#p3e03bee8f0)" style="fill: none; stroke: #b0b0b0; stroke-opacity: 0.3; stroke-width: 0.8; stroke-linecap: square"/>
     </g>
     <g id="line2d_24">
      <g>
       <use xlink:href="#me407011295" x="44.66" y="168.477484" style="stroke: #000000; stroke-width: 0.8"/>
      </g>
     </g>
     <g id="text_13">
      <!-- 60 -->
      <g transform="translate(24.935 172.276703) scale(0.1 -0.1)">
       <use xlink:href="#DejaVuSans-36"/>
       <use xlink:href="#DejaVuSans-30" transform="translate(63.623047 0)"/>
      </g>
     </g>
    </g>
    <g id="ytick_5">
     <g id="line2d_25">
      <path d="M 44.66 83.727312 
L 925.2 83.727312 
" clip-path="url(#p3e03bee8f0)" style="fill: none; stroke: #b0b0b0; stroke-opacity: 0.3; stroke-width: 0.8; stroke-linecap: square"/>
     </g>
     <g id="line2d_26">
      <g>
       <use xlink:href="#me407011295" x="44.66" y="83.727312" style="stroke: #000000; stroke-width: 0.8"/>
      </g>
     </g>
     <g id="text_14">
      <!-- 80 -->
      <g transform="translate(24.935 87.526531) scale(0.1 -0.1)">
       <use xlink:href="#DejaVuSans-38"/>
       <use xlink:href="#DejaVuSans-30" transform="translate(63.623047 0)"/>
      </g>
     </g>
    </g>
    <g id="text_15">
     <!-- ns / input limb -->
     <g transform="translate(18.855312 259.992594) rotate(-90) scale(0.1 -0.1)">
      <defs>
       <path id="DejaVuSans-2f" d="M 1625 4666 
L 2156 4666 
L 531 -594 
L 0 -594 
L 1625 4666 
z
" transform="scale(0.015625)"/>
       <path id="DejaVuSans-70" d="M 1159 525 
L 1159 -1331 
L 581 -1331 
L 581 3500 
L 1159 3500 
L 1159 2969 
Q 1341 3281 1617 3432 
Q 1894 3584 2278 3584 
Q 2916 3584 3314 3078 
Q 3713 2572 3713 1747 
Q 3713 922 3314 415 
Q 2916 -91 2278 -91 
Q 1894 -91 1617 61 
Q 1341 213 1159 525 
z
M 3116 1747 
Q 3116 2381 2855 2742 
Q 2594 3103 2138 3103 
Q 1681 3103 1420 2742 
Q 1159 2381 1159 1747 
Q 1159 1113 1420 752 
Q 1681 391 2138 391 
Q 2594 391 2855 752 
Q 3116 1113 3116 1747 
z
" transform="scale(0.015625)"/>
       <path id="DejaVuSans-74" d="M 1172 4494 
L 1172 3500 
L 2356 3500 
L 2356 3053 
L 1172 3053 
L 1172 1153 
Q 1172 725 1289 603 
Q 1406 481 1766 481 
L 2356 481 
L 2356 0 
L 1766 0 
Q 1100 0 847 248 
Q 594 497 594 1153 
L 594 3053 
L 172 3053 
L 172 3500 
L 594 3500 
L 594 4494 
L 1172 4494 
z
" transform="scale(0.015625)"/>
      </defs>
      <use xlink:href="#DejaVuSans-6e"/>
      <use xlink:href="#DejaVuSans-73" transform="translate(63.378906 0)"/>
      <use xlink:href="#DejaVuSans-20" transform="translate(115.478516 0)"/>
      <use xlink:href="#DejaVuSans-2f" transform="translate(147.265625 0)"/>
      <use xlink:href="#DejaVuSans-20" transform="translate(180.957031 0)"/>
      <use xlink:href="#DejaVuSans-69" transform="translate(212.744141 0)"/>
      <use xlink:href="#DejaVuSans-6e" transform="translate(240.527344 0)"/>
      <use xlink:href="#DejaVuSans-70" transform="translate(303.90625 0)"/>
      <use xlink:href="#DejaVuSans-75" transform="translate(367.382812 0)"/>
      <use xlink:href="#DejaVuSans-74" transform="translate(430.761719 0)"/>
      <use xlink:href="#DejaVuSans-20" transform="translate(469.970703 0)"/>
      <use xlink:href="#DejaVuSans-6c" transform="translate(501.757812 0)"/>
      <use xlink:href="#DejaVuSans-69" transform="translate(529.541016 0)"/>
      <use xlink:href="#DejaVuSans-6d" transform="translate(557.324219 0)"/>
      <use xlink:href="#DejaVuSans-62" transform="translate(654.736328 0)"/>
     </g>
    </g>
   </g>
   <g id="line2d_27">
    <path d="M 564.979091 233.436372 
L 568.315002 231.30321 
L 571.650371 235.625893 
L 574.985586 217.506306 
L 578.320727 218.194901 
L 581.655613 219.149612 
L 584.991656 109.349408 
L 588.326316 114.418316 
L 591.662204 115.72135 
L 594.997279 217.079165 
L 598.332628 218.620771 
L 601.668189 219.720404 
L 605.003654 221.835769 
L 608.339188 225.560539 
L 611.67468 223.689255 
L 615.009787 223.130751 
L 618.345152 220.711981 
L 621.6805 224.304541 
L 625.015893 226.763144 
L 628.351131 207.016777 
L 631.686788 207.464258 
L 635.022146 207.199838 
L 638.357264 93.360864 
L 641.69281 97.056819 
L 645.028265 98.990818 
L 648.363737 198.156147 
L 651.69907 197.193809 
L 655.034249 199.16764 
L 658.369714 200.396941 
L 661.704914 199.060007 
L 665.04042 200.846117 
L 668.375847 201.398265 
L 671.711212 203.385232 
L 675.046561 205.499749 
L 678.381954 207.812158 
L 681.71745 185.790673 
L 685.052848 188.050113 
L 688.388207 188.400555 
L 691.723551 81.158534 
L 695.058871 84.308698 
L 698.394325 86.025737 
L 701.729599 179.089477 
L 705.06494 180.632778 
L 708.40031 183.396481 
L 711.735775 184.135078 
L 715.071142 186.178405 
L 718.406481 188.913717 
L 721.741908 188.945074 
L 725.077273 190.45278 
L 728.412622 189.027282 
L 731.748014 193.528364 
L 735.083381 165.539619 
L 738.418785 175.11427 
L 741.754149 177.750424 
L 745.089498 73.097098 
L 748.424932 75.153985 
L 751.760282 76.867633 
L 755.095659 166.152363 
L 758.431096 164.415408 
L 761.766462 167.256658 
L 765.101836 168.347393 
L 768.437203 168.889794 
L 771.772541 170.104264 
L 775.107969 169.741109 
L 778.443333 169.372022 
L 781.778682 169.836453 
L 785.114075 160.248666 
L 788.449442 160.917769 
L 791.784846 161.283466 
L 795.12021 163.740373 
L 798.455616 59.614193 
L 801.790992 61.772356 
L 805.126343 61.483782 
L 808.46172 159.74186 
L 811.797109 161.900023 
L 815.132522 164.753138 
L 818.467896 166.65366 
L 821.803263 163.995471 
L 825.138642 164.359473 
L 828.474029 165.523517 
L 831.809394 165.616742 
L 835.144778 161.644925 
L 838.480136 145.883512 
L 841.815535 148.290841 
L 845.150907 149.527346 
L 848.4863 153.706377 
L 851.821676 42.847219 
L 855.157053 46.038487 
L 858.492429 48.587348 
L 861.827805 142.643513 
L 865.163193 145.774608 
L 868.49856 148.848497 
L 871.833935 150.476971 
L 875.169324 144.744893 
L 878.504702 147.369183 
L 881.840071 144.64955 
L 885.175455 144.109267 
" clip-path="url(#p3e03bee8f0)" style="fill: none; stroke: #9467bd; stroke-opacity: 0.8; stroke-width: 0.9; stroke-linecap: square"/>
   </g>
   <g id="line2d_28">
    <path d="M 84.684545 386.802402 
L 88.211465 376.894683 
L 91.583871 379.088865 
L 94.814734 380.857178 
L 97.91546 382.332678 
L 101.381876 384.209047 
L 104.698922 383.187384 
L 107.878942 384.812468 
L 114.689209 388.023652 
L 117.881001 379.213024 
L 124.61265 382.921692 
L 128.112842 386.638411 
L 134.669222 389.558054 
L 138.050606 390.991603 
L 141.289709 374.46532 
L 144.674472 376.703995 
L 151.281521 380.518601 
L 154.747937 382.435649 
L 158.064983 381.294488 
L 161.467199 383.056021 
L 164.725412 384.920525 
L 168.055269 386.555355 
L 171.442222 377.390048 
L 174.686435 379.467698 
L 178.157552 381.4178 
L 181.478902 384.188707 
L 188.035283 387.43591 
L 191.416667 388.858441 
L 194.799812 372.391059 
L 201.414909 376.609075 
L 208.113997 380.558433 
L 211.431044 379.564737 
L 214.722241 381.408477 
L 221.42133 384.848063 
L 224.808283 375.534443 
L 231.434244 379.446935 
L 234.75937 381.673322 
L 238.110974 383.443329 
L 241.479866 384.870098 
L 244.782727 386.766383 
L 248.093885 370.092634 
L 261.480058 378.426119 
L 264.797104 376.445931 
L 271.457533 380.287233 
L 274.787391 382.088598 
L 278.125599 373.119911 
L 281.46526 375.324686 
L 284.800305 377.153171 
L 288.125431 378.510445 
L 294.806675 382.299625 
L 298.148788 383.998019 
L 301.495948 367.466227 
L 308.14703 372.035532 
L 314.815849 376.212444 
L 318.163165 373.47459 
L 321.509892 375.777676 
L 324.823594 377.875243 
L 328.178907 379.707541 
L 331.49166 371.121925 
L 334.83132 373.024567 
L 338.166365 375.454778 
L 341.512898 375.678518 
L 348.172736 379.638046 
L 351.514848 381.403392 
L 354.84401 364.086814 
L 358.190438 366.713221 
L 361.513091 369.044699 
L 368.197046 373.500439 
L 371.529226 369.395988 
L 381.532241 376.061589 
L 384.86991 365.227127 
L 391.543603 370.206623 
L 394.878959 367.118327 
L 404.880909 373.826303 
L 408.21907 359.614971 
L 411.54788 362.390115 
L 414.887404 365.013557 
L 418.222545 363.502885 
L 421.555539 370.500707 
L 424.895286 365.997506 
L 428.228134 367.25647 
L 431.562361 370.661308 
L 434.898301 373.194491 
L 438.23597 363.428305 
L 444.904075 368.474754 
L 448.239668 367.975999 
L 451.575217 370.301544 
L 458.24697 374.693298 
L 461.580631 356.717786 
L 464.91825 359.242917 
L 468.253465 362.12739 
L 471.588606 364.832615 
L 474.925383 367.254351 
L 478.257723 362.134593 
L 481.594195 364.883041 
L 484.928422 367.332745 
L 488.264362 369.610406 
L 491.602031 356.117755 
L 498.270136 361.667196 
L 501.605729 363.979605 
L 504.941277 366.746698 
L 508.278279 369.023935 
L 511.61303 371.438043 
L 514.948942 303.201019 
L 521.619526 318.300109 
L 524.954666 325.156822 
L 528.289552 331.065604 
L 531.625596 330.303276 
L 534.960255 334.995046 
L 538.296144 338.25708 
L 541.632013 342.405177 
L 544.966568 319.726879 
L 548.302858 323.888536 
L 551.637593 327.828571 
L 554.973127 329.675701 
L 558.308619 333.105117 
L 561.643113 337.425681 
L 564.979091 341.030105 
L 568.315002 298.638069 
L 571.650371 313.826572 
L 574.985586 318.638686 
L 578.320727 321.092204 
L 581.655613 327.050988 
L 584.991656 322.517278 
L 588.326316 325.933134 
L 591.662204 331.486812 
L 594.997279 333.675909 
L 598.332628 305.834207 
L 601.668189 308.830973 
L 605.003654 314.132943 
L 608.339188 297.544368 
L 611.67468 306.544837 
L 615.009787 309.600928 
L 618.345152 316.527136 
L 618.345152 316.527136 
" clip-path="url(#p3e03bee8f0)" style="fill: none; stroke: #1f77b4; stroke-opacity: 0.7; stroke-width: 0.9; stroke-linecap: square"/>
   </g>
   <g id="line2d_29">
    <path d="M 298.148788 312.577778 
L 301.495948 305.083744 
L 304.80714 308.708085 
L 311.474616 313.168063 
L 314.815849 310.273421 
L 318.163165 311.509926 
L 321.509892 311.418395 
L 324.823594 310.966253 
L 328.178907 315.803793 
L 331.49166 313.993953 
L 334.83132 314.916882 
L 338.166365 315.252069 
L 341.512898 318.254768 
L 344.843096 318.731488 
L 348.172736 318.342484 
L 351.514848 318.470881 
L 354.84401 305.565972 
L 358.190438 305.381641 
L 364.856485 309.945437 
L 368.197046 309.662796 
L 371.529226 310.364951 
L 374.862074 311.690443 
L 378.202946 312.61422 
L 381.532241 313.697328 
L 384.86991 311.937914 
L 388.209052 312.798128 
L 391.543603 312.929915 
L 394.878959 314.098196 
L 398.209156 314.378295 
L 401.548611 315.752095 
L 404.880909 315.717772 
L 408.21907 300.108909 
L 411.54788 301.716196 
L 414.887404 302.635311 
L 418.222545 304.984162 
L 421.555539 306.278721 
L 424.895286 305.540971 
L 428.228134 306.946976 
L 434.898301 309.076324 
L 438.23597 307.019014 
L 441.569277 309.042848 
L 448.239668 309.2543 
L 451.575217 310.700138 
L 454.909765 311.276015 
L 458.24697 312.011223 
L 461.580631 295.852331 
L 464.91825 297.792263 
L 468.253465 298.397379 
L 471.588606 300.308495 
L 474.925383 301.550085 
L 478.257723 301.385246 
L 481.594195 302.967956 
L 488.264362 305.247312 
L 491.602031 303.379842 
L 494.935338 304.718894 
L 498.270136 305.605805 
L 501.605729 305.172308 
L 504.941277 306.422373 
L 508.278279 307.269027 
L 511.61303 308.260604 
L 514.948942 292.61318 
L 518.284311 294.39929 
L 521.619526 295.142125 
L 528.289552 298.10372 
L 531.625596 297.999901 
L 534.960255 299.290646 
L 538.296144 300.332649 
L 541.632013 301.566612 
L 544.966568 299.69109 
L 548.302858 300.90556 
L 551.637593 301.885696 
L 554.973127 301.734417 
L 558.308619 302.956938 
L 561.643113 303.571377 
L 564.979091 304.60321 
L 568.315002 287.095944 
L 571.650371 288.688823 
L 578.320727 291.063099 
L 581.655613 292.76912 
L 584.991656 292.574195 
L 588.326316 293.763663 
L 594.997279 295.880299 
L 598.332628 292.300875 
L 601.668189 293.889941 
L 605.003654 296.57186 
L 608.339188 296.126498 
L 611.67468 297.410039 
L 615.009787 295.865044 
L 618.345152 298.325341 
L 621.6805 270.587881 
L 625.015893 273.268953 
L 628.351131 275.580514 
L 631.686788 278.156072 
L 635.022146 279.570976 
L 641.69281 281.671933 
L 645.028265 283.122432 
L 648.363737 283.920355 
L 651.69907 282.571979 
L 655.034249 282.912251 
L 658.369714 285.063211 
L 661.704914 285.955206 
L 665.04042 285.736975 
L 671.711212 286.718382 
L 675.046561 248.284179 
L 678.381954 252.790345 
L 681.71745 248.221887 
L 685.052848 253.576403 
L 688.388207 255.526081 
L 691.723551 257.18676 
L 695.058871 260.633126 
L 698.394325 261.748438 
L 701.729599 264.393067 
L 705.06494 260.967466 
L 708.40031 262.339571 
L 711.735775 264.756222 
L 715.071142 263.900669 
L 721.741908 270.573474 
L 725.077273 272.051517 
L 728.412622 237.794226 
L 731.748014 241.263898 
L 735.083381 243.47164 
L 738.418785 244.495846 
L 741.754149 248.888871 
L 745.089498 249.813919 
L 748.424932 252.538213 
L 751.760282 254.181519 
L 755.095659 257.099891 
L 758.431096 256.277391 
L 761.766462 257.573221 
L 765.101836 259.56146 
L 768.437203 261.112812 
L 771.772541 263.304028 
L 775.107969 264.264247 
L 778.443333 265.771529 
L 781.778682 221.645504 
L 785.114075 226.519063 
L 788.449442 230.516729 
L 791.784846 231.257869 
L 795.12021 236.096256 
L 798.455616 237.439547 
L 801.790992 240.717683 
L 805.126343 242.568203 
L 808.46172 245.686586 
L 811.797109 243.268663 
L 815.132522 247.601516 
L 818.467896 248.938026 
L 821.803263 251.100851 
L 825.138642 253.483602 
L 828.474029 253.222147 
L 831.809394 256.823606 
L 831.809394 256.823606 
" clip-path="url(#p3e03bee8f0)" style="fill: none; stroke: #7f7f7f; stroke-opacity: 0.6; stroke-width: 0.8; stroke-linecap: square"/>
   </g>
   <g id="line2d_30">
    <path d="M 298.148788 343.223864 
L 301.495948 333.299195 
L 304.80714 336.886246 
L 308.14703 338.412596 
L 311.474616 341.029258 
L 314.815849 336.907857 
L 318.163165 337.216771 
L 321.509892 338.344796 
L 324.823594 339.610964 
L 328.178907 340.365664 
L 331.49166 339.428327 
L 334.83132 340.302525 
L 338.166365 340.595761 
L 341.512898 343.307343 
L 344.843096 343.319631 
L 348.172736 343.11496 
L 351.514848 337.72273 
L 354.84401 328.26334 
L 358.190438 328.020107 
L 361.513091 329.954953 
L 364.856485 332.038536 
L 368.197046 331.394435 
L 371.529226 333.236903 
L 374.862074 334.281026 
L 378.202946 334.741643 
L 381.532241 335.811614 
L 384.86991 335.048438 
L 388.209052 335.788307 
L 391.543603 335.630248 
L 394.878959 337.282877 
L 398.209156 337.321438 
L 401.548611 338.414291 
L 404.880909 339.805465 
L 408.21907 324.974609 
L 411.54788 326.119584 
L 414.887404 327.083617 
L 418.222545 329.195591 
L 421.555539 330.22573 
L 424.895286 330.045212 
L 431.562361 332.351688 
L 434.898301 333.164018 
L 438.23597 330.673211 
L 441.569277 332.274989 
L 448.239668 333.105117 
L 451.575217 334.117034 
L 454.909765 334.773424 
L 458.24697 337.324828 
L 461.580631 325.429294 
L 464.91825 326.930219 
L 468.253465 327.552286 
L 471.588606 329.110841 
L 474.925383 329.909612 
L 478.257723 328.758704 
L 481.594195 329.937579 
L 488.264362 331.924547 
L 491.602031 331.053739 
L 494.935338 332.24236 
L 498.270136 332.849171 
L 501.605729 331.948277 
L 504.941277 333.046639 
L 508.278279 333.903464 
L 511.61303 329.119316 
L 514.948942 315.809302 
L 518.284311 317.667026 
L 521.619526 317.982296 
L 528.289552 320.743881 
L 531.625596 321.47358 
L 534.960255 322.625758 
L 538.296144 323.384696 
L 541.632013 324.409749 
L 544.966568 323.837686 
L 548.302858 324.971643 
L 554.973127 326.108566 
L 558.308619 327.131925 
L 561.643113 327.653562 
L 564.979091 330.406671 
L 568.315002 315.698279 
L 571.650371 316.159744 
L 574.985586 317.821271 
L 578.320727 318.756065 
L 581.655613 320.37776 
L 584.991656 320.694725 
L 588.326316 321.770205 
L 591.662204 322.025303 
L 594.997279 323.384696 
L 598.332628 320.784984 
L 601.668189 321.248568 
L 605.003654 322.568552 
L 608.339188 322.670252 
L 611.67468 322.98637 
L 615.009787 324.22796 
L 618.345152 326.225945 
L 621.6805 303.99089 
L 625.015893 305.853275 
L 628.351131 306.611789 
L 631.686788 307.874991 
L 635.022146 308.194075 
L 638.357264 307.656759 
L 641.69281 308.455529 
L 645.028265 309.526348 
L 648.363737 309.239045 
L 651.69907 309.377611 
L 655.034249 310.846332 
L 658.369714 312.051903 
L 661.704914 309.462361 
L 665.04042 309.438631 
L 668.375847 310.269607 
L 671.711212 307.186396 
L 675.046561 270.883659 
L 678.381954 272.604935 
L 681.71745 275.689842 
L 685.052848 277.885719 
L 688.388207 281.037154 
L 691.723551 282.727496 
L 695.058871 284.647087 
L 698.394325 285.583153 
L 701.729599 287.184507 
L 705.06494 288.048535 
L 708.40031 290.149492 
L 711.735775 291.166071 
L 715.071142 292.912772 
L 718.406481 293.004726 
L 721.741908 295.302726 
L 725.077273 299.236829 
L 728.412622 266.534281 
L 731.748014 270.0048 
L 735.083381 273.073604 
L 738.418785 275.608058 
L 741.754149 277.870464 
L 745.089498 277.322977 
L 748.424932 280.188805 
L 751.760282 282.266879 
L 755.095659 285.053464 
L 758.431096 283.58771 
L 761.766462 285.253899 
L 765.101836 287.459098 
L 768.437203 287.841745 
L 771.772541 290.026604 
L 775.107969 291.485579 
L 778.443333 295.869705 
L 781.778682 253.175111 
L 785.114075 254.612474 
L 788.449442 255.726515 
L 791.784846 260.463626 
L 795.12021 262.701878 
L 798.455616 264.435019 
L 801.790992 266.89235 
L 805.126343 267.743242 
L 808.46172 268.261913 
L 811.797109 269.601389 
L 815.132522 273.128691 
L 818.467896 275.070742 
L 821.803263 275.728403 
L 825.138642 277.33908 
L 828.474029 277.49502 
L 831.809394 282.35968 
L 831.809394 282.35968 
" clip-path="url(#p3e03bee8f0)" style="fill: none; stroke: #2ca02c; stroke-opacity: 0.7; stroke-width: 0.9; stroke-linecap: square"/>
   </g>
   <g id="line2d_31">
    <path d="M 298.148788 342.372972 
L 301.495948 332.653398 
L 304.80714 336.506141 
L 308.14703 338.023593 
L 311.474616 340.411853 
L 314.815849 336.751917 
L 318.163165 337.072696 
L 321.509892 338.39946 
L 324.823594 339.842756 
L 328.178907 340.595761 
L 331.49166 340.129211 
L 334.83132 340.931372 
L 338.166365 340.969933 
L 341.512898 343.758637 
L 344.843096 343.624732 
L 348.172736 343.347599 
L 351.514848 337.851127 
L 354.84401 328.645987 
L 358.190438 328.217151 
L 361.513091 330.243527 
L 364.856485 332.554241 
L 368.197046 331.841068 
L 371.529226 333.811086 
L 374.862074 334.767492 
L 378.202946 335.459053 
L 381.532241 336.37266 
L 384.86991 335.648046 
L 388.209052 336.378169 
L 391.543603 336.119257 
L 394.878959 337.826973 
L 398.209156 337.914689 
L 401.548611 338.983389 
L 404.880909 340.505502 
L 408.21907 327.784925 
L 411.54788 329.053211 
L 414.887404 329.733755 
L 418.222545 331.994042 
L 421.555539 332.911463 
L 424.895286 332.68179 
L 428.228134 333.594125 
L 431.562361 334.744609 
L 434.898301 335.540413 
L 438.23597 332.550003 
L 441.569277 334.20136 
L 448.239668 334.928517 
L 451.575217 335.876871 
L 454.909765 336.528176 
L 458.24697 338.221061 
L 461.580631 325.611507 
L 464.91825 327.142095 
L 468.253465 327.699751 
L 471.588606 329.10618 
L 474.925383 329.974446 
L 478.257723 328.765484 
L 481.594195 330.132928 
L 484.928422 331.268581 
L 488.264362 332.243208 
L 491.602031 331.595716 
L 494.935338 332.683909 
L 498.270136 333.326739 
L 501.605729 332.287701 
L 504.941277 333.377589 
L 508.278279 334.226785 
L 511.61303 329.51849 
L 514.948942 316.503829 
L 518.284311 318.025095 
L 521.619526 318.432743 
L 524.954666 319.687046 
L 528.289552 321.111273 
L 531.625596 321.796901 
L 534.960255 323.020694 
L 538.296144 323.822854 
L 541.632013 324.832229 
L 544.966568 324.120751 
L 548.302858 325.514891 
L 554.973127 326.369173 
L 558.308619 327.556947 
L 561.643113 327.984512 
L 564.979091 330.580409 
L 568.315002 316.448318 
L 571.650371 316.530526 
L 574.985586 318.163238 
L 578.320727 318.950991 
L 581.655613 320.6693 
L 584.991656 321.087543 
L 588.326316 322.106663 
L 591.662204 322.717288 
L 594.997279 323.471141 
L 598.332628 320.835835 
L 601.668189 321.576975 
L 605.003654 322.89484 
L 608.339188 323.322828 
L 611.67468 324.313134 
L 615.009787 325.117413 
L 618.345152 327.28617 
L 621.6805 305.538852 
L 625.015893 306.824089 
L 628.351131 307.567348 
L 631.686788 309.216586 
L 635.022146 310.185704 
L 638.357264 308.838176 
L 641.69281 309.822973 
L 645.028265 308.366542 
L 648.363737 311.685782 
L 651.69907 310.897182 
L 655.034249 312.595575 
L 658.369714 312.398531 
L 661.704914 311.562047 
L 665.04042 312.2142 
L 668.375847 314.513048 
L 671.711212 310.117904 
L 675.046561 272.582053 
L 678.381954 274.586394 
L 681.71745 275.691537 
L 685.052848 278.634063 
L 688.388207 281.74397 
L 691.723551 283.591524 
L 695.058871 284.712345 
L 698.394325 284.479282 
L 701.729599 286.324293 
L 705.06494 287.95192 
L 708.40031 289.985501 
L 711.735775 290.740625 
L 715.071142 291.10505 
L 718.406481 294.229789 
L 721.741908 295.205264 
L 725.077273 299.194031 
L 728.412622 284.255118 
L 731.748014 286.09801 
L 735.083381 286.845507 
L 738.418785 288.278208 
L 741.754149 288.92231 
L 745.089498 285.661123 
L 748.424932 287.001447 
L 751.760282 288.210832 
L 755.095659 289.743539 
L 758.431096 286.990006 
L 761.766462 286.569645 
L 765.101836 287.587918 
L 768.437203 287.456132 
L 771.772541 291.333028 
L 775.107969 291.796612 
L 778.443333 292.536905 
L 781.778682 275.680519 
L 785.114075 275.895785 
L 788.449442 276.486493 
L 791.784846 278.764154 
L 795.12021 278.619655 
L 798.455616 276.944992 
L 801.790992 277.965384 
L 805.126343 278.838311 
L 808.46172 280.215501 
L 811.797109 278.602281 
L 815.132522 280.137107 
L 818.467896 281.093936 
L 821.803263 280.418901 
L 825.138642 284.10172 
L 828.474029 284.515725 
L 831.809394 287.059077 
L 831.809394 287.059077 
" clip-path="url(#p3e03bee8f0)" style="fill: none; stroke: #d62728; stroke-width: 1.5; stroke-linecap: square"/>
    <defs>
     <path id="m063048ebdb" d="M 0 0.75 
C 0.198902 0.75 0.389685 0.670975 0.53033 0.53033 
C 0.670975 0.389685 0.75 0.198902 0.75 0 
C 0.75 -0.198902 0.670975 -0.389685 0.53033 -0.53033 
C 0.389685 -0.670975 0.198902 -0.75 0 -0.75 
C -0.198902 -0.75 -0.389685 -0.670975 -0.53033 -0.53033 
C -0.670975 -0.389685 -0.75 -0.198902 -0.75 0 
C -0.75 0.198902 -0.670975 0.389685 -0.53033 0.53033 
C -0.389685 0.670975 -0.198902 0.75 0 0.75 
z
" style="stroke: #d62728"/>
    </defs>
    <g clip-path="url(#p3e03bee8f0)">
     <use xlink:href="#m063048ebdb" x="298.148788" y="342.372972" style="fill: #d62728; stroke: #d62728"/>
     <use xlink:href="#m063048ebdb" x="301.495948" y="332.653398" style="fill: #d62728; stroke: #d62728"/>
     <use xlink:href="#m063048ebdb" x="304.80714" y="336.506141" style="fill: #d62728; stroke: #d62728"/>
     <use xlink:href="#m063048ebdb" x="308.14703" y="338.023593" style="fill: #d62728; stroke: #d62728"/>
     <use xlink:href="#m063048ebdb" x="311.474616" y="340.411853" style="fill: #d62728; stroke: #d62728"/>
     <use xlink:href="#m063048ebdb" x="314.815849" y="336.751917" style="fill: #d62728; stroke: #d62728"/>
     <use xlink:href="#m063048ebdb" x="318.163165" y="337.072696" style="fill: #d62728; stroke: #d62728"/>
     <use xlink:href="#m063048ebdb" x="321.509892" y="338.39946" style="fill: #d62728; stroke: #d62728"/>
     <use xlink:href="#m063048ebdb" x="324.823594" y="339.842756" style="fill: #d62728; stroke: #d62728"/>
     <use xlink:href="#m063048ebdb" x="328.178907" y="340.595761" style="fill: #d62728; stroke: #d62728"/>
     <use xlink:href="#m063048ebdb" x="331.49166" y="340.129211" style="fill: #d62728; stroke: #d62728"/>
     <use xlink:href="#m063048ebdb" x="334.83132" y="340.931372" style="fill: #d62728; stroke: #d62728"/>
     <use xlink:href="#m063048ebdb" x="338.166365" y="340.969933" style="fill: #d62728; stroke: #d62728"/>
     <use xlink:href="#m063048ebdb" x="341.512898" y="343.758637" style="fill: #d62728; stroke: #d62728"/>
     <use xlink:href="#m063048ebdb" x="344.843096" y="343.624732" style="fill: #d62728; stroke: #d62728"/>
     <use xlink:href="#m063048ebdb" x="348.172736" y="343.347599" style="fill: #d62728; stroke: #d62728"/>
     <use xlink:href="#m063048ebdb" x="351.514848" y="337.851127" style="fill: #d62728; stroke: #d62728"/>
     <use xlink:href="#m063048ebdb" x="354.84401" y="328.645987" style="fill: #d62728; stroke: #d62728"/>
     <use xlink:href="#m063048ebdb" x="358.190438" y="328.217151" style="fill: #d62728; stroke: #d62728"/>
     <use xlink:href="#m063048ebdb" x="361.513091" y="330.243527" style="fill: #d62728; stroke: #d62728"/>
     <use xlink:href="#m063048ebdb" x="364.856485" y="332.554241" style="fill: #d62728; stroke: #d62728"/>
     <use xlink:href="#m063048ebdb" x="368.197046" y="331.841068" style="fill: #d62728; stroke: #d62728"/>
     <use xlink:href="#m063048ebdb" x="371.529226" y="333.811086" style="fill: #d62728; stroke: #d62728"/>
     <use xlink:href="#m063048ebdb" x="374.862074" y="334.767492" style="fill: #d62728; stroke: #d62728"/>
     <use xlink:href="#m063048ebdb" x="378.202946" y="335.459053" style="fill: #d62728; stroke: #d62728"/>
     <use xlink:href="#m063048ebdb" x="381.532241" y="336.37266" style="fill: #d62728; stroke: #d62728"/>
     <use xlink:href="#m063048ebdb" x="384.86991" y="335.648046" style="fill: #d62728; stroke: #d62728"/>
     <use xlink:href="#m063048ebdb" x="388.209052" y="336.378169" style="fill: #d62728; stroke: #d62728"/>
     <use xlink:href="#m063048ebdb" x="391.543603" y="336.119257" style="fill: #d62728; stroke: #d62728"/>
     <use xlink:href="#m063048ebdb" x="394.878959" y="337.826973" style="fill: #d62728; stroke: #d62728"/>
     <use xlink:href="#m063048ebdb" x="398.209156" y="337.914689" style="fill: #d62728; stroke: #d62728"/>
     <use xlink:href="#m063048ebdb" x="401.548611" y="338.983389" style="fill: #d62728; stroke: #d62728"/>
     <use xlink:href="#m063048ebdb" x="404.880909" y="340.505502" style="fill: #d62728; stroke: #d62728"/>
     <use xlink:href="#m063048ebdb" x="408.21907" y="327.784925" style="fill: #d62728; stroke: #d62728"/>
     <use xlink:href="#m063048ebdb" x="411.54788" y="329.053211" style="fill: #d62728; stroke: #d62728"/>
     <use xlink:href="#m063048ebdb" x="414.887404" y="329.733755" style="fill: #d62728; stroke: #d62728"/>
     <use xlink:href="#m063048ebdb" x="418.222545" y="331.994042" style="fill: #d62728; stroke: #d62728"/>
     <use xlink:href="#m063048ebdb" x="421.555539" y="332.911463" style="fill: #d62728; stroke: #d62728"/>
     <use xlink:href="#m063048ebdb" x="424.895286" y="332.68179" style="fill: #d62728; stroke: #d62728"/>
     <use xlink:href="#m063048ebdb" x="428.228134" y="333.594125" style="fill: #d62728; stroke: #d62728"/>
     <use xlink:href="#m063048ebdb" x="431.562361" y="334.744609" style="fill: #d62728; stroke: #d62728"/>
     <use xlink:href="#m063048ebdb" x="434.898301" y="335.540413" style="fill: #d62728; stroke: #d62728"/>
     <use xlink:href="#m063048ebdb" x="438.23597" y="332.550003" style="fill: #d62728; stroke: #d62728"/>
     <use xlink:href="#m063048ebdb" x="441.569277" y="334.20136" style="fill: #d62728; stroke: #d62728"/>
     <use xlink:href="#m063048ebdb" x="444.904075" y="334.57638" style="fill: #d62728; stroke: #d62728"/>
     <use xlink:href="#m063048ebdb" x="448.239668" y="334.928517" style="fill: #d62728; stroke: #d62728"/>
     <use xlink:href="#m063048ebdb" x="451.575217" y="335.876871" style="fill: #d62728; stroke: #d62728"/>
     <use xlink:href="#m063048ebdb" x="454.909765" y="336.528176" style="fill: #d62728; stroke: #d62728"/>
     <use xlink:href="#m063048ebdb" x="458.24697" y="338.221061" style="fill: #d62728; stroke: #d62728"/>
     <use xlink:href="#m063048ebdb" x="461.580631" y="325.611507" style="fill: #d62728; stroke: #d62728"/>
     <use xlink:href="#m063048ebdb" x="464.91825" y="327.142095" style="fill: #d62728; stroke: #d62728"/>
     <use xlink:href="#m063048ebdb" x="468.253465" y="327.699751" style="fill: #d62728; stroke: #d62728"/>
     <use xlink:href="#m063048ebdb" x="471.588606" y="329.10618" style="fill: #d62728; stroke: #d62728"/>
     <use xlink:href="#m063048ebdb" x="474.925383" y="329.974446" style="fill: #d62728; stroke: #d62728"/>
     <use xlink:href="#m063048ebdb" x="478.257723" y="328.765484" style="fill: #d62728; stroke: #d62728"/>
     <use xlink:href="#m063048ebdb" x="481.594195" y="330.132928" style="fill: #d62728; stroke: #d62728"/>
     <use xlink:href="#m063048ebdb" x="484.928422" y="331.268581" style="fill: #d62728; stroke: #d62728"/>
     <use xlink:href="#m063048ebdb" x="488.264362" y="332.243208" style="fill: #d62728; stroke: #d62728"/>
     <use xlink:href="#m063048ebdb" x="491.602031" y="331.595716" style="fill: #d62728; stroke: #d62728"/>
     <use xlink:href="#m063048ebdb" x="494.935338" y="332.683909" style="fill: #d62728; stroke: #d62728"/>
     <use xlink:href="#m063048ebdb" x="498.270136" y="333.326739" style="fill: #d62728; stroke: #d62728"/>
     <use xlink:href="#m063048ebdb" x="501.605729" y="332.287701" style="fill: #d62728; stroke: #d62728"/>
     <use xlink:href="#m063048ebdb" x="504.941277" y="333.377589" style="fill: #d62728; stroke: #d62728"/>
     <use xlink:href="#m063048ebdb" x="508.278279" y="334.226785" style="fill: #d62728; stroke: #d62728"/>
     <use xlink:href="#m063048ebdb" x="511.61303" y="329.51849" style="fill: #d62728; stroke: #d62728"/>
     <use xlink:href="#m063048ebdb" x="514.948942" y="316.503829" style="fill: #d62728; stroke: #d62728"/>
     <use xlink:href="#m063048ebdb" x="518.284311" y="318.025095" style="fill: #d62728; stroke: #d62728"/>
     <use xlink:href="#m063048ebdb" x="521.619526" y="318.432743" style="fill: #d62728; stroke: #d62728"/>
     <use xlink:href="#m063048ebdb" x="524.954666" y="319.687046" style="fill: #d62728; stroke: #d62728"/>
     <use xlink:href="#m063048ebdb" x="528.289552" y="321.111273" style="fill: #d62728; stroke: #d62728"/>
     <use xlink:href="#m063048ebdb" x="531.625596" y="321.796901" style="fill: #d62728; stroke: #d62728"/>
     <use xlink:href="#m063048ebdb" x="534.960255" y="323.020694" style="fill: #d62728; stroke: #d62728"/>
     <use xlink:href="#m063048ebdb" x="538.296144" y="323.822854" style="fill: #d62728; stroke: #d62728"/>
     <use xlink:href="#m063048ebdb" x="541.632013" y="324.832229" style="fill: #d62728; stroke: #d62728"/>
     <use xlink:href="#m063048ebdb" x="544.966568" y="324.120751" style="fill: #d62728; stroke: #d62728"/>
     <use xlink:href="#m063048ebdb" x="548.302858" y="325.514891" style="fill: #d62728; stroke: #d62728"/>
     <use xlink:href="#m063048ebdb" x="551.637593" y="325.933557" style="fill: #d62728; stroke: #d62728"/>
     <use xlink:href="#m063048ebdb" x="554.973127" y="326.369173" style="fill: #d62728; stroke: #d62728"/>
     <use xlink:href="#m063048ebdb" x="558.308619" y="327.556947" style="fill: #d62728; stroke: #d62728"/>
     <use xlink:href="#m063048ebdb" x="561.643113" y="327.984512" style="fill: #d62728; stroke: #d62728"/>
     <use xlink:href="#m063048ebdb" x="564.979091" y="330.580409" style="fill: #d62728; stroke: #d62728"/>
     <use xlink:href="#m063048ebdb" x="568.315002" y="316.448318" style="fill: #d62728; stroke: #d62728"/>
     <use xlink:href="#m063048ebdb" x="571.650371" y="316.530526" style="fill: #d62728; stroke: #d62728"/>
     <use xlink:href="#m063048ebdb" x="574.985586" y="318.163238" style="fill: #d62728; stroke: #d62728"/>
     <use xlink:href="#m063048ebdb" x="578.320727" y="318.950991" style="fill: #d62728; stroke: #d62728"/>
     <use xlink:href="#m063048ebdb" x="581.655613" y="320.6693" style="fill: #d62728; stroke: #d62728"/>
     <use xlink:href="#m063048ebdb" x="584.991656" y="321.087543" style="fill: #d62728; stroke: #d62728"/>
     <use xlink:href="#m063048ebdb" x="588.326316" y="322.106663" style="fill: #d62728; stroke: #d62728"/>
     <use xlink:href="#m063048ebdb" x="591.662204" y="322.717288" style="fill: #d62728; stroke: #d62728"/>
     <use xlink:href="#m063048ebdb" x="594.997279" y="323.471141" style="fill: #d62728; stroke: #d62728"/>
     <use xlink:href="#m063048ebdb" x="598.332628" y="320.835835" style="fill: #d62728; stroke: #d62728"/>
     <use xlink:href="#m063048ebdb" x="601.668189" y="321.576975" style="fill: #d62728; stroke: #d62728"/>
     <use xlink:href="#m063048ebdb" x="605.003654" y="322.89484" style="fill: #d62728; stroke: #d62728"/>
     <use xlink:href="#m063048ebdb" x="608.339188" y="323.322828" style="fill: #d62728; stroke: #d62728"/>
     <use xlink:href="#m063048ebdb" x="611.67468" y="324.313134" style="fill: #d62728; stroke: #d62728"/>
     <use xlink:href="#m063048ebdb" x="615.009787" y="325.117413" style="fill: #d62728; stroke: #d62728"/>
     <use xlink:href="#m063048ebdb" x="618.345152" y="327.28617" style="fill: #d62728; stroke: #d62728"/>
     <use xlink:href="#m063048ebdb" x="621.6805" y="305.538852" style="fill: #d62728; stroke: #d62728"/>
     <use xlink:href="#m063048ebdb" x="625.015893" y="306.824089" style="fill: #d62728; stroke: #d62728"/>
     <use xlink:href="#m063048ebdb" x="628.351131" y="307.567348" style="fill: #d62728; stroke: #d62728"/>
     <use xlink:href="#m063048ebdb" x="631.686788" y="309.216586" style="fill: #d62728; stroke: #d62728"/>
     <use xlink:href="#m063048ebdb" x="635.022146" y="310.185704" style="fill: #d62728; stroke: #d62728"/>
     <use xlink:href="#m063048ebdb" x="638.357264" y="308.838176" style="fill: #d62728; stroke: #d62728"/>
     <use xlink:href="#m063048ebdb" x="641.69281" y="309.822973" style="fill: #d62728; stroke: #d62728"/>
     <use xlink:href="#m063048ebdb" x="645.028265" y="308.366542" style="fill: #d62728; stroke: #d62728"/>
     <use xlink:href="#m063048ebdb" x="648.363737" y="311.685782" style="fill: #d62728; stroke: #d62728"/>
     <use xlink:href="#m063048ebdb" x="651.69907" y="310.897182" style="fill: #d62728; stroke: #d62728"/>
     <use xlink:href="#m063048ebdb" x="655.034249" y="312.595575" style="fill: #d62728; stroke: #d62728"/>
     <use xlink:href="#m063048ebdb" x="658.369714" y="312.398531" style="fill: #d62728; stroke: #d62728"/>
     <use xlink:href="#m063048ebdb" x="661.704914" y="311.562047" style="fill: #d62728; stroke: #d62728"/>
     <use xlink:href="#m063048ebdb" x="665.04042" y="312.2142" style="fill: #d62728; stroke: #d62728"/>
     <use xlink:href="#m063048ebdb" x="668.375847" y="314.513048" style="fill: #d62728; stroke: #d62728"/>
     <use xlink:href="#m063048ebdb" x="671.711212" y="310.117904" style="fill: #d62728; stroke: #d62728"/>
     <use xlink:href="#m063048ebdb" x="675.046561" y="272.582053" style="fill: #d62728; stroke: #d62728"/>
     <use xlink:href="#m063048ebdb" x="678.381954" y="274.586394" style="fill: #d62728; stroke: #d62728"/>
     <use xlink:href="#m063048ebdb" x="681.71745" y="275.691537" style="fill: #d62728; stroke: #d62728"/>
     <use xlink:href="#m063048ebdb" x="685.052848" y="278.634063" style="fill: #d62728; stroke: #d62728"/>
     <use xlink:href="#m063048ebdb" x="688.388207" y="281.74397" style="fill: #d62728; stroke: #d62728"/>
     <use xlink:href="#m063048ebdb" x="691.723551" y="283.591524" style="fill: #d62728; stroke: #d62728"/>
     <use xlink:href="#m063048ebdb" x="695.058871" y="284.712345" style="fill: #d62728; stroke: #d62728"/>
     <use xlink:href="#m063048ebdb" x="698.394325" y="284.479282" style="fill: #d62728; stroke: #d62728"/>
     <use xlink:href="#m063048ebdb" x="701.729599" y="286.324293" style="fill: #d62728; stroke: #d62728"/>
     <use xlink:href="#m063048ebdb" x="705.06494" y="287.95192" style="fill: #d62728; stroke: #d62728"/>
     <use xlink:href="#m063048ebdb" x="708.40031" y="289.985501" style="fill: #d62728; stroke: #d62728"/>
     <use xlink:href="#m063048ebdb" x="711.735775" y="290.740625" style="fill: #d62728; stroke: #d62728"/>
     <use xlink:href="#m063048ebdb" x="715.071142" y="291.10505" style="fill: #d62728; stroke: #d62728"/>
     <use xlink:href="#m063048ebdb" x="718.406481" y="294.229789" style="fill: #d62728; stroke: #d62728"/>
     <use xlink:href="#m063048ebdb" x="721.741908" y="295.205264" style="fill: #d62728; stroke: #d62728"/>
     <use xlink:href="#m063048ebdb" x="725.077273" y="299.194031" style="fill: #d62728; stroke: #d62728"/>
     <use xlink:href="#m063048ebdb" x="728.412622" y="284.255118" style="fill: #d62728; stroke: #d62728"/>
     <use xlink:href="#m063048ebdb" x="731.748014" y="286.09801" style="fill: #d62728; stroke: #d62728"/>
     <use xlink:href="#m063048ebdb" x="735.083381" y="286.845507" style="fill: #d62728; stroke: #d62728"/>
     <use xlink:href="#m063048ebdb" x="738.418785" y="288.278208" style="fill: #d62728; stroke: #d62728"/>
     <use xlink:href="#m063048ebdb" x="741.754149" y="288.92231" style="fill: #d62728; stroke: #d62728"/>
     <use xlink:href="#m063048ebdb" x="745.089498" y="285.661123" style="fill: #d62728; stroke: #d62728"/>
     <use xlink:href="#m063048ebdb" x="748.424932" y="287.001447" style="fill: #d62728; stroke: #d62728"/>
     <use xlink:href="#m063048ebdb" x="751.760282" y="288.210832" style="fill: #d62728; stroke: #d62728"/>
     <use xlink:href="#m063048ebdb" x="755.095659" y="289.743539" style="fill: #d62728; stroke: #d62728"/>
     <use xlink:href="#m063048ebdb" x="758.431096" y="286.990006" style="fill: #d62728; stroke: #d62728"/>
     <use xlink:href="#m063048ebdb" x="761.766462" y="286.569645" style="fill: #d62728; stroke: #d62728"/>
     <use xlink:href="#m063048ebdb" x="765.101836" y="287.587918" style="fill: #d62728; stroke: #d62728"/>
     <use xlink:href="#m063048ebdb" x="768.437203" y="287.456132" style="fill: #d62728; stroke: #d62728"/>
     <use xlink:href="#m063048ebdb" x="771.772541" y="291.333028" style="fill: #d62728; stroke: #d62728"/>
     <use xlink:href="#m063048ebdb" x="775.107969" y="291.796612" style="fill: #d62728; stroke: #d62728"/>
     <use xlink:href="#m063048ebdb" x="778.443333" y="292.536905" style="fill: #d62728; stroke: #d62728"/>
     <use xlink:href="#m063048ebdb" x="781.778682" y="275.680519" style="fill: #d62728; stroke: #d62728"/>
     <use xlink:href="#m063048ebdb" x="785.114075" y="275.895785" style="fill: #d62728; stroke: #d62728"/>
     <use xlink:href="#m063048ebdb" x="788.449442" y="276.486493" style="fill: #d62728; stroke: #d62728"/>
     <use xlink:href="#m063048ebdb" x="791.784846" y="278.764154" style="fill: #d62728; stroke: #d62728"/>
     <use xlink:href="#m063048ebdb" x="795.12021" y="278.619655" style="fill: #d62728; stroke: #d62728"/>
     <use xlink:href="#m063048ebdb" x="798.455616" y="276.944992" style="fill: #d62728; stroke: #d62728"/>
     <use xlink:href="#m063048ebdb" x="801.790992" y="277.965384" style="fill: #d62728; stroke: #d62728"/>
     <use xlink:href="#m063048ebdb" x="805.126343" y="278.838311" style="fill: #d62728; stroke: #d62728"/>
     <use xlink:href="#m063048ebdb" x="808.46172" y="280.215501" style="fill: #d62728; stroke: #d62728"/>
     <use xlink:href="#m063048ebdb" x="811.797109" y="278.602281" style="fill: #d62728; stroke: #d62728"/>
     <use xlink:href="#m063048ebdb" x="815.132522" y="280.137107" style="fill: #d62728; stroke: #d62728"/>
     <use xlink:href="#m063048ebdb" x="818.467896" y="281.093936" style="fill: #d62728; stroke: #d62728"/>
     <use xlink:href="#m063048ebdb" x="821.803263" y="280.418901" style="fill: #d62728; stroke: #d62728"/>
     <use xlink:href="#m063048ebdb" x="825.138642" y="284.10172" style="fill: #d62728; stroke: #d62728"/>
     <use xlink:href="#m063048ebdb" x="828.474029" y="284.515725" style="fill: #d62728; stroke: #d62728"/>
     <use xlink:href="#m063048ebdb" x="831.809394" y="287.059077" style="fill: #d62728; stroke: #d62728"/>
    </g>
   </g>
   <g id="line2d_32">
    <path d="M 298.148788 422.728 
L 298.148788 25.44 
" clip-path="url(#p3e03bee8f0)" style="fill: none; stroke-dasharray: 0.5,0.825; stroke-dashoffset: 0; stroke: #808080; stroke-width: 0.5"/>
   </g>
   <g id="line2d_33">
    <path d="M 351.514848 422.728 
L 351.514848 25.44 
" clip-path="url(#p3e03bee8f0)" style="fill: none; stroke-dasharray: 0.5,0.825; stroke-dashoffset: 0; stroke: #808080; stroke-width: 0.5"/>
   </g>
   <g id="line2d_34">
    <path d="M 404.880909 422.728 
L 404.880909 25.44 
" clip-path="url(#p3e03bee8f0)" style="fill: none; stroke-dasharray: 0.5,0.825; stroke-dashoffset: 0; stroke: #808080; stroke-width: 0.5"/>
   </g>
   <g id="line2d_35">
    <path d="M 458.24697 422.728 
L 458.24697 25.44 
" clip-path="url(#p3e03bee8f0)" style="fill: none; stroke-dasharray: 0.5,0.825; stroke-dashoffset: 0; stroke: #808080; stroke-width: 0.5"/>
   </g>
   <g id="line2d_36">
    <path d="M 511.61303 422.728 
L 511.61303 25.44 
" clip-path="url(#p3e03bee8f0)" style="fill: none; stroke-dasharray: 0.5,0.825; stroke-dashoffset: 0; stroke: #808080; stroke-width: 0.5"/>
   </g>
   <g id="line2d_37">
    <path d="M 564.979091 422.728 
L 564.979091 25.44 
" clip-path="url(#p3e03bee8f0)" style="fill: none; stroke-dasharray: 0.5,0.825; stroke-dashoffset: 0; stroke: #808080; stroke-width: 0.5"/>
   </g>
   <g id="line2d_38">
    <path d="M 618.345152 422.728 
L 618.345152 25.44 
" clip-path="url(#p3e03bee8f0)" style="fill: none; stroke-dasharray: 0.5,0.825; stroke-dashoffset: 0; stroke: #808080; stroke-width: 0.5"/>
   </g>
   <g id="line2d_39">
    <path d="M 671.711212 422.728 
L 671.711212 25.44 
" clip-path="url(#p3e03bee8f0)" style="fill: none; stroke-dasharray: 0.5,0.825; stroke-dashoffset: 0; stroke: #808080; stroke-width: 0.5"/>
   </g>
   <g id="line2d_40">
    <path d="M 725.077273 422.728 
L 725.077273 25.44 
" clip-path="url(#p3e03bee8f0)" style="fill: none; stroke-dasharray: 0.5,0.825; stroke-dashoffset: 0; stroke: #808080; stroke-width: 0.5"/>
   </g>
   <g id="line2d_41">
    <path d="M 778.443333 422.728 
L 778.443333 25.44 
" clip-path="url(#p3e03bee8f0)" style="fill: none; stroke-dasharray: 0.5,0.825; stroke-dashoffset: 0; stroke: #808080; stroke-width: 0.5"/>
   </g>
   <g id="line2d_42">
    <path d="M 831.809394 422.728 
L 831.809394 25.44 
" clip-path="url(#p3e03bee8f0)" style="fill: none; stroke-dasharray: 0.5,0.825; stroke-dashoffset: 0; stroke: #808080; stroke-width: 0.5"/>
   </g>
   <g id="patch_3">
    <path d="M 44.66 422.728 
L 44.66 25.44 
" style="fill: none; stroke: #000000; stroke-width: 0.8; stroke-linejoin: miter; stroke-linecap: square"/>
   </g>
   <g id="patch_4">
    <path d="M 925.2 422.728 
L 925.2 25.44 
" style="fill: none; stroke: #000000; stroke-width: 0.8; stroke-linejoin: miter; stroke-linecap: square"/>
   </g>
   <g id="patch_5">
    <path d="M 44.66 422.728 
L 925.2 422.728 
" style="fill: none; stroke: #000000; stroke-width: 0.8; stroke-linejoin: miter; stroke-linecap: square"/>
   </g>
   <g id="patch_6">
    <path d="M 44.66 25.44 
L 925.2 25.44 
" style="fill: none; stroke: #000000; stroke-width: 0.8; stroke-linejoin: miter; stroke-linecap: square"/>
   </g>
   <g id="text_16">
    <!-- p30 truncated NTT, stage 2e — 1/16-octave grid (solo, GMP-verified) -->
    <g transform="translate(278.845 19.44) scale(0.12 -0.12)">
     <defs>
      <path id="DejaVuSans-33" d="M 2597 2516 
Q 3050 2419 3304 2112 
Q 3559 1806 3559 1356 
Q 3559 666 3084 287 
Q 2609 -91 1734 -91 
Q 1441 -91 1130 -33 
Q 819 25 488 141 
L 488 750 
Q 750 597 1062 519 
Q 1375 441 1716 441 
Q 2309 441 2620 675 
Q 2931 909 2931 1356 
Q 2931 1769 2642 2001 
Q 2353 2234 1838 2234 
L 1294 2234 
L 1294 2753 
L 1863 2753 
Q 2328 2753 2575 2939 
Q 2822 3125 2822 3475 
Q 2822 3834 2567 4026 
Q 2313 4219 1838 4219 
Q 1578 4219 1281 4162 
Q 984 4106 628 3988 
L 628 4550 
Q 988 4650 1302 4700 
Q 1616 4750 1894 4750 
Q 2613 4750 3031 4423 
Q 3450 4097 3450 3541 
Q 3450 3153 3228 2886 
Q 3006 2619 2597 2516 
z
" transform="scale(0.015625)"/>
      <path id="DejaVuSans-72" d="M 2631 2963 
Q 2534 3019 2420 3045 
Q 2306 3072 2169 3072 
Q 1681 3072 1420 2755 
Q 1159 2438 1159 1844 
L 1159 0 
L 581 0 
L 581 3500 
L 1159 3500 
L 1159 2956 
Q 1341 3275 1631 3429 
Q 1922 3584 2338 3584 
Q 2397 3584 2469 3576 
Q 2541 3569 2628 3553 
L 2631 2963 
z
" transform="scale(0.015625)"/>
      <path id="DejaVuSans-4e" d="M 628 4666 
L 1478 4666 
L 3547 763 
L 3547 4666 
L 4159 4666 
L 4159 0 
L 3309 0 
L 1241 3903 
L 1241 0 
L 628 0 
L 628 4666 
z
" transform="scale(0.015625)"/>
      <path id="DejaVuSans-54" d="M -19 4666 
L 3928 4666 
L 3928 4134 
L 2272 4134 
L 2272 0 
L 1638 0 
L 1638 4134 
L -19 4134 
L -19 4666 
z
" transform="scale(0.015625)"/>
      <path id="DejaVuSans-67" d="M 2906 1791 
Q 2906 2416 2648 2759 
Q 2391 3103 1925 3103 
Q 1463 3103 1205 2759 
Q 947 2416 947 1791 
Q 947 1169 1205 825 
Q 1463 481 1925 481 
Q 2391 481 2648 825 
Q 2906 1169 2906 1791 
z
M 3481 434 
Q 3481 -459 3084 -895 
Q 2688 -1331 1869 -1331 
Q 1566 -1331 1297 -1286 
Q 1028 -1241 775 -1147 
L 775 -588 
Q 1028 -725 1275 -790 
Q 1522 -856 1778 -856 
Q 2344 -856 2625 -561 
Q 2906 -266 2906 331 
L 2906 616 
Q 2728 306 2450 153 
Q 2172 0 1784 0 
Q 1141 0 747 490 
Q 353 981 353 1791 
Q 353 2603 747 3093 
Q 1141 3584 1784 3584 
Q 2172 3584 2450 3431 
Q 2728 3278 2906 2969 
L 2906 3500 
L 3481 3500 
L 3481 434 
z
" transform="scale(0.015625)"/>
      <path id="DejaVuSans-2014" d="M 313 1978 
L 6088 1978 
L 6088 1528 
L 313 1528 
L 313 1978 
z
" transform="scale(0.015625)"/>
      <path id="DejaVuSans-2d" d="M 313 2009 
L 1997 2009 
L 1997 1497 
L 313 1497 
L 313 2009 
z
" transform="scale(0.015625)"/>
      <path id="DejaVuSans-6f" d="M 1959 3097 
Q 1497 3097 1228 2736 
Q 959 2375 959 1747 
Q 959 1119 1226 758 
Q 1494 397 1959 397 
Q 2419 397 2687 759 
Q 2956 1122 2956 1747 
Q 2956 2369 2687 2733 
Q 2419 3097 1959 3097 
z
M 1959 3584 
Q 2709 3584 3137 3096 
Q 3566 2609 3566 1747 
Q 3566 888 3137 398 
Q 2709 -91 1959 -91 
Q 1206 -91 779 398 
Q 353 888 353 1747 
Q 353 2609 779 3096 
Q 1206 3584 1959 3584 
z
" transform="scale(0.015625)"/>
      <path id="DejaVuSans-76" d="M 191 3500 
L 800 3500 
L 1894 563 
L 2988 3500 
L 3597 3500 
L 2284 0 
L 1503 0 
L 191 3500 
z
" transform="scale(0.015625)"/>
      <path id="DejaVuSans-47" d="M 3809 666 
L 3809 1919 
L 2778 1919 
L 2778 2438 
L 4434 2438 
L 4434 434 
Q 4069 175 3628 42 
Q 3188 -91 2688 -91 
Q 1594 -91 976 548 
Q 359 1188 359 2328 
Q 359 3472 976 4111 
Q 1594 4750 2688 4750 
Q 3144 4750 3555 4637 
Q 3966 4525 4313 4306 
L 4313 3634 
Q 3963 3931 3569 4081 
Q 3175 4231 2741 4231 
Q 1884 4231 1454 3753 
Q 1025 3275 1025 2328 
Q 1025 1384 1454 906 
Q 1884 428 2741 428 
Q 3075 428 3337 486 
Q 3600 544 3809 666 
z
" transform="scale(0.015625)"/>
      <path id="DejaVuSans-4d" d="M 628 4666 
L 1569 4666 
L 2759 1491 
L 3956 4666 
L 4897 4666 
L 4897 0 
L 4281 0 
L 4281 4097 
L 3078 897 
L 2444 897 
L 1241 4097 
L 1241 0 
L 628 0 
L 628 4666 
z
" transform="scale(0.015625)"/>
      <path id="DejaVuSans-50" d="M 1259 4147 
L 1259 2394 
L 2053 2394 
Q 2494 2394 2734 2622 
Q 2975 2850 2975 3272 
Q 2975 3691 2734 3919 
Q 2494 4147 2053 4147 
L 1259 4147 
z
M 628 4666 
L 2053 4666 
Q 2838 4666 3239 4311 
Q 3641 3956 3641 3272 
Q 3641 2581 3239 2228 
Q 2838 1875 2053 1875 
L 1259 1875 
L 1259 0 
L 628 0 
L 628 4666 
z
" transform="scale(0.015625)"/>
      <path id="DejaVuSans-66" d="M 2375 4863 
L 2375 4384 
L 1825 4384 
Q 1516 4384 1395 4259 
Q 1275 4134 1275 3809 
L 1275 3500 
L 2222 3500 
L 2222 3053 
L 1275 3053 
L 1275 0 
L 697 0 
L 697 3053 
L 147 3053 
L 147 3500 
L 697 3500 
L 697 3744 
Q 697 4328 969 4595 
Q 1241 4863 1831 4863 
L 2375 4863 
z
" transform="scale(0.015625)"/>
     </defs>
     <use xlink:href="#DejaVuSans-70"/>
     <use xlink:href="#DejaVuSans-33" transform="translate(63.476562 0)"/>
     <use xlink:href="#DejaVuSans-30" transform="translate(127.099609 0)"/>
     <use xlink:href="#DejaVuSans-20" transform="translate(190.722656 0)"/>
     <use xlink:href="#DejaVuSans-74" transform="translate(222.509766 0)"/>
     <use xlink:href="#DejaVuSans-72" transform="translate(261.71875 0)"/>
     <use xlink:href="#DejaVuSans-75" transform="translate(302.832031 0)"/>
     <use xlink:href="#DejaVuSans-6e" transform="translate(366.210938 0)"/>
     <use xlink:href="#DejaVuSans-63" transform="translate(429.589844 0)"/>
     <use xlink:href="#DejaVuSans-61" transform="translate(484.570312 0)"/>
     <use xlink:href="#DejaVuSans-74" transform="translate(545.849609 0)"/>
     <use xlink:href="#DejaVuSans-65" transform="translate(585.058594 0)"/>
     <use xlink:href="#DejaVuSans-64" transform="translate(646.582031 0)"/>
     <use xlink:href="#DejaVuSans-20" transform="translate(710.058594 0)"/>
     <use xlink:href="#DejaVuSans-4e" transform="translate(741.845703 0)"/>
     <use xlink:href="#DejaVuSans-54" transform="translate(816.650391 0)"/>
     <use xlink:href="#DejaVuSans-54" transform="translate(875.984375 0)"/>
     <use xlink:href="#DejaVuSans-2c" transform="translate(937.068359 0)"/>
     <use xlink:href="#DejaVuSans-20" transform="translate(968.855469 0)"/>
     <use xlink:href="#DejaVuSans-73" transform="translate(1000.642578 0)"/>
     <use xlink:href="#DejaVuSans-74" transform="translate(1052.742188 0)"/>
     <use xlink:href="#DejaVuSans-61" transform="translate(1091.951172 0)"/>
     <use xlink:href="#DejaVuSans-67" transform="translate(1153.230469 0)"/>
     <use xlink:href="#DejaVuSans-65" transform="translate(1216.707031 0)"/>
     <use xlink:href="#DejaVuSans-20" transform="translate(1278.230469 0)"/>
     <use xlink:href="#DejaVuSans-32" transform="translate(1310.017578 0)"/>
     <use xlink:href="#DejaVuSans-65" transform="translate(1373.640625 0)"/>
     <use xlink:href="#DejaVuSans-20" transform="translate(1435.164062 0)"/>
     <use xlink:href="#DejaVuSans-2014" transform="translate(1466.951172 0)"/>
     <use xlink:href="#DejaVuSans-20" transform="translate(1566.951172 0)"/>
     <use xlink:href="#DejaVuSans-31" transform="translate(1598.738281 0)"/>
     <use xlink:href="#DejaVuSans-2f" transform="translate(1662.361328 0)"/>
     <use xlink:href="#DejaVuSans-31" transform="translate(1696.052734 0)"/>
     <use xlink:href="#DejaVuSans-36" transform="translate(1759.675781 0)"/>
     <use xlink:href="#DejaVuSans-2d" transform="translate(1823.298828 0)"/>
     <use xlink:href="#DejaVuSans-6f" transform="translate(1861.257812 0)"/>
     <use xlink:href="#DejaVuSans-63" transform="translate(1922.439453 0)"/>
     <use xlink:href="#DejaVuSans-74" transform="translate(1977.419922 0)"/>
     <use xlink:href="#DejaVuSans-61" transform="translate(2016.628906 0)"/>
     <use xlink:href="#DejaVuSans-76" transform="translate(2077.908203 0)"/>
     <use xlink:href="#DejaVuSans-65" transform="translate(2137.087891 0)"/>
     <use xlink:href="#DejaVuSans-20" transform="translate(2198.611328 0)"/>
     <use xlink:href="#DejaVuSans-67" transform="translate(2230.398438 0)"/>
     <use xlink:href="#DejaVuSans-72" transform="translate(2293.875 0)"/>
     <use xlink:href="#DejaVuSans-69" transform="translate(2334.988281 0)"/>
     <use xlink:href="#DejaVuSans-64" transform="translate(2362.771484 0)"/>
     <use xlink:href="#DejaVuSans-20" transform="translate(2426.248047 0)"/>
     <use xlink:href="#DejaVuSans-28" transform="translate(2458.035156 0)"/>
     <use xlink:href="#DejaVuSans-73" transform="translate(2497.048828 0)"/>
     <use xlink:href="#DejaVuSans-6f" transform="translate(2549.148438 0)"/>
     <use xlink:href="#DejaVuSans-6c" transform="translate(2610.330078 0)"/>
     <use xlink:href="#DejaVuSans-6f" transform="translate(2638.113281 0)"/>
     <use xlink:href="#DejaVuSans-2c" transform="translate(2699.294922 0)"/>
     <use xlink:href="#DejaVuSans-20" transform="translate(2731.082031 0)"/>
     <use xlink:href="#DejaVuSans-47" transform="translate(2762.869141 0)"/>
     <use xlink:href="#DejaVuSans-4d" transform="translate(2840.359375 0)"/>
     <use xlink:href="#DejaVuSans-50" transform="translate(2926.638672 0)"/>
     <use xlink:href="#DejaVuSans-2d" transform="translate(2984.691406 0)"/>
     <use xlink:href="#DejaVuSans-76" transform="translate(3018.150391 0)"/>
     <use xlink:href="#DejaVuSans-65" transform="translate(3077.330078 0)"/>
     <use xlink:href="#DejaVuSans-72" transform="translate(3138.853516 0)"/>
     <use xlink:href="#DejaVuSans-69" transform="translate(3179.966797 0)"/>
     <use xlink:href="#DejaVuSans-66" transform="translate(3207.75 0)"/>
     <use xlink:href="#DejaVuSans-69" transform="translate(3242.955078 0)"/>
     <use xlink:href="#DejaVuSans-65" transform="translate(3270.738281 0)"/>
     <use xlink:href="#DejaVuSans-64" transform="translate(3332.261719 0)"/>
     <use xlink:href="#DejaVuSans-29" transform="translate(3395.738281 0)"/>
    </g>
   </g>
   <g id="legend_1">
    <g id="patch_7">
     <path d="M 51.66 107.10875 
L 344.285 107.10875 
Q 346.285 107.10875 346.285 105.10875 
L 346.285 32.44 
Q 346.285 30.44 344.285 30.44 
L 51.66 30.44 
Q 49.66 30.44 49.66 32.44 
L 49.66 105.10875 
Q 49.66 107.10875 51.66 107.10875 
z
" style="fill: #ffffff; opacity: 0.8; stroke: #cccccc; stroke-linejoin: miter"/>
    </g>
    <g id="line2d_43">
     <path d="M 53.66 38.538437 
L 63.66 38.538437 
L 73.66 38.538437 
" style="fill: none; stroke: #9467bd; stroke-opacity: 0.8; stroke-width: 0.9; stroke-linecap: square"/>
    </g>
    <g id="text_17">
     <!-- FLINT fft_small (1 thread) -->
     <g transform="translate(81.66 42.038437) scale(0.1 -0.1)">
      <defs>
       <path id="DejaVuSans-46" d="M 628 4666 
L 3309 4666 
L 3309 4134 
L 1259 4134 
L 1259 2759 
L 3109 2759 
L 3109 2228 
L 1259 2228 
L 1259 0 
L 628 0 
L 628 4666 
z
" transform="scale(0.015625)"/>
       <path id="DejaVuSans-4c" d="M 628 4666 
L 1259 4666 
L 1259 531 
L 3531 531 
L 3531 0 
L 628 0 
L 628 4666 
z
" transform="scale(0.015625)"/>
       <path id="DejaVuSans-49" d="M 628 4666 
L 1259 4666 
L 1259 0 
L 628 0 
L 628 4666 
z
" transform="scale(0.015625)"/>
       <path id="DejaVuSans-5f" d="M 3263 -1063 
L 3263 -1509 
L -63 -1509 
L -63 -1063 
L 3263 -1063 
z
" transform="scale(0.015625)"/>
       <path id="DejaVuSans-68" d="M 3513 2113 
L 3513 0 
L 2938 0 
L 2938 2094 
Q 2938 2591 2744 2837 
Q 2550 3084 2163 3084 
Q 1697 3084 1428 2787 
Q 1159 2491 1159 1978 
L 1159 0 
L 581 0 
L 581 4863 
L 1159 4863 
L 1159 2956 
Q 1366 3272 1645 3428 
Q 1925 3584 2291 3584 
Q 2894 3584 3203 3211 
Q 3513 2838 3513 2113 
z
" transform="scale(0.015625)"/>
      </defs>
      <use xlink:href="#DejaVuSans-46"/>
      <use xlink:href="#DejaVuSans-4c" transform="translate(57.519531 0)"/>
      <use xlink:href="#DejaVuSans-49" transform="translate(113.232422 0)"/>
      <use xlink:href="#DejaVuSans-4e" transform="translate(142.724609 0)"/>
      <use xlink:href="#DejaVuSans-54" transform="translate(217.529297 0)"/>
      <use xlink:href="#DejaVuSans-20" transform="translate(278.613281 0)"/>
      <use xlink:href="#DejaVuSans-66" transform="translate(310.400391 0)"/>
      <use xlink:href="#DejaVuSans-66" transform="translate(345.605469 0)"/>
      <use xlink:href="#DejaVuSans-74" transform="translate(379.060547 0)"/>
      <use xlink:href="#DejaVuSans-5f" transform="translate(418.269531 0)"/>
      <use xlink:href="#DejaVuSans-73" transform="translate(468.269531 0)"/>
      <use xlink:href="#DejaVuSans-6d" transform="translate(520.369141 0)"/>
      <use xlink:href="#DejaVuSans-61" transform="translate(617.78125 0)"/>
      <use xlink:href="#DejaVuSans-6c" transform="translate(679.060547 0)"/>
      <use xlink:href="#DejaVuSans-6c" transform="translate(706.84375 0)"/>
      <use xlink:href="#DejaVuSans-20" transform="translate(734.626953 0)"/>
      <use xlink:href="#DejaVuSans-28" transform="translate(766.414062 0)"/>
      <use xlink:href="#DejaVuSans-31" transform="translate(805.427734 0)"/>
      <use xlink:href="#DejaVuSans-20" transform="translate(869.050781 0)"/>
      <use xlink:href="#DejaVuSans-74" transform="translate(900.837891 0)"/>
      <use xlink:href="#DejaVuSans-68" transform="translate(940.046875 0)"/>
      <use xlink:href="#DejaVuSans-72" transform="translate(1003.425781 0)"/>
      <use xlink:href="#DejaVuSans-65" transform="translate(1042.289062 0)"/>
      <use xlink:href="#DejaVuSans-61" transform="translate(1103.8125 0)"/>
      <use xlink:href="#DejaVuSans-64" transform="translate(1165.091797 0)"/>
      <use xlink:href="#DejaVuSans-29" transform="translate(1228.568359 0)"/>
     </g>
    </g>
    <g id="line2d_44">
     <path d="M 53.66 53.494687 
L 63.66 53.494687 
L 73.66 53.494687 
" style="fill: none; stroke: #1f77b4; stroke-opacity: 0.7; stroke-width: 0.9; stroke-linecap: square"/>
    </g>
    <g id="text_18">
     <!-- fft16/pq16 (caps at 2^17) -->
     <g transform="translate(81.66 56.994687) scale(0.1 -0.1)">
      <defs>
       <path id="DejaVuSans-71" d="M 947 1747 
Q 947 1113 1208 752 
Q 1469 391 1925 391 
Q 2381 391 2643 752 
Q 2906 1113 2906 1747 
Q 2906 2381 2643 2742 
Q 2381 3103 1925 3103 
Q 1469 3103 1208 2742 
Q 947 2381 947 1747 
z
M 2906 525 
Q 2725 213 2448 61 
Q 2172 -91 1784 -91 
Q 1150 -91 751 415 
Q 353 922 353 1747 
Q 353 2572 751 3078 
Q 1150 3584 1784 3584 
Q 2172 3584 2448 3432 
Q 2725 3281 2906 2969 
L 2906 3500 
L 3481 3500 
L 3481 -1331 
L 2906 -1331 
L 2906 525 
z
" transform="scale(0.015625)"/>
       <path id="DejaVuSans-5e" d="M 2988 4666 
L 4684 2925 
L 4056 2925 
L 2681 4159 
L 1306 2925 
L 678 2925 
L 2375 4666 
L 2988 4666 
z
" transform="scale(0.015625)"/>
       <path id="DejaVuSans-37" d="M 525 4666 
L 3525 4666 
L 3525 4397 
L 1831 0 
L 1172 0 
L 2766 4134 
L 525 4134 
L 525 4666 
z
" transform="scale(0.015625)"/>
      </defs>
      <use xlink:href="#DejaVuSans-66"/>
      <use xlink:href="#DejaVuSans-66" transform="translate(35.205078 0)"/>
      <use xlink:href="#DejaVuSans-74" transform="translate(68.660156 0)"/>
      <use xlink:href="#DejaVuSans-31" transform="translate(107.869141 0)"/>
      <use xlink:href="#DejaVuSans-36" transform="translate(171.492188 0)"/>
      <use xlink:href="#DejaVuSans-2f" transform="translate(235.115234 0)"/>
      <use xlink:href="#DejaVuSans-70" transform="translate(268.806641 0)"/>
      <use xlink:href="#DejaVuSans-71" transform="translate(332.283203 0)"/>
      <use xlink:href="#DejaVuSans-31" transform="translate(395.759766 0)"/>
      <use xlink:href="#DejaVuSans-36" transform="translate(459.382812 0)"/>
      <use xlink:href="#DejaVuSans-20" transform="translate(523.005859 0)"/>
      <use xlink:href="#DejaVuSans-28" transform="translate(554.792969 0)"/>
      <use xlink:href="#DejaVuSans-63" transform="translate(593.806641 0)"/>
      <use xlink:href="#DejaVuSans-61" transform="translate(648.787109 0)"/>
      <use xlink:href="#DejaVuSans-70" transform="translate(710.066406 0)"/>
      <use xlink:href="#DejaVuSans-73" transform="translate(773.542969 0)"/>
      <use xlink:href="#DejaVuSans-20" transform="translate(825.642578 0)"/>
      <use xlink:href="#DejaVuSans-61" transform="translate(857.429688 0)"/>
      <use xlink:href="#DejaVuSans-74" transform="translate(918.708984 0)"/>
      <use xlink:href="#DejaVuSans-20" transform="translate(957.917969 0)"/>
      <use xlink:href="#DejaVuSans-32" transform="translate(989.705078 0)"/>
      <use xlink:href="#DejaVuSans-5e" transform="translate(1053.328125 0)"/>
      <use xlink:href="#DejaVuSans-31" transform="translate(1137.117188 0)"/>
      <use xlink:href="#DejaVuSans-37" transform="translate(1200.740234 0)"/>
      <use xlink:href="#DejaVuSans-29" transform="translate(1264.363281 0)"/>
     </g>
    </g>
    <g id="line2d_45">
     <path d="M 53.66 68.172812 
L 63.66 68.172812 
L 73.66 68.172812 
" style="fill: none; stroke: #7f7f7f; stroke-opacity: 0.6; stroke-width: 0.8; stroke-linecap: square"/>
    </g>
    <g id="text_19">
     <!-- p30 stage 1 -->
     <g transform="translate(81.66 71.672812) scale(0.1 -0.1)">
      <use xlink:href="#DejaVuSans-70"/>
      <use xlink:href="#DejaVuSans-33" transform="translate(63.476562 0)"/>
      <use xlink:href="#DejaVuSans-30" transform="translate(127.099609 0)"/>
      <use xlink:href="#DejaVuSans-20" transform="translate(190.722656 0)"/>
      <use xlink:href="#DejaVuSans-73" transform="translate(222.509766 0)"/>
      <use xlink:href="#DejaVuSans-74" transform="translate(274.609375 0)"/>
      <use xlink:href="#DejaVuSans-61" transform="translate(313.818359 0)"/>
      <use xlink:href="#DejaVuSans-67" transform="translate(375.097656 0)"/>
      <use xlink:href="#DejaVuSans-65" transform="translate(438.574219 0)"/>
      <use xlink:href="#DejaVuSans-20" transform="translate(500.097656 0)"/>
      <use xlink:href="#DejaVuSans-31" transform="translate(531.884766 0)"/>
     </g>
    </g>
    <g id="line2d_46">
     <path d="M 53.66 82.850937 
L 63.66 82.850937 
L 73.66 82.850937 
" style="fill: none; stroke: #2ca02c; stroke-opacity: 0.7; stroke-width: 0.9; stroke-linecap: square"/>
    </g>
    <g id="text_20">
     <!-- p30 stage 2d (sb spine + split leaves) -->
     <g transform="translate(81.66 86.350937) scale(0.1 -0.1)">
      <defs>
       <path id="DejaVuSans-2b" d="M 2944 4013 
L 2944 2272 
L 4684 2272 
L 4684 1741 
L 2944 1741 
L 2944 0 
L 2419 0 
L 2419 1741 
L 678 1741 
L 678 2272 
L 2419 2272 
L 2419 4013 
L 2944 4013 
z
" transform="scale(0.015625)"/>
      </defs>
      <use xlink:href="#DejaVuSans-70"/>
      <use xlink:href="#DejaVuSans-33" transform="translate(63.476562 0)"/>
      <use xlink:href="#DejaVuSans-30" transform="translate(127.099609 0)"/>
      <use xlink:href="#DejaVuSans-20" transform="translate(190.722656 0)"/>
      <use xlink:href="#DejaVuSans-73" transform="translate(222.509766 0)"/>
      <use xlink:href="#DejaVuSans-74" transform="translate(274.609375 0)"/>
      <use xlink:href="#DejaVuSans-61" transform="translate(313.818359 0)"/>
      <use xlink:href="#DejaVuSans-67" transform="translate(375.097656 0)"/>
      <use xlink:href="#DejaVuSans-65" transform="translate(438.574219 0)"/>
      <use xlink:href="#DejaVuSans-20" transform="translate(500.097656 0)"/>
      <use xlink:href="#DejaVuSans-32" transform="translate(531.884766 0)"/>
      <use xlink:href="#DejaVuSans-64" transform="translate(595.507812 0)"/>
      <use xlink:href="#DejaVuSans-20" transform="translate(658.984375 0)"/>
      <use xlink:href="#DejaVuSans-28" transform="translate(690.771484 0)"/>
      <use xlink:href="#DejaVuSans-73" transform="translate(729.785156 0)"/>
      <use xlink:href="#DejaVuSans-62" transform="translate(781.884766 0)"/>
      <use xlink:href="#DejaVuSans-20" transform="translate(845.361328 0)"/>
      <use xlink:href="#DejaVuSans-73" transform="translate(877.148438 0)"/>
      <use xlink:href="#DejaVuSans-70" transform="translate(929.248047 0)"/>
      <use xlink:href="#DejaVuSans-69" transform="translate(992.724609 0)"/>
      <use xlink:href="#DejaVuSans-6e" transform="translate(1020.507812 0)"/>
      <use xlink:href="#DejaVuSans-65" transform="translate(1083.886719 0)"/>
      <use xlink:href="#DejaVuSans-20" transform="translate(1145.410156 0)"/>
      <use xlink:href="#DejaVuSans-2b" transform="translate(1177.197266 0)"/>
      <use xlink:href="#DejaVuSans-20" transform="translate(1260.986328 0)"/>
      <use xlink:href="#DejaVuSans-73" transform="translate(1292.773438 0)"/>
      <use xlink:href="#DejaVuSans-70" transform="translate(1344.873047 0)"/>
      <use xlink:href="#DejaVuSans-6c" transform="translate(1408.349609 0)"/>
      <use xlink:href="#DejaVuSans-69" transform="translate(1436.132812 0)"/>
      <use xlink:href="#DejaVuSans-74" transform="translate(1463.916016 0)"/>
      <use xlink:href="#DejaVuSans-20" transform="translate(1503.125 0)"/>
      <use xlink:href="#DejaVuSans-6c" transform="translate(1534.912109 0)"/>
      <use xlink:href="#DejaVuSans-65" transform="translate(1562.695312 0)"/>
      <use xlink:href="#DejaVuSans-61" transform="translate(1624.21875 0)"/>
      <use xlink:href="#DejaVuSans-76" transform="translate(1685.498047 0)"/>
      <use xlink:href="#DejaVuSans-65" transform="translate(1744.677734 0)"/>
      <use xlink:href="#DejaVuSans-73" transform="translate(1806.201172 0)"/>
      <use xlink:href="#DejaVuSans-29" transform="translate(1858.300781 0)"/>
     </g>
    </g>
    <g id="line2d_47">
     <path d="M 53.66 97.529063 
L 63.66 97.529063 
L 73.66 97.529063 
" style="fill: none; stroke: #d62728; stroke-width: 1.5; stroke-linecap: square"/>
     <g>
      <use xlink:href="#m063048ebdb" x="63.66" y="97.529063" style="fill: #d62728; stroke: #d62728"/>
     </g>
    </g>
    <g id="text_21">
     <!-- p30 stage 2e (fused input column pass + no-canon) -->
     <g transform="translate(81.66 101.029063) scale(0.1 -0.1)">
      <use xlink:href="#DejaVuSans-70"/>
      <use xlink:href="#DejaVuSans-33" transform="translate(63.476562 0)"/>
      <use xlink:href="#DejaVuSans-30" transform="translate(127.099609 0)"/>
      <use xlink:href="#DejaVuSans-20" transform="translate(190.722656 0)"/>
      <use xlink:href="#DejaVuSans-73" transform="translate(222.509766 0)"/>
      <use xlink:href="#DejaVuSans-74" transform="translate(274.609375 0)"/>
      <use xlink:href="#DejaVuSans-61" transform="translate(313.818359 0)"/>
      <use xlink:href="#DejaVuSans-67" transform="translate(375.097656 0)"/>
      <use xlink:href="#DejaVuSans-65" transform="translate(438.574219 0)"/>
      <use xlink:href="#DejaVuSans-20" transform="translate(500.097656 0)"/>
      <use xlink:href="#DejaVuSans-32" transform="translate(531.884766 0)"/>
      <use xlink:href="#DejaVuSans-65" transform="translate(595.507812 0)"/>
      <use xlink:href="#DejaVuSans-20" transform="translate(657.03125 0)"/>
      <use xlink:href="#DejaVuSans-28" transform="translate(688.818359 0)"/>
      <use xlink:href="#DejaVuSans-66" transform="translate(727.832031 0)"/>
      <use xlink:href="#DejaVuSans-75" transform="translate(763.037109 0)"/>
      <use xlink:href="#DejaVuSans-73" transform="translate(826.416016 0)"/>
      <use xlink:href="#DejaVuSans-65" transform="translate(878.515625 0)"/>
      <use xlink:href="#DejaVuSans-64" transform="translate(940.039062 0)"/>
      <use xlink:href="#DejaVuSans-20" transform="translate(1003.515625 0)"/>
      <use xlink:href="#DejaVuSans-69" transform="translate(1035.302734 0)"/>
      <use xlink:href="#DejaVuSans-6e" transform="translate(1063.085938 0)"/>
      <use xlink:href="#DejaVuSans-70" transform="translate(1126.464844 0)"/>
      <use xlink:href="#DejaVuSans-75" transform="translate(1189.941406 0)"/>
      <use xlink:href="#DejaVuSans-74" transform="translate(1253.320312 0)"/>
      <use xlink:href="#DejaVuSans-20" transform="translate(1292.529297 0)"/>
      <use xlink:href="#DejaVuSans-63" transform="translate(1324.316406 0)"/>
      <use xlink:href="#DejaVuSans-6f" transform="translate(1379.296875 0)"/>
      <use xlink:href="#DejaVuSans-6c" transform="translate(1440.478516 0)"/>
      <use xlink:href="#DejaVuSans-75" transform="translate(1468.261719 0)"/>
      <use xlink:href="#DejaVuSans-6d" transform="translate(1531.640625 0)"/>
      <use xlink:href="#DejaVuSans-6e" transform="translate(1629.052734 0)"/>
      <use xlink:href="#DejaVuSans-20" transform="translate(1692.431641 0)"/>
      <use xlink:href="#DejaVuSans-70" transform="translate(1724.21875 0)"/>
      <use xlink:href="#DejaVuSans-61" transform="translate(1787.695312 0)"/>
      <use xlink:href="#DejaVuSans-73" transform="translate(1848.974609 0)"/>
      <use xlink:href="#DejaVuSans-73" transform="translate(1901.074219 0)"/>
      <use xlink:href="#DejaVuSans-20" transform="translate(1953.173828 0)"/>
      <use xlink:href="#DejaVuSans-2b" transform="translate(1984.960938 0)"/>
      <use xlink:href="#DejaVuSans-20" transform="translate(2068.75 0)"/>
      <use xlink:href="#DejaVuSans-6e" transform="translate(2100.537109 0)"/>
      <use xlink:href="#DejaVuSans-6f" transform="translate(2163.916016 0)"/>
      <use xlink:href="#DejaVuSans-2d" transform="translate(2226.972656 0)"/>
      <use xlink:href="#DejaVuSans-63" transform="translate(2263.056641 0)"/>
      <use xlink:href="#DejaVuSans-61" transform="translate(2318.037109 0)"/>
      <use xlink:href="#DejaVuSans-6e" transform="translate(2379.316406 0)"/>
      <use xlink:href="#DejaVuSans-6f" transform="translate(2442.695312 0)"/>
      <use xlink:href="#DejaVuSans-6e" transform="translate(2503.876953 0)"/>
      <use xlink:href="#DejaVuSans-29" transform="translate(2567.255859 0)"/>
     </g>
    </g>
   </g>
  </g>
 </g>
 <defs>
  <clipPath id="p3e03bee8f0">
   <rect x="44.66" y="25.44" width="880.54" height="397.288"/>
  </clipPath>
 </defs>
</svg>
