<?xml version="1.0" encoding="utf-8" standalone="no"?>
<!DOCTYPE svg PUBLIC "-//W3C//DTD SVG 1.1//EN"
  "http://www.w3.org/Graphics/SVG/1.1/DTD/svg11.dtd">
<svg xmlns:xlink="http://www.w3.org/1999/xlink" width="936pt" height="468pt" viewBox="0 0 936 468" xmlns="http://www.w3.org/2000/svg" version="1.1">
 <metadata>
  <rdf:RDF xmlns:dc="http://purl.org/dc/elements/1.1/" xmlns:cc="http://creativecommons.org/ns#" xmlns:rdf="http://www.w3.org/1999/02/22-rdf-syntax-ns#">
   <cc:Work>
    <dc:type rdf:resource="http://purl.org/dc/dcmitype/StillImage"/>
    <dc:date>2026-06-13T03:57:56.100874</dc:date>
    <dc:format>image/svg+xml</dc:format>
    <dc:creator>
     <cc:Agent>
      <dc:title>Matplotlib v3.10.7+dfsg1, https://matplotlib.org/</dc:title>
     </cc:Agent>
    </dc:creator>
   </cc:Work>
  </rdf:RDF>
 </metadata>
 <defs>
  <style type="text/css">*{stroke-linejoin: round; stroke-linecap: butt}</style>
 </defs>
 <g id="figure_1">
  <g id="patch_1">
   <path d="M 0 468 
L 936 468 
L 936 0 
L 0 0 
z
" style="fill: #ffffff"/>
  </g>
  <g id="axes_1">
   <g id="patch_2">
    <path d="M 44.66 422.728 
L 925.2 422.728 
L 925.2 25.44 
L 44.66 25.44 
z
" style="fill: #ffffff"/>
   </g>
   <g id="matplotlib.axis_1">
    <g id="xtick_1">
     <g id="line2d_1">
      <path d="M 157.456446 422.728 
L 157.456446 25.44 
" clip-path="url(#p6977a5712a)" style="fill: none; stroke: #b0b0b0; stroke-opacity: 0.3; stroke-width: 0.8; stroke-linecap: square"/>
     </g>
     <g id="line2d_2">
      <defs>
       <path id="m3bbf346410" d="M 0 0 
L 0 3.5 
" style="stroke: #000000; stroke-width: 0.8"/>
      </defs>
      <g>
       <use xlink:href="#m3bbf346410" x="157.456446" y="422.728" style="stroke: #000000; stroke-width: 0.8"/>
      </g>
     </g>
     <g id="text_1">
      <!-- $\mathdefault{2^{12}}$ -->
      <g transform="translate(149.606446 437.326437) scale(0.1 -0.1)">
       <defs>
        <path id="DejaVuSans-32" d="M 1228 531 
L 3431 531 
L 3431 0 
L 469 0 
L 469 531 
Q 828 903 1448 1529 
Q 2069 2156 2228 2338 
Q 2531 2678 2651 2914 
Q 2772 3150 2772 3378 
Q 2772 3750 2511 3984 
Q 2250 4219 1831 4219 
Q 1534 4219 1204 4116 
Q 875 4013 500 3803 
L 500 4441 
Q 881 4594 1212 4672 
Q 1544 4750 1819 4750 
Q 2544 4750 2975 4387 
Q 3406 4025 3406 3419 
Q 3406 3131 3298 2873 
Q 3191 2616 2906 2266 
Q 2828 2175 2409 1742 
Q 1991 1309 1228 531 
z
" transform="scale(0.015625)"/>
        <path id="DejaVuSans-31" d="M 794 531 
L 1825 531 
L 1825 4091 
L 703 3866 
L 703 4441 
L 1819 4666 
L 2450 4666 
L 2450 531 
L 3481 531 
L 3481 0 
L 794 0 
L 794 531 
z
" transform="scale(0.015625)"/>
       </defs>
       <use xlink:href="#DejaVuSans-32" transform="translate(0 0.765625)"/>
       <use xlink:href="#DejaVuSans-31" transform="translate(64.580078 39.046875) scale(0.7)"/>
       <use xlink:href="#DejaVuSans-32" transform="translate(109.116211 39.046875) scale(0.7)"/>
      </g>
     </g>
    </g>
    <g id="xtick_2">
     <g id="line2d_3">
      <path d="M 303.000248 422.728 
L 303.000248 25.44 
" clip-path="url(#p6977a5712a)" style="fill: none; stroke: #b0b0b0; stroke-opacity: 0.3; stroke-width: 0.8; stroke-linecap: square"/>
     </g>
     <g id="line2d_4">
      <g>
       <use xlink:href="#m3bbf346410" x="303.000248" y="422.728" style="stroke: #000000; stroke-width: 0.8"/>
      </g>
     </g>
     <g id="text_2">
      <!-- $\mathdefault{2^{14}}$ -->
      <g transform="translate(295.150248 437.326437) scale(0.1 -0.1)">
       <defs>
        <path id="DejaVuSans-34" d="M 2419 4116 
L 825 1625 
L 2419 1625 
L 2419 4116 
z
M 2253 4666 
L 3047 4666 
L 3047 1625 
L 3713 1625 
L 3713 1100 
L 3047 1100 
L 3047 0 
L 2419 0 
L 2419 1100 
L 313 1100 
L 313 1709 
L 2253 4666 
z
" transform="scale(0.015625)"/>
       </defs>
       <use xlink:href="#DejaVuSans-32" transform="translate(0 0.684375)"/>
       <use xlink:href="#DejaVuSans-31" transform="translate(64.580078 38.965625) scale(0.7)"/>
       <use xlink:href="#DejaVuSans-34" transform="translate(109.116211 38.965625) scale(0.7)"/>
      </g>
     </g>
    </g>
    <g id="xtick_3">
     <g id="line2d_5">
      <path d="M 448.54405 422.728 
L 448.54405 25.44 
" clip-path="url(#p6977a5712a)" style="fill: none; stroke: #b0b0b0; stroke-opacity: 0.3; stroke-width: 0.8; stroke-linecap: square"/>
     </g>
     <g id="line2d_6">
      <g>
       <use xlink:href="#m3bbf346410" x="448.54405" y="422.728" style="stroke: #000000; stroke-width: 0.8"/>
      </g>
     </g>
     <g id="text_3">
      <!-- $\mathdefault{2^{16}}$ -->
      <g transform="translate(440.69405 437.326437) scale(0.1 -0.1)">
       <defs>
        <path id="DejaVuSans-36" d="M 2113 2584 
Q 1688 2584 1439 2293 
Q 1191 2003 1191 1497 
Q 1191 994 1439 701 
Q 1688 409 2113 409 
Q 2538 409 2786 701 
Q 3034 994 3034 1497 
Q 3034 2003 2786 2293 
Q 2538 2584 2113 2584 
z
M 3366 4563 
L 3366 3988 
Q 3128 4100 2886 4159 
Q 2644 4219 2406 4219 
Q 1781 4219 1451 3797 
Q 1122 3375 1075 2522 
Q 1259 2794 1537 2939 
Q 1816 3084 2150 3084 
Q 2853 3084 3261 2657 
Q 3669 2231 3669 1497 
Q 3669 778 3244 343 
Q 2819 -91 2113 -91 
Q 1303 -91 875 529 
Q 447 1150 447 2328 
Q 447 3434 972 4092 
Q 1497 4750 2381 4750 
Q 2619 4750 2861 4703 
Q 3103 4656 3366 4563 
z
" transform="scale(0.015625)"/>
       </defs>
       <use xlink:href="#DejaVuSans-32" transform="translate(0 0.765625)"/>
       <use xlink:href="#DejaVuSans-31" transform="translate(64.580078 39.046875) scale(0.7)"/>
       <use xlink:href="#DejaVuSans-36" transform="translate(109.116211 39.046875) scale(0.7)"/>
      </g>
     </g>
    </g>
    <g id="xtick_4">
     <g id="line2d_7">
      <path d="M 594.087851 422.728 
L 594.087851 25.44 
" clip-path="url(#p6977a5712a)" style="fill: none; stroke: #b0b0b0; stroke-opacity: 0.3; stroke-width: 0.8; stroke-linecap: square"/>
     </g>
     <g id="line2d_8">
      <g>
       <use xlink:href="#m3bbf346410" x="594.087851" y="422.728" style="stroke: #000000; stroke-width: 0.8"/>
      </g>
     </g>
     <g id="text_4">
      <!-- $\mathdefault{2^{18}}$ -->
      <g transform="translate(586.237851 437.326437) scale(0.1 -0.1)">
       <defs>
        <path id="DejaVuSans-38" d="M 2034 2216 
Q 1584 2216 1326 1975 
Q 1069 1734 1069 1313 
Q 1069 891 1326 650 
Q 1584 409 2034 409 
Q 2484 409 2743 651 
Q 3003 894 3003 1313 
Q 3003 1734 2745 1975 
Q 2488 2216 2034 2216 
z
M 1403 2484 
Q 997 2584 770 2862 
Q 544 3141 544 3541 
Q 544 4100 942 4425 
Q 1341 4750 2034 4750 
Q 2731 4750 3128 4425 
Q 3525 4100 3525 3541 
Q 3525 3141 3298 2862 
Q 3072 2584 2669 2484 
Q 3125 2378 3379 2068 
Q 3634 1759 3634 1313 
Q 3634 634 3220 271 
Q 2806 -91 2034 -91 
Q 1263 -91 848 271 
Q 434 634 434 1313 
Q 434 1759 690 2068 
Q 947 2378 1403 2484 
z
M 1172 3481 
Q 1172 3119 1398 2916 
Q 1625 2713 2034 2713 
Q 2441 2713 2670 2916 
Q 2900 3119 2900 3481 
Q 2900 3844 2670 4047 
Q 2441 4250 2034 4250 
Q 1625 4250 1398 4047 
Q 1172 3844 1172 3481 
z
" transform="scale(0.015625)"/>
       </defs>
       <use xlink:href="#DejaVuSans-32" transform="translate(0 0.765625)"/>
       <use xlink:href="#DejaVuSans-31" transform="translate(64.580078 39.046875) scale(0.7)"/>
       <use xlink:href="#DejaVuSans-38" transform="translate(109.116211 39.046875) scale(0.7)"/>
      </g>
     </g>
    </g>
    <g id="xtick_5">
     <g id="line2d_9">
      <path d="M 739.631653 422.728 
L 739.631653 25.44 
" clip-path="url(#p6977a5712a)" style="fill: none; stroke: #b0b0b0; stroke-opacity: 0.3; stroke-width: 0.8; stroke-linecap: square"/>
     </g>
     <g id="line2d_10">
      <g>
       <use xlink:href="#m3bbf346410" x="739.631653" y="422.728" style="stroke: #000000; stroke-width: 0.8"/>
      </g>
     </g>
     <g id="text_5">
      <!-- $\mathdefault{2^{20}}$ -->
      <g transform="translate(731.781653 437.326437) scale(0.1 -0.1)">
       <defs>
        <path id="DejaVuSans-30" d="M 2034 4250 
Q 1547 4250 1301 3770 
Q 1056 3291 1056 2328 
Q 1056 1369 1301 889 
Q 1547 409 2034 409 
Q 2525 409 2770 889 
Q 3016 1369 3016 2328 
Q 3016 3291 2770 3770 
Q 2525 4250 2034 4250 
z
M 2034 4750 
Q 2819 4750 3233 4129 
Q 3647 3509 3647 2328 
Q 3647 1150 3233 529 
Q 2819 -91 2034 -91 
Q 1250 -91 836 529 
Q 422 1150 422 2328 
Q 422 3509 836 4129 
Q 1250 4750 2034 4750 
z
" transform="scale(0.015625)"/>
       </defs>
       <use xlink:href="#DejaVuSans-32" transform="translate(0 0.765625)"/>
       <use xlink:href="#DejaVuSans-32" transform="translate(64.580078 39.046875) scale(0.7)"/>
       <use xlink:href="#DejaVuSans-30" transform="translate(109.116211 39.046875) scale(0.7)"/>
      </g>
     </g>
    </g>
    <g id="xtick_6">
     <g id="line2d_11">
      <path d="M 885.175455 422.728 
L 885.175455 25.44 
" clip-path="url(#p6977a5712a)" style="fill: none; stroke: #b0b0b0; stroke-opacity: 0.3; stroke-width: 0.8; stroke-linecap: square"/>
     </g>
     <g id="line2d_12">
      <g>
       <use xlink:href="#m3bbf346410" x="885.175455" y="422.728" style="stroke: #000000; stroke-width: 0.8"/>
      </g>
     </g>
     <g id="text_6">
      <!-- $\mathdefault{2^{22}}$ -->
      <g transform="translate(877.325455 437.326437) scale(0.1 -0.1)">
       <use xlink:href="#DejaVuSans-32" transform="translate(0 0.765625)"/>
       <use xlink:href="#DejaVuSans-32" transform="translate(64.580078 39.046875) scale(0.7)"/>
       <use xlink:href="#DejaVuSans-32" transform="translate(109.116211 39.046875) scale(0.7)"/>
      </g>
     </g>
    </g>
    <g id="text_7">
     <!-- n (u64 limbs, balanced an = bn = n) -->
     <g transform="translate(393.615156 451.004563) scale(0.1 -0.1)">
      <defs>
       <path id="DejaVuSans-6e" d="M 3513 2113 
L 3513 0 
L 2938 0 
L 2938 2094 
Q 2938 2591 2744 2837 
Q 2550 3084 2163 3084 
Q 1697 3084 1428 2787 
Q 1159 2491 1159 1978 
L 1159 0 
L 581 0 
L 581 3500 
L 1159 3500 
L 1159 2956 
Q 1366 3272 1645 3428 
Q 1925 3584 2291 3584 
Q 2894 3584 3203 3211 
Q 3513 2838 3513 2113 
z
" transform="scale(0.015625)"/>
       <path id="DejaVuSans-20" transform="scale(0.015625)"/>
       <path id="DejaVuSans-28" d="M 1984 4856 
Q 1566 4138 1362 3434 
Q 1159 2731 1159 2009 
Q 1159 1288 1364 580 
Q 1569 -128 1984 -844 
L 1484 -844 
Q 1016 -109 783 600 
Q 550 1309 550 2009 
Q 550 2706 781 3412 
Q 1013 4119 1484 4856 
L 1984 4856 
z
" transform="scale(0.015625)"/>
       <path id="DejaVuSans-75" d="M 544 1381 
L 544 3500 
L 1119 3500 
L 1119 1403 
Q 1119 906 1312 657 
Q 1506 409 1894 409 
Q 2359 409 2629 706 
Q 2900 1003 2900 1516 
L 2900 3500 
L 3475 3500 
L 3475 0 
L 2900 0 
L 2900 538 
Q 2691 219 2414 64 
Q 2138 -91 1772 -91 
Q 1169 -91 856 284 
Q 544 659 544 1381 
z
M 1991 3584 
L 1991 3584 
z
" transform="scale(0.015625)"/>
       <path id="DejaVuSans-6c" d="M 603 4863 
L 1178 4863 
L 1178 0 
L 603 0 
L 603 4863 
z
" transform="scale(0.015625)"/>
       <path id="DejaVuSans-69" d="M 603 3500 
L 1178 3500 
L 1178 0 
L 603 0 
L 603 3500 
z
M 603 4863 
L 1178 4863 
L 1178 4134 
L 603 4134 
L 603 4863 
z
" transform="scale(0.015625)"/>
       <path id="DejaVuSans-6d" d="M 3328 2828 
Q 3544 3216 3844 3400 
Q 4144 3584 4550 3584 
Q 5097 3584 5394 3201 
Q 5691 2819 5691 2113 
L 5691 0 
L 5113 0 
L 5113 2094 
Q 5113 2597 4934 2840 
Q 4756 3084 4391 3084 
Q 3944 3084 3684 2787 
Q 3425 2491 3425 1978 
L 3425 0 
L 2847 0 
L 2847 2094 
Q 2847 2600 2669 2842 
Q 2491 3084 2119 3084 
Q 1678 3084 1418 2786 
Q 1159 2488 1159 1978 
L 1159 0 
L 581 0 
L 581 3500 
L 1159 3500 
L 1159 2956 
Q 1356 3278 1631 3431 
Q 1906 3584 2284 3584 
Q 2666 3584 2933 3390 
Q 3200 3197 3328 2828 
z
" transform="scale(0.015625)"/>
       <path id="DejaVuSans-62" d="M 3116 1747 
Q 3116 2381 2855 2742 
Q 2594 3103 2138 3103 
Q 1681 3103 1420 2742 
Q 1159 2381 1159 1747 
Q 1159 1113 1420 752 
Q 1681 391 2138 391 
Q 2594 391 2855 752 
Q 3116 1113 3116 1747 
z
M 1159 2969 
Q 1341 3281 1617 3432 
Q 1894 3584 2278 3584 
Q 2916 3584 3314 3078 
Q 3713 2572 3713 1747 
Q 3713 922 3314 415 
Q 2916 -91 2278 -91 
Q 1894 -91 1617 61 
Q 1341 213 1159 525 
L 1159 0 
L 581 0 
L 581 4863 
L 1159 4863 
L 1159 2969 
z
" transform="scale(0.015625)"/>
       <path id="DejaVuSans-73" d="M 2834 3397 
L 2834 2853 
Q 2591 2978 2328 3040 
Q 2066 3103 1784 3103 
Q 1356 3103 1142 2972 
Q 928 2841 928 2578 
Q 928 2378 1081 2264 
Q 1234 2150 1697 2047 
L 1894 2003 
Q 2506 1872 2764 1633 
Q 3022 1394 3022 966 
Q 3022 478 2636 193 
Q 2250 -91 1575 -91 
Q 1294 -91 989 -36 
Q 684 19 347 128 
L 347 722 
Q 666 556 975 473 
Q 1284 391 1588 391 
Q 1994 391 2212 530 
Q 2431 669 2431 922 
Q 2431 1156 2273 1281 
Q 2116 1406 1581 1522 
L 1381 1569 
Q 847 1681 609 1914 
Q 372 2147 372 2553 
Q 372 3047 722 3315 
Q 1072 3584 1716 3584 
Q 2034 3584 2315 3537 
Q 2597 3491 2834 3397 
z
" transform="scale(0.015625)"/>
       <path id="DejaVuSans-2c" d="M 750 794 
L 1409 794 
L 1409 256 
L 897 -744 
L 494 -744 
L 750 256 
L 750 794 
z
" transform="scale(0.015625)"/>
       <path id="DejaVuSans-61" d="M 2194 1759 
Q 1497 1759 1228 1600 
Q 959 1441 959 1056 
Q 959 750 1161 570 
Q 1363 391 1709 391 
Q 2188 391 2477 730 
Q 2766 1069 2766 1631 
L 2766 1759 
L 2194 1759 
z
M 3341 1997 
L 3341 0 
L 2766 0 
L 2766 531 
Q 2569 213 2275 61 
Q 1981 -91 1556 -91 
Q 1019 -91 701 211 
Q 384 513 384 1019 
Q 384 1609 779 1909 
Q 1175 2209 1959 2209 
L 2766 2209 
L 2766 2266 
Q 2766 2663 2505 2880 
Q 2244 3097 1772 3097 
Q 1472 3097 1187 3025 
Q 903 2953 641 2809 
L 641 3341 
Q 956 3463 1253 3523 
Q 1550 3584 1831 3584 
Q 2591 3584 2966 3190 
Q 3341 2797 3341 1997 
z
" transform="scale(0.015625)"/>
       <path id="DejaVuSans-63" d="M 3122 3366 
L 3122 2828 
Q 2878 2963 2633 3030 
Q 2388 3097 2138 3097 
Q 1578 3097 1268 2742 
Q 959 2388 959 1747 
Q 959 1106 1268 751 
Q 1578 397 2138 397 
Q 2388 397 2633 464 
Q 2878 531 3122 666 
L 3122 134 
Q 2881 22 2623 -34 
Q 2366 -91 2075 -91 
Q 1284 -91 818 406 
Q 353 903 353 1747 
Q 353 2603 823 3093 
Q 1294 3584 2113 3584 
Q 2378 3584 2631 3529 
Q 2884 3475 3122 3366 
z
" transform="scale(0.015625)"/>
       <path id="DejaVuSans-65" d="M 3597 1894 
L 3597 1613 
L 953 1613 
Q 991 1019 1311 708 
Q 1631 397 2203 397 
Q 2534 397 2845 478 
Q 3156 559 3463 722 
L 3463 178 
Q 3153 47 2828 -22 
Q 2503 -91 2169 -91 
Q 1331 -91 842 396 
Q 353 884 353 1716 
Q 353 2575 817 3079 
Q 1281 3584 2069 3584 
Q 2775 3584 3186 3129 
Q 3597 2675 3597 1894 
z
M 3022 2063 
Q 3016 2534 2758 2815 
Q 2500 3097 2075 3097 
Q 1594 3097 1305 2825 
Q 1016 2553 972 2059 
L 3022 2063 
z
" transform="scale(0.015625)"/>
       <path id="DejaVuSans-64" d="M 2906 2969 
L 2906 4863 
L 3481 4863 
L 3481 0 
L 2906 0 
L 2906 525 
Q 2725 213 2448 61 
Q 2172 -91 1784 -91 
Q 1150 -91 751 415 
Q 353 922 353 1747 
Q 353 2572 751 3078 
Q 1150 3584 1784 3584 
Q 2172 3584 2448 3432 
Q 2725 3281 2906 2969 
z
M 947 1747 
Q 947 1113 1208 752 
Q 1469 391 1925 391 
Q 2381 391 2643 752 
Q 2906 1113 2906 1747 
Q 2906 2381 2643 2742 
Q 2381 3103 1925 3103 
Q 1469 3103 1208 2742 
Q 947 2381 947 1747 
z
" transform="scale(0.015625)"/>
       <path id="DejaVuSans-3d" d="M 678 2906 
L 4684 2906 
L 4684 2381 
L 678 2381 
L 678 2906 
z
M 678 1631 
L 4684 1631 
L 4684 1100 
L 678 1100 
L 678 1631 
z
" transform="scale(0.015625)"/>
       <path id="DejaVuSans-29" d="M 513 4856 
L 1013 4856 
Q 1481 4119 1714 3412 
Q 1947 2706 1947 2009 
Q 1947 1309 1714 600 
Q 1481 -109 1013 -844 
L 513 -844 
Q 928 -128 1133 580 
Q 1338 1288 1338 2009 
Q 1338 2731 1133 3434 
Q 928 4138 513 4856 
z
" transform="scale(0.015625)"/>
      </defs>
      <use xlink:href="#DejaVuSans-6e"/>
      <use xlink:href="#DejaVuSans-20" transform="translate(63.378906 0)"/>
      <use xlink:href="#DejaVuSans-28" transform="translate(95.166016 0)"/>
      <use xlink:href="#DejaVuSans-75" transform="translate(134.179688 0)"/>
      <use xlink:href="#DejaVuSans-36" transform="translate(197.558594 0)"/>
      <use xlink:href="#DejaVuSans-34" transform="translate(261.181641 0)"/>
      <use xlink:href="#DejaVuSans-20" transform="translate(324.804688 0)"/>
      <use xlink:href="#DejaVuSans-6c" transform="translate(356.591797 0)"/>
      <use xlink:href="#DejaVuSans-69" transform="translate(384.375 0)"/>
      <use xlink:href="#DejaVuSans-6d" transform="translate(412.158203 0)"/>
      <use xlink:href="#DejaVuSans-62" transform="translate(509.570312 0)"/>
      <use xlink:href="#DejaVuSans-73" transform="translate(573.046875 0)"/>
      <use xlink:href="#DejaVuSans-2c" transform="translate(625.146484 0)"/>
      <use xlink:href="#DejaVuSans-20" transform="translate(656.933594 0)"/>
      <use xlink:href="#DejaVuSans-62" transform="translate(688.720703 0)"/>
      <use xlink:href="#DejaVuSans-61" transform="translate(752.197266 0)"/>
      <use xlink:href="#DejaVuSans-6c" transform="translate(813.476562 0)"/>
      <use xlink:href="#DejaVuSans-61" transform="translate(841.259766 0)"/>
      <use xlink:href="#DejaVuSans-6e" transform="translate(902.539062 0)"/>
      <use xlink:href="#DejaVuSans-63" transform="translate(965.917969 0)"/>
      <use xlink:href="#DejaVuSans-65" transform="translate(1020.898438 0)"/>
      <use xlink:href="#DejaVuSans-64" transform="translate(1082.421875 0)"/>
      <use xlink:href="#DejaVuSans-20" transform="translate(1145.898438 0)"/>
      <use xlink:href="#DejaVuSans-61" transform="translate(1177.685547 0)"/>
      <use xlink:href="#DejaVuSans-6e" transform="translate(1238.964844 0)"/>
      <use xlink:href="#DejaVuSans-20" transform="translate(1302.34375 0)"/>
      <use xlink:href="#DejaVuSans-3d" transform="translate(1334.130859 0)"/>
      <use xlink:href="#DejaVuSans-20" transform="translate(1417.919922 0)"/>
      <use xlink:href="#DejaVuSans-62" transform="translate(1449.707031 0)"/>
      <use xlink:href="#DejaVuSans-6e" transform="translate(1513.183594 0)"/>
      <use xlink:href="#DejaVuSans-20" transform="translate(1576.5625 0)"/>
      <use xlink:href="#DejaVuSans-3d" transform="translate(1608.349609 0)"/>
      <use xlink:href="#DejaVuSans-20" transform="translate(1692.138672 0)"/>
      <use xlink:href="#DejaVuSans-6e" transform="translate(1723.925781 0)"/>
      <use xlink:href="#DejaVuSans-29" transform="translate(1787.304688 0)"/>
     </g>
    </g>
   </g>
   <g id="matplotlib.axis_2">
    <g id="ytick_1">
     <g id="line2d_13">
      <path d="M 44.66 422.728 
L 925.2 422.728 
" clip-path="url(#p6977a5712a)" style="fill: none; stroke: #b0b0b0; stroke-opacity: 0.3; stroke-width: 0.8; stroke-linecap: square"/>
     </g>
     <g id="line2d_14">
      <defs>
       <path id="md5240488f9" d="M 0 0 
L -3.5 0 
" style="stroke: #000000; stroke-width: 0.8"/>
      </defs>
      <g>
       <use xlink:href="#md5240488f9" x="44.66" y="422.728" style="stroke: #000000; stroke-width: 0.8"/>
      </g>
     </g>
     <g id="text_8">
      <!-- 0 -->
      <g transform="translate(31.2975 426.527219) scale(0.1 -0.1)">
       <use xlink:href="#DejaVuSans-30"/>
      </g>
     </g>
    </g>
    <g id="ytick_2">
     <g id="line2d_15">
      <path d="M 44.66 337.598083 
L 925.2 337.598083 
" clip-path="url(#p6977a5712a)" style="fill: none; stroke: #b0b0b0; stroke-opacity: 0.3; stroke-width: 0.8; stroke-linecap: square"/>
     </g>
     <g id="line2d_16">
      <g>
       <use xlink:href="#md5240488f9" x="44.66" y="337.598083" style="stroke: #000000; stroke-width: 0.8"/>
      </g>
     </g>
     <g id="text_9">
      <!-- 20 -->
      <g transform="translate(24.935 341.397302) scale(0.1 -0.1)">
       <use xlink:href="#DejaVuSans-32"/>
       <use xlink:href="#DejaVuSans-30" transform="translate(63.623047 0)"/>
      </g>
     </g>
    </g>
    <g id="ytick_3">
     <g id="line2d_17">
      <path d="M 44.66 252.468166 
L 925.2 252.468166 
" clip-path="url(#p6977a5712a)" style="fill: none; stroke: #b0b0b0; stroke-opacity: 0.3; stroke-width: 0.8; stroke-linecap: square"/>
     </g>
     <g id="line2d_18">
      <g>
       <use xlink:href="#md5240488f9" x="44.66" y="252.468166" style="stroke: #000000; stroke-width: 0.8"/>
      </g>
     </g>
     <g id="text_10">
      <!-- 40 -->
      <g transform="translate(24.935 256.267385) scale(0.1 -0.1)">
       <use xlink:href="#DejaVuSans-34"/>
       <use xlink:href="#DejaVuSans-30" transform="translate(63.623047 0)"/>
      </g>
     </g>
    </g>
    <g id="ytick_4">
     <g id="line2d_19">
      <path d="M 44.66 167.338249 
L 925.2 167.338249 
" clip-path="url(#p6977a5712a)" style="fill: none; stroke: #b0b0b0; stroke-opacity: 0.3; stroke-width: 0.8; stroke-linecap: square"/>
     </g>
     <g id="line2d_20">
      <g>
       <use xlink:href="#md5240488f9" x="44.66" y="167.338249" style="stroke: #000000; stroke-width: 0.8"/>
      </g>
     </g>
     <g id="text_11">
      <!-- 60 -->
      <g transform="translate(24.935 171.137468) scale(0.1 -0.1)">
       <use xlink:href="#DejaVuSans-36"/>
       <use xlink:href="#DejaVuSans-30" transform="translate(63.623047 0)"/>
      </g>
     </g>
    </g>
    <g id="ytick_5">
     <g id="line2d_21">
      <path d="M 44.66 82.208332 
L 925.2 82.208332 
" clip-path="url(#p6977a5712a)" style="fill: none; stroke: #b0b0b0; stroke-opacity: 0.3; stroke-width: 0.8; stroke-linecap: square"/>
     </g>
     <g id="line2d_22">
      <g>
       <use xlink:href="#md5240488f9" x="44.66" y="82.208332" style="stroke: #000000; stroke-width: 0.8"/>
      </g>
     </g>
     <g id="text_12">
      <!-- 80 -->
      <g transform="translate(24.935 86.007551) scale(0.1 -0.1)">
       <use xlink:href="#DejaVuSans-38"/>
       <use xlink:href="#DejaVuSans-30" transform="translate(63.623047 0)"/>
      </g>
     </g>
    </g>
    <g id="text_13">
     <!-- ns / input limb -->
     <g transform="translate(18.855312 259.992594) rotate(-90) scale(0.1 -0.1)">
      <defs>
       <path id="DejaVuSans-2f" d="M 1625 4666 
L 2156 4666 
L 531 -594 
L 0 -594 
L 1625 4666 
z
" transform="scale(0.015625)"/>
       <path id="DejaVuSans-70" d="M 1159 525 
L 1159 -1331 
L 581 -1331 
L 581 3500 
L 1159 3500 
L 1159 2969 
Q 1341 3281 1617 3432 
Q 1894 3584 2278 3584 
Q 2916 3584 3314 3078 
Q 3713 2572 3713 1747 
Q 3713 922 3314 415 
Q 2916 -91 2278 -91 
Q 1894 -91 1617 61 
Q 1341 213 1159 525 
z
M 3116 1747 
Q 3116 2381 2855 2742 
Q 2594 3103 2138 3103 
Q 1681 3103 1420 2742 
Q 1159 2381 1159 1747 
Q 1159 1113 1420 752 
Q 1681 391 2138 391 
Q 2594 391 2855 752 
Q 3116 1113 3116 1747 
z
" transform="scale(0.015625)"/>
       <path id="DejaVuSans-74" d="M 1172 4494 
L 1172 3500 
L 2356 3500 
L 2356 3053 
L 1172 3053 
L 1172 1153 
Q 1172 725 1289 603 
Q 1406 481 1766 481 
L 2356 481 
L 2356 0 
L 1766 0 
Q 1100 0 847 248 
Q 594 497 594 1153 
L 594 3053 
L 172 3053 
L 172 3500 
L 594 3500 
L 594 4494 
L 1172 4494 
z
" transform="scale(0.015625)"/>
      </defs>
      <use xlink:href="#DejaVuSans-6e"/>
      <use xlink:href="#DejaVuSans-73" transform="translate(63.378906 0)"/>
      <use xlink:href="#DejaVuSans-20" transform="translate(115.478516 0)"/>
      <use xlink:href="#DejaVuSans-2f" transform="translate(147.265625 0)"/>
      <use xlink:href="#DejaVuSans-20" transform="translate(180.957031 0)"/>
      <use xlink:href="#DejaVuSans-69" transform="translate(212.744141 0)"/>
      <use xlink:href="#DejaVuSans-6e" transform="translate(240.527344 0)"/>
      <use xlink:href="#DejaVuSans-70" transform="translate(303.90625 0)"/>
      <use xlink:href="#DejaVuSans-75" transform="translate(367.382812 0)"/>
      <use xlink:href="#DejaVuSans-74" transform="translate(430.761719 0)"/>
      <use xlink:href="#DejaVuSans-20" transform="translate(469.970703 0)"/>
      <use xlink:href="#DejaVuSans-6c" transform="translate(501.757812 0)"/>
      <use xlink:href="#DejaVuSans-69" transform="translate(529.541016 0)"/>
      <use xlink:href="#DejaVuSans-6d" transform="translate(557.324219 0)"/>
      <use xlink:href="#DejaVuSans-62" transform="translate(654.736328 0)"/>
     </g>
    </g>
   </g>
   <g id="line2d_23">
    <path d="M 448.54405 232.588202 
L 453.09302 230.445482 
L 457.64125 234.787533 
L 462.189271 216.586757 
L 466.73719 217.278438 
L 471.284761 218.237426 
L 475.833911 107.945234 
L 480.381175 113.036854 
L 484.930113 114.345727 
L 489.477942 216.157702 
L 494.026146 217.706216 
L 498.574638 218.810776 
L 503.122999 220.935619 
L 507.671455 224.677079 
L 512.219852 222.79741 
L 516.767726 222.236404 
L 521.31595 219.806796 
L 525.864153 223.415453 
L 530.412416 225.885072 
L 534.960468 206.050227 
L 539.509091 206.499713 
L 544.057307 206.234108 
L 548.605195 91.88505 
L 553.153667 95.597565 
L 557.702014 97.54023 
L 562.250385 197.149895 
L 566.798566 196.183244 
L 571.346538 198.16592 
L 575.8949 199.40073 
L 580.442899 198.057805 
L 584.991317 199.851918 
L 589.539627 200.40654 
L 594.087851 202.40241 
L 598.636054 204.526402 
L 603.184317 206.849172 
L 607.732721 184.729014 
L 612.280991 186.998578 
L 616.829208 187.35059 
L 621.377404 79.628044 
L 625.925568 82.792323 
L 630.473915 84.517055 
L 635.022015 177.997791 
L 639.570208 179.548007 
L 644.118439 182.324094 
L 648.666801 183.066001 
L 653.215028 185.118483 
L 657.763217 187.866051 
L 662.311527 187.897549 
L 666.859752 189.412011 
L 671.407955 187.980126 
L 675.956218 192.501375 
L 680.504446 164.38722 
L 685.052724 174.004773 
L 689.600947 176.652739 
L 694.149151 71.530486 
L 698.697469 73.596589 
L 703.245674 75.317916 
L 707.793916 165.00271 
L 712.342238 163.257972 
L 716.890464 166.111952 
L 721.438702 167.207574 
L 725.986929 167.752406 
L 730.535118 168.972318 
L 735.083428 168.607536 
L 739.631653 168.236795 
L 744.179856 168.703307 
L 748.728119 159.07256 
L 753.276346 159.74466 
L 757.824625 160.111996 
L 762.372848 162.579912 
L 766.921129 57.987168 
L 771.46937 60.155001 
L 776.017575 59.865134 
L 780.565816 158.563483 
L 785.114074 160.731316 
L 789.662365 163.597215 
L 794.210602 165.506253 
L 798.75883 162.836153 
L 803.307074 163.201786 
L 807.855329 164.371046 
L 812.403554 164.464689 
L 816.951805 160.475075 
L 821.50002 144.643039 
L 826.048291 147.061154 
L 830.596526 148.303199 
L 835.144789 152.500956 
L 839.693029 41.145065 
L 844.24127 44.350632 
L 848.789511 46.910914 
L 853.337751 141.388522 
L 857.886007 144.533647 
L 862.434235 147.621309 
L 866.982473 149.25708 
L 871.530731 143.499318 
L 876.078974 146.135366 
L 880.627204 143.403547 
L 885.175455 142.860844 
" clip-path="url(#p6977a5712a)" style="fill: none; stroke: #9467bd; stroke-opacity: 0.8; stroke-width: 0.9; stroke-linecap: square"/>
   </g>
   <g id="line2d_24">
    <path d="M 84.684545 334.191184 
L 89.248855 327.31822 
L 93.764116 332.75036 
L 98.318512 336.101925 
L 102.85613 339.679935 
L 107.412356 330.262864 
L 111.976878 331.554284 
L 121.059281 335.266375 
L 125.634708 335.940603 
L 130.152098 335.223384 
L 134.706181 335.711604 
L 139.253969 335.501333 
L 143.817423 342.178498 
L 148.358601 341.056486 
L 152.89902 339.566712 
L 157.456446 332.730354 
L 161.996212 326.191951 
L 166.559523 323.92111 
L 171.090413 327.837938 
L 175.649587 331.545772 
L 180.204897 328.656888 
L 184.748779 331.071172 
L 189.293571 332.715882 
L 193.849306 333.649757 
L 198.389254 334.707922 
L 202.94062 333.731056 
L 207.493997 334.098392 
L 212.041111 333.226662 
L 216.589324 336.519913 
L 221.130502 335.521339 
L 225.684305 337.431654 
L 230.228347 337.610427 
L 234.780385 322.349187 
L 239.319671 323.761066 
L 243.873568 324.444234 
L 248.421487 328.39639 
L 252.966478 328.93654 
L 257.520679 327.834533 
L 262.065472 329.619281 
L 266.612145 331.151194 
L 271.161155 332.024627 
L 275.712521 329.027203 
L 280.25794 331.555987 
L 284.805391 331.288679 
L 293.902403 332.986595 
L 298.449514 333.355634 
L 303.000248 335.107182 
L 307.54615 323.333288 
L 312.097448 325.117611 
L 316.645469 325.892719 
L 321.193388 326.850857 
L 325.743539 327.139873 
L 330.287639 326.66953 
L 334.837373 328.568778 
L 343.933056 331.127784 
L 348.484422 330.200293 
L 353.029841 331.398922 
L 357.577292 331.942903 
L 362.125829 330.532725 
L 366.674304 331.749658 
L 371.22476 332.807823 
L 375.772149 328.118441 
L 380.321119 315.142939 
L 384.869349 316.692729 
L 389.41737 316.917898 
L 398.51286 319.314305 
L 403.062011 320.020883 
L 407.609274 321.263354 
L 412.158212 322.152962 
L 416.707126 323.463537 
L 421.254245 322.286616 
L 425.803731 323.775538 
L 430.351098 324.371448 
L 434.899554 324.771558 
L 439.447952 326.039143 
L 443.994988 326.670381 
L 448.54405 329.105522 
L 453.09302 313.770645 
L 457.64125 315.401308 
L 462.189271 316.548434 
L 466.73719 317.41378 
L 471.284761 318.740529 
L 480.381175 319.772304 
L 484.930113 321.49278 
L 489.477942 322.030801 
L 494.026146 319.529258 
L 498.574638 319.722929 
L 503.122999 320.92326 
L 507.671455 321.239944 
L 512.219852 322.823786 
L 516.767726 323.56016 
L 521.31595 325.211254 
L 525.864153 301.590256 
L 530.412416 303.274977 
L 534.960468 303.817681 
L 539.509091 305.141451 
L 544.057307 305.349168 
L 548.605195 305.410461 
L 557.702014 307.768986 
L 562.250385 308.8595 
L 566.798566 308.740318 
L 571.346538 308.744575 
L 575.8949 309.601833 
L 580.442899 308.529621 
L 584.991317 309.963635 
L 589.539627 310.745128 
L 594.087851 307.708969 
L 598.636054 282.895727 
L 603.184317 286.64953 
L 607.732721 286.854268 
L 612.280991 288.472162 
L 616.829208 290.359492 
L 621.377404 290.903047 
L 625.925568 293.232627 
L 630.473915 293.495252 
L 635.022015 296.458199 
L 639.570208 287.626822 
L 644.118439 288.311266 
L 648.666801 290.044086 
L 653.215028 290.565081 
L 657.763217 291.927585 
L 662.311527 293.577829 
L 666.859752 297.994794 
L 671.407955 278.80949 
L 680.504446 280.983709 
L 685.052724 282.916583 
L 689.600947 284.629397 
L 694.149151 281.778396 
L 698.697469 282.725041 
L 703.245674 283.827048 
L 707.793916 284.084991 
L 712.342238 281.189297 
L 716.890464 281.874168 
L 721.438702 283.670409 
L 725.986929 283.658491 
L 730.535118 284.956296 
L 735.083428 286.428618 
L 739.631653 288.112488 
L 744.179856 268.592624 
L 748.728119 270.46463 
L 753.276346 270.848992 
L 757.824625 271.036703 
L 762.372848 273.727234 
L 766.921129 271.504918 
L 771.46937 273.104509 
L 780.565816 275.196151 
L 785.114074 273.122812 
L 789.662365 274.268235 
L 794.210602 276.166632 
L 798.75883 275.557102 
L 803.307074 277.19415 
L 807.855329 278.345958 
L 812.403554 280.527412 
L 812.403554 280.527412 
" clip-path="url(#p6977a5712a)" style="fill: none; stroke: #2ca02c; stroke-width: 1.1; stroke-linecap: square"/>
   </g>
   <g id="line2d_25">
    <path d="M 84.684545 353.024475 
L 89.199761 352.536255 
L 93.764116 353.310086 
L 98.318512 354.683657 
L 102.85613 354.796454 
L 107.412356 354.231617 
L 111.937342 354.346543 
L 116.502742 355.246366 
L 121.059281 340.231577 
L 125.599995 340.907508 
L 130.152098 342.083153 
L 134.706181 343.557177 
L 139.253969 343.918128 
L 143.788232 344.717924 
L 152.89902 346.632495 
L 157.456446 347.377382 
L 161.996212 347.215635 
L 166.536017 348.232512 
L 171.090413 348.694768 
L 175.628031 349.414541 
L 180.184257 349.531595 
L 184.729012 349.996404 
L 189.293571 350.964757 
L 193.831182 336.869371 
L 202.923999 338.97208 
L 207.478081 340.554219 
L 212.02587 341.383385 
L 216.574729 341.98951 
L 221.130502 343.138764 
L 225.670921 343.965375 
L 230.228347 345.189543 
L 234.768112 343.248156 
L 239.319671 343.699344 
L 243.862314 344.904784 
L 248.41071 344.811141 
L 252.966478 347.663419 
L 257.510797 348.515569 
L 262.065472 349.086365 
L 266.612145 337.406541 
L 271.161155 338.24507 
L 275.704211 339.490947 
L 280.25794 340.091113 
L 284.805391 341.356143 
L 289.353928 341.017326 
L 293.902403 342.008664 
L 298.449514 342.510079 
L 303.000248 343.838957 
L 307.54615 343.468642 
L 312.091572 344.442528 
L 316.639842 345.223595 
L 321.188 345.859941 
L 325.738379 345.51474 
L 330.287639 346.271119 
L 334.837373 346.879798 
L 339.384046 328.392559 
L 343.933056 330.133041 
L 348.480267 331.519381 
L 353.029841 332.191482 
L 357.577292 333.233472 
L 362.125829 333.992831 
L 366.674304 335.258287 
L 371.221415 335.792903 
L 375.772149 336.787646 
L 380.318051 336.768066 
L 384.866411 337.915192 
L 389.414556 338.37617 
L 393.962595 339.58161 
L 398.51286 340.272439 
L 403.05954 340.794286 
L 407.609274 341.617492 
L 412.155947 327.59021 
L 416.704956 328.847579 
L 421.254245 330.329265 
L 425.801742 330.788541 
L 430.349193 332.341736 
L 434.89773 332.837192 
L 439.446205 333.595274 
L 443.994988 334.760703 
L 448.54405 335.417054 
L 453.091486 333.04874 
L 457.639781 334.455512 
L 462.187864 334.797734 
L 466.735843 335.822699 
L 471.284761 335.615833 
L 475.832676 336.319432 
L 480.381175 336.296447 
L 484.92898 307.090075 
L 494.026146 310.965614 
L 498.574638 310.471861 
L 503.122047 310.645526 
L 507.670543 310.291811 
L 512.218979 312.048041 
L 516.766889 312.55201 
L 521.31595 313.656571 
L 525.864153 313.90515 
L 530.412416 312.667787 
L 534.960468 314.185228 
L 539.508417 315.289363 
L 544.056662 314.905852 
L 548.605195 316.153006 
L 553.153076 316.669744 
L 557.701448 270.497831 
L 562.249843 273.117279 
L 566.798047 276.081928 
L 571.346538 277.464438 
L 575.894424 279.153841 
L 580.442899 283.234118 
L 584.991317 282.858695 
L 589.539208 286.331996 
L 594.087851 288.295092 
L 598.636054 286.782333 
L 603.184317 288.881211 
L 607.732369 290.394821 
L 612.280655 293.524622 
L 616.828885 292.722698 
L 621.377095 293.948995 
L 625.925272 296.009565 
L 630.473632 259.310057 
L 635.022015 262.633529 
L 639.570208 268.007355 
L 644.118439 270.227969 
L 648.666563 272.07316 
L 653.2148 272.623099 
L 657.763217 273.930269 
L 662.311318 275.473675 
L 666.859752 278.07865 
L 671.407955 279.37603 
L 675.956218 281.539181 
L 680.504446 280.486976 
L 685.052724 282.907219 
L 689.600947 283.891321 
L 694.149151 285.742045 
L 698.697321 290.153903 
L 703.245674 246.16387 
L 707.793916 249.970029 
L 712.342108 252.262152 
L 716.89034 253.773633 
L 721.438582 256.51056 
L 725.986815 255.682672 
L 730.535118 259.507133 
L 735.083324 261.973347 
L 739.631653 263.234547 
L 744.179856 262.282368 
L 748.728119 266.128112 
L 753.276346 268.244868 
L 757.824625 270.078141 
L 762.372848 270.860059 
L 766.921051 271.927162 
L 771.469296 273.539949 
L 776.017575 213.295209 
L 780.565816 216.98474 
L 785.114074 223.742352 
L 794.210543 229.610783 
L 798.758773 235.194454 
L 803.307019 238.632426 
L 807.855277 240.392487 
L 807.855277 240.392487 
" clip-path="url(#p6977a5712a)" style="fill: none; stroke: #d62728; stroke-width: 1.5; stroke-linecap: square"/>
    <defs>
     <path id="m9fb8bd0913" d="M 0 0.75 
C 0.198902 0.75 0.389685 0.670975 0.53033 0.53033 
C 0.670975 0.389685 0.75 0.198902 0.75 0 
C 0.75 -0.198902 0.670975 -0.389685 0.53033 -0.53033 
C 0.389685 -0.670975 0.198902 -0.75 0 -0.75 
C -0.198902 -0.75 -0.389685 -0.670975 -0.53033 -0.53033 
C -0.670975 -0.389685 -0.75 -0.198902 -0.75 0 
C -0.75 0.198902 -0.670975 0.389685 -0.53033 0.53033 
C -0.389685 0.670975 -0.198902 0.75 0 0.75 
z
" style="stroke: #d62728"/>
    </defs>
    <g clip-path="url(#p6977a5712a)">
     <use xlink:href="#m9fb8bd0913" x="84.684545" y="353.024475" style="fill: #d62728; stroke: #d62728"/>
     <use xlink:href="#m9fb8bd0913" x="89.199761" y="352.536255" style="fill: #d62728; stroke: #d62728"/>
     <use xlink:href="#m9fb8bd0913" x="93.764116" y="353.310086" style="fill: #d62728; stroke: #d62728"/>
     <use xlink:href="#m9fb8bd0913" x="98.318512" y="354.683657" style="fill: #d62728; stroke: #d62728"/>
     <use xlink:href="#m9fb8bd0913" x="102.85613" y="354.796454" style="fill: #d62728; stroke: #d62728"/>
     <use xlink:href="#m9fb8bd0913" x="107.412356" y="354.231617" style="fill: #d62728; stroke: #d62728"/>
     <use xlink:href="#m9fb8bd0913" x="111.937342" y="354.346543" style="fill: #d62728; stroke: #d62728"/>
     <use xlink:href="#m9fb8bd0913" x="116.502742" y="355.246366" style="fill: #d62728; stroke: #d62728"/>
     <use xlink:href="#m9fb8bd0913" x="121.059281" y="340.231577" style="fill: #d62728; stroke: #d62728"/>
     <use xlink:href="#m9fb8bd0913" x="125.599995" y="340.907508" style="fill: #d62728; stroke: #d62728"/>
     <use xlink:href="#m9fb8bd0913" x="130.152098" y="342.083153" style="fill: #d62728; stroke: #d62728"/>
     <use xlink:href="#m9fb8bd0913" x="134.706181" y="343.557177" style="fill: #d62728; stroke: #d62728"/>
     <use xlink:href="#m9fb8bd0913" x="139.253969" y="343.918128" style="fill: #d62728; stroke: #d62728"/>
     <use xlink:href="#m9fb8bd0913" x="143.788232" y="344.717924" style="fill: #d62728; stroke: #d62728"/>
     <use xlink:href="#m9fb8bd0913" x="148.358601" y="345.715646" style="fill: #d62728; stroke: #d62728"/>
     <use xlink:href="#m9fb8bd0913" x="152.89902" y="346.632495" style="fill: #d62728; stroke: #d62728"/>
     <use xlink:href="#m9fb8bd0913" x="157.456446" y="347.377382" style="fill: #d62728; stroke: #d62728"/>
     <use xlink:href="#m9fb8bd0913" x="161.996212" y="347.215635" style="fill: #d62728; stroke: #d62728"/>
     <use xlink:href="#m9fb8bd0913" x="166.536017" y="348.232512" style="fill: #d62728; stroke: #d62728"/>
     <use xlink:href="#m9fb8bd0913" x="171.090413" y="348.694768" style="fill: #d62728; stroke: #d62728"/>
     <use xlink:href="#m9fb8bd0913" x="175.628031" y="349.414541" style="fill: #d62728; stroke: #d62728"/>
     <use xlink:href="#m9fb8bd0913" x="180.184257" y="349.531595" style="fill: #d62728; stroke: #d62728"/>
     <use xlink:href="#m9fb8bd0913" x="184.729012" y="349.996404" style="fill: #d62728; stroke: #d62728"/>
     <use xlink:href="#m9fb8bd0913" x="189.293571" y="350.964757" style="fill: #d62728; stroke: #d62728"/>
     <use xlink:href="#m9fb8bd0913" x="193.831182" y="336.869371" style="fill: #d62728; stroke: #d62728"/>
     <use xlink:href="#m9fb8bd0913" x="198.389254" y="337.938177" style="fill: #d62728; stroke: #d62728"/>
     <use xlink:href="#m9fb8bd0913" x="202.923999" y="338.97208" style="fill: #d62728; stroke: #d62728"/>
     <use xlink:href="#m9fb8bd0913" x="207.478081" y="340.554219" style="fill: #d62728; stroke: #d62728"/>
     <use xlink:href="#m9fb8bd0913" x="212.02587" y="341.383385" style="fill: #d62728; stroke: #d62728"/>
     <use xlink:href="#m9fb8bd0913" x="216.574729" y="341.98951" style="fill: #d62728; stroke: #d62728"/>
     <use xlink:href="#m9fb8bd0913" x="221.130502" y="343.138764" style="fill: #d62728; stroke: #d62728"/>
     <use xlink:href="#m9fb8bd0913" x="225.670921" y="343.965375" style="fill: #d62728; stroke: #d62728"/>
     <use xlink:href="#m9fb8bd0913" x="230.228347" y="345.189543" style="fill: #d62728; stroke: #d62728"/>
     <use xlink:href="#m9fb8bd0913" x="234.768112" y="343.248156" style="fill: #d62728; stroke: #d62728"/>
     <use xlink:href="#m9fb8bd0913" x="239.319671" y="343.699344" style="fill: #d62728; stroke: #d62728"/>
     <use xlink:href="#m9fb8bd0913" x="243.862314" y="344.904784" style="fill: #d62728; stroke: #d62728"/>
     <use xlink:href="#m9fb8bd0913" x="248.41071" y="344.811141" style="fill: #d62728; stroke: #d62728"/>
     <use xlink:href="#m9fb8bd0913" x="252.966478" y="347.663419" style="fill: #d62728; stroke: #d62728"/>
     <use xlink:href="#m9fb8bd0913" x="257.510797" y="348.515569" style="fill: #d62728; stroke: #d62728"/>
     <use xlink:href="#m9fb8bd0913" x="262.065472" y="349.086365" style="fill: #d62728; stroke: #d62728"/>
     <use xlink:href="#m9fb8bd0913" x="266.612145" y="337.406541" style="fill: #d62728; stroke: #d62728"/>
     <use xlink:href="#m9fb8bd0913" x="271.161155" y="338.24507" style="fill: #d62728; stroke: #d62728"/>
     <use xlink:href="#m9fb8bd0913" x="275.704211" y="339.490947" style="fill: #d62728; stroke: #d62728"/>
     <use xlink:href="#m9fb8bd0913" x="280.25794" y="340.091113" style="fill: #d62728; stroke: #d62728"/>
     <use xlink:href="#m9fb8bd0913" x="284.805391" y="341.356143" style="fill: #d62728; stroke: #d62728"/>
     <use xlink:href="#m9fb8bd0913" x="289.353928" y="341.017326" style="fill: #d62728; stroke: #d62728"/>
     <use xlink:href="#m9fb8bd0913" x="293.902403" y="342.008664" style="fill: #d62728; stroke: #d62728"/>
     <use xlink:href="#m9fb8bd0913" x="298.449514" y="342.510079" style="fill: #d62728; stroke: #d62728"/>
     <use xlink:href="#m9fb8bd0913" x="303.000248" y="343.838957" style="fill: #d62728; stroke: #d62728"/>
     <use xlink:href="#m9fb8bd0913" x="307.54615" y="343.468642" style="fill: #d62728; stroke: #d62728"/>
     <use xlink:href="#m9fb8bd0913" x="312.091572" y="344.442528" style="fill: #d62728; stroke: #d62728"/>
     <use xlink:href="#m9fb8bd0913" x="316.639842" y="345.223595" style="fill: #d62728; stroke: #d62728"/>
     <use xlink:href="#m9fb8bd0913" x="321.188" y="345.859941" style="fill: #d62728; stroke: #d62728"/>
     <use xlink:href="#m9fb8bd0913" x="325.738379" y="345.51474" style="fill: #d62728; stroke: #d62728"/>
     <use xlink:href="#m9fb8bd0913" x="330.287639" y="346.271119" style="fill: #d62728; stroke: #d62728"/>
     <use xlink:href="#m9fb8bd0913" x="334.837373" y="346.879798" style="fill: #d62728; stroke: #d62728"/>
     <use xlink:href="#m9fb8bd0913" x="339.384046" y="328.392559" style="fill: #d62728; stroke: #d62728"/>
     <use xlink:href="#m9fb8bd0913" x="343.933056" y="330.133041" style="fill: #d62728; stroke: #d62728"/>
     <use xlink:href="#m9fb8bd0913" x="348.480267" y="331.519381" style="fill: #d62728; stroke: #d62728"/>
     <use xlink:href="#m9fb8bd0913" x="353.029841" y="332.191482" style="fill: #d62728; stroke: #d62728"/>
     <use xlink:href="#m9fb8bd0913" x="357.577292" y="333.233472" style="fill: #d62728; stroke: #d62728"/>
     <use xlink:href="#m9fb8bd0913" x="362.125829" y="333.992831" style="fill: #d62728; stroke: #d62728"/>
     <use xlink:href="#m9fb8bd0913" x="366.674304" y="335.258287" style="fill: #d62728; stroke: #d62728"/>
     <use xlink:href="#m9fb8bd0913" x="371.221415" y="335.792903" style="fill: #d62728; stroke: #d62728"/>
     <use xlink:href="#m9fb8bd0913" x="375.772149" y="336.787646" style="fill: #d62728; stroke: #d62728"/>
     <use xlink:href="#m9fb8bd0913" x="380.318051" y="336.768066" style="fill: #d62728; stroke: #d62728"/>
     <use xlink:href="#m9fb8bd0913" x="384.866411" y="337.915192" style="fill: #d62728; stroke: #d62728"/>
     <use xlink:href="#m9fb8bd0913" x="389.414556" y="338.37617" style="fill: #d62728; stroke: #d62728"/>
     <use xlink:href="#m9fb8bd0913" x="393.962595" y="339.58161" style="fill: #d62728; stroke: #d62728"/>
     <use xlink:href="#m9fb8bd0913" x="398.51286" y="340.272439" style="fill: #d62728; stroke: #d62728"/>
     <use xlink:href="#m9fb8bd0913" x="403.05954" y="340.794286" style="fill: #d62728; stroke: #d62728"/>
     <use xlink:href="#m9fb8bd0913" x="407.609274" y="341.617492" style="fill: #d62728; stroke: #d62728"/>
     <use xlink:href="#m9fb8bd0913" x="412.155947" y="327.59021" style="fill: #d62728; stroke: #d62728"/>
     <use xlink:href="#m9fb8bd0913" x="416.704956" y="328.847579" style="fill: #d62728; stroke: #d62728"/>
     <use xlink:href="#m9fb8bd0913" x="421.254245" y="330.329265" style="fill: #d62728; stroke: #d62728"/>
     <use xlink:href="#m9fb8bd0913" x="425.801742" y="330.788541" style="fill: #d62728; stroke: #d62728"/>
     <use xlink:href="#m9fb8bd0913" x="430.349193" y="332.341736" style="fill: #d62728; stroke: #d62728"/>
     <use xlink:href="#m9fb8bd0913" x="434.89773" y="332.837192" style="fill: #d62728; stroke: #d62728"/>
     <use xlink:href="#m9fb8bd0913" x="439.446205" y="333.595274" style="fill: #d62728; stroke: #d62728"/>
     <use xlink:href="#m9fb8bd0913" x="443.994988" y="334.760703" style="fill: #d62728; stroke: #d62728"/>
     <use xlink:href="#m9fb8bd0913" x="448.54405" y="335.417054" style="fill: #d62728; stroke: #d62728"/>
     <use xlink:href="#m9fb8bd0913" x="453.091486" y="333.04874" style="fill: #d62728; stroke: #d62728"/>
     <use xlink:href="#m9fb8bd0913" x="457.639781" y="334.455512" style="fill: #d62728; stroke: #d62728"/>
     <use xlink:href="#m9fb8bd0913" x="462.187864" y="334.797734" style="fill: #d62728; stroke: #d62728"/>
     <use xlink:href="#m9fb8bd0913" x="466.735843" y="335.822699" style="fill: #d62728; stroke: #d62728"/>
     <use xlink:href="#m9fb8bd0913" x="471.284761" y="335.615833" style="fill: #d62728; stroke: #d62728"/>
     <use xlink:href="#m9fb8bd0913" x="475.832676" y="336.319432" style="fill: #d62728; stroke: #d62728"/>
     <use xlink:href="#m9fb8bd0913" x="480.381175" y="336.296447" style="fill: #d62728; stroke: #d62728"/>
     <use xlink:href="#m9fb8bd0913" x="484.92898" y="307.090075" style="fill: #d62728; stroke: #d62728"/>
     <use xlink:href="#m9fb8bd0913" x="489.477942" y="309.071899" style="fill: #d62728; stroke: #d62728"/>
     <use xlink:href="#m9fb8bd0913" x="494.026146" y="310.965614" style="fill: #d62728; stroke: #d62728"/>
     <use xlink:href="#m9fb8bd0913" x="498.574638" y="310.471861" style="fill: #d62728; stroke: #d62728"/>
     <use xlink:href="#m9fb8bd0913" x="503.122047" y="310.645526" style="fill: #d62728; stroke: #d62728"/>
     <use xlink:href="#m9fb8bd0913" x="507.670543" y="310.291811" style="fill: #d62728; stroke: #d62728"/>
     <use xlink:href="#m9fb8bd0913" x="512.218979" y="312.048041" style="fill: #d62728; stroke: #d62728"/>
     <use xlink:href="#m9fb8bd0913" x="516.766889" y="312.55201" style="fill: #d62728; stroke: #d62728"/>
     <use xlink:href="#m9fb8bd0913" x="521.31595" y="313.656571" style="fill: #d62728; stroke: #d62728"/>
     <use xlink:href="#m9fb8bd0913" x="525.864153" y="313.90515" style="fill: #d62728; stroke: #d62728"/>
     <use xlink:href="#m9fb8bd0913" x="530.412416" y="312.667787" style="fill: #d62728; stroke: #d62728"/>
     <use xlink:href="#m9fb8bd0913" x="534.960468" y="314.185228" style="fill: #d62728; stroke: #d62728"/>
     <use xlink:href="#m9fb8bd0913" x="539.508417" y="315.289363" style="fill: #d62728; stroke: #d62728"/>
     <use xlink:href="#m9fb8bd0913" x="544.056662" y="314.905852" style="fill: #d62728; stroke: #d62728"/>
     <use xlink:href="#m9fb8bd0913" x="548.605195" y="316.153006" style="fill: #d62728; stroke: #d62728"/>
     <use xlink:href="#m9fb8bd0913" x="553.153076" y="316.669744" style="fill: #d62728; stroke: #d62728"/>
     <use xlink:href="#m9fb8bd0913" x="557.701448" y="270.497831" style="fill: #d62728; stroke: #d62728"/>
     <use xlink:href="#m9fb8bd0913" x="562.249843" y="273.117279" style="fill: #d62728; stroke: #d62728"/>
     <use xlink:href="#m9fb8bd0913" x="566.798047" y="276.081928" style="fill: #d62728; stroke: #d62728"/>
     <use xlink:href="#m9fb8bd0913" x="571.346538" y="277.464438" style="fill: #d62728; stroke: #d62728"/>
     <use xlink:href="#m9fb8bd0913" x="575.894424" y="279.153841" style="fill: #d62728; stroke: #d62728"/>
     <use xlink:href="#m9fb8bd0913" x="580.442899" y="283.234118" style="fill: #d62728; stroke: #d62728"/>
     <use xlink:href="#m9fb8bd0913" x="584.991317" y="282.858695" style="fill: #d62728; stroke: #d62728"/>
     <use xlink:href="#m9fb8bd0913" x="589.539208" y="286.331996" style="fill: #d62728; stroke: #d62728"/>
     <use xlink:href="#m9fb8bd0913" x="594.087851" y="288.295092" style="fill: #d62728; stroke: #d62728"/>
     <use xlink:href="#m9fb8bd0913" x="598.636054" y="286.782333" style="fill: #d62728; stroke: #d62728"/>
     <use xlink:href="#m9fb8bd0913" x="603.184317" y="288.881211" style="fill: #d62728; stroke: #d62728"/>
     <use xlink:href="#m9fb8bd0913" x="607.732369" y="290.394821" style="fill: #d62728; stroke: #d62728"/>
     <use xlink:href="#m9fb8bd0913" x="612.280655" y="293.524622" style="fill: #d62728; stroke: #d62728"/>
     <use xlink:href="#m9fb8bd0913" x="616.828885" y="292.722698" style="fill: #d62728; stroke: #d62728"/>
     <use xlink:href="#m9fb8bd0913" x="621.377095" y="293.948995" style="fill: #d62728; stroke: #d62728"/>
     <use xlink:href="#m9fb8bd0913" x="625.925272" y="296.009565" style="fill: #d62728; stroke: #d62728"/>
     <use xlink:href="#m9fb8bd0913" x="630.473632" y="259.310057" style="fill: #d62728; stroke: #d62728"/>
     <use xlink:href="#m9fb8bd0913" x="635.022015" y="262.633529" style="fill: #d62728; stroke: #d62728"/>
     <use xlink:href="#m9fb8bd0913" x="639.570208" y="268.007355" style="fill: #d62728; stroke: #d62728"/>
     <use xlink:href="#m9fb8bd0913" x="644.118439" y="270.227969" style="fill: #d62728; stroke: #d62728"/>
     <use xlink:href="#m9fb8bd0913" x="648.666563" y="272.07316" style="fill: #d62728; stroke: #d62728"/>
     <use xlink:href="#m9fb8bd0913" x="653.2148" y="272.623099" style="fill: #d62728; stroke: #d62728"/>
     <use xlink:href="#m9fb8bd0913" x="657.763217" y="273.930269" style="fill: #d62728; stroke: #d62728"/>
     <use xlink:href="#m9fb8bd0913" x="662.311318" y="275.473675" style="fill: #d62728; stroke: #d62728"/>
     <use xlink:href="#m9fb8bd0913" x="666.859752" y="278.07865" style="fill: #d62728; stroke: #d62728"/>
     <use xlink:href="#m9fb8bd0913" x="671.407955" y="279.37603" style="fill: #d62728; stroke: #d62728"/>
     <use xlink:href="#m9fb8bd0913" x="675.956218" y="281.539181" style="fill: #d62728; stroke: #d62728"/>
     <use xlink:href="#m9fb8bd0913" x="680.504446" y="280.486976" style="fill: #d62728; stroke: #d62728"/>
     <use xlink:href="#m9fb8bd0913" x="685.052724" y="282.907219" style="fill: #d62728; stroke: #d62728"/>
     <use xlink:href="#m9fb8bd0913" x="689.600947" y="283.891321" style="fill: #d62728; stroke: #d62728"/>
     <use xlink:href="#m9fb8bd0913" x="694.149151" y="285.742045" style="fill: #d62728; stroke: #d62728"/>
     <use xlink:href="#m9fb8bd0913" x="698.697321" y="290.153903" style="fill: #d62728; stroke: #d62728"/>
     <use xlink:href="#m9fb8bd0913" x="703.245674" y="246.16387" style="fill: #d62728; stroke: #d62728"/>
     <use xlink:href="#m9fb8bd0913" x="707.793916" y="249.970029" style="fill: #d62728; stroke: #d62728"/>
     <use xlink:href="#m9fb8bd0913" x="712.342108" y="252.262152" style="fill: #d62728; stroke: #d62728"/>
     <use xlink:href="#m9fb8bd0913" x="716.89034" y="253.773633" style="fill: #d62728; stroke: #d62728"/>
     <use xlink:href="#m9fb8bd0913" x="721.438582" y="256.51056" style="fill: #d62728; stroke: #d62728"/>
     <use xlink:href="#m9fb8bd0913" x="725.986815" y="255.682672" style="fill: #d62728; stroke: #d62728"/>
     <use xlink:href="#m9fb8bd0913" x="730.535118" y="259.507133" style="fill: #d62728; stroke: #d62728"/>
     <use xlink:href="#m9fb8bd0913" x="735.083324" y="261.973347" style="fill: #d62728; stroke: #d62728"/>
     <use xlink:href="#m9fb8bd0913" x="739.631653" y="263.234547" style="fill: #d62728; stroke: #d62728"/>
     <use xlink:href="#m9fb8bd0913" x="744.179856" y="262.282368" style="fill: #d62728; stroke: #d62728"/>
     <use xlink:href="#m9fb8bd0913" x="748.728119" y="266.128112" style="fill: #d62728; stroke: #d62728"/>
     <use xlink:href="#m9fb8bd0913" x="753.276346" y="268.244868" style="fill: #d62728; stroke: #d62728"/>
     <use xlink:href="#m9fb8bd0913" x="757.824625" y="270.078141" style="fill: #d62728; stroke: #d62728"/>
     <use xlink:href="#m9fb8bd0913" x="762.372848" y="270.860059" style="fill: #d62728; stroke: #d62728"/>
     <use xlink:href="#m9fb8bd0913" x="766.921051" y="271.927162" style="fill: #d62728; stroke: #d62728"/>
     <use xlink:href="#m9fb8bd0913" x="771.469296" y="273.539949" style="fill: #d62728; stroke: #d62728"/>
     <use xlink:href="#m9fb8bd0913" x="776.017575" y="213.295209" style="fill: #d62728; stroke: #d62728"/>
     <use xlink:href="#m9fb8bd0913" x="780.565816" y="216.98474" style="fill: #d62728; stroke: #d62728"/>
     <use xlink:href="#m9fb8bd0913" x="785.114074" y="223.742352" style="fill: #d62728; stroke: #d62728"/>
     <use xlink:href="#m9fb8bd0913" x="789.662303" y="226.714663" style="fill: #d62728; stroke: #d62728"/>
     <use xlink:href="#m9fb8bd0913" x="794.210543" y="229.610783" style="fill: #d62728; stroke: #d62728"/>
     <use xlink:href="#m9fb8bd0913" x="798.758773" y="235.194454" style="fill: #d62728; stroke: #d62728"/>
     <use xlink:href="#m9fb8bd0913" x="803.307019" y="238.632426" style="fill: #d62728; stroke: #d62728"/>
     <use xlink:href="#m9fb8bd0913" x="807.855277" y="240.392487" style="fill: #d62728; stroke: #d62728"/>
    </g>
   </g>
   <g id="line2d_26">
    <path d="M 84.684545 422.728 
L 84.684545 25.44 
" clip-path="url(#p6977a5712a)" style="fill: none; stroke-dasharray: 0.5,0.825; stroke-dashoffset: 0; stroke: #808080; stroke-width: 0.5"/>
   </g>
   <g id="line2d_27">
    <path d="M 157.456446 422.728 
L 157.456446 25.44 
" clip-path="url(#p6977a5712a)" style="fill: none; stroke-dasharray: 0.5,0.825; stroke-dashoffset: 0; stroke: #808080; stroke-width: 0.5"/>
   </g>
   <g id="line2d_28">
    <path d="M 230.228347 422.728 
L 230.228347 25.44 
" clip-path="url(#p6977a5712a)" style="fill: none; stroke-dasharray: 0.5,0.825; stroke-dashoffset: 0; stroke: #808080; stroke-width: 0.5"/>
   </g>
   <g id="line2d_29">
    <path d="M 303.000248 422.728 
L 303.000248 25.44 
" clip-path="url(#p6977a5712a)" style="fill: none; stroke-dasharray: 0.5,0.825; stroke-dashoffset: 0; stroke: #808080; stroke-width: 0.5"/>
   </g>
   <g id="line2d_30">
    <path d="M 375.772149 422.728 
L 375.772149 25.44 
" clip-path="url(#p6977a5712a)" style="fill: none; stroke-dasharray: 0.5,0.825; stroke-dashoffset: 0; stroke: #808080; stroke-width: 0.5"/>
   </g>
   <g id="line2d_31">
    <path d="M 448.54405 422.728 
L 448.54405 25.44 
" clip-path="url(#p6977a5712a)" style="fill: none; stroke-dasharray: 0.5,0.825; stroke-dashoffset: 0; stroke: #808080; stroke-width: 0.5"/>
   </g>
   <g id="line2d_32">
    <path d="M 521.31595 422.728 
L 521.31595 25.44 
" clip-path="url(#p6977a5712a)" style="fill: none; stroke-dasharray: 0.5,0.825; stroke-dashoffset: 0; stroke: #808080; stroke-width: 0.5"/>
   </g>
   <g id="line2d_33">
    <path d="M 594.087851 422.728 
L 594.087851 25.44 
" clip-path="url(#p6977a5712a)" style="fill: none; stroke-dasharray: 0.5,0.825; stroke-dashoffset: 0; stroke: #808080; stroke-width: 0.5"/>
   </g>
   <g id="line2d_34">
    <path d="M 666.859752 422.728 
L 666.859752 25.44 
" clip-path="url(#p6977a5712a)" style="fill: none; stroke-dasharray: 0.5,0.825; stroke-dashoffset: 0; stroke: #808080; stroke-width: 0.5"/>
   </g>
   <g id="line2d_35">
    <path d="M 739.631653 422.728 
L 739.631653 25.44 
" clip-path="url(#p6977a5712a)" style="fill: none; stroke-dasharray: 0.5,0.825; stroke-dashoffset: 0; stroke: #808080; stroke-width: 0.5"/>
   </g>
   <g id="line2d_36">
    <path d="M 812.403554 422.728 
L 812.403554 25.44 
" clip-path="url(#p6977a5712a)" style="fill: none; stroke-dasharray: 0.5,0.825; stroke-dashoffset: 0; stroke: #808080; stroke-width: 0.5"/>
   </g>
   <g id="patch_3">
    <path d="M 44.66 422.728 
L 44.66 25.44 
" style="fill: none; stroke: #000000; stroke-width: 0.8; stroke-linejoin: miter; stroke-linecap: square"/>
   </g>
   <g id="patch_4">
    <path d="M 925.2 422.728 
L 925.2 25.44 
" style="fill: none; stroke: #000000; stroke-width: 0.8; stroke-linejoin: miter; stroke-linecap: square"/>
   </g>
   <g id="patch_5">
    <path d="M 44.66 422.728 
L 925.2 422.728 
" style="fill: none; stroke: #000000; stroke-width: 0.8; stroke-linejoin: miter; stroke-linecap: square"/>
   </g>
   <g id="patch_6">
    <path d="M 44.66 25.44 
L 925.2 25.44 
" style="fill: none; stroke: #000000; stroke-width: 0.8; stroke-linejoin: miter; stroke-linecap: square"/>
   </g>
   <g id="text_14">
    <!-- p50 IFMA engine v1 vs p30 — 1/16-octave grid (solo, GMP-verified) -->
    <g transform="translate(283.519375 19.44) scale(0.12 -0.12)">
     <defs>
      <path id="DejaVuSans-35" d="M 691 4666 
L 3169 4666 
L 3169 4134 
L 1269 4134 
L 1269 2991 
Q 1406 3038 1543 3061 
Q 1681 3084 1819 3084 
Q 2600 3084 3056 2656 
Q 3513 2228 3513 1497 
Q 3513 744 3044 326 
Q 2575 -91 1722 -91 
Q 1428 -91 1123 -41 
Q 819 9 494 109 
L 494 744 
Q 775 591 1075 516 
Q 1375 441 1709 441 
Q 2250 441 2565 725 
Q 2881 1009 2881 1497 
Q 2881 1984 2565 2268 
Q 2250 2553 1709 2553 
Q 1456 2553 1204 2497 
Q 953 2441 691 2322 
L 691 4666 
z
" transform="scale(0.015625)"/>
      <path id="DejaVuSans-49" d="M 628 4666 
L 1259 4666 
L 1259 0 
L 628 0 
L 628 4666 
z
" transform="scale(0.015625)"/>
      <path id="DejaVuSans-46" d="M 628 4666 
L 3309 4666 
L 3309 4134 
L 1259 4134 
L 1259 2759 
L 3109 2759 
L 3109 2228 
L 1259 2228 
L 1259 0 
L 628 0 
L 628 4666 
z
" transform="scale(0.015625)"/>
      <path id="DejaVuSans-4d" d="M 628 4666 
L 1569 4666 
L 2759 1491 
L 3956 4666 
L 4897 4666 
L 4897 0 
L 4281 0 
L 4281 4097 
L 3078 897 
L 2444 897 
L 1241 4097 
L 1241 0 
L 628 0 
L 628 4666 
z
" transform="scale(0.015625)"/>
      <path id="DejaVuSans-41" d="M 2188 4044 
L 1331 1722 
L 3047 1722 
L 2188 4044 
z
M 1831 4666 
L 2547 4666 
L 4325 0 
L 3669 0 
L 3244 1197 
L 1141 1197 
L 716 0 
L 50 0 
L 1831 4666 
z
" transform="scale(0.015625)"/>
      <path id="DejaVuSans-67" d="M 2906 1791 
Q 2906 2416 2648 2759 
Q 2391 3103 1925 3103 
Q 1463 3103 1205 2759 
Q 947 2416 947 1791 
Q 947 1169 1205 825 
Q 1463 481 1925 481 
Q 2391 481 2648 825 
Q 2906 1169 2906 1791 
z
M 3481 434 
Q 3481 -459 3084 -895 
Q 2688 -1331 1869 -1331 
Q 1566 -1331 1297 -1286 
Q 1028 -1241 775 -1147 
L 775 -588 
Q 1028 -725 1275 -790 
Q 1522 -856 1778 -856 
Q 2344 -856 2625 -561 
Q 2906 -266 2906 331 
L 2906 616 
Q 2728 306 2450 153 
Q 2172 0 1784 0 
Q 1141 0 747 490 
Q 353 981 353 1791 
Q 353 2603 747 3093 
Q 1141 3584 1784 3584 
Q 2172 3584 2450 3431 
Q 2728 3278 2906 2969 
L 2906 3500 
L 3481 3500 
L 3481 434 
z
" transform="scale(0.015625)"/>
      <path id="DejaVuSans-76" d="M 191 3500 
L 800 3500 
L 1894 563 
L 2988 3500 
L 3597 3500 
L 2284 0 
L 1503 0 
L 191 3500 
z
" transform="scale(0.015625)"/>
      <path id="DejaVuSans-33" d="M 2597 2516 
Q 3050 2419 3304 2112 
Q 3559 1806 3559 1356 
Q 3559 666 3084 287 
Q 2609 -91 1734 -91 
Q 1441 -91 1130 -33 
Q 819 25 488 141 
L 488 750 
Q 750 597 1062 519 
Q 1375 441 1716 441 
Q 2309 441 2620 675 
Q 2931 909 2931 1356 
Q 2931 1769 2642 2001 
Q 2353 2234 1838 2234 
L 1294 2234 
L 1294 2753 
L 1863 2753 
Q 2328 2753 2575 2939 
Q 2822 3125 2822 3475 
Q 2822 3834 2567 4026 
Q 2313 4219 1838 4219 
Q 1578 4219 1281 4162 
Q 984 4106 628 3988 
L 628 4550 
Q 988 4650 1302 4700 
Q 1616 4750 1894 4750 
Q 2613 4750 3031 4423 
Q 3450 4097 3450 3541 
Q 3450 3153 3228 2886 
Q 3006 2619 2597 2516 
z
" transform="scale(0.015625)"/>
      <path id="DejaVuSans-2014" d="M 313 1978 
L 6088 1978 
L 6088 1528 
L 313 1528 
L 313 1978 
z
" transform="scale(0.015625)"/>
      <path id="DejaVuSans-2d" d="M 313 2009 
L 1997 2009 
L 1997 1497 
L 313 1497 
L 313 2009 
z
" transform="scale(0.015625)"/>
      <path id="DejaVuSans-6f" d="M 1959 3097 
Q 1497 3097 1228 2736 
Q 959 2375 959 1747 
Q 959 1119 1226 758 
Q 1494 397 1959 397 
Q 2419 397 2687 759 
Q 2956 1122 2956 1747 
Q 2956 2369 2687 2733 
Q 2419 3097 1959 3097 
z
M 1959 3584 
Q 2709 3584 3137 3096 
Q 3566 2609 3566 1747 
Q 3566 888 3137 398 
Q 2709 -91 1959 -91 
Q 1206 -91 779 398 
Q 353 888 353 1747 
Q 353 2609 779 3096 
Q 1206 3584 1959 3584 
z
" transform="scale(0.015625)"/>
      <path id="DejaVuSans-72" d="M 2631 2963 
Q 2534 3019 2420 3045 
Q 2306 3072 2169 3072 
Q 1681 3072 1420 2755 
Q 1159 2438 1159 1844 
L 1159 0 
L 581 0 
L 581 3500 
L 1159 3500 
L 1159 2956 
Q 1341 3275 1631 3429 
Q 1922 3584 2338 3584 
Q 2397 3584 2469 3576 
Q 2541 3569 2628 3553 
L 2631 2963 
z
" transform="scale(0.015625)"/>
      <path id="DejaVuSans-47" d="M 3809 666 
L 3809 1919 
L 2778 1919 
L 2778 2438 
L 4434 2438 
L 4434 434 
Q 4069 175 3628 42 
Q 3188 -91 2688 -91 
Q 1594 -91 976 548 
Q 359 1188 359 2328 
Q 359 3472 976 4111 
Q 1594 4750 2688 4750 
Q 3144 4750 3555 4637 
Q 3966 4525 4313 4306 
L 4313 3634 
Q 3963 3931 3569 4081 
Q 3175 4231 2741 4231 
Q 1884 4231 1454 3753 
Q 1025 3275 1025 2328 
Q 1025 1384 1454 906 
Q 1884 428 2741 428 
Q 3075 428 3337 486 
Q 3600 544 3809 666 
z
" transform="scale(0.015625)"/>
      <path id="DejaVuSans-50" d="M 1259 4147 
L 1259 2394 
L 2053 2394 
Q 2494 2394 2734 2622 
Q 2975 2850 2975 3272 
Q 2975 3691 2734 3919 
Q 2494 4147 2053 4147 
L 1259 4147 
z
M 628 4666 
L 2053 4666 
Q 2838 4666 3239 4311 
Q 3641 3956 3641 3272 
Q 3641 2581 3239 2228 
Q 2838 1875 2053 1875 
L 1259 1875 
L 1259 0 
L 628 0 
L 628 4666 
z
" transform="scale(0.015625)"/>
      <path id="DejaVuSans-66" d="M 2375 4863 
L 2375 4384 
L 1825 4384 
Q 1516 4384 1395 4259 
Q 1275 4134 1275 3809 
L 1275 3500 
L 2222 3500 
L 2222 3053 
L 1275 3053 
L 1275 0 
L 697 0 
L 697 3053 
L 147 3053 
L 147 3500 
L 697 3500 
L 697 3744 
Q 697 4328 969 4595 
Q 1241 4863 1831 4863 
L 2375 4863 
z
" transform="scale(0.015625)"/>
     </defs>
     <use xlink:href="#DejaVuSans-70"/>
     <use xlink:href="#DejaVuSans-35" transform="translate(63.476562 0)"/>
     <use xlink:href="#DejaVuSans-30" transform="translate(127.099609 0)"/>
     <use xlink:href="#DejaVuSans-20" transform="translate(190.722656 0)"/>
     <use xlink:href="#DejaVuSans-49" transform="translate(222.509766 0)"/>
     <use xlink:href="#DejaVuSans-46" transform="translate(252.001953 0)"/>
     <use xlink:href="#DejaVuSans-4d" transform="translate(309.521484 0)"/>
     <use xlink:href="#DejaVuSans-41" transform="translate(395.800781 0)"/>
     <use xlink:href="#DejaVuSans-20" transform="translate(464.208984 0)"/>
     <use xlink:href="#DejaVuSans-65" transform="translate(495.996094 0)"/>
     <use xlink:href="#DejaVuSans-6e" transform="translate(557.519531 0)"/>
     <use xlink:href="#DejaVuSans-67" transform="translate(620.898438 0)"/>
     <use xlink:href="#DejaVuSans-69" transform="translate(684.375 0)"/>
     <use xlink:href="#DejaVuSans-6e" transform="translate(712.158203 0)"/>
     <use xlink:href="#DejaVuSans-65" transform="translate(775.537109 0)"/>
     <use xlink:href="#DejaVuSans-20" transform="translate(837.060547 0)"/>
     <use xlink:href="#DejaVuSans-76" transform="translate(868.847656 0)"/>
     <use xlink:href="#DejaVuSans-31" transform="translate(928.027344 0)"/>
     <use xlink:href="#DejaVuSans-20" transform="translate(991.650391 0)"/>
     <use xlink:href="#DejaVuSans-76" transform="translate(1023.4375 0)"/>
     <use xlink:href="#DejaVuSans-73" transform="translate(1082.617188 0)"/>
     <use xlink:href="#DejaVuSans-20" transform="translate(1134.716797 0)"/>
     <use xlink:href="#DejaVuSans-70" transform="translate(1166.503906 0)"/>
     <use xlink:href="#DejaVuSans-33" transform="translate(1229.980469 0)"/>
     <use xlink:href="#DejaVuSans-30" transform="translate(1293.603516 0)"/>
     <use xlink:href="#DejaVuSans-20" transform="translate(1357.226562 0)"/>
     <use xlink:href="#DejaVuSans-2014" transform="translate(1389.013672 0)"/>
     <use xlink:href="#DejaVuSans-20" transform="translate(1489.013672 0)"/>
     <use xlink:href="#DejaVuSans-31" transform="translate(1520.800781 0)"/>
     <use xlink:href="#DejaVuSans-2f" transform="translate(1584.423828 0)"/>
     <use xlink:href="#DejaVuSans-31" transform="translate(1618.115234 0)"/>
     <use xlink:href="#DejaVuSans-36" transform="translate(1681.738281 0)"/>
     <use xlink:href="#DejaVuSans-2d" transform="translate(1745.361328 0)"/>
     <use xlink:href="#DejaVuSans-6f" transform="translate(1783.320312 0)"/>
     <use xlink:href="#DejaVuSans-63" transform="translate(1844.501953 0)"/>
     <use xlink:href="#DejaVuSans-74" transform="translate(1899.482422 0)"/>
     <use xlink:href="#DejaVuSans-61" transform="translate(1938.691406 0)"/>
     <use xlink:href="#DejaVuSans-76" transform="translate(1999.970703 0)"/>
     <use xlink:href="#DejaVuSans-65" transform="translate(2059.150391 0)"/>
     <use xlink:href="#DejaVuSans-20" transform="translate(2120.673828 0)"/>
     <use xlink:href="#DejaVuSans-67" transform="translate(2152.460938 0)"/>
     <use xlink:href="#DejaVuSans-72" transform="translate(2215.9375 0)"/>
     <use xlink:href="#DejaVuSans-69" transform="translate(2257.050781 0)"/>
     <use xlink:href="#DejaVuSans-64" transform="translate(2284.833984 0)"/>
     <use xlink:href="#DejaVuSans-20" transform="translate(2348.310547 0)"/>
     <use xlink:href="#DejaVuSans-28" transform="translate(2380.097656 0)"/>
     <use xlink:href="#DejaVuSans-73" transform="translate(2419.111328 0)"/>
     <use xlink:href="#DejaVuSans-6f" transform="translate(2471.210938 0)"/>
     <use xlink:href="#DejaVuSans-6c" transform="translate(2532.392578 0)"/>
     <use xlink:href="#DejaVuSans-6f" transform="translate(2560.175781 0)"/>
     <use xlink:href="#DejaVuSans-2c" transform="translate(2621.357422 0)"/>
     <use xlink:href="#DejaVuSans-20" transform="translate(2653.144531 0)"/>
     <use xlink:href="#DejaVuSans-47" transform="translate(2684.931641 0)"/>
     <use xlink:href="#DejaVuSans-4d" transform="translate(2762.421875 0)"/>
     <use xlink:href="#DejaVuSans-50" transform="translate(2848.701172 0)"/>
     <use xlink:href="#DejaVuSans-2d" transform="translate(2906.753906 0)"/>
     <use xlink:href="#DejaVuSans-76" transform="translate(2940.212891 0)"/>
     <use xlink:href="#DejaVuSans-65" transform="translate(2999.392578 0)"/>
     <use xlink:href="#DejaVuSans-72" transform="translate(3060.916016 0)"/>
     <use xlink:href="#DejaVuSans-69" transform="translate(3102.029297 0)"/>
     <use xlink:href="#DejaVuSans-66" transform="translate(3129.8125 0)"/>
     <use xlink:href="#DejaVuSans-69" transform="translate(3165.017578 0)"/>
     <use xlink:href="#DejaVuSans-65" transform="translate(3192.800781 0)"/>
     <use xlink:href="#DejaVuSans-64" transform="translate(3254.324219 0)"/>
     <use xlink:href="#DejaVuSans-29" transform="translate(3317.800781 0)"/>
    </g>
   </g>
   <g id="legend_1">
    <g id="patch_7">
     <path d="M 690.498438 417.728 
L 918.2 417.728 
Q 920.2 417.728 920.2 415.728 
L 920.2 372.4155 
Q 920.2 370.4155 918.2 370.4155 
L 690.498438 370.4155 
Q 688.498438 370.4155 688.498438 372.4155 
L 688.498438 415.728 
Q 688.498438 417.728 690.498438 417.728 
z
" style="fill: #ffffff; opacity: 0.8; stroke: #cccccc; stroke-linejoin: miter"/>
    </g>
    <g id="line2d_37">
     <path d="M 692.498438 378.513937 
L 702.498438 378.513937 
L 712.498438 378.513937 
" style="fill: none; stroke: #9467bd; stroke-opacity: 0.8; stroke-width: 0.9; stroke-linecap: square"/>
    </g>
    <g id="text_15">
     <!-- FLINT fft_small (1 thread) -->
     <g transform="translate(720.498438 382.013937) scale(0.1 -0.1)">
      <defs>
       <path id="DejaVuSans-4c" d="M 628 4666 
L 1259 4666 
L 1259 531 
L 3531 531 
L 3531 0 
L 628 0 
L 628 4666 
z
" transform="scale(0.015625)"/>
       <path id="DejaVuSans-4e" d="M 628 4666 
L 1478 4666 
L 3547 763 
L 3547 4666 
L 4159 4666 
L 4159 0 
L 3309 0 
L 1241 3903 
L 1241 0 
L 628 0 
L 628 4666 
z
" transform="scale(0.015625)"/>
       <path id="DejaVuSans-54" d="M -19 4666 
L 3928 4666 
L 3928 4134 
L 2272 4134 
L 2272 0 
L 1638 0 
L 1638 4134 
L -19 4134 
L -19 4666 
z
" transform="scale(0.015625)"/>
       <path id="DejaVuSans-5f" d="M 3263 -1063 
L 3263 -1509 
L -63 -1509 
L -63 -1063 
L 3263 -1063 
z
" transform="scale(0.015625)"/>
       <path id="DejaVuSans-68" d="M 3513 2113 
L 3513 0 
L 2938 0 
L 2938 2094 
Q 2938 2591 2744 2837 
Q 2550 3084 2163 3084 
Q 1697 3084 1428 2787 
Q 1159 2491 1159 1978 
L 1159 0 
L 581 0 
L 581 4863 
L 1159 4863 
L 1159 2956 
Q 1366 3272 1645 3428 
Q 1925 3584 2291 3584 
Q 2894 3584 3203 3211 
Q 3513 2838 3513 2113 
z
" transform="scale(0.015625)"/>
      </defs>
      <use xlink:href="#DejaVuSans-46"/>
      <use xlink:href="#DejaVuSans-4c" transform="translate(57.519531 0)"/>
      <use xlink:href="#DejaVuSans-49" transform="translate(113.232422 0)"/>
      <use xlink:href="#DejaVuSans-4e" transform="translate(142.724609 0)"/>
      <use xlink:href="#DejaVuSans-54" transform="translate(217.529297 0)"/>
      <use xlink:href="#DejaVuSans-20" transform="translate(278.613281 0)"/>
      <use xlink:href="#DejaVuSans-66" transform="translate(310.400391 0)"/>
      <use xlink:href="#DejaVuSans-66" transform="translate(345.605469 0)"/>
      <use xlink:href="#DejaVuSans-74" transform="translate(379.060547 0)"/>
      <use xlink:href="#DejaVuSans-5f" transform="translate(418.269531 0)"/>
      <use xlink:href="#DejaVuSans-73" transform="translate(468.269531 0)"/>
      <use xlink:href="#DejaVuSans-6d" transform="translate(520.369141 0)"/>
      <use xlink:href="#DejaVuSans-61" transform="translate(617.78125 0)"/>
      <use xlink:href="#DejaVuSans-6c" transform="translate(679.060547 0)"/>
      <use xlink:href="#DejaVuSans-6c" transform="translate(706.84375 0)"/>
      <use xlink:href="#DejaVuSans-20" transform="translate(734.626953 0)"/>
      <use xlink:href="#DejaVuSans-28" transform="translate(766.414062 0)"/>
      <use xlink:href="#DejaVuSans-31" transform="translate(805.427734 0)"/>
      <use xlink:href="#DejaVuSans-20" transform="translate(869.050781 0)"/>
      <use xlink:href="#DejaVuSans-74" transform="translate(900.837891 0)"/>
      <use xlink:href="#DejaVuSans-68" transform="translate(940.046875 0)"/>
      <use xlink:href="#DejaVuSans-72" transform="translate(1003.425781 0)"/>
      <use xlink:href="#DejaVuSans-65" transform="translate(1042.289062 0)"/>
      <use xlink:href="#DejaVuSans-61" transform="translate(1103.8125 0)"/>
      <use xlink:href="#DejaVuSans-64" transform="translate(1165.091797 0)"/>
      <use xlink:href="#DejaVuSans-29" transform="translate(1228.568359 0)"/>
     </g>
    </g>
    <g id="line2d_38">
     <path d="M 692.498438 393.470188 
L 702.498438 393.470188 
L 712.498438 393.470188 
" style="fill: none; stroke: #2ca02c; stroke-width: 1.1; stroke-linecap: square"/>
    </g>
    <g id="text_16">
     <!-- p30 (5x30-bit, stage 3) -->
     <g transform="translate(720.498438 396.970188) scale(0.1 -0.1)">
      <defs>
       <path id="DejaVuSans-78" d="M 3513 3500 
L 2247 1797 
L 3578 0 
L 2900 0 
L 1881 1375 
L 863 0 
L 184 0 
L 1544 1831 
L 300 3500 
L 978 3500 
L 1906 2253 
L 2834 3500 
L 3513 3500 
z
" transform="scale(0.015625)"/>
      </defs>
      <use xlink:href="#DejaVuSans-70"/>
      <use xlink:href="#DejaVuSans-33" transform="translate(63.476562 0)"/>
      <use xlink:href="#DejaVuSans-30" transform="translate(127.099609 0)"/>
      <use xlink:href="#DejaVuSans-20" transform="translate(190.722656 0)"/>
      <use xlink:href="#DejaVuSans-28" transform="translate(222.509766 0)"/>
      <use xlink:href="#DejaVuSans-35" transform="translate(261.523438 0)"/>
      <use xlink:href="#DejaVuSans-78" transform="translate(325.146484 0)"/>
      <use xlink:href="#DejaVuSans-33" transform="translate(384.326172 0)"/>
      <use xlink:href="#DejaVuSans-30" transform="translate(447.949219 0)"/>
      <use xlink:href="#DejaVuSans-2d" transform="translate(511.572266 0)"/>
      <use xlink:href="#DejaVuSans-62" transform="translate(547.65625 0)"/>
      <use xlink:href="#DejaVuSans-69" transform="translate(611.132812 0)"/>
      <use xlink:href="#DejaVuSans-74" transform="translate(638.916016 0)"/>
      <use xlink:href="#DejaVuSans-2c" transform="translate(678.125 0)"/>
      <use xlink:href="#DejaVuSans-20" transform="translate(709.912109 0)"/>
      <use xlink:href="#DejaVuSans-73" transform="translate(741.699219 0)"/>
      <use xlink:href="#DejaVuSans-74" transform="translate(793.798828 0)"/>
      <use xlink:href="#DejaVuSans-61" transform="translate(833.007812 0)"/>
      <use xlink:href="#DejaVuSans-67" transform="translate(894.287109 0)"/>
      <use xlink:href="#DejaVuSans-65" transform="translate(957.763672 0)"/>
      <use xlink:href="#DejaVuSans-20" transform="translate(1019.287109 0)"/>
      <use xlink:href="#DejaVuSans-33" transform="translate(1051.074219 0)"/>
      <use xlink:href="#DejaVuSans-29" transform="translate(1114.697266 0)"/>
     </g>
    </g>
    <g id="line2d_39">
     <path d="M 692.498438 408.148312 
L 702.498438 408.148312 
L 712.498438 408.148312 
" style="fill: none; stroke: #d62728; stroke-width: 1.5; stroke-linecap: square"/>
     <g>
      <use xlink:href="#m9fb8bd0913" x="702.498438" y="408.148312" style="fill: #d62728; stroke: #d62728"/>
     </g>
    </g>
    <g id="text_17">
     <!-- p50 v1 (4x50-bit IFMA52, T=88 trunks) -->
     <g transform="translate(720.498438 411.648312) scale(0.1 -0.1)">
      <defs>
       <path id="DejaVuSans-6b" d="M 581 4863 
L 1159 4863 
L 1159 1991 
L 2875 3500 
L 3609 3500 
L 1753 1863 
L 3688 0 
L 2938 0 
L 1159 1709 
L 1159 0 
L 581 0 
L 581 4863 
z
" transform="scale(0.015625)"/>
      </defs>
      <use xlink:href="#DejaVuSans-70"/>
      <use xlink:href="#DejaVuSans-35" transform="translate(63.476562 0)"/>
      <use xlink:href="#DejaVuSans-30" transform="translate(127.099609 0)"/>
      <use xlink:href="#DejaVuSans-20" transform="translate(190.722656 0)"/>
      <use xlink:href="#DejaVuSans-76" transform="translate(222.509766 0)"/>
      <use xlink:href="#DejaVuSans-31" transform="translate(281.689453 0)"/>
      <use xlink:href="#DejaVuSans-20" transform="translate(345.3125 0)"/>
      <use xlink:href="#DejaVuSans-28" transform="translate(377.099609 0)"/>
      <use xlink:href="#DejaVuSans-34" transform="translate(416.113281 0)"/>
      <use xlink:href="#DejaVuSans-78" transform="translate(479.736328 0)"/>
      <use xlink:href="#DejaVuSans-35" transform="translate(538.916016 0)"/>
      <use xlink:href="#DejaVuSans-30" transform="translate(602.539062 0)"/>
      <use xlink:href="#DejaVuSans-2d" transform="translate(666.162109 0)"/>
      <use xlink:href="#DejaVuSans-62" transform="translate(702.246094 0)"/>
      <use xlink:href="#DejaVuSans-69" transform="translate(765.722656 0)"/>
      <use xlink:href="#DejaVuSans-74" transform="translate(793.505859 0)"/>
      <use xlink:href="#DejaVuSans-20" transform="translate(832.714844 0)"/>
      <use xlink:href="#DejaVuSans-49" transform="translate(864.501953 0)"/>
      <use xlink:href="#DejaVuSans-46" transform="translate(893.994141 0)"/>
      <use xlink:href="#DejaVuSans-4d" transform="translate(951.513672 0)"/>
      <use xlink:href="#DejaVuSans-41" transform="translate(1037.792969 0)"/>
      <use xlink:href="#DejaVuSans-35" transform="translate(1106.201172 0)"/>
      <use xlink:href="#DejaVuSans-32" transform="translate(1169.824219 0)"/>
      <use xlink:href="#DejaVuSans-2c" transform="translate(1233.447266 0)"/>
      <use xlink:href="#DejaVuSans-20" transform="translate(1265.234375 0)"/>
      <use xlink:href="#DejaVuSans-54" transform="translate(1297.021484 0)"/>
      <use xlink:href="#DejaVuSans-3d" transform="translate(1358.105469 0)"/>
      <use xlink:href="#DejaVuSans-38" transform="translate(1441.894531 0)"/>
      <use xlink:href="#DejaVuSans-38" transform="translate(1505.517578 0)"/>
      <use xlink:href="#DejaVuSans-20" transform="translate(1569.140625 0)"/>
      <use xlink:href="#DejaVuSans-74" transform="translate(1600.927734 0)"/>
      <use xlink:href="#DejaVuSans-72" transform="translate(1640.136719 0)"/>
      <use xlink:href="#DejaVuSans-75" transform="translate(1681.25 0)"/>
      <use xlink:href="#DejaVuSans-6e" transform="translate(1744.628906 0)"/>
      <use xlink:href="#DejaVuSans-6b" transform="translate(1808.007812 0)"/>
      <use xlink:href="#DejaVuSans-73" transform="translate(1865.917969 0)"/>
      <use xlink:href="#DejaVuSans-29" transform="translate(1918.017578 0)"/>
     </g>
    </g>
   </g>
  </g>
 </g>
 <defs>
  <clipPath id="p6977a5712a">
   <rect x="44.66" y="25.44" width="880.54" height="397.288"/>
  </clipPath>
 </defs>
</svg>
