<?xml version="1.0" encoding="utf-8" standalone="no"?>
<!DOCTYPE svg PUBLIC "-//W3C//DTD SVG 1.1//EN"
  "http://www.w3.org/Graphics/SVG/1.1/DTD/svg11.dtd">
<svg xmlns:xlink="http://www.w3.org/1999/xlink" width="864pt" height="648pt" viewBox="0 0 864 648" xmlns="http://www.w3.org/2000/svg" version="1.1">
 <metadata>
  <rdf:RDF xmlns:dc="http://purl.org/dc/elements/1.1/" xmlns:cc="http://creativecommons.org/ns#" xmlns:rdf="http://www.w3.org/1999/02/22-rdf-syntax-ns#">
   <cc:Work>
    <dc:type rdf:resource="http://purl.org/dc/dcmitype/StillImage"/>
    <dc:date>2026-06-05T16:45:49.655582</dc:date>
    <dc:format>image/svg+xml</dc:format>
    <dc:creator>
     <cc:Agent>
      <dc:title>Matplotlib v3.10.7+dfsg1, https://matplotlib.org/</dc:title>
     </cc:Agent>
    </dc:creator>
   </cc:Work>
  </rdf:RDF>
 </metadata>
 <defs>
  <style type="text/css">*{stroke-linejoin: round; stroke-linecap: butt}</style>
 </defs>
 <g id="figure_1">
  <g id="patch_1">
   <path d="M 0 648 
L 864 648 
L 864 0 
L 0 0 
z
" style="fill: #ffffff"/>
  </g>
  <g id="axes_1">
   <g id="patch_2">
    <path d="M 54.2 301.27 
L 853.2 301.27 
L 853.2 10.8 
L 54.2 10.8 
z
" style="fill: #ffffff"/>
   </g>
   <g id="matplotlib.axis_1">
    <g id="xtick_1">
     <g id="line2d_1">
      <path d="M 89.096727 301.27 
L 89.096727 10.8 
" clip-path="url(#p1c3f05a185)" style="fill: none; stroke: #b0b0b0; stroke-opacity: 0.25; stroke-width: 0.8; stroke-linecap: square"/>
     </g>
     <g id="line2d_2">
      <defs>
       <path id="mb2303b9169" d="M 0 0 
L 0 3.5 
" style="stroke: #000000; stroke-width: 0.8"/>
      </defs>
      <g>
       <use xlink:href="#mb2303b9169" x="89.096727" y="301.27" style="stroke: #000000; stroke-width: 0.8"/>
      </g>
     </g>
    </g>
    <g id="xtick_2">
     <g id="line2d_3">
      <path d="M 177.93768 301.27 
L 177.93768 10.8 
" clip-path="url(#p1c3f05a185)" style="fill: none; stroke: #b0b0b0; stroke-opacity: 0.25; stroke-width: 0.8; stroke-linecap: square"/>
     </g>
     <g id="line2d_4">
      <g>
       <use xlink:href="#mb2303b9169" x="177.93768" y="301.27" style="stroke: #000000; stroke-width: 0.8"/>
      </g>
     </g>
    </g>
    <g id="xtick_3">
     <g id="line2d_5">
      <path d="M 266.778634 301.27 
L 266.778634 10.8 
" clip-path="url(#p1c3f05a185)" style="fill: none; stroke: #b0b0b0; stroke-opacity: 0.25; stroke-width: 0.8; stroke-linecap: square"/>
     </g>
     <g id="line2d_6">
      <g>
       <use xlink:href="#mb2303b9169" x="266.778634" y="301.27" style="stroke: #000000; stroke-width: 0.8"/>
      </g>
     </g>
    </g>
    <g id="xtick_4">
     <g id="line2d_7">
      <path d="M 355.619587 301.27 
L 355.619587 10.8 
" clip-path="url(#p1c3f05a185)" style="fill: none; stroke: #b0b0b0; stroke-opacity: 0.25; stroke-width: 0.8; stroke-linecap: square"/>
     </g>
     <g id="line2d_8">
      <g>
       <use xlink:href="#mb2303b9169" x="355.619587" y="301.27" style="stroke: #000000; stroke-width: 0.8"/>
      </g>
     </g>
    </g>
    <g id="xtick_5">
     <g id="line2d_9">
      <path d="M 444.460541 301.27 
L 444.460541 10.8 
" clip-path="url(#p1c3f05a185)" style="fill: none; stroke: #b0b0b0; stroke-opacity: 0.25; stroke-width: 0.8; stroke-linecap: square"/>
     </g>
     <g id="line2d_10">
      <g>
       <use xlink:href="#mb2303b9169" x="444.460541" y="301.27" style="stroke: #000000; stroke-width: 0.8"/>
      </g>
     </g>
    </g>
    <g id="xtick_6">
     <g id="line2d_11">
      <path d="M 533.301494 301.27 
L 533.301494 10.8 
" clip-path="url(#p1c3f05a185)" style="fill: none; stroke: #b0b0b0; stroke-opacity: 0.25; stroke-width: 0.8; stroke-linecap: square"/>
     </g>
     <g id="line2d_12">
      <g>
       <use xlink:href="#mb2303b9169" x="533.301494" y="301.27" style="stroke: #000000; stroke-width: 0.8"/>
      </g>
     </g>
    </g>
    <g id="xtick_7">
     <g id="line2d_13">
      <path d="M 622.142448 301.27 
L 622.142448 10.8 
" clip-path="url(#p1c3f05a185)" style="fill: none; stroke: #b0b0b0; stroke-opacity: 0.25; stroke-width: 0.8; stroke-linecap: square"/>
     </g>
     <g id="line2d_14">
      <g>
       <use xlink:href="#mb2303b9169" x="622.142448" y="301.27" style="stroke: #000000; stroke-width: 0.8"/>
      </g>
     </g>
    </g>
    <g id="xtick_8">
     <g id="line2d_15">
      <path d="M 710.983402 301.27 
L 710.983402 10.8 
" clip-path="url(#p1c3f05a185)" style="fill: none; stroke: #b0b0b0; stroke-opacity: 0.25; stroke-width: 0.8; stroke-linecap: square"/>
     </g>
     <g id="line2d_16">
      <g>
       <use xlink:href="#mb2303b9169" x="710.983402" y="301.27" style="stroke: #000000; stroke-width: 0.8"/>
      </g>
     </g>
    </g>
    <g id="xtick_9">
     <g id="line2d_17">
      <path d="M 799.824355 301.27 
L 799.824355 10.8 
" clip-path="url(#p1c3f05a185)" style="fill: none; stroke: #b0b0b0; stroke-opacity: 0.25; stroke-width: 0.8; stroke-linecap: square"/>
     </g>
     <g id="line2d_18">
      <g>
       <use xlink:href="#mb2303b9169" x="799.824355" y="301.27" style="stroke: #000000; stroke-width: 0.8"/>
      </g>
     </g>
    </g>
   </g>
   <g id="matplotlib.axis_2">
    <g id="ytick_1">
     <g id="line2d_19">
      <path d="M 54.2 296.136302 
L 853.2 296.136302 
" clip-path="url(#p1c3f05a185)" style="fill: none; stroke: #b0b0b0; stroke-opacity: 0.25; stroke-width: 0.8; stroke-linecap: square"/>
     </g>
     <g id="line2d_20">
      <defs>
       <path id="m0a1e8958a9" d="M 0 0 
L -3.5 0 
" style="stroke: #000000; stroke-width: 0.8"/>
      </defs>
      <g>
       <use xlink:href="#m0a1e8958a9" x="54.2" y="296.136302" style="stroke: #000000; stroke-width: 0.8"/>
      </g>
     </g>
     <g id="text_1">
      <!-- 0.25 -->
      <g transform="translate(24.934375 299.935521) scale(0.1 -0.1)">
       <defs>
        <path id="DejaVuSans-30" d="M 2034 4250 
Q 1547 4250 1301 3770 
Q 1056 3291 1056 2328 
Q 1056 1369 1301 889 
Q 1547 409 2034 409 
Q 2525 409 2770 889 
Q 3016 1369 3016 2328 
Q 3016 3291 2770 3770 
Q 2525 4250 2034 4250 
z
M 2034 4750 
Q 2819 4750 3233 4129 
Q 3647 3509 3647 2328 
Q 3647 1150 3233 529 
Q 2819 -91 2034 -91 
Q 1250 -91 836 529 
Q 422 1150 422 2328 
Q 422 3509 836 4129 
Q 1250 4750 2034 4750 
z
" transform="scale(0.015625)"/>
        <path id="DejaVuSans-2e" d="M 684 794 
L 1344 794 
L 1344 0 
L 684 0 
L 684 794 
z
" transform="scale(0.015625)"/>
        <path id="DejaVuSans-32" d="M 1228 531 
L 3431 531 
L 3431 0 
L 469 0 
L 469 531 
Q 828 903 1448 1529 
Q 2069 2156 2228 2338 
Q 2531 2678 2651 2914 
Q 2772 3150 2772 3378 
Q 2772 3750 2511 3984 
Q 2250 4219 1831 4219 
Q 1534 4219 1204 4116 
Q 875 4013 500 3803 
L 500 4441 
Q 881 4594 1212 4672 
Q 1544 4750 1819 4750 
Q 2544 4750 2975 4387 
Q 3406 4025 3406 3419 
Q 3406 3131 3298 2873 
Q 3191 2616 2906 2266 
Q 2828 2175 2409 1742 
Q 1991 1309 1228 531 
z
" transform="scale(0.015625)"/>
        <path id="DejaVuSans-35" d="M 691 4666 
L 3169 4666 
L 3169 4134 
L 1269 4134 
L 1269 2991 
Q 1406 3038 1543 3061 
Q 1681 3084 1819 3084 
Q 2600 3084 3056 2656 
Q 3513 2228 3513 1497 
Q 3513 744 3044 326 
Q 2575 -91 1722 -91 
Q 1428 -91 1123 -41 
Q 819 9 494 109 
L 494 744 
Q 775 591 1075 516 
Q 1375 441 1709 441 
Q 2250 441 2565 725 
Q 2881 1009 2881 1497 
Q 2881 1984 2565 2268 
Q 2250 2553 1709 2553 
Q 1456 2553 1204 2497 
Q 953 2441 691 2322 
L 691 4666 
z
" transform="scale(0.015625)"/>
       </defs>
       <use xlink:href="#DejaVuSans-30"/>
       <use xlink:href="#DejaVuSans-2e" transform="translate(63.623047 0)"/>
       <use xlink:href="#DejaVuSans-32" transform="translate(95.410156 0)"/>
       <use xlink:href="#DejaVuSans-35" transform="translate(159.033203 0)"/>
      </g>
     </g>
    </g>
    <g id="ytick_2">
     <g id="line2d_21">
      <path d="M 54.2 253.155254 
L 853.2 253.155254 
" clip-path="url(#p1c3f05a185)" style="fill: none; stroke: #b0b0b0; stroke-opacity: 0.25; stroke-width: 0.8; stroke-linecap: square"/>
     </g>
     <g id="line2d_22">
      <g>
       <use xlink:href="#m0a1e8958a9" x="54.2" y="253.155254" style="stroke: #000000; stroke-width: 0.8"/>
      </g>
     </g>
     <g id="text_2">
      <!-- 0.30 -->
      <g transform="translate(24.934375 256.954472) scale(0.1 -0.1)">
       <defs>
        <path id="DejaVuSans-33" d="M 2597 2516 
Q 3050 2419 3304 2112 
Q 3559 1806 3559 1356 
Q 3559 666 3084 287 
Q 2609 -91 1734 -91 
Q 1441 -91 1130 -33 
Q 819 25 488 141 
L 488 750 
Q 750 597 1062 519 
Q 1375 441 1716 441 
Q 2309 441 2620 675 
Q 2931 909 2931 1356 
Q 2931 1769 2642 2001 
Q 2353 2234 1838 2234 
L 1294 2234 
L 1294 2753 
L 1863 2753 
Q 2328 2753 2575 2939 
Q 2822 3125 2822 3475 
Q 2822 3834 2567 4026 
Q 2313 4219 1838 4219 
Q 1578 4219 1281 4162 
Q 984 4106 628 3988 
L 628 4550 
Q 988 4650 1302 4700 
Q 1616 4750 1894 4750 
Q 2613 4750 3031 4423 
Q 3450 4097 3450 3541 
Q 3450 3153 3228 2886 
Q 3006 2619 2597 2516 
z
" transform="scale(0.015625)"/>
       </defs>
       <use xlink:href="#DejaVuSans-30"/>
       <use xlink:href="#DejaVuSans-2e" transform="translate(63.623047 0)"/>
       <use xlink:href="#DejaVuSans-33" transform="translate(95.410156 0)"/>
       <use xlink:href="#DejaVuSans-30" transform="translate(159.033203 0)"/>
      </g>
     </g>
    </g>
    <g id="ytick_3">
     <g id="line2d_23">
      <path d="M 54.2 210.174205 
L 853.2 210.174205 
" clip-path="url(#p1c3f05a185)" style="fill: none; stroke: #b0b0b0; stroke-opacity: 0.25; stroke-width: 0.8; stroke-linecap: square"/>
     </g>
     <g id="line2d_24">
      <g>
       <use xlink:href="#m0a1e8958a9" x="54.2" y="210.174205" style="stroke: #000000; stroke-width: 0.8"/>
      </g>
     </g>
     <g id="text_3">
      <!-- 0.35 -->
      <g transform="translate(24.934375 213.973424) scale(0.1 -0.1)">
       <use xlink:href="#DejaVuSans-30"/>
       <use xlink:href="#DejaVuSans-2e" transform="translate(63.623047 0)"/>
       <use xlink:href="#DejaVuSans-33" transform="translate(95.410156 0)"/>
       <use xlink:href="#DejaVuSans-35" transform="translate(159.033203 0)"/>
      </g>
     </g>
    </g>
    <g id="ytick_4">
     <g id="line2d_25">
      <path d="M 54.2 167.193157 
L 853.2 167.193157 
" clip-path="url(#p1c3f05a185)" style="fill: none; stroke: #b0b0b0; stroke-opacity: 0.25; stroke-width: 0.8; stroke-linecap: square"/>
     </g>
     <g id="line2d_26">
      <g>
       <use xlink:href="#m0a1e8958a9" x="54.2" y="167.193157" style="stroke: #000000; stroke-width: 0.8"/>
      </g>
     </g>
     <g id="text_4">
      <!-- 0.40 -->
      <g transform="translate(24.934375 170.992376) scale(0.1 -0.1)">
       <defs>
        <path id="DejaVuSans-34" d="M 2419 4116 
L 825 1625 
L 2419 1625 
L 2419 4116 
z
M 2253 4666 
L 3047 4666 
L 3047 1625 
L 3713 1625 
L 3713 1100 
L 3047 1100 
L 3047 0 
L 2419 0 
L 2419 1100 
L 313 1100 
L 313 1709 
L 2253 4666 
z
" transform="scale(0.015625)"/>
       </defs>
       <use xlink:href="#DejaVuSans-30"/>
       <use xlink:href="#DejaVuSans-2e" transform="translate(63.623047 0)"/>
       <use xlink:href="#DejaVuSans-34" transform="translate(95.410156 0)"/>
       <use xlink:href="#DejaVuSans-30" transform="translate(159.033203 0)"/>
      </g>
     </g>
    </g>
    <g id="ytick_5">
     <g id="line2d_27">
      <path d="M 54.2 124.212109 
L 853.2 124.212109 
" clip-path="url(#p1c3f05a185)" style="fill: none; stroke: #b0b0b0; stroke-opacity: 0.25; stroke-width: 0.8; stroke-linecap: square"/>
     </g>
     <g id="line2d_28">
      <g>
       <use xlink:href="#m0a1e8958a9" x="54.2" y="124.212109" style="stroke: #000000; stroke-width: 0.8"/>
      </g>
     </g>
     <g id="text_5">
      <!-- 0.45 -->
      <g transform="translate(24.934375 128.011327) scale(0.1 -0.1)">
       <use xlink:href="#DejaVuSans-30"/>
       <use xlink:href="#DejaVuSans-2e" transform="translate(63.623047 0)"/>
       <use xlink:href="#DejaVuSans-34" transform="translate(95.410156 0)"/>
       <use xlink:href="#DejaVuSans-35" transform="translate(159.033203 0)"/>
      </g>
     </g>
    </g>
    <g id="ytick_6">
     <g id="line2d_29">
      <path d="M 54.2 81.23106 
L 853.2 81.23106 
" clip-path="url(#p1c3f05a185)" style="fill: none; stroke: #b0b0b0; stroke-opacity: 0.25; stroke-width: 0.8; stroke-linecap: square"/>
     </g>
     <g id="line2d_30">
      <g>
       <use xlink:href="#m0a1e8958a9" x="54.2" y="81.23106" style="stroke: #000000; stroke-width: 0.8"/>
      </g>
     </g>
     <g id="text_6">
      <!-- 0.50 -->
      <g transform="translate(24.934375 85.030279) scale(0.1 -0.1)">
       <use xlink:href="#DejaVuSans-30"/>
       <use xlink:href="#DejaVuSans-2e" transform="translate(63.623047 0)"/>
       <use xlink:href="#DejaVuSans-35" transform="translate(95.410156 0)"/>
       <use xlink:href="#DejaVuSans-30" transform="translate(159.033203 0)"/>
      </g>
     </g>
    </g>
    <g id="ytick_7">
     <g id="line2d_31">
      <path d="M 54.2 38.250012 
L 853.2 38.250012 
" clip-path="url(#p1c3f05a185)" style="fill: none; stroke: #b0b0b0; stroke-opacity: 0.25; stroke-width: 0.8; stroke-linecap: square"/>
     </g>
     <g id="line2d_32">
      <g>
       <use xlink:href="#m0a1e8958a9" x="54.2" y="38.250012" style="stroke: #000000; stroke-width: 0.8"/>
      </g>
     </g>
     <g id="text_7">
      <!-- 0.55 -->
      <g transform="translate(24.934375 42.049231) scale(0.1 -0.1)">
       <use xlink:href="#DejaVuSans-30"/>
       <use xlink:href="#DejaVuSans-2e" transform="translate(63.623047 0)"/>
       <use xlink:href="#DejaVuSans-35" transform="translate(95.410156 0)"/>
       <use xlink:href="#DejaVuSans-35" transform="translate(159.033203 0)"/>
      </g>
     </g>
    </g>
    <g id="text_8">
     <!-- ns / limb -->
     <g transform="translate(18.854688 177.493594) rotate(-90) scale(0.1 -0.1)">
      <defs>
       <path id="DejaVuSans-6e" d="M 3513 2113 
L 3513 0 
L 2938 0 
L 2938 2094 
Q 2938 2591 2744 2837 
Q 2550 3084 2163 3084 
Q 1697 3084 1428 2787 
Q 1159 2491 1159 1978 
L 1159 0 
L 581 0 
L 581 3500 
L 1159 3500 
L 1159 2956 
Q 1366 3272 1645 3428 
Q 1925 3584 2291 3584 
Q 2894 3584 3203 3211 
Q 3513 2838 3513 2113 
z
" transform="scale(0.015625)"/>
       <path id="DejaVuSans-73" d="M 2834 3397 
L 2834 2853 
Q 2591 2978 2328 3040 
Q 2066 3103 1784 3103 
Q 1356 3103 1142 2972 
Q 928 2841 928 2578 
Q 928 2378 1081 2264 
Q 1234 2150 1697 2047 
L 1894 2003 
Q 2506 1872 2764 1633 
Q 3022 1394 3022 966 
Q 3022 478 2636 193 
Q 2250 -91 1575 -91 
Q 1294 -91 989 -36 
Q 684 19 347 128 
L 347 722 
Q 666 556 975 473 
Q 1284 391 1588 391 
Q 1994 391 2212 530 
Q 2431 669 2431 922 
Q 2431 1156 2273 1281 
Q 2116 1406 1581 1522 
L 1381 1569 
Q 847 1681 609 1914 
Q 372 2147 372 2553 
Q 372 3047 722 3315 
Q 1072 3584 1716 3584 
Q 2034 3584 2315 3537 
Q 2597 3491 2834 3397 
z
" transform="scale(0.015625)"/>
       <path id="DejaVuSans-20" transform="scale(0.015625)"/>
       <path id="DejaVuSans-2f" d="M 1625 4666 
L 2156 4666 
L 531 -594 
L 0 -594 
L 1625 4666 
z
" transform="scale(0.015625)"/>
       <path id="DejaVuSans-6c" d="M 603 4863 
L 1178 4863 
L 1178 0 
L 603 0 
L 603 4863 
z
" transform="scale(0.015625)"/>
       <path id="DejaVuSans-69" d="M 603 3500 
L 1178 3500 
L 1178 0 
L 603 0 
L 603 3500 
z
M 603 4863 
L 1178 4863 
L 1178 4134 
L 603 4134 
L 603 4863 
z
" transform="scale(0.015625)"/>
       <path id="DejaVuSans-6d" d="M 3328 2828 
Q 3544 3216 3844 3400 
Q 4144 3584 4550 3584 
Q 5097 3584 5394 3201 
Q 5691 2819 5691 2113 
L 5691 0 
L 5113 0 
L 5113 2094 
Q 5113 2597 4934 2840 
Q 4756 3084 4391 3084 
Q 3944 3084 3684 2787 
Q 3425 2491 3425 1978 
L 3425 0 
L 2847 0 
L 2847 2094 
Q 2847 2600 2669 2842 
Q 2491 3084 2119 3084 
Q 1678 3084 1418 2786 
Q 1159 2488 1159 1978 
L 1159 0 
L 581 0 
L 581 3500 
L 1159 3500 
L 1159 2956 
Q 1356 3278 1631 3431 
Q 1906 3584 2284 3584 
Q 2666 3584 2933 3390 
Q 3200 3197 3328 2828 
z
" transform="scale(0.015625)"/>
       <path id="DejaVuSans-62" d="M 3116 1747 
Q 3116 2381 2855 2742 
Q 2594 3103 2138 3103 
Q 1681 3103 1420 2742 
Q 1159 2381 1159 1747 
Q 1159 1113 1420 752 
Q 1681 391 2138 391 
Q 2594 391 2855 752 
Q 3116 1113 3116 1747 
z
M 1159 2969 
Q 1341 3281 1617 3432 
Q 1894 3584 2278 3584 
Q 2916 3584 3314 3078 
Q 3713 2572 3713 1747 
Q 3713 922 3314 415 
Q 2916 -91 2278 -91 
Q 1894 -91 1617 61 
Q 1341 213 1159 525 
L 1159 0 
L 581 0 
L 581 4863 
L 1159 4863 
L 1159 2969 
z
" transform="scale(0.015625)"/>
      </defs>
      <use xlink:href="#DejaVuSans-6e"/>
      <use xlink:href="#DejaVuSans-73" transform="translate(63.378906 0)"/>
      <use xlink:href="#DejaVuSans-20" transform="translate(115.478516 0)"/>
      <use xlink:href="#DejaVuSans-2f" transform="translate(147.265625 0)"/>
      <use xlink:href="#DejaVuSans-20" transform="translate(180.957031 0)"/>
      <use xlink:href="#DejaVuSans-6c" transform="translate(212.744141 0)"/>
      <use xlink:href="#DejaVuSans-69" transform="translate(240.527344 0)"/>
      <use xlink:href="#DejaVuSans-6d" transform="translate(268.310547 0)"/>
      <use xlink:href="#DejaVuSans-62" transform="translate(365.722656 0)"/>
     </g>
    </g>
   </g>
   <g id="line2d_33">
    <path d="M 90.518182 111.354853 
L 91.939637 172.449155 
L 93.361092 186.004668 
L 94.782548 186.298065 
L 96.204003 186.245256 
L 97.625458 181.162503 
L 99.046913 178.224707 
L 100.468369 173.088646 
L 101.889824 172.01206 
L 103.311279 167.160495 
L 104.732734 170.363239 
L 106.15419 168.873951 
L 107.575645 170.459943 
L 108.9971 160.169411 
L 110.418555 168.081968 
L 111.840011 170.694442 
L 113.261466 170.432651 
L 114.682921 168.141396 
L 116.104376 170.969202 
L 117.525832 169.151967 
L 118.947287 169.354377 
L 120.368742 169.420576 
L 121.790197 169.647268 
L 124.633108 167.406711 
L 126.054563 169.915012 
L 128.897474 167.600604 
L 130.318929 168.536885 
L 131.740384 167.234286 
L 133.16184 168.898329 
L 136.00475 168.104744 
L 137.426205 169.355422 
L 138.847661 169.658834 
L 140.269116 168.553419 
L 141.690571 168.411314 
L 143.112026 167.272297 
L 144.533482 165.906993 
L 145.954937 166.641077 
L 147.376392 167.759296 
L 148.797847 167.59739 
L 150.219303 168.605286 
L 151.640758 168.941244 
L 153.062213 168.066084 
L 154.483668 168.427389 
L 155.905124 167.010218 
L 157.326579 167.911853 
L 158.748034 167.990943 
L 160.169489 167.265806 
L 161.590945 167.004794 
L 163.0124 162.895228 
L 164.433855 166.699551 
L 165.85531 165.971055 
L 167.276766 165.563592 
L 168.698221 166.572346 
L 170.119676 165.877536 
L 171.541131 165.610731 
L 172.962587 165.224849 
L 174.384042 160.906898 
L 175.805497 164.448609 
L 177.226952 164.000536 
L 178.648408 163.823724 
L 180.069863 151.436472 
L 181.491318 161.228881 
L 182.912774 159.845672 
L 184.334229 159.535715 
L 185.755684 160.776992 
L 187.177139 158.857816 
L 188.598595 160.98862 
L 190.02005 162.633918 
L 191.441505 158.688202 
L 192.86296 161.384413 
L 194.284416 161.066849 
L 195.705871 158.96485 
L 197.127326 161.445553 
L 198.548781 160.950328 
L 199.970237 159.341762 
L 201.391692 159.931039 
L 202.813147 162.048998 
L 204.234602 160.669581 
L 205.656058 162.125504 
L 207.077513 159.990276 
L 208.498968 160.943291 
L 209.920423 162.307827 
L 211.341879 160.761641 
L 212.763334 159.591871 
L 214.184789 162.290598 
L 217.0277 160.90585 
L 218.449155 160.506724 
L 219.87061 161.766708 
L 221.292065 161.549728 
L 222.713521 162.113147 
L 224.134976 161.154877 
L 225.556431 160.8254 
L 226.977886 161.438223 
L 228.399342 160.351243 
L 229.820797 160.825245 
L 231.242252 162.235906 
L 232.663708 161.878533 
L 234.085163 161.644756 
L 235.506618 162.345737 
L 236.928073 160.867872 
L 239.770984 162.345828 
L 241.192439 160.822712 
L 242.613894 161.71391 
L 244.03535 161.406093 
L 245.456805 162.040478 
L 246.87826 161.866485 
L 248.299715 162.267804 
L 249.721171 161.182508 
L 252.564081 162.312508 
L 253.985536 162.64321 
L 255.406992 162.149472 
L 256.828447 162.40871 
L 258.249902 162.142531 
L 259.671357 162.076548 
L 261.092813 161.38986 
L 262.514268 160.317567 
L 263.935723 161.279755 
L 265.357178 160.905043 
L 266.778634 160.860546 
L 268.200089 161.903269 
L 269.621544 161.007638 
L 271.042999 160.876701 
L 272.464455 161.452036 
L 273.88591 160.789073 
L 275.307365 161.327095 
L 276.72882 161.616901 
L 278.150276 161.001326 
L 279.571731 160.145076 
L 280.993186 160.913348 
L 282.414642 160.327805 
L 283.836097 160.517402 
L 285.257552 160.07174 
L 288.100463 159.573545 
L 289.521918 159.750852 
L 292.364828 160.637021 
L 295.207739 160.781912 
L 296.629194 160.093012 
L 298.050649 160.333762 
L 299.472105 160.202663 
L 300.89356 160.347265 
L 302.315015 160.753112 
L 303.73647 160.238155 
L 305.157926 160.644449 
L 306.579381 160.486311 
L 309.422291 160.846236 
L 310.843747 160.691338 
L 312.265202 160.911193 
L 313.686657 159.797919 
L 315.108112 160.960721 
L 316.529568 160.925554 
L 317.951023 160.671788 
L 319.372478 160.920266 
L 320.793933 160.863705 
L 322.215389 161.078425 
L 325.058299 161.323073 
L 326.479754 160.338641 
L 327.90121 160.814181 
L 330.74412 160.666293 
L 332.165576 161.17925 
L 333.587031 160.795471 
L 335.008486 161.160244 
L 336.429941 161.089401 
L 337.851397 161.645509 
L 339.272852 161.540275 
L 340.694307 161.2827 
L 343.537218 161.614175 
L 344.958673 161.379643 
L 347.801583 161.64264 
L 349.223039 161.450175 
L 352.065949 161.610512 
L 353.487404 161.328315 
L 354.90886 161.861653 
L 357.75177 161.306455 
L 359.173225 161.729253 
L 360.594681 161.929711 
L 362.016136 161.847512 
L 363.437591 161.940575 
L 364.859046 161.303587 
L 366.280502 160.962436 
L 367.701957 161.834069 
L 369.123412 161.839194 
L 370.544867 162.117542 
L 371.966323 162.175455 
L 373.387778 161.638157 
L 374.809233 161.930855 
L 376.230688 160.953211 
L 377.652144 161.427843 
L 379.073599 160.909067 
L 380.495054 161.643367 
L 381.91651 161.006085 
L 383.337965 161.610223 
L 384.75942 161.377212 
L 386.180875 161.677674 
L 387.602331 161.847755 
L 389.023786 161.657086 
L 390.445241 161.64152 
L 391.866696 161.297507 
L 393.288152 162.129118 
L 394.709607 161.951834 
L 396.131062 161.998143 
L 397.552517 162.329556 
L 400.395428 161.643618 
L 401.816883 162.117117 
L 403.238338 161.610477 
L 404.659794 161.650072 
L 406.081249 161.206167 
L 407.502704 161.396257 
L 410.345615 160.729164 
L 411.76707 161.062381 
L 413.188525 161.691688 
L 414.60998 161.4913 
L 416.031436 161.481608 
L 417.452891 160.289559 
L 418.874346 161.491105 
L 420.295801 161.960342 
L 421.717257 161.975483 
L 423.138712 161.585398 
L 424.560167 161.669797 
L 425.981622 160.958929 
L 427.403078 166.790838 
L 428.824533 168.029038 
L 430.245988 168.950933 
L 431.667444 168.778956 
L 433.088899 168.967709 
L 434.510354 168.666231 
L 435.931809 168.753888 
L 437.353265 161.175313 
L 438.77472 164.146987 
L 440.196175 156.781458 
L 441.61763 168.909401 
L 444.460541 168.698518 
L 445.881996 159.666774 
L 447.303451 163.643981 
L 448.724907 161.555429 
L 450.146362 160.297784 
L 451.567817 170.185179 
L 452.989272 168.474153 
L 454.410728 167.882459 
L 455.832183 158.512464 
L 457.253638 160.471598 
L 458.675093 167.591693 
L 460.096549 167.351323 
L 461.518004 166.429964 
L 462.939459 159.923368 
L 464.360914 159.012828 
L 465.78237 159.40891 
L 467.203825 157.30254 
L 468.62528 156.491665 
L 470.046735 161.438957 
L 471.468191 167.146822 
L 472.889646 166.985157 
L 474.311101 159.724501 
L 475.732556 156.847762 
L 477.154012 165.593171 
L 478.575467 163.361776 
L 479.996922 166.846811 
L 481.418378 161.369215 
L 482.839833 159.456316 
L 484.261288 159.545655 
L 485.682743 160.350798 
L 487.104199 159.523908 
L 488.525654 159.484809 
L 489.947109 165.464542 
L 491.368564 166.72103 
L 492.79002 166.09446 
L 494.211475 156.059675 
L 495.63293 163.968763 
L 497.054385 166.770191 
L 498.475841 161.439346 
L 499.897296 160.737053 
L 501.318751 159.853859 
L 502.740206 166.392659 
L 504.161662 158.354089 
L 505.583117 156.837828 
L 507.004572 168.509627 
L 508.426027 166.890947 
L 509.847483 166.777729 
L 512.690393 165.733432 
L 514.111848 166.596088 
L 516.954759 161.139441 
L 518.376214 160.000161 
L 519.797669 159.044737 
L 521.219125 159.050495 
L 522.64058 158.520607 
L 524.062035 160.440782 
L 525.48349 161.330305 
L 526.904946 159.814395 
L 528.326401 158.924302 
L 529.747856 162.948082 
L 531.169312 161.138684 
L 532.590767 159.801507 
L 534.012222 159.881189 
L 535.433677 159.480299 
L 536.855133 158.618431 
L 538.276588 160.172757 
L 539.698043 160.63123 
L 541.119498 159.709455 
L 542.540954 160.813238 
L 543.962409 160.331043 
L 545.383864 160.091716 
L 546.805319 159.40879 
L 548.226775 160.36883 
L 549.64823 159.680095 
L 551.069685 159.965993 
L 552.49114 159.641897 
L 553.912596 159.968526 
L 555.334051 159.920891 
L 559.598417 160.240868 
L 561.019872 159.363023 
L 562.441327 158.73759 
L 563.862782 159.625222 
L 565.284238 161.004072 
L 566.705693 159.374385 
L 568.127148 159.278514 
L 569.548603 159.53849 
L 570.970059 160.232766 
L 572.391514 161.318004 
L 573.812969 160.208597 
L 575.234424 160.504397 
L 576.65588 160.556362 
L 578.077335 160.139022 
L 580.920246 160.862861 
L 582.341701 160.894688 
L 585.184611 160.134218 
L 586.606067 161.375041 
L 588.027522 160.658878 
L 589.448977 159.205547 
L 590.870432 160.13253 
L 593.713343 160.399946 
L 595.134798 160.306586 
L 596.556253 160.0535 
L 597.977709 160.145747 
L 599.399164 160.659079 
L 600.820619 160.293733 
L 602.242074 160.888617 
L 603.66353 160.544503 
L 606.50644 160.545259 
L 607.927895 160.338673 
L 609.349351 159.635119 
L 610.770806 159.705352 
L 612.192261 159.380367 
L 613.613716 158.487714 
L 615.035172 159.359117 
L 616.456627 160.080775 
L 617.878082 158.176008 
L 619.299537 158.41002 
L 622.142448 159.597629 
L 623.563903 159.617342 
L 624.985358 159.449889 
L 626.406814 159.642594 
L 627.828269 160.169907 
L 629.249724 160.428186 
L 630.67118 160.53331 
L 632.092635 160.347457 
L 633.51409 160.880113 
L 634.935545 160.658671 
L 636.357001 160.165127 
L 637.778456 160.726282 
L 639.199911 161.043669 
L 640.621366 160.614222 
L 642.042822 160.664405 
L 643.464277 160.917059 
L 644.885732 160.826063 
L 646.307187 160.911598 
L 647.728643 161.230972 
L 649.150098 160.410565 
L 650.571553 160.577401 
L 651.993008 160.574964 
L 653.414464 160.685045 
L 654.835919 161.071836 
L 656.257374 160.973645 
L 657.678829 160.198243 
L 659.100285 159.566926 
L 660.52174 160.20121 
L 661.943195 160.565944 
L 663.36465 160.407319 
L 664.786106 160.742223 
L 666.207561 160.480793 
L 667.629016 166.611576 
L 669.050471 168.659541 
L 670.471927 168.032426 
L 671.893382 168.185397 
L 674.736292 168.008134 
L 676.157748 168.59255 
L 677.579203 168.028301 
L 679.000658 168.673639 
L 680.422114 168.239248 
L 681.843569 168.037287 
L 683.265024 168.115531 
L 684.686479 168.334722 
L 686.107935 167.741955 
L 687.52939 167.596856 
L 688.950845 167.994664 
L 690.3723 168.087915 
L 691.793756 167.346796 
L 693.215211 169.834889 
L 694.636666 167.762128 
L 696.058121 167.681655 
L 697.479577 167.946193 
L 698.901032 164.056244 
L 700.322487 163.639118 
L 701.743942 166.813257 
L 703.165398 167.654662 
L 704.586853 165.555562 
L 706.008308 162.075503 
L 707.429763 161.745177 
L 708.851219 161.570397 
L 710.272674 161.241085 
L 711.694129 161.391554 
L 713.115584 158.857364 
L 714.53704 157.912571 
L 715.958495 156.61658 
L 717.37995 157.88584 
L 718.801405 159.736054 
L 720.222861 164.41045 
L 721.644316 165.021215 
L 723.065771 164.535383 
L 724.487226 163.21153 
L 725.908682 159.676519 
L 727.330137 161.465695 
L 728.751592 161.93831 
L 730.173048 161.354139 
L 731.594503 161.801606 
L 733.015958 161.28242 
L 734.437413 161.117883 
L 735.858869 161.429156 
L 737.280324 166.733429 
L 738.701779 165.202415 
L 741.54469 163.926069 
L 742.966145 163.675808 
L 744.3876 164.116353 
L 745.809055 164.118537 
L 747.230511 165.161383 
L 748.651966 165.655248 
L 750.073421 165.685056 
L 751.494876 166.301607 
L 752.916332 165.856139 
L 754.337787 165.880886 
L 755.759242 165.544019 
L 757.180697 165.637253 
L 758.602153 165.953558 
L 760.023608 165.656562 
L 761.445063 166.142873 
L 762.866518 165.313134 
L 765.709429 165.47334 
L 768.552339 165.05393 
L 769.973795 165.357928 
L 771.39525 164.468079 
L 772.816705 165.692044 
L 774.23816 163.119509 
L 775.659616 165.544834 
L 777.081071 164.988257 
L 778.502526 163.841609 
L 779.923981 164.889844 
L 781.345437 164.229775 
L 782.766892 161.59185 
L 784.188347 160.158396 
L 785.609803 159.743185 
L 787.031258 159.713453 
L 788.452713 160.38589 
L 789.874168 160.655012 
L 791.295624 160.537093 
L 792.717079 159.317017 
L 794.138534 159.544189 
L 795.559989 159.4091 
L 796.981445 165.679099 
L 798.4029 168.994576 
L 799.824355 168.950075 
L 801.24581 168.141328 
L 802.667266 167.573887 
L 804.088721 168.208185 
L 805.510176 168.07649 
L 806.931631 168.694771 
L 808.353087 168.790963 
L 809.774542 168.402255 
L 811.195997 167.583901 
L 814.038908 168.13616 
L 815.460363 168.141021 
L 816.881818 166.558396 
L 816.881818 166.558396 
" clip-path="url(#p1c3f05a185)" style="fill: none; stroke: #1f77b4; stroke-width: 1.5; stroke-linecap: square"/>
   </g>
   <g id="line2d_34">
    <path d="M 90.518182 24.003182 
L 91.939637 182.014941 
L 93.361092 212.442442 
L 94.782548 223.061977 
L 96.204003 227.635728 
L 97.625458 236.340565 
L 99.046913 239.279084 
L 100.468369 238.873389 
L 101.889824 237.713913 
L 103.311279 241.269566 
L 104.732734 240.219805 
L 106.15419 243.129196 
L 107.575645 244.00269 
L 108.9971 246.449958 
L 110.418555 245.395229 
L 111.840011 247.849556 
L 113.261466 248.017879 
L 114.682921 248.569016 
L 116.104376 248.171501 
L 117.525832 249.100898 
L 118.947287 249.03784 
L 120.368742 250.332065 
L 121.790197 250.817299 
L 123.211653 251.089317 
L 124.633108 250.385968 
L 126.054563 250.995852 
L 127.476019 249.660783 
L 128.897474 250.261156 
L 130.318929 250.539124 
L 131.740384 251.151857 
L 133.16184 251.300902 
L 134.583295 252.015872 
L 136.00475 251.978269 
L 137.426205 252.132101 
L 138.847661 251.712266 
L 140.269116 252.363676 
L 141.690571 251.582618 
L 143.112026 252.008019 
L 144.533482 250.393994 
L 145.954937 251.74309 
L 147.376392 252.179783 
L 148.797847 252.038905 
L 150.219303 252.789243 
L 151.640758 252.585573 
L 153.062213 252.729826 
L 154.483668 252.607719 
L 155.905124 251.405865 
L 157.326579 252.469546 
L 158.748034 252.09762 
L 160.169489 252.543514 
L 161.590945 251.882734 
L 163.0124 251.897234 
L 164.433855 252.207751 
L 165.85531 251.692048 
L 167.276766 251.346072 
L 168.698221 252.106213 
L 171.541131 252.339541 
L 172.962587 252.935113 
L 174.384042 253.351045 
L 175.805497 252.5059 
L 177.226952 253.118545 
L 178.648408 253.020542 
L 180.069863 253.359815 
L 181.491318 253.365412 
L 182.912774 252.791258 
L 185.755684 252.655647 
L 187.177139 252.555165 
L 188.598595 252.608121 
L 190.02005 252.856354 
L 191.441505 252.836725 
L 192.86296 252.627259 
L 194.284416 252.904701 
L 195.705871 252.629614 
L 197.127326 253.24422 
L 198.548781 252.75436 
L 199.970237 252.749192 
L 201.391692 252.905799 
L 202.813147 253.195682 
L 204.234602 253.030921 
L 205.656058 253.427326 
L 207.077513 253.015881 
L 208.498968 253.565657 
L 209.920423 253.319713 
L 212.763334 252.038006 
L 214.184789 252.829846 
L 215.606244 252.477473 
L 219.87061 252.934114 
L 221.292065 252.583827 
L 222.713521 253.049821 
L 224.134976 252.802737 
L 225.556431 253.015565 
L 226.977886 252.526042 
L 228.399342 252.852853 
L 231.242252 252.846516 
L 232.663708 253.170339 
L 234.085163 252.876228 
L 235.506618 253.137838 
L 236.928073 253.02406 
L 238.349529 253.286174 
L 239.770984 253.287478 
L 241.192439 252.768178 
L 242.613894 253.111262 
L 244.03535 253.105981 
L 245.456805 253.443625 
L 246.87826 253.578549 
L 248.299715 253.255197 
L 249.721171 253.308247 
L 251.142626 253.147318 
L 252.564081 253.164271 
L 253.985536 253.321946 
L 255.406992 253.239068 
L 256.828447 252.637651 
L 261.092813 253.026327 
L 262.514268 253.787751 
L 263.935723 252.743196 
L 265.357178 253.685384 
L 266.778634 253.699788 
L 268.200089 253.343757 
L 269.621544 253.770256 
L 271.042999 253.417366 
L 272.464455 253.210801 
L 275.307365 253.615975 
L 278.150276 253.683565 
L 279.571731 252.869943 
L 280.993186 253.437866 
L 282.414642 253.505669 
L 283.836097 253.398864 
L 285.257552 253.758479 
L 286.679007 252.935704 
L 288.100463 252.903626 
L 289.521918 253.259885 
L 290.943373 253.202428 
L 292.364828 253.987362 
L 293.786284 254.081732 
L 295.207739 253.708041 
L 298.050649 252.714593 
L 299.472105 253.403628 
L 300.89356 253.430881 
L 302.315015 253.700322 
L 303.73647 253.275045 
L 305.157926 252.353275 
L 306.579381 253.473091 
L 308.000836 253.771851 
L 309.422291 253.250129 
L 310.843747 253.647052 
L 312.265202 253.337987 
L 313.686657 253.713663 
L 315.108112 254.213025 
L 316.529568 253.431509 
L 320.793933 253.607389 
L 322.215389 253.86355 
L 323.636844 254.002722 
L 325.058299 253.316549 
L 326.479754 253.153999 
L 327.90121 253.467864 
L 329.322665 253.078209 
L 330.74412 253.302538 
L 332.165576 253.857056 
L 333.587031 254.024679 
L 335.008486 254.018673 
L 336.429941 253.877503 
L 337.851397 254.231059 
L 342.115762 254.012559 
L 343.537218 254.146079 
L 344.958673 253.91831 
L 346.380128 253.937392 
L 347.801583 254.271357 
L 349.223039 254.155581 
L 350.644494 253.759335 
L 352.065949 254.246005 
L 353.487404 254.266407 
L 354.90886 253.812895 
L 356.330315 254.160315 
L 357.75177 254.157753 
L 359.173225 254.656104 
L 360.594681 254.562367 
L 362.016136 254.353295 
L 363.437591 254.27972 
L 364.859046 254.697061 
L 366.280502 253.958938 
L 367.701957 253.454637 
L 369.123412 253.930799 
L 370.544867 254.158191 
L 371.966323 254.568105 
L 373.387778 253.996869 
L 374.809233 252.567377 
L 376.230688 253.70137 
L 377.652144 252.767192 
L 379.073599 253.18075 
L 380.495054 252.128057 
L 381.91651 253.303416 
L 383.337965 253.002598 
L 384.75942 253.560691 
L 386.180875 253.016875 
L 387.602331 252.766938 
L 389.023786 253.297095 
L 390.445241 252.412312 
L 391.866696 253.600831 
L 393.288152 254.184709 
L 394.709607 254.616358 
L 396.131062 254.282462 
L 400.395428 254.392189 
L 401.816883 253.024316 
L 403.238338 252.607631 
L 404.659794 252.777508 
L 406.081249 253.606253 
L 407.502704 253.220869 
L 408.924159 252.588829 
L 410.345615 253.716115 
L 411.76707 253.800634 
L 414.60998 253.695154 
L 416.031436 252.417977 
L 417.452891 252.890349 
L 418.874346 252.762101 
L 420.295801 254.209139 
L 421.717257 254.239753 
L 423.138712 254.125616 
L 424.560167 253.842827 
L 425.981622 257.604261 
L 427.403078 263.154465 
L 428.824533 263.313334 
L 430.245988 262.900226 
L 431.667444 263.303566 
L 434.510354 262.866711 
L 435.931809 262.941948 
L 437.353265 254.037129 
L 438.77472 255.089541 
L 440.196175 257.811963 
L 441.61763 259.170628 
L 443.039086 258.724538 
L 444.460541 258.973981 
L 445.881996 256.369326 
L 447.303451 259.075014 
L 448.724907 258.012936 
L 450.146362 250.331225 
L 451.567817 254.864998 
L 452.989272 255.03148 
L 454.410728 269.947836 
L 455.832183 253.154722 
L 457.253638 255.876905 
L 458.675093 254.374308 
L 460.096549 254.289275 
L 461.518004 251.530703 
L 462.939459 252.957878 
L 464.360914 256.478806 
L 465.78237 260.670418 
L 467.203825 252.192557 
L 468.62528 260.541222 
L 470.046735 253.961384 
L 472.889646 254.103505 
L 474.311101 253.832985 
L 475.732556 251.298104 
L 477.154012 255.062429 
L 478.575467 251.416187 
L 479.996922 258.809396 
L 481.418378 257.3986 
L 482.839833 257.793186 
L 484.261288 256.881271 
L 485.682743 256.589378 
L 487.104199 256.96692 
L 488.525654 248.977585 
L 489.947109 259.147054 
L 491.368564 258.771224 
L 492.79002 254.863445 
L 494.211475 254.27532 
L 495.63293 288.066818 
L 497.054385 258.653325 
L 498.475841 257.567492 
L 499.897296 257.548806 
L 501.318751 251.73666 
L 502.740206 254.29404 
L 504.161662 246.98395 
L 505.583117 255.893777 
L 507.004572 262.957436 
L 508.426027 261.890563 
L 509.847483 262.028485 
L 511.268938 262.311513 
L 512.690393 261.127138 
L 514.111848 262.336135 
L 515.533304 258.381871 
L 516.954759 258.418558 
L 518.376214 257.105075 
L 519.797669 257.205436 
L 521.219125 256.550603 
L 522.64058 256.715976 
L 524.062035 257.690606 
L 525.48349 257.452366 
L 526.904946 256.989855 
L 528.326401 259.173968 
L 529.747856 258.325857 
L 531.169312 258.529123 
L 532.590767 256.794854 
L 534.012222 257.466918 
L 535.433677 256.125807 
L 536.855133 256.982441 
L 538.276588 257.028335 
L 542.540954 257.859758 
L 543.962409 257.47233 
L 546.805319 257.195811 
L 548.226775 256.4551 
L 549.64823 256.810297 
L 551.069685 257.385907 
L 552.49114 256.445824 
L 553.912596 257.432305 
L 555.334051 257.115078 
L 556.755506 257.617055 
L 558.176961 257.304477 
L 559.598417 257.812742 
L 561.019872 256.496966 
L 562.441327 256.968094 
L 563.862782 256.998237 
L 565.284238 257.982316 
L 566.705693 256.213624 
L 568.127148 256.83899 
L 569.548603 257.126248 
L 570.970059 257.559718 
L 572.391514 256.86506 
L 573.812969 257.156044 
L 575.234424 256.924725 
L 576.65588 257.522035 
L 578.077335 257.280438 
L 579.49879 257.638403 
L 580.920246 257.566931 
L 582.341701 258.444663 
L 583.763156 257.705612 
L 585.184611 258.027317 
L 586.606067 257.47221 
L 588.027522 257.812719 
L 589.448977 257.188238 
L 590.870432 257.769229 
L 592.291888 257.708213 
L 593.713343 257.918835 
L 595.134798 257.794306 
L 596.556253 258.213947 
L 597.977709 257.460014 
L 599.399164 258.379782 
L 600.820619 257.696646 
L 602.242074 258.285305 
L 603.66353 257.886916 
L 605.084985 258.108337 
L 606.50644 257.69621 
L 607.927895 257.497095 
L 609.349351 256.756417 
L 610.770806 257.304914 
L 612.192261 256.470076 
L 613.613716 257.316693 
L 615.035172 257.008429 
L 620.720993 257.024191 
L 622.142448 255.92824 
L 623.563903 257.005998 
L 624.985358 257.67395 
L 626.406814 257.41157 
L 627.828269 257.513555 
L 629.249724 257.392176 
L 630.67118 257.750713 
L 632.092635 257.152998 
L 633.51409 258.399631 
L 634.935545 257.884843 
L 636.357001 258.309336 
L 637.778456 257.101096 
L 639.199911 257.781703 
L 640.621366 258.01432 
L 642.042822 257.964149 
L 643.464277 257.677944 
L 644.885732 258.043035 
L 646.307187 257.762129 
L 647.728643 258.560822 
L 649.150098 258.012654 
L 650.571553 258.165035 
L 651.993008 257.924596 
L 653.414464 258.180296 
L 654.835919 257.705707 
L 656.257374 257.697669 
L 657.678829 257.410965 
L 659.100285 257.623933 
L 661.943195 257.760258 
L 663.36465 257.519089 
L 664.786106 257.886372 
L 666.207561 257.60567 
L 667.629016 255.675626 
L 669.050471 255.061064 
L 670.471927 255.194417 
L 671.893382 254.886412 
L 673.314837 255.215283 
L 674.736292 254.867532 
L 676.157748 254.845923 
L 677.579203 254.693584 
L 679.000658 255.176804 
L 680.422114 254.859776 
L 681.843569 253.877529 
L 683.265024 254.73518 
L 684.686479 254.96778 
L 686.107935 254.640195 
L 687.52939 254.795356 
L 688.950845 254.243391 
L 690.3723 255.221538 
L 693.215211 253.955116 
L 696.058121 254.728951 
L 697.479577 252.513351 
L 698.901032 250.679018 
L 700.322487 253.676678 
L 701.743942 254.572747 
L 703.165398 253.772525 
L 704.586853 252.12824 
L 706.008308 249.924091 
L 707.429763 250.77849 
L 708.851219 250.035001 
L 710.272674 250.342178 
L 713.115584 248.050754 
L 714.53704 246.538588 
L 715.958495 246.756692 
L 717.37995 248.251421 
L 720.222861 252.246391 
L 721.644316 252.532122 
L 723.065771 252.247712 
L 724.487226 252.818986 
L 725.908682 252.541139 
L 727.330137 255.247275 
L 728.751592 254.431932 
L 730.173048 255.417094 
L 731.594503 254.318972 
L 733.015958 254.904433 
L 734.437413 254.536855 
L 735.858869 255.431429 
L 737.280324 260.281281 
L 738.701779 260.672304 
L 740.123234 259.91305 
L 741.54469 259.991303 
L 742.966145 259.509372 
L 745.809055 260.240817 
L 747.230511 261.341085 
L 748.651966 261.133863 
L 750.073421 261.136758 
L 751.494876 260.612129 
L 752.916332 261.32599 
L 754.337787 261.004427 
L 755.759242 261.355683 
L 757.180697 261.118913 
L 758.602153 261.487053 
L 760.023608 261.01904 
L 761.445063 261.407214 
L 762.866518 260.876661 
L 764.287974 261.346021 
L 765.709429 261.243165 
L 767.130884 261.572226 
L 768.552339 260.441215 
L 769.973795 261.16983 
L 771.39525 260.739748 
L 772.816705 261.629125 
L 775.659616 261.250021 
L 777.081071 259.296843 
L 778.502526 260.454034 
L 779.923981 260.903051 
L 781.345437 284.451498 
L 782.766892 257.282537 
L 784.188347 257.160844 
L 785.609803 256.27186 
L 787.031258 257.223785 
L 788.452713 257.464231 
L 789.874168 257.891892 
L 791.295624 256.814179 
L 792.717079 256.982725 
L 794.138534 256.71193 
L 795.559989 256.728759 
L 796.981445 262.577833 
L 798.4029 263.357318 
L 801.24581 263.182887 
L 802.667266 262.731851 
L 804.088721 262.791173 
L 805.510176 256.86211 
L 806.931631 263.226802 
L 808.353087 263.043108 
L 809.774542 259.108921 
L 811.195997 258.472779 
L 812.617452 258.723558 
L 814.038908 258.723991 
L 815.460363 259.121358 
L 816.881818 258.567588 
L 816.881818 258.567588 
" clip-path="url(#p1c3f05a185)" style="fill: none; stroke: #ff7f0e; stroke-width: 1.5; stroke-linecap: square"/>
   </g>
   <g id="patch_3">
    <path d="M 54.2 301.27 
L 54.2 10.8 
" style="fill: none; stroke: #000000; stroke-width: 0.8; stroke-linejoin: miter; stroke-linecap: square"/>
   </g>
   <g id="patch_4">
    <path d="M 853.2 301.27 
L 853.2 10.8 
" style="fill: none; stroke: #000000; stroke-width: 0.8; stroke-linejoin: miter; stroke-linecap: square"/>
   </g>
   <g id="patch_5">
    <path d="M 54.2 301.27 
L 853.2 301.27 
" style="fill: none; stroke: #000000; stroke-width: 0.8; stroke-linejoin: miter; stroke-linecap: square"/>
   </g>
   <g id="patch_6">
    <path d="M 54.2 10.8 
L 853.2 10.8 
" style="fill: none; stroke: #000000; stroke-width: 0.8; stroke-linejoin: miter; stroke-linecap: square"/>
   </g>
   <g id="legend_1">
    <g id="patch_7">
     <path d="M 784.346875 48.15625 
L 846.2 48.15625 
Q 848.2 48.15625 848.2 46.15625 
L 848.2 17.8 
Q 848.2 15.8 846.2 15.8 
L 784.346875 15.8 
Q 782.346875 15.8 782.346875 17.8 
L 782.346875 46.15625 
Q 782.346875 48.15625 784.346875 48.15625 
z
" style="fill: #ffffff; opacity: 0.8; stroke: #cccccc; stroke-linejoin: miter"/>
    </g>
    <g id="line2d_35">
     <path d="M 786.346875 23.898438 
L 796.346875 23.898438 
L 806.346875 23.898438 
" style="fill: none; stroke: #1f77b4; stroke-width: 1.5; stroke-linecap: square"/>
    </g>
    <g id="text_9">
     <!-- scalar -->
     <g transform="translate(814.346875 27.398438) scale(0.1 -0.1)">
      <defs>
       <path id="DejaVuSans-63" d="M 3122 3366 
L 3122 2828 
Q 2878 2963 2633 3030 
Q 2388 3097 2138 3097 
Q 1578 3097 1268 2742 
Q 959 2388 959 1747 
Q 959 1106 1268 751 
Q 1578 397 2138 397 
Q 2388 397 2633 464 
Q 2878 531 3122 666 
L 3122 134 
Q 2881 22 2623 -34 
Q 2366 -91 2075 -91 
Q 1284 -91 818 406 
Q 353 903 353 1747 
Q 353 2603 823 3093 
Q 1294 3584 2113 3584 
Q 2378 3584 2631 3529 
Q 2884 3475 3122 3366 
z
" transform="scale(0.015625)"/>
       <path id="DejaVuSans-61" d="M 2194 1759 
Q 1497 1759 1228 1600 
Q 959 1441 959 1056 
Q 959 750 1161 570 
Q 1363 391 1709 391 
Q 2188 391 2477 730 
Q 2766 1069 2766 1631 
L 2766 1759 
L 2194 1759 
z
M 3341 1997 
L 3341 0 
L 2766 0 
L 2766 531 
Q 2569 213 2275 61 
Q 1981 -91 1556 -91 
Q 1019 -91 701 211 
Q 384 513 384 1019 
Q 384 1609 779 1909 
Q 1175 2209 1959 2209 
L 2766 2209 
L 2766 2266 
Q 2766 2663 2505 2880 
Q 2244 3097 1772 3097 
Q 1472 3097 1187 3025 
Q 903 2953 641 2809 
L 641 3341 
Q 956 3463 1253 3523 
Q 1550 3584 1831 3584 
Q 2591 3584 2966 3190 
Q 3341 2797 3341 1997 
z
" transform="scale(0.015625)"/>
       <path id="DejaVuSans-72" d="M 2631 2963 
Q 2534 3019 2420 3045 
Q 2306 3072 2169 3072 
Q 1681 3072 1420 2755 
Q 1159 2438 1159 1844 
L 1159 0 
L 581 0 
L 581 3500 
L 1159 3500 
L 1159 2956 
Q 1341 3275 1631 3429 
Q 1922 3584 2338 3584 
Q 2397 3584 2469 3576 
Q 2541 3569 2628 3553 
L 2631 2963 
z
" transform="scale(0.015625)"/>
      </defs>
      <use xlink:href="#DejaVuSans-73"/>
      <use xlink:href="#DejaVuSans-63" transform="translate(52.099609 0)"/>
      <use xlink:href="#DejaVuSans-61" transform="translate(107.080078 0)"/>
      <use xlink:href="#DejaVuSans-6c" transform="translate(168.359375 0)"/>
      <use xlink:href="#DejaVuSans-61" transform="translate(196.142578 0)"/>
      <use xlink:href="#DejaVuSans-72" transform="translate(257.421875 0)"/>
     </g>
    </g>
    <g id="line2d_36">
     <path d="M 786.346875 38.576563 
L 796.346875 38.576563 
L 806.346875 38.576563 
" style="fill: none; stroke: #ff7f0e; stroke-width: 1.5; stroke-linecap: square"/>
    </g>
    <g id="text_10">
     <!-- SIMD -->
     <g transform="translate(814.346875 42.076563) scale(0.1 -0.1)">
      <defs>
       <path id="DejaVuSans-53" d="M 3425 4513 
L 3425 3897 
Q 3066 4069 2747 4153 
Q 2428 4238 2131 4238 
Q 1616 4238 1336 4038 
Q 1056 3838 1056 3469 
Q 1056 3159 1242 3001 
Q 1428 2844 1947 2747 
L 2328 2669 
Q 3034 2534 3370 2195 
Q 3706 1856 3706 1288 
Q 3706 609 3251 259 
Q 2797 -91 1919 -91 
Q 1588 -91 1214 -16 
Q 841 59 441 206 
L 441 856 
Q 825 641 1194 531 
Q 1563 422 1919 422 
Q 2459 422 2753 634 
Q 3047 847 3047 1241 
Q 3047 1584 2836 1778 
Q 2625 1972 2144 2069 
L 1759 2144 
Q 1053 2284 737 2584 
Q 422 2884 422 3419 
Q 422 4038 858 4394 
Q 1294 4750 2059 4750 
Q 2388 4750 2728 4690 
Q 3069 4631 3425 4513 
z
" transform="scale(0.015625)"/>
       <path id="DejaVuSans-49" d="M 628 4666 
L 1259 4666 
L 1259 0 
L 628 0 
L 628 4666 
z
" transform="scale(0.015625)"/>
       <path id="DejaVuSans-4d" d="M 628 4666 
L 1569 4666 
L 2759 1491 
L 3956 4666 
L 4897 4666 
L 4897 0 
L 4281 0 
L 4281 4097 
L 3078 897 
L 2444 897 
L 1241 4097 
L 1241 0 
L 628 0 
L 628 4666 
z
" transform="scale(0.015625)"/>
       <path id="DejaVuSans-44" d="M 1259 4147 
L 1259 519 
L 2022 519 
Q 2988 519 3436 956 
Q 3884 1394 3884 2338 
Q 3884 3275 3436 3711 
Q 2988 4147 2022 4147 
L 1259 4147 
z
M 628 4666 
L 1925 4666 
Q 3281 4666 3915 4102 
Q 4550 3538 4550 2338 
Q 4550 1131 3912 565 
Q 3275 0 1925 0 
L 628 0 
L 628 4666 
z
" transform="scale(0.015625)"/>
      </defs>
      <use xlink:href="#DejaVuSans-53"/>
      <use xlink:href="#DejaVuSans-49" transform="translate(63.476562 0)"/>
      <use xlink:href="#DejaVuSans-4d" transform="translate(92.96875 0)"/>
      <use xlink:href="#DejaVuSans-44" transform="translate(179.248047 0)"/>
     </g>
    </g>
   </g>
  </g>
  <g id="axes_2">
   <g id="patch_8">
    <path d="M 54.2 606.04 
L 853.2 606.04 
L 853.2 315.57 
L 54.2 315.57 
z
" style="fill: #ffffff"/>
   </g>
   <g id="matplotlib.axis_3">
    <g id="xtick_10">
     <g id="line2d_37">
      <path d="M 89.096727 606.04 
L 89.096727 315.57 
" clip-path="url(#p1984a891ce)" style="fill: none; stroke: #b0b0b0; stroke-opacity: 0.25; stroke-width: 0.8; stroke-linecap: square"/>
     </g>
     <g id="line2d_38">
      <g>
       <use xlink:href="#mb2303b9169" x="89.096727" y="606.04" style="stroke: #000000; stroke-width: 0.8"/>
      </g>
     </g>
     <g id="text_11">
      <!-- 0 -->
      <g transform="translate(85.915477 620.638438) scale(0.1 -0.1)">
       <use xlink:href="#DejaVuSans-30"/>
      </g>
     </g>
    </g>
    <g id="xtick_11">
     <g id="line2d_39">
      <path d="M 177.93768 606.04 
L 177.93768 315.57 
" clip-path="url(#p1984a891ce)" style="fill: none; stroke: #b0b0b0; stroke-opacity: 0.25; stroke-width: 0.8; stroke-linecap: square"/>
     </g>
     <g id="line2d_40">
      <g>
       <use xlink:href="#mb2303b9169" x="177.93768" y="606.04" style="stroke: #000000; stroke-width: 0.8"/>
      </g>
     </g>
     <g id="text_12">
      <!-- 500 -->
      <g transform="translate(168.39393 620.638438) scale(0.1 -0.1)">
       <use xlink:href="#DejaVuSans-35"/>
       <use xlink:href="#DejaVuSans-30" transform="translate(63.623047 0)"/>
       <use xlink:href="#DejaVuSans-30" transform="translate(127.246094 0)"/>
      </g>
     </g>
    </g>
    <g id="xtick_12">
     <g id="line2d_41">
      <path d="M 266.778634 606.04 
L 266.778634 315.57 
" clip-path="url(#p1984a891ce)" style="fill: none; stroke: #b0b0b0; stroke-opacity: 0.25; stroke-width: 0.8; stroke-linecap: square"/>
     </g>
     <g id="line2d_42">
      <g>
       <use xlink:href="#mb2303b9169" x="266.778634" y="606.04" style="stroke: #000000; stroke-width: 0.8"/>
      </g>
     </g>
     <g id="text_13">
      <!-- 1000 -->
      <g transform="translate(254.053634 620.638438) scale(0.1 -0.1)">
       <defs>
        <path id="DejaVuSans-31" d="M 794 531 
L 1825 531 
L 1825 4091 
L 703 3866 
L 703 4441 
L 1819 4666 
L 2450 4666 
L 2450 531 
L 3481 531 
L 3481 0 
L 794 0 
L 794 531 
z
" transform="scale(0.015625)"/>
       </defs>
       <use xlink:href="#DejaVuSans-31"/>
       <use xlink:href="#DejaVuSans-30" transform="translate(63.623047 0)"/>
       <use xlink:href="#DejaVuSans-30" transform="translate(127.246094 0)"/>
       <use xlink:href="#DejaVuSans-30" transform="translate(190.869141 0)"/>
      </g>
     </g>
    </g>
    <g id="xtick_13">
     <g id="line2d_43">
      <path d="M 355.619587 606.04 
L 355.619587 315.57 
" clip-path="url(#p1984a891ce)" style="fill: none; stroke: #b0b0b0; stroke-opacity: 0.25; stroke-width: 0.8; stroke-linecap: square"/>
     </g>
     <g id="line2d_44">
      <g>
       <use xlink:href="#mb2303b9169" x="355.619587" y="606.04" style="stroke: #000000; stroke-width: 0.8"/>
      </g>
     </g>
     <g id="text_14">
      <!-- 1500 -->
      <g transform="translate(342.894587 620.638438) scale(0.1 -0.1)">
       <use xlink:href="#DejaVuSans-31"/>
       <use xlink:href="#DejaVuSans-35" transform="translate(63.623047 0)"/>
       <use xlink:href="#DejaVuSans-30" transform="translate(127.246094 0)"/>
       <use xlink:href="#DejaVuSans-30" transform="translate(190.869141 0)"/>
      </g>
     </g>
    </g>
    <g id="xtick_14">
     <g id="line2d_45">
      <path d="M 444.460541 606.04 
L 444.460541 315.57 
" clip-path="url(#p1984a891ce)" style="fill: none; stroke: #b0b0b0; stroke-opacity: 0.25; stroke-width: 0.8; stroke-linecap: square"/>
     </g>
     <g id="line2d_46">
      <g>
       <use xlink:href="#mb2303b9169" x="444.460541" y="606.04" style="stroke: #000000; stroke-width: 0.8"/>
      </g>
     </g>
     <g id="text_15">
      <!-- 2000 -->
      <g transform="translate(431.735541 620.638438) scale(0.1 -0.1)">
       <use xlink:href="#DejaVuSans-32"/>
       <use xlink:href="#DejaVuSans-30" transform="translate(63.623047 0)"/>
       <use xlink:href="#DejaVuSans-30" transform="translate(127.246094 0)"/>
       <use xlink:href="#DejaVuSans-30" transform="translate(190.869141 0)"/>
      </g>
     </g>
    </g>
    <g id="xtick_15">
     <g id="line2d_47">
      <path d="M 533.301494 606.04 
L 533.301494 315.57 
" clip-path="url(#p1984a891ce)" style="fill: none; stroke: #b0b0b0; stroke-opacity: 0.25; stroke-width: 0.8; stroke-linecap: square"/>
     </g>
     <g id="line2d_48">
      <g>
       <use xlink:href="#mb2303b9169" x="533.301494" y="606.04" style="stroke: #000000; stroke-width: 0.8"/>
      </g>
     </g>
     <g id="text_16">
      <!-- 2500 -->
      <g transform="translate(520.576494 620.638438) scale(0.1 -0.1)">
       <use xlink:href="#DejaVuSans-32"/>
       <use xlink:href="#DejaVuSans-35" transform="translate(63.623047 0)"/>
       <use xlink:href="#DejaVuSans-30" transform="translate(127.246094 0)"/>
       <use xlink:href="#DejaVuSans-30" transform="translate(190.869141 0)"/>
      </g>
     </g>
    </g>
    <g id="xtick_16">
     <g id="line2d_49">
      <path d="M 622.142448 606.04 
L 622.142448 315.57 
" clip-path="url(#p1984a891ce)" style="fill: none; stroke: #b0b0b0; stroke-opacity: 0.25; stroke-width: 0.8; stroke-linecap: square"/>
     </g>
     <g id="line2d_50">
      <g>
       <use xlink:href="#mb2303b9169" x="622.142448" y="606.04" style="stroke: #000000; stroke-width: 0.8"/>
      </g>
     </g>
     <g id="text_17">
      <!-- 3000 -->
      <g transform="translate(609.417448 620.638438) scale(0.1 -0.1)">
       <use xlink:href="#DejaVuSans-33"/>
       <use xlink:href="#DejaVuSans-30" transform="translate(63.623047 0)"/>
       <use xlink:href="#DejaVuSans-30" transform="translate(127.246094 0)"/>
       <use xlink:href="#DejaVuSans-30" transform="translate(190.869141 0)"/>
      </g>
     </g>
    </g>
    <g id="xtick_17">
     <g id="line2d_51">
      <path d="M 710.983402 606.04 
L 710.983402 315.57 
" clip-path="url(#p1984a891ce)" style="fill: none; stroke: #b0b0b0; stroke-opacity: 0.25; stroke-width: 0.8; stroke-linecap: square"/>
     </g>
     <g id="line2d_52">
      <g>
       <use xlink:href="#mb2303b9169" x="710.983402" y="606.04" style="stroke: #000000; stroke-width: 0.8"/>
      </g>
     </g>
     <g id="text_18">
      <!-- 3500 -->
      <g transform="translate(698.258402 620.638438) scale(0.1 -0.1)">
       <use xlink:href="#DejaVuSans-33"/>
       <use xlink:href="#DejaVuSans-35" transform="translate(63.623047 0)"/>
       <use xlink:href="#DejaVuSans-30" transform="translate(127.246094 0)"/>
       <use xlink:href="#DejaVuSans-30" transform="translate(190.869141 0)"/>
      </g>
     </g>
    </g>
    <g id="xtick_18">
     <g id="line2d_53">
      <path d="M 799.824355 606.04 
L 799.824355 315.57 
" clip-path="url(#p1984a891ce)" style="fill: none; stroke: #b0b0b0; stroke-opacity: 0.25; stroke-width: 0.8; stroke-linecap: square"/>
     </g>
     <g id="line2d_54">
      <g>
       <use xlink:href="#mb2303b9169" x="799.824355" y="606.04" style="stroke: #000000; stroke-width: 0.8"/>
      </g>
     </g>
     <g id="text_19">
      <!-- 4000 -->
      <g transform="translate(787.099355 620.638438) scale(0.1 -0.1)">
       <use xlink:href="#DejaVuSans-34"/>
       <use xlink:href="#DejaVuSans-30" transform="translate(63.623047 0)"/>
       <use xlink:href="#DejaVuSans-30" transform="translate(127.246094 0)"/>
       <use xlink:href="#DejaVuSans-30" transform="translate(190.869141 0)"/>
      </g>
     </g>
    </g>
    <g id="text_20">
     <!-- u52 limbs -->
     <g transform="translate(429.152344 634.316563) scale(0.1 -0.1)">
      <defs>
       <path id="DejaVuSans-75" d="M 544 1381 
L 544 3500 
L 1119 3500 
L 1119 1403 
Q 1119 906 1312 657 
Q 1506 409 1894 409 
Q 2359 409 2629 706 
Q 2900 1003 2900 1516 
L 2900 3500 
L 3475 3500 
L 3475 0 
L 2900 0 
L 2900 538 
Q 2691 219 2414 64 
Q 2138 -91 1772 -91 
Q 1169 -91 856 284 
Q 544 659 544 1381 
z
M 1991 3584 
L 1991 3584 
z
" transform="scale(0.015625)"/>
      </defs>
      <use xlink:href="#DejaVuSans-75"/>
      <use xlink:href="#DejaVuSans-35" transform="translate(63.378906 0)"/>
      <use xlink:href="#DejaVuSans-32" transform="translate(127.001953 0)"/>
      <use xlink:href="#DejaVuSans-20" transform="translate(190.625 0)"/>
      <use xlink:href="#DejaVuSans-6c" transform="translate(222.412109 0)"/>
      <use xlink:href="#DejaVuSans-69" transform="translate(250.195312 0)"/>
      <use xlink:href="#DejaVuSans-6d" transform="translate(277.978516 0)"/>
      <use xlink:href="#DejaVuSans-62" transform="translate(375.390625 0)"/>
      <use xlink:href="#DejaVuSans-73" transform="translate(438.867188 0)"/>
     </g>
    </g>
   </g>
   <g id="matplotlib.axis_4">
    <g id="ytick_8">
     <g id="line2d_55">
      <path d="M 54.2 600.245498 
L 853.2 600.245498 
" clip-path="url(#p1984a891ce)" style="fill: none; stroke: #b0b0b0; stroke-opacity: 0.25; stroke-width: 0.8; stroke-linecap: square"/>
     </g>
     <g id="line2d_56">
      <g>
       <use xlink:href="#m0a1e8958a9" x="54.2" y="600.245498" style="stroke: #000000; stroke-width: 0.8"/>
      </g>
     </g>
     <g id="text_21">
      <!-- 0.8 -->
      <g transform="translate(31.296875 604.044717) scale(0.1 -0.1)">
       <defs>
        <path id="DejaVuSans-38" d="M 2034 2216 
Q 1584 2216 1326 1975 
Q 1069 1734 1069 1313 
Q 1069 891 1326 650 
Q 1584 409 2034 409 
Q 2484 409 2743 651 
Q 3003 894 3003 1313 
Q 3003 1734 2745 1975 
Q 2488 2216 2034 2216 
z
M 1403 2484 
Q 997 2584 770 2862 
Q 544 3141 544 3541 
Q 544 4100 942 4425 
Q 1341 4750 2034 4750 
Q 2731 4750 3128 4425 
Q 3525 4100 3525 3541 
Q 3525 3141 3298 2862 
Q 3072 2584 2669 2484 
Q 3125 2378 3379 2068 
Q 3634 1759 3634 1313 
Q 3634 634 3220 271 
Q 2806 -91 2034 -91 
Q 1263 -91 848 271 
Q 434 634 434 1313 
Q 434 1759 690 2068 
Q 947 2378 1403 2484 
z
M 1172 3481 
Q 1172 3119 1398 2916 
Q 1625 2713 2034 2713 
Q 2441 2713 2670 2916 
Q 2900 3119 2900 3481 
Q 2900 3844 2670 4047 
Q 2441 4250 2034 4250 
Q 1625 4250 1398 4047 
Q 1172 3844 1172 3481 
z
" transform="scale(0.015625)"/>
       </defs>
       <use xlink:href="#DejaVuSans-30"/>
       <use xlink:href="#DejaVuSans-2e" transform="translate(63.623047 0)"/>
       <use xlink:href="#DejaVuSans-38" transform="translate(95.410156 0)"/>
      </g>
     </g>
    </g>
    <g id="ytick_9">
     <g id="line2d_57">
      <path d="M 54.2 564.362899 
L 853.2 564.362899 
" clip-path="url(#p1984a891ce)" style="fill: none; stroke: #b0b0b0; stroke-opacity: 0.25; stroke-width: 0.8; stroke-linecap: square"/>
     </g>
     <g id="line2d_58">
      <g>
       <use xlink:href="#m0a1e8958a9" x="54.2" y="564.362899" style="stroke: #000000; stroke-width: 0.8"/>
      </g>
     </g>
     <g id="text_22">
      <!-- 0.9 -->
      <g transform="translate(31.296875 568.162118) scale(0.1 -0.1)">
       <defs>
        <path id="DejaVuSans-39" d="M 703 97 
L 703 672 
Q 941 559 1184 500 
Q 1428 441 1663 441 
Q 2288 441 2617 861 
Q 2947 1281 2994 2138 
Q 2813 1869 2534 1725 
Q 2256 1581 1919 1581 
Q 1219 1581 811 2004 
Q 403 2428 403 3163 
Q 403 3881 828 4315 
Q 1253 4750 1959 4750 
Q 2769 4750 3195 4129 
Q 3622 3509 3622 2328 
Q 3622 1225 3098 567 
Q 2575 -91 1691 -91 
Q 1453 -91 1209 -44 
Q 966 3 703 97 
z
M 1959 2075 
Q 2384 2075 2632 2365 
Q 2881 2656 2881 3163 
Q 2881 3666 2632 3958 
Q 2384 4250 1959 4250 
Q 1534 4250 1286 3958 
Q 1038 3666 1038 3163 
Q 1038 2656 1286 2365 
Q 1534 2075 1959 2075 
z
" transform="scale(0.015625)"/>
       </defs>
       <use xlink:href="#DejaVuSans-30"/>
       <use xlink:href="#DejaVuSans-2e" transform="translate(63.623047 0)"/>
       <use xlink:href="#DejaVuSans-39" transform="translate(95.410156 0)"/>
      </g>
     </g>
    </g>
    <g id="ytick_10">
     <g id="line2d_59">
      <path d="M 54.2 528.4803 
L 853.2 528.4803 
" clip-path="url(#p1984a891ce)" style="fill: none; stroke: #b0b0b0; stroke-opacity: 0.25; stroke-width: 0.8; stroke-linecap: square"/>
     </g>
     <g id="line2d_60">
      <g>
       <use xlink:href="#m0a1e8958a9" x="54.2" y="528.4803" style="stroke: #000000; stroke-width: 0.8"/>
      </g>
     </g>
     <g id="text_23">
      <!-- 1.0 -->
      <g transform="translate(31.296875 532.279519) scale(0.1 -0.1)">
       <use xlink:href="#DejaVuSans-31"/>
       <use xlink:href="#DejaVuSans-2e" transform="translate(63.623047 0)"/>
       <use xlink:href="#DejaVuSans-30" transform="translate(95.410156 0)"/>
      </g>
     </g>
    </g>
    <g id="ytick_11">
     <g id="line2d_61">
      <path d="M 54.2 492.597701 
L 853.2 492.597701 
" clip-path="url(#p1984a891ce)" style="fill: none; stroke: #b0b0b0; stroke-opacity: 0.25; stroke-width: 0.8; stroke-linecap: square"/>
     </g>
     <g id="line2d_62">
      <g>
       <use xlink:href="#m0a1e8958a9" x="54.2" y="492.597701" style="stroke: #000000; stroke-width: 0.8"/>
      </g>
     </g>
     <g id="text_24">
      <!-- 1.1 -->
      <g transform="translate(31.296875 496.396919) scale(0.1 -0.1)">
       <use xlink:href="#DejaVuSans-31"/>
       <use xlink:href="#DejaVuSans-2e" transform="translate(63.623047 0)"/>
       <use xlink:href="#DejaVuSans-31" transform="translate(95.410156 0)"/>
      </g>
     </g>
    </g>
    <g id="ytick_12">
     <g id="line2d_63">
      <path d="M 54.2 456.715101 
L 853.2 456.715101 
" clip-path="url(#p1984a891ce)" style="fill: none; stroke: #b0b0b0; stroke-opacity: 0.25; stroke-width: 0.8; stroke-linecap: square"/>
     </g>
     <g id="line2d_64">
      <g>
       <use xlink:href="#m0a1e8958a9" x="54.2" y="456.715101" style="stroke: #000000; stroke-width: 0.8"/>
      </g>
     </g>
     <g id="text_25">
      <!-- 1.2 -->
      <g transform="translate(31.296875 460.51432) scale(0.1 -0.1)">
       <use xlink:href="#DejaVuSans-31"/>
       <use xlink:href="#DejaVuSans-2e" transform="translate(63.623047 0)"/>
       <use xlink:href="#DejaVuSans-32" transform="translate(95.410156 0)"/>
      </g>
     </g>
    </g>
    <g id="ytick_13">
     <g id="line2d_65">
      <path d="M 54.2 420.832502 
L 853.2 420.832502 
" clip-path="url(#p1984a891ce)" style="fill: none; stroke: #b0b0b0; stroke-opacity: 0.25; stroke-width: 0.8; stroke-linecap: square"/>
     </g>
     <g id="line2d_66">
      <g>
       <use xlink:href="#m0a1e8958a9" x="54.2" y="420.832502" style="stroke: #000000; stroke-width: 0.8"/>
      </g>
     </g>
     <g id="text_26">
      <!-- 1.3 -->
      <g transform="translate(31.296875 424.631721) scale(0.1 -0.1)">
       <use xlink:href="#DejaVuSans-31"/>
       <use xlink:href="#DejaVuSans-2e" transform="translate(63.623047 0)"/>
       <use xlink:href="#DejaVuSans-33" transform="translate(95.410156 0)"/>
      </g>
     </g>
    </g>
    <g id="ytick_14">
     <g id="line2d_67">
      <path d="M 54.2 384.949903 
L 853.2 384.949903 
" clip-path="url(#p1984a891ce)" style="fill: none; stroke: #b0b0b0; stroke-opacity: 0.25; stroke-width: 0.8; stroke-linecap: square"/>
     </g>
     <g id="line2d_68">
      <g>
       <use xlink:href="#m0a1e8958a9" x="54.2" y="384.949903" style="stroke: #000000; stroke-width: 0.8"/>
      </g>
     </g>
     <g id="text_27">
      <!-- 1.4 -->
      <g transform="translate(31.296875 388.749122) scale(0.1 -0.1)">
       <use xlink:href="#DejaVuSans-31"/>
       <use xlink:href="#DejaVuSans-2e" transform="translate(63.623047 0)"/>
       <use xlink:href="#DejaVuSans-34" transform="translate(95.410156 0)"/>
      </g>
     </g>
    </g>
    <g id="ytick_15">
     <g id="line2d_69">
      <path d="M 54.2 349.067303 
L 853.2 349.067303 
" clip-path="url(#p1984a891ce)" style="fill: none; stroke: #b0b0b0; stroke-opacity: 0.25; stroke-width: 0.8; stroke-linecap: square"/>
     </g>
     <g id="line2d_70">
      <g>
       <use xlink:href="#m0a1e8958a9" x="54.2" y="349.067303" style="stroke: #000000; stroke-width: 0.8"/>
      </g>
     </g>
     <g id="text_28">
      <!-- 1.5 -->
      <g transform="translate(31.296875 352.866522) scale(0.1 -0.1)">
       <use xlink:href="#DejaVuSans-31"/>
       <use xlink:href="#DejaVuSans-2e" transform="translate(63.623047 0)"/>
       <use xlink:href="#DejaVuSans-35" transform="translate(95.410156 0)"/>
      </g>
     </g>
    </g>
    <g id="text_29">
     <!-- speedup -->
     <g transform="translate(25.217187 482.254219) rotate(-90) scale(0.1 -0.1)">
      <defs>
       <path id="DejaVuSans-70" d="M 1159 525 
L 1159 -1331 
L 581 -1331 
L 581 3500 
L 1159 3500 
L 1159 2969 
Q 1341 3281 1617 3432 
Q 1894 3584 2278 3584 
Q 2916 3584 3314 3078 
Q 3713 2572 3713 1747 
Q 3713 922 3314 415 
Q 2916 -91 2278 -91 
Q 1894 -91 1617 61 
Q 1341 213 1159 525 
z
M 3116 1747 
Q 3116 2381 2855 2742 
Q 2594 3103 2138 3103 
Q 1681 3103 1420 2742 
Q 1159 2381 1159 1747 
Q 1159 1113 1420 752 
Q 1681 391 2138 391 
Q 2594 391 2855 752 
Q 3116 1113 3116 1747 
z
" transform="scale(0.015625)"/>
       <path id="DejaVuSans-65" d="M 3597 1894 
L 3597 1613 
L 953 1613 
Q 991 1019 1311 708 
Q 1631 397 2203 397 
Q 2534 397 2845 478 
Q 3156 559 3463 722 
L 3463 178 
Q 3153 47 2828 -22 
Q 2503 -91 2169 -91 
Q 1331 -91 842 396 
Q 353 884 353 1716 
Q 353 2575 817 3079 
Q 1281 3584 2069 3584 
Q 2775 3584 3186 3129 
Q 3597 2675 3597 1894 
z
M 3022 2063 
Q 3016 2534 2758 2815 
Q 2500 3097 2075 3097 
Q 1594 3097 1305 2825 
Q 1016 2553 972 2059 
L 3022 2063 
z
" transform="scale(0.015625)"/>
       <path id="DejaVuSans-64" d="M 2906 2969 
L 2906 4863 
L 3481 4863 
L 3481 0 
L 2906 0 
L 2906 525 
Q 2725 213 2448 61 
Q 2172 -91 1784 -91 
Q 1150 -91 751 415 
Q 353 922 353 1747 
Q 353 2572 751 3078 
Q 1150 3584 1784 3584 
Q 2172 3584 2448 3432 
Q 2725 3281 2906 2969 
z
M 947 1747 
Q 947 1113 1208 752 
Q 1469 391 1925 391 
Q 2381 391 2643 752 
Q 2906 1113 2906 1747 
Q 2906 2381 2643 2742 
Q 2381 3103 1925 3103 
Q 1469 3103 1208 2742 
Q 947 2381 947 1747 
z
" transform="scale(0.015625)"/>
      </defs>
      <use xlink:href="#DejaVuSans-73"/>
      <use xlink:href="#DejaVuSans-70" transform="translate(52.099609 0)"/>
      <use xlink:href="#DejaVuSans-65" transform="translate(115.576172 0)"/>
      <use xlink:href="#DejaVuSans-65" transform="translate(177.099609 0)"/>
      <use xlink:href="#DejaVuSans-64" transform="translate(238.623047 0)"/>
      <use xlink:href="#DejaVuSans-75" transform="translate(302.099609 0)"/>
      <use xlink:href="#DejaVuSans-70" transform="translate(365.478516 0)"/>
     </g>
    </g>
   </g>
   <g id="line2d_71">
    <path d="M 54.2 528.4803 
L 853.2 528.4803 
" clip-path="url(#p1984a891ce)" style="fill: none; stroke: #000000; stroke-opacity: 0.5; stroke-width: 0.8; stroke-linecap: square"/>
   </g>
   <g id="line2d_72">
    <path d="M 90.518182 592.836818 
L 91.939637 518.048152 
L 93.361092 496.710205 
L 94.782548 482.671856 
L 96.204003 476.07484 
L 97.625458 456.404358 
L 99.046913 447.866094 
L 100.468369 441.749904 
L 101.889824 442.226425 
L 103.311279 429.907211 
L 104.732734 435.923647 
L 106.15419 429.02737 
L 107.575645 429.659263 
L 108.9971 411.470732 
L 110.418555 424.048301 
L 113.261466 422.635961 
L 114.682921 418.527763 
L 116.104376 423.096694 
L 117.525832 418.960148 
L 118.947287 419.350192 
L 120.368742 417.118294 
L 121.790197 416.55422 
L 123.211653 414.536182 
L 124.633108 414.248763 
L 126.054563 416.600149 
L 127.476019 417.443391 
L 128.897474 414.74179 
L 130.318929 415.52726 
L 131.740384 412.616463 
L 133.16184 414.643113 
L 134.583295 412.850059 
L 136.00475 412.307873 
L 137.426205 413.758965 
L 138.847661 414.945603 
L 140.269116 412.222472 
L 141.690571 413.456116 
L 143.112026 411.100065 
L 144.533482 412.169366 
L 145.954937 410.71325 
L 147.376392 411.459249 
L 150.219303 411.511638 
L 151.640758 412.353085 
L 153.062213 410.87221 
L 154.483668 411.598833 
L 155.905124 411.842476 
L 157.326579 411.137741 
L 158.748034 411.931106 
L 160.169489 410.104681 
L 161.590945 410.960123 
L 163.0124 405.242948 
L 164.433855 409.938904 
L 165.85531 409.880056 
L 168.698221 409.949669 
L 170.119676 408.677989 
L 171.541131 408.185321 
L 172.962587 406.543333 
L 174.384042 399.754704 
L 175.805497 406.264167 
L 177.226952 404.498025 
L 178.648408 404.435589 
L 180.069863 386.550267 
L 181.491318 400.175966 
L 182.912774 399.337031 
L 184.334229 399.130706 
L 185.755684 400.886442 
L 187.177139 398.41126 
L 188.598595 401.269668 
L 190.02005 403.088916 
L 191.441505 397.642655 
L 192.86296 401.783507 
L 194.284416 400.820059 
L 195.705871 398.419154 
L 197.127326 400.706311 
L 198.548781 400.941342 
L 199.970237 398.716262 
L 201.391692 399.239071 
L 202.813147 401.637823 
L 204.234602 400.029565 
L 205.656058 401.307703 
L 207.077513 399.113482 
L 208.498968 399.399108 
L 209.920423 401.764489 
L 211.341879 400.926271 
L 212.763334 400.404538 
L 214.184789 402.661554 
L 215.606244 402.330357 
L 217.0277 401.072672 
L 218.449155 400.078365 
L 219.87061 401.737577 
L 221.292065 402.094609 
L 222.713521 402.001673 
L 225.556431 400.275361 
L 226.977886 402.047961 
L 228.399342 399.923353 
L 229.820797 400.68227 
L 231.242252 402.554265 
L 232.663708 401.448363 
L 234.085163 401.676935 
L 235.506618 402.159556 
L 236.928073 400.31842 
L 238.349529 400.845535 
L 239.770984 401.878237 
L 241.192439 400.737888 
L 242.613894 401.330668 
L 244.03535 400.912277 
L 245.456805 401.158432 
L 246.87826 400.661099 
L 248.299715 401.830154 
L 249.721171 400.219384 
L 251.142626 401.273974 
L 252.564081 402.06375 
L 253.985536 402.227374 
L 255.406992 401.695953 
L 256.828447 403.186157 
L 258.249902 402.550318 
L 259.671357 402.315646 
L 261.092813 401.040019 
L 262.514268 398.105181 
L 263.935723 401.420016 
L 265.357178 399.118865 
L 266.778634 399.029517 
L 268.200089 401.15592 
L 269.621544 399.100923 
L 271.042999 399.587133 
L 272.464455 400.778435 
L 273.88591 399.41382 
L 276.72882 400.216155 
L 278.150276 399.256295 
L 279.571731 399.604356 
L 280.993186 399.599333 
L 282.414642 398.655262 
L 283.836097 399.121735 
L 285.257552 397.817762 
L 286.679007 399.036335 
L 288.100463 398.746403 
L 289.521918 398.317965 
L 290.943373 398.974258 
L 292.364828 398.171205 
L 293.786284 398.127429 
L 295.207739 398.903928 
L 296.629194 398.928328 
L 298.050649 400.159819 
L 299.472105 398.674279 
L 302.315015 398.878451 
L 303.73647 398.96744 
L 305.157926 401.271103 
L 306.579381 398.937658 
L 308.000836 398.686121 
L 309.422291 399.861276 
L 310.843747 398.893522 
L 312.265202 399.785563 
L 313.686657 397.521371 
L 315.108112 398.193453 
L 316.529568 399.628398 
L 317.951023 399.170536 
L 319.372478 399.298637 
L 322.215389 399.022341 
L 323.636844 398.856563 
L 325.058299 400.399515 
L 326.479754 399.336672 
L 327.90121 399.40449 
L 329.322665 400.041406 
L 330.74412 399.51142 
L 332.165576 399.175559 
L 333.587031 398.321195 
L 335.008486 398.841851 
L 337.851397 399.115994 
L 339.272852 399.110971 
L 340.694307 398.756092 
L 342.115762 399.22723 
L 344.958673 399.338825 
L 346.380128 399.515726 
L 347.801583 399.035258 
L 349.223039 398.986458 
L 350.644494 399.857687 
L 352.065949 399.038847 
L 353.487404 398.605385 
L 354.90886 400.211131 
L 356.330315 399.241224 
L 359.173225 398.423819 
L 360.594681 398.883116 
L 363.437591 399.435708 
L 364.859046 397.749944 
L 366.280502 398.679303 
L 367.701957 400.8502 
L 369.123412 399.956365 
L 370.544867 399.914023 
L 371.966323 399.215748 
L 373.387778 399.550532 
L 374.809233 402.654377 
L 376.230688 399.155465 
L 377.652144 401.58077 
L 379.073599 400.079801 
L 380.495054 403.07851 
L 381.91651 399.982918 
L 383.337965 401.390951 
L 384.75942 400.013059 
L 386.180875 401.458051 
L 387.602331 402.16458 
L 389.023786 400.901153 
L 390.445241 402.5435 
L 391.866696 399.826111 
L 393.288152 399.879576 
L 394.709607 398.810992 
L 396.131062 399.511062 
L 397.552517 399.9639 
L 398.973973 399.602562 
L 400.395428 398.807045 
L 401.816883 402.055138 
L 403.238338 402.13408 
L 404.659794 401.869984 
L 406.081249 399.68868 
L 407.502704 400.681911 
L 408.924159 401.360092 
L 410.345615 398.815298 
L 411.76707 399.119582 
L 413.188525 400.174531 
L 414.60998 399.917611 
L 416.031436 402.310981 
L 417.452891 399.766546 
L 418.874346 401.678012 
L 420.295801 399.597539 
L 421.717257 399.56058 
L 423.138712 399.232254 
L 424.560167 399.886752 
L 425.981622 391.646313 
L 427.403078 388.990283 
L 428.824533 390.464341 
L 430.245988 392.624473 
L 431.667444 391.569884 
L 433.088899 392.375807 
L 435.931809 392.256318 
L 437.353265 398.827857 
L 438.77472 400.985478 
L 440.196175 385.320211 
L 441.61763 399.890341 
L 443.039086 400.661099 
L 444.460541 399.970359 
L 445.881996 392.229047 
L 447.303451 392.576749 
L 448.724907 391.691526 
L 450.146362 404.56369 
L 451.567817 409.869291 
L 452.989272 407.160873 
L 454.410728 376.573828 
L 455.832183 396.79439 
L 457.253638 394.316338 
L 458.675093 407.156567 
L 460.096549 406.979666 
L 461.518004 410.811569 
L 462.939459 399.129988 
L 465.78237 383.354562 
L 467.203825 396.940432 
L 468.62528 379.435824 
L 470.046735 399.339902 
L 471.468191 407.252732 
L 472.889646 406.815323 
L 474.311101 397.19161 
L 475.732556 398.000763 
L 477.154012 403.064157 
L 478.575467 406.780876 
L 479.996922 397.654137 
L 481.418378 392.62842 
L 482.839833 389.147449 
L 484.261288 391.061068 
L 485.682743 392.765492 
L 487.104199 390.862996 
L 488.525654 405.944094 
L 489.947109 395.028607 
L 491.368564 397.54936 
L 492.79002 404.142429 
L 494.211475 391.225769 
L 495.63293 328.773182 
L 497.054385 397.847903 
L 498.475841 392.398054 
L 499.897296 391.440706 
L 501.318751 401.332821 
L 502.740206 405.630839 
L 504.161662 408.041791 
L 505.583117 389.173285 
L 507.004572 391.872015 
L 508.426027 391.662461 
L 509.847483 391.224693 
L 511.268938 389.978131 
L 512.690393 391.514265 
L 514.111848 390.348799 
L 515.533304 394.227708 
L 516.954759 390.305022 
L 518.376214 391.265958 
L 519.797669 389.719059 
L 521.219125 391.007603 
L 522.64058 389.937225 
L 524.062035 390.743507 
L 525.48349 392.468743 
L 526.904946 391.228281 
L 528.326401 385.658584 
L 529.747856 393.055423 
L 531.169312 390.086138 
L 532.590767 391.590695 
L 534.012222 390.389705 
L 535.433677 392.439678 
L 536.855133 389.55364 
L 538.276588 391.65959 
L 539.698043 391.814962 
L 541.119498 390.096185 
L 542.540954 390.939426 
L 543.962409 391.015497 
L 545.383864 390.855461 
L 546.805319 390.252633 
L 548.226775 393.051835 
L 549.64823 391.389035 
L 551.069685 390.668154 
L 552.49114 392.045328 
L 553.912596 390.580959 
L 555.334051 391.134269 
L 556.755506 390.306098 
L 558.176961 390.971721 
L 559.598417 390.220698 
L 561.019872 391.55266 
L 562.441327 389.750277 
L 563.862782 390.944809 
L 565.284238 390.969568 
L 566.705693 392.119964 
L 568.127148 390.766472 
L 569.548603 390.571988 
L 570.970059 390.705472 
L 572.391514 393.594739 
L 573.812969 391.4608 
L 575.234424 392.329877 
L 576.65588 391.237252 
L 579.49879 390.937991 
L 580.920246 391.58316 
L 582.341701 389.906007 
L 583.763156 390.855461 
L 585.184611 389.648011 
L 586.606067 392.493143 
L 588.027522 390.813119 
L 589.448977 389.979926 
L 590.870432 390.152521 
L 592.291888 390.5196 
L 593.713343 390.237921 
L 595.134798 390.349875 
L 596.556253 389.165749 
L 597.977709 390.777596 
L 599.399164 389.698965 
L 600.820619 390.523188 
L 602.242074 390.211009 
L 603.66353 390.505247 
L 605.084985 390.095109 
L 606.50644 390.880579 
L 607.927895 390.977821 
L 609.349351 391.430659 
L 610.770806 390.458241 
L 612.192261 391.629449 
L 613.613716 388.71327 
L 615.035172 390.549024 
L 616.456627 391.594284 
L 617.878082 388.904883 
L 620.720993 390.05815 
L 622.142448 392.987964 
L 623.563903 390.918614 
L 624.985358 389.372792 
L 626.406814 390.160415 
L 629.249724 391.309735 
L 630.67118 390.756784 
L 632.092635 391.663178 
L 633.51409 389.973825 
L 634.935545 390.671383 
L 636.357001 389.136326 
L 637.778456 392.299736 
L 639.199911 391.419177 
L 640.621366 390.354181 
L 642.042822 390.523906 
L 643.464277 391.442859 
L 644.885732 390.598183 
L 646.307187 391.270264 
L 647.728643 390.155033 
L 650.571553 390.005761 
L 651.993008 390.474747 
L 653.414464 390.12848 
L 654.835919 391.60756 
L 656.257374 391.484483 
L 657.678829 390.947679 
L 659.100285 389.636888 
L 660.52174 390.483717 
L 663.36465 391.032003 
L 664.786106 390.786566 
L 666.207561 390.966338 
L 667.629016 403.332558 
L 669.050471 407.365045 
L 670.471927 406.235461 
L 671.893382 407.028107 
L 673.314837 406.341314 
L 674.736292 406.815323 
L 676.157748 407.674353 
L 677.579203 407.169485 
L 680.422114 407.153696 
L 681.843569 408.705619 
L 683.265024 407.21362 
L 686.107935 406.868789 
L 687.52939 406.374685 
L 688.950845 407.964284 
L 690.3723 406.262373 
L 691.793756 406.404468 
L 693.215211 411.070282 
L 694.636666 407.428916 
L 696.058121 406.617969 
L 697.479577 411.104729 
L 698.901032 409.098533 
L 700.322487 402.947179 
L 703.165398 408.367246 
L 704.586853 408.500012 
L 706.008308 407.759395 
L 707.429763 405.729516 
L 708.851219 406.861253 
L 710.272674 405.841829 
L 711.694129 408.255651 
L 713.115584 406.784464 
L 714.53704 408.24991 
L 715.958495 406.094801 
L 718.801405 404.020069 
L 720.222861 406.693681 
L 721.644316 407.010166 
L 723.065771 406.864483 
L 724.487226 403.961939 
L 725.908682 399.574215 
L 727.330137 396.924285 
L 728.751592 399.143265 
L 730.173048 396.442023 
L 731.594503 399.166947 
L 733.015958 397.324017 
L 734.437413 397.795873 
L 735.858869 396.519888 
L 737.280324 394.617751 
L 738.701779 391.654208 
L 740.123234 392.226535 
L 741.54469 391.174457 
L 742.966145 391.767955 
L 744.3876 391.616531 
L 747.230511 390.267704 
L 748.651966 391.388676 
L 750.073421 391.425994 
L 751.494876 393.348225 
L 752.916332 391.296099 
L 754.337787 391.969257 
L 755.759242 390.788361 
L 757.180697 391.392623 
L 758.602153 391.115969 
L 760.023608 391.618325 
L 762.866518 391.408053 
L 764.287974 390.542206 
L 765.709429 390.91072 
L 767.130884 389.901343 
L 768.552339 391.898568 
L 769.973795 390.890626 
L 771.39525 390.467929 
L 772.816705 390.457164 
L 774.23816 387.116853 
L 775.659616 390.999709 
L 777.081071 394.056906 
L 778.502526 390.137091 
L 779.923981 390.748531 
L 781.345437 338.098352 
L 782.766892 393.16953 
L 784.188347 391.380423 
L 785.609803 392.526155 
L 787.031258 390.628324 
L 788.452713 391.109151 
L 789.874168 390.652365 
L 791.295624 392.591102 
L 792.717079 390.539694 
L 794.138534 391.389394 
L 795.559989 391.165845 
L 796.981445 388.541392 
L 798.4029 391.774773 
L 799.824355 391.992222 
L 801.24581 390.888114 
L 802.667266 390.969926 
L 804.088721 391.768314 
L 805.510176 403.141304 
L 806.931631 391.60146 
L 808.353087 392.108123 
L 809.774542 399.287513 
L 812.617452 399.335237 
L 814.038908 399.653515 
L 815.460363 398.891369 
L 816.881818 397.713343 
L 816.881818 397.713343 
" clip-path="url(#p1984a891ce)" style="fill: none; stroke: #1f77b4; stroke-width: 1.6; stroke-linecap: square"/>
   </g>
   <g id="patch_9">
    <path d="M 54.2 606.04 
L 54.2 315.57 
" style="fill: none; stroke: #000000; stroke-width: 0.8; stroke-linejoin: miter; stroke-linecap: square"/>
   </g>
   <g id="patch_10">
    <path d="M 853.2 606.04 
L 853.2 315.57 
" style="fill: none; stroke: #000000; stroke-width: 0.8; stroke-linejoin: miter; stroke-linecap: square"/>
   </g>
   <g id="patch_11">
    <path d="M 54.2 606.04 
L 853.2 606.04 
" style="fill: none; stroke: #000000; stroke-width: 0.8; stroke-linejoin: miter; stroke-linecap: square"/>
   </g>
   <g id="patch_12">
    <path d="M 54.2 315.57 
L 853.2 315.57 
" style="fill: none; stroke: #000000; stroke-width: 0.8; stroke-linejoin: miter; stroke-linecap: square"/>
   </g>
   <g id="legend_2">
    <g id="patch_13">
     <path d="M 61.2 338.248125 
L 158.404688 338.248125 
Q 160.404688 338.248125 160.404688 336.248125 
L 160.404688 322.57 
Q 160.404688 320.57 158.404688 320.57 
L 61.2 320.57 
Q 59.2 320.57 59.2 322.57 
L 59.2 336.248125 
Q 59.2 338.248125 61.2 338.248125 
z
" style="fill: #ffffff; opacity: 0.8; stroke: #cccccc; stroke-linejoin: miter"/>
    </g>
    <g id="line2d_73">
     <path d="M 63.2 328.668438 
L 73.2 328.668438 
L 83.2 328.668438 
" style="fill: none; stroke: #1f77b4; stroke-width: 1.6; stroke-linecap: square"/>
    </g>
    <g id="text_30">
     <!-- scalar / SIMD -->
     <g transform="translate(91.2 332.168438) scale(0.1 -0.1)">
      <use xlink:href="#DejaVuSans-73"/>
      <use xlink:href="#DejaVuSans-63" transform="translate(52.099609 0)"/>
      <use xlink:href="#DejaVuSans-61" transform="translate(107.080078 0)"/>
      <use xlink:href="#DejaVuSans-6c" transform="translate(168.359375 0)"/>
      <use xlink:href="#DejaVuSans-61" transform="translate(196.142578 0)"/>
      <use xlink:href="#DejaVuSans-72" transform="translate(257.421875 0)"/>
      <use xlink:href="#DejaVuSans-20" transform="translate(298.535156 0)"/>
      <use xlink:href="#DejaVuSans-2f" transform="translate(330.322266 0)"/>
      <use xlink:href="#DejaVuSans-20" transform="translate(364.013672 0)"/>
      <use xlink:href="#DejaVuSans-53" transform="translate(395.800781 0)"/>
      <use xlink:href="#DejaVuSans-49" transform="translate(459.277344 0)"/>
      <use xlink:href="#DejaVuSans-4d" transform="translate(488.769531 0)"/>
      <use xlink:href="#DejaVuSans-44" transform="translate(575.048828 0)"/>
     </g>
    </g>
   </g>
  </g>
 </g>
 <defs>
  <clipPath id="p1c3f05a185">
   <rect x="54.2" y="10.8" width="799" height="290.47"/>
  </clipPath>
  <clipPath id="p1984a891ce">
   <rect x="54.2" y="315.57" width="799" height="290.47"/>
  </clipPath>
 </defs>
</svg>
